<?xml version="1.0" encoding="UTF-8" standalone="no"?>
<!-- Created with Inkscape (http://www.inkscape.org/) -->

<svg
   width="458mm"
   height="324mm"
   viewBox="0 0 458 324"
   version="1.1"
   id="svg5"
   inkscape:version="1.2.2 (b0a8486541, 2022-12-01)"
   sodipodi:docname="c2qlabs_logo_attempt.svg"
   xmlns:inkscape="http://www.inkscape.org/namespaces/inkscape"
   xmlns:sodipodi="http://sodipodi.sourceforge.net/DTD/sodipodi-0.dtd"
   xmlns="http://www.w3.org/2000/svg"
   xmlns:svg="http://www.w3.org/2000/svg">
  <sodipodi:namedview
     id="namedview7"
     pagecolor="#ffffff"
     bordercolor="#111111"
     borderopacity="1"
     inkscape:showpageshadow="0"
     inkscape:pageopacity="0"
     inkscape:pagecheckerboard="1"
     inkscape:deskcolor="#d1d1d1"
     inkscape:document-units="mm"
     showgrid="false"
     inkscape:zoom="0.53921852"
     inkscape:cx="870.70451"
     inkscape:cy="811.35937"
     inkscape:window-width="1884"
     inkscape:window-height="1017"
     inkscape:window-x="16"
     inkscape:window-y="43"
     inkscape:window-maximized="1"
     inkscape:current-layer="layer1" />
  <defs
     id="defs2" />
  <g
     inkscape:label="Layer 1"
     inkscape:groupmode="layer"
     id="layer1">
    <path
       id="path113"
       style="fill:#000000;stroke-width:0.264583"
       d="M 168.59643 105.89224 A 74.430847 74.430847 0 0 0 95.70682 180.26497 A 74.430847 74.430847 0 0 0 168.59643 254.6382 L 168.59643 245.48579 A 65.432213 65.432213 0 0 1 167.50554 245.52868 A 65.432213 65.432213 0 0 1 102.07336 180.0965 A 65.432213 65.432213 0 0 1 167.50554 114.66432 A 65.432213 65.432213 0 0 1 168.59643 114.70721 L 168.59643 105.89224 z " />
    <path
       id="path113-6"
       style="fill:#000000;stroke-width:0.219373"
       d="m 115.62323,150.76669 a 61.712551,61.712551 0 0 0 23.9346,82.95769 61.712551,61.712551 0 0 0 83.42327,-22.25873 l -6.60577,-3.73484 a 54.251549,54.251549 0 0 1 -0.41417,0.80487 54.251549,54.251549 0 0 1 -73.92689,20.5249 54.251549,54.251549 0 0 1 -20.52488,-73.92689 54.251549,54.251549 0 0 1 0.47614,-0.76983 z" />
  </g>
</svg>
