<?xml version="1.0" encoding="UTF-8" standalone="no"?>
<svg
   width="743.31018"
   height="327.07501"
   viewBox="0 0 743.31018 327.07501"
   fill="none"
   version="1.1"
   id="svg1276"
   sodipodi:docname="enslogotext_gradient.svg"
   inkscape:version="1.2.1 (9c6d41e410, 2022-07-14)"
   xmlns:inkscape="http://www.inkscape.org/namespaces/inkscape"
   xmlns:sodipodi="http://sodipodi.sourceforge.net/DTD/sodipodi-0.dtd"
   xmlns="http://www.w3.org/2000/svg"
   xmlns:svg="http://www.w3.org/2000/svg">
  <sodipodi:namedview
     id="namedview1278"
     pagecolor="#ffffff"
     bordercolor="#000000"
     borderopacity="0.25"
     inkscape:showpageshadow="2"
     inkscape:pageopacity="0.0"
     inkscape:pagecheckerboard="true"
     inkscape:deskcolor="#d1d1d1"
     showgrid="false"
     inkscape:zoom="1.4375"
     inkscape:cx="372.17391"
     inkscape:cy="163.82609"
     inkscape:window-width="932"
     inkscape:window-height="1017"
     inkscape:window-x="16"
     inkscape:window-y="43"
     inkscape:window-maximized="1"
     inkscape:current-layer="svg1276" />
  <path
     d="m 38.423164,77.173 c 3.069,-5.697 7.497,-10.554 12.896,-14.142 L 141.91216,0 49.088164,152.931 c 0,0 -8.11,-13.656 -11.274,-20.566 -3.941,-8.688 -5.929,-18.129 -5.824,-27.663 0.105,-9.534 2.301,-18.93 6.433,-27.529 z m -37.389,105.496 c 1.023,14.625 5.17,28.863 12.164,41.761 6.993,12.899 16.672,24.159 28.388,33.028 l 100.203996,69.617 c 0,0 -62.693996,-90.021 -115.572996,-179.598 -5.354,-9.464 -8.953,-19.811 -10.625,-30.546 -0.74,-4.861 -0.74,-9.806 0,-14.667 -1.379,2.546 -4.055,7.758 -4.055,7.758 -5.362,10.895 -9.014,22.546 -10.82799998,34.546 -1.044,12.684 -0.935,25.436 0.32499998,38.101 z M 256.51216,194.79 c -3.245,-6.909 -11.274,-20.566 -11.274,-20.566 l -92.661,152.851 90.593,-62.991 c 5.398,-3.588 9.827,-8.444 12.896,-14.141 4.132,-8.6 6.327,-17.996 6.433,-27.529 0.105,-9.534 -1.883,-18.976 -5.825,-27.664 z m 36.78,-50.344 c -1.023,-14.624 -5.17,-28.863 -12.163,-41.761 -6.994,-12.898 -16.673,-24.159 -28.389,-33.027 L 152.69816,0 c 0,0 62.653,90.021 115.574,179.598 5.339,9.467 8.924,19.814 10.584,30.546 0.74,4.861 0.74,9.806 0,14.667 1.379,-2.546 4.055,-7.758 4.055,-7.758 5.362,-10.895 9.014,-22.546 10.827,-34.546 1.058,-12.683 0.963,-25.435 -0.283,-38.101 z"
     fill="url(#paint0_linear_36_18)"
     id="path1238"
     style="fill:url(#paint0_linear_36_18)" />
  <path
     d="m 462.77216,236 h -94.86 V 85.652 h 94.86 v 28.356 h -73.44 l 9.18,-8.568 v 41.208 h 57.12 v 26.928 h -57.12 v 42.636 l -9.18,-8.568 h 73.44 z"
     fill="url(#paint1_linear_36_18)"
     id="path1240"
     style="fill:url(#paint1_linear_36_18)" />
  <path
     d="m 518.38916,236 h -30.396 V 85.652 h 30.396 l 75.072,113.424 h -9.18 V 85.652 h 30.192 V 236 h -30.192 l -75.276,-113.22 h 9.384 z"
     fill="url(#paint2_linear_36_18)"
     id="path1242"
     style="fill:url(#paint2_linear_36_18)" />
  <path
     d="m 634.37416,128.696 c 0,-8.976 2.312,-16.864 6.936,-23.664 4.76,-6.936 11.22,-12.376 19.38,-16.32 8.296,-3.944 17.748,-5.916 28.356,-5.916 10.608,0 19.72,1.904 27.336,5.712 7.752,3.672 13.736,8.908 17.952,15.708 4.352,6.8 6.528,14.892 6.528,24.276 h -30.396 c -0.136,-5.712 -2.176,-10.2 -6.12,-13.464 -3.808,-3.264 -9.044,-4.896 -15.708,-4.896 -7.208,0 -12.988,1.564 -17.34,4.692 -4.216,3.128 -6.324,7.412 -6.324,12.852 0,4.896 1.292,8.704 3.876,11.424 2.72,2.584 6.868,4.488 12.444,5.712 l 23.052,4.896 c 13.192,2.72 22.984,7.412 29.376,14.076 6.392,6.664 9.588,15.844 9.588,27.54 0,9.52 -2.312,17.884 -6.936,25.092 -4.624,7.072 -11.22,12.58 -19.788,16.524 -8.432,3.808 -18.36,5.712 -29.784,5.712 -10.88,0 -20.468,-1.836 -28.764,-5.508 -8.16,-3.808 -14.484,-9.112 -18.972,-15.912 -4.488,-6.936 -6.8,-14.96 -6.936,-24.072 h 30.6 c 0,5.712 2.108,10.2 6.324,13.464 4.352,3.128 10.336,4.692 17.952,4.692 7.888,0 14.144,-1.496 18.768,-4.488 4.624,-3.128 6.936,-7.276 6.936,-12.444 0,-4.624 -1.156,-8.16 -3.468,-10.608 -2.312,-2.584 -6.188,-4.42 -11.628,-5.508 l -23.256,-4.896 c -13.192,-2.72 -23.188,-7.82 -29.988,-15.3 -6.664,-7.48 -9.996,-17.272 -9.996,-29.376 z"
     fill="url(#paint3_linear_36_18)"
     id="path1244"
     style="fill:url(#paint3_linear_36_18)" />
  <defs
     id="defs1274">
    <linearGradient
       id="paint0_linear_36_18"
       x1="619.10699"
       y1="451.83899"
       x2="444.95499"
       y2="-244.785"
       gradientUnits="userSpaceOnUse"
       gradientTransform="translate(-123.99984,-86)">
      <stop
         stop-color="#44BCF0"
         id="stop1246" />
      <stop
         offset="0.378795"
         stop-color="#7298F8"
         id="stop1248" />
      <stop
         offset="1"
         stop-color="#A099FF"
         id="stop1250" />
    </linearGradient>
    <linearGradient
       id="paint1_linear_36_18"
       x1="619.10699"
       y1="451.83899"
       x2="444.95499"
       y2="-244.785"
       gradientUnits="userSpaceOnUse"
       gradientTransform="translate(-123.99984,-86)">
      <stop
         stop-color="#44BCF0"
         id="stop1253" />
      <stop
         offset="0.378795"
         stop-color="#7298F8"
         id="stop1255" />
      <stop
         offset="1"
         stop-color="#A099FF"
         id="stop1257" />
    </linearGradient>
    <linearGradient
       id="paint2_linear_36_18"
       x1="619.10699"
       y1="451.83899"
       x2="444.95499"
       y2="-244.785"
       gradientUnits="userSpaceOnUse"
       gradientTransform="translate(-123.99984,-86)">
      <stop
         stop-color="#44BCF0"
         id="stop1260" />
      <stop
         offset="0.378795"
         stop-color="#7298F8"
         id="stop1262" />
      <stop
         offset="1"
         stop-color="#A099FF"
         id="stop1264" />
    </linearGradient>
    <linearGradient
       id="paint3_linear_36_18"
       x1="619.10699"
       y1="451.83899"
       x2="444.95499"
       y2="-244.785"
       gradientUnits="userSpaceOnUse"
       gradientTransform="translate(-123.99984,-86)">
      <stop
         stop-color="#44BCF0"
         id="stop1267" />
      <stop
         offset="0.378795"
         stop-color="#7298F8"
         id="stop1269" />
      <stop
         offset="1"
         stop-color="#A099FF"
         id="stop1271" />
    </linearGradient>
  </defs>
</svg>
