<?xml version="1.0" encoding="UTF-8" standalone="no"?>
<svg
   viewBox="0 0 209.04878 80.95"
   version="1.1"
   id="svg278"
   sodipodi:docname="newsite-logo-dark.svg"
   width="209.04877"
   height="80.949997"
   inkscape:version="1.2.1 (9c6d41e410, 2022-07-14)"
   xmlns:inkscape="http://www.inkscape.org/namespaces/inkscape"
   xmlns:sodipodi="http://sodipodi.sourceforge.net/DTD/sodipodi-0.dtd"
   xmlns:xlink="http://www.w3.org/1999/xlink"
   xmlns="http://www.w3.org/2000/svg"
   xmlns:svg="http://www.w3.org/2000/svg">
  <sodipodi:namedview
     id="namedview280"
     pagecolor="#000000"
     bordercolor="#000000"
     borderopacity="0.25"
     inkscape:showpageshadow="2"
     inkscape:pageopacity="0"
     inkscape:pagecheckerboard="0"
     inkscape:deskcolor="#d1d1d1"
     showgrid="true"
     inkscape:zoom="5.3798643"
     inkscape:cx="92.753269"
     inkscape:cy="39.034442"
     inkscape:window-width="1884"
     inkscape:window-height="1017"
     inkscape:window-x="16"
     inkscape:window-y="43"
     inkscape:window-maximized="1"
     inkscape:current-layer="svg278">
    <inkscape:grid
       type="xygrid"
       id="grid392"
       originx="0.044939947"
       originy="0" />
  </sodipodi:namedview>
  <defs
     id="defs263">
    <style
       id="style244">.cls-3{fill:#a0a8d4}</style>
    <linearGradient
       id="linear-gradient"
       x1="41.950001"
       y1="2.5699999"
       x2="12.57"
       y2="34.419998"
       gradientUnits="userSpaceOnUse">
      <stop
         offset=".58"
         stop-color="#a0a8d4"
         id="stop246" />
      <stop
         offset=".73"
         stop-color="#8791c7"
         id="stop248" />
      <stop
         offset=".91"
         stop-color="#6470b4"
         id="stop250" />
    </linearGradient>
    <linearGradient
       id="linear-gradient-2"
       x1="42.57"
       y1="81.660004"
       x2="71.959999"
       y2="49.810001"
       xlink:href="#linear-gradient" />
    <linearGradient
       id="linear-gradient-3"
       x1="42.259998"
       y1="1.24"
       x2="42.259998"
       y2="82.839996"
       gradientUnits="userSpaceOnUse">
      <stop
         offset="0"
         stop-color="#513eff"
         id="stop254" />
      <stop
         offset=".18"
         stop-color="#5157ff"
         id="stop256" />
      <stop
         offset=".57"
         stop-color="#5298ff"
         id="stop258" />
      <stop
         offset="1"
         stop-color="#52e5ff"
         id="stop260" />
    </linearGradient>
    <linearGradient
       inkscape:collect="always"
       xlink:href="#linear-gradient"
       id="linearGradient390"
       gradientUnits="userSpaceOnUse"
       x1="41.950001"
       y1="2.5699999"
       x2="12.57"
       y2="34.419998" />
  </defs>
  <g
     style="isolation:isolate"
     id="g276"
     transform="translate(0.04493994)">
    <g
       id="Layer_1"
       data-name="Layer 1">
      <path
         d="m 15.28,34.39 c 0.8,1.71 2.78,5.09 2.78,5.09 L 40.95,1.64 18.61,17.24 a 9.75,9.75 0 0 0 -3.18,3.5 16.19,16.19 0 0 0 -0.15,13.65 z"
         transform="translate(-6,-1.64)"
         fill="url(#linear-gradient)"
         id="path265"
         style="fill:url(#linearGradient390)" />
      <path
         class="cls-3"
         d="m 6.21,46.85 a 25.47,25.47 0 0 0 10,18.51 l 24.71,17.23 c 0,0 -15.46,-22.28 -28.5,-44.45 a 22.39,22.39 0 0 1 -2.62,-7.56 12.1,12.1 0 0 1 0,-3.63 c -0.34,0.63 -1,1.92 -1,1.92 a 29.35,29.35 0 0 0 -2.67,8.55 52.28,52.28 0 0 0 0.08,9.43 z"
         transform="translate(-6,-1.64)"
         id="path267" />
      <path
         d="m 69.25,49.84 c -0.8,-1.71 -2.78,-5.09 -2.78,-5.09 L 43.58,82.59 65.92,67 a 9.75,9.75 0 0 0 3.18,-3.5 16.19,16.19 0 0 0 0.15,-13.66 z"
         transform="translate(-6,-1.64)"
         fill="url(#linear-gradient-2)"
         id="path269"
         style="fill:url(#linear-gradient-2)" />
      <path
         class="cls-3"
         d="m 78.32,37.38 a 25.47,25.47 0 0 0 -10,-18.51 L 43.61,1.64 c 0,0 15.45,22.28 28.5,44.45 a 22.39,22.39 0 0 1 2.61,7.56 12.1,12.1 0 0 1 0,3.63 c 0.34,-0.63 1,-1.92 1,-1.92 a 29.35,29.35 0 0 0 2.67,-8.55 52.28,52.28 0 0 0 -0.07,-9.43 z"
         transform="translate(-6,-1.64)"
         id="path271" />
      <path
         d="m 15.43,20.74 a 9.75,9.75 0 0 1 3.18,-3.5 L 40.95,1.64 18.06,39.49 c 0,0 -2,-3.38 -2.78,-5.09 A 16.19,16.19 0 0 1 15.43,20.74 Z M 6.21,46.85 a 25.47,25.47 0 0 0 10,18.51 l 24.71,17.23 c 0,0 -15.46,-22.28 -28.5,-44.45 a 22.39,22.39 0 0 1 -2.62,-7.56 12.1,12.1 0 0 1 0,-3.63 c -0.34,0.63 -1,1.92 -1,1.92 a 29.35,29.35 0 0 0 -2.67,8.55 52.28,52.28 0 0 0 0.08,9.43 z m 63,3 c -0.8,-1.71 -2.78,-5.09 -2.78,-5.09 L 43.58,82.59 65.92,67 a 9.75,9.75 0 0 0 3.18,-3.5 16.19,16.19 0 0 0 0.15,-13.66 z m 9.07,-12.46 a 25.47,25.47 0 0 0 -10,-18.51 L 43.61,1.64 c 0,0 15.45,22.28 28.5,44.45 a 22.39,22.39 0 0 1 2.61,7.56 12.1,12.1 0 0 1 0,3.63 c 0.34,-0.63 1,-1.92 1,-1.92 a 29.35,29.35 0 0 0 2.67,-8.55 52.28,52.28 0 0 0 -0.07,-9.43 z"
         transform="translate(-6,-1.64)"
         style="mix-blend-mode:color;fill:url(#linear-gradient-3)"
         fill="url(#linear-gradient-3)"
         id="path273" />
    </g>
  </g>
  <path
     class="cls-1"
     d="m 95.428049,60.858811 v -41.88 a 0.22,0.22 0 0 1 0.21,-0.2 h 26.610001 a 0.22,0.22 0 0 1 0.22,0.22 v 5.33 a 0.22,0.22 0 0 1 -0.22,0.22 h -20.4 v 12.34 h 17.35 a 0.22,0.22 0 0 1 0.22,0.22 v 5.27 a 0.22,0.22 0 0 1 -0.22,0.22 h -17.35 v 12.71 h 20.4 a 0.22,0.22 0 0 1 0.22,0.22 v 5.33 a 0.22,0.22 0 0 1 -0.22,0.22 H 95.638049 a 0.22,0.22 0 0 1 -0.21,-0.22 z m 66.170001,0.11 -19.47,-29.65 v 29.53 a 0.22,0.22 0 0 1 -0.22,0.22 h -6 a 0.22,0.22 0 0 1 -0.22,-0.22 v -41.84 a 0.22,0.22 0 0 1 0.22,-0.22 h 5.55 a 0.22,0.22 0 0 1 0.18,0.1 l 19.49,29.59 v -29.47 a 0.22,0.22 0 0 1 0.22,-0.22 h 6 a 0.22,0.22 0 0 1 0.22,0.22 v 41.84 a 0.22,0.22 0 0 1 -0.22,0.22 h -5.57 a 0.22,0.22 0 0 1 -0.18,-0.1 z m 25.6,-8.02 v 2 a 40.79,40.79 0 0 0 7.82,0.92 40.27,40.27 0 0 0 7.73,-0.91 v -9.48 l -21.78,-7.61 a 0.22,0.22 0 0 1 -0.14,-0.2 v -17.41 a 0.19,0.19 0 0 1 0.14,-0.2 54.34,54.34 0 0 1 13.94,-2 55.07,55.07 0 0 1 14,2 0.19,0.19 0 0 1 0.14,0.2 v 6.57 a 0.22,0.22 0 0 1 -0.22,0.22 h -5.89 a 0.22,0.22 0 0 1 -0.22,-0.22 v -2 a 40.85,40.85 0 0 0 -7.82,-0.91 40.5,40.5 0 0 0 -7.73,0.9 l 0.03,8.96 21.7,7.6 a 0.22,0.22 0 0 1 0.14,0.2 v 17.95 a 0.19,0.19 0 0 1 -0.14,0.2 54.36,54.36 0 0 1 -13.94,2 55.11,55.11 0 0 1 -14,-2 0.19,0.19 0 0 1 -0.14,-0.2 v -6.58 a 0.22,0.22 0 0 1 0.22,-0.22 h 5.88 a 0.22,0.22 0 0 1 0.28,0.22 z"
     id="path189"
     style="fill:#ffffff" />
</svg>
