<?xml version="1.0" encoding="iso-8859-1"?>
<!-- Generator: Adobe Illustrator 19.0.0, SVG Export Plug-In . SVG Version: 6.00 Build 0)  -->
<svg version="1.1" id="Capa_1" xmlns="http://www.w3.org/2000/svg" xmlns:xlink="http://www.w3.org/1999/xlink" x="0px" y="0px"
	 viewBox="0 0 512 512" style="enable-background:new 0 0 512 512;" xml:space="preserve">
<g>
	<rect x="264.533" y="8.533" style="fill:#A4C2F7;" width="238.933" height="494.933"/>
	<rect x="8.533" y="8.533" style="fill:#FFFFFF;" width="238.933" height="494.933"/>
	<rect x="34.133" y="8.533" style="fill:#E3E7F2;" width="443.733" height="494.933"/>
	<g>
		<path style="fill:#7FACFA;" d="M503.467,337.488c-19.425-1.098-35.428-15.647-38.368-34.879l-3.232-21.008h-38.4l-4.973,25.858
			c-2.617,13.605-11.895,24.985-24.695,30.287c-12.8,5.302-27.408,3.816-38.879-3.954l-21.802-14.769l-27.153,27.154l12.57,17.142
			c8.355,11.393,10.29,26.272,5.128,39.423c-5.162,13.151-16.702,22.741-30.575,25.409L273.067,432v38.4l21.009,3.233
			c16.078,2.428,29.199,14.135,33.436,29.833h175.955V337.488z"/>
		<path style="fill:#7FACFA;" d="M8.533,337.488c19.425-1.098,35.428-15.647,38.368-34.879l3.232-21.008h38.4l4.973,25.858
			c2.617,13.605,11.895,24.985,24.696,30.287c12.8,5.302,27.408,3.816,38.879-3.954l21.802-14.769l27.153,27.154l-12.57,17.142
			c-8.355,11.393-10.29,26.272-5.128,39.423c5.162,13.151,16.702,22.741,30.575,25.409l20.021,3.85v38.4l-21.009,3.233
			c-16.078,2.428-29.199,14.135-33.436,29.833H8.533V337.488z"/>
	</g>
	<g>
		<path style="fill:#E3E7F2;" d="M503.467,419.244c-13.14-23.836-39.188-37.584-66.281-34.983
			c-27.093,2.601-50.05,21.053-58.416,46.953c-8.366,25.9-0.54,54.295,19.913,72.253h90.1c5.9-5.173,10.867-11.321,14.683-18.177
			V419.244z"/>
		<path style="fill:#E3E7F2;" d="M8.533,419.244c13.14-23.836,39.188-37.584,66.281-34.983c27.093,2.601,50.05,21.053,58.416,46.953
			c8.366,25.9,0.54,54.295-19.913,72.253h-90.1c-5.9-5.173-10.867-11.321-14.683-18.177V419.244z"/>
	</g>
	<circle style="fill:#7FACFA;" cx="255.898" cy="264.533" r="51.2"/>
	<ellipse style="fill:#A4C2F7;" cx="243.098" cy="264.533" rx="38.298" ry="51.2"/>
	<g>
		<path style="fill:#428DFF;" d="M200.679,67c-3.861,0-7.24-2.595-8.237-6.325l-8.833-32.967c-1.22-4.552,1.482-9.23,6.033-10.45
			c4.552-1.22,9.23,1.482,10.45,6.033l8.833,32.967c0.686,2.563,0.141,5.299-1.475,7.404C205.835,65.766,203.332,67,200.679,67z"/>
		<path style="fill:#428DFF;" d="M105.05,122.217c-2.264,0.003-4.435-0.897-6.033-2.5L74.879,95.583
			c-3.332-3.332-3.332-8.735,0-12.067s8.735-3.332,12.067,0l24.138,24.133c2.44,2.44,3.169,6.11,1.849,9.298
			S108.501,122.216,105.05,122.217L105.05,122.217z"/>
		<path style="fill:#428DFF;" d="M406.75,122.217c-3.451-0.001-6.562-2.08-7.882-5.268s-0.591-6.858,1.849-9.298l24.133-24.133
			c2.155-2.156,5.297-2.997,8.242-2.208s5.244,3.089,6.033,6.033c0.789,2.944-0.053,6.086-2.208,8.242l-24.133,24.133
			C411.185,121.32,409.014,122.219,406.75,122.217z"/>
		<path style="fill:#428DFF;" d="M149.242,88.317c-3.053,0.005-5.875-1.622-7.4-4.267l-17.067-29.558
			c-2.353-4.082-0.954-9.299,3.127-11.655c4.081-2.356,9.299-0.958,11.656,3.121l17.067,29.558c1.524,2.639,1.525,5.891,0.002,8.531
			C155.105,86.687,152.289,88.315,149.242,88.317L149.242,88.317z"/>
		<path style="fill:#428DFF;" d="M256,59.733c-2.263,0.001-4.434-0.898-6.035-2.499c-1.6-1.6-2.499-3.771-2.499-6.035V17.067
			c0-4.713,3.821-8.533,8.533-8.533c4.713,0,8.533,3.821,8.533,8.533V51.2c0.001,2.263-0.898,4.434-2.499,6.035
			S258.263,59.734,256,59.733z"/>
		<path style="fill:#428DFF;" d="M71.138,166.4c-1.495,0.001-2.964-0.393-4.258-1.142l-29.558-17.067
			c-2.642-1.524-4.271-4.341-4.272-7.392c-0.001-3.05,1.626-5.869,4.268-7.394c2.642-1.525,5.896-1.524,8.537,0.002l29.558,17.067
			c3.348,1.931,4.98,5.871,3.978,9.604S75.002,166.405,71.138,166.4z"/>
		<path style="fill:#428DFF;" d="M440.658,166.4c-3.865,0.005-7.251-2.588-8.253-6.321s0.63-7.673,3.978-9.604l29.563-17.067
			c4.082-2.353,9.299-0.954,11.655,3.127s0.958,9.298-3.121,11.656l-29.563,17.067C443.622,166.006,442.153,166.4,440.658,166.4z"/>
		<path style="fill:#428DFF;" d="M362.558,88.317c-3.048-0.002-5.863-1.629-7.386-4.269c-1.523-2.64-1.522-5.892,0.002-8.531
			l17.067-29.558c2.358-4.08,7.575-5.477,11.656-3.121c4.081,2.356,5.481,7.573,3.127,11.655L369.958,84.05
			C368.433,86.695,365.611,88.322,362.558,88.317z"/>
		<path style="fill:#428DFF;" d="M311.117,67c-2.653,0-5.155-1.234-6.771-3.338c-1.616-2.105-2.161-4.841-1.475-7.404l8.837-32.967
			c0.789-2.944,3.089-5.244,6.033-6.033c2.944-0.789,6.086,0.053,8.242,2.208c2.156,2.156,2.997,5.297,2.208,8.242l-8.838,32.967
			C318.356,64.404,314.977,66.998,311.117,67L311.117,67z"/>
		<path style="fill:#428DFF;" d="M255.9,324.267c-32.99,0-59.733-26.744-59.733-59.733S222.91,204.8,255.9,204.8
			c32.99,0,59.733,26.744,59.733,59.733C315.595,297.507,288.874,324.228,255.9,324.267L255.9,324.267z M255.9,221.867
			c-23.564,0-42.667,19.103-42.667,42.667S232.336,307.2,255.9,307.2s42.667-19.103,42.667-42.667
			C298.539,240.981,279.453,221.894,255.9,221.867L255.9,221.867z"/>
		<path style="fill:#428DFF;" d="M256,187.733c-2.263,0.001-4.434-0.898-6.035-2.499c-1.6-1.6-2.499-3.771-2.499-6.035v-128
			c0-4.713,3.821-8.533,8.533-8.533c4.713,0,8.533,3.821,8.533,8.533v128c0.001,2.263-0.898,4.434-2.499,6.035
			C260.434,186.835,258.263,187.734,256,187.733z"/>
		<path style="fill:#428DFF;" d="M174.742,246.7c-0.896,0-1.786-0.141-2.637-0.417L50.371,206.725
			c-4.483-1.457-6.936-6.271-5.479-10.754c1.457-4.483,6.271-6.936,10.754-5.479l121.733,39.558
			c3.992,1.298,6.448,5.305,5.791,9.451C182.513,243.647,178.939,246.7,174.742,246.7L174.742,246.7z"/>
		<path style="fill:#428DFF;" d="M337.054,246.7c-4.198,0-7.772-3.053-8.428-7.199c-0.657-4.146,1.799-8.154,5.791-9.451
			l121.738-39.558c4.483-1.457,9.298,0.996,10.754,5.479s-0.996,9.298-5.479,10.754l-121.737,39.558
			C338.84,246.559,337.95,246.7,337.054,246.7L337.054,246.7z"/>
		<circle style="fill:#428DFF;" cx="255.898" cy="264.533" r="8.533"/>
		<path style="fill:#428DFF;" d="M503.467,512H8.533c-2.263,0.001-4.434-0.898-6.035-2.499c-1.6-1.6-2.499-3.771-2.499-6.035V8.533
			C-0.001,6.27,0.898,4.099,2.499,2.499S6.27-0.001,8.533,0h494.933c2.263-0.001,4.434,0.898,6.035,2.499
			c1.6,1.6,2.499,3.771,2.499,6.035v494.933c0.001,2.263-0.898,4.434-2.499,6.035C507.901,511.102,505.73,512.001,503.467,512
			L503.467,512z M17.067,494.933h477.867V17.067H17.067V494.933z"/>
		<path style="fill:#428DFF;" d="M488.783,512h-90.1c-2.075-0.001-4.078-0.756-5.637-2.125
			c-22.98-20.209-31.762-52.135-22.35-81.254c9.412-29.118,35.219-49.865,65.68-52.8c30.461-2.935,59.755,12.502,74.554,39.287
			c0.703,1.264,1.072,2.687,1.071,4.133v66.05c0.001,1.446-0.367,2.868-1.067,4.133c-4.286,7.713-9.871,14.628-16.508,20.442
			C492.867,511.241,490.861,512,488.783,512L488.783,512z M402.029,494.933h83.413c3.663-3.551,6.853-7.559,9.492-11.925v-61.483
			c-11.903-19.892-34.246-31.095-57.307-28.736c-23.061,2.359-42.672,17.855-50.301,39.745
			C379.697,454.425,385.429,478.752,402.029,494.933L402.029,494.933z"/>
		<path style="fill:#428DFF;" d="M503.467,512H327.513c-3.837,0.001-7.202-2.56-8.225-6.258
			c-3.325-12.472-13.742-21.775-26.508-23.675l-21.012-3.233c-4.161-0.642-7.233-4.223-7.233-8.433V432
			c0-4.092,2.903-7.608,6.921-8.383l20.021-3.85c11-2.114,20.15-9.717,24.243-20.143c4.094-10.427,2.56-22.223-4.064-31.257
			l-12.571-17.15c-2.489-3.396-2.128-8.099,0.85-11.075l27.15-27.15c2.894-2.887,7.428-3.32,10.817-1.033l21.804,14.767
			c9.095,6.16,20.676,7.338,30.825,3.135c10.149-4.203,17.507-13.224,19.583-24.01l4.975-25.858c0.769-4.02,4.286-6.927,8.379-6.925
			h38.4c4.211,0.001,7.791,3.072,8.433,7.233l3.233,21.008c2.291,15.281,15.016,26.841,30.446,27.658
			c4.506,0.27,8.021,4.003,8.021,8.516v165.984c0.001,2.263-0.898,4.434-2.499,6.035C507.901,511.102,505.73,512.001,503.467,512
			L503.467,512z M333.571,494.933h161.363v-150.05c-20.024-4.391-35.253-20.697-38.267-40.975l-2.121-13.775h-24.029l-3.646,18.933
			c-3.158,16.423-14.358,30.159-29.808,36.56c-15.45,6.401-33.083,4.609-46.93-4.768l-15.967-10.817l-16.991,16.992l8.242,11.242
			c10.083,13.753,12.418,31.712,6.187,47.586c-6.231,15.874-20.158,27.45-36.904,30.672l-13.1,2.516v24.033l13.775,2.116
			C312.448,467.709,326.95,478.998,333.571,494.933L333.571,494.933z"/>
		<path style="fill:#428DFF;" d="M113.317,512h-90.1c-2.078,0-4.084-0.759-5.642-2.133c-6.632-5.814-12.215-12.726-16.504-20.433
			c-0.703-1.267-1.072-2.692-1.071-4.142v-66.05c-0.001-1.447,0.368-2.869,1.071-4.133c14.789-26.809,44.093-42.269,74.57-39.339
			s56.3,23.689,65.71,52.824c9.41,29.136,0.609,61.077-22.397,81.281C117.395,511.244,115.391,511.999,113.317,512L113.317,512z
			 M26.558,494.933h83.413c16.571-16.186,22.283-40.497,14.653-62.368c-7.63-21.872-27.225-37.354-50.268-39.719
			c-23.043-2.365-45.375,8.814-57.289,28.68V483C19.708,487.366,22.898,491.377,26.558,494.933L26.558,494.933z"/>
		<path style="fill:#428DFF;" d="M184.488,512H8.533c-2.263,0.001-4.434-0.898-6.035-2.499c-1.6-1.6-2.499-3.771-2.499-6.035
			V337.483c0-4.514,3.515-8.246,8.021-8.516c15.43-0.818,28.155-12.378,30.446-27.658L41.7,280.3
			c0.642-4.161,4.223-7.233,8.433-7.234h38.4c4.093-0.002,7.61,2.905,8.379,6.925l4.975,25.858
			c2.073,10.788,9.43,19.811,19.579,24.015s21.732,3.024,30.825-3.14l21.808-14.767c3.387-2.292,7.925-1.859,10.817,1.033
			l27.154,27.15c2.978,2.979,3.339,7.685,0.85,11.083l-12.575,17.142c-6.624,9.033-8.158,20.83-4.064,31.257
			c4.093,10.427,13.243,18.029,24.243,20.143l20.021,3.85c4.018,0.775,6.92,4.291,6.921,8.383v38.4
			c-0.001,4.211-3.072,7.792-7.233,8.433l-21.008,3.233c-12.767,1.9-23.186,11.203-26.512,23.675
			C191.69,509.44,188.324,512.001,184.488,512L184.488,512z M17.067,494.933h161.367c6.622-15.933,21.121-27.221,38.192-29.733
			l13.775-2.117V439.05l-13.1-2.517c-16.747-3.223-30.676-14.801-36.906-30.677c-6.23-15.876-3.892-33.837,6.193-47.59l8.237-11.233
			l-16.992-16.992l-15.971,10.817c-13.846,9.38-31.479,11.173-46.929,4.771c-15.45-6.401-26.649-20.139-29.804-36.563l-3.646-18.933
			H57.454l-2.121,13.775c-3.013,20.277-18.242,36.584-38.267,40.975V494.933z"/>
		<path style="fill:#428DFF;" d="M464.475,228.092c-4.018-0.005-7.489-2.813-8.333-6.741
			C434.402,128.052,352.032,61.468,256.25,59.767h-1c-95.522,1.85-177.614,68.275-199.354,161.308
			c-1.026,4.6-5.587,7.497-10.188,6.471c-4.6-1.026-7.497-5.587-6.471-10.188C62.832,116.59,151.784,44.67,255.259,42.7h1.084
			c103.75,1.86,192.958,74.002,216.482,175.067c0.477,2.213,0.055,4.524-1.174,6.425c-1.229,1.901-3.163,3.235-5.376,3.709
			C465.684,228.029,465.08,228.093,464.475,228.092z"/>
	</g>
</g>
<g>
</g>
<g>
</g>
<g>
</g>
<g>
</g>
<g>
</g>
<g>
</g>
<g>
</g>
<g>
</g>
<g>
</g>
<g>
</g>
<g>
</g>
<g>
</g>
<g>
</g>
<g>
</g>
<g>
</g>
</svg>
