<?xml version="1.0" encoding="iso-8859-1"?>
<!-- Generator: Adobe Illustrator 19.0.0, SVG Export Plug-In . SVG Version: 6.00 Build 0)  -->
<svg version="1.1" id="Capa_1" xmlns="http://www.w3.org/2000/svg" xmlns:xlink="http://www.w3.org/1999/xlink" x="0px" y="0px"
	 viewBox="0 0 512.004 512.004" style="enable-background:new 0 0 512.004 512.004;" xml:space="preserve">
<g transform="translate(-1)">
	<circle style="fill:#A4C2F7;" cx="163.138" cy="349.869" r="145.067"/>
	<ellipse style="fill:#E3E7F2;" cx="150.338" cy="349.869" rx="132.267" ry="145.067"/>
	<path style="fill:#FFFFFF;" d="M163.138,494.936c2.26,0,4.46-0.235,6.695-0.337c-70.194-3.523-126.162-66.871-126.162-144.729
		S99.639,208.663,169.833,205.14c-2.235-0.102-4.435-0.338-6.695-0.338c-80.118,0-145.067,64.949-145.067,145.067
		S83.02,494.936,163.138,494.936L163.138,494.936z"/>
	<g>
		<circle style="fill:#A4C2F7;" cx="163.138" cy="349.869" r="25.6"/>
		<circle style="fill:#A4C2F7;" cx="367.938" cy="145.069" r="110.933"/>
	</g>
	<ellipse style="fill:#E3E7F2;" cx="355.138" cy="145.069" rx="98.133" ry="110.933"/>
	<path style="fill:#FFFFFF;" d="M367.938,256.002c2.293,0,4.533-0.206,6.792-0.344c-51.384-3.527-92.125-51.615-92.125-110.59
		s40.741-107.063,92.125-110.59c-2.258-0.137-4.499-0.344-6.792-0.344c-61.267,0-110.933,49.667-110.933,110.933
		S306.671,256.002,367.938,256.002z"/>
	<circle style="fill:#A4C2F7;" cx="367.938" cy="145.069" r="25.6"/>
	<g>
		<path style="fill:#428DFF;" d="M215.68,493.502c-3.52,0-6.678-2.161-7.954-5.442l-43.254-111.225
			c-1.691-4.389,0.488-9.318,4.872-11.022c4.384-1.704,9.32,0.46,11.037,4.839l43.254,111.225c0.82,2.109,0.768,4.457-0.144,6.528
			c-0.912,2.071-2.609,3.694-4.718,4.514C217.786,493.306,216.738,493.504,215.68,493.502z"/>
		<path style="fill:#428DFF;" d="M173.509,335.061c-2.889,0.001-5.582-1.461-7.155-3.884c-1.573-2.423-1.813-5.478-0.637-8.116
			l48.517-109.158c1.236-2.789,3.867-4.706,6.901-5.028c3.034-0.322,6.008,1.001,7.802,3.469c1.793,2.468,2.132,5.706,0.889,8.492
			l-48.517,109.158C179.94,333.077,176.882,335.064,173.509,335.061z"/>
		<path style="fill:#428DFF;" d="M28.038,410.944c-4.107,0.003-7.633-2.92-8.391-6.956c-0.758-4.036,1.467-8.04,5.295-9.527
			l111.292-43.283c2.841-1.11,6.059-0.618,8.439,1.29c2.38,1.908,3.56,4.942,3.094,7.957c-0.465,3.015-2.505,5.551-5.35,6.653
			L31.126,410.361C30.142,410.747,29.095,410.945,28.038,410.944L28.038,410.944z"/>
		<path style="fill:#428DFF;" d="M163.138,503.469c-84.831,0-153.6-68.769-153.6-153.6s68.769-153.6,153.6-153.6
			s153.6,68.769,153.6,153.6C316.641,434.66,247.929,503.372,163.138,503.469L163.138,503.469z M163.138,213.336
			c-75.405,0-136.533,61.128-136.533,136.533s61.128,136.533,136.533,136.533s136.533-61.128,136.533-136.533
			C299.585,274.499,238.507,213.422,163.138,213.336z"/>
		<path style="fill:#428DFF;" d="M316.734,426.669c-1.193,0.001-2.372-0.249-3.462-0.733l-21.1-9.375
			c-4.296-1.922-6.225-6.958-4.314-11.258c1.911-4.3,6.942-6.242,11.247-4.342l21.1,9.375c3.685,1.637,5.721,5.629,4.883,9.573
			C324.25,423.853,320.766,426.672,316.734,426.669z"/>
		<path style="fill:#428DFF;" d="M222.871,512.002c-3.52,0-6.678-2.161-7.954-5.442l-7.192-18.5
			c-1.691-4.389,0.488-9.318,4.872-11.022c4.384-1.704,9.32,0.46,11.037,4.839l7.192,18.5c0.82,2.109,0.769,4.458-0.143,6.528
			c-0.912,2.071-2.61,3.695-4.719,4.513C224.978,511.806,223.929,512.004,222.871,512.002z"/>
		<path style="fill:#428DFF;" d="M222.025,225.902c-2.889,0.001-5.582-1.461-7.156-3.883c-1.574-2.423-1.815-5.477-0.64-8.117
			l9.375-21.1c1.239-2.787,3.87-4.701,6.902-5.022c3.033-0.321,6.006,1.001,7.8,3.467c1.794,2.466,2.136,5.702,0.898,8.488
			l-9.375,21.1C228.456,223.917,225.399,225.902,222.025,225.902z"/>
		<path style="fill:#428DFF;" d="M298.242,305.861c-4.106,0.001-7.63-2.923-8.387-6.958c-0.757-4.036,1.468-8.038,5.295-9.525
			l18.496-7.192c2.842-1.113,6.062-0.623,8.444,1.286s3.563,4.945,3.096,7.961c-0.467,3.016-2.51,5.554-5.357,6.653l-18.496,7.192
			C300.349,305.664,299.3,305.862,298.242,305.861L298.242,305.861z"/>
		<path style="fill:#428DFF;" d="M30.634,299.511c-1.193,0.001-2.372-0.249-3.462-0.733l-21.1-9.375
			c-4.308-1.915-6.248-6.959-4.333-11.267c1.915-4.308,6.959-6.248,11.267-4.333l21.1,9.375c3.685,1.637,5.721,5.629,4.883,9.573
			C38.15,296.694,34.666,299.514,30.634,299.511L30.634,299.511z"/>
		<path style="fill:#428DFF;" d="M110.596,223.302c-3.52,0-6.678-2.161-7.954-5.442l-7.192-18.5
			c-1.707-4.393,0.47-9.338,4.863-11.046c4.393-1.707,9.338,0.47,11.046,4.863l7.192,18.5c0.82,2.109,0.769,4.458-0.143,6.529
			c-0.912,2.071-2.61,3.695-4.719,4.513C112.703,223.106,111.654,223.304,110.596,223.302L110.596,223.302z"/>
		<path style="fill:#428DFF;" d="M94.867,512.002c-2.889,0.001-5.582-1.461-7.156-3.883s-1.815-5.477-0.64-8.117l9.375-21.1
			c1.922-4.296,6.958-6.225,11.258-4.314s6.242,6.942,4.342,11.247l-9.375,21.1C101.298,510.017,98.24,512.002,94.867,512.002z"/>
		<path style="fill:#428DFF;" d="M9.542,418.136c-4.107,0.003-7.633-2.92-8.391-6.956s1.467-8.04,5.295-9.527l18.496-7.192
			c2.841-1.11,6.059-0.618,8.439,1.29s3.56,4.942,3.094,7.957c-0.465,3.015-2.505,5.551-5.35,6.653l-18.496,7.192
			C11.646,417.939,10.599,418.137,9.542,418.136z"/>
		<path style="fill:#428DFF;" d="M163.138,384.002c-18.851,0-34.133-15.282-34.133-34.133c0-18.851,15.282-34.133,34.133-34.133
			s34.133,15.282,34.133,34.133C197.251,368.712,181.981,383.982,163.138,384.002L163.138,384.002z M163.138,332.802
			c-9.426,0-17.067,7.641-17.067,17.067c0,9.426,7.641,17.067,17.067,17.067c9.426,0,17.067-7.641,17.067-17.067
			C180.194,340.448,172.559,332.813,163.138,332.802z"/>
		<path style="fill:#428DFF;" d="M367.938,264.536c-65.98,0-119.467-53.487-119.467-119.467S301.958,25.602,367.938,25.602
			s119.467,53.487,119.467,119.467C487.331,211.018,433.887,264.462,367.938,264.536L367.938,264.536z M367.938,42.669
			c-56.554,0-102.4,45.846-102.4,102.4s45.846,102.4,102.4,102.4s102.4-45.846,102.4-102.4
			C470.275,88.541,424.466,42.732,367.938,42.669z"/>
		<path style="fill:#428DFF;" d="M367.938,42.669c-2.263,0.001-4.434-0.898-6.035-2.499c-1.6-1.6-2.499-3.771-2.499-6.035v-25.6
			c0-4.713,3.82-8.533,8.533-8.533s8.533,3.821,8.533,8.533v25.6c0.001,2.263-0.898,4.434-2.499,6.035
			C372.372,41.771,370.201,42.669,367.938,42.669L367.938,42.669z"/>
		<path style="fill:#428DFF;" d="M367.938,290.136c-2.263,0.001-4.434-0.898-6.035-2.499c-1.6-1.6-2.499-3.771-2.499-6.035v-25.6
			c0-4.713,3.82-8.533,8.533-8.533s8.533,3.821,8.533,8.533v25.6c0.001,2.263-0.898,4.434-2.499,6.035
			C372.372,289.237,370.201,290.136,367.938,290.136L367.938,290.136z"/>
		<path style="fill:#428DFF;" d="M504.471,153.602h-25.6c-4.713,0-8.533-3.821-8.533-8.533s3.821-8.533,8.533-8.533h25.6
			c4.713,0,8.533,3.82,8.533,8.533S509.184,153.602,504.471,153.602z"/>
		<path style="fill:#428DFF;" d="M257.004,153.602h-25.6c-4.713,0-8.533-3.821-8.533-8.533s3.82-8.533,8.533-8.533h25.6
			c4.713,0,8.533,3.82,8.533,8.533S261.717,153.602,257.004,153.602z"/>
		<path style="fill:#428DFF;" d="M446.379,75.161c-3.451-0.001-6.562-2.08-7.882-5.268c-1.32-3.188-0.591-6.858,1.849-9.298
			l15.425-15.425c2.149-2.188,5.307-3.055,8.271-2.27s5.28,3.1,6.065,6.065s-0.082,6.122-2.27,8.271l-15.425,15.425
			C450.814,74.264,448.643,75.163,446.379,75.161L446.379,75.161z"/>
		<path style="fill:#428DFF;" d="M274.071,247.469c-3.451-0.001-6.562-2.08-7.882-5.268c-1.32-3.188-0.591-6.858,1.849-9.298
			l15.425-15.425c3.332-3.332,8.735-3.332,12.067,0c3.332,3.332,3.332,8.735,0,12.067l-15.426,15.425
			C278.506,246.572,276.335,247.471,274.071,247.469z"/>
		<path style="fill:#428DFF;" d="M462.313,247.977c-2.264,0.003-4.435-0.897-6.033-2.5l-12.067-12.067
			c-3.332-3.332-3.332-8.735,0-12.067c3.332-3.332,8.735-3.332,12.067,0l12.067,12.067c2.44,2.44,3.169,6.11,1.849,9.298
			C468.875,245.897,465.764,247.976,462.313,247.977L462.313,247.977z"/>
		<path style="fill:#428DFF;" d="M289.496,75.161c-2.264,0.003-4.435-0.897-6.033-2.5l-15.425-15.425
			c-2.188-2.149-3.055-5.307-2.27-8.271c0.785-2.965,3.1-5.28,6.065-6.065s6.122,0.082,8.271,2.27l15.425,15.425
			c2.44,2.44,3.169,6.11,1.849,9.298C296.058,73.081,292.947,75.16,289.496,75.161z"/>
		<path style="fill:#428DFF;" d="M367.938,179.202c-18.851,0-34.133-15.282-34.133-34.133s15.282-34.133,34.133-34.133
			s34.133,15.282,34.133,34.133C402.051,163.912,386.781,179.182,367.938,179.202z M367.938,128.002
			c-9.426,0-17.067,7.641-17.067,17.067c0,9.426,7.641,17.067,17.067,17.067s17.067-7.641,17.067-17.067
			C384.994,135.648,377.359,128.013,367.938,128.002z"/>
	</g>
</g>
<g>
</g>
<g>
</g>
<g>
</g>
<g>
</g>
<g>
</g>
<g>
</g>
<g>
</g>
<g>
</g>
<g>
</g>
<g>
</g>
<g>
</g>
<g>
</g>
<g>
</g>
<g>
</g>
<g>
</g>
</svg>
