<?xml version="1.0" encoding="iso-8859-1"?>
<!-- Generator: Adobe Illustrator 19.0.0, SVG Export Plug-In . SVG Version: 6.00 Build 0)  -->
<svg version="1.1" id="Capa_1" xmlns="http://www.w3.org/2000/svg" xmlns:xlink="http://www.w3.org/1999/xlink" x="0px" y="0px"
	 viewBox="0 0 512 512" style="enable-background:new 0 0 512 512;" xml:space="preserve">
<g>
	<path style="fill:#A4C2F7;" d="M485.636,208.593H437.74c-11.273,0-21.436-6.791-25.75-17.206
		c-4.314-10.415-1.929-22.403,6.042-30.375l33.867-33.867c6.593-6.593,6.593-17.283,0-23.876L408.731,60.1
		c-3.166-3.166-7.46-4.945-11.938-4.945c-4.478,0-8.772,1.779-11.938,4.945l-33.867,33.867c-7.971,7.971-19.96,10.356-30.375,6.042
		c-10.415-4.314-17.206-14.477-17.206-25.75V26.364c0-4.478-1.779-8.772-4.945-11.938s-7.46-4.945-11.938-4.945h-61.049
		c-9.324,0-16.883,7.559-16.883,16.883v47.895c0,11.273-6.791,21.436-17.206,25.75c-10.415,4.314-22.403,1.929-30.375-6.042
		L127.145,60.1c-3.166-3.166-7.46-4.945-11.938-4.945c-4.478,0-8.772,1.779-11.938,4.945l-43.168,43.169
		c-6.593,6.593-6.593,17.283,0,23.876l33.867,33.867c7.971,7.971,10.356,19.959,6.042,30.374
		c-4.314,10.415-14.477,17.206-25.75,17.206H26.364c-9.324,0-16.883,7.559-16.883,16.883v61.049c0,9.324,7.559,16.883,16.883,16.883
		H74.26c11.273,0,21.436,6.791,25.75,17.206c4.314,10.415,1.929,22.403-6.042,30.375l-33.867,33.867
		c-6.593,6.593-6.593,17.283,0,23.876l43.168,43.168c6.593,6.593,17.283,6.593,23.876,0l33.867-33.867
		c7.971-7.971,19.96-10.356,30.375-6.042c10.415,4.314,17.206,14.477,17.206,25.75v47.895c0,9.324,7.559,16.883,16.883,16.883
		h61.049c4.478,0,8.772-1.779,11.938-4.945c3.166-3.166,4.945-7.46,4.945-11.938V437.74c0-11.273,6.791-21.436,17.206-25.75
		c10.415-4.314,22.403-1.929,30.375,6.042l33.867,33.867c6.593,6.593,17.283,6.593,23.876,0l43.168-43.168
		c6.593-6.593,6.593-17.283,0-23.876l-33.867-33.867c-7.971-7.971-10.356-19.96-6.042-30.375
		c4.314-10.415,14.477-17.206,25.75-17.206h47.895c9.324,0,16.883-7.559,16.883-16.883v-61.049
		C502.519,216.151,494.96,208.593,485.636,208.593z"/>
	
		<linearGradient id="SVGID_1_" gradientUnits="userSpaceOnUse" x1="-48.7544" y1="652.5572" x2="-48.0346" y2="651.879" gradientTransform="matrix(464.5926 0 0 -493.037 22725.5195 321823.6563)">
		<stop  offset="0" style="stop-color:#D4E1F4"/>
		<stop  offset="0.1717" style="stop-color:#D4E1F4"/>
		<stop  offset="0.2" style="stop-color:#D4E1F4"/>
		<stop  offset="0.2001" style="stop-color:#DAE4F4"/>
		<stop  offset="0.2007" style="stop-color:#EBEBF4"/>
		<stop  offset="0.2014" style="stop-color:#F6F1F4"/>
		<stop  offset="0.2023" style="stop-color:#FDF4F4"/>
		<stop  offset="0.205" style="stop-color:#FFF5F4"/>
		<stop  offset="0.2522" style="stop-color:#FFF5F4"/>
		<stop  offset="0.26" style="stop-color:#FFF5F4"/>
		<stop  offset="0.26" style="stop-color:#D4E1F4"/>
		<stop  offset="0.3974" style="stop-color:#D4E1F4"/>
		<stop  offset="0.42" style="stop-color:#D4E1F4"/>
		<stop  offset="0.4201" style="stop-color:#DAE4F4"/>
		<stop  offset="0.4207" style="stop-color:#EBEBF4"/>
		<stop  offset="0.4214" style="stop-color:#F6F1F4"/>
		<stop  offset="0.4223" style="stop-color:#FDF4F4"/>
		<stop  offset="0.425" style="stop-color:#FFF5F4"/>
		<stop  offset="0.4894" style="stop-color:#FFF5F4"/>
		<stop  offset="0.5" style="stop-color:#FFF5F4"/>
		<stop  offset="0.5" style="stop-color:#F9F2F4"/>
		<stop  offset="0.5001" style="stop-color:#E8EBF4"/>
		<stop  offset="0.5003" style="stop-color:#DDE5F4"/>
		<stop  offset="0.5005" style="stop-color:#D6E2F4"/>
		<stop  offset="0.501" style="stop-color:#D4E1F4"/>
		<stop  offset="0.7062" style="stop-color:#D4E1F4"/>
		<stop  offset="0.74" style="stop-color:#D4E1F4"/>
		<stop  offset="0.741" style="stop-color:#FFF5F4"/>
		<stop  offset="0.8346" style="stop-color:#FFF5F4"/>
		<stop  offset="0.85" style="stop-color:#FFF5F4"/>
		<stop  offset="0.851" style="stop-color:#D4E1F4"/>
	</linearGradient>
	<path style="fill:url(#SVGID_1_);" d="M457.191,208.593h-47.895c-11.273,0-21.436-6.791-25.75-17.206
		c-4.314-10.415-1.929-22.403,6.042-30.375l33.867-33.868c3.166-3.166,4.945-7.46,4.945-11.937c0-4.477-1.778-8.772-4.944-11.938
		L384.846,64.66c-0.719,0.394-1.48,0.707-2.267,0.935c-18.174,6.592-34.363,17.719-47.029,32.324
		c-2.096,2.205-5.099,3.308-8.124,2.985c-3.025-0.323-5.727-2.037-7.309-4.635c-15.251,13.954-16.709,1.611-16.709-22.01V26.363
		c0-4.478-1.779-8.772-4.945-11.938c-3.166-3.166-7.461-4.945-11.938-4.944h-61.049c-4.478,0-8.772,1.778-11.938,4.944
		c-3.166,3.166-4.945,7.46-4.945,11.938v47.896c0,11.273-6.791,21.436-17.206,25.75c-10.415,4.314-22.403,1.929-30.374-6.042
		l-33.867-33.868c-6.593-6.593-17.283-6.593-23.876,0l-43.168,43.169c-3.166,3.166-4.945,7.46-4.944,11.938
		c0,4.477,1.779,8.771,4.945,11.937l33.867,33.868c7.971,7.971,10.356,19.96,6.042,30.375c-4.314,10.415-14.477,17.206-25.75,17.206
		H26.365c-4.478,0-8.772,1.778-11.938,4.944c-3.166,3.166-4.945,7.46-4.945,11.938v61.049c0,9.325,7.559,16.884,16.883,16.884H74.26
		c11.273,0,21.436,6.791,25.75,17.206c4.314,10.415,1.929,22.403-6.042,30.375l-33.867,33.866c-6.593,6.594-6.593,17.284,0,23.877
		l43.168,43.167c6.593,6.593,17.283,6.593,23.876,0l33.867-33.866c7.971-7.972,19.96-10.357,30.375-6.042
		c10.415,4.314,17.206,14.478,17.206,25.751v47.894c0,9.324,7.559,16.884,16.883,16.884h61.049c9.325,0,16.883-7.56,16.883-16.884
		v-47.893c0-21.796,1.222-34.028,13.394-24.822c2.413-9.345,17.388-12.051,19.535-1.03c3.718-0.259,7.257,1.629,9.113,4.861
		c4.322,6.592,10.176,12.038,17.061,15.875c3.982,2.62,5.75,7.559,4.336,12.111c4.513,2.092,9.178,3.838,13.955,5.224
		c0.371,0.109,0.675,0.273,1.016,0.408l41.637-41.637c6.593-6.594,6.593-17.284,0-23.877l-33.867-33.866
		c-7.971-7.971-10.356-19.96-6.042-30.375c4.314-10.415,14.477-17.206,25.751-17.206h47.895c9.325,0,16.883-7.56,16.883-16.884
		v-61.049c0-4.478-1.779-8.772-4.945-11.938C465.963,210.371,461.669,208.592,457.191,208.593z"/>
	<circle style="fill:#7FACFA;" cx="256" cy="256" r="75.852"/>
	<ellipse style="fill:#A4C2F7;" cx="241.778" cy="256" rx="61.63" ry="75.852"/>
	<g>
		<path style="fill:#FFFFFF;" d="M129.421,446.403c-0.788,0.228-1.548,0.542-2.267,0.935l-38.609-38.609
			c-3.166-3.166-4.945-7.46-4.944-11.938c0-4.477,1.779-8.771,4.945-11.937l33.867-33.868c7.971-7.971,10.356-19.96,6.042-30.375
			c-4.314-10.415-14.477-17.206-25.75-17.206H74.26c11.273,0,21.436,6.791,25.75,17.206c4.314,10.415,1.929,22.403-6.042,30.375
			l-33.867,33.868c-3.166,3.166-4.945,7.46-4.945,11.937c0,4.477,1.778,8.772,4.944,11.938l43.168,43.169
			c6.593,6.593,17.283,6.593,23.876,0l7.224-7.225C132.735,445.289,131.103,445.917,129.421,446.403z"/>
		<path style="fill:#FFFFFF;" d="M93.968,161.009c7.971,7.971,10.356,19.96,6.042,30.375c-4.314,10.415-14.477,17.206-25.75,17.206
			h28.444c11.273,0,21.436-6.791,25.75-17.206c4.314-10.415,1.929-22.403-6.042-30.375l-33.867-33.866
			c-6.593-6.594-6.593-17.284,0-23.877l40.884-40.884l-2.284-2.282c-6.593-6.593-17.283-6.593-23.876,0l-43.168,43.167
			c-6.593,6.594-6.593,17.284,0,23.877L93.968,161.009z"/>
		<path style="fill:#FFFFFF;" d="M26.365,303.405h28.444c-4.478,0-8.772-1.778-11.938-4.944c-3.166-3.166-4.945-7.46-4.945-11.938
			v-61.049c0-9.325,7.559-16.884,16.883-16.884H26.365c-9.325,0-16.883,7.56-16.883,16.884v61.049c0,4.478,1.779,8.772,4.945,11.938
			C17.593,301.627,21.887,303.405,26.365,303.405z"/>
	</g>
	<g>
		<path style="fill:#428DFF;" d="M286.528,512h-61.056c-14.552-0.015-26.346-11.809-26.361-26.361v-47.898
			c-0.001-7.439-4.482-14.144-11.354-16.992c-6.872-2.847-14.783-1.276-20.044,3.982l-33.861,33.87
			c-10.429,9.972-26.858,9.972-37.287,0l-43.167-43.167c-10.296-10.297-10.296-26.99,0-37.287l33.87-33.861
			c5.258-5.262,6.83-13.172,3.982-20.044c-2.847-6.872-9.553-11.353-16.992-11.354H26.361C11.809,312.873,0.015,301.08,0,286.528
			v-61.056c0.015-14.552,11.809-26.346,26.361-26.361h47.898c7.439-0.001,14.144-4.482,16.992-11.354
			c2.847-6.872,1.276-14.783-3.982-20.044l-33.87-33.861c-10.296-10.297-10.296-26.99,0-37.287l43.167-43.167
			c10.432-9.963,26.855-9.963,37.287,0l33.861,33.861c5.259,5.262,13.17,6.838,20.043,3.992c6.874-2.846,11.355-9.553,11.355-16.992
			V26.361C199.127,11.809,210.92,0.015,225.472,0h61.056c14.552,0.015,26.346,11.809,26.361,26.361v47.898
			c0,7.439,4.481,14.146,11.355,16.992c6.874,2.846,14.785,1.27,20.043-3.992l33.861-33.861c10.432-9.963,26.855-9.963,37.287,0
			l43.167,43.167c10.296,10.297,10.296,26.99,0,37.287l-33.87,33.861c-5.258,5.262-6.83,13.172-3.982,20.044
			c2.847,6.872,9.553,11.353,16.992,11.354h47.898c14.552,0.016,26.345,11.809,26.361,26.361v61.056
			c-0.015,14.552-11.809,26.346-26.361,26.361h-47.898c-7.439,0.001-14.144,4.482-16.992,11.354
			c-2.847,6.872-1.276,14.783,3.982,20.044l33.87,33.861c10.296,10.297,10.296,26.991,0,37.287l-43.167,43.167
			c-10.432,9.963-26.855,9.963-37.287,0l-33.861-33.87c-5.262-5.258-13.172-6.83-20.044-3.982
			c-6.872,2.847-11.353,9.553-11.354,16.992v47.898C312.873,500.192,301.08,511.985,286.528,512z M180.482,400.287
			c4.993,0.012,9.933,1.013,14.537,2.944c14.064,5.652,23.218,19.354,23.056,34.51v47.898c0.002,4.085,3.313,7.396,7.398,7.398
			h61.056c4.085-0.002,7.396-3.313,7.398-7.398v-47.898c0.001-15.108,9.102-28.729,23.059-34.511
			c13.958-5.782,30.025-2.588,40.709,8.094l33.861,33.87c2.893,2.889,7.579,2.889,10.472,0l43.167-43.167
			c2.889-2.893,2.889-7.579,0-10.472l-33.87-33.861c-10.682-10.684-13.877-26.751-8.095-40.709
			c5.782-13.958,19.403-23.059,34.511-23.059h47.898c4.085-0.002,7.396-3.313,7.398-7.398v-61.056
			c-0.002-4.085-3.313-7.396-7.398-7.398h-47.898c-15.108-0.001-28.729-9.102-34.511-23.06c-5.782-13.958-2.588-30.025,8.094-40.709
			l33.87-33.861c2.889-2.893,2.889-7.579,0-10.472l-43.167-43.167c-2.893-2.889-7.579-2.889-10.472,0l-33.861,33.861
			c-10.681,10.686-26.749,13.885-40.708,8.104c-13.96-5.781-23.061-19.402-23.06-34.512V26.361
			c-0.002-4.085-3.313-7.396-7.398-7.398h-61.056c-4.085,0.002-7.396,3.313-7.398,7.398v47.898
			c0.001,15.109-9.101,28.731-23.061,34.511c-13.959,5.781-30.027,2.582-40.708-8.104l-33.861-33.861
			c-2.893-2.889-7.579-2.889-10.472,0l-43.167,43.167c-2.889,2.893-2.889,7.579,0,10.472l33.87,33.861
			c10.682,10.684,13.876,26.751,8.094,40.709c-5.782,13.958-19.403,23.059-34.511,23.059H26.361
			c-4.085,0.002-7.396,3.313-7.398,7.398v61.056c0.002,4.085,3.313,7.396,7.398,7.398h47.898
			c15.108,0.001,28.729,9.102,34.511,23.059c5.782,13.958,2.588,30.025-8.094,40.709l-33.87,33.861
			c-2.889,2.893-2.889,7.579,0,10.472l43.167,43.167c2.893,2.889,7.579,2.889,10.472,0l33.861-33.87
			C161.205,404.294,170.632,400.319,180.482,400.287z"/>
		<path style="fill:#428DFF;" d="M256,341.333c-47.128,0-85.333-38.205-85.333-85.333s38.205-85.333,85.333-85.333
			s85.333,38.205,85.333,85.333C341.282,303.107,303.107,341.282,256,341.333z M256,189.63c-36.655,0-66.37,29.715-66.37,66.37
			s29.715,66.37,66.37,66.37s66.37-29.715,66.37-66.37C322.326,219.363,292.637,189.674,256,189.63L256,189.63z"/>
	</g>
</g>
<g>
</g>
<g>
</g>
<g>
</g>
<g>
</g>
<g>
</g>
<g>
</g>
<g>
</g>
<g>
</g>
<g>
</g>
<g>
</g>
<g>
</g>
<g>
</g>
<g>
</g>
<g>
</g>
<g>
</g>
</svg>
