<?xml version="1.0" encoding="iso-8859-1"?>
<!-- Generator: Adobe Illustrator 19.0.0, SVG Export Plug-In . SVG Version: 6.00 Build 0)  -->
<svg version="1.1" id="Capa_1" xmlns="http://www.w3.org/2000/svg" xmlns:xlink="http://www.w3.org/1999/xlink" x="0px" y="0px"
	 viewBox="0 0 512 512" style="enable-background:new 0 0 512 512;" xml:space="preserve">
<g>
	<path style="fill:#A4C2F7;" d="M485.635,208.593h-26.52c-5.153-22.184-13.927-43.367-25.967-62.698l18.75-18.75
		c6.593-6.593,6.593-17.282,0.001-23.876L408.731,60.1c-6.593-6.593-17.283-6.593-23.876,0L366.104,78.85
		c-19.331-12.041-40.513-20.813-62.697-25.966v-26.52c0-4.478-1.779-8.772-4.945-11.938c-3.166-3.166-7.461-4.945-11.938-4.945
		h-61.049c-4.478,0-8.772,1.778-11.938,4.945s-4.945,7.46-4.945,11.938v26.52c-22.183,5.153-43.366,13.926-62.697,25.966
		L127.145,60.1c-6.593-6.593-17.283-6.593-23.876,0l-43.168,43.169c-6.593,6.593-6.593,17.283,0.001,23.876l18.75,18.75
		c-12.04,19.331-20.814,40.514-25.967,62.698h-26.52c-4.478,0-8.772,1.778-11.938,4.945s-4.945,7.46-4.945,11.938v61.049
		c0,4.478,1.779,8.772,4.945,11.938s7.461,4.945,11.938,4.945h26.52c5.153,22.183,13.927,43.366,25.967,62.697l-18.75,18.75
		c-6.593,6.593-6.593,17.283,0,23.876l43.168,43.168c6.593,6.593,17.283,6.593,23.876,0l18.75-18.75
		c19.331,12.041,40.514,20.814,62.697,25.967v26.52c0,4.478,1.779,8.772,4.945,11.938c3.166,3.166,7.461,4.945,11.938,4.945h61.049
		c4.478,0,8.772-1.779,11.938-4.945s4.945-7.461,4.945-11.938v-26.52c22.183-5.153,43.366-13.927,62.697-25.967l18.75,18.75
		c6.593,6.593,17.283,6.593,23.876,0l43.168-43.168c6.593-6.593,6.593-17.283,0-23.876l-18.75-18.75
		c12.041-19.331,20.814-40.514,25.967-62.697h26.52c4.478,0,8.772-1.779,11.938-4.945s4.945-7.461,4.945-11.938v-61.049
		c0-4.478-1.779-8.772-4.945-11.938C494.407,210.371,490.113,208.592,485.635,208.593L485.635,208.593z"/>
	
		<linearGradient id="SVGID_1_" gradientUnits="userSpaceOnUse" x1="-48.7544" y1="652.5572" x2="-48.0346" y2="651.879" gradientTransform="matrix(464.5926 0 0 -493.037 22725.5195 321823.6563)">
		<stop  offset="0" style="stop-color:#D4E1F4"/>
		<stop  offset="0.1717" style="stop-color:#D4E1F4"/>
		<stop  offset="0.2" style="stop-color:#D4E1F4"/>
		<stop  offset="0.2001" style="stop-color:#DAE4F4"/>
		<stop  offset="0.2007" style="stop-color:#EBEBF4"/>
		<stop  offset="0.2014" style="stop-color:#F6F1F4"/>
		<stop  offset="0.2023" style="stop-color:#FDF4F4"/>
		<stop  offset="0.205" style="stop-color:#FFF5F4"/>
		<stop  offset="0.2522" style="stop-color:#FFF5F4"/>
		<stop  offset="0.26" style="stop-color:#FFF5F4"/>
		<stop  offset="0.26" style="stop-color:#D4E1F4"/>
		<stop  offset="0.3974" style="stop-color:#D4E1F4"/>
		<stop  offset="0.42" style="stop-color:#D4E1F4"/>
		<stop  offset="0.4201" style="stop-color:#DAE4F4"/>
		<stop  offset="0.4207" style="stop-color:#EBEBF4"/>
		<stop  offset="0.4214" style="stop-color:#F6F1F4"/>
		<stop  offset="0.4223" style="stop-color:#FDF4F4"/>
		<stop  offset="0.425" style="stop-color:#FFF5F4"/>
		<stop  offset="0.4894" style="stop-color:#FFF5F4"/>
		<stop  offset="0.5" style="stop-color:#FFF5F4"/>
		<stop  offset="0.5" style="stop-color:#F9F2F4"/>
		<stop  offset="0.5001" style="stop-color:#E8EBF4"/>
		<stop  offset="0.5003" style="stop-color:#DDE5F4"/>
		<stop  offset="0.5005" style="stop-color:#D6E2F4"/>
		<stop  offset="0.501" style="stop-color:#D4E1F4"/>
		<stop  offset="0.7062" style="stop-color:#D4E1F4"/>
		<stop  offset="0.74" style="stop-color:#D4E1F4"/>
		<stop  offset="0.741" style="stop-color:#FFF5F4"/>
		<stop  offset="0.8346" style="stop-color:#FFF5F4"/>
		<stop  offset="0.85" style="stop-color:#FFF5F4"/>
		<stop  offset="0.851" style="stop-color:#D4E1F4"/>
	</linearGradient>
	<path style="fill:url(#SVGID_1_);" d="M457.192,208.593h-26.52c-5.153-22.184-13.927-43.367-25.967-62.698l18.751-18.75
		c6.593-6.593,6.593-17.282,0-23.875L380.287,60.1c-6.593-6.593-13.397,9.159-19.99,15.752l-18.963-9.481
		c-19.063-11.874-15.408-8.25-37.926-13.486v-26.52c0-9.324-7.559-16.883-16.883-16.883h-61.049
		c-9.324,0-16.883,7.559-16.883,16.883v26.52c-22.183,5.153-43.366,13.926-62.697,25.966L127.145,60.1
		c-3.166-3.166-7.46-4.945-11.938-4.945c-4.478,0-8.772,1.779-11.938,4.945l-43.168,43.169c-3.166,3.166-4.945,7.46-4.945,11.938
		c0,4.478,1.779,8.772,4.945,11.938l18.75,18.75c-12.04,19.331-20.814,40.514-25.967,62.698h-26.52
		c-4.478,0-8.772,1.779-11.938,4.945c-3.166,3.166-4.945,7.46-4.945,11.938v61.049c0,9.324,7.559,16.883,16.883,16.883h26.52
		c5.153,22.183,13.927,43.366,25.967,62.697l-18.75,18.75c-6.593,6.593-6.593,17.283,0,23.876l43.168,43.168
		c6.593,6.593,17.283,6.593,23.876,0l18.75-18.75c19.331,12.041,40.514,20.814,62.697,25.967v26.52
		c0,9.324,7.559,16.883,16.883,16.883h61.049c4.478,0,8.772-1.779,11.938-4.945s4.945-7.46,4.945-11.938v-26.52
		c22.518-5.236,18.863-1.613,37.926-13.486l0,0c18.963-6.123,40.755,4.468,57.703-12.481l24.418-24.418
		c6.593-6.593,6.593-17.283,0-23.876l-18.75-18.75c12.04-19.331,20.814-40.514,25.967-62.697h26.52
		c4.478,0,8.772-1.779,11.938-4.945s4.945-7.46,4.945-11.938v-61.049c0-4.478-1.779-8.772-4.945-11.938
		C465.963,210.371,461.669,208.593,457.192,208.593z"/>
	<circle style="fill:#7FACFA;" cx="256" cy="256" r="123.259"/>
	<path style="fill:#FFFFFF;" d="M26.365,303.405h26.52c5.154,22.184,13.927,43.367,25.967,62.699l-18.75,18.75
		c-3.166,3.166-4.945,7.46-4.945,11.937s1.778,8.772,4.944,11.938l43.168,43.169c6.593,6.593,17.283,6.593,23.876,0l2.284-2.285
		l-40.884-40.884c-6.593-6.593-6.593-17.282,0-23.875l18.751-18.75c-12.04-19.332-20.813-40.515-25.967-62.699h-26.52
		c-4.477,0-8.772-1.778-11.938-4.944c-3.166-3.166-4.945-7.46-4.945-11.938v-61.049c0-9.324,7.559-16.884,16.883-16.884h26.52
		c5.153-22.183,13.926-43.366,25.967-62.697l-18.75-18.75c-6.593-6.594-6.593-17.284,0-23.877l24.418-24.417
		c6.14-6.063,14.314-9.626,22.935-9.998l-8.753-8.752c-6.593-6.593-17.283-6.593-23.876,0l-43.168,43.167
		c-6.593,6.594-6.593,17.284,0,23.877l18.75,18.75c-12.041,19.331-20.814,40.513-25.967,62.697h-26.52
		c-9.325,0-16.883,7.56-16.883,16.884v61.049c0,4.478,1.779,8.772,4.945,11.938C17.593,301.627,21.887,303.405,26.365,303.405
		L26.365,303.405z"/>
	<circle style="fill:#A4C2F7;" cx="256" cy="256" r="85.333"/>
	<g>
		<path style="fill:#428DFF;" d="M256,388.741c-73.311,0-132.741-59.43-132.741-132.741S182.689,123.259,256,123.259
			S388.741,182.689,388.741,256C388.659,329.277,329.277,388.659,256,388.741z M256,142.222
			c-62.838,0-113.778,50.94-113.778,113.778S193.162,369.778,256,369.778S369.778,318.838,369.778,256
			C369.709,193.191,318.809,142.291,256,142.222z"/>
		<path style="fill:#428DFF;" d="M286.528,512h-61.056c-14.552-0.015-26.346-11.809-26.361-26.361v-19.13
			c-18.101-4.874-35.493-12.076-51.74-21.426l-13.519,13.518c-10.431,9.968-26.856,9.968-37.287,0l-43.167-43.167
			c-10.296-10.297-10.296-26.99,0-37.287l13.519-13.519c-9.35-16.247-16.553-33.639-21.426-51.74h-19.13
			C11.809,312.873,0.015,301.08,0,286.528v-61.056c0.015-14.552,11.809-26.346,26.361-26.361h19.13
			c4.868-18.103,12.071-35.496,21.426-51.74l-13.519-13.519c-10.296-10.297-10.296-26.99,0-37.287l43.167-43.167
			c10.432-9.963,26.855-9.963,37.287,0l13.519,13.519c16.247-9.35,33.639-16.552,51.74-21.426v-19.13
			C199.127,11.809,210.92,0.015,225.472,0h61.056c14.552,0.015,26.346,11.809,26.361,26.361v19.13
			c18.101,4.874,35.493,12.076,51.74,21.426l13.518-13.519c10.436-9.954,26.851-9.954,37.287,0l43.167,43.167
			c10.296,10.297,10.296,26.99,0,37.287l-13.518,13.519c9.355,16.245,16.557,33.638,21.426,51.74h19.13
			c14.552,0.015,26.346,11.809,26.361,26.361v61.056c-0.015,14.552-11.809,26.346-26.361,26.361h-19.13
			c-4.874,18.101-12.076,35.493-21.426,51.74l13.518,13.518c10.296,10.297,10.296,26.99,0,37.287l-43.167,43.167
			c-10.432,9.963-26.855,9.963-37.287,0l-13.519-13.518c-16.247,9.35-33.639,16.552-51.74,21.426v19.13
			C312.873,500.191,301.08,511.985,286.528,512z M145.898,423.667c1.771-0.001,3.507,0.497,5.009,1.435
			c18.448,11.49,38.663,19.862,59.833,24.778c4.295,0.995,7.336,4.822,7.333,9.232v26.528c0.002,4.085,3.313,7.396,7.398,7.398
			h61.056c4.085-0.002,7.396-3.313,7.398-7.398v-26.528c-0.003-4.409,3.038-8.237,7.333-9.232
			c21.17-4.916,41.386-13.287,59.833-24.777c3.741-2.333,8.597-1.776,11.713,1.343l18.75,18.75c2.893,2.889,7.579,2.889,10.472,0
			l43.167-43.167c2.889-2.893,2.889-7.579,0-10.472l-18.75-18.75c-3.12-3.116-3.676-7.972-1.342-11.713
			c11.49-18.448,19.862-38.663,24.778-59.833c0.995-4.295,4.822-7.336,9.231-7.334h26.528c4.085-0.002,7.396-3.313,7.398-7.398
			v-61.056c-0.002-4.085-3.313-7.396-7.398-7.398h-26.528c-4.409,0.003-8.237-3.038-9.232-7.333
			c-4.913-21.171-13.284-41.387-24.777-59.833c-2.334-3.741-1.777-8.597,1.343-11.713l18.75-18.75c2.889-2.893,2.889-7.579,0-10.472
			l-43.167-43.166c-2.893-2.889-7.579-2.889-10.472,0l-18.75,18.75c-3.112,3.127-7.974,3.685-11.713,1.343
			c-18.448-11.49-38.663-19.862-59.833-24.778c-4.295-0.995-7.336-4.822-7.333-9.232V26.361c-0.002-4.085-3.313-7.396-7.398-7.398
			h-61.056c-4.085,0.002-7.396,3.313-7.398,7.398v26.528c0.003,4.409-3.038,8.237-7.333,9.232
			c-21.17,4.916-41.386,13.287-59.833,24.777c-3.739,2.341-8.601,1.784-11.713-1.343l-18.75-18.75
			c-2.893-2.889-7.579-2.889-10.472,0l-43.167,43.167c-2.889,2.893-2.889,7.579,0,10.472l18.75,18.75
			c3.119,3.116,3.676,7.972,1.342,11.713c-11.493,18.446-19.865,38.662-24.778,59.833c-0.995,4.295-4.822,7.336-9.231,7.334H26.361
			c-4.085,0.002-7.396,3.313-7.398,7.398v61.056c0.002,4.085,3.313,7.396,7.398,7.398h26.528c4.409-0.003,8.237,3.038,9.232,7.333
			c4.916,21.17,13.287,41.386,24.777,59.833c2.334,3.741,1.777,8.597-1.343,11.713l-18.75,18.75c-2.889,2.893-2.889,7.579,0,10.472
			l43.167,43.167c2.893,2.889,7.579,2.889,10.472,0l18.75-18.75C140.971,424.665,143.383,423.665,145.898,423.667L145.898,423.667z"
			/>
		<path style="fill:#428DFF;" d="M256,350.815c-52.365,0-94.815-42.45-94.815-94.815s42.45-94.815,94.815-94.815
			s94.815,42.45,94.815,94.815C350.753,308.339,308.339,350.753,256,350.815z M256,180.148c-41.892,0-75.852,33.96-75.852,75.852
			s33.96,75.852,75.852,75.852s75.852-33.96,75.852-75.852C331.804,214.128,297.872,180.196,256,180.148L256,180.148z"/>
	</g>
</g>
<g>
</g>
<g>
</g>
<g>
</g>
<g>
</g>
<g>
</g>
<g>
</g>
<g>
</g>
<g>
</g>
<g>
</g>
<g>
</g>
<g>
</g>
<g>
</g>
<g>
</g>
<g>
</g>
<g>
</g>
</svg>
