<?xml version="1.0" encoding="iso-8859-1"?>
<!-- Generator: Adobe Illustrator 19.0.0, SVG Export Plug-In . SVG Version: 6.00 Build 0)  -->
<svg version="1.1" id="Capa_1" xmlns="http://www.w3.org/2000/svg" xmlns:xlink="http://www.w3.org/1999/xlink" x="0px" y="0px"
	 viewBox="0 0 512 512" style="enable-background:new 0 0 512 512;" xml:space="preserve">
<g>
	<circle style="fill:#A4C2F7;" cx="256" cy="256" r="210.286"/>
	
		<linearGradient id="SVGID_1_" gradientUnits="userSpaceOnUse" x1="-48.7415" y1="652.5117" x2="-48.0093" y2="651.8273" gradientTransform="matrix(393.1429 0 0 -420.5714 19260.7148 274539.875)">
		<stop  offset="0" style="stop-color:#D4E1F4"/>
		<stop  offset="0.1717" style="stop-color:#D4E1F4"/>
		<stop  offset="0.2" style="stop-color:#D4E1F4"/>
		<stop  offset="0.2001" style="stop-color:#DAE4F4"/>
		<stop  offset="0.2007" style="stop-color:#EBEBF4"/>
		<stop  offset="0.2014" style="stop-color:#F6F1F4"/>
		<stop  offset="0.2023" style="stop-color:#FDF4F4"/>
		<stop  offset="0.205" style="stop-color:#FFF5F4"/>
		<stop  offset="0.2522" style="stop-color:#FFF5F4"/>
		<stop  offset="0.26" style="stop-color:#FFF5F4"/>
		<stop  offset="0.26" style="stop-color:#D4E1F4"/>
		<stop  offset="0.3974" style="stop-color:#D4E1F4"/>
		<stop  offset="0.42" style="stop-color:#D4E1F4"/>
		<stop  offset="0.4201" style="stop-color:#DAE4F4"/>
		<stop  offset="0.4207" style="stop-color:#EBEBF4"/>
		<stop  offset="0.4214" style="stop-color:#F6F1F4"/>
		<stop  offset="0.4223" style="stop-color:#FDF4F4"/>
		<stop  offset="0.425" style="stop-color:#FFF5F4"/>
		<stop  offset="0.4894" style="stop-color:#FFF5F4"/>
		<stop  offset="0.5" style="stop-color:#FFF5F4"/>
		<stop  offset="0.5" style="stop-color:#F9F2F4"/>
		<stop  offset="0.5001" style="stop-color:#E8EBF4"/>
		<stop  offset="0.5003" style="stop-color:#DDE5F4"/>
		<stop  offset="0.5005" style="stop-color:#D6E2F4"/>
		<stop  offset="0.501" style="stop-color:#D4E1F4"/>
		<stop  offset="0.7062" style="stop-color:#D4E1F4"/>
		<stop  offset="0.74" style="stop-color:#D4E1F4"/>
		<stop  offset="0.741" style="stop-color:#FFF5F4"/>
		<stop  offset="0.8346" style="stop-color:#FFF5F4"/>
		<stop  offset="0.85" style="stop-color:#FFF5F4"/>
		<stop  offset="0.851" style="stop-color:#D4E1F4"/>
	</linearGradient>
	<ellipse style="fill:url(#SVGID_1_);" cx="242.286" cy="256" rx="196.571" ry="210.286"/>
	<circle style="fill:#7FACFA;" cx="256" cy="256" r="36.571"/>
	<ellipse style="fill:#A4C2F7;" cx="242.286" cy="256" rx="22.857" ry="36.571"/>
	<path style="fill:#FFFFFF;" d="M256,466.286c2.377,0,4.73-0.101,7.088-0.179C157.599,462.362,73.143,369.761,73.143,256
		c0-113.759,84.456-206.362,189.945-210.107c-2.358-0.078-4.711-0.179-7.088-0.179C139.862,45.714,45.714,139.862,45.714,256
		S139.862,466.286,256,466.286z"/>
	<g>
		<path style="fill:#428DFF;" d="M256,301.714c-25.247,0-45.714-20.467-45.714-45.714c0-25.247,20.467-45.714,45.714-45.714
			c25.247,0,45.714,20.467,45.714,45.714C301.685,281.235,281.235,301.685,256,301.714L256,301.714z M256,228.571
			c-15.148,0-27.429,12.28-27.429,27.429c0,15.148,12.28,27.429,27.429,27.429c15.148,0,27.429-12.28,27.429-27.429
			C283.412,240.858,271.142,228.588,256,228.571L256,228.571z"/>
		<path style="fill:#428DFF;" d="M256,475.429c-121.187,0-219.429-98.242-219.429-219.429S134.813,36.571,256,36.571
			S475.429,134.813,475.429,256C475.29,377.13,377.13,475.29,256,475.429z M256,54.857C144.912,54.857,54.857,144.912,54.857,256
			S144.912,457.143,256,457.143S457.143,367.088,457.143,256C457.017,144.964,367.036,54.983,256,54.857z"/>
		<path style="fill:#428DFF;" d="M256,54.857c-2.425,0.001-4.752-0.961-6.466-2.676c-1.715-1.715-2.678-4.041-2.676-6.467V9.143
			C246.857,4.093,250.951,0,256,0c5.049,0,9.143,4.093,9.143,9.143v36.571c0.001,2.425-0.961,4.752-2.676,6.467
			C260.752,53.896,258.425,54.859,256,54.857z"/>
		<path style="fill:#428DFF;" d="M256,512c-2.425,0.001-4.752-0.961-6.466-2.676c-1.715-1.715-2.678-4.041-2.676-6.466v-36.571
			c0-5.049,4.093-9.143,9.143-9.143c5.049,0,9.143,4.093,9.143,9.143v36.571c0.001,2.425-0.961,4.752-2.676,6.466
			C260.752,511.039,258.425,512.001,256,512z"/>
		<path style="fill:#428DFF;" d="M502.857,265.143h-36.571c-5.049,0-9.143-4.093-9.143-9.143c0-5.049,4.093-9.143,9.143-9.143
			h36.571c5.049,0,9.143,4.093,9.143,9.143C512,261.049,507.907,265.143,502.857,265.143z"/>
		<path style="fill:#428DFF;" d="M45.714,265.143H9.143C4.093,265.143,0,261.049,0,256c0-5.049,4.093-9.143,9.143-9.143h36.571
			c5.049,0,9.143,4.093,9.143,9.143C54.857,261.049,50.764,265.143,45.714,265.143z"/>
		<path style="fill:#428DFF;" d="M404.696,116.446c-3.697-0.001-7.03-2.228-8.445-5.644c-1.415-3.416-0.633-7.348,1.981-9.963
			l25.857-25.857c2.309-2.309,5.676-3.211,8.83-2.366c3.155,0.845,5.619,3.309,6.464,6.464c0.845,3.155-0.057,6.521-2.366,8.83
			l-25.857,25.857C409.448,115.485,407.122,116.449,404.696,116.446L404.696,116.446z"/>
		<path style="fill:#428DFF;" d="M81.446,439.696c-3.697-0.001-7.03-2.228-8.445-5.644c-1.415-3.416-0.633-7.348,1.981-9.963
			l25.857-25.857c3.57-3.57,9.358-3.57,12.929,0c3.57,3.57,3.57,9.358,0,12.929l-25.857,25.857
			C86.198,438.736,83.872,439.7,81.446,439.696L81.446,439.696z"/>
		<path style="fill:#428DFF;" d="M430.554,439.696c-2.425,0.003-4.752-0.961-6.464-2.679l-25.857-25.857
			c-2.309-2.309-3.211-5.676-2.366-8.83c0.845-3.155,3.31-5.619,6.464-6.464c3.155-0.845,6.521,0.057,8.83,2.366l25.857,25.857
			c2.614,2.615,3.396,6.547,1.981,9.963C437.584,437.468,434.251,439.695,430.554,439.696L430.554,439.696z"/>
		<path style="fill:#428DFF;" d="M107.304,116.446c-2.425,0.003-4.752-0.961-6.464-2.679L74.982,87.91
			c-3.57-3.57-3.57-9.358,0-12.929c3.57-3.57,9.358-3.57,12.929,0l25.857,25.857c2.614,2.615,3.396,6.547,1.981,9.963
			C114.334,114.218,111.001,116.445,107.304,116.446L107.304,116.446z"/>
	</g>
</g>
<g>
</g>
<g>
</g>
<g>
</g>
<g>
</g>
<g>
</g>
<g>
</g>
<g>
</g>
<g>
</g>
<g>
</g>
<g>
</g>
<g>
</g>
<g>
</g>
<g>
</g>
<g>
</g>
<g>
</g>
</svg>
