<?xml version="1.0" encoding="iso-8859-1"?>
<!-- Generator: Adobe Illustrator 19.0.0, SVG Export Plug-In . SVG Version: 6.00 Build 0)  -->
<svg version="1.1" id="Capa_1" xmlns="http://www.w3.org/2000/svg" xmlns:xlink="http://www.w3.org/1999/xlink" x="0px" y="0px"
	 viewBox="0 0 512 512" style="enable-background:new 0 0 512 512;" xml:space="preserve">
<g>
	<circle style="fill:#A4C2F7;" cx="256" cy="256" r="213.333"/>
	<ellipse style="fill:#E3E7F2;" cx="243.234" cy="256" rx="200.533" ry="213.333"/>
	<path style="fill:#FFFFFF;" d="M71.319,362.659c39.48,68.415,113.542,109.405,192.479,106.529
		c-108.4-2.871-195.46-97.185-195.46-213.196c0-115.875,86.856-210.104,195.081-213.188
		C185.933,40.12,113.091,79.692,73.172,146.159S32.544,295.519,71.319,362.659L71.319,362.659z"/>
	<circle style="fill:#7FACFA;" cx="256" cy="256" r="85.333"/>
	<ellipse style="fill:#A4C2F7;" cx="243.2" cy="256" rx="72.533" ry="85.333"/>
	<g>
		<path style="fill:#428DFF;" d="M256,477.867c-122.534,0-221.867-99.333-221.867-221.867S133.466,34.133,256,34.133
			S477.867,133.466,477.867,256C477.731,378.477,378.477,477.731,256,477.867z M256,51.2C142.892,51.2,51.2,142.892,51.2,256
			S142.892,460.8,256,460.8S460.8,369.108,460.8,256C460.671,142.946,369.054,51.329,256,51.2z"/>
		<path style="fill:#428DFF;" d="M200.775,58.467c-3.86,0-7.238-2.595-8.233-6.325l-8.833-32.967
			c-1.22-4.552,1.482-9.231,6.033-10.45c4.552-1.22,9.231,1.482,10.45,6.033l8.833,32.967c0.686,2.564,0.14,5.301-1.476,7.405
			C205.933,57.235,203.429,58.468,200.775,58.467L200.775,58.467z"/>
		<path style="fill:#428DFF;" d="M320.042,503.567c-3.86-0.001-7.238-2.595-8.233-6.325l-8.833-32.967
			c-1.22-4.552,1.482-9.23,6.033-10.45c4.552-1.22,9.23,1.482,10.45,6.033l8.833,32.967c0.686,2.564,0.14,5.301-1.476,7.405
			C325.199,502.335,322.695,503.568,320.042,503.567L320.042,503.567z"/>
		<path style="fill:#428DFF;" d="M503.467,264.533h-34.133c-4.713,0-8.533-3.821-8.533-8.533c0-4.713,3.821-8.533,8.533-8.533
			h34.133c4.713,0,8.533,3.821,8.533,8.533C512,260.713,508.18,264.533,503.467,264.533z"/>
		<path style="fill:#428DFF;" d="M42.667,264.533H8.533C3.821,264.533,0,260.713,0,256c0-4.713,3.821-8.533,8.533-8.533h34.133
			c4.713,0,8.533,3.821,8.533,8.533C51.2,260.713,47.379,264.533,42.667,264.533z"/>
		<path style="fill:#428DFF;" d="M430.983,439.517c-2.264,0.003-4.435-0.897-6.033-2.5l-24.134-24.133
			c-2.162-2.154-3.008-5.299-2.22-8.247c0.788-2.948,3.091-5.251,6.039-6.039c2.948-0.788,6.093,0.058,8.247,2.22l24.133,24.133
			c2.44,2.44,3.169,6.11,1.849,9.298C437.545,437.437,434.434,439.516,430.983,439.517L430.983,439.517z"/>
		<path style="fill:#428DFF;" d="M105.15,113.683c-2.264,0.003-4.435-0.897-6.033-2.5L74.983,87.05
			c-3.332-3.332-3.332-8.735,0-12.067s8.735-3.332,12.067,0l24.133,24.133c2.44,2.44,3.169,6.11,1.849,9.298
			C111.712,111.603,108.601,113.682,105.15,113.683L105.15,113.683z"/>
		<path style="fill:#428DFF;" d="M406.85,113.683c-3.451-0.001-6.562-2.08-7.882-5.268c-1.32-3.188-0.591-6.858,1.849-9.298
			l24.133-24.133c3.332-3.332,8.735-3.332,12.067,0s3.332,8.735,0,12.067l-24.134,24.133
			C411.285,112.786,409.114,113.686,406.85,113.683z"/>
		<path style="fill:#428DFF;" d="M81.017,439.517c-3.451-0.001-6.562-2.08-7.882-5.268c-1.32-3.188-0.591-6.858,1.849-9.298
			l24.133-24.133c2.154-2.162,5.299-3.008,8.247-2.22c2.948,0.788,5.251,3.091,6.039,6.039s-0.058,6.093-2.22,8.247L87.05,437.017
			C85.452,438.62,83.28,439.52,81.017,439.517L81.017,439.517z"/>
		<path style="fill:#428DFF;" d="M149.342,79.783c-3.053,0.005-5.875-1.622-7.4-4.267l-17.067-29.558
			c-2.353-4.082-0.954-9.299,3.127-11.655c4.081-2.356,9.298-0.958,11.656,3.121l17.067,29.558c1.524,2.639,1.525,5.891,0.002,8.531
			S152.39,79.781,149.342,79.783L149.342,79.783z"/>
		<path style="fill:#428DFF;" d="M379.742,478.842c-3.053,0.005-5.875-1.622-7.4-4.267l-17.067-29.558
			c-2.353-4.082-0.954-9.299,3.127-11.655c4.081-2.356,9.298-0.958,11.656,3.121l17.067,29.558c1.524,2.639,1.525,5.891,0.002,8.531
			C385.605,477.212,382.79,478.84,379.742,478.842L379.742,478.842z"/>
		<path style="fill:#428DFF;" d="M256,512c-2.264,0.001-4.435-0.897-6.035-2.498c-1.601-1.601-2.499-3.772-2.498-6.035v-34.133
			c0-4.713,3.821-8.533,8.533-8.533c4.713,0,8.533,3.821,8.533,8.533v34.133c0.001,2.264-0.897,4.435-2.498,6.035
			C260.435,511.103,258.264,512.001,256,512z"/>
		<path style="fill:#428DFF;" d="M256,51.2c-2.264,0.001-4.435-0.897-6.035-2.498s-2.499-3.772-2.498-6.035V8.533
			C247.467,3.821,251.287,0,256,0c4.713,0,8.533,3.821,8.533,8.533v34.133c0.001,2.264-0.897,4.435-2.498,6.035
			S258.264,51.201,256,51.2z"/>
		<path style="fill:#428DFF;" d="M71.242,157.867c-1.495,0.001-2.964-0.393-4.258-1.142l-29.558-17.067
			c-4.08-2.358-5.477-7.575-3.121-11.656c2.356-4.081,7.573-5.481,11.655-3.127l29.558,17.067c3.348,1.931,4.98,5.871,3.978,9.604
			C78.492,155.279,75.107,157.872,71.242,157.867z"/>
		<path style="fill:#428DFF;" d="M470.3,388.267c-1.495,0.001-2.964-0.393-4.258-1.142l-29.558-17.067
			c-4.08-2.358-5.477-7.575-3.121-11.656c2.356-4.081,7.573-5.481,11.655-3.127l29.558,17.067c3.348,1.931,4.98,5.871,3.978,9.604
			C477.551,385.679,474.165,388.272,470.3,388.267L470.3,388.267z"/>
		<path style="fill:#428DFF;" d="M49.942,209.317c-0.749,0.001-1.494-0.097-2.217-0.292l-32.967-8.833
			c-4.552-1.22-7.253-5.898-6.033-10.45s5.898-7.253,10.45-6.033l32.967,8.833c4.133,1.109,6.805,5.108,6.249,9.351
			C57.834,206.136,54.221,209.311,49.942,209.317L49.942,209.317z"/>
		<path style="fill:#428DFF;" d="M495.042,328.583c-0.749,0.001-1.494-0.097-2.217-0.292l-32.967-8.833
			c-2.944-0.789-5.244-3.089-6.033-6.033c-0.789-2.944,0.053-6.086,2.208-8.242c2.156-2.155,5.297-2.997,8.242-2.208l32.967,8.833
			c4.133,1.109,6.805,5.108,6.249,9.351C502.934,325.402,499.321,328.577,495.042,328.583L495.042,328.583z"/>
		<path style="fill:#428DFF;" d="M16.958,328.583c-4.28-0.005-7.894-3.18-8.45-7.424c-0.557-4.243,2.116-8.243,6.25-9.352
			l32.967-8.833c2.944-0.789,6.086,0.053,8.242,2.208c2.155,2.156,2.997,5.297,2.208,8.242c-0.789,2.944-3.089,5.244-6.033,6.033
			l-32.967,8.834C18.452,328.486,17.707,328.584,16.958,328.583z"/>
		<path style="fill:#428DFF;" d="M462.058,209.317c-4.279-0.006-7.892-3.181-8.449-7.424c-0.556-4.243,2.116-8.242,6.249-9.351
			l32.967-8.833c2.945-0.789,6.086,0.053,8.242,2.208s2.997,5.297,2.208,8.242c-0.789,2.945-3.089,5.244-6.033,6.033l-32.967,8.833
			C463.552,209.22,462.807,209.318,462.058,209.317L462.058,209.317z"/>
		<path style="fill:#428DFF;" d="M41.7,388.267c-3.865,0.005-7.251-2.588-8.253-6.321c-1.002-3.733,0.63-7.673,3.978-9.604
			l29.558-17.067c2.641-1.526,5.896-1.527,8.537-0.002c2.642,1.525,4.269,4.344,4.268,7.394c-0.001,3.05-1.629,5.868-4.272,7.392
			l-29.558,17.067C44.664,387.874,43.195,388.268,41.7,388.267L41.7,388.267z"/>
		<path style="fill:#428DFF;" d="M440.758,157.867c-3.865,0.005-7.251-2.588-8.253-6.321c-1.002-3.733,0.63-7.673,3.978-9.604
			l29.558-17.067c2.641-1.526,5.896-1.527,8.537-0.002s4.269,4.344,4.268,7.394c-0.001,3.05-1.629,5.868-4.272,7.392l-29.558,17.067
			C443.722,157.474,442.254,157.868,440.758,157.867L440.758,157.867z"/>
		<path style="fill:#428DFF;" d="M362.658,79.783c-3.048-0.002-5.863-1.629-7.386-4.269s-1.522-5.892,0.002-8.531l17.067-29.558
			c1.523-2.642,4.341-4.271,7.392-4.272s5.869,1.626,7.394,4.268c1.525,2.642,1.524,5.896-0.002,8.537l-17.067,29.558
			C368.533,78.161,365.711,79.789,362.658,79.783L362.658,79.783z"/>
		<path style="fill:#428DFF;" d="M132.258,478.842c-3.048-0.002-5.863-1.629-7.386-4.269c-1.523-2.64-1.522-5.892,0.002-8.531
			l17.067-29.558c1.523-2.642,4.341-4.271,7.392-4.272c3.05-0.001,5.869,1.626,7.394,4.268c1.525,2.642,1.524,5.896-0.002,8.537
			l-17.067,29.558C138.133,477.22,135.311,478.847,132.258,478.842L132.258,478.842z"/>
		<path style="fill:#428DFF;" d="M311.225,58.467c-2.654,0.001-5.157-1.232-6.774-3.336c-1.617-2.105-2.162-4.842-1.476-7.405
			l8.833-32.967c0.789-2.944,3.089-5.244,6.033-6.033c2.944-0.789,6.086,0.053,8.242,2.208c2.155,2.155,2.997,5.297,2.208,8.242
			l-8.833,32.967C318.463,55.871,315.085,58.466,311.225,58.467L311.225,58.467z"/>
		<path style="fill:#428DFF;" d="M191.958,503.567c-2.654,0.001-5.157-1.232-6.774-3.336c-1.617-2.105-2.162-4.842-1.476-7.405
			l8.833-32.967c1.22-4.552,5.898-7.253,10.45-6.033c4.552,1.22,7.253,5.898,6.033,10.45l-8.833,32.967
			C199.197,500.971,195.819,503.566,191.958,503.567L191.958,503.567z"/>
		<path style="fill:#428DFF;" d="M256,349.867c-51.841,0-93.867-42.026-93.867-93.867s42.026-93.867,93.867-93.867
			s93.867,42.026,93.867,93.867C349.808,307.817,307.817,349.808,256,349.867L256,349.867z M256,179.2
			c-42.415,0-76.8,34.385-76.8,76.8s34.385,76.8,76.8,76.8s76.8-34.385,76.8-76.8C332.754,213.604,298.396,179.246,256,179.2z"/>
		<path style="fill:#428DFF;" d="M256,179.2c-2.264,0.001-4.435-0.897-6.035-2.498s-2.499-3.772-2.498-6.035v-128
			c0-4.713,3.821-8.533,8.533-8.533c4.713,0,8.533,3.821,8.533,8.533v128c0.001,2.264-0.897,4.435-2.498,6.035
			S258.264,179.201,256,179.2L256,179.2z"/>
		<path style="fill:#428DFF;" d="M174.842,238.167c-0.894,0-1.783-0.14-2.633-0.417L50.475,198.192
			c-2.917-0.927-5.114-3.346-5.757-6.338c-0.644-2.992,0.365-6.1,2.642-8.145c2.278-2.045,5.476-2.713,8.382-1.751l121.734,39.558
			c3.993,1.296,6.451,5.303,5.795,9.45C182.614,235.113,179.04,238.167,174.842,238.167L174.842,238.167z"/>
		<path style="fill:#428DFF;" d="M130.6,437.125c-1.801,0.004-3.556-0.569-5.008-1.633c-1.831-1.33-3.058-3.333-3.411-5.568
			c-0.353-2.235,0.196-4.519,1.528-6.349l75.233-103.558c1.789-2.475,4.764-3.805,7.801-3.487c3.037,0.317,5.673,2.234,6.911,5.025
			c1.238,2.791,0.891,6.031-0.912,8.496l-75.233,103.558C135.905,435.823,133.334,437.132,130.6,437.125z"/>
		<path style="fill:#428DFF;" d="M381.4,437.125c-2.734,0.007-5.305-1.302-6.908-3.517L299.258,330.05
			c-1.815-2.464-2.17-5.711-0.932-8.51c1.238-2.799,3.88-4.719,6.924-5.034c3.044-0.315,6.023,1.025,7.808,3.511l75.233,103.558
			c1.885,2.594,2.156,6.027,0.702,8.885C387.54,435.318,384.607,437.12,381.4,437.125L381.4,437.125z"/>
		<path style="fill:#428DFF;" d="M337.158,238.167c-4.198,0-7.772-3.054-8.428-7.2s1.802-8.154,5.795-9.45l121.733-39.558
			c4.473-1.422,9.254,1.035,10.702,5.499c1.448,4.464-0.98,9.26-5.435,10.734L339.792,237.75
			C338.941,238.026,338.053,238.167,337.158,238.167L337.158,238.167z"/>
		<circle style="fill:#428DFF;" cx="256" cy="256" r="8.533"/>
	</g>
</g>
<g>
</g>
<g>
</g>
<g>
</g>
<g>
</g>
<g>
</g>
<g>
</g>
<g>
</g>
<g>
</g>
<g>
</g>
<g>
</g>
<g>
</g>
<g>
</g>
<g>
</g>
<g>
</g>
<g>
</g>
</svg>
