<?xml version="1.0" encoding="iso-8859-1"?>
<!-- Generator: Adobe Illustrator 19.0.0, SVG Export Plug-In . SVG Version: 6.00 Build 0)  -->
<svg version="1.1" id="Capa_1" xmlns="http://www.w3.org/2000/svg" xmlns:xlink="http://www.w3.org/1999/xlink" x="0px" y="0px"
	 viewBox="0 0 512 512" style="enable-background:new 0 0 512 512;" xml:space="preserve">
<g transform="translate(0 -1)">
	<rect x="251.509" y="117.869" style="fill:#7FACFA;" width="251.509" height="107.789"/>
	<rect x="8.982" y="117.869" style="fill:#FFFFFF;" width="251.509" height="107.789"/>
	<rect x="260.491" y="225.658" style="fill:#A4C2F7;" width="206.596" height="269.474"/>
	<rect x="53.895" y="225.658" style="fill:#FFFFFF;" width="206.596" height="269.474"/>
	<rect x="35.93" y="117.869" style="fill:#A4C2F7;" width="440.14" height="107.789"/>
	<rect x="80.842" y="225.658" style="fill:#E3E7F2;" width="359.298" height="269.474"/>
	<g>
		<path style="fill:#428DFF;" d="M503.018,234.64H8.982c-2.382,0.001-4.668-0.946-6.352-2.63c-1.685-1.685-2.631-3.97-2.63-6.352
			V117.869c-0.001-2.382,0.946-4.668,2.63-6.352c1.685-1.685,3.97-2.631,6.352-2.63h494.035c2.382-0.001,4.668,0.946,6.352,2.63
			c1.685,1.685,2.631,3.97,2.63,6.352v107.789c0.001,2.382-0.946,4.668-2.63,6.352C507.685,233.695,505.4,234.641,503.018,234.64z
			 M17.965,216.676h476.07v-89.825H17.965V216.676z"/>
		<path style="fill:#428DFF;" d="M354.675,126.851H206.07c-3.139,0-6.051-1.639-7.679-4.324c-1.628-2.684-1.736-6.024-0.286-8.808
			c2.849-5.677,6.56-10.879,11-15.421l69.868-69.868c24.576-24.43,64.285-24.37,88.788,0.133s24.562,64.212,0.133,88.788
			l-6.868,6.868C359.342,125.904,357.057,126.85,354.675,126.851L354.675,126.851z M223.921,108.886h127.035l4.237-4.237
			c17.54-17.54,17.54-45.978,0-63.518s-45.978-17.54-63.518,0L223.921,108.886z"/>
		<path style="fill:#428DFF;" d="M206.07,126.851h-53.61c-2.382-0.001-4.666-0.947-6.351-2.632l-6.868-6.868
			c-15.96-15.869-22.22-39.058-16.416-60.803s22.789-38.729,44.534-44.533c21.745-5.804,44.934,0.456,60.803,16.416l31.754,31.763
			c1.685,1.684,2.632,3.969,2.632,6.351c0,2.382-0.947,4.667-2.632,6.351L221.807,111c-3.146,3.248-5.768,6.964-7.772,11.018
			C212.489,124.988,209.419,126.851,206.07,126.851z M156.18,108.886h44.662c2.331-3.84,5.104-7.394,8.263-10.588l31.759-31.754
			l-25.403-25.413c-17.551-17.472-45.934-17.44-63.446,0.072c-17.512,17.512-17.544,45.894-0.072,63.446L156.18,108.886z"/>
		<path style="fill:#428DFF;" d="M467.088,504.114H53.895c-2.382,0.001-4.668-0.946-6.352-2.63c-1.685-1.685-2.631-3.97-2.63-6.352
			V225.658c-0.001-2.382,0.946-4.668,2.63-6.352c1.685-1.685,3.97-2.631,6.352-2.63h413.193c2.382-0.001,4.668,0.946,6.352,2.63
			c1.685,1.685,2.631,3.97,2.63,6.352v269.474c0.001,2.382-0.946,4.668-2.63,6.352C471.755,503.169,469.47,504.115,467.088,504.114z
			 M62.877,486.149h395.228V234.64H62.877V486.149z"/>
		<path style="fill:#428DFF;" d="M260.491,504.114c-2.383,0.001-4.668-0.946-6.352-2.63c-1.685-1.685-2.631-3.97-2.63-6.352V117.869
			c0-4.961,4.022-8.982,8.982-8.982c4.961,0,8.982,4.022,8.982,8.982v377.263c0.001,2.382-0.946,4.668-2.63,6.352
			C265.159,503.169,262.874,504.115,260.491,504.114z"/>
		<path style="fill:#428DFF;" d="M467.088,360.395H53.895c-4.961,0-8.982-4.022-8.982-8.982s4.022-8.982,8.982-8.982h413.193
			c4.961,0,8.982,4.022,8.982,8.982S472.049,360.395,467.088,360.395z"/>
	</g>
</g>
<g>
</g>
<g>
</g>
<g>
</g>
<g>
</g>
<g>
</g>
<g>
</g>
<g>
</g>
<g>
</g>
<g>
</g>
<g>
</g>
<g>
</g>
<g>
</g>
<g>
</g>
<g>
</g>
<g>
</g>
</svg>
