<?xml version="1.0" encoding="iso-8859-1"?>
<!-- Generator: Adobe Illustrator 19.0.0, SVG Export Plug-In . SVG Version: 6.00 Build 0)  -->
<svg version="1.1" id="Capa_1" xmlns="http://www.w3.org/2000/svg" xmlns:xlink="http://www.w3.org/1999/xlink" x="0px" y="0px"
	 viewBox="0 0 512 512" style="enable-background:new 0 0 512 512;" xml:space="preserve">
<g>
	<path style="fill:#A4C2F7;" d="M371.198,8.533h98.944c16.047,0,29.056,13.009,29.056,29.056v436.821
		c0,16.047-13.009,29.056-29.056,29.056h-98.944c-16.047,0-29.056-13.009-29.056-29.056V37.589
		C342.142,21.542,355.151,8.533,371.198,8.533z"/>
	<path style="fill:#FFFFFF;" d="M246.654,8.533h98.944c16.047,0,29.056,13.009,29.056,29.056v436.821
		c0,16.047-13.009,29.056-29.056,29.056h-98.944c-16.047,0-29.056-13.009-29.056-29.056V37.589
		C217.598,21.542,230.607,8.533,246.654,8.533z"/>
	<path style="fill:#E3E7F2;" d="M272.254,8.533h163.755c16.047,0,29.056,13.009,29.056,29.056v436.821
		c0,16.047-13.009,29.056-29.056,29.056H272.254c-16.047,0-29.056-13.009-29.056-29.056V37.589
		C243.198,21.542,256.207,8.533,272.254,8.533z"/>
	
		<linearGradient id="SVGID_1_" gradientUnits="userSpaceOnUse" x1="-48.9153" y1="652.5052" x2="-47.6461" y2="651.6803" gradientTransform="matrix(221.8667 0 0 -341.3333 11066.0078 222811.4063)">
		<stop  offset="0" style="stop-color:#D4E1F4"/>
		<stop  offset="0.1717" style="stop-color:#D4E1F4"/>
		<stop  offset="0.2" style="stop-color:#D4E1F4"/>
		<stop  offset="0.2001" style="stop-color:#DAE4F4"/>
		<stop  offset="0.2007" style="stop-color:#EBEBF4"/>
		<stop  offset="0.2014" style="stop-color:#F6F1F4"/>
		<stop  offset="0.2023" style="stop-color:#FDF4F4"/>
		<stop  offset="0.205" style="stop-color:#FFF5F4"/>
		<stop  offset="0.2522" style="stop-color:#FFF5F4"/>
		<stop  offset="0.26" style="stop-color:#FFF5F4"/>
		<stop  offset="0.26" style="stop-color:#D4E1F4"/>
		<stop  offset="0.3974" style="stop-color:#D4E1F4"/>
		<stop  offset="0.42" style="stop-color:#D4E1F4"/>
		<stop  offset="0.4201" style="stop-color:#DAE4F4"/>
		<stop  offset="0.4207" style="stop-color:#EBEBF4"/>
		<stop  offset="0.4214" style="stop-color:#F6F1F4"/>
		<stop  offset="0.4223" style="stop-color:#FDF4F4"/>
		<stop  offset="0.425" style="stop-color:#FFF5F4"/>
		<stop  offset="0.4894" style="stop-color:#FFF5F4"/>
		<stop  offset="0.5" style="stop-color:#FFF5F4"/>
		<stop  offset="0.5" style="stop-color:#F9F2F4"/>
		<stop  offset="0.5001" style="stop-color:#E8EBF4"/>
		<stop  offset="0.5003" style="stop-color:#DDE5F4"/>
		<stop  offset="0.5005" style="stop-color:#D6E2F4"/>
		<stop  offset="0.501" style="stop-color:#D4E1F4"/>
		<stop  offset="0.7062" style="stop-color:#D4E1F4"/>
		<stop  offset="0.74" style="stop-color:#D4E1F4"/>
		<stop  offset="0.741" style="stop-color:#FFF5F4"/>
		<stop  offset="0.8346" style="stop-color:#FFF5F4"/>
		<stop  offset="0.85" style="stop-color:#FFF5F4"/>
		<stop  offset="0.851" style="stop-color:#D4E1F4"/>
	</linearGradient>
	<rect x="243.198" y="59.733" style="fill:url(#SVGID_1_);" width="221.867" height="341.333"/>
	<circle style="fill:#7FACFA;" cx="251.732" cy="230.4" r="110.933"/>
	<g>
		<ellipse style="fill:#A4C2F7;" cx="238.932" cy="230.4" rx="98.133" ry="110.933"/>
		<circle style="fill:#A4C2F7;" cx="354.132" cy="452.267" r="25.6"/>
	</g>
	<g>
		<path style="fill:#428DFF;" d="M354.132,486.4c-18.851,0-34.133-15.282-34.133-34.133c0-18.851,15.282-34.133,34.133-34.133
			c18.851,0,34.133,15.282,34.133,34.133C388.245,471.11,372.975,486.38,354.132,486.4L354.132,486.4z M354.132,435.2
			c-9.426,0-17.067,7.641-17.067,17.067s7.641,17.067,17.067,17.067c9.426,0,17.067-7.641,17.067-17.067
			C371.188,442.845,363.553,435.211,354.132,435.2z"/>
		<path style="fill:#428DFF;" d="M490.665,409.6H217.598c-4.713,0-8.533-3.821-8.533-8.533s3.821-8.533,8.533-8.533h273.067
			c4.713,0,8.533,3.82,8.533,8.533S495.378,409.6,490.665,409.6z"/>
		<path style="fill:#428DFF;" d="M490.665,68.267H217.598c-4.713,0-8.533-3.821-8.533-8.533s3.821-8.533,8.533-8.533h273.067
			c4.713,0,8.533,3.821,8.533,8.533S495.378,68.267,490.665,68.267z"/>
		<path style="fill:#428DFF;" d="M354.132,42.667h-34.133c-4.713,0-8.533-3.821-8.533-8.533s3.821-8.533,8.533-8.533h34.133
			c4.713,0,8.533,3.821,8.533,8.533S358.845,42.667,354.132,42.667z"/>
		<path style="fill:#428DFF;" d="M388.265,42.667h-8.533c-4.713,0-8.533-3.821-8.533-8.533s3.821-8.533,8.533-8.533h8.533
			c4.713,0,8.533,3.821,8.533,8.533S392.978,42.667,388.265,42.667z"/>
		<path style="fill:#428DFF;" d="M251.732,349.867c-65.98,0-119.467-53.487-119.467-119.467s53.487-119.467,119.467-119.467
			S371.198,164.42,371.198,230.4C371.125,296.349,317.681,349.793,251.732,349.867L251.732,349.867z M251.732,128
			c-56.554,0-102.4,45.846-102.4,102.4s45.846,102.4,102.4,102.4s102.4-45.846,102.4-102.4
			C354.069,173.872,308.26,128.063,251.732,128z"/>
		<path style="fill:#428DFF;" d="M21.332,452.267c-3.501-0.001-6.646-2.141-7.932-5.397c-1.287-3.256-0.455-6.967,2.099-9.362
			l148.188-138.867c3.438-3.222,8.837-3.046,12.058,0.392c3.222,3.438,3.046,8.837-0.392,12.058L27.165,449.958
			C25.586,451.443,23.499,452.268,21.332,452.267z"/>
		<path style="fill:#428DFF;" d="M461.607,512h-214.95c-20.751-0.024-37.567-16.84-37.592-37.592V335.925
			c0.001-2.729,1.306-5.293,3.512-6.9c2.198-1.623,5.048-2.077,7.642-1.217c42.185,13.677,88.379-1.354,114.437-37.237
			c26.058-35.882,26.058-84.461,0-120.343c-26.059-35.882-72.253-50.914-114.437-37.237c-2.594,0.858-5.443,0.405-7.642-1.217
			c-2.206-1.607-3.512-4.171-3.512-6.9V37.592C209.089,16.84,225.905,0.024,246.657,0h214.95
			c20.751,0.024,37.567,16.84,37.592,37.592v436.817C499.174,495.16,482.358,511.976,461.607,512z M226.132,347.075v127.333
			c0.013,11.33,9.195,20.512,20.525,20.525h214.95c11.33-0.013,20.512-9.195,20.525-20.525V37.592
			c-0.013-11.33-9.195-20.512-20.525-20.525h-214.95c-11.33,0.013-20.512,9.195-20.525,20.525v76.133
			c47.765-10.511,97.112,9.153,124.558,49.634s27.446,93.602,0,134.083S273.897,357.586,226.132,347.075L226.132,347.075z"/>
	</g>
</g>
<g>
</g>
<g>
</g>
<g>
</g>
<g>
</g>
<g>
</g>
<g>
</g>
<g>
</g>
<g>
</g>
<g>
</g>
<g>
</g>
<g>
</g>
<g>
</g>
<g>
</g>
<g>
</g>
<g>
</g>
</svg>
