<?xml version="1.0" encoding="iso-8859-1"?>
<!-- Generator: Adobe Illustrator 19.0.0, SVG Export Plug-In . SVG Version: 6.00 Build 0)  -->
<svg version="1.1" id="Capa_1" xmlns="http://www.w3.org/2000/svg" xmlns:xlink="http://www.w3.org/1999/xlink" x="0px" y="0px"
	 viewBox="0 0 511.068 511.068" style="enable-background:new 0 0 511.068 511.068;" xml:space="preserve">
<g>
	<path style="fill:#FFFFFF;" d="M275.226,403.692l-67.89,97.428c-0.173,0.173-0.433,0.225-0.659,0.131
		c-0.226-0.094-0.374-0.314-0.374-0.559v-175.77h68.923V403.692z"/>
	<path style="fill:#A4C2F7;" d="M304.765,403.692l-67.89,49.659c-0.173,0.173-0.433,0.225-0.66,0.131
		c-0.226-0.094-0.374-0.314-0.374-0.559v-128h68.923V403.692z"/>
	<path style="fill:#E3E7F2;" d="M275.226,433.231l-38.352,39.206c-0.173,0.173-0.433,0.225-0.66,0.131
		c-0.226-0.094-0.374-0.314-0.374-0.559V324.923h39.385V433.231z"/>
	<path style="fill:#A4C2F7;" d="M475.58,90.454C441.147,112.43,355.642,128,255.534,128S69.921,112.43,35.488,90.454h-0.021
		c-0.216-0.137-0.415,0.125-0.264,0.332l171.031,234.041c0.044,0.06,0.113,0.096,0.188,0.096h98.225
		c0.074,0,0.144-0.036,0.188-0.096L475.865,90.786c0.151-0.207-0.048-0.469-0.264-0.332H475.58z"/>
	<path style="fill:#E3E7F2;" d="M439.964,90.454C405.531,112.43,365.488,128,265.38,128S79.767,112.43,45.334,90.454h-0.021
		c-0.216-0.137-0.415,0.125-0.264,0.332L216.08,324.827c0.044,0.06,0.113,0.096,0.188,0.096h52.763c0.074,0,0.144-0.036,0.188-0.096
		L440.249,90.786c0.151-0.207-0.048-0.469-0.264-0.332H439.964z"/>
	<g>
		<path style="fill:#FFFFFF;" d="M39.117,90.454h0.021c15.341,8.78,31.892,15.251,49.121,19.202L245.5,324.827
			c0.044,0.06,0.114,0.096,0.188,0.096h-35.616c-0.074,0-0.144-0.036-0.188-0.096L38.853,90.786
			C38.702,90.579,38.901,90.317,39.117,90.454z"/>
		<path style="fill:#FFFFFF;" d="M255.534,128V9.846c-130.509,0-236.308,26.45-236.308,59.077S125.025,128,255.534,128z"/>
	</g>
	<path style="fill:#A4C2F7;" d="M255.534,9.846V128c130.509,0,236.308-26.45,236.308-59.077S386.043,9.846,255.534,9.846z"/>
	
		<linearGradient id="SVGID_1_" gradientUnits="userSpaceOnUse" x1="-49.1054" y1="652.2026" x2="-48.5779" y2="650.4445" gradientTransform="matrix(393.8462 0 0 -118.1539 19491.6367 77025.3125)">
		<stop  offset="0" style="stop-color:#D4E1F4"/>
		<stop  offset="0.1717" style="stop-color:#D4E1F4"/>
		<stop  offset="0.2" style="stop-color:#D4E1F4"/>
		<stop  offset="0.2001" style="stop-color:#DAE4F4"/>
		<stop  offset="0.2007" style="stop-color:#EBEBF4"/>
		<stop  offset="0.2014" style="stop-color:#F6F1F4"/>
		<stop  offset="0.2023" style="stop-color:#FDF4F4"/>
		<stop  offset="0.205" style="stop-color:#FFF5F4"/>
		<stop  offset="0.2522" style="stop-color:#FFF5F4"/>
		<stop  offset="0.26" style="stop-color:#FFF5F4"/>
		<stop  offset="0.26" style="stop-color:#D4E1F4"/>
		<stop  offset="0.3974" style="stop-color:#D4E1F4"/>
		<stop  offset="0.42" style="stop-color:#D4E1F4"/>
		<stop  offset="0.4201" style="stop-color:#DAE4F4"/>
		<stop  offset="0.4207" style="stop-color:#EBEBF4"/>
		<stop  offset="0.4214" style="stop-color:#F6F1F4"/>
		<stop  offset="0.4223" style="stop-color:#FDF4F4"/>
		<stop  offset="0.425" style="stop-color:#FFF5F4"/>
		<stop  offset="0.4894" style="stop-color:#FFF5F4"/>
		<stop  offset="0.5" style="stop-color:#FFF5F4"/>
		<stop  offset="0.5" style="stop-color:#F9F2F4"/>
		<stop  offset="0.5001" style="stop-color:#E8EBF4"/>
		<stop  offset="0.5003" style="stop-color:#DDE5F4"/>
		<stop  offset="0.5005" style="stop-color:#D6E2F4"/>
		<stop  offset="0.501" style="stop-color:#D4E1F4"/>
		<stop  offset="0.7062" style="stop-color:#D4E1F4"/>
		<stop  offset="0.74" style="stop-color:#D4E1F4"/>
		<stop  offset="0.741" style="stop-color:#FFF5F4"/>
		<stop  offset="0.8346" style="stop-color:#FFF5F4"/>
		<stop  offset="0.85" style="stop-color:#FFF5F4"/>
		<stop  offset="0.851" style="stop-color:#D4E1F4"/>
	</linearGradient>
	<ellipse style="fill:url(#SVGID_1_);" cx="255.534" cy="68.923" rx="196.923" ry="59.077"/>
	<g>
		<path style="fill:#428DFF;" d="M255.534,137.846c-122.322,0-246.154-23.673-246.154-68.923S133.212,0,255.534,0
			s246.154,23.673,246.154,68.923S377.856,137.846,255.534,137.846z M255.534,19.692c-138.24,0-226.462,29.154-226.462,49.231
			s88.222,49.231,226.462,49.231S481.995,89,481.995,68.923S393.774,19.692,255.534,19.692z"/>
		<path style="fill:#428DFF;" d="M206.693,511.067c-1.306,0.008-2.602-0.24-3.813-0.731c-3.895-1.619-6.43-5.426-6.423-9.644
			V324.923c-0.001-2.612,1.036-5.116,2.883-6.963c1.847-1.847,4.351-2.884,6.963-2.883h98.462c2.612-0.001,5.116,1.036,6.963,2.883
			c1.847,1.847,2.884,4.351,2.883,6.963v78.769c0,2.611-1.038,5.116-2.885,6.961l-97.428,97.433
			C212.245,510.027,209.518,511.096,206.693,511.067L206.693,511.067z M216.149,334.769v143.615l78.769-78.769v-64.846H216.149z"/>
		<path style="fill:#428DFF;" d="M304.644,334.769h-98.221c-3.166-0.034-6.14-1.523-8.063-4.039L27.25,96.596
			c-2.86-3.885-2.558-9.253,0.718-12.794c3.277-3.541,8.605-4.256,12.7-1.706c33.846,21.587,120.154,36.058,214.865,36.058
			c94.716,0,181.019-14.471,214.75-36l0.337-0.211c4.117-2.406,9.358-1.593,12.553,1.948c3.194,3.541,3.465,8.838,0.649,12.686
			L312.784,330.635C310.864,333.207,307.854,334.735,304.644,334.769z M211.308,315.077h88.457L446.697,114.01
			c-45.192,14.856-114.889,23.837-191.163,23.837S109.558,128.865,64.361,114L211.308,315.077z M475.601,90.452l0.106,0.163
			L475.601,90.452z"/>
	</g>
</g>
<g>
</g>
<g>
</g>
<g>
</g>
<g>
</g>
<g>
</g>
<g>
</g>
<g>
</g>
<g>
</g>
<g>
</g>
<g>
</g>
<g>
</g>
<g>
</g>
<g>
</g>
<g>
</g>
<g>
</g>
</svg>
