<?xml version="1.0" encoding="iso-8859-1"?>
<!-- Generator: Adobe Illustrator 19.0.0, SVG Export Plug-In . SVG Version: 6.00 Build 0)  -->
<svg version="1.1" id="Capa_1" xmlns="http://www.w3.org/2000/svg" xmlns:xlink="http://www.w3.org/1999/xlink" x="0px" y="0px"
	 viewBox="0 0 512 512" style="enable-background:new 0 0 512 512;" xml:space="preserve">
<g>
	<path style="fill:#428DFF;" d="M365.713,292.571c-80.791,0-146.286-65.494-146.286-146.286S284.922,0,365.713,0
		s146.286,65.494,146.286,146.286C511.907,227.039,446.467,292.479,365.713,292.571L365.713,292.571z M365.713,18.286
		c-70.692,0-128,57.308-128,128s57.308,128,128,128s128-57.308,128-128C493.634,75.626,436.373,18.365,365.713,18.286
		L365.713,18.286z"/>
	<path style="fill:#428DFF;" d="M9.142,484.571c-3.697-0.001-7.03-2.228-8.445-5.644s-0.633-7.348,1.981-9.963l246.857-246.857
		c3.579-3.515,9.322-3.489,12.87,0.058c3.547,3.547,3.573,9.29,0.058,12.87L15.606,481.893
		C13.894,483.61,11.567,484.574,9.142,484.571L9.142,484.571z"/>
	<path style="fill:#428DFF;" d="M127.999,512c-2.425,0.003-4.752-0.961-6.464-2.679l-73.143-73.143
		c-3.515-3.579-3.489-9.322,0.058-12.87c3.547-3.547,9.29-3.573,12.87-0.058l73.143,73.143c2.614,2.615,3.396,6.547,1.981,9.963
		C135.029,509.772,131.697,511.999,127.999,512z"/>
	<path style="fill:#428DFF;" d="M155.428,448c-2.425,0.003-4.752-0.961-6.464-2.679l-54.857-54.857
		c-3.515-3.579-3.489-9.322,0.058-12.87c3.547-3.547,9.29-3.573,12.87-0.058l54.857,54.857c2.614,2.615,3.396,6.547,1.981,9.963
		C162.458,445.772,159.125,447.999,155.428,448z"/>
	<path style="fill:#428DFF;" d="M219.428,420.571c-2.425,0.003-4.752-0.961-6.464-2.679l-73.143-73.143
		c-3.515-3.579-3.489-9.322,0.058-12.87c3.547-3.547,9.29-3.573,12.87-0.058l73.143,73.143c2.614,2.615,3.396,6.547,1.981,9.963
		C226.458,418.343,223.125,420.571,219.428,420.571z"/>
</g>
<g>
</g>
<g>
</g>
<g>
</g>
<g>
</g>
<g>
</g>
<g>
</g>
<g>
</g>
<g>
</g>
<g>
</g>
<g>
</g>
<g>
</g>
<g>
</g>
<g>
</g>
<g>
</g>
<g>
</g>
</svg>
