<?xml version="1.0" encoding="iso-8859-1"?>
<!-- Generator: Adobe Illustrator 19.0.0, SVG Export Plug-In . SVG Version: 6.00 Build 0)  -->
<svg version="1.1" id="Capa_1" xmlns="http://www.w3.org/2000/svg" xmlns:xlink="http://www.w3.org/1999/xlink" x="0px" y="0px"
	 viewBox="0 0 512 512" style="enable-background:new 0 0 512 512;" xml:space="preserve">
<g>
	<g>
		<rect x="187.784" y="477.867" style="fill:#A4C2F7;" width="170.667" height="25.6"/>
		<circle style="fill:#A4C2F7;" cx="273.023" cy="179.2" r="170.667"/>
	</g>
	<ellipse style="fill:#E3E7F2;" cx="260.317" cy="179.2" rx="157.867" ry="170.667"/>
	<path style="fill:#FFFFFF;" d="M273.117,349.867c2.227,0,4.392-0.25,6.599-0.333c-84.335-3.496-151.763-78.304-151.763-170.333
		S195.381,12.363,279.716,8.867c-2.207-0.083-4.371-0.333-6.599-0.333c-94.257,0-170.667,76.41-170.667,170.667
		S178.861,349.867,273.117,349.867L273.117,349.867z"/>
	<path style="fill:#A4C2F7;" d="M177.205,37.975c-0.049,2.908-0.147,5.942-0.316,9.221c-0.091,1.577,0.204,3.152,0.861,4.588
		c11.571,24.937,26.465,67.258,51.89,77.008c12.362,4.742,23.788,2.954,35.506,8.696c1.502,0.776,2.822,1.864,3.869,3.191
		c5.954,8.713,2.529,21.479,8.434,24.604c4.759,2.098,7.089,7.515,5.338,12.412c-7.736,21.319-0.459,45.186,17.856,58.562
		c13.341,11.046,2.237,36.65-8.989,56.75c-1.782,3.267-1.362,7.296,1.058,10.124c2.419,2.828,6.334,3.868,9.838,2.614
		c12.631-4.652,24.236-11.717,34.17-20.8c17.045-14.658,20.728-30.629,37.62-43.071c0.187-0.129,0.328-0.315,0.404-0.529
		c4.318-12.658,17.734-40.296,4.197-47.333c-12.638-6.562-17.364-25.571-29.696-38.525c-1.484-1.429-3.413-2.307-5.466-2.487
		c-15.116-1.946-21.919-13.446-32.089-5.8c-3.161,2.709-7.539,3.498-11.446,2.063c-3.908-1.435-6.735-4.869-7.392-8.98
		c-0.965-3.776-4.043-6.642-7.878-7.337c-1.986-0.681-3.609-2.143-4.494-4.047c-0.885-1.904-0.955-4.087-0.195-6.045l0.065-0.179
		c2.009-5.467-9.295-4.634-15.043-3.675c-1.609,0.267,3.855-6.233,2.059-5.175c-7.065,4.171-15.84-3.029-15.462-11.225
		c0.383-8.312,1.936-7.917,16.189-9.554c15.34-7.142,22.765-1.939,22.276,15.608c9.483,1.404,12.796-2.786,9.938-12.571
		c-0.804-2.906-0.192-6.022,1.651-8.408c14.278-20.224,35.025-34.976,58.816-41.821c3.89-1.372,6.268-5.301,5.68-9.383
		C308.862-1.319,234.186-0.726,177.205,37.975L177.205,37.975z"/>
	<g>
		<path style="fill:#428DFF;" d="M273.017,358.4c-98.969,0-179.2-80.231-179.2-179.2S174.048,0,273.017,0s179.2,80.231,179.2,179.2
			C452.103,278.122,371.939,358.286,273.017,358.4z M273.017,17.067c-89.544,0-162.133,72.59-162.133,162.133
			s72.59,162.133,162.133,162.133s162.133-72.59,162.133-162.133C435.049,89.698,362.519,17.168,273.017,17.067z"/>
		<path style="fill:#428DFF;" d="M273.117,486.4c-2.264,0.001-4.435-0.897-6.035-2.498c-1.601-1.601-2.499-3.772-2.498-6.035V384
			c0-4.713,3.82-8.533,8.533-8.533s8.533,3.82,8.533,8.533v93.867c0.001,2.264-0.897,4.435-2.498,6.035
			C277.552,485.503,275.381,486.401,273.117,486.4L273.117,486.4z"/>
		<path style="fill:#428DFF;" d="M273.026,392.442c-56.573,0.059-110.847-22.388-150.85-62.392S59.725,235.773,59.784,179.2
			c-0.185-56.598,22.281-110.918,62.392-150.85c1.6-1.601,3.77-2.5,6.033-2.5c2.263,0,4.434,0.899,6.033,2.5l24.133,24.133
			c2.156,2.155,2.997,5.297,2.208,8.242c-0.789,2.944-3.089,5.244-6.033,6.033c-2.944,0.789-6.086-0.053-8.242-2.208l-17.975-17.967
			c-70.995,77.461-68.39,197.094,5.908,271.392s193.931,76.902,271.392,5.908l-17.967-17.967c-2.155-2.155-2.997-5.297-2.208-8.242
			c0.789-2.944,3.089-5.244,6.033-6.033c2.944-0.789,6.086,0.053,8.242,2.208l24.133,24.133c1.601,1.6,2.5,3.77,2.5,6.033
			s-0.899,4.433-2.5,6.033C383.938,370.159,329.621,392.625,273.026,392.442z"/>
		<path style="fill:#428DFF;" d="M358.451,512H187.784c-2.264,0.001-4.435-0.897-6.035-2.498c-1.601-1.601-2.499-3.772-2.498-6.035
			v-25.6c-0.001-2.264,0.897-4.435,2.498-6.035c1.601-1.601,3.772-2.499,6.035-2.498h170.667c2.264-0.001,4.435,0.897,6.035,2.498
			c1.601,1.601,2.499,3.772,2.498,6.035v25.6c0.001,2.264-0.897,4.435-2.498,6.035C362.885,511.103,360.714,512.001,358.451,512
			L358.451,512z M196.317,494.933h153.6V486.4h-153.6V494.933z"/>
		<path style="fill:#428DFF;" d="M299.484,314.817c-6.184-0.022-11.898-3.302-15.035-8.632c-3.137-5.329-3.231-11.918-0.248-17.335
			c18.325-32.792,14.758-42.908,11-46.017c-21.2-15.743-29.476-43.583-20.317-68.35c0.158-0.392-0.533-1.183-1.417-1.65
			c-5.633-3.846-8.926-10.29-8.742-17.109c-0.174-3.566-1.112-7.053-2.75-10.225c0.009,0.033-0.417-0.258-0.65-0.383
			c-5.179-2.23-10.682-3.617-16.3-4.108c-6.289-0.707-12.477-2.133-18.442-4.25c-25-9.583-39.575-42.825-51.292-69.542
			c-1.85-4.217-3.6-8.217-5.283-11.842c-1.24-2.699-1.803-5.659-1.642-8.625c0.167-3.158,0.258-6.083,0.3-8.9
			c0.041-2.781,1.434-5.368,3.733-6.933c59.838-40.638,138.255-41.263,198.733-1.583c2.079,1.369,3.46,3.574,3.783,6.042
			c1.073,8.095-3.673,15.835-11.375,18.55c-22.219,6.275-41.586,20.035-54.825,38.95c-0.18,0.232-0.261,0.525-0.225,0.817
			c2.593,6.185,1.735,13.278-2.258,18.667c-4.458,4.51-10.975,6.312-17.117,4.733c-0.343-0.05-0.683-0.122-1.017-0.217
			c1.206,2.594,1.358,5.554,0.425,8.258c6.129,1.755,10.883,6.604,12.517,12.767c0.247,1.475,1.156,2.755,2.467,3.475
			c1.109,0.118,2.215-0.243,3.042-0.992c7.838-5.565,18.33-5.595,26.2-0.075c3.777,2.07,7.871,3.498,12.117,4.225
			c3.993,0.424,7.719,2.21,10.55,5.058c5.394,6.062,10.067,12.729,13.925,19.867c3.008,6.711,7.663,12.553,13.533,16.983
			c18.242,9.483,8.258,35.667,2.292,51.317c-0.9,2.358-1.725,4.517-2.35,6.342c-0.678,1.764-1.8,3.323-3.258,4.525
			c-7.012,5.544-13.002,12.27-17.7,19.875c-5.484,8.47-12.067,16.176-19.575,22.917c-10.725,9.773-23.246,17.372-36.867,22.375
			C303.512,314.468,301.506,314.815,299.484,314.817z M282.459,158.317c8.045,4.388,11.57,14.076,8.225,22.608
			c-6.217,17.87,0.046,37.701,15.4,48.758c18.833,15.592,5.033,45.983-6.983,67.492c11.967-3.709,22.929-10.102,32.05-18.692
			c6.428-5.812,12.05-12.457,16.717-19.758c5.332-8.406,11.935-15.935,19.575-22.317c0.525-1.45,1.133-3.042,1.775-4.733
			c6.992-18.325,8.942-28.45,5.792-30.083c-8.871-5.755-15.936-13.898-20.383-23.492c-3.213-5.996-7.093-11.609-11.567-16.733
			c-6.212-0.804-12.224-2.736-17.742-5.7c-6.525-3.15-6.817-2.917-8.508-1.65c-5.252,4.219-12.258,5.549-18.692,3.55
			c-6.684-2.421-11.727-8.005-13.458-14.9c-0.233-0.692-0.65-1.084-2.192-1.558c-1.688-0.52-3.277-1.32-4.7-2.367
			c2.137,4.646,3.448,9.629,3.875,14.725C281.83,155.096,282.103,156.715,282.459,158.317z M185.626,42.633
			c-0.05,1.617-0.125,3.275-0.208,5c1.8,4.284,3.608,8.4,5.508,12.733c9.883,22.542,23.425,53.425,41.775,60.459
			c4.788,1.652,9.747,2.756,14.783,3.292c7.399,0.722,14.63,2.647,21.408,5.7c1.333,0.674,2.588,1.493,3.742,2.442
			c-0.737-1.703-1.185-3.517-1.325-5.367c-1.544,0.093-3.082,0.268-4.608,0.525c-3.421,0.521-6.838-0.958-8.8-3.808
			c-0.202-0.306-0.386-0.623-0.55-0.95c-1.346-0.445-2.638-1.04-3.85-1.775c-6.508-3.932-10.382-11.076-10.125-18.675
			c0.692-15.058,9.275-16.017,21.158-17.342l1.275-0.15c7.333-4.261,16.353-4.413,23.825-0.4c1.114,0.727,2.14,1.58,3.058,2.542
			c0.623-1.565,1.459-3.037,2.483-4.375c14.52-20.51,35.306-35.752,59.233-43.433C301.928,8.499,236.763,9.883,185.626,42.633
			L185.626,42.633z M275.351,109.825c2.375,0.104,4.714,0.614,6.917,1.508c-0.314-0.939-0.46-1.927-0.433-2.917
			c0.225-8.033-1.558-9.825-1.575-9.842l0,0c0,0.009-2.158-0.767-8.558,2.208c-0.831,0.39-1.721,0.641-2.633,0.742l-2.642,0.3
			c-2.183,0.242-4.408,0.492-5.975,0.742l-0.025,0.425c0.012,1.036,0.445,2.023,1.2,2.733c0.35,0.398,0.817,0.675,1.333,0.792h0.009
			c3.515-2.056,7.968-1.525,10.9,1.3C274.45,108.416,274.949,109.092,275.351,109.825L275.351,109.825z"/>
	</g>
</g>
<g>
</g>
<g>
</g>
<g>
</g>
<g>
</g>
<g>
</g>
<g>
</g>
<g>
</g>
<g>
</g>
<g>
</g>
<g>
</g>
<g>
</g>
<g>
</g>
<g>
</g>
<g>
</g>
<g>
</g>
</svg>
