<?xml version="1.0" encoding="iso-8859-1"?>
<!-- Generator: Adobe Illustrator 19.0.0, SVG Export Plug-In . SVG Version: 6.00 Build 0)  -->
<svg version="1.1" id="Capa_1" xmlns="http://www.w3.org/2000/svg" xmlns:xlink="http://www.w3.org/1999/xlink" x="0px" y="0px"
	 viewBox="0 0 512 512" style="enable-background:new 0 0 512 512;" xml:space="preserve">
<g>
	<polygon style="fill:#A4C2F7;" points="426.667,8.533 426.667,68.267 426.667,153.6 256,153.6 256,8.533 	"/>
	<polygon style="fill:#FFFFFF;" points="256,8.533 256,68.267 256,153.6 85.333,153.6 85.333,8.533 	"/>
	
		<linearGradient id="SVGID_1_" gradientUnits="userSpaceOnUse" x1="-48.7061" y1="652.2918" x2="-47.9561" y2="650.7918" gradientTransform="matrix(290.1334 0 0 -145.0667 14278.4668 94598.0703)">
		<stop  offset="0" style="stop-color:#D4E1F4"/>
		<stop  offset="0.1717" style="stop-color:#D4E1F4"/>
		<stop  offset="0.2" style="stop-color:#D4E1F4"/>
		<stop  offset="0.2001" style="stop-color:#DAE4F4"/>
		<stop  offset="0.2007" style="stop-color:#EBEBF4"/>
		<stop  offset="0.2014" style="stop-color:#F6F1F4"/>
		<stop  offset="0.2023" style="stop-color:#FDF4F4"/>
		<stop  offset="0.205" style="stop-color:#FFF5F4"/>
		<stop  offset="0.2522" style="stop-color:#FFF5F4"/>
		<stop  offset="0.26" style="stop-color:#FFF5F4"/>
		<stop  offset="0.26" style="stop-color:#D4E1F4"/>
		<stop  offset="0.3974" style="stop-color:#D4E1F4"/>
		<stop  offset="0.42" style="stop-color:#D4E1F4"/>
		<stop  offset="0.4201" style="stop-color:#DAE4F4"/>
		<stop  offset="0.4207" style="stop-color:#EBEBF4"/>
		<stop  offset="0.4214" style="stop-color:#F6F1F4"/>
		<stop  offset="0.4223" style="stop-color:#FDF4F4"/>
		<stop  offset="0.425" style="stop-color:#FFF5F4"/>
		<stop  offset="0.4894" style="stop-color:#FFF5F4"/>
		<stop  offset="0.5" style="stop-color:#FFF5F4"/>
		<stop  offset="0.5" style="stop-color:#F9F2F4"/>
		<stop  offset="0.5001" style="stop-color:#E8EBF4"/>
		<stop  offset="0.5003" style="stop-color:#DDE5F4"/>
		<stop  offset="0.5005" style="stop-color:#D6E2F4"/>
		<stop  offset="0.501" style="stop-color:#D4E1F4"/>
		<stop  offset="0.7062" style="stop-color:#D4E1F4"/>
		<stop  offset="0.74" style="stop-color:#D4E1F4"/>
		<stop  offset="0.741" style="stop-color:#FFF5F4"/>
		<stop  offset="0.8346" style="stop-color:#FFF5F4"/>
		<stop  offset="0.85" style="stop-color:#FFF5F4"/>
		<stop  offset="0.851" style="stop-color:#D4E1F4"/>
	</linearGradient>
	<polygon style="fill:url(#SVGID_1_);" points="401.067,8.533 401.067,68.267 401.067,153.6 110.933,153.6 110.933,8.533 	"/>
	<polygon style="fill:#A4C2F7;" points="426.667,307.2 426.667,388.019 426.667,503.467 256,503.467 256,307.2 	"/>
	<polygon style="fill:#FFFFFF;" points="256,307.2 256,388.019 256,503.467 85.333,503.467 85.333,307.2 	"/>
	
		<linearGradient id="SVGID_2_" gradientUnits="userSpaceOnUse" x1="-48.7061" y1="652.5418" x2="-47.9561" y2="651.0418" gradientTransform="matrix(290.1334 0 0 -196.2667 14278.4668 128330.3438)">
		<stop  offset="0" style="stop-color:#D4E1F4"/>
		<stop  offset="0.1717" style="stop-color:#D4E1F4"/>
		<stop  offset="0.2" style="stop-color:#D4E1F4"/>
		<stop  offset="0.2001" style="stop-color:#DAE4F4"/>
		<stop  offset="0.2007" style="stop-color:#EBEBF4"/>
		<stop  offset="0.2014" style="stop-color:#F6F1F4"/>
		<stop  offset="0.2023" style="stop-color:#FDF4F4"/>
		<stop  offset="0.205" style="stop-color:#FFF5F4"/>
		<stop  offset="0.2522" style="stop-color:#FFF5F4"/>
		<stop  offset="0.26" style="stop-color:#FFF5F4"/>
		<stop  offset="0.26" style="stop-color:#D4E1F4"/>
		<stop  offset="0.3974" style="stop-color:#D4E1F4"/>
		<stop  offset="0.42" style="stop-color:#D4E1F4"/>
		<stop  offset="0.4201" style="stop-color:#DAE4F4"/>
		<stop  offset="0.4207" style="stop-color:#EBEBF4"/>
		<stop  offset="0.4214" style="stop-color:#F6F1F4"/>
		<stop  offset="0.4223" style="stop-color:#FDF4F4"/>
		<stop  offset="0.425" style="stop-color:#FFF5F4"/>
		<stop  offset="0.4894" style="stop-color:#FFF5F4"/>
		<stop  offset="0.5" style="stop-color:#FFF5F4"/>
		<stop  offset="0.5" style="stop-color:#F9F2F4"/>
		<stop  offset="0.5001" style="stop-color:#E8EBF4"/>
		<stop  offset="0.5003" style="stop-color:#DDE5F4"/>
		<stop  offset="0.5005" style="stop-color:#D6E2F4"/>
		<stop  offset="0.501" style="stop-color:#D4E1F4"/>
		<stop  offset="0.7062" style="stop-color:#D4E1F4"/>
		<stop  offset="0.74" style="stop-color:#D4E1F4"/>
		<stop  offset="0.741" style="stop-color:#FFF5F4"/>
		<stop  offset="0.8346" style="stop-color:#FFF5F4"/>
		<stop  offset="0.85" style="stop-color:#FFF5F4"/>
		<stop  offset="0.851" style="stop-color:#D4E1F4"/>
	</linearGradient>
	<polygon style="fill:url(#SVGID_2_);" points="401.067,307.2 401.067,388.019 401.067,503.467 110.933,503.467 110.933,307.2 	"/>
	<polygon style="fill:#FFFFFF;" points="315.733,153.6 315.733,307.2 264.533,307.2 85.333,307.2 85.333,452.267 59.733,452.267 
		59.733,426.667 8.533,426.667 8.533,153.6 	"/>
	<polygon style="fill:#A4C2F7;" points="196.267,153.6 196.267,307.2 247.467,307.2 426.667,307.2 426.667,452.267 452.267,452.267 
		452.267,426.667 503.467,426.667 503.467,153.6 	"/>
	<polyline style="fill:#E3E7F2;" points="426.667,307.2 426.667,452.267 452.267,452.267 452.267,426.667 477.867,426.667 
		477.867,153.6 34.133,153.6 34.133,426.667 59.733,426.667 59.733,452.267 85.333,452.267 85.333,307.2 	"/>
	<circle style="fill:#7FACFA;" cx="426.667" cy="230.4" r="34.133"/>
	<ellipse style="fill:#A4C2F7;" cx="413.867" cy="230.4" rx="21.333" ry="34.133"/>
	<g>
		<path style="fill:#428DFF;" d="M426.667,162.133H85.333c-2.264,0.001-4.435-0.897-6.035-2.498
			c-1.601-1.601-2.499-3.772-2.498-6.035V8.533c-0.001-2.264,0.897-4.435,2.498-6.035C80.899,0.897,83.07-0.001,85.333,0h341.333
			c2.264-0.001,4.435,0.897,6.035,2.498c1.601,1.601,2.499,3.772,2.498,6.035V153.6c0.001,2.264-0.897,4.435-2.498,6.035
			C431.102,161.236,428.93,162.135,426.667,162.133L426.667,162.133z M93.867,145.067h324.267v-128H93.867V145.067z"/>
		<path style="fill:#428DFF;" d="M426.667,512H85.333c-2.264,0.001-4.435-0.897-6.035-2.498c-1.601-1.601-2.499-3.772-2.498-6.035
			V307.2c0-4.713,3.821-8.533,8.533-8.533s8.533,3.82,8.533,8.533v187.733h324.267V307.2c0-4.713,3.82-8.533,8.533-8.533
			s8.533,3.82,8.533,8.533v196.267c0.001,2.264-0.897,4.435-2.498,6.035C431.102,511.103,428.93,512.001,426.667,512z"/>
		<path style="fill:#428DFF;" d="M426.667,273.067c-23.564,0-42.667-19.103-42.667-42.667s19.103-42.667,42.667-42.667
			c23.564,0,42.667,19.103,42.667,42.667C469.306,253.953,450.219,273.039,426.667,273.067z M426.667,204.8
			c-14.138,0-25.6,11.462-25.6,25.6c0,14.139,11.462,25.6,25.6,25.6s25.6-11.461,25.6-25.6
			C452.251,216.268,440.799,204.815,426.667,204.8L426.667,204.8z"/>
		<path style="fill:#428DFF;" d="M358.4,384H153.6c-4.713,0-8.533-3.821-8.533-8.533c0-4.713,3.82-8.533,8.533-8.533h204.8
			c4.713,0,8.533,3.821,8.533,8.533C366.933,380.18,363.113,384,358.4,384z"/>
		<path style="fill:#428DFF;" d="M358.4,426.667H153.6c-4.713,0-8.533-3.82-8.533-8.533s3.82-8.533,8.533-8.533h204.8
			c4.713,0,8.533,3.82,8.533,8.533S363.113,426.667,358.4,426.667z"/>
		<path style="fill:#428DFF;" d="M503.467,315.733H8.533c-4.713,0-8.533-3.82-8.533-8.533s3.821-8.533,8.533-8.533h494.933
			c4.713,0,8.533,3.82,8.533,8.533S508.18,315.733,503.467,315.733z"/>
		<path style="fill:#428DFF;" d="M452.267,460.8h-25.6c-2.264,0.001-4.435-0.897-6.035-2.498c-1.601-1.601-2.499-3.772-2.498-6.035
			V307.2c0-4.713,3.82-8.533,8.533-8.533s8.533,3.82,8.533,8.533v136.533h8.533v-17.067c-0.001-2.264,0.897-4.435,2.498-6.035
			c1.601-1.601,3.772-2.499,6.035-2.498h42.667v-256H17.067v256h42.667c2.264-0.001,4.435,0.897,6.035,2.498
			c1.601,1.601,2.499,3.772,2.498,6.035v17.067H76.8V307.2c0-4.713,3.821-8.533,8.533-8.533s8.533,3.82,8.533,8.533v145.067
			c0.001,2.264-0.897,4.435-2.498,6.035c-1.601,1.601-3.772,2.499-6.035,2.498h-25.6c-2.264,0.001-4.435-0.897-6.035-2.498
			c-1.601-1.601-2.499-3.772-2.498-6.035V435.2H8.533c-2.264,0.001-4.435-0.897-6.035-2.498c-1.601-1.601-2.499-3.772-2.498-6.035
			V153.6c-0.001-2.264,0.897-4.435,2.498-6.035s3.772-2.499,6.035-2.498h494.933c2.264-0.001,4.435,0.897,6.035,2.498
			c1.601,1.601,2.499,3.772,2.498,6.035v273.067c0.001,2.264-0.897,4.435-2.498,6.035c-1.601,1.601-3.772,2.499-6.035,2.498H460.8
			v17.067c0.001,2.264-0.897,4.435-2.498,6.035C456.701,459.903,454.53,460.801,452.267,460.8z"/>
		<path style="fill:#428DFF;" d="M59.733,435.2c-2.264,0.001-4.435-0.897-6.035-2.498c-1.601-1.601-2.499-3.772-2.498-6.035V384
			c0-4.713,3.821-8.533,8.533-8.533s8.533,3.821,8.533,8.533v42.667c0.001,2.264-0.897,4.435-2.498,6.035
			C64.168,434.303,61.997,435.201,59.733,435.2L59.733,435.2z"/>
		<path style="fill:#428DFF;" d="M452.267,435.2c-2.264,0.001-4.435-0.897-6.035-2.498c-1.601-1.601-2.499-3.772-2.498-6.035V384
			c0-4.713,3.82-8.533,8.533-8.533s8.533,3.821,8.533,8.533v42.667c0.001,2.264-0.897,4.435-2.498,6.035
			C456.701,434.303,454.53,435.201,452.267,435.2L452.267,435.2z"/>
	</g>
</g>
<g>
</g>
<g>
</g>
<g>
</g>
<g>
</g>
<g>
</g>
<g>
</g>
<g>
</g>
<g>
</g>
<g>
</g>
<g>
</g>
<g>
</g>
<g>
</g>
<g>
</g>
<g>
</g>
<g>
</g>
</svg>
