<?xml version="1.0" encoding="iso-8859-1"?>
<!-- Generator: Adobe Illustrator 19.0.0, SVG Export Plug-In . SVG Version: 6.00 Build 0)  -->
<svg version="1.1" id="Capa_1" xmlns="http://www.w3.org/2000/svg" xmlns:xlink="http://www.w3.org/1999/xlink" x="0px" y="0px"
	 viewBox="0 0 512.003 512.003" style="enable-background:new 0 0 512.003 512.003;" xml:space="preserve">
<g>
	<g>
		<path style="fill:#E3E7F2;" d="M503.468,51.201h-0.49c0.074,0.36,0.07,0.729,0.126,1.092L503.468,51.201z"/>
		<path style="fill:#E3E7F2;" d="M396.801,102.401c-58.91,0-106.667-21.012-106.667-46.933c0.019-1.435,0.183-2.865,0.49-4.267
			h-0.49L8.535,503.468l486.4-426.667l1.604-4.813C481.333,89.747,442.475,102.401,396.801,102.401z"/>
	</g>
	<g>
		<path style="fill:#A4C2F7;" d="M396.801,102.401c-58.91,0-106.667-21.012-106.667-46.933c0.019-1.435,0.183-2.865,0.49-4.267
			h-0.49L8.535,503.468l486.4-426.667l1.604-4.813C481.333,89.747,442.475,102.401,396.801,102.401z"/>
		<path style="fill:#A4C2F7;" d="M183.366,222.676l72.635-116.654l-34.133-54.821h-0.49c0.307,1.402,0.471,2.832,0.49,4.267
			c0,25.921-47.756,46.933-106.667,46.933c-45.674,0-84.531-12.654-99.737-30.413l1.604,4.813L183.366,222.676z"/>
		<polygon style="fill:#A4C2F7;" points="256.001,286.397 503.468,503.468 328.637,222.679 		"/>
		<ellipse style="fill:#A4C2F7;" cx="115.201" cy="55.468" rx="106.667" ry="46.933"/>
		<ellipse style="fill:#A4C2F7;" cx="396.801" cy="55.468" rx="106.667" ry="46.933"/>
	</g>
	<g>
		<ellipse style="fill:#E3E7F2;" cx="384.001" cy="55.468" rx="93.867" ry="46.933"/>
		<ellipse style="fill:#E3E7F2;" cx="102.401" cy="55.468" rx="93.867" ry="46.933"/>
	</g>
	<path style="fill:#FFFFFF;" d="M115.201,102.401c2.298,0,4.546-0.087,6.808-0.15c-49.034-1.554-87.875-21.875-87.875-46.783
		S72.975,10.239,122.01,8.685c-2.263-0.063-4.51-0.15-6.808-0.15c-58.91,0-106.667,21.012-106.667,46.933
		S56.291,102.401,115.201,102.401z"/>
	<g>
		<path style="fill:#428DFF;" d="M115.201,110.935c-65.675,0-115.2-23.842-115.2-55.467s49.525-55.467,115.2-55.467
			s115.2,23.842,115.2,55.467S180.876,110.935,115.201,110.935z M115.201,17.068c-57.833,0-98.133,20.233-98.133,38.4
			s40.3,38.4,98.133,38.4s98.133-20.233,98.133-38.4S173.035,17.068,115.201,17.068z"/>
		<path style="fill:#428DFF;" d="M396.801,110.935c-65.675,0-115.2-23.842-115.2-55.467s49.525-55.467,115.2-55.467
			s115.2,23.842,115.2,55.467S462.476,110.935,396.801,110.935z M396.801,17.068c-57.833,0-98.133,20.233-98.133,38.4
			s40.3,38.4,98.133,38.4s98.133-20.233,98.133-38.4S454.635,17.068,396.801,17.068z"/>
		<path style="fill:#428DFF;" d="M503.11,60.826c-0.225,0-0.454-0.009-0.683-0.025c-3.915-0.313-7.11-3.257-7.742-7.133
			c-0.037-0.225-0.117-0.925-0.137-1.142c-0.511-2.455,0.141-5.008,1.766-6.917c1.824-1.932,4.397-2.976,7.052-2.861
			c2.654,0.115,5.128,1.378,6.777,3.461c1.674,2.187,2.203,5.042,1.425,7.683l-0.362,1.092
			C510.046,58.472,506.784,60.825,503.11,60.826L503.11,60.826z"/>
		<path style="fill:#428DFF;" d="M8.535,512.001c-3.099,0.001-5.956-1.679-7.461-4.389c-1.505-2.709-1.423-6.022,0.215-8.653
			l281.6-452.267c1.597-2.226,4.11-3.617,6.845-3.788c2.735-0.171,5.401,0.895,7.264,2.905c1.69,1.961,2.417,4.573,1.983,7.125
			c-0.189,0.832-0.293,1.68-0.313,2.533c0,18.167,40.3,38.4,98.133,38.4c48.204,0,81.571-13.775,93.254-27.433
			c2.655-3.099,7.133-3.884,10.684-1.874c3.552,2.01,5.184,6.252,3.895,10.124l-1.604,4.817c-0.479,1.435-1.331,2.717-2.467,3.717
			l-486.4,426.667C12.606,511.249,10.606,512.001,8.535,512.001z M286.818,72.668L46.26,459.026l403.663-354.092
			c-17.41,4.077-35.24,6.091-53.121,6C343.71,110.935,301.168,95.351,286.818,72.668z"/>
		<path style="fill:#428DFF;" d="M183.368,231.21c-2.071,0.001-4.071-0.752-5.629-2.116L11.439,83.218
			c-1.136-0.999-1.987-2.282-2.467-3.717l-1.604-4.817c-1.289-3.872,0.343-8.115,3.895-10.124c3.552-2.01,8.029-1.224,10.684,1.874
			c11.683,13.658,45.05,27.433,93.254,27.433c57.833,0,98.133-20.233,98.133-38.4c-0.019-0.853-0.124-1.702-0.312-2.533
			c-0.523-2.513,0.116-5.127,1.737-7.117c1.905-2.021,4.61-3.091,7.382-2.922s5.326,1.56,6.972,3.797l34.133,54.817
			c1.717,2.76,1.717,6.256,0,9.017l-72.633,116.659c-1.325,2.127-3.517,3.565-5.996,3.933
			C184.204,231.178,183.786,231.208,183.368,231.21z M62.08,104.935l119.358,104.7l64.508-103.617l-20.763-33.35
			c-14.35,22.683-56.887,38.267-109.983,38.267C97.32,111.025,79.491,109.012,62.08,104.935z"/>
		<path style="fill:#428DFF;" d="M503.468,512.001c-2.071,0-4.071-0.752-5.629-2.116L250.372,292.81
			c-1.846-1.622-2.904-3.96-2.904-6.417c0-2.457,1.058-4.795,2.904-6.417l72.633-63.717c1.885-1.652,4.4-2.392,6.879-2.025
			s4.672,1.806,5.996,3.933L510.714,498.96c1.638,2.631,1.72,5.944,0.215,8.653C509.424,510.322,506.567,512.002,503.468,512.001
			L503.468,512.001z M268.943,286.393l196.8,172.633L326.705,235.718L268.943,286.393z"/>
	</g>
</g>
<g>
</g>
<g>
</g>
<g>
</g>
<g>
</g>
<g>
</g>
<g>
</g>
<g>
</g>
<g>
</g>
<g>
</g>
<g>
</g>
<g>
</g>
<g>
</g>
<g>
</g>
<g>
</g>
<g>
</g>
</svg>
