<?xml version="1.0" encoding="iso-8859-1"?>
<!-- Generator: Adobe Illustrator 19.0.0, SVG Export Plug-In . SVG Version: 6.00 Build 0)  -->
<svg version="1.1" id="Capa_1" xmlns="http://www.w3.org/2000/svg" xmlns:xlink="http://www.w3.org/1999/xlink" x="0px" y="0px"
	 viewBox="0 0 503.607 503.607" style="enable-background:new 0 0 503.607 503.607;" xml:space="preserve">
<g>
	<circle style="fill:#A4C2F7;" cx="251.803" cy="251.794" r="243.41"/>
	
		<linearGradient id="SVGID_1_" gradientUnits="userSpaceOnUse" x1="-52.9534" y1="651.5421" x2="-52.2268" y2="650.8531" gradientTransform="matrix(461.6393 0 0 -486.8196 24517.0957 317267.8125)">
		<stop  offset="0" style="stop-color:#D4E1F4"/>
		<stop  offset="0.1717" style="stop-color:#D4E1F4"/>
		<stop  offset="0.2" style="stop-color:#D4E1F4"/>
		<stop  offset="0.2001" style="stop-color:#DAE4F4"/>
		<stop  offset="0.2007" style="stop-color:#EBEBF4"/>
		<stop  offset="0.2014" style="stop-color:#F6F1F4"/>
		<stop  offset="0.2023" style="stop-color:#FDF4F4"/>
		<stop  offset="0.205" style="stop-color:#FFF5F4"/>
		<stop  offset="0.2522" style="stop-color:#FFF5F4"/>
		<stop  offset="0.26" style="stop-color:#FFF5F4"/>
		<stop  offset="0.26" style="stop-color:#D4E1F4"/>
		<stop  offset="0.3974" style="stop-color:#D4E1F4"/>
		<stop  offset="0.42" style="stop-color:#D4E1F4"/>
		<stop  offset="0.4201" style="stop-color:#DAE4F4"/>
		<stop  offset="0.4207" style="stop-color:#EBEBF4"/>
		<stop  offset="0.4214" style="stop-color:#F6F1F4"/>
		<stop  offset="0.4223" style="stop-color:#FDF4F4"/>
		<stop  offset="0.425" style="stop-color:#FFF5F4"/>
		<stop  offset="0.4894" style="stop-color:#FFF5F4"/>
		<stop  offset="0.5" style="stop-color:#FFF5F4"/>
		<stop  offset="0.5" style="stop-color:#F9F2F4"/>
		<stop  offset="0.5001" style="stop-color:#E8EBF4"/>
		<stop  offset="0.5003" style="stop-color:#DDE5F4"/>
		<stop  offset="0.5005" style="stop-color:#D6E2F4"/>
		<stop  offset="0.501" style="stop-color:#D4E1F4"/>
		<stop  offset="0.7062" style="stop-color:#D4E1F4"/>
		<stop  offset="0.74" style="stop-color:#D4E1F4"/>
		<stop  offset="0.741" style="stop-color:#FFF5F4"/>
		<stop  offset="0.8346" style="stop-color:#FFF5F4"/>
		<stop  offset="0.85" style="stop-color:#FFF5F4"/>
		<stop  offset="0.851" style="stop-color:#D4E1F4"/>
	</linearGradient>
	<ellipse style="fill:url(#SVGID_1_);" cx="239.213" cy="251.794" rx="230.82" ry="243.41"/>
	<path style="fill:#FFFFFF;" d="M251.803,495.215c2.168,0,4.308-0.107,6.462-0.164C133.629,491.615,33.574,384.07,33.574,251.805
		S133.629,11.996,258.265,8.559c-2.154-0.057-4.295-0.164-6.462-0.164c-134.432,0-243.41,108.978-243.41,243.41
		S117.372,495.215,251.803,495.215z"/>
	<circle style="fill:#A4C2F7;" cx="251.803" cy="250.787" r="25.18"/>
	<g>
		<path style="fill:#428DFF;" d="M251.803,503.607C112.736,503.607,0,390.87,0,251.803S112.736,0,251.803,0
			s251.803,112.736,251.803,251.803C503.449,390.805,390.805,503.449,251.803,503.607z M251.803,16.787
			c-129.796,0-235.016,105.22-235.016,235.016S122.007,486.82,251.803,486.82S486.82,381.599,486.82,251.803
			C486.674,122.068,381.539,16.932,251.803,16.787z"/>
		<path style="fill:#428DFF;" d="M226.623,259.18h-67.148c-4.636,0-8.393-3.758-8.393-8.393c0-4.636,3.758-8.393,8.393-8.393h67.148
			c4.636,0,8.393,3.758,8.393,8.393C235.016,255.422,231.258,259.18,226.623,259.18z"/>
		<path style="fill:#428DFF;" d="M251.803,234c-2.226,0.001-4.362-0.884-5.936-2.458c-1.574-1.574-2.458-3.709-2.458-5.936v-92.328
			c0-4.636,3.758-8.393,8.393-8.393s8.393,3.758,8.393,8.393v92.328c0.001,2.226-0.884,4.361-2.458,5.936
			C256.165,233.116,254.03,234.001,251.803,234L251.803,234z"/>
		<path style="fill:#428DFF;" d="M251.803,284.361c-18.542,0-33.574-15.031-33.574-33.574c0-18.542,15.031-33.574,33.574-33.574
			s33.574,15.031,33.574,33.574C285.357,269.321,270.337,284.341,251.803,284.361z M251.803,234
			c-9.271,0-16.787,7.516-16.787,16.787c0,9.271,7.516,16.787,16.787,16.787c9.271,0,16.787-7.516,16.787-16.787
			C268.58,241.52,261.07,234.011,251.803,234L251.803,234z"/>
		<path style="fill:#428DFF;" d="M251.803,82.918c-2.226,0.001-4.362-0.884-5.936-2.458c-1.574-1.574-2.458-3.709-2.458-5.936
			v-8.393c0-4.636,3.758-8.393,8.393-8.393s8.393,3.758,8.393,8.393v8.393c0.001,2.226-0.884,4.361-2.458,5.936
			C256.165,82.035,254.03,82.919,251.803,82.918z"/>
		<path style="fill:#428DFF;" d="M251.803,443.836c-2.226,0.001-4.362-0.884-5.936-2.458c-1.574-1.574-2.458-3.709-2.458-5.936
			v-8.393c0-4.636,3.758-8.393,8.393-8.393s8.393,3.758,8.393,8.393v8.393c0.001,2.226-0.884,4.361-2.458,5.936
			C256.165,442.953,254.03,443.837,251.803,443.836L251.803,443.836z"/>
		<path style="fill:#428DFF;" d="M436.459,259.18h-8.393c-4.636,0-8.393-3.758-8.393-8.393c0-4.636,3.758-8.393,8.393-8.393h8.393
			c4.636,0,8.393,3.758,8.393,8.393C444.852,255.422,441.095,259.18,436.459,259.18z"/>
		<path style="fill:#428DFF;" d="M75.541,259.18h-8.393c-4.636,0-8.393-3.758-8.393-8.393c0-4.636,3.758-8.393,8.393-8.393h8.393
			c4.636,0,8.393,3.758,8.393,8.393C83.934,255.422,80.177,259.18,75.541,259.18z"/>
		<path style="fill:#428DFF;" d="M376.439,134.541c-3.394-0.001-6.454-2.046-7.753-5.182c-1.299-3.136-0.581-6.745,1.819-9.146
			l5.934-5.934c2.12-2.12,5.21-2.948,8.107-2.172c2.896,0.776,5.158,3.038,5.934,5.934c0.776,2.896-0.052,5.986-2.172,8.107
			l-5.934,5.934C380.801,133.659,378.665,134.544,376.439,134.541z"/>
		<path style="fill:#428DFF;" d="M121.234,389.754c-3.394-0.001-6.454-2.046-7.753-5.182s-0.581-6.745,1.819-9.146l5.934-5.934
			c3.277-3.277,8.591-3.277,11.869,0c3.277,3.277,3.277,8.591,0,11.869l-5.934,5.934
			C125.596,388.872,123.46,389.757,121.234,389.754L121.234,389.754z"/>
		<path style="fill:#428DFF;" d="M382.373,389.754c-2.226,0.003-4.362-0.883-5.934-2.459l-5.934-5.934
			c-3.277-3.277-3.277-8.591,0-11.869c3.277-3.277,8.591-3.277,11.869,0l5.934,5.934c2.4,2.4,3.117,6.01,1.819,9.146
			C388.827,387.708,385.768,389.753,382.373,389.754L382.373,389.754z"/>
		<path style="fill:#428DFF;" d="M127.168,134.541c-2.226,0.003-4.362-0.883-5.934-2.459l-5.934-5.934
			c-3.277-3.277-3.277-8.591,0-11.869c3.277-3.277,8.591-3.277,11.869,0l5.934,5.934c2.4,2.4,3.118,6.01,1.819,9.146
			C133.623,132.495,130.563,134.54,127.168,134.541L127.168,134.541z"/>
	</g>
</g>
<g>
</g>
<g>
</g>
<g>
</g>
<g>
</g>
<g>
</g>
<g>
</g>
<g>
</g>
<g>
</g>
<g>
</g>
<g>
</g>
<g>
</g>
<g>
</g>
<g>
</g>
<g>
</g>
<g>
</g>
</svg>
