<?xml version="1.0" encoding="iso-8859-1"?>
<!-- Generator: Adobe Illustrator 19.0.0, SVG Export Plug-In . SVG Version: 6.00 Build 0)  -->
<svg version="1.1" id="Capa_1" xmlns="http://www.w3.org/2000/svg" xmlns:xlink="http://www.w3.org/1999/xlink" x="0px" y="0px"
	 viewBox="0 0 496.238 496.238" style="enable-background:new 0 0 496.238 496.238;" xml:space="preserve">
<g>
	<g>
		<path style="fill:#A4C2F7;" d="M469.253,26.3c11.396,11.396,17.799,26.853,17.799,42.97s-6.402,31.574-17.799,42.97l-85.94-85.94
			c11.396-11.396,26.853-17.799,42.97-17.799S457.857,14.904,469.253,26.3L469.253,26.3z"/>
		<path style="fill:#A4C2F7;" d="M26.984,26.3C15.588,37.696,9.185,53.153,9.185,69.27s6.402,31.574,17.799,42.97l85.94-85.94
			C101.528,14.904,86.071,8.501,69.954,8.501S38.381,14.904,26.984,26.3z"/>
		<circle style="fill:#A4C2F7;" cx="248.119" cy="257.295" r="221.867"/>
	</g>
	
		<linearGradient id="SVGID_1_" gradientUnits="userSpaceOnUse" x1="-56.628" y1="644.2674" x2="-55.8989" y2="643.5804" gradientTransform="matrix(418.1334 0 0 -443.7334 23761.1992 285988.0938)">
		<stop  offset="0" style="stop-color:#D4E1F4"/>
		<stop  offset="0.1717" style="stop-color:#D4E1F4"/>
		<stop  offset="0.2" style="stop-color:#D4E1F4"/>
		<stop  offset="0.2001" style="stop-color:#DAE4F4"/>
		<stop  offset="0.2007" style="stop-color:#EBEBF4"/>
		<stop  offset="0.2014" style="stop-color:#F6F1F4"/>
		<stop  offset="0.2023" style="stop-color:#FDF4F4"/>
		<stop  offset="0.205" style="stop-color:#FFF5F4"/>
		<stop  offset="0.2522" style="stop-color:#FFF5F4"/>
		<stop  offset="0.26" style="stop-color:#FFF5F4"/>
		<stop  offset="0.26" style="stop-color:#D4E1F4"/>
		<stop  offset="0.3974" style="stop-color:#D4E1F4"/>
		<stop  offset="0.42" style="stop-color:#D4E1F4"/>
		<stop  offset="0.4201" style="stop-color:#DAE4F4"/>
		<stop  offset="0.4207" style="stop-color:#EBEBF4"/>
		<stop  offset="0.4214" style="stop-color:#F6F1F4"/>
		<stop  offset="0.4223" style="stop-color:#FDF4F4"/>
		<stop  offset="0.425" style="stop-color:#FFF5F4"/>
		<stop  offset="0.4894" style="stop-color:#FFF5F4"/>
		<stop  offset="0.5" style="stop-color:#FFF5F4"/>
		<stop  offset="0.5" style="stop-color:#F9F2F4"/>
		<stop  offset="0.5001" style="stop-color:#E8EBF4"/>
		<stop  offset="0.5003" style="stop-color:#DDE5F4"/>
		<stop  offset="0.5005" style="stop-color:#D6E2F4"/>
		<stop  offset="0.501" style="stop-color:#D4E1F4"/>
		<stop  offset="0.7062" style="stop-color:#D4E1F4"/>
		<stop  offset="0.74" style="stop-color:#D4E1F4"/>
		<stop  offset="0.741" style="stop-color:#FFF5F4"/>
		<stop  offset="0.8346" style="stop-color:#FFF5F4"/>
		<stop  offset="0.85" style="stop-color:#FFF5F4"/>
		<stop  offset="0.851" style="stop-color:#D4E1F4"/>
	</linearGradient>
	<ellipse style="fill:url(#SVGID_1_);" cx="235.319" cy="257.295" rx="209.067" ry="221.867"/>
	<circle style="fill:#A4C2F7;" cx="248.119" cy="257.295" r="25.6"/>
	<path style="fill:#FFFFFF;" d="M248.119,479.173c2.21,0,4.395-0.102,6.59-0.167c-112.584-3.494-202.857-101.377-202.857-221.7
		S142.125,39.1,254.709,35.606c-2.195-0.065-4.38-0.167-6.59-0.167c-122.534,0-221.867,99.333-221.867,221.867
		S125.585,479.173,248.119,479.173z"/>
	<g>
		<path style="fill:#428DFF;" d="M341.985,264.804h-68.267c-4.713,0-8.533-3.82-8.533-8.533s3.82-8.533,8.533-8.533h68.267
			c4.713,0,8.533,3.821,8.533,8.533S346.698,264.804,341.985,264.804z"/>
		<path style="fill:#428DFF;" d="M248.119,240.238c-2.263,0.001-4.434-0.898-6.035-2.499c-1.6-1.6-2.499-3.771-2.499-6.035v-93.867
			c0-4.713,3.821-8.533,8.533-8.533s8.533,3.82,8.533,8.533v93.867c0.001,2.263-0.898,4.434-2.499,6.035
			C252.553,239.34,250.382,240.238,248.119,240.238z"/>
		<path style="fill:#428DFF;" d="M111.585,496.238c-3.451-0.001-6.562-2.08-7.882-5.268c-1.32-3.188-0.591-6.858,1.849-9.298
			l33.558-33.558c2.156-2.155,5.297-2.997,8.242-2.208c2.944,0.789,5.244,3.089,6.033,6.033c0.789,2.944-0.053,6.086-2.208,8.242
			l-33.559,33.558C116.02,495.341,113.849,496.24,111.585,496.238L111.585,496.238z"/>
		<path style="fill:#428DFF;" d="M384.652,496.238c-2.264,0.003-4.435-0.897-6.033-2.5l-33.817-33.817
			c-3.332-3.332-3.332-8.735,0-12.067c3.332-3.332,8.735-3.332,12.067,0l33.816,33.817c2.44,2.44,3.169,6.11,1.849,9.298
			S388.103,496.237,384.652,496.238L384.652,496.238z"/>
		<path style="fill:#428DFF;" d="M469.252,120.771c-2.263-0.001-4.433-0.9-6.033-2.5l-85.938-85.941c-1.601-1.6-2.5-3.77-2.5-6.033
			s0.899-4.434,2.5-6.033c27.082-27.017,70.922-27.017,98.004,0l0,0c27.021,27.082,27.021,70.926,0,98.008
			C473.685,119.871,471.515,120.771,469.252,120.771L469.252,120.771z M395.877,26.788l72.883,72.892
			c14.875-20.781,12.532-49.274-5.538-67.346C445.152,14.261,416.66,11.915,395.877,26.788L395.877,26.788z"/>
		<path style="fill:#428DFF;" d="M402.515,105.538c-3.451-0.001-6.562-2.08-7.882-5.268s-0.591-6.858,1.849-9.298l25.6-25.6
			c2.152-2.171,5.302-3.024,8.256-2.237c2.954,0.787,5.261,3.094,6.048,6.048c0.787,2.954-0.067,6.103-2.238,8.256l-25.6,25.6
			C406.95,104.641,404.778,105.541,402.515,105.538L402.515,105.538z"/>
		<path style="fill:#428DFF;" d="M26.985,120.771c-2.263-0.001-4.433-0.9-6.033-2.5c-27.021-27.082-27.021-70.926,0-98.008l0,0
			c27.082-27.017,70.922-27.017,98.004,0c1.601,1.6,2.5,3.77,2.5,6.033s-0.899,4.434-2.5,6.033l-85.938,85.942
			C31.419,119.871,29.249,120.771,26.985,120.771z M33.019,32.329c-18.039,18.088-20.382,46.557-5.542,67.35l72.883-72.892
			C79.57,11.95,51.104,14.292,33.019,32.329L33.019,32.329z"/>
		<path style="fill:#428DFF;" d="M93.723,105.538c-2.264,0.003-4.435-0.897-6.033-2.5l-25.6-25.6
			c-3.296-3.338-3.279-8.711,0.038-12.029c3.317-3.317,8.69-3.334,12.029-0.038l25.6,25.6c2.44,2.44,3.169,6.11,1.849,9.298
			C100.285,103.458,97.174,105.537,93.723,105.538L93.723,105.538z"/>
		<path style="fill:#428DFF;" d="M248.119,487.704c-127.246,0-230.4-103.154-230.4-230.4s103.154-230.4,230.4-230.4
			s230.4,103.154,230.4,230.4C478.374,384.491,375.305,487.56,248.119,487.704z M248.119,43.971
			c-117.821,0-213.333,95.513-213.333,213.333s95.513,213.333,213.333,213.333s213.333-95.513,213.333-213.333
			C461.32,139.539,365.885,44.104,248.119,43.971z"/>
		<path style="fill:#428DFF;" d="M248.119,291.438c-18.851,0-34.133-15.282-34.133-34.133c0-18.851,15.282-34.133,34.133-34.133
			s34.133,15.282,34.133,34.133C282.232,276.147,266.962,291.418,248.119,291.438L248.119,291.438z M248.119,240.238
			c-9.426,0-17.067,7.641-17.067,17.067c0,9.426,7.641,17.067,17.067,17.067s17.067-7.641,17.067-17.067
			C265.175,247.883,257.54,240.249,248.119,240.238L248.119,240.238z"/>
		<path style="fill:#428DFF;" d="M248.119,85.604c-2.263,0.001-4.434-0.898-6.035-2.499c-1.6-1.6-2.499-3.771-2.499-6.035v-8.533
			c0-4.713,3.821-8.533,8.533-8.533s8.533,3.82,8.533,8.533v8.533c0.001,2.263-0.898,4.434-2.499,6.035
			C252.553,84.706,250.382,85.605,248.119,85.604L248.119,85.604z"/>
		<path style="fill:#428DFF;" d="M248.119,452.538c-2.263,0.001-4.434-0.898-6.035-2.499c-1.6-1.6-2.499-3.771-2.499-6.035v-8.533
			c0-4.713,3.821-8.533,8.533-8.533s8.533,3.821,8.533,8.533v8.533c0.001,2.263-0.898,4.434-2.499,6.035
			C252.553,451.64,250.382,452.538,248.119,452.538L248.119,452.538z"/>
		<path style="fill:#428DFF;" d="M435.852,264.804h-8.533c-4.713,0-8.533-3.82-8.533-8.533s3.821-8.533,8.533-8.533h8.533
			c4.713,0,8.533,3.821,8.533,8.533S440.565,264.804,435.852,264.804z"/>
		<path style="fill:#428DFF;" d="M68.919,264.804h-8.533c-4.713,0-8.533-3.82-8.533-8.533s3.821-8.533,8.533-8.533h8.533
			c4.713,0,8.533,3.821,8.533,8.533S73.632,264.804,68.919,264.804z"/>
		<path style="fill:#428DFF;" d="M374.831,138.088c-3.451-0.001-6.562-2.08-7.882-5.268c-1.32-3.188-0.591-6.858,1.849-9.298
			l6.033-6.033c2.155-2.156,5.297-2.997,8.242-2.208s5.244,3.089,6.033,6.033c0.789,2.944-0.053,6.086-2.208,8.242l-6.033,6.033
			C379.266,137.191,377.095,138.091,374.831,138.088z"/>
		<path style="fill:#428DFF;" d="M115.373,397.554c-3.451-0.001-6.562-2.08-7.882-5.268c-1.32-3.188-0.591-6.858,1.849-9.298
			l6.033-6.033c2.156-2.156,5.297-2.997,8.242-2.208s5.244,3.089,6.033,6.033s-0.053,6.086-2.208,8.242l-6.033,6.033
			C119.808,396.658,117.637,397.557,115.373,397.554z"/>
		<path style="fill:#428DFF;" d="M380.865,397.554c-2.264,0.003-4.435-0.897-6.033-2.5l-6.033-6.033
			c-2.156-2.155-2.997-5.297-2.208-8.242s3.089-5.244,6.033-6.033c2.944-0.789,6.086,0.053,8.242,2.208l6.033,6.033
			c2.44,2.44,3.169,6.11,1.849,9.298C387.427,395.474,384.316,397.553,380.865,397.554L380.865,397.554z"/>
		<path style="fill:#428DFF;" d="M121.406,138.088c-2.264,0.003-4.435-0.897-6.033-2.5l-6.033-6.033
			c-3.332-3.332-3.332-8.735,0-12.067c3.332-3.332,8.735-3.332,12.067,0l6.033,6.033c2.44,2.44,3.169,6.11,1.849,9.298
			C127.968,136.007,124.858,138.087,121.406,138.088L121.406,138.088z"/>
	</g>
</g>
<g>
</g>
<g>
</g>
<g>
</g>
<g>
</g>
<g>
</g>
<g>
</g>
<g>
</g>
<g>
</g>
<g>
</g>
<g>
</g>
<g>
</g>
<g>
</g>
<g>
</g>
<g>
</g>
<g>
</g>
</svg>
