<?xml version="1.0" encoding="iso-8859-1"?>
<!-- Generator: Adobe Illustrator 19.0.0, SVG Export Plug-In . SVG Version: 6.00 Build 0)  -->
<svg version="1.1" id="Capa_1" xmlns="http://www.w3.org/2000/svg" xmlns:xlink="http://www.w3.org/1999/xlink" x="0px" y="0px"
	 viewBox="0 0 496.238 496.238" style="enable-background:new 0 0 496.238 496.238;" xml:space="preserve">
<g>
	<g>
		<path style="fill:#A4C2F7;" d="M469.253,26.3c11.396,11.396,17.799,26.853,17.799,42.97s-6.402,31.574-17.799,42.97l-85.94-85.94
			c11.396-11.396,26.853-17.799,42.97-17.799S457.857,14.904,469.253,26.3L469.253,26.3z"/>
		<path style="fill:#A4C2F7;" d="M26.984,26.3C15.588,37.696,9.185,53.153,9.185,69.27s6.402,31.574,17.799,42.97l85.94-85.94
			C101.528,14.904,86.071,8.501,69.954,8.501S38.381,14.904,26.984,26.3z"/>
		<circle style="fill:#A4C2F7;" cx="248.119" cy="257.295" r="221.867"/>
	</g>
	
		<linearGradient id="SVGID_1_" gradientUnits="userSpaceOnUse" x1="-56.6043" y1="644.2211" x2="-55.8972" y2="643.514" gradientTransform="matrix(375.4667 0 0 -375.4667 21368.3984 242008.1094)">
		<stop  offset="0" style="stop-color:#D4E1F4"/>
		<stop  offset="0.1717" style="stop-color:#D4E1F4"/>
		<stop  offset="0.2" style="stop-color:#D4E1F4"/>
		<stop  offset="0.2001" style="stop-color:#DAE4F4"/>
		<stop  offset="0.2007" style="stop-color:#EBEBF4"/>
		<stop  offset="0.2014" style="stop-color:#F6F1F4"/>
		<stop  offset="0.2023" style="stop-color:#FDF4F4"/>
		<stop  offset="0.205" style="stop-color:#FFF5F4"/>
		<stop  offset="0.2522" style="stop-color:#FFF5F4"/>
		<stop  offset="0.26" style="stop-color:#FFF5F4"/>
		<stop  offset="0.26" style="stop-color:#D4E1F4"/>
		<stop  offset="0.3974" style="stop-color:#D4E1F4"/>
		<stop  offset="0.42" style="stop-color:#D4E1F4"/>
		<stop  offset="0.4201" style="stop-color:#DAE4F4"/>
		<stop  offset="0.4207" style="stop-color:#EBEBF4"/>
		<stop  offset="0.4214" style="stop-color:#F6F1F4"/>
		<stop  offset="0.4223" style="stop-color:#FDF4F4"/>
		<stop  offset="0.425" style="stop-color:#FFF5F4"/>
		<stop  offset="0.4894" style="stop-color:#FFF5F4"/>
		<stop  offset="0.5" style="stop-color:#FFF5F4"/>
		<stop  offset="0.5" style="stop-color:#F9F2F4"/>
		<stop  offset="0.5001" style="stop-color:#E8EBF4"/>
		<stop  offset="0.5003" style="stop-color:#DDE5F4"/>
		<stop  offset="0.5005" style="stop-color:#D6E2F4"/>
		<stop  offset="0.501" style="stop-color:#D4E1F4"/>
		<stop  offset="0.7062" style="stop-color:#D4E1F4"/>
		<stop  offset="0.74" style="stop-color:#D4E1F4"/>
		<stop  offset="0.741" style="stop-color:#FFF5F4"/>
		<stop  offset="0.8346" style="stop-color:#FFF5F4"/>
		<stop  offset="0.85" style="stop-color:#FFF5F4"/>
		<stop  offset="0.851" style="stop-color:#D4E1F4"/>
	</linearGradient>
	<circle style="fill:url(#SVGID_1_);" cx="248.119" cy="257.295" r="187.733"/>
	<circle style="fill:#A4C2F7;" cx="248.119" cy="257.295" r="25.6"/>
	<g>
		<path style="fill:#428DFF;" d="M341.985,265.838h-68.267c-4.713,0-8.533-3.82-8.533-8.533s3.82-8.533,8.533-8.533h68.267
			c4.713,0,8.533,3.821,8.533,8.533S346.698,265.838,341.985,265.838z"/>
		<path style="fill:#428DFF;" d="M248.119,240.238c-2.263,0.001-4.434-0.898-6.035-2.499c-1.6-1.6-2.499-3.771-2.499-6.035v-93.867
			c0-4.713,3.821-8.533,8.533-8.533s8.533,3.82,8.533,8.533v93.867c0.001,2.263-0.898,4.434-2.499,6.035
			C252.553,239.34,250.382,240.238,248.119,240.238z"/>
		<path style="fill:#428DFF;" d="M111.585,496.238c-3.451-0.001-6.562-2.08-7.882-5.268c-1.32-3.188-0.591-6.858,1.849-9.298
			l33.558-33.558c2.156-2.155,5.297-2.997,8.242-2.208c2.944,0.789,5.244,3.089,6.033,6.033c0.789,2.944-0.053,6.086-2.208,8.242
			l-33.559,33.558C116.02,495.341,113.849,496.24,111.585,496.238L111.585,496.238z"/>
		<path style="fill:#428DFF;" d="M384.652,496.238c-2.264,0.003-4.435-0.897-6.033-2.5l-33.817-33.817
			c-3.332-3.332-3.332-8.735,0-12.067c3.332-3.332,8.735-3.332,12.067,0l33.816,33.817c2.44,2.44,3.169,6.11,1.849,9.298
			S388.103,496.237,384.652,496.238L384.652,496.238z"/>
		<path style="fill:#428DFF;" d="M469.252,120.771c-2.263-0.001-4.433-0.9-6.033-2.5l-85.938-85.941c-1.601-1.6-2.5-3.77-2.5-6.033
			s0.899-4.434,2.5-6.033c27.082-27.017,70.922-27.017,98.004,0l0,0c27.021,27.082,27.021,70.926,0,98.008
			C473.685,119.871,471.515,120.771,469.252,120.771L469.252,120.771z M395.877,26.788l72.883,72.892
			c14.875-20.781,12.532-49.274-5.538-67.346C445.152,14.261,416.66,11.915,395.877,26.788L395.877,26.788z"/>
		<path style="fill:#428DFF;" d="M402.515,105.538c-3.451-0.001-6.562-2.08-7.882-5.268s-0.591-6.858,1.849-9.298l25.6-25.6
			c2.152-2.171,5.302-3.024,8.256-2.237c2.954,0.787,5.261,3.094,6.048,6.048c0.787,2.954-0.067,6.103-2.238,8.256l-25.6,25.6
			C406.95,104.641,404.778,105.541,402.515,105.538L402.515,105.538z"/>
		<path style="fill:#428DFF;" d="M26.985,120.771c-2.263-0.001-4.433-0.9-6.033-2.5c-27.021-27.082-27.021-70.926,0-98.008l0,0
			c27.082-27.017,70.922-27.017,98.004,0c1.601,1.6,2.5,3.77,2.5,6.033s-0.899,4.434-2.5,6.033l-85.938,85.942
			C31.419,119.871,29.249,120.771,26.985,120.771z M33.019,32.329c-18.039,18.088-20.382,46.557-5.542,67.35l72.883-72.892
			C79.57,11.95,51.104,14.292,33.019,32.329L33.019,32.329z"/>
		<path style="fill:#428DFF;" d="M93.723,105.538c-2.264,0.003-4.435-0.897-6.033-2.5l-25.6-25.6
			c-3.296-3.338-3.279-8.711,0.038-12.029c3.317-3.317,8.69-3.334,12.029-0.038l25.6,25.6c2.44,2.44,3.169,6.11,1.849,9.298
			C100.285,103.458,97.174,105.537,93.723,105.538L93.723,105.538z"/>
		<path style="fill:#428DFF;" d="M248.119,487.704c-127.246,0-230.4-103.154-230.4-230.4s103.154-230.4,230.4-230.4
			s230.4,103.154,230.4,230.4C478.374,384.491,375.305,487.56,248.119,487.704z M248.119,43.971
			c-117.821,0-213.333,95.513-213.333,213.333s95.513,213.333,213.333,213.333s213.333-95.513,213.333-213.333
			C461.32,139.539,365.885,44.104,248.119,43.971z"/>
		<path style="fill:#428DFF;" d="M248.119,291.438c-18.851,0-34.133-15.282-34.133-34.133c0-18.851,15.282-34.133,34.133-34.133
			s34.133,15.282,34.133,34.133C282.232,276.147,266.962,291.418,248.119,291.438L248.119,291.438z M248.119,240.238
			c-9.426,0-17.067,7.641-17.067,17.067c0,9.426,7.641,17.067,17.067,17.067s17.067-7.641,17.067-17.067
			C265.175,247.883,257.54,240.249,248.119,240.238L248.119,240.238z"/>
		<path style="fill:#428DFF;" d="M248.119,453.571c-108.395,0-196.267-87.872-196.267-196.267S139.724,61.038,248.119,61.038
			s196.267,87.872,196.267,196.267C444.264,365.649,356.463,453.449,248.119,453.571z M248.119,78.104
			c-98.969,0-179.2,80.231-179.2,179.2s80.231,179.2,179.2,179.2s179.2-80.231,179.2-179.2
			C427.206,158.382,347.042,78.217,248.119,78.104z"/>
		<path style="fill:#428DFF;" d="M248.119,95.171c-2.263,0.001-4.434-0.898-6.035-2.499c-1.6-1.6-2.499-3.771-2.499-6.035V69.571
			c0-4.713,3.821-8.533,8.533-8.533s8.533,3.821,8.533,8.533v17.067c0.001,2.263-0.898,4.434-2.499,6.035
			C252.553,94.273,250.382,95.172,248.119,95.171L248.119,95.171z"/>
		<path style="fill:#428DFF;" d="M248.119,453.571c-2.263,0.001-4.434-0.898-6.035-2.499c-1.6-1.6-2.499-3.771-2.499-6.035v-17.067
			c0-4.713,3.821-8.533,8.533-8.533s8.533,3.821,8.533,8.533v17.067c0.001,2.263-0.898,4.434-2.499,6.035
			C252.553,452.673,250.382,453.572,248.119,453.571L248.119,453.571z"/>
		<path style="fill:#428DFF;" d="M435.852,265.838h-17.067c-4.713,0-8.533-3.82-8.533-8.533s3.82-8.533,8.533-8.533h17.067
			c4.713,0,8.533,3.821,8.533,8.533S440.565,265.838,435.852,265.838z"/>
		<path style="fill:#428DFF;" d="M77.452,265.838H60.385c-4.713,0-8.533-3.82-8.533-8.533s3.821-8.533,8.533-8.533h17.067
			c4.713,0,8.533,3.821,8.533,8.533S82.165,265.838,77.452,265.838z"/>
		<path style="fill:#428DFF;" d="M162.794,118.038c-3.052,0.002-5.872-1.625-7.4-4.267l-8.533-14.783
			c-1.526-2.641-1.527-5.896-0.002-8.537c1.525-2.642,4.344-4.269,7.394-4.268c3.05,0.001,5.868,1.629,7.392,4.272l8.533,14.783
			c1.524,2.639,1.525,5.891,0.002,8.531C168.657,116.408,165.842,118.036,162.794,118.038z"/>
		<path style="fill:#428DFF;" d="M341.994,428.421c-3.052,0.002-5.872-1.625-7.4-4.267l-8.533-14.783
			c-1.526-2.641-1.527-5.896-0.002-8.537c1.525-2.642,4.344-4.269,7.394-4.268s5.868,1.629,7.392,4.272l8.533,14.783
			c1.524,2.639,1.525,5.891,0.002,8.531C347.857,426.792,345.042,428.419,341.994,428.421z"/>
		<path style="fill:#428DFF;" d="M100.31,180.504c-1.495,0-2.964-0.394-4.258-1.142l-14.783-8.533
			c-2.642-1.523-4.271-4.341-4.272-7.392s1.626-5.869,4.268-7.394c2.642-1.525,5.896-1.524,8.537,0.002l14.783,8.533
			c3.348,1.931,4.98,5.871,3.978,9.604C107.561,177.916,104.175,180.51,100.31,180.504L100.31,180.504z"/>
		<path style="fill:#428DFF;" d="M410.694,359.704c-1.495,0-2.964-0.394-4.258-1.142l-14.783-8.533
			c-4.08-2.358-5.477-7.575-3.121-11.656c2.356-4.081,7.573-5.481,11.655-3.127l14.783,8.533c3.348,1.931,4.98,5.871,3.978,9.604
			C417.944,357.116,414.559,359.71,410.694,359.704L410.694,359.704z"/>
		<path style="fill:#428DFF;" d="M85.544,359.704c-3.865,0.005-7.251-2.588-8.253-6.321c-1.002-3.733,0.63-7.673,3.978-9.604
			l14.783-8.533c4.082-2.353,9.299-0.954,11.655,3.127c2.356,4.081,0.958,9.298-3.121,11.656l-14.783,8.533
			C88.507,359.311,87.039,359.705,85.544,359.704z"/>
		<path style="fill:#428DFF;" d="M395.927,180.504c-3.865,0.005-7.251-2.588-8.253-6.321c-1.002-3.733,0.63-7.673,3.978-9.604
			l14.783-8.533c2.641-1.526,5.896-1.527,8.537-0.002s4.269,4.344,4.268,7.394c-0.001,3.05-1.629,5.868-4.272,7.392l-14.783,8.533
			C398.891,180.111,397.422,180.505,395.927,180.504L395.927,180.504z"/>
		<path style="fill:#428DFF;" d="M154.244,428.421c-3.048-0.002-5.863-1.629-7.386-4.269c-1.523-2.64-1.522-5.892,0.002-8.531
			l8.533-14.783c2.358-4.08,7.575-5.477,11.656-3.121c4.081,2.356,5.481,7.573,3.127,11.655l-8.533,14.783
			C160.116,426.796,157.295,428.423,154.244,428.421z"/>
		<path style="fill:#428DFF;" d="M333.444,118.038c-3.048-0.002-5.863-1.629-7.386-4.269c-1.523-2.64-1.522-5.892,0.002-8.531
			l8.533-14.783c1.523-2.642,4.341-4.271,7.392-4.272s5.869,1.626,7.394,4.268c1.525,2.642,1.524,5.896-0.002,8.537l-8.533,14.783
			C339.316,116.413,336.495,118.039,333.444,118.038z"/>
	</g>
</g>
<g>
</g>
<g>
</g>
<g>
</g>
<g>
</g>
<g>
</g>
<g>
</g>
<g>
</g>
<g>
</g>
<g>
</g>
<g>
</g>
<g>
</g>
<g>
</g>
<g>
</g>
<g>
</g>
<g>
</g>
</svg>
