<?xml version="1.0" encoding="iso-8859-1"?>
<!-- Generator: Adobe Illustrator 19.0.0, SVG Export Plug-In . SVG Version: 6.00 Build 0)  -->
<svg version="1.1" id="Capa_1" xmlns="http://www.w3.org/2000/svg" xmlns:xlink="http://www.w3.org/1999/xlink" x="0px" y="0px"
	 viewBox="0 0 503.607 503.607" style="enable-background:new 0 0 503.607 503.607;" xml:space="preserve">
<g>
	<circle style="fill:#A4C2F7;" cx="251.803" cy="251.794" r="243.41"/>
	
		<linearGradient id="SVGID_1_" gradientUnits="userSpaceOnUse" x1="-52.9534" y1="651.5421" x2="-52.2268" y2="650.8531" gradientTransform="matrix(461.6393 0 0 -486.8196 24517.0957 317267.8125)">
		<stop  offset="0" style="stop-color:#D4E1F4"/>
		<stop  offset="0.1717" style="stop-color:#D4E1F4"/>
		<stop  offset="0.2" style="stop-color:#D4E1F4"/>
		<stop  offset="0.2001" style="stop-color:#DAE4F4"/>
		<stop  offset="0.2007" style="stop-color:#EBEBF4"/>
		<stop  offset="0.2014" style="stop-color:#F6F1F4"/>
		<stop  offset="0.2023" style="stop-color:#FDF4F4"/>
		<stop  offset="0.205" style="stop-color:#FFF5F4"/>
		<stop  offset="0.2522" style="stop-color:#FFF5F4"/>
		<stop  offset="0.26" style="stop-color:#FFF5F4"/>
		<stop  offset="0.26" style="stop-color:#D4E1F4"/>
		<stop  offset="0.3974" style="stop-color:#D4E1F4"/>
		<stop  offset="0.42" style="stop-color:#D4E1F4"/>
		<stop  offset="0.4201" style="stop-color:#DAE4F4"/>
		<stop  offset="0.4207" style="stop-color:#EBEBF4"/>
		<stop  offset="0.4214" style="stop-color:#F6F1F4"/>
		<stop  offset="0.4223" style="stop-color:#FDF4F4"/>
		<stop  offset="0.425" style="stop-color:#FFF5F4"/>
		<stop  offset="0.4894" style="stop-color:#FFF5F4"/>
		<stop  offset="0.5" style="stop-color:#FFF5F4"/>
		<stop  offset="0.5" style="stop-color:#F9F2F4"/>
		<stop  offset="0.5001" style="stop-color:#E8EBF4"/>
		<stop  offset="0.5003" style="stop-color:#DDE5F4"/>
		<stop  offset="0.5005" style="stop-color:#D6E2F4"/>
		<stop  offset="0.501" style="stop-color:#D4E1F4"/>
		<stop  offset="0.7062" style="stop-color:#D4E1F4"/>
		<stop  offset="0.74" style="stop-color:#D4E1F4"/>
		<stop  offset="0.741" style="stop-color:#FFF5F4"/>
		<stop  offset="0.8346" style="stop-color:#FFF5F4"/>
		<stop  offset="0.85" style="stop-color:#FFF5F4"/>
		<stop  offset="0.851" style="stop-color:#D4E1F4"/>
	</linearGradient>
	<ellipse style="fill:url(#SVGID_1_);" cx="239.213" cy="251.794" rx="230.82" ry="243.41"/>
	<path style="fill:#FFFFFF;" d="M251.803,494.197c2.168,0,4.308-0.109,6.462-0.164C133.629,490.596,33.574,383.049,33.574,250.787
		c0-132.264,100.055-239.811,224.692-243.248c-2.154-0.055-4.295-0.162-6.462-0.162c-134.432,0-243.41,108.978-243.41,243.41
		S117.372,494.197,251.803,494.197L251.803,494.197z"/>
	<g>
		<path style="fill:#428DFF;" d="M251.803,503.607C112.736,503.607,0,390.87,0,251.803S112.736,0,251.803,0
			s251.803,112.736,251.803,251.803C503.449,390.805,390.805,503.449,251.803,503.607z M251.803,16.787
			c-129.796,0-235.016,105.22-235.016,235.016S122.007,486.82,251.803,486.82S486.82,381.599,486.82,251.803
			C486.674,122.068,381.539,16.932,251.803,16.787z"/>
		<path style="fill:#428DFF;" d="M251.803,268.59c-2.226,0.001-4.362-0.884-5.936-2.458c-1.574-1.574-2.458-3.709-2.458-5.936
			V58.754c0-4.636,3.758-8.393,8.393-8.393s8.393,3.758,8.393,8.393v201.443c0.001,2.226-0.884,4.362-2.458,5.936
			C256.165,267.707,254.03,268.591,251.803,268.59z"/>
		<path style="fill:#428DFF;" d="M251.803,268.59H117.508c-4.636,0-8.393-3.758-8.393-8.393c0-4.636,3.758-8.393,8.393-8.393
			h134.295c4.636,0,8.393,3.758,8.393,8.393C260.197,264.832,256.439,268.59,251.803,268.59z"/>
	</g>
</g>
<g>
</g>
<g>
</g>
<g>
</g>
<g>
</g>
<g>
</g>
<g>
</g>
<g>
</g>
<g>
</g>
<g>
</g>
<g>
</g>
<g>
</g>
<g>
</g>
<g>
</g>
<g>
</g>
<g>
</g>
</svg>
