<?xml version="1.0" encoding="iso-8859-1"?>
<!-- Generator: Adobe Illustrator 19.0.0, SVG Export Plug-In . SVG Version: 6.00 Build 0)  -->
<svg version="1.1" id="Capa_1" xmlns="http://www.w3.org/2000/svg" xmlns:xlink="http://www.w3.org/1999/xlink" x="0px" y="0px"
	 viewBox="0 0 503.607 503.607" style="enable-background:new 0 0 503.607 503.607;" xml:space="preserve">
<g>
	<circle style="fill:#A4C2F7;" cx="251.803" cy="251.794" r="243.41"/>
	
		<linearGradient id="SVGID_1_" gradientUnits="userSpaceOnUse" x1="-52.9534" y1="651.5421" x2="-52.2268" y2="650.8531" gradientTransform="matrix(461.6393 0 0 -486.8196 24517.0957 317267.8125)">
		<stop  offset="0" style="stop-color:#D4E1F4"/>
		<stop  offset="0.1717" style="stop-color:#D4E1F4"/>
		<stop  offset="0.2" style="stop-color:#D4E1F4"/>
		<stop  offset="0.2001" style="stop-color:#DAE4F4"/>
		<stop  offset="0.2007" style="stop-color:#EBEBF4"/>
		<stop  offset="0.2014" style="stop-color:#F6F1F4"/>
		<stop  offset="0.2023" style="stop-color:#FDF4F4"/>
		<stop  offset="0.205" style="stop-color:#FFF5F4"/>
		<stop  offset="0.2522" style="stop-color:#FFF5F4"/>
		<stop  offset="0.26" style="stop-color:#FFF5F4"/>
		<stop  offset="0.26" style="stop-color:#D4E1F4"/>
		<stop  offset="0.3974" style="stop-color:#D4E1F4"/>
		<stop  offset="0.42" style="stop-color:#D4E1F4"/>
		<stop  offset="0.4201" style="stop-color:#DAE4F4"/>
		<stop  offset="0.4207" style="stop-color:#EBEBF4"/>
		<stop  offset="0.4214" style="stop-color:#F6F1F4"/>
		<stop  offset="0.4223" style="stop-color:#FDF4F4"/>
		<stop  offset="0.425" style="stop-color:#FFF5F4"/>
		<stop  offset="0.4894" style="stop-color:#FFF5F4"/>
		<stop  offset="0.5" style="stop-color:#FFF5F4"/>
		<stop  offset="0.5" style="stop-color:#F9F2F4"/>
		<stop  offset="0.5001" style="stop-color:#E8EBF4"/>
		<stop  offset="0.5003" style="stop-color:#DDE5F4"/>
		<stop  offset="0.5005" style="stop-color:#D6E2F4"/>
		<stop  offset="0.501" style="stop-color:#D4E1F4"/>
		<stop  offset="0.7062" style="stop-color:#D4E1F4"/>
		<stop  offset="0.74" style="stop-color:#D4E1F4"/>
		<stop  offset="0.741" style="stop-color:#FFF5F4"/>
		<stop  offset="0.8346" style="stop-color:#FFF5F4"/>
		<stop  offset="0.85" style="stop-color:#FFF5F4"/>
		<stop  offset="0.851" style="stop-color:#D4E1F4"/>
	</linearGradient>
	<ellipse style="fill:url(#SVGID_1_);" cx="239.213" cy="251.794" rx="230.82" ry="243.41"/>
	<circle style="fill:#A4C2F7;" cx="251.803" cy="251.794" r="25.18"/>
	<circle style="fill:#7FACFA;" cx="251.803" cy="360.909" r="58.754"/>
	<ellipse style="fill:#A4C2F7;" cx="239.213" cy="360.909" rx="46.164" ry="58.754"/>
	<path style="fill:#FFFFFF;" d="M251.803,494.197c2.168,0,4.308-0.109,6.462-0.164C133.629,490.596,33.574,383.049,33.574,250.787
		c0-132.264,100.055-239.811,224.692-243.248c-2.154-0.055-4.295-0.162-6.462-0.162c-134.432,0-243.41,108.978-243.41,243.41
		S117.372,494.197,251.803,494.197L251.803,494.197z"/>
	<g>
		<path style="fill:#428DFF;" d="M251.803,503.607C112.736,503.607,0,390.87,0,251.803S112.736,0,251.803,0
			s251.803,112.736,251.803,251.803C503.449,390.805,390.805,503.449,251.803,503.607z M251.803,16.787
			c-129.796,0-235.016,105.22-235.016,235.016S122.007,486.82,251.803,486.82S486.82,381.599,486.82,251.803
			C486.674,122.068,381.539,16.932,251.803,16.787z"/>
		<path style="fill:#428DFF;" d="M251.803,58.754c-2.226,0.001-4.362-0.883-5.936-2.457c-1.574-1.574-2.458-3.71-2.457-5.936V8.393
			c0-4.636,3.758-8.393,8.393-8.393s8.393,3.758,8.393,8.393v41.967c0.001,2.226-0.883,4.362-2.457,5.936
			C256.165,57.871,254.03,58.755,251.803,58.754z"/>
		<path style="fill:#428DFF;" d="M251.803,503.607c-2.226,0.001-4.362-0.883-5.936-2.457c-1.574-1.574-2.458-3.71-2.457-5.936
			v-41.967c0-4.636,3.758-8.393,8.393-8.393s8.393,3.758,8.393,8.393v41.967c0.001,2.226-0.883,4.362-2.457,5.936
			C256.165,502.724,254.03,503.608,251.803,503.607L251.803,503.607z"/>
		<path style="fill:#428DFF;" d="M495.213,260.197h-41.967c-4.636,0-8.393-3.758-8.393-8.393s3.758-8.393,8.393-8.393h41.967
			c4.636,0,8.393,3.758,8.393,8.393S499.849,260.197,495.213,260.197z"/>
		<path style="fill:#428DFF;" d="M50.361,260.197H8.393c-4.636,0-8.393-3.758-8.393-8.393s3.758-8.393,8.393-8.393h41.967
			c4.636,0,8.393,3.758,8.393,8.393S54.996,260.197,50.361,260.197z"/>
		<path style="fill:#428DFF;" d="M406.115,105.885c-3.394-0.001-6.454-2.046-7.753-5.182c-1.299-3.136-0.581-6.745,1.819-9.146
			l17.803-17.803c2.12-2.12,5.21-2.948,8.107-2.172c2.896,0.776,5.158,3.038,5.934,5.934c0.776,2.896-0.052,5.986-2.172,8.107
			l-17.804,17.803C410.477,105.003,408.341,105.888,406.115,105.885z"/>
		<path style="fill:#428DFF;" d="M79.689,432.312c-3.394-0.001-6.454-2.046-7.753-5.182s-0.581-6.745,1.819-9.146l17.803-17.803
			c3.277-3.277,8.591-3.277,11.869,0c3.278,3.278,3.278,8.591,0,11.869l-17.804,17.803
			C84.051,431.429,81.915,432.314,79.689,432.312L79.689,432.312z"/>
		<path style="fill:#428DFF;" d="M423.918,432.312c-2.227,0.003-4.362-0.883-5.934-2.459l-17.803-17.803
			c-3.278-3.277-3.277-8.591,0-11.869c3.277-3.277,8.591-3.277,11.869,0l17.803,17.803c2.4,2.4,3.117,6.01,1.819,9.146
			C430.372,430.266,427.313,432.311,423.918,432.312L423.918,432.312z"/>
		<path style="fill:#428DFF;" d="M97.492,105.885c-2.226,0.002-4.362-0.883-5.934-2.459L73.754,85.623
			c-2.12-2.12-2.948-5.21-2.172-8.107c0.776-2.896,3.038-5.158,5.934-5.934s5.986,0.052,8.107,2.172l17.803,17.803
			c2.4,2.4,3.118,6.01,1.819,9.146S100.886,105.884,97.492,105.885L97.492,105.885z"/>
		<path style="fill:#428DFF;" d="M195.311,49.402c-3.797-0.001-7.119-2.553-8.098-6.221l-6.516-24.32
			c-0.776-2.896,0.052-5.987,2.172-8.107c2.12-2.12,5.21-2.948,8.107-2.172c2.896,0.776,5.158,3.038,5.934,5.935l6.516,24.32
			c0.675,2.522,0.138,5.214-1.452,7.284C200.385,48.19,197.922,49.403,195.311,49.402L195.311,49.402z"/>
		<path style="fill:#428DFF;" d="M314.795,495.311c-3.797,0-7.12-2.553-8.099-6.221l-6.516-24.32
			c-0.776-2.896,0.052-5.986,2.172-8.107c2.12-2.12,5.21-2.948,8.107-2.172c2.896,0.776,5.158,3.038,5.934,5.934l6.516,24.32
			c0.675,2.522,0.138,5.214-1.452,7.284S317.405,495.313,314.795,495.311L314.795,495.311z"/>
		<path style="fill:#428DFF;" d="M462.59,203.713c-4.209-0.006-7.763-3.129-8.31-7.302c-0.547-4.173,2.081-8.107,6.147-9.198
			l24.32-6.516c4.477-1.2,9.079,1.457,10.279,5.934s-1.457,9.079-5.934,10.279l-24.32,6.516
			C464.06,203.618,463.326,203.714,462.59,203.713L462.59,203.713z"/>
		<path style="fill:#428DFF;" d="M16.68,323.197c-4.209-0.006-7.763-3.129-8.31-7.302c-0.547-4.173,2.081-8.107,6.147-9.198
			l24.32-6.517c4.477-1.2,9.079,1.457,10.279,5.934c1.2,4.477-1.457,9.079-5.934,10.279l-24.32,6.516
			C18.15,323.101,17.417,323.198,16.68,323.197L16.68,323.197z"/>
		<path style="fill:#428DFF;" d="M360.91,71.205c-2.998-0.002-5.767-1.603-7.265-4.199c-1.498-2.597-1.497-5.795,0.002-8.391
			l12.59-21.803c1.499-2.599,4.27-4.201,7.27-4.202c3-0.001,5.773,1.6,7.273,4.198c1.5,2.598,1.499,5.8-0.002,8.397l-12.59,21.803
			C366.688,69.609,363.912,71.21,360.91,71.205L360.91,71.205z"/>
		<path style="fill:#428DFF;" d="M130.09,471c-2.998-0.002-5.767-1.603-7.265-4.199c-1.498-2.597-1.497-5.795,0.002-8.391
			l12.59-21.811c1.499-2.599,4.27-4.201,7.27-4.202c3-0.001,5.773,1.6,7.273,4.198c1.5,2.598,1.499,5.8-0.002,8.397l-12.59,21.811
			C135.866,469.402,133.092,471.002,130.09,471L130.09,471z"/>
		<path style="fill:#428DFF;" d="M462.59,381.902c-1.471,0.001-2.916-0.386-4.188-1.123l-21.803-12.59
			c-2.599-1.499-4.201-4.27-4.202-7.27c-0.001-3,1.6-5.773,4.198-7.273c2.598-1.5,5.8-1.499,8.397,0.002l21.803,12.59
			c3.293,1.9,4.898,5.775,3.912,9.447C469.722,379.356,466.392,381.907,462.59,381.902L462.59,381.902z"/>
		<path style="fill:#428DFF;" d="M62.803,151.082c-1.471,0.001-2.916-0.386-4.188-1.123l-21.803-12.59
			c-4.013-2.319-5.387-7.451-3.07-11.465s7.448-5.391,11.463-3.076l21.803,12.59c3.293,1.9,4.898,5.775,3.912,9.447
			C69.935,148.536,66.605,151.087,62.803,151.082L62.803,151.082z"/>
		<path style="fill:#428DFF;" d="M142.697,71.205c-3.003,0.005-5.779-1.596-7.279-4.197l-12.59-21.803
			c-1.501-2.598-1.502-5.799-0.002-8.397c1.5-2.598,4.272-4.199,7.273-4.198c3,0.001,5.772,1.603,7.27,4.202l12.59,21.803
			c1.499,2.596,1.5,5.794,0.002,8.391C148.464,69.602,145.695,71.203,142.697,71.205L142.697,71.205z"/>
		<path style="fill:#428DFF;" d="M373.517,471c-3.002,0.002-5.776-1.598-7.279-4.197l-12.59-21.811
			c-1.501-2.598-1.502-5.799-0.002-8.397c1.5-2.598,4.272-4.199,7.273-4.198c3,0.001,5.772,1.603,7.27,4.202l12.59,21.811
			c1.499,2.596,1.5,5.794,0.002,8.391C379.283,469.397,376.514,470.998,373.517,471z"/>
		<path style="fill:#428DFF;" d="M440.803,151.082c-3.802,0.005-7.132-2.546-8.117-6.217s0.619-7.547,3.912-9.447l21.803-12.59
			c2.598-1.501,5.799-1.502,8.397-0.002s4.199,4.272,4.198,7.273c-0.001,3-1.603,5.772-4.202,7.27l-21.803,12.59
			C443.719,150.696,442.274,151.083,440.803,151.082z"/>
		<path style="fill:#428DFF;" d="M41.016,381.902c-3.802,0.005-7.132-2.546-8.118-6.217c-0.986-3.672,0.619-7.547,3.912-9.447
			l21.803-12.59c2.598-1.501,5.799-1.502,8.397-0.002c2.598,1.5,4.199,4.272,4.198,7.273c-0.001,3-1.603,5.772-4.202,7.27
			l-21.803,12.59C43.932,381.515,42.487,381.903,41.016,381.902L41.016,381.902z"/>
		<path style="fill:#428DFF;" d="M308.295,49.402c-2.61,0.001-5.073-1.212-6.663-3.282c-1.59-2.07-2.127-4.762-1.452-7.284
			l6.516-24.32c0.773-2.9,3.035-5.167,5.934-5.945c2.899-0.778,5.992,0.051,8.113,2.174s2.947,5.217,2.166,8.115l-6.516,24.32
			C315.414,46.849,312.092,49.401,308.295,49.402z"/>
		<path style="fill:#428DFF;" d="M188.811,495.311c-2.61,0.001-5.073-1.212-6.663-3.282c-1.59-2.07-2.127-4.762-1.452-7.284
			l6.516-24.32c0.776-2.896,3.038-5.158,5.934-5.934c2.896-0.776,5.986,0.052,8.107,2.172s2.948,5.21,2.172,8.107l-6.516,24.32
			C195.931,492.759,192.608,495.311,188.811,495.311L188.811,495.311z"/>
		<path style="fill:#428DFF;" d="M486.926,323.197c-0.736,0.001-1.469-0.095-2.18-0.287l-24.32-6.516
			c-2.896-0.776-5.158-3.038-5.934-5.934c-0.776-2.896,0.052-5.986,2.172-8.107c2.12-2.12,5.21-2.948,8.107-2.172l24.32,6.516
			c4.065,1.091,6.694,5.025,6.147,9.198C494.689,320.069,491.135,323.191,486.926,323.197z"/>
		<path style="fill:#428DFF;" d="M41.016,203.713c-0.736,0.001-1.469-0.095-2.18-0.287l-24.32-6.516
			c-4.477-1.2-7.134-5.802-5.934-10.279s5.802-7.134,10.279-5.934l24.32,6.516c4.065,1.091,6.694,5.025,6.147,9.198
			C48.779,200.585,45.226,203.707,41.016,203.713L41.016,203.713z"/>
		<path style="fill:#428DFF;" d="M251.803,285.377c-18.542,0-33.574-15.031-33.574-33.574s15.031-33.574,33.574-33.574
			s33.574,15.031,33.574,33.574C285.359,270.338,270.338,285.359,251.803,285.377z M251.803,235.016
			c-9.271,0-16.787,7.516-16.787,16.787c0,9.271,7.516,16.787,16.787,16.787c9.271,0,16.787-7.516,16.787-16.787
			C268.578,242.537,261.069,235.028,251.803,235.016L251.803,235.016z"/>
		<path style="fill:#428DFF;" d="M344.131,259.18h-67.148c-4.636,0-8.393-3.758-8.393-8.393c0-4.636,3.758-8.393,8.393-8.393h67.148
			c4.636,0,8.393,3.758,8.393,8.393C352.525,255.422,348.767,259.18,344.131,259.18z"/>
		<path style="fill:#428DFF;" d="M251.803,235.016c-2.226,0.001-4.362-0.883-5.936-2.457c-1.574-1.574-2.458-3.71-2.457-5.936
			V109.115c0-4.636,3.758-8.393,8.393-8.393s8.393,3.758,8.393,8.393v117.508c0.001,2.226-0.883,4.362-2.457,5.936
			C256.165,234.134,254.03,235.018,251.803,235.016z"/>
		<path style="fill:#428DFF;" d="M251.803,428.066c-37.085,0-67.148-30.063-67.148-67.148s30.063-67.148,67.148-67.148
			s67.148,30.063,67.148,67.148C318.908,397.985,288.87,428.023,251.803,428.066z M251.803,310.557
			c-27.813,0-50.361,22.547-50.361,50.361c0,27.813,22.547,50.361,50.361,50.361s50.361-22.547,50.361-50.361
			C302.134,333.117,279.604,310.588,251.803,310.557L251.803,310.557z"/>
		<path style="fill:#428DFF;" d="M251.803,369.311c-2.227,0.003-4.362-0.883-5.934-2.459l-25.18-25.18
			c-2.148-2.115-2.997-5.218-2.224-8.132c0.772-2.913,3.048-5.189,5.961-5.961c2.913-0.773,6.017,0.076,8.132,2.224l25.18,25.18
			c2.4,2.4,3.118,6.01,1.819,9.146C258.257,367.265,255.198,369.31,251.803,369.311L251.803,369.311z"/>
	</g>
</g>
<g>
</g>
<g>
</g>
<g>
</g>
<g>
</g>
<g>
</g>
<g>
</g>
<g>
</g>
<g>
</g>
<g>
</g>
<g>
</g>
<g>
</g>
<g>
</g>
<g>
</g>
<g>
</g>
<g>
</g>
</svg>
