<?xml version="1.0" encoding="iso-8859-1"?>
<!-- Generator: Adobe Illustrator 19.0.0, SVG Export Plug-In . SVG Version: 6.00 Build 0)  -->
<svg version="1.1" id="Capa_1" xmlns="http://www.w3.org/2000/svg" xmlns:xlink="http://www.w3.org/1999/xlink" x="0px" y="0px"
	 viewBox="0 0 503.614 503.614" style="enable-background:new 0 0 503.614 503.614;" xml:space="preserve">
<g transform="translate(-1)">
	<path style="fill:#A4C2F7;" d="M252.811,7.381c2.168,0,4.308,0.107,6.462,0.164C134.636,10.982,34.581,118.526,34.581,250.791
		S134.636,490.6,259.273,494.036c-2.154,0.057-4.295,0.164-6.462,0.164c134.432,0,243.41-108.978,243.41-243.41
		S387.242,7.381,252.811,7.381z"/>
	<path style="fill:#FFFFFF;" d="M252.811,494.2c2.168,0,4.308-0.107,6.462-0.164C134.636,490.6,34.581,383.055,34.581,250.791
		S134.636,10.982,259.273,7.545c-2.154-0.057-4.295-0.164-6.462-0.164c-134.432,0-243.41,108.978-243.41,243.41
		S118.379,494.2,252.811,494.2L252.811,494.2z"/>
	
		<linearGradient id="SVGID_1_" gradientUnits="userSpaceOnUse" x1="-51.9469" y1="651.5334" x2="-51.2073" y2="650.869" gradientTransform="matrix(436.459 0 0 -485.9058 22764.1348 316673.2188)">
		<stop  offset="0" style="stop-color:#D4E1F4"/>
		<stop  offset="0.1717" style="stop-color:#D4E1F4"/>
		<stop  offset="0.2" style="stop-color:#D4E1F4"/>
		<stop  offset="0.2001" style="stop-color:#DAE4F4"/>
		<stop  offset="0.2007" style="stop-color:#EBEBF4"/>
		<stop  offset="0.2014" style="stop-color:#F6F1F4"/>
		<stop  offset="0.2023" style="stop-color:#FDF4F4"/>
		<stop  offset="0.205" style="stop-color:#FFF5F4"/>
		<stop  offset="0.2522" style="stop-color:#FFF5F4"/>
		<stop  offset="0.26" style="stop-color:#FFF5F4"/>
		<stop  offset="0.26" style="stop-color:#D4E1F4"/>
		<stop  offset="0.3974" style="stop-color:#D4E1F4"/>
		<stop  offset="0.42" style="stop-color:#D4E1F4"/>
		<stop  offset="0.4201" style="stop-color:#DAE4F4"/>
		<stop  offset="0.4207" style="stop-color:#EBEBF4"/>
		<stop  offset="0.4214" style="stop-color:#F6F1F4"/>
		<stop  offset="0.4223" style="stop-color:#FDF4F4"/>
		<stop  offset="0.425" style="stop-color:#FFF5F4"/>
		<stop  offset="0.4894" style="stop-color:#FFF5F4"/>
		<stop  offset="0.5" style="stop-color:#FFF5F4"/>
		<stop  offset="0.5" style="stop-color:#F9F2F4"/>
		<stop  offset="0.5001" style="stop-color:#E8EBF4"/>
		<stop  offset="0.5003" style="stop-color:#DDE5F4"/>
		<stop  offset="0.5005" style="stop-color:#D6E2F4"/>
		<stop  offset="0.501" style="stop-color:#D4E1F4"/>
		<stop  offset="0.7062" style="stop-color:#D4E1F4"/>
		<stop  offset="0.74" style="stop-color:#D4E1F4"/>
		<stop  offset="0.741" style="stop-color:#FFF5F4"/>
		<stop  offset="0.8346" style="stop-color:#FFF5F4"/>
		<stop  offset="0.85" style="stop-color:#FFF5F4"/>
		<stop  offset="0.851" style="stop-color:#D4E1F4"/>
	</linearGradient>
	<path style="fill:url(#SVGID_1_);" d="M253.841,7.838c-122.09,6.369-219.26,112.623-219.26,242.953s97.17,236.584,219.26,242.953
		c121.133-7.439,217.199-113.346,217.199-242.953S374.974,15.276,253.841,7.838z"/>
	<path style="fill:#A4C2F7;" d="M168.876,167.874L168.876,167.874l108.646,78.59c5.089,3.701,8.303,9.445,8.795,15.718
		c0.492,6.273-1.786,12.448-6.236,16.897l0,0c-4.45,4.45-10.624,6.728-16.897,6.236c-6.273-0.492-12.017-3.706-15.718-8.795
		L168.876,167.874z"/>
	<g>
		<path style="fill:#428DFF;" d="M252.811,503.61c-101.765,0.001-193.526-61.253-232.552-155.237S2.616,146.152,74.45,74.069
			c3.277-3.256,8.57-3.25,11.841,0.012c3.271,3.262,3.291,8.554,0.044,11.841C7.782,164.758-4.703,287.883,56.424,380.884
			s179.105,130.375,282.632,89.535s164.213-148.695,145.383-258.382S372.424,20.911,261.204,16.938v103.025
			c0,4.636-3.758,8.393-8.393,8.393s-8.393-3.758-8.393-8.393V8.397c-0.001-2.226,0.883-4.362,2.457-5.936
			c1.574-1.574,3.71-2.458,5.936-2.457c139.067,0,251.803,112.736,251.803,251.803S391.878,503.61,252.811,503.61z"/>
		<path style="fill:#428DFF;" d="M264.876,293.774c-0.778,0-1.557-0.025-2.344-0.09c-8.724-0.677-16.712-5.148-21.852-12.229
			L162.073,172.79c-2.413-3.34-2.045-7.939,0.869-10.853c2.914-2.914,7.512-3.282,10.853-0.869l108.647,78.59
			c10.484,7.615,14.873,21.113,10.873,33.438C289.314,285.421,277.833,293.768,264.876,293.774L264.876,293.774z M206.319,205.315
			l47.951,66.287c2.255,3.098,5.754,5.051,9.574,5.344c3.823,0.285,7.582-1.103,10.303-3.803c2.714-2.714,4.104-6.481,3.802-10.308
			c-0.301-3.827-2.263-7.33-5.368-9.586L206.319,205.315z"/>
	</g>
</g>
<g>
</g>
<g>
</g>
<g>
</g>
<g>
</g>
<g>
</g>
<g>
</g>
<g>
</g>
<g>
</g>
<g>
</g>
<g>
</g>
<g>
</g>
<g>
</g>
<g>
</g>
<g>
</g>
<g>
</g>
</svg>
