<?xml version="1.0" encoding="iso-8859-1"?>
<!-- Generator: Adobe Illustrator 19.0.0, SVG Export Plug-In . SVG Version: 6.00 Build 0)  -->
<svg version="1.1" id="Capa_1" xmlns="http://www.w3.org/2000/svg" xmlns:xlink="http://www.w3.org/1999/xlink" x="0px" y="0px"
	 viewBox="0 0 512 512" style="enable-background:new 0 0 512 512;" xml:space="preserve">
<g>
	<polygon style="fill:#A4C2F7;" points="392.533,98.133 179.2,98.133 179.2,473.6 503.467,473.6 503.467,98.133 	"/>
	<polygon style="fill:#FFFFFF;" points="221.867,98.133 179.2,38.4 8.533,38.4 8.533,98.133 8.533,473.6 332.8,473.6 332.8,98.133 	
		"/>
	<polygon style="fill:#E3E7F2;" points="221.867,98.133 179.2,38.4 34.133,38.4 34.133,98.133 34.133,473.6 477.867,473.6 
		477.867,98.133 	"/>
	
		<linearGradient id="SVGID_1_" gradientUnits="userSpaceOnUse" x1="-48.6057" y1="651.7885" x2="-47.7899" y2="650.4968" gradientTransform="matrix(162.1333 0 0 -102.4 8194.2002 67056.7422)">
		<stop  offset="0" style="stop-color:#D4E1F4"/>
		<stop  offset="0.1717" style="stop-color:#D4E1F4"/>
		<stop  offset="0.2" style="stop-color:#D4E1F4"/>
		<stop  offset="0.2001" style="stop-color:#DAE4F4"/>
		<stop  offset="0.2007" style="stop-color:#EBEBF4"/>
		<stop  offset="0.2014" style="stop-color:#F6F1F4"/>
		<stop  offset="0.2023" style="stop-color:#FDF4F4"/>
		<stop  offset="0.205" style="stop-color:#FFF5F4"/>
		<stop  offset="0.2522" style="stop-color:#FFF5F4"/>
		<stop  offset="0.26" style="stop-color:#FFF5F4"/>
		<stop  offset="0.26" style="stop-color:#D4E1F4"/>
		<stop  offset="0.3974" style="stop-color:#D4E1F4"/>
		<stop  offset="0.42" style="stop-color:#D4E1F4"/>
		<stop  offset="0.4201" style="stop-color:#DAE4F4"/>
		<stop  offset="0.4207" style="stop-color:#EBEBF4"/>
		<stop  offset="0.4214" style="stop-color:#F6F1F4"/>
		<stop  offset="0.4223" style="stop-color:#FDF4F4"/>
		<stop  offset="0.425" style="stop-color:#FFF5F4"/>
		<stop  offset="0.4894" style="stop-color:#FFF5F4"/>
		<stop  offset="0.5" style="stop-color:#FFF5F4"/>
		<stop  offset="0.5" style="stop-color:#F9F2F4"/>
		<stop  offset="0.5001" style="stop-color:#E8EBF4"/>
		<stop  offset="0.5003" style="stop-color:#DDE5F4"/>
		<stop  offset="0.5005" style="stop-color:#D6E2F4"/>
		<stop  offset="0.501" style="stop-color:#D4E1F4"/>
		<stop  offset="0.7062" style="stop-color:#D4E1F4"/>
		<stop  offset="0.74" style="stop-color:#D4E1F4"/>
		<stop  offset="0.741" style="stop-color:#FFF5F4"/>
		<stop  offset="0.8346" style="stop-color:#FFF5F4"/>
		<stop  offset="0.85" style="stop-color:#FFF5F4"/>
		<stop  offset="0.851" style="stop-color:#D4E1F4"/>
	</linearGradient>
	<polygon style="fill:url(#SVGID_1_);" points="435.2,328.533 298.667,328.533 298.667,430.933 435.2,430.933 460.8,430.933 
		460.8,328.533 	"/>
	<polygon style="fill:#E3E7F2;" points="477.867,157.867 260.651,157.867 260.651,157.602 221.867,98.133 477.867,98.133 	"/>
	<g>
		<path style="fill:#428DFF;" d="M503.467,482.133H8.533c-2.263,0.001-4.434-0.898-6.035-2.499c-1.6-1.6-2.499-3.771-2.499-6.035
			V38.4c-0.001-2.263,0.898-4.434,2.499-6.035c1.6-1.6,3.771-2.499,6.035-2.499H179.2c2.757,0.002,5.343,1.333,6.946,3.575
			L226.258,89.6h277.208c2.263-0.001,4.434,0.898,6.035,2.499c1.6,1.6,2.499,3.771,2.499,6.035V473.6
			c0.001,2.263-0.898,4.434-2.499,6.035C507.901,481.235,505.73,482.134,503.467,482.133L503.467,482.133z M17.067,465.067h477.867
			v-358.4H221.867c-2.757-0.002-5.343-1.333-6.946-3.575l-40.112-56.158H17.067V465.067z"/>
		<path style="fill:#428DFF;" d="M460.8,439.467H298.667c-2.263,0.001-4.434-0.898-6.035-2.499c-1.6-1.6-2.499-3.771-2.499-6.035
			v-102.4c-0.001-2.263,0.898-4.434,2.499-6.035c1.6-1.6,3.771-2.499,6.035-2.499H460.8c2.263-0.001,4.434,0.898,6.035,2.499
			c1.6,1.6,2.499,3.771,2.499,6.035v102.4c0.001,2.263-0.898,4.434-2.499,6.035C465.234,438.568,463.063,439.467,460.8,439.467
			L460.8,439.467z M307.2,422.4h145.067v-85.333H307.2V422.4z"/>
		<path style="fill:#428DFF;" d="M366.933,371.2H332.8c-4.713,0-8.533-3.82-8.533-8.533s3.82-8.533,8.533-8.533h34.133
			c4.713,0,8.533,3.82,8.533,8.533S371.646,371.2,366.933,371.2z"/>
		<path style="fill:#428DFF;" d="M409.6,371.2h-8.533c-4.713,0-8.533-3.82-8.533-8.533s3.82-8.533,8.533-8.533h8.533
			c4.713,0,8.533,3.82,8.533,8.533S414.313,371.2,409.6,371.2z"/>
		<path style="fill:#428DFF;" d="M426.667,405.333H332.8c-4.713,0-8.533-3.82-8.533-8.533s3.82-8.533,8.533-8.533h93.867
			c4.713,0,8.533,3.82,8.533,8.533S431.38,405.333,426.667,405.333z"/>
		<path style="fill:#428DFF;" d="M503.467,166.4H264.533c-3.336-0.001-6.365-1.944-7.758-4.975l-41.842-58.317
			c-1.866-2.6-2.121-6.025-0.66-8.872c1.461-2.847,4.393-4.637,7.593-4.636h281.6c2.263-0.001,4.434,0.898,6.035,2.499
			c1.6,1.6,2.499,3.771,2.499,6.035v59.733c0.001,2.263-0.898,4.434-2.499,6.035C507.901,165.502,505.73,166.401,503.467,166.4z
			 M269.104,149.333h225.829v-42.667H238.492L269.104,149.333z"/>
	</g>
</g>
<g>
</g>
<g>
</g>
<g>
</g>
<g>
</g>
<g>
</g>
<g>
</g>
<g>
</g>
<g>
</g>
<g>
</g>
<g>
</g>
<g>
</g>
<g>
</g>
<g>
</g>
<g>
</g>
<g>
</g>
</svg>
