<?xml version="1.0" encoding="iso-8859-1"?>
<!-- Generator: Adobe Illustrator 19.0.0, SVG Export Plug-In . SVG Version: 6.00 Build 0)  -->
<svg version="1.1" id="Capa_1" xmlns="http://www.w3.org/2000/svg" xmlns:xlink="http://www.w3.org/1999/xlink" x="0px" y="0px"
	 viewBox="0 0 512 512" style="enable-background:new 0 0 512 512;" xml:space="preserve">
<g>
	<polygon style="fill:#FFFFFF;" points="221.133,384 21.333,384 33.399,324.267 209.067,324.267 	"/>
	<g>
		<rect x="226.133" y="384" style="fill:#A4C2F7;" width="59.733" height="93.867"/>
		<rect x="200.533" y="477.867" style="fill:#A4C2F7;" width="110.933" height="25.6"/>
		<polygon style="fill:#A4C2F7;" points="482.133,384 200.533,384 251.733,76.8 430.933,76.8 		"/>
	</g>
	<polygon style="fill:#FFFFFF;" points="302.933,384 21.333,384 72.533,76.8 251.733,76.8 	"/>
	<polygon style="fill:#E3E7F2;" points="465.067,384 46.933,384 98.133,76.8 413.867,76.8 	"/>
	<polygon style="fill:#7FACFA;" points="490.667,384 290.867,384 302.933,324.267 478.601,324.267 	"/>
	<polygon style="fill:#A4C2F7;" points="465.067,384 46.933,384 58.999,324.267 453.001,324.267 	"/>
	<g>
		<path style="fill:#428DFF;" d="M490.667,392.533H21.333c-2.508,0.001-4.89-1.102-6.511-3.015
			c-1.621-1.914-2.318-4.444-1.905-6.918l51.2-307.2c0.684-4.116,4.244-7.133,8.417-7.133h366.933c4.172,0,7.733,3.017,8.417,7.133
			l51.2,307.2c0.413,2.474-0.284,5.004-1.905,6.918C495.557,391.432,493.175,392.535,490.667,392.533L490.667,392.533z
			 M31.408,375.467h449.183L432.237,85.333H79.763L31.408,375.467z"/>
		<path style="fill:#428DFF;" d="M490.667,392.533H21.333c-2.559-0.001-4.983-1.151-6.603-3.132c-1.62-1.981-2.266-4.585-1.76-7.093
			l12.062-59.733c0.804-3.98,4.302-6.842,8.363-6.842h445.208c4.061,0,7.558,2.862,8.363,6.842l12.062,59.733
			c0.507,2.509-0.139,5.112-1.76,7.093C495.65,391.383,493.226,392.532,490.667,392.533L490.667,392.533z M31.763,375.467h448.475
			l-8.617-42.667H40.379L31.763,375.467z"/>
		<path style="fill:#428DFF;" d="M285.867,486.4h-59.733c-2.263,0.001-4.434-0.898-6.035-2.499c-1.6-1.6-2.499-3.771-2.499-6.035
			V384c-0.001-2.263,0.898-4.434,2.499-6.035c1.6-1.6,3.771-2.499,6.035-2.499h59.733c2.263-0.001,4.434,0.898,6.035,2.499
			c1.6,1.6,2.499,3.771,2.499,6.035v93.867c0.001,2.263-0.898,4.434-2.499,6.035C290.301,485.502,288.13,486.401,285.867,486.4z
			 M234.667,469.333h42.667v-76.8h-42.667V469.333z"/>
		<path style="fill:#428DFF;" d="M140.8,153.6c-2.263,0.001-4.434-0.898-6.035-2.499c-1.6-1.6-2.499-3.771-2.499-6.035V51.2
			c0-28.277,22.923-51.2,51.2-51.2s51.2,22.923,51.2,51.2c0,4.713-3.821,8.533-8.533,8.533c-4.713,0-8.533-3.821-8.533-8.533
			c0-18.851-15.282-34.133-34.133-34.133S149.333,32.349,149.333,51.2v93.867c0.001,2.263-0.898,4.434-2.499,6.035
			S143.063,153.601,140.8,153.6z"/>
		<path style="fill:#428DFF;" d="M311.467,512H200.533c-2.263,0.001-4.434-0.898-6.035-2.499c-1.6-1.6-2.499-3.771-2.499-6.035
			v-25.6c-0.001-2.263,0.898-4.434,2.499-6.035c1.6-1.6,3.771-2.499,6.035-2.499h110.933c2.263-0.001,4.434,0.898,6.035,2.499
			c1.6,1.6,2.499,3.771,2.499,6.035v25.6c0.001,2.263-0.898,4.434-2.499,6.035C315.901,511.102,313.73,512.001,311.467,512z
			 M209.067,494.933h93.867V486.4h-93.867V494.933z"/>
	</g>
</g>
<g>
</g>
<g>
</g>
<g>
</g>
<g>
</g>
<g>
</g>
<g>
</g>
<g>
</g>
<g>
</g>
<g>
</g>
<g>
</g>
<g>
</g>
<g>
</g>
<g>
</g>
<g>
</g>
<g>
</g>
</svg>
