<?xml version="1.0" encoding="iso-8859-1"?>
<!-- Generator: Adobe Illustrator 19.0.0, SVG Export Plug-In . SVG Version: 6.00 Build 0)  -->
<svg version="1.1" id="Capa_1" xmlns="http://www.w3.org/2000/svg" xmlns:xlink="http://www.w3.org/1999/xlink" x="0px" y="0px"
	 viewBox="0 0 512 512" style="enable-background:new 0 0 512 512;" xml:space="preserve">
<g transform="translate(0 -1)">
	<polygon style="fill:#A4C2F7;" points="392.533,99.151 179.2,99.151 179.2,474.618 503.467,474.618 503.467,99.151 	"/>
	<polygon style="fill:#FFFFFF;" points="221.867,99.151 179.2,39.417 8.533,39.417 8.533,99.151 8.533,474.618 332.8,474.618 
		332.8,99.151 	"/>
	<g>
		<polygon style="fill:#E3E7F2;" points="221.867,99.151 179.2,39.417 34.133,39.417 34.133,99.151 34.133,474.618 477.867,474.618 
			477.867,99.151 		"/>
		<polygon style="fill:#E3E7F2;" points="477.867,158.884 260.651,158.884 260.651,158.62 221.867,99.151 477.867,99.151 		"/>
	</g>
	<g>
		<path style="fill:#428DFF;" d="M503.467,483.151H8.533c-2.263,0.001-4.434-0.898-6.035-2.499c-1.6-1.6-2.499-3.771-2.499-6.035
			v-435.2c-0.001-2.263,0.898-4.434,2.499-6.035c1.6-1.6,3.771-2.499,6.035-2.499H179.2c2.757,0.002,5.343,1.333,6.946,3.575
			l40.112,56.158h277.208c2.263-0.001,4.434,0.898,6.035,2.499c1.6,1.6,2.499,3.771,2.499,6.035v375.467
			c0.001,2.263-0.898,4.434-2.499,6.035C507.901,482.253,505.73,483.151,503.467,483.151L503.467,483.151z M17.067,466.084h477.867
			v-358.4H221.867c-2.757-0.002-5.343-1.333-6.946-3.575l-40.112-56.158H17.067V466.084z"/>
		<path style="fill:#428DFF;" d="M264.542,167.151c-2.756,0.004-5.343-1.325-6.946-3.567l-85.333-119.2
			c-1.793-2.478-2.123-5.726-0.864-8.514c1.259-2.788,3.914-4.688,6.959-4.981c3.045-0.293,6.013,1.066,7.781,3.563l85.333,119.2
			c1.863,2.599,2.116,6.02,0.656,8.865S267.739,167.149,264.542,167.151L264.542,167.151z"/>
		<path style="fill:#428DFF;" d="M503.467,167.417H264.533c-4.713,0-8.533-3.821-8.533-8.533c0-4.713,3.821-8.533,8.533-8.533
			h238.933c4.713,0,8.533,3.821,8.533,8.533C512,163.597,508.18,167.417,503.467,167.417z"/>
	</g>
</g>
<g>
</g>
<g>
</g>
<g>
</g>
<g>
</g>
<g>
</g>
<g>
</g>
<g>
</g>
<g>
</g>
<g>
</g>
<g>
</g>
<g>
</g>
<g>
</g>
<g>
</g>
<g>
</g>
<g>
</g>
</svg>
