<?xml version="1.0" encoding="iso-8859-1"?>
<!-- Generator: Adobe Illustrator 19.0.0, SVG Export Plug-In . SVG Version: 6.00 Build 0)  -->
<svg version="1.1" id="Capa_1" xmlns="http://www.w3.org/2000/svg" xmlns:xlink="http://www.w3.org/1999/xlink" x="0px" y="0px"
	 viewBox="0 0 511.241 511.241" style="enable-background:new 0 0 511.241 511.241;" xml:space="preserve">
<g>
	<path style="fill:#FFFFFF;" d="M290.13,204.421V74.439c0-3.618-2.933-6.551-6.551-6.551h-83.606c-2.301,0-4.434-1.207-5.618-3.181
		l-21.783-36.305c-1.184-1.973-3.316-3.181-5.618-3.181H49.215c-3.618,0-6.551,2.933-6.551,6.551v172.649H290.13z"/>
	<path style="fill:#7FACFA;" d="M462.778,67.887h-83.606c-2.301,0-4.434-1.208-5.618-3.181l18.975,139.715h76.8V74.437
		C469.329,70.819,466.396,67.887,462.778,67.887L462.778,67.887z"/>
	<g>
		<path style="fill:#A4C2F7;" d="M443.73,204.421V74.439c0-3.618-2.933-6.551-6.551-6.551H204.797c-2.301,0-4.434-1.207-5.618-3.181
			l-21.783-36.305c-1.184-1.973-3.317-3.181-5.618-3.181H74.815c-3.618,0-6.551,2.933-6.551,6.551v172.649H443.73z"/>
		<path style="fill:#A4C2F7;" d="M458.432,486.021H324.263c-1.144,0-2.116-0.836-2.287-1.966L280.01,207.079
			c-0.101-0.666,0.094-1.343,0.533-1.854c0.439-0.511,1.08-0.805,1.754-0.805h218.1c0.674,0,1.314,0.294,1.754,0.805
			c0.439,0.511,0.634,1.188,0.533,1.855l-41.966,276.975C460.547,485.185,459.575,486.021,458.432,486.021z"/>
	</g>
	<path style="fill:#FFFFFF;" d="M186.118,486.021H51.949c-1.144,0-2.116-0.836-2.287-1.966L7.697,207.08
		c-0.101-0.666,0.094-1.343,0.533-1.854c0.439-0.511,1.08-0.805,1.754-0.805h218.1c0.674,0,1.314,0.294,1.754,0.805
		c0.439,0.511,0.634,1.188,0.533,1.855l-41.966,276.975C188.233,485.185,187.261,486.021,186.118,486.021z"/>
	<g>
		<path style="fill:#E3E7F2;" d="M432.832,486.021H78.409c-1.144,0-2.116-0.836-2.287-1.966L34.157,207.079
			c-0.101-0.666,0.094-1.343,0.533-1.854c0.439-0.511,1.08-0.805,1.753-0.805h438.354c0.674,0,1.314,0.294,1.754,0.805
			c0.439,0.511,0.634,1.188,0.533,1.855l-41.966,276.975C434.947,485.185,433.975,486.021,432.832,486.021z"/>
		<rect x="68.263" y="170.287" style="fill:#E3E7F2;" width="375.467" height="34.133"/>
		<rect x="76.797" y="144.687" style="fill:#E3E7F2;" width="358.4" height="25.6"/>
		<rect x="85.33" y="119.087" style="fill:#E3E7F2;" width="341.333" height="25.6"/>
	</g>
	<g>
		<path style="fill:#428DFF;" d="M458.43,494.554H52.805c-5.361,0.021-9.925-3.897-10.717-9.2l-41.967-277
			c-0.472-3.124,0.442-6.298,2.503-8.694c2.06-2.395,5.063-3.773,8.222-3.773h489.55c3.166-0.001,6.174,1.381,8.234,3.784
			c2.06,2.403,2.967,5.587,2.482,8.716l-41.958,276.942C468.373,490.645,463.802,494.576,458.43,494.554L458.43,494.554z
			 M58.155,477.487h394.933l40.075-264.533H18.08L58.155,477.487z M494.247,205.804l-0.009,0.033L494.247,205.804z"/>
		<path style="fill:#428DFF;" d="M469.33,212.954H42.663c-2.264,0.001-4.435-0.897-6.035-2.498
			c-1.601-1.601-2.499-3.772-2.498-6.035V31.771c0.01-8.326,6.757-15.074,15.083-15.083h117.742
			c5.297,0.015,10.201,2.796,12.933,7.333l21.208,35.333H462.78c8.326,0.01,15.074,6.757,15.083,15.083v129.983
			c0.001,2.264-0.897,4.435-2.498,6.035C473.765,212.057,471.594,212.955,469.33,212.954z M51.197,195.887h409.6V76.421H199.972
			c-5.297-0.016-10.2-2.796-12.933-7.333L165.83,33.754H51.197V195.887z"/>
		<path style="fill:#428DFF;" d="M443.73,212.954H68.263c-2.264,0.001-4.435-0.897-6.035-2.498s-2.499-3.772-2.498-6.035v-34.133
			c-0.001-2.264,0.897-4.435,2.498-6.035s3.772-2.499,6.035-2.498H443.73c2.264-0.001,4.435,0.897,6.035,2.498
			c1.601,1.601,2.499,3.772,2.498,6.035v34.133c0.001,2.264-0.897,4.435-2.498,6.035
			C448.165,212.057,445.994,212.955,443.73,212.954z M76.797,195.887h358.4v-17.067h-358.4V195.887z"/>
		<path style="fill:#428DFF;" d="M435.197,178.821h-358.4c-2.264,0.001-4.435-0.897-6.035-2.498
			c-1.601-1.601-2.499-3.772-2.498-6.035v-25.6c-0.001-2.264,0.897-4.435,2.498-6.035c1.601-1.601,3.772-2.499,6.035-2.498h358.4
			c2.264-0.001,4.435,0.897,6.035,2.498c1.601,1.601,2.499,3.772,2.498,6.035v25.6c0.001,2.264-0.897,4.435-2.498,6.035
			C439.631,177.923,437.46,178.822,435.197,178.821L435.197,178.821z M85.33,161.754h341.333v-8.533H85.33V161.754z"/>
		<path style="fill:#428DFF;" d="M426.663,153.221H85.33c-2.264,0.001-4.435-0.897-6.035-2.498
			c-1.601-1.601-2.499-3.772-2.498-6.035v-25.6c-0.001-2.264,0.897-4.435,2.498-6.035c1.601-1.601,3.772-2.499,6.035-2.498h341.333
			c2.264-0.001,4.435,0.897,6.035,2.498c1.601,1.601,2.499,3.772,2.498,6.035v25.6c0.001,2.264-0.897,4.435-2.498,6.035
			C431.098,152.323,428.927,153.222,426.663,153.221z M93.863,136.154H418.13v-8.533H93.863V136.154z"/>
	</g>
</g>
<g>
</g>
<g>
</g>
<g>
</g>
<g>
</g>
<g>
</g>
<g>
</g>
<g>
</g>
<g>
</g>
<g>
</g>
<g>
</g>
<g>
</g>
<g>
</g>
<g>
</g>
<g>
</g>
<g>
</g>
</svg>
