<?xml version="1.0" encoding="iso-8859-1"?>
<!-- Generator: Adobe Illustrator 19.0.0, SVG Export Plug-In . SVG Version: 6.00 Build 0)  -->
<svg version="1.1" id="Capa_1" xmlns="http://www.w3.org/2000/svg" xmlns:xlink="http://www.w3.org/1999/xlink" x="0px" y="0px"
	 viewBox="0 0 511.248 511.248" style="enable-background:new 0 0 511.248 511.248;" xml:space="preserve">
<g>
	<path style="fill:#FFFFFF;" d="M289.755,204.424V74.442c0-3.618-2.933-6.551-6.551-6.551h-83.606c-2.301,0-4.434-1.207-5.618-3.181
		l-21.783-36.305c-1.184-1.973-3.316-3.181-5.618-3.181H48.84c-3.618,0-6.551,2.933-6.551,6.551v172.649H289.755z"/>
	<path style="fill:#7FACFA;" d="M462.403,67.89h-83.606c-2.301,0-4.434-1.208-5.618-3.181l18.975,139.715h76.8V74.44
		C468.954,70.823,466.021,67.89,462.403,67.89L462.403,67.89z"/>
	<g>
		<path style="fill:#A4C2F7;" d="M443.355,204.424V74.442c0-3.618-2.933-6.551-6.551-6.551H204.422
			c-2.301,0-4.434-1.207-5.618-3.181l-21.783-36.305c-1.184-1.973-3.317-3.181-5.618-3.181H74.44c-3.618,0-6.551,2.933-6.551,6.551
			v172.649H443.355z"/>
		<path style="fill:#A4C2F7;" d="M458.057,486.024H323.888c-1.144,0-2.116-0.836-2.287-1.966l-41.966-276.975
			c-0.101-0.666,0.094-1.343,0.533-1.854c0.439-0.511,1.08-0.805,1.754-0.805h218.1c0.674,0,1.314,0.294,1.754,0.805
			c0.439,0.511,0.634,1.188,0.533,1.855l-41.966,276.975C460.172,485.189,459.2,486.024,458.057,486.024z"/>
	</g>
	<g>
		<rect x="67.888" y="170.29" style="fill:#E3E7F2;" width="375.467" height="34.133"/>
		<rect x="76.422" y="144.69" style="fill:#E3E7F2;" width="358.4" height="25.6"/>
		<rect x="84.955" y="119.09" style="fill:#E3E7F2;" width="341.333" height="25.6"/>
	</g>
	<path style="fill:#FFFFFF;" d="M185.743,486.024H51.574c-1.144,0-2.116-0.836-2.287-1.966L7.322,207.083
		c-0.101-0.666,0.094-1.343,0.533-1.854c0.439-0.511,1.08-0.805,1.754-0.805h218.1c0.674,0,1.314,0.294,1.754,0.805
		c0.439,0.511,0.634,1.188,0.533,1.855l-41.966,276.975C187.858,485.188,186.886,486.024,185.743,486.024z"/>
	<path style="fill:#E3E7F2;" d="M432.457,486.024H78.034c-1.144,0-2.116-0.836-2.287-1.966L33.782,207.083
		c-0.101-0.666,0.094-1.343,0.533-1.854c0.439-0.511,1.08-0.805,1.753-0.805h438.354c0.674,0,1.314,0.294,1.754,0.805
		c0.439,0.511,0.634,1.188,0.533,1.855l-41.966,276.975C434.572,485.189,433.6,486.024,432.457,486.024z"/>
	<polygon style="fill:#7FACFA;" points="466.89,443.357 482.404,340.957 119.088,340.957 134.602,443.357 	"/>
	<polygon style="fill:#A4C2F7;" points="437.663,443.357 453.177,340.957 53.757,340.957 69.271,443.357 	"/>
	<g>
		<path style="fill:#428DFF;" d="M458.43,494.557H52.813c-5.364,0.024-9.932-3.895-10.725-9.2l-41.967-277
			c-0.472-3.124,0.442-6.298,2.503-8.694c2.06-2.395,5.063-3.773,8.222-3.773h489.55c3.157,0.001,6.156,1.377,8.217,3.767
			c2.061,2.391,2.98,5.56,2.516,8.683l-41.975,276.992C468.373,490.648,463.802,494.579,458.43,494.557L458.43,494.557z
			 M58.155,477.49h394.933l40.075-264.533H18.08L58.155,477.49z"/>
		<path style="fill:#428DFF;" d="M469.33,212.957H42.664c-2.264,0.001-4.435-0.897-6.035-2.498
			c-1.601-1.601-2.499-3.772-2.498-6.035V31.774c0.01-8.326,6.757-15.073,15.083-15.083h117.742
			c5.297,0.015,10.201,2.796,12.933,7.333l21.208,35.333H462.78c8.327,0.009,15.074,6.757,15.084,15.083v129.983
			c0.001,2.264-0.897,4.435-2.498,6.035S471.594,212.958,469.33,212.957z M51.197,195.89h409.6V76.424H199.972
			c-5.297-0.015-10.201-2.796-12.933-7.333L165.83,33.757H51.197V195.89z"/>
		<path style="fill:#428DFF;" d="M443.355,212.957H67.888c-2.264,0.001-4.435-0.897-6.035-2.498s-2.499-3.772-2.498-6.035V170.29
			c-0.001-2.264,0.897-4.435,2.498-6.035s3.772-2.499,6.035-2.498h375.467c2.264-0.001,4.435,0.897,6.035,2.498
			c1.601,1.601,2.499,3.772,2.498,6.035v34.133c0.001,2.264-0.897,4.435-2.498,6.035C447.79,212.06,445.619,212.958,443.355,212.957
			z M76.422,195.89h358.4v-17.067h-358.4V195.89z"/>
		<path style="fill:#428DFF;" d="M434.822,178.824h-358.4c-2.264,0.001-4.435-0.897-6.035-2.498
			c-1.601-1.601-2.499-3.772-2.498-6.035v-25.6c-0.001-2.264,0.897-4.435,2.498-6.035c1.601-1.601,3.772-2.499,6.035-2.498h358.4
			c2.264-0.001,4.435,0.897,6.035,2.498c1.601,1.601,2.499,3.772,2.498,6.035v25.6c0.001,2.264-0.897,4.435-2.498,6.035
			C439.256,177.926,437.085,178.825,434.822,178.824L434.822,178.824z M84.955,161.757h341.333v-8.533H84.955V161.757z"/>
		<path style="fill:#428DFF;" d="M426.288,153.224H84.955c-2.264,0.001-4.435-0.897-6.035-2.498
			c-1.601-1.601-2.499-3.772-2.498-6.035v-25.6c-0.001-2.264,0.897-4.435,2.498-6.035c1.601-1.601,3.772-2.499,6.035-2.498h341.333
			c2.264-0.001,4.435,0.897,6.035,2.498c1.601,1.601,2.499,3.772,2.498,6.035v25.6c0.001,2.264-0.897,4.435-2.498,6.035
			C430.723,152.326,428.552,153.225,426.288,153.224z M93.488,136.157h324.267v-8.533H93.488V136.157z"/>
		<path style="fill:#428DFF;" d="M466.888,451.89H44.355c-4.22,0.001-7.806-3.085-8.433-7.258l-15.517-102.4
			c-0.373-2.457,0.345-4.955,1.965-6.84c1.62-1.885,3.983-2.969,6.468-2.968h453.567c2.486,0,4.848,1.084,6.468,2.968
			c1.62,1.885,2.338,4.383,1.965,6.84l-15.517,102.4C474.694,448.805,471.108,451.892,466.888,451.89L466.888,451.89z
			 M51.697,434.824h407.85l12.933-85.333H38.763L51.697,434.824z"/>
		<path style="fill:#428DFF;" d="M37.296,405.307c-3.451-0.001-6.562-2.08-7.882-5.268c-1.32-3.188-0.591-6.858,1.849-9.298
			l55.817-55.817c3.336-3.308,8.719-3.296,12.041,0.025c3.322,3.322,3.334,8.704,0.026,12.041L43.33,402.807
			C41.732,404.41,39.56,405.31,37.296,405.307z"/>
		<path style="fill:#428DFF;" d="M50.447,451.89c-3.451-0.001-6.562-2.08-7.882-5.268c-1.32-3.188-0.591-6.858,1.849-9.298
			l102.4-102.4c3.339-3.29,8.707-3.271,12.022,0.044c3.315,3.315,3.335,8.683,0.044,12.022l-102.4,102.4
			C54.882,450.993,52.71,451.893,50.447,451.89z"/>
		<path style="fill:#428DFF;" d="M118.713,451.89c-3.451-0.001-6.562-2.08-7.882-5.268c-1.32-3.188-0.591-6.858,1.849-9.298
			l102.4-102.4c3.339-3.29,8.707-3.271,12.022,0.044c3.315,3.315,3.335,8.683,0.044,12.022l-102.4,102.4
			C123.148,450.993,120.977,451.893,118.713,451.89z"/>
		<path style="fill:#428DFF;" d="M186.98,451.89c-3.451-0.001-6.562-2.08-7.882-5.268c-1.32-3.188-0.591-6.858,1.849-9.298
			l102.4-102.4c3.339-3.29,8.707-3.271,12.022,0.044c3.315,3.315,3.335,8.683,0.044,12.022l-102.4,102.4
			C191.415,450.993,189.244,451.893,186.98,451.89z"/>
		<path style="fill:#428DFF;" d="M255.247,451.89c-3.451-0.001-6.562-2.08-7.882-5.268s-0.591-6.858,1.849-9.298l102.4-102.4
			c3.339-3.29,8.707-3.271,12.022,0.044c3.315,3.315,3.335,8.683,0.044,12.022l-102.4,102.4
			C259.682,450.993,257.51,451.893,255.247,451.89z"/>
		<path style="fill:#428DFF;" d="M323.513,451.89c-3.451-0.001-6.562-2.08-7.882-5.268s-0.591-6.858,1.849-9.298l102.4-102.4
			c3.339-3.29,8.707-3.271,12.022,0.044c3.315,3.315,3.335,8.683,0.044,12.022l-102.4,102.4
			C327.948,450.993,325.777,451.893,323.513,451.89z"/>
		<path style="fill:#428DFF;" d="M391.78,451.89c-3.451-0.001-6.562-2.08-7.882-5.268c-1.32-3.188-0.591-6.858,1.849-9.298
			l88.516-88.516c3.337-3.304,8.716-3.29,12.036,0.03s3.334,8.699,0.031,12.036l-88.517,88.516
			C396.215,450.993,394.044,451.893,391.78,451.89z"/>
	</g>
</g>
<g>
</g>
<g>
</g>
<g>
</g>
<g>
</g>
<g>
</g>
<g>
</g>
<g>
</g>
<g>
</g>
<g>
</g>
<g>
</g>
<g>
</g>
<g>
</g>
<g>
</g>
<g>
</g>
<g>
</g>
</svg>
