<?xml version="1.0" encoding="iso-8859-1"?>
<!-- Generator: Adobe Illustrator 19.0.0, SVG Export Plug-In . SVG Version: 6.00 Build 0)  -->
<svg version="1.1" id="Capa_1" xmlns="http://www.w3.org/2000/svg" xmlns:xlink="http://www.w3.org/1999/xlink" x="0px" y="0px"
	 viewBox="0 0 512 512" style="enable-background:new 0 0 512 512;" xml:space="preserve">
<g>
	<path style="fill:#A4C2F7;" d="M403.833,456.533H21.89c-4.155,0-8.074-1.935-10.6-5.234c-2.526-3.299-3.372-7.587-2.287-11.598
		l86.746-237.834c1.574-5.822,6.856-9.867,12.887-9.867h381.943c8.79,0,12.887,8.4,12.887,16.833L416.72,446.667
		C415.147,452.489,409.865,456.533,403.833,456.533L403.833,456.533z"/>
	<path style="fill:#E3E7F2;" d="M378.233,456.533H21.89c-4.155,0-8.074-1.935-10.6-5.234c-2.526-3.299-3.372-7.587-2.287-11.598
		l86.746-237.834c1.574-5.822,6.856-9.867,12.887-9.867h356.343c8.79,0,12.887,8.4,12.887,16.833L391.12,446.667
		C389.547,452.489,384.265,456.533,378.233,456.533L378.233,456.533z"/>
	<path style="fill:#A4C2F7;" d="M411.883,115.2H221.867L179.2,55.466H23.317c-3.921,0-7.681,1.557-10.454,4.33
		s-4.33,6.533-4.33,10.454v364.609c0.591,0.021,1.175,0.05,1.753,0.087l85.463-233.079c1.573-5.823,6.856-9.868,12.887-9.867h318.03
		v-62.017c0-3.921-1.557-7.681-4.33-10.454S415.804,115.199,411.883,115.2z"/>
	<polygon style="fill:#7FACFA;" points="51.2,98.133 51.2,166.4 85.333,132.266 443.733,132.266 443.733,98.133 	"/>
	<polygon style="fill:#E3E7F2;" points="51.2,98.133 51.2,166.4 85.333,132.266 418.133,132.266 418.133,98.133 	"/>
	
		<linearGradient id="SVGID_1_" gradientUnits="userSpaceOnUse" x1="-48.7149" y1="652.5069" x2="-48.2049" y2="651.5947" gradientTransform="matrix(426.6667 0 0 -238.5333 20891.8008 155755.4688)">
		<stop  offset="0" style="stop-color:#D4E1F4"/>
		<stop  offset="0.1717" style="stop-color:#D4E1F4"/>
		<stop  offset="0.2" style="stop-color:#D4E1F4"/>
		<stop  offset="0.2001" style="stop-color:#DAE4F4"/>
		<stop  offset="0.2007" style="stop-color:#EBEBF4"/>
		<stop  offset="0.2014" style="stop-color:#F6F1F4"/>
		<stop  offset="0.2023" style="stop-color:#FDF4F4"/>
		<stop  offset="0.205" style="stop-color:#FFF5F4"/>
		<stop  offset="0.2522" style="stop-color:#FFF5F4"/>
		<stop  offset="0.26" style="stop-color:#FFF5F4"/>
		<stop  offset="0.26" style="stop-color:#D4E1F4"/>
		<stop  offset="0.3974" style="stop-color:#D4E1F4"/>
		<stop  offset="0.42" style="stop-color:#D4E1F4"/>
		<stop  offset="0.4201" style="stop-color:#DAE4F4"/>
		<stop  offset="0.4207" style="stop-color:#EBEBF4"/>
		<stop  offset="0.4214" style="stop-color:#F6F1F4"/>
		<stop  offset="0.4223" style="stop-color:#FDF4F4"/>
		<stop  offset="0.425" style="stop-color:#FFF5F4"/>
		<stop  offset="0.4894" style="stop-color:#FFF5F4"/>
		<stop  offset="0.5" style="stop-color:#FFF5F4"/>
		<stop  offset="0.5" style="stop-color:#F9F2F4"/>
		<stop  offset="0.5001" style="stop-color:#E8EBF4"/>
		<stop  offset="0.5003" style="stop-color:#DDE5F4"/>
		<stop  offset="0.5005" style="stop-color:#D6E2F4"/>
		<stop  offset="0.501" style="stop-color:#D4E1F4"/>
		<stop  offset="0.7062" style="stop-color:#D4E1F4"/>
		<stop  offset="0.74" style="stop-color:#D4E1F4"/>
		<stop  offset="0.741" style="stop-color:#FFF5F4"/>
		<stop  offset="0.8346" style="stop-color:#FFF5F4"/>
		<stop  offset="0.85" style="stop-color:#FFF5F4"/>
		<stop  offset="0.851" style="stop-color:#D4E1F4"/>
	</linearGradient>
	<path style="fill:url(#SVGID_1_);" d="M435.2,132.266H85.333l-51.2,51.2V370.8l61.616-168.933
		c1.573-5.823,6.855-9.868,12.887-9.867H460.8v-59.733H435.2z"/>
	<path style="fill:#FFFFFF;" d="M34.133,55.466H31.15c-3.921,0-7.681,1.557-10.454,4.329s-4.33,6.533-4.33,10.454v364.609
		c0.591,0.021,1.176,0.05,1.753,0.087l16.013-46.679V55.466z"/>
	<g>
		<path style="fill:#428DFF;" d="M403.833,465.066H21.892c-6.813,0-13.238-3.173-17.379-8.583
			c-4.141-5.41-5.526-12.441-3.746-19.017l86.967-238.525c2.752-9.233,11.271-15.538,20.905-15.475h381.941
			c12.413,0,21.421,10.667,21.421,25.367c0,0.998-0.175,1.988-0.517,2.925l-86.746,237.833
			C421.985,458.824,413.467,465.13,403.833,465.066z M108.638,200.533c-2.174,0.004-4.078,1.461-4.65,3.558L17.021,442.625
			c-0.147,1.256,0.232,2.516,1.046,3.483c0.901,1.204,2.321,1.906,3.825,1.892h381.942c2.174-0.004,4.078-1.461,4.65-3.558
			l86.379-236.917c-0.212-2.333-1.042-6.992-4.283-6.992H108.638z"/>
		<path style="fill:#428DFF;" d="M256,200.533c-2.263,0.001-4.434-0.898-6.035-2.499c-1.6-1.6-2.499-3.771-2.499-6.035v-17.067
			c0-4.713,3.821-8.533,8.533-8.533c4.713,0,8.533,3.82,8.533,8.533V192c0.001,2.263-0.898,4.434-2.499,6.035
			C260.434,199.635,258.263,200.534,256,200.533z"/>
		<path style="fill:#428DFF;" d="M315.733,200.533c-2.263,0.001-4.434-0.898-6.035-2.499c-1.6-1.6-2.499-3.771-2.499-6.035v-17.067
			c0-4.713,3.821-8.533,8.533-8.533c4.713,0,8.533,3.82,8.533,8.533V192c0.001,2.263-0.898,4.434-2.499,6.035
			C320.168,199.635,317.997,200.534,315.733,200.533z"/>
		<path style="fill:#428DFF;" d="M375.467,200.533c-2.263,0.001-4.434-0.898-6.035-2.499c-1.6-1.6-2.499-3.771-2.499-6.035v-17.067
			c0-4.713,3.821-8.533,8.533-8.533c4.713,0,8.533,3.82,8.533,8.533V192c0.001,2.263-0.898,4.434-2.499,6.035
			C379.901,199.635,377.73,200.534,375.467,200.533z"/>
		<path style="fill:#428DFF;" d="M136.533,200.533c-2.263,0.001-4.434-0.898-6.035-2.499c-1.6-1.6-2.499-3.771-2.499-6.035v-17.067
			c0-4.713,3.821-8.533,8.533-8.533s8.533,3.82,8.533,8.533V192c0.001,2.263-0.898,4.434-2.499,6.035
			C140.968,199.635,138.797,200.534,136.533,200.533z"/>
		<path style="fill:#428DFF;" d="M196.267,200.533c-2.263,0.001-4.434-0.898-6.035-2.499c-1.6-1.6-2.499-3.771-2.499-6.035v-17.067
			c0-4.713,3.821-8.533,8.533-8.533s8.533,3.82,8.533,8.533V192c0.001,2.263-0.898,4.434-2.499,6.035
			C200.701,199.635,198.53,200.534,196.267,200.533z"/>
		<path style="fill:#428DFF;" d="M85.333,192h-51.2c-4.713,0-8.533-3.821-8.533-8.533c0-4.713,3.821-8.533,8.533-8.533H76.8v-42.667
			c0-4.713,3.821-8.533,8.533-8.533s8.533,3.821,8.533,8.533v51.2c0.001,2.263-0.898,4.434-2.499,6.035
			C89.768,191.102,87.597,192,85.333,192L85.333,192z"/>
		<path style="fill:#428DFF;" d="M34.138,379.333c-0.499,0.001-0.997-0.044-1.488-0.133c-4.078-0.716-7.052-4.259-7.05-8.4V183.466
			c0-2.263,0.899-4.434,2.5-6.033l51.2-51.2c1.6-1.6,3.77-2.5,6.033-2.5H460.8c2.263-0.001,4.434,0.898,6.035,2.499
			c1.6,1.6,2.499,3.771,2.499,6.035V192c0.001,2.263-0.898,4.434-2.499,6.035c-1.6,1.6-3.771,2.499-6.035,2.499H108.638
			c-2.174,0.004-4.078,1.461-4.65,3.558c-0.063,0.242-0.138,0.467-0.221,0.7L42.15,373.725
			C40.919,377.089,37.72,379.329,34.138,379.333L34.138,379.333z M42.667,187v135.5l44.958-123.258
			c2.728-9.338,11.284-15.761,21.013-15.775h343.629V140.8h-363.4L42.667,187z"/>
		<path style="fill:#428DFF;" d="M10.292,443.483c-0.204,0-0.408-0.009-0.617-0.025l-1.5-0.075c-4.57-0.191-8.176-3.951-8.175-8.525
			V70.25c0.014-12.872,10.445-23.303,23.317-23.317H179.2c2.756,0.002,5.343,1.333,6.946,3.575l30.475,42.667
			c1.858,2.601,2.105,6.023,0.642,8.864c-1.463,2.842-4.392,4.628-7.588,4.627H59.733v59.733c0,2.263-0.899,4.434-2.5,6.033
			L42.667,187v182.908c0.001,1.001-0.175,1.994-0.521,2.933L18.3,437.883C17.07,441.245,13.872,443.481,10.292,443.483z M23.317,64
			c-3.451,0.003-6.247,2.799-6.25,6.25v321.417l8.533-23.275V183.466c0-2.263,0.899-4.434,2.5-6.033l14.566-14.567V98.133
			c-0.001-2.263,0.898-4.434,2.499-6.035c1.6-1.6,3.771-2.499,6.035-2.499h141.892L174.808,64H23.317z"/>
		<path style="fill:#428DFF;" d="M51.2,174.933c-4.713,0-8.533-3.821-8.533-8.533V98.133c-0.001-2.263,0.898-4.434,2.499-6.035
			c1.6-1.6,3.771-2.499,6.035-2.499h392.533c2.263-0.001,4.434,0.898,6.035,2.499c1.6,1.6,2.499,3.771,2.499,6.035v34.133
			c0.001,2.263-0.898,4.434-2.499,6.035c-1.6,1.6-3.771,2.499-6.035,2.499H88.867l-31.634,31.633
			C55.634,174.034,53.463,174.934,51.2,174.933L51.2,174.933z M59.733,106.666V145.8L79.3,126.233c1.6-1.6,3.77-2.499,6.033-2.5
			H435.2v-17.067H59.733z"/>
	</g>
</g>
<g>
</g>
<g>
</g>
<g>
</g>
<g>
</g>
<g>
</g>
<g>
</g>
<g>
</g>
<g>
</g>
<g>
</g>
<g>
</g>
<g>
</g>
<g>
</g>
<g>
</g>
<g>
</g>
<g>
</g>
</svg>
