<?xml version="1.0" encoding="iso-8859-1"?>
<!-- Generator: Adobe Illustrator 19.0.0, SVG Export Plug-In . SVG Version: 6.00 Build 0)  -->
<svg version="1.1" id="Capa_1" xmlns="http://www.w3.org/2000/svg" xmlns:xlink="http://www.w3.org/1999/xlink" x="0px" y="0px"
	 viewBox="0 0 512 512" style="enable-background:new 0 0 512 512;" xml:space="preserve">
<g>
	
		<linearGradient id="SVGID_1_" gradientUnits="userSpaceOnUse" x1="-48.9226" y1="652.4423" x2="-48.0674" y2="651.4932" gradientTransform="matrix(324.2667 0 0 -292.2209 15916.791 190689.75)">
		<stop  offset="0" style="stop-color:#D4E1F4"/>
		<stop  offset="0.1717" style="stop-color:#D4E1F4"/>
		<stop  offset="0.2" style="stop-color:#D4E1F4"/>
		<stop  offset="0.2001" style="stop-color:#DAE4F4"/>
		<stop  offset="0.2007" style="stop-color:#EBEBF4"/>
		<stop  offset="0.2014" style="stop-color:#F6F1F4"/>
		<stop  offset="0.2023" style="stop-color:#FDF4F4"/>
		<stop  offset="0.205" style="stop-color:#FFF5F4"/>
		<stop  offset="0.2522" style="stop-color:#FFF5F4"/>
		<stop  offset="0.26" style="stop-color:#FFF5F4"/>
		<stop  offset="0.26" style="stop-color:#D4E1F4"/>
		<stop  offset="0.3974" style="stop-color:#D4E1F4"/>
		<stop  offset="0.42" style="stop-color:#D4E1F4"/>
		<stop  offset="0.4201" style="stop-color:#DAE4F4"/>
		<stop  offset="0.4207" style="stop-color:#EBEBF4"/>
		<stop  offset="0.4214" style="stop-color:#F6F1F4"/>
		<stop  offset="0.4223" style="stop-color:#FDF4F4"/>
		<stop  offset="0.425" style="stop-color:#FFF5F4"/>
		<stop  offset="0.4894" style="stop-color:#FFF5F4"/>
		<stop  offset="0.5" style="stop-color:#FFF5F4"/>
		<stop  offset="0.5" style="stop-color:#F9F2F4"/>
		<stop  offset="0.5001" style="stop-color:#E8EBF4"/>
		<stop  offset="0.5003" style="stop-color:#DDE5F4"/>
		<stop  offset="0.5005" style="stop-color:#D6E2F4"/>
		<stop  offset="0.501" style="stop-color:#D4E1F4"/>
		<stop  offset="0.7062" style="stop-color:#D4E1F4"/>
		<stop  offset="0.74" style="stop-color:#D4E1F4"/>
		<stop  offset="0.741" style="stop-color:#FFF5F4"/>
		<stop  offset="0.8346" style="stop-color:#FFF5F4"/>
		<stop  offset="0.85" style="stop-color:#FFF5F4"/>
		<stop  offset="0.851" style="stop-color:#D4E1F4"/>
	</linearGradient>
	<path style="fill:url(#SVGID_1_);" d="M273.067,8.533H76.8v292.221L95.75,248.8c1.573-5.823,6.855-9.868,12.887-9.867h292.43
		v-102.4L273.067,8.533z"/>
	<g>
		<path style="fill:#A4C2F7;" d="M398.608,136.533H273.067V10.993c0-0.412,0.248-0.783,0.629-0.941
			c0.381-0.158,0.819-0.071,1.11,0.221l124.522,124.522c0.291,0.291,0.378,0.73,0.221,1.11
			C399.391,136.285,399.02,136.533,398.608,136.533L398.608,136.533z"/>
		<path style="fill:#A4C2F7;" d="M76.8,102.4H23.317c-3.921,0-7.681,1.557-10.454,4.33c-2.772,2.772-4.33,6.533-4.33,10.454v364.609
			c0.591,0.021,1.175,0.05,1.753,0.087l66.514-181.4V102.4z"/>
	</g>
	<path style="fill:#FFFFFF;" d="M34.134,117.183c0-3.921,1.557-7.681,4.33-10.454c2.772-2.772,6.533-4.33,10.454-4.33h-25.6
		c-3.921,0-7.681,1.557-10.454,4.33c-2.772,2.772-4.33,6.533-4.33,10.454v364.609c0.591,0.021,1.175,0.05,1.753,0.087l23.847-65.038
		V117.183z"/>
	<path style="fill:#7FACFA;" d="M437.484,162.133h-36.417v76.8h51.2v-62.017c0-3.921-1.557-7.681-4.33-10.454
		S441.404,162.133,437.484,162.133L437.484,162.133z"/>
	<g>
		<path style="fill:#A4C2F7;" d="M411.884,162.133h-10.817v76.8h25.6v-62.017c0-3.921-1.557-7.681-4.33-10.454
			S415.805,162.133,411.884,162.133L411.884,162.133z"/>
		<path style="fill:#A4C2F7;" d="M403.834,503.467H21.891c-4.155,0-8.074-1.935-10.6-5.234s-3.372-7.587-2.287-11.598L95.75,248.8
			c1.574-5.822,6.856-9.867,12.887-9.867H490.58c8.79,0,12.887,8.4,12.887,16.833L416.721,493.6
			C415.147,499.423,409.865,503.467,403.834,503.467L403.834,503.467z"/>
	</g>
	<path style="fill:#E3E7F2;" d="M378.234,503.467H21.891c-4.155,0-8.074-1.935-10.6-5.234s-3.372-7.587-2.287-11.598L95.75,248.8
		c1.574-5.822,6.856-9.867,12.887-9.867H464.98c8.79,0,12.887,8.4,12.887,16.833L391.121,493.6
		C389.547,499.423,384.265,503.467,378.234,503.467L378.234,503.467z"/>
	<g>
		<path style="fill:#428DFF;" d="M403.834,512H21.892c-6.813,0-13.238-3.173-17.379-8.583c-4.141-5.41-5.526-12.441-3.746-19.017
			l86.967-238.525c2.752-9.233,11.271-15.538,20.905-15.475h381.941c12.413,0,21.421,10.667,21.421,25.367
			c0,0.998-0.175,1.988-0.517,2.925l-86.746,237.833C421.986,505.757,413.467,512.063,403.834,512z M108.638,247.467
			c-2.174,0.004-4.078,1.461-4.65,3.558L17.021,489.558c-0.147,1.256,0.232,2.516,1.046,3.483c0.901,1.204,2.321,1.906,3.825,1.892
			h381.942c2.174-0.004,4.078-1.461,4.65-3.558l86.379-236.917c-0.212-2.333-1.042-6.992-4.283-6.992H108.638z"/>
		<path style="fill:#428DFF;" d="M221.867,145.067h-85.333c-4.713,0-8.533-3.821-8.533-8.533s3.821-8.533,8.533-8.533h85.333
			c4.713,0,8.533,3.821,8.533,8.533S226.58,145.067,221.867,145.067z"/>
		<path style="fill:#428DFF;" d="M221.867,85.333h-85.333c-4.713,0-8.533-3.82-8.533-8.533c0-4.713,3.821-8.533,8.533-8.533h85.333
			c4.713,0,8.533,3.821,8.533,8.533C230.4,81.513,226.58,85.333,221.867,85.333z"/>
		<path style="fill:#428DFF;" d="M341.334,204.8h-204.8c-4.713,0-8.533-3.821-8.533-8.533s3.821-8.533,8.533-8.533h204.8
			c4.713,0,8.533,3.821,8.533,8.533S346.046,204.8,341.334,204.8z"/>
		<path style="fill:#428DFF;" d="M398.609,145.067H273.067c-2.263,0.001-4.434-0.898-6.035-2.499c-1.6-1.6-2.499-3.771-2.499-6.035
			V10.992c-0.001-3.864,2.326-7.347,5.896-8.825s7.678-0.659,10.408,2.075l124.525,124.517c2.731,2.732,3.548,6.841,2.07,10.41
			S402.472,145.066,398.609,145.067z M281.6,128h98.867L281.6,29.141V128z"/>
		<path style="fill:#428DFF;" d="M76.804,309.283c-0.499,0.001-0.997-0.044-1.488-0.133c-4.078-0.716-7.052-4.259-7.05-8.4V8.533
			c-0.001-2.263,0.898-4.434,2.499-6.035c1.6-1.6,3.771-2.499,6.035-2.499h196.267c2.263,0.001,4.433,0.9,6.033,2.5l128,128
			c1.601,1.6,2.5,3.77,2.5,6.033v102.4c0.001,2.263-0.898,4.434-2.499,6.035c-1.6,1.6-3.771,2.499-6.035,2.499H108.638
			c-2.174,0.004-4.078,1.461-4.65,3.558c-0.063,0.242-0.138,0.467-0.221,0.7l-18.95,51.95
			C83.586,307.04,80.387,309.279,76.804,309.283z M85.334,17.067v235.392l2.292-6.283c2.728-9.338,11.284-15.762,21.013-15.775
			h283.896v-90.333l-123-123H85.334z"/>
		<path style="fill:#428DFF;" d="M452.267,247.467h-51.2c-2.263,0.001-4.434-0.898-6.035-2.499c-1.6-1.6-2.499-3.771-2.499-6.035
			v-76.8c-0.001-2.263,0.898-4.434,2.499-6.035c1.6-1.6,3.771-2.499,6.035-2.499h36.417c12.872,0.014,23.303,10.445,23.317,23.317
			v62.017c0.001,2.263-0.898,4.434-2.499,6.035C456.701,246.568,454.53,247.467,452.267,247.467z M409.6,230.4h34.133v-53.483
			c-0.003-3.451-2.799-6.247-6.25-6.25H409.6V230.4z"/>
		<path style="fill:#428DFF;" d="M10.292,490.417c-0.204,0-0.408-0.009-0.617-0.025l-1.5-0.075c-4.57-0.191-8.176-3.951-8.175-8.525
			V117.183c0.014-12.872,10.445-23.303,23.317-23.317H76.8c2.263-0.001,4.434,0.898,6.035,2.499s2.499,3.771,2.499,6.035v198.083
			c0.001,1.004-0.176,1.999-0.521,2.942L18.3,484.825C17.065,488.182,13.869,490.414,10.292,490.417z M23.317,110.933
			c-3.451,0.003-6.247,2.799-6.25,6.25v321.425l51.2-139.642V110.933H23.317z"/>
	</g>
</g>
<g>
</g>
<g>
</g>
<g>
</g>
<g>
</g>
<g>
</g>
<g>
</g>
<g>
</g>
<g>
</g>
<g>
</g>
<g>
</g>
<g>
</g>
<g>
</g>
<g>
</g>
<g>
</g>
<g>
</g>
</svg>
