<?xml version="1.0" encoding="iso-8859-1"?>
<!-- Generator: Adobe Illustrator 19.0.0, SVG Export Plug-In . SVG Version: 6.00 Build 0)  -->
<svg version="1.1" id="Capa_1" xmlns="http://www.w3.org/2000/svg" xmlns:xlink="http://www.w3.org/1999/xlink" x="0px" y="0px"
	 viewBox="0 0 512.001 512.001" style="enable-background:new 0 0 512.001 512.001;" xml:space="preserve">
<g>
	<g>
		<polygon style="fill:#E3E7F2;" points="93.867,253.961 93.867,25.6 68.267,25.6 68.267,324.147 		"/>
		<polygon style="fill:#E3E7F2;" points="68.267,324.147 68.267,42.667 42.667,42.667 42.667,394.334 		"/>
	</g>
	
		<linearGradient id="SVGID_1_" gradientUnits="userSpaceOnUse" x1="-48.7878" y1="652.514" x2="-47.9326" y2="651.384" gradientTransform="matrix(324.2667 0 0 -245.4292 15933.8477 160134.7813)">
		<stop  offset="0" style="stop-color:#D4E1F4"/>
		<stop  offset="0.1717" style="stop-color:#D4E1F4"/>
		<stop  offset="0.2" style="stop-color:#D4E1F4"/>
		<stop  offset="0.2001" style="stop-color:#DAE4F4"/>
		<stop  offset="0.2007" style="stop-color:#EBEBF4"/>
		<stop  offset="0.2014" style="stop-color:#F6F1F4"/>
		<stop  offset="0.2023" style="stop-color:#FDF4F4"/>
		<stop  offset="0.205" style="stop-color:#FFF5F4"/>
		<stop  offset="0.2522" style="stop-color:#FFF5F4"/>
		<stop  offset="0.26" style="stop-color:#FFF5F4"/>
		<stop  offset="0.26" style="stop-color:#D4E1F4"/>
		<stop  offset="0.3974" style="stop-color:#D4E1F4"/>
		<stop  offset="0.42" style="stop-color:#D4E1F4"/>
		<stop  offset="0.4201" style="stop-color:#DAE4F4"/>
		<stop  offset="0.4207" style="stop-color:#EBEBF4"/>
		<stop  offset="0.4214" style="stop-color:#F6F1F4"/>
		<stop  offset="0.4223" style="stop-color:#FDF4F4"/>
		<stop  offset="0.425" style="stop-color:#FFF5F4"/>
		<stop  offset="0.4894" style="stop-color:#FFF5F4"/>
		<stop  offset="0.5" style="stop-color:#FFF5F4"/>
		<stop  offset="0.5" style="stop-color:#F9F2F4"/>
		<stop  offset="0.5001" style="stop-color:#E8EBF4"/>
		<stop  offset="0.5003" style="stop-color:#DDE5F4"/>
		<stop  offset="0.5005" style="stop-color:#D6E2F4"/>
		<stop  offset="0.501" style="stop-color:#D4E1F4"/>
		<stop  offset="0.7062" style="stop-color:#D4E1F4"/>
		<stop  offset="0.74" style="stop-color:#D4E1F4"/>
		<stop  offset="0.741" style="stop-color:#FFF5F4"/>
		<stop  offset="0.8346" style="stop-color:#FFF5F4"/>
		<stop  offset="0.85" style="stop-color:#FFF5F4"/>
		<stop  offset="0.851" style="stop-color:#D4E1F4"/>
	</linearGradient>
	<path style="fill:url(#SVGID_1_);" d="M392.534,8.533H93.867v245.429l1.883-5.163c1.573-5.823,6.855-9.868,12.887-9.867h309.497
		V8.533H392.534z"/>
	<path style="fill:#A4C2F7;" d="M437.484,162.133h-19.35v76.8h34.133v-62.017c0-3.921-1.557-7.681-4.33-10.454
		S441.405,162.133,437.484,162.133L437.484,162.133z"/>
	<path style="fill:#FFFFFF;" d="M42.667,102.4h-19.35c-3.921,0-7.681,1.557-10.454,4.33c-2.772,2.772-4.33,6.533-4.33,10.454
		v364.609c0.591,0.021,1.175,0.05,1.753,0.087l32.38-88.309V102.4z"/>
	<path style="fill:#A4C2F7;" d="M403.834,503.467H21.891c-4.155,0-8.074-1.935-10.6-5.234s-3.372-7.587-2.287-11.598L95.75,248.8
		c1.574-5.822,6.856-9.867,12.887-9.867H490.58c8.79,0,12.887,8.4,12.887,16.833L416.721,493.6
		C415.147,499.423,409.865,503.467,403.834,503.467L403.834,503.467z"/>
	<path style="fill:#E3E7F2;" d="M378.234,503.467H21.891c-4.155,0-8.074-1.935-10.6-5.234s-3.372-7.587-2.287-11.598L95.75,248.8
		c1.574-5.822,6.856-9.867,12.887-9.867H464.98c8.79,0,12.887,8.4,12.887,16.833L391.121,493.6
		C389.547,499.423,384.265,503.467,378.234,503.467L378.234,503.467z"/>
	<g>
		<path style="fill:#428DFF;" d="M403.834,512H21.892c-6.813,0-13.238-3.173-17.379-8.583c-4.141-5.41-5.526-12.441-3.746-19.017
			l86.967-238.525c2.752-9.233,11.271-15.538,20.905-15.475h381.945c12.408,0,21.417,10.667,21.417,25.367
			c0,0.998-0.175,1.988-0.517,2.925l-86.75,237.833C421.987,505.76,413.468,512.068,403.834,512z M108.638,247.467
			c-2.174,0.004-4.078,1.461-4.65,3.558L17.021,489.558c-0.147,1.256,0.232,2.516,1.046,3.483c0.901,1.204,2.321,1.906,3.825,1.892
			h381.942c2.172,0.003,4.076-1.453,4.642-3.55l86.383-236.925c-0.208-2.334-1.041-6.992-4.275-6.992H108.638z"/>
		<path style="fill:#428DFF;" d="M358.4,145.067H153.6c-4.713,0-8.533-3.821-8.533-8.533S148.887,128,153.6,128h204.8
			c4.713,0,8.533,3.82,8.533,8.533S363.113,145.067,358.4,145.067z"/>
		<path style="fill:#428DFF;" d="M238.934,85.333H153.6c-4.713,0-8.533-3.82-8.533-8.533c0-4.713,3.821-8.533,8.533-8.533h85.333
			c4.713,0,8.533,3.821,8.533,8.533C247.467,81.513,243.646,85.333,238.934,85.333z"/>
		<path style="fill:#428DFF;" d="M358.4,204.8H153.6c-4.713,0-8.533-3.821-8.533-8.533s3.821-8.533,8.533-8.533h204.8
			c4.713,0,8.533,3.821,8.533,8.533S363.113,204.8,358.4,204.8z"/>
		<path style="fill:#428DFF;" d="M452.267,247.467h-34.133c-2.264,0.001-4.435-0.897-6.035-2.498
			c-1.601-1.601-2.499-3.772-2.498-6.035v-76.8c-0.001-2.264,0.897-4.435,2.498-6.035c1.601-1.601,3.772-2.499,6.035-2.498h19.35
			c12.872,0.014,23.303,10.445,23.317,23.317v62.017c0.001,2.264-0.897,4.435-2.498,6.035
			C456.702,246.569,454.531,247.468,452.267,247.467z M426.667,230.4h17.067v-53.483c-0.001-3.451-2.799-6.249-6.25-6.25h-10.817
			V230.4z"/>
		<path style="fill:#428DFF;" d="M10.292,490.417c-0.204,0-0.408-0.009-0.617-0.025l-1.5-0.075c-4.57-0.191-8.176-3.951-8.175-8.525
			V117.183c0.014-12.872,10.445-23.303,23.317-23.317h19.35c2.263-0.001,4.434,0.898,6.035,2.499c1.6,1.6,2.499,3.771,2.499,6.035
			v291.167c0.001,1.001-0.175,1.994-0.521,2.933L18.3,484.817C17.07,488.179,13.872,490.415,10.292,490.417z M23.317,110.933
			c-3.451,0.003-6.247,2.799-6.25,6.25V438.6l17.067-46.55V110.933H23.317z"/>
		<path style="fill:#428DFF;" d="M93.871,262.5c-0.499,0.001-0.997-0.044-1.488-0.133c-4.078-0.716-7.052-4.259-7.05-8.4V8.533
			c-0.001-2.263,0.898-4.434,2.499-6.035S91.604-0.001,93.867,0h324.267c2.264-0.001,4.435,0.897,6.035,2.498
			c1.601,1.601,2.499,3.772,2.498,6.035v230.4c0.001,2.264-0.897,4.435-2.498,6.035c-1.601,1.601-3.772,2.499-6.035,2.498H108.638
			c-2.174,0.004-4.078,1.461-4.65,3.558c-0.063,0.233-0.138,0.467-0.221,0.7l-1.883,5.167
			C100.653,260.256,97.454,262.496,93.871,262.5z M102.4,17.067v214.242c2.024-0.603,4.126-0.909,6.238-0.908H409.6V17.067H102.4z"
			/>
		<path style="fill:#428DFF;" d="M68.271,332.683c-0.499,0.001-0.997-0.044-1.488-0.133c-4.078-0.716-7.052-4.259-7.05-8.4V25.6
			c-0.001-2.263,0.898-4.434,2.499-6.035c1.6-1.6,3.771-2.499,6.035-2.499h25.6c2.263-0.001,4.434,0.898,6.035,2.499
			s2.499,3.771,2.499,6.035v228.367c0,0.998-0.175,1.988-0.517,2.925l-25.6,70.183C75.053,330.44,71.854,332.679,68.271,332.683z
			 M76.8,34.133V275.85l8.533-23.391V34.133H76.8z"/>
		<path style="fill:#428DFF;" d="M42.671,402.867c-0.499,0.001-0.997-0.044-1.488-0.133c-4.078-0.716-7.052-4.259-7.05-8.4V42.667
			c-0.001-2.263,0.898-4.434,2.499-6.035s3.771-2.499,6.035-2.499h25.6c2.263-0.001,4.434,0.898,6.035,2.499
			s2.499,3.771,2.499,6.035V324.15c0,0.998-0.175,1.988-0.517,2.925l-25.6,70.183C49.453,400.623,46.254,402.862,42.671,402.867z
			 M51.2,51.2v294.833l8.533-23.392V51.2H51.2z"/>
	</g>
</g>
<g>
</g>
<g>
</g>
<g>
</g>
<g>
</g>
<g>
</g>
<g>
</g>
<g>
</g>
<g>
</g>
<g>
</g>
<g>
</g>
<g>
</g>
<g>
</g>
<g>
</g>
<g>
</g>
<g>
</g>
</svg>
