<?xml version="1.0" encoding="iso-8859-1"?>
<!-- Generator: Adobe Illustrator 19.0.0, SVG Export Plug-In . SVG Version: 6.00 Build 0)  -->
<svg version="1.1" id="Capa_1" xmlns="http://www.w3.org/2000/svg" xmlns:xlink="http://www.w3.org/1999/xlink" x="0px" y="0px"
	 viewBox="0 0 512 512" style="enable-background:new 0 0 512 512;" xml:space="preserve">
<g>
	<polygon style="fill:#A4C2F7;" points="392.533,98.135 179.2,98.135 179.2,473.601 503.467,473.601 503.467,98.135 	"/>
	<polygon style="fill:#FFFFFF;" points="221.867,98.135 179.2,38.401 8.533,38.401 8.533,98.135 8.533,473.601 332.8,473.601 
		332.8,98.135 	"/>
	<g>
		<polygon style="fill:#E3E7F2;" points="221.867,98.135 179.2,38.401 34.133,38.401 34.133,98.135 34.133,473.601 477.867,473.601 
			477.867,98.135 		"/>
		<polygon style="fill:#E3E7F2;" points="477.867,157.868 260.651,157.868 260.651,157.603 221.867,98.135 477.867,98.135 		"/>
	</g>
	<g>
		<path style="fill:#428DFF;" d="M503.467,482.135H8.533c-2.264,0.001-4.435-0.897-6.035-2.498
			c-1.601-1.601-2.499-3.772-2.498-6.035v-435.2c-0.001-2.264,0.897-4.435,2.498-6.035c1.601-1.601,3.772-2.499,6.035-2.498H179.2
			c2.756,0,5.341,1.332,6.942,3.575l40.117,56.158h277.208c2.264-0.001,4.435,0.897,6.035,2.498
			c1.601,1.601,2.499,3.772,2.498,6.035v375.467c0.001,2.264-0.897,4.435-2.498,6.035
			C507.901,481.237,505.73,482.136,503.467,482.135z M17.067,465.068h477.867v-358.4H221.867c-2.756,0-5.341-1.332-6.942-3.575
			l-40.117-56.158H17.067V465.068z"/>
		<path style="fill:#428DFF;" d="M264.542,166.135c-2.757,0.003-5.345-1.326-6.95-3.567l-85.333-119.2
			c-1.774-2.48-2.091-5.718-0.83-8.495c1.261-2.777,3.907-4.67,6.942-4.967c3.035-0.297,5.998,1.048,7.772,3.529l85.333,119.2
			c1.861,2.6,2.113,6.021,0.652,8.865C270.667,164.344,267.739,166.132,264.542,166.135L264.542,166.135z"/>
		<path style="fill:#428DFF;" d="M256,396.801c-2.264,0.001-4.435-0.897-6.035-2.498c-1.601-1.601-2.499-3.772-2.498-6.035V217.601
			c0-4.713,3.821-8.533,8.533-8.533c4.713,0,8.533,3.821,8.533,8.533v170.667c0.001,2.264-0.897,4.435-2.498,6.035
			C260.435,395.904,258.264,396.803,256,396.801L256,396.801z"/>
		<path style="fill:#428DFF;" d="M324.267,294.401c-2.264,0.003-4.435-0.897-6.033-2.5L256,229.668l-62.234,62.234
			c-3.338,3.296-8.711,3.279-12.029-0.038c-3.317-3.317-3.334-8.691-0.038-12.029l68.267-68.267c1.6-1.601,3.77-2.5,6.033-2.5
			c2.263,0,4.433,0.899,6.033,2.5l68.267,68.267c2.44,2.441,3.169,6.11,1.849,9.299
			C330.829,292.322,327.718,294.401,324.267,294.401z"/>
		<path style="fill:#428DFF;" d="M503.467,166.401H264.533c-4.713,0-8.533-3.82-8.533-8.533s3.821-8.533,8.533-8.533h238.933
			c4.713,0,8.533,3.821,8.533,8.533S508.18,166.401,503.467,166.401z"/>
	</g>
</g>
<g>
</g>
<g>
</g>
<g>
</g>
<g>
</g>
<g>
</g>
<g>
</g>
<g>
</g>
<g>
</g>
<g>
</g>
<g>
</g>
<g>
</g>
<g>
</g>
<g>
</g>
<g>
</g>
<g>
</g>
</svg>
