<?xml version="1.0" encoding="iso-8859-1"?>
<!-- Generator: Adobe Illustrator 19.0.0, SVG Export Plug-In . SVG Version: 6.00 Build 0)  -->
<svg version="1.1" id="Capa_1" xmlns="http://www.w3.org/2000/svg" xmlns:xlink="http://www.w3.org/1999/xlink" x="0px" y="0px"
	 viewBox="0 0 512 512" style="enable-background:new 0 0 512 512;" xml:space="preserve">
<g>
	<polygon style="fill:#A4C2F7;" points="392.533,98.135 179.2,98.135 179.2,473.601 503.467,473.601 503.467,98.135 	"/>
	<polygon style="fill:#FFFFFF;" points="221.867,98.135 179.2,38.401 8.533,38.401 8.533,98.135 8.533,473.601 332.8,473.601 
		332.8,98.135 	"/>
	<polygon style="fill:#E3E7F2;" points="221.867,98.135 179.2,38.401 34.133,38.401 34.133,98.135 34.133,473.601 477.867,473.601 
		477.867,98.135 	"/>
	
		<linearGradient id="SVGID_1_" gradientUnits="userSpaceOnUse" x1="-48.6254" y1="651.9093" x2="-47.7365" y2="650.7664" gradientTransform="matrix(153.6 0 0 -119.4667 7656.6001 78167.2969)">
		<stop  offset="0" style="stop-color:#D4E1F4"/>
		<stop  offset="0.1717" style="stop-color:#D4E1F4"/>
		<stop  offset="0.2" style="stop-color:#D4E1F4"/>
		<stop  offset="0.2001" style="stop-color:#DAE4F4"/>
		<stop  offset="0.2007" style="stop-color:#EBEBF4"/>
		<stop  offset="0.2014" style="stop-color:#F6F1F4"/>
		<stop  offset="0.2023" style="stop-color:#FDF4F4"/>
		<stop  offset="0.205" style="stop-color:#FFF5F4"/>
		<stop  offset="0.2522" style="stop-color:#FFF5F4"/>
		<stop  offset="0.26" style="stop-color:#FFF5F4"/>
		<stop  offset="0.26" style="stop-color:#D4E1F4"/>
		<stop  offset="0.3974" style="stop-color:#D4E1F4"/>
		<stop  offset="0.42" style="stop-color:#D4E1F4"/>
		<stop  offset="0.4201" style="stop-color:#DAE4F4"/>
		<stop  offset="0.4207" style="stop-color:#EBEBF4"/>
		<stop  offset="0.4214" style="stop-color:#F6F1F4"/>
		<stop  offset="0.4223" style="stop-color:#FDF4F4"/>
		<stop  offset="0.425" style="stop-color:#FFF5F4"/>
		<stop  offset="0.4894" style="stop-color:#FFF5F4"/>
		<stop  offset="0.5" style="stop-color:#FFF5F4"/>
		<stop  offset="0.5" style="stop-color:#F9F2F4"/>
		<stop  offset="0.5001" style="stop-color:#E8EBF4"/>
		<stop  offset="0.5003" style="stop-color:#DDE5F4"/>
		<stop  offset="0.5005" style="stop-color:#D6E2F4"/>
		<stop  offset="0.501" style="stop-color:#D4E1F4"/>
		<stop  offset="0.7062" style="stop-color:#D4E1F4"/>
		<stop  offset="0.74" style="stop-color:#D4E1F4"/>
		<stop  offset="0.741" style="stop-color:#FFF5F4"/>
		<stop  offset="0.8346" style="stop-color:#FFF5F4"/>
		<stop  offset="0.85" style="stop-color:#FFF5F4"/>
		<stop  offset="0.851" style="stop-color:#D4E1F4"/>
	</linearGradient>
	<polygon style="fill:url(#SVGID_1_);" points="307.2,294.401 179.2,294.401 179.2,413.868 307.2,413.868 332.8,413.868 
		332.8,294.401 	"/>
	<g>
		<circle style="fill:#E3E7F2;" cx="256" cy="345.601" r="25.6"/>
		<polygon style="fill:#E3E7F2;" points="477.867,157.868 260.651,157.868 260.651,157.603 221.867,98.135 477.867,98.135 		"/>
	</g>
	<g>
		<path style="fill:#428DFF;" d="M503.467,482.135H8.533c-2.264,0.001-4.435-0.897-6.035-2.498
			c-1.601-1.601-2.499-3.772-2.498-6.035v-435.2c-0.001-2.264,0.897-4.435,2.498-6.035c1.601-1.601,3.772-2.499,6.035-2.498H179.2
			c2.756,0,5.341,1.332,6.942,3.575l40.117,56.158h277.208c2.264-0.001,4.435,0.897,6.035,2.498
			c1.601,1.601,2.499,3.772,2.498,6.035v375.467c0.001,2.264-0.897,4.435-2.498,6.035
			C507.901,481.237,505.73,482.136,503.467,482.135z M17.067,465.068h477.867v-358.4H221.867c-2.756,0-5.341-1.332-6.942-3.575
			l-40.117-56.158H17.067V465.068z"/>
		<path style="fill:#428DFF;" d="M264.542,166.135c-2.757,0.003-5.345-1.326-6.95-3.567l-85.333-119.2
			c-1.774-2.48-2.091-5.718-0.83-8.495c1.261-2.777,3.907-4.67,6.942-4.967c3.035-0.297,5.998,1.048,7.772,3.529l85.333,119.2
			c1.861,2.6,2.113,6.021,0.652,8.865C270.667,164.344,267.739,166.132,264.542,166.135L264.542,166.135z"/>
		<path style="fill:#428DFF;" d="M256,396.801c-2.264,0.001-4.435-0.897-6.035-2.498c-1.601-1.601-2.499-3.772-2.498-6.035v-17.067
			c0-4.713,3.821-8.533,8.533-8.533c4.713,0,8.533,3.82,8.533,8.533v17.067c0.001,2.264-0.897,4.435-2.498,6.035
			C260.435,395.904,258.264,396.803,256,396.801L256,396.801z"/>
		<path style="fill:#428DFF;" d="M332.8,422.401H179.2c-2.264,0.001-4.435-0.897-6.035-2.498c-1.601-1.601-2.499-3.772-2.498-6.035
			V294.401c-0.001-2.264,0.897-4.435,2.498-6.035s3.772-2.499,6.035-2.498h153.6c2.264-0.001,4.435,0.897,6.035,2.498
			c1.601,1.601,2.499,3.772,2.498,6.035v119.467c0.001,2.264-0.897,4.435-2.498,6.035
			C337.235,421.504,335.064,422.403,332.8,422.401L332.8,422.401z M187.733,405.335h136.533v-102.4H187.733V405.335z"/>
		<path style="fill:#428DFF;" d="M298.667,302.935c-2.264,0.001-4.435-0.897-6.035-2.498c-1.601-1.601-2.499-3.772-2.498-6.035
			v-42.667c0-18.851-15.282-34.133-34.133-34.133c-18.851,0-34.133,15.282-34.133,34.133c0,4.713-3.821,8.533-8.533,8.533
			s-8.533-3.82-8.533-8.533c0-28.277,22.923-51.2,51.2-51.2c28.277,0,51.2,22.923,51.2,51.2v42.667
			c0.001,2.264-0.897,4.435-2.498,6.035C303.101,302.037,300.93,302.936,298.667,302.935L298.667,302.935z"/>
		<path style="fill:#428DFF;" d="M256,379.735c-18.851,0-34.133-15.282-34.133-34.133c0-18.851,15.282-34.133,34.133-34.133
			c18.851,0,34.133,15.282,34.133,34.133C290.115,364.445,274.844,379.716,256,379.735L256,379.735z M256,328.535
			c-9.426,0-17.067,7.641-17.067,17.067s7.641,17.067,17.067,17.067c9.426,0,17.067-7.641,17.067-17.067
			C273.054,336.181,265.421,328.547,256,328.535z"/>
		<path style="fill:#428DFF;" d="M503.467,166.401H264.533c-4.713,0-8.533-3.82-8.533-8.533s3.821-8.533,8.533-8.533h238.933
			c4.713,0,8.533,3.821,8.533,8.533S508.18,166.401,503.467,166.401z"/>
	</g>
</g>
<g>
</g>
<g>
</g>
<g>
</g>
<g>
</g>
<g>
</g>
<g>
</g>
<g>
</g>
<g>
</g>
<g>
</g>
<g>
</g>
<g>
</g>
<g>
</g>
<g>
</g>
<g>
</g>
<g>
</g>
</svg>
