<?xml version="1.0" encoding="iso-8859-1"?>
<!-- Generator: Adobe Illustrator 19.0.0, SVG Export Plug-In . SVG Version: 6.00 Build 0)  -->
<svg version="1.1" id="Capa_1" xmlns="http://www.w3.org/2000/svg" xmlns:xlink="http://www.w3.org/1999/xlink" x="0px" y="0px"
	 viewBox="0 0 512 512" style="enable-background:new 0 0 512 512;" xml:space="preserve">
<g>
	<polygon style="fill:#A4C2F7;" points="448,128 328.533,8.533 234.667,8.533 234.667,503.467 448,503.467 	"/>
	<polygon style="fill:#FFFFFF;" points="277.333,128 157.867,8.533 64,8.533 64,503.467 277.333,503.467 	"/>
	
		<linearGradient id="SVGID_1_" gradientUnits="userSpaceOnUse" x1="-49.0515" y1="652.5855" x2="-47.8079" y2="651.7493" gradientTransform="matrix(332.8 0 0 -494.9333 16347.7979 323061.0313)">
		<stop  offset="0" style="stop-color:#D4E1F4"/>
		<stop  offset="0.1717" style="stop-color:#D4E1F4"/>
		<stop  offset="0.2" style="stop-color:#D4E1F4"/>
		<stop  offset="0.2001" style="stop-color:#DAE4F4"/>
		<stop  offset="0.2007" style="stop-color:#EBEBF4"/>
		<stop  offset="0.2014" style="stop-color:#F6F1F4"/>
		<stop  offset="0.2023" style="stop-color:#FDF4F4"/>
		<stop  offset="0.205" style="stop-color:#FFF5F4"/>
		<stop  offset="0.2522" style="stop-color:#FFF5F4"/>
		<stop  offset="0.26" style="stop-color:#FFF5F4"/>
		<stop  offset="0.26" style="stop-color:#D4E1F4"/>
		<stop  offset="0.3974" style="stop-color:#D4E1F4"/>
		<stop  offset="0.42" style="stop-color:#D4E1F4"/>
		<stop  offset="0.4201" style="stop-color:#DAE4F4"/>
		<stop  offset="0.4207" style="stop-color:#EBEBF4"/>
		<stop  offset="0.4214" style="stop-color:#F6F1F4"/>
		<stop  offset="0.4223" style="stop-color:#FDF4F4"/>
		<stop  offset="0.425" style="stop-color:#FFF5F4"/>
		<stop  offset="0.4894" style="stop-color:#FFF5F4"/>
		<stop  offset="0.5" style="stop-color:#FFF5F4"/>
		<stop  offset="0.5" style="stop-color:#F9F2F4"/>
		<stop  offset="0.5001" style="stop-color:#E8EBF4"/>
		<stop  offset="0.5003" style="stop-color:#DDE5F4"/>
		<stop  offset="0.5005" style="stop-color:#D6E2F4"/>
		<stop  offset="0.501" style="stop-color:#D4E1F4"/>
		<stop  offset="0.7062" style="stop-color:#D4E1F4"/>
		<stop  offset="0.74" style="stop-color:#D4E1F4"/>
		<stop  offset="0.741" style="stop-color:#FFF5F4"/>
		<stop  offset="0.8346" style="stop-color:#FFF5F4"/>
		<stop  offset="0.85" style="stop-color:#FFF5F4"/>
		<stop  offset="0.851" style="stop-color:#D4E1F4"/>
	</linearGradient>
	<polygon style="fill:url(#SVGID_1_);" points="422.4,128 320,8.533 89.6,8.533 89.6,503.467 422.4,503.467 	"/>
	<polygon style="fill:#A4C2F7;" points="328.533,8.533 328.533,128 448,128 	"/>
	<g>
		<path style="fill:#428DFF;" d="M448,512H64c-2.263,0.001-4.434-0.898-6.035-2.499c-1.6-1.6-2.499-3.771-2.499-6.035V8.533
			c-0.001-2.263,0.898-4.434,2.499-6.035C59.566,0.898,61.737-0.001,64,0h264.533c2.263,0.001,4.433,0.9,6.033,2.5l119.467,119.467
			c1.601,1.6,2.5,3.77,2.5,6.033v375.467c0.001,2.263-0.898,4.434-2.499,6.035C452.434,511.102,450.263,512.001,448,512L448,512z
			 M72.533,494.933h366.933v-363.4L325,17.067H72.533V494.933z"/>
		<path style="fill:#428DFF;" d="M448,136.533H328.533c-2.263,0.001-4.434-0.898-6.035-2.499c-1.6-1.6-2.499-3.771-2.499-6.035
			V8.533C320,3.821,323.821,0,328.533,0s8.533,3.821,8.533,8.533v110.933H448c4.713,0,8.533,3.821,8.533,8.533
			C456.533,132.713,452.713,136.533,448,136.533z"/>
		<path style="fill:#428DFF;" d="M217.6,145.067h-76.8c-4.713,0-8.533-3.821-8.533-8.533S136.087,128,140.8,128h76.8
			c4.713,0,8.533,3.821,8.533,8.533S222.313,145.067,217.6,145.067z"/>
		<path style="fill:#428DFF;" d="M285.867,332.8H140.8c-4.713,0-8.533-3.82-8.533-8.533s3.82-8.533,8.533-8.533h145.067
			c4.713,0,8.533,3.821,8.533,8.533S290.579,332.8,285.867,332.8z"/>
		<path style="fill:#428DFF;" d="M371.2,273.067h-59.733c-4.713,0-8.533-3.82-8.533-8.533s3.82-8.533,8.533-8.533H371.2
			c4.713,0,8.533,3.821,8.533,8.533S375.913,273.067,371.2,273.067z"/>
		<path style="fill:#428DFF;" d="M183.467,213.333H140.8c-4.713,0-8.533-3.821-8.533-8.533c0-4.713,3.82-8.533,8.533-8.533h42.667
			c4.713,0,8.533,3.821,8.533,8.533C192,209.513,188.18,213.333,183.467,213.333z"/>
		<path style="fill:#428DFF;" d="M328.533,213.333H268.8c-4.713,0-8.533-3.821-8.533-8.533c0-4.713,3.82-8.533,8.533-8.533h59.733
			c4.713,0,8.533,3.821,8.533,8.533C337.067,209.513,333.246,213.333,328.533,213.333z"/>
		<path style="fill:#428DFF;" d="M226.133,213.333c-1.116-0.013-2.219-0.245-3.246-0.683c-1.033-0.433-1.984-1.039-2.813-1.792
			c-1.606-1.605-2.498-3.788-2.475-6.058c-0.029-1.119,0.203-2.229,0.679-3.242c0.433-1.035,1.04-1.988,1.796-2.817
			c2.441-2.462,6.129-3.201,9.331-1.872c3.202,1.329,5.281,4.464,5.261,7.931c0.021,2.27-0.87,4.453-2.475,6.059
			c-0.83,0.753-1.783,1.359-2.817,1.792C228.35,213.088,227.248,213.32,226.133,213.333L226.133,213.333z"/>
		<path style="fill:#428DFF;" d="M268.8,273.067h-85.333c-4.713,0-8.533-3.82-8.533-8.533s3.82-8.533,8.533-8.533H268.8
			c4.713,0,8.533,3.821,8.533,8.533S273.513,273.067,268.8,273.067z"/>
		<path style="fill:#428DFF;" d="M140.8,273.067c-1.12,0.027-2.232-0.206-3.246-0.683c-1.053-0.432-2.009-1.07-2.813-1.875
			c-0.768-0.805-1.403-1.728-1.879-2.733c-0.41-1.031-0.612-2.132-0.595-3.242c0.03-2.26,0.914-4.424,2.475-6.059
			c0.829-0.753,1.78-1.359,2.813-1.792c3.179-1.333,6.848-0.626,9.304,1.792c0.753,0.83,1.359,1.783,1.792,2.817
			c0.479,1.012,0.713,2.123,0.683,3.242c0.017,1.11-0.187,2.212-0.6,3.242c-0.476,1.005-1.109,1.927-1.875,2.733
			C145.283,272.168,143.088,273.095,140.8,273.067L140.8,273.067z"/>
		<path style="fill:#428DFF;" d="M371.2,392.533h-59.733c-4.713,0-8.533-3.82-8.533-8.533s3.82-8.533,8.533-8.533H371.2
			c4.713,0,8.533,3.821,8.533,8.533S375.913,392.533,371.2,392.533z"/>
		<path style="fill:#428DFF;" d="M268.8,392.533h-85.333c-4.713,0-8.533-3.82-8.533-8.533s3.82-8.533,8.533-8.533H268.8
			c4.713,0,8.533,3.821,8.533,8.533S273.513,392.533,268.8,392.533z"/>
		<path style="fill:#428DFF;" d="M140.8,392.533c-2.288,0.028-4.484-0.899-6.059-2.558c-2.44-2.409-3.152-6.068-1.796-9.217
			c0.433-1.035,1.04-1.988,1.796-2.817c2.022-1.99,4.895-2.854,7.679-2.308c0.566,0.079,1.114,0.254,1.621,0.517
			c0.545,0.184,1.062,0.442,1.538,0.767c0.446,0.317,0.873,0.659,1.28,1.025c0.753,0.83,1.359,1.783,1.792,2.817
			c1.29,3.155,0.586,6.775-1.792,9.217C145.284,391.634,143.088,392.562,140.8,392.533L140.8,392.533z"/>
		<path style="fill:#428DFF;" d="M371.2,213.333c-1.116-0.013-2.219-0.245-3.246-0.683c-1.033-0.433-1.984-1.039-2.813-1.792
			c-2.441-2.443-3.152-6.124-1.796-9.3c0.433-1.035,1.04-1.987,1.796-2.817c0.405-0.368,0.832-0.71,1.279-1.025
			c0.474-0.324,0.99-0.582,1.533-0.767c0.508-0.263,1.058-0.438,1.625-0.517c1.093-0.258,2.232-0.258,3.325,0
			c0.536,0.093,1.054,0.267,1.537,0.517c0.545,0.184,1.062,0.442,1.538,0.767c0.446,0.317,0.873,0.659,1.28,1.025
			c1.559,1.635,2.443,3.799,2.475,6.059c0.021,2.27-0.87,4.453-2.475,6.059c-0.816,0.771-1.772,1.379-2.817,1.792
			C373.416,213.088,372.315,213.32,371.2,213.333z"/>
		<path style="fill:#428DFF;" d="M328.533,332.8c-1.116-0.013-2.219-0.245-3.246-0.683c-1.044-0.412-1.998-1.02-2.813-1.792
			c-2.441-2.443-3.152-6.124-1.796-9.3c0.433-1.035,1.04-1.987,1.796-2.817c0.405-0.368,0.832-0.71,1.279-1.025
			c0.474-0.324,0.99-0.582,1.533-0.767c0.508-0.263,1.058-0.438,1.625-0.517c1.635-0.343,3.336-0.162,4.862,0.517
			c2.143,0.777,3.831,2.465,4.608,4.608c1.363,3.175,0.653,6.859-1.791,9.301c-0.83,0.753-1.783,1.359-2.817,1.792
			C330.75,332.555,329.648,332.787,328.533,332.8z"/>
		<path style="fill:#428DFF;" d="M371.2,332.8c-2.27,0.022-4.453-0.87-6.058-2.475c-1.605-1.605-2.497-3.788-2.475-6.058
			c0.011-1.115,0.242-2.216,0.679-3.242c0.411-1.046,1.021-2.003,1.796-2.817c3.4-3.212,8.716-3.212,12.117,0
			c0.772,0.815,1.381,1.772,1.792,2.817c1.362,3.175,0.653,6.859-1.791,9.301c-0.83,0.753-1.783,1.359-2.817,1.792
			C373.416,332.555,372.315,332.787,371.2,332.8z"/>
	</g>
</g>
<g>
</g>
<g>
</g>
<g>
</g>
<g>
</g>
<g>
</g>
<g>
</g>
<g>
</g>
<g>
</g>
<g>
</g>
<g>
</g>
<g>
</g>
<g>
</g>
<g>
</g>
<g>
</g>
<g>
</g>
</svg>
