<?xml version="1.0" encoding="iso-8859-1"?>
<!-- Generator: Adobe Illustrator 19.0.0, SVG Export Plug-In . SVG Version: 6.00 Build 0)  -->
<svg version="1.1" id="Capa_1" xmlns="http://www.w3.org/2000/svg" xmlns:xlink="http://www.w3.org/1999/xlink" x="0px" y="0px"
	 viewBox="0 0 512 512" style="enable-background:new 0 0 512 512;" xml:space="preserve">
<g>
	<polygon style="fill:#A4C2F7;" points="448,128 328.533,8.533 234.667,8.533 234.667,503.467 448,503.467 	"/>
	<polygon style="fill:#FFFFFF;" points="277.333,128 157.867,8.533 64,8.533 64,503.467 277.333,503.467 	"/>
	
		<linearGradient id="SVGID_1_" gradientUnits="userSpaceOnUse" x1="-49.0515" y1="652.5855" x2="-47.8079" y2="651.7493" gradientTransform="matrix(332.8 0 0 -494.9333 16347.7979 323061.0313)">
		<stop  offset="0" style="stop-color:#D4E1F4"/>
		<stop  offset="0.1717" style="stop-color:#D4E1F4"/>
		<stop  offset="0.2" style="stop-color:#D4E1F4"/>
		<stop  offset="0.2001" style="stop-color:#DAE4F4"/>
		<stop  offset="0.2007" style="stop-color:#EBEBF4"/>
		<stop  offset="0.2014" style="stop-color:#F6F1F4"/>
		<stop  offset="0.2023" style="stop-color:#FDF4F4"/>
		<stop  offset="0.205" style="stop-color:#FFF5F4"/>
		<stop  offset="0.2522" style="stop-color:#FFF5F4"/>
		<stop  offset="0.26" style="stop-color:#FFF5F4"/>
		<stop  offset="0.26" style="stop-color:#D4E1F4"/>
		<stop  offset="0.3974" style="stop-color:#D4E1F4"/>
		<stop  offset="0.42" style="stop-color:#D4E1F4"/>
		<stop  offset="0.4201" style="stop-color:#DAE4F4"/>
		<stop  offset="0.4207" style="stop-color:#EBEBF4"/>
		<stop  offset="0.4214" style="stop-color:#F6F1F4"/>
		<stop  offset="0.4223" style="stop-color:#FDF4F4"/>
		<stop  offset="0.425" style="stop-color:#FFF5F4"/>
		<stop  offset="0.4894" style="stop-color:#FFF5F4"/>
		<stop  offset="0.5" style="stop-color:#FFF5F4"/>
		<stop  offset="0.5" style="stop-color:#F9F2F4"/>
		<stop  offset="0.5001" style="stop-color:#E8EBF4"/>
		<stop  offset="0.5003" style="stop-color:#DDE5F4"/>
		<stop  offset="0.5005" style="stop-color:#D6E2F4"/>
		<stop  offset="0.501" style="stop-color:#D4E1F4"/>
		<stop  offset="0.7062" style="stop-color:#D4E1F4"/>
		<stop  offset="0.74" style="stop-color:#D4E1F4"/>
		<stop  offset="0.741" style="stop-color:#FFF5F4"/>
		<stop  offset="0.8346" style="stop-color:#FFF5F4"/>
		<stop  offset="0.85" style="stop-color:#FFF5F4"/>
		<stop  offset="0.851" style="stop-color:#D4E1F4"/>
	</linearGradient>
	<polygon style="fill:url(#SVGID_1_);" points="422.4,128 320,8.533 89.6,8.533 89.6,503.467 422.4,503.467 	"/>
	<g>
		<polygon style="fill:#A4C2F7;" points="328.533,8.533 328.533,128 448,128 		"/>
		<path style="fill:#A4C2F7;" d="M231.195,188.521l-21.431-10.946c-1.462-0.749-2.382-2.253-2.383-3.896v-6.562
			c10.475-4.739,18.054-14.198,20.394-25.454c4.763-1.456,8.024-5.841,8.05-10.821v-5.688c-0.022-4.222-2.382-8.084-6.129-10.029
			c-2.508-21.392-16.652-30.05-39.381-30.05c-1.076,0-2.132,0.042-3.167,0.125c-7.697,0.812-15.442-1.011-21.969-5.171
			c-2.446-1.565-4.638-3.494-6.502-5.721c-0.31-0.409-0.856-0.559-1.332-0.366c-0.476,0.193-0.762,0.682-0.699,1.191
			c0.228,1.992,0.567,4.312,1.071,6.85c1.879,9.446,0.756,8.067-2.896,16.975c-2.07,5.184-3.392,10.636-3.927,16.192
			c-3.725,1.951-6.068,5.799-6.09,10.004v5.688c0.026,4.98,3.287,9.365,8.05,10.821c2.34,11.256,9.919,20.716,20.394,25.454v6.517
			c0,1.667-0.947,3.188-2.442,3.925l-21.964,10.816c-3.618,2.026-6.45,5.209-8.042,9.037c29.538,21.183,69.278,21.232,98.868,0.121
			C237.962,193.646,234.97,190.464,231.195,188.521L231.195,188.521z"/>
	</g>
	<g>
		<path style="fill:#428DFF;" d="M448,512H64c-2.263,0.001-4.434-0.898-6.035-2.499c-1.6-1.6-2.499-3.771-2.499-6.035V8.533
			c-0.001-2.263,0.898-4.434,2.499-6.035C59.566,0.898,61.737-0.001,64,0h264.533c2.263,0.001,4.433,0.9,6.033,2.5l119.467,119.467
			c1.601,1.6,2.5,3.77,2.5,6.033v375.467c0.001,2.264-0.897,4.435-2.498,6.035C452.435,511.103,450.264,512.001,448,512z
			 M72.533,494.933h366.933v-363.4L325,17.067H72.533V494.933z"/>
		<path style="fill:#428DFF;" d="M448,136.533H328.533c-2.263,0.001-4.434-0.898-6.035-2.499c-1.6-1.6-2.499-3.771-2.499-6.035
			V8.533C320,3.821,323.821,0,328.533,0s8.533,3.821,8.533,8.533v110.933H448c4.713,0,8.533,3.821,8.533,8.533
			C456.533,132.713,452.713,136.533,448,136.533z"/>
		<path style="fill:#428DFF;" d="M294.4,315.733H149.333c-4.713,0-8.533-3.82-8.533-8.533s3.821-8.533,8.533-8.533H294.4
			c4.713,0,8.533,3.82,8.533,8.533S299.113,315.733,294.4,315.733z"/>
		<path style="fill:#428DFF;" d="M379.733,273.067H320c-4.713,0-8.533-3.82-8.533-8.533S315.287,256,320,256h59.733
			c4.713,0,8.533,3.821,8.533,8.533S384.446,273.067,379.733,273.067z"/>
		<path style="fill:#428DFF;" d="M277.333,273.067H192c-4.713,0-8.533-3.82-8.533-8.533S187.287,256,192,256h85.333
			c4.713,0,8.533,3.821,8.533,8.533S282.046,273.067,277.333,273.067z"/>
		<path style="fill:#428DFF;" d="M149.333,273.067c-2.288,0.028-4.484-0.899-6.059-2.558c-0.77-0.786-1.38-1.715-1.796-2.733
			c-0.475-1.013-0.707-2.123-0.679-3.242c0.03-2.26,0.914-4.424,2.475-6.059c0.829-0.753,1.78-1.359,2.813-1.792
			c2.06-0.942,4.427-0.942,6.487,0c1.044,0.413,2,1.021,2.817,1.792c0.753,0.83,1.359,1.783,1.792,2.817
			c1.29,3.155,0.586,6.775-1.792,9.217c-0.805,0.806-1.763,1.443-2.817,1.875C151.562,272.86,150.452,273.094,149.333,273.067z"/>
		<path style="fill:#428DFF;" d="M337.067,315.733c-1.116-0.013-2.219-0.245-3.246-0.683c-1.033-0.433-1.984-1.039-2.813-1.792
			c-1.606-1.604-2.498-3.788-2.475-6.058c0.03-2.26,0.914-4.424,2.475-6.059c0.8-0.79,1.759-1.4,2.813-1.792
			c2.06-0.942,4.427-0.942,6.487,0c1.044,0.413,2,1.021,2.817,1.792c0.753,0.83,1.359,1.783,1.792,2.817
			c1.362,3.175,0.653,6.859-1.791,9.301c-0.83,0.753-1.783,1.359-2.817,1.792C339.283,315.488,338.182,315.72,337.067,315.733
			L337.067,315.733z"/>
		<path style="fill:#428DFF;" d="M379.733,315.733c-1.116-0.013-2.219-0.245-3.246-0.683c-1.033-0.433-1.984-1.039-2.813-1.792
			c-1.606-1.604-2.498-3.788-2.475-6.058c0.03-2.26,0.914-4.424,2.475-6.059c0.829-0.753,1.78-1.359,2.813-1.792
			c1.528-0.679,3.23-0.86,4.867-0.517c0.566,0.079,1.114,0.254,1.621,0.517c0.545,0.184,1.062,0.442,1.538,0.767
			c0.425,0.341,0.85,0.683,1.279,1.025c1.559,1.635,2.443,3.8,2.475,6.059c0.021,2.27-0.87,4.453-2.475,6.059
			c-0.816,0.771-1.772,1.379-2.817,1.792C381.95,315.488,380.848,315.72,379.733,315.733z"/>
		<path style="fill:#428DFF;" d="M192.173,335.384c-27.084,14.095-31.787,44.573-32.717,72.219l29.135-12.068l-23.945-20.06
			c-16.732-14.017-41.001,10.007-24.136,24.136l23.945,20.059c4.958,4.653,12.181,5.971,18.462,3.369s10.457-8.642,10.672-15.437
			c0.514-15.274,0.322-34.685,15.811-42.746C228.894,354.712,211.654,325.245,192.173,335.384L192.173,335.384z"/>
		<path style="fill:#428DFF;" d="M200.479,396.997c20.684,22.481,48.761,13.757,71.608-0.262l-23.35-6.123
			c5.382,10.522,15.316,17.975,26.924,20.2c6.318,1.111,36.833-1.865,29.604-11.763c12.827,17.562,42.457,0.55,29.473-17.228
			c-4.994-8.377-13.904-13.64-23.651-13.969c-7.956-0.418-29.108,12.245-32.876,5.531c-4.83-8.042-15.196-10.76-23.35-6.123
			c-8.48,5.204-21.135,15.501-30.244,5.599C209.71,356.66,185.62,380.846,200.479,396.997L200.479,396.997z"/>
		<path style="fill:#428DFF;" d="M190.313,221.867c-19.545,0.022-38.603-6.103-54.475-17.508c-3.268-2.337-4.464-6.637-2.871-10.325
			c2.334-5.589,6.49-10.223,11.792-13.15l18.808-9.275c-8.517-5.636-14.804-14.063-17.779-23.834
			c-5.917-3.59-9.527-10.012-9.517-16.933v-5.692c0.007-5.643,2.422-11.015,6.637-14.767c0.764-5.028,2.112-9.951,4.017-14.667
			c0.867-2.108,1.6-3.683,2.196-4.966c0.357-0.719,0.677-1.456,0.958-2.208c-0.078-1.651-0.324-3.29-0.733-4.892
			c-0.554-2.792-0.925-5.35-1.179-7.542c-0.502-4.303,1.92-8.415,5.927-10.061c4.007-1.647,8.62-0.426,11.289,2.986
			c1.313,1.529,2.85,2.849,4.558,3.917c4.934,3.061,10.753,4.379,16.525,3.742c1.258-0.1,2.538-0.15,3.846-0.15
			c33.242,0,44.225,17.517,47.271,33.717c4.303,3.753,6.773,9.182,6.775,14.892v5.692c0.01,6.921-3.599,13.344-9.517,16.933
			c-2.988,9.808-9.311,18.262-17.875,23.9l18.088,9.233c5.503,2.808,9.872,7.425,12.371,13.075c1.706,3.721,0.525,8.13-2.813,10.5
			C228.774,215.81,209.784,221.889,190.313,221.867L190.313,221.867z M153.733,195.475c22.706,12.17,49.977,12.255,72.758,0.225
			l-20.608-10.525c-4.326-2.196-7.048-6.64-7.037-11.492v-6.567c0.001-3.409,2.028-6.491,5.158-7.842
			c8.077-3.699,13.863-11.081,15.525-19.808c0.758-2.832,2.914-5.078,5.713-5.95c1.188-0.357,2.014-1.435,2.05-2.675v-5.692
			c-0.026-1.053-0.632-2.005-1.575-2.475c-2.487-1.312-4.169-3.765-4.496-6.558c-1.304-11.125-6-22.508-30.908-22.508
			c-0.842,0-1.67,0.033-2.483,0.1c-7.084,0.639-14.219-0.409-20.821-3.058c-0.404,2.548-1.22,5.014-2.417,7.3
			c-0.508,1.1-1.138,2.442-1.875,4.242c-1.764,4.432-2.888,9.093-3.337,13.842c-0.293,2.823-1.971,5.315-4.475,6.65
			c-0.937,0.47-1.54,1.418-1.567,2.467v5.692c0.036,1.24,0.862,2.318,2.05,2.675c2.799,0.872,4.955,3.118,5.713,5.95
			c1.661,8.726,7.445,16.108,15.52,19.808c3.13,1.351,5.158,4.433,5.158,7.842v6.517c0.017,4.913-2.772,9.404-7.183,11.567
			L153.733,195.475z M151.975,79.592l0.017,0.025L151.975,79.592z"/>
	</g>
</g>
<g>
</g>
<g>
</g>
<g>
</g>
<g>
</g>
<g>
</g>
<g>
</g>
<g>
</g>
<g>
</g>
<g>
</g>
<g>
</g>
<g>
</g>
<g>
</g>
<g>
</g>
<g>
</g>
<g>
</g>
</svg>
