<?xml version="1.0" encoding="iso-8859-1"?>
<!-- Generator: Adobe Illustrator 19.0.0, SVG Export Plug-In . SVG Version: 6.00 Build 0)  -->
<svg version="1.1" id="Capa_1" xmlns="http://www.w3.org/2000/svg" xmlns:xlink="http://www.w3.org/1999/xlink" x="0px" y="0px"
	 viewBox="0 0 512 512" style="enable-background:new 0 0 512 512;" xml:space="preserve">
<g>
	<polygon style="fill:#A4C2F7;" points="448,128 328.533,8.533 234.667,8.533 234.667,503.467 448,503.467 	"/>
	<polygon style="fill:#FFFFFF;" points="277.333,128 157.867,8.533 64,8.533 64,503.467 277.333,503.467 	"/>
	
		<linearGradient id="SVGID_1_" gradientUnits="userSpaceOnUse" x1="-49.0515" y1="652.5855" x2="-47.8079" y2="651.7493" gradientTransform="matrix(332.8 0 0 -494.9333 16347.7969 323061.0313)">
		<stop  offset="0" style="stop-color:#D4E1F4"/>
		<stop  offset="0.1717" style="stop-color:#D4E1F4"/>
		<stop  offset="0.2" style="stop-color:#D4E1F4"/>
		<stop  offset="0.2001" style="stop-color:#DAE4F4"/>
		<stop  offset="0.2007" style="stop-color:#EBEBF4"/>
		<stop  offset="0.2014" style="stop-color:#F6F1F4"/>
		<stop  offset="0.2023" style="stop-color:#FDF4F4"/>
		<stop  offset="0.205" style="stop-color:#FFF5F4"/>
		<stop  offset="0.2522" style="stop-color:#FFF5F4"/>
		<stop  offset="0.26" style="stop-color:#FFF5F4"/>
		<stop  offset="0.26" style="stop-color:#D4E1F4"/>
		<stop  offset="0.3974" style="stop-color:#D4E1F4"/>
		<stop  offset="0.42" style="stop-color:#D4E1F4"/>
		<stop  offset="0.4201" style="stop-color:#DAE4F4"/>
		<stop  offset="0.4207" style="stop-color:#EBEBF4"/>
		<stop  offset="0.4214" style="stop-color:#F6F1F4"/>
		<stop  offset="0.4223" style="stop-color:#FDF4F4"/>
		<stop  offset="0.425" style="stop-color:#FFF5F4"/>
		<stop  offset="0.4894" style="stop-color:#FFF5F4"/>
		<stop  offset="0.5" style="stop-color:#FFF5F4"/>
		<stop  offset="0.5" style="stop-color:#F9F2F4"/>
		<stop  offset="0.5001" style="stop-color:#E8EBF4"/>
		<stop  offset="0.5003" style="stop-color:#DDE5F4"/>
		<stop  offset="0.5005" style="stop-color:#D6E2F4"/>
		<stop  offset="0.501" style="stop-color:#D4E1F4"/>
		<stop  offset="0.7062" style="stop-color:#D4E1F4"/>
		<stop  offset="0.74" style="stop-color:#D4E1F4"/>
		<stop  offset="0.741" style="stop-color:#FFF5F4"/>
		<stop  offset="0.8346" style="stop-color:#FFF5F4"/>
		<stop  offset="0.85" style="stop-color:#FFF5F4"/>
		<stop  offset="0.851" style="stop-color:#D4E1F4"/>
	</linearGradient>
	<polygon style="fill:url(#SVGID_1_);" points="422.4,128 320,8.533 89.6,8.533 89.6,503.467 422.4,503.467 	"/>
	<polygon style="fill:#A4C2F7;" points="328.533,8.533 328.533,128 448,128 	"/>
	<path style="fill:#7FACFA;" d="M350.249,256.77L350.249,256.77c1.326,3.73,4.171,6.723,7.828,8.238
		c3.657,1.515,7.785,1.41,11.361-0.29l0,0c5.347-2.542,11.714-1.443,15.9,2.743s5.284,10.553,2.743,15.9l0,0
		c-1.7,3.575-1.805,7.703-0.29,11.361c1.515,3.657,4.508,6.502,8.238,7.828l0,0c5.578,1.983,9.303,7.263,9.303,13.183
		s-3.726,11.199-9.303,13.183l0,0c-3.73,1.326-6.723,4.171-8.238,7.828c-1.515,3.657-1.41,7.785,0.29,11.361l0,0
		c2.542,5.347,1.443,11.714-2.743,15.9c-4.186,4.186-10.553,5.284-15.9,2.743l0,0c-3.575-1.7-7.703-1.805-11.361-0.29
		c-3.657,1.515-6.502,4.508-7.828,8.238l0,0c-1.983,5.578-7.263,9.303-13.183,9.303s-11.199-3.726-13.183-9.303l0,0
		c-1.326-3.73-4.171-6.723-7.828-8.238c-3.657-1.515-7.785-1.41-11.361,0.29l0,0c-5.347,2.542-11.714,1.443-15.9-2.743
		c-4.186-4.186-5.284-10.553-2.743-15.9l0,0c1.7-3.575,1.805-7.703,0.29-11.361c-1.515-3.657-4.508-6.502-8.238-7.828l0,0
		c-5.578-1.983-9.303-7.263-9.303-13.183s3.726-11.199,9.303-13.183l0,0c3.73-1.326,6.723-4.171,8.238-7.828s1.41-7.785-0.29-11.361
		l0,0c-2.542-5.347-1.443-11.714,2.743-15.9c4.186-4.186,10.553-5.284,15.9-2.743l0,0c3.575,1.7,7.703,1.805,11.361,0.29
		c3.657-1.515,6.502-4.508,7.828-8.238l0,0c1.983-5.578,7.263-9.303,13.183-9.303S348.266,251.192,350.249,256.77z"/>
	<g>
		<path style="fill:#A4C2F7;" d="M350.249,256.77L350.249,256.77c2.778,7.812-13.899,11.508-6.411,7.948l0,0
			c5.347-2.542,11.714-1.443,15.9,2.743s5.284,10.553,2.743,15.9l0,0c-1.7,3.575-1.805,7.703-0.29,11.361
			c1.515,3.657,4.508,6.502,8.238,7.828l0,0c5.578,1.983,9.303,7.263,9.303,13.183s-3.726,11.199-9.303,13.183l0,0
			c-3.73,1.326-6.723,4.171-8.238,7.828c-1.515,3.657-1.41,7.785,0.29,11.361l0,0c2.542,5.347,1.443,11.714-2.743,15.9
			c-4.186,4.186-10.553,5.284-15.9,2.743l0,0c-7.488-3.559,9.189,0.137,6.411,7.948l0,0c-1.983,5.578-7.263,9.303-13.183,9.303
			s-11.199-3.726-13.183-9.303l0,0c-1.326-3.73-4.171-6.723-7.828-8.238c-3.657-1.515-7.785-1.41-11.361,0.29l0,0
			c-5.347,2.542-11.714,1.443-15.9-2.743c-4.186-4.186-5.284-10.553-2.743-15.9l0,0c1.7-3.575,1.805-7.703,0.29-11.361
			c-1.515-3.657-4.508-6.502-8.238-7.828l0,0c-5.578-1.983-9.303-7.263-9.303-13.183s3.726-11.199,9.303-13.183l0,0
			c3.73-1.326,6.723-4.171,8.238-7.828s1.41-7.785-0.29-11.361l0,0c-2.542-5.347-1.443-11.714,2.743-15.9
			c4.186-4.186,10.553-5.284,15.9-2.743l0,0c3.575,1.7,7.703,1.805,11.361,0.29c3.657-1.515,6.502-4.508,7.828-8.238l0,0
			c1.983-5.578,7.263-9.303,13.183-9.303S348.266,251.192,350.249,256.77z"/>
		<path style="fill:#A4C2F7;" d="M369.439,366.75c-3.575-1.701-7.703-1.807-11.361-0.293c-3.658,1.515-6.502,4.508-7.828,8.239
			c-1.984,5.578-7.263,9.303-13.183,9.303s-11.199-3.726-13.183-9.303c-1.326-3.73-4.17-6.724-7.828-8.239
			c-3.658-1.515-7.786-1.408-11.361,0.293c-0.575,0.212-1.163,0.385-1.761,0.517V460.8l34.133-34.133L371.2,460.8v-93.533
			C370.602,367.135,370.013,366.962,369.439,366.75z"/>
	</g>
	<g>
		<path style="fill:#428DFF;" d="M448,512H64c-2.264,0.001-4.435-0.897-6.035-2.498c-1.601-1.601-2.499-3.772-2.498-6.035V8.533
			c-0.001-2.264,0.897-4.435,2.498-6.035S61.736-0.001,64,0h264.533c2.263,0,4.434,0.899,6.033,2.5l119.467,119.467
			c1.601,1.6,2.5,3.77,2.5,6.033v375.467c0.001,2.264-0.897,4.435-2.498,6.035C452.435,511.103,450.264,512.001,448,512z
			 M72.533,494.933h366.933v-363.4L325,17.067H72.533V494.933z"/>
		<path style="fill:#428DFF;" d="M448,136.533H328.533c-2.264,0.001-4.435-0.897-6.035-2.498S319.999,130.264,320,128V8.533
			C320,3.821,323.821,0,328.533,0s8.533,3.821,8.533,8.533v110.933H448c4.713,0,8.533,3.821,8.533,8.533
			C456.533,132.713,452.713,136.533,448,136.533z"/>
		<path style="fill:#428DFF;" d="M217.6,145.067h-76.8c-4.713,0-8.533-3.821-8.533-8.533S136.087,128,140.8,128h76.8
			c4.713,0,8.533,3.82,8.533,8.533S222.313,145.067,217.6,145.067z"/>
		<path style="fill:#428DFF;" d="M183.467,213.333H140.8c-4.713,0-8.533-3.821-8.533-8.533c0-4.713,3.82-8.533,8.533-8.533h42.667
			c4.713,0,8.533,3.821,8.533,8.533C192,209.513,188.18,213.333,183.467,213.333z"/>
		<path style="fill:#428DFF;" d="M328.533,213.333H268.8c-4.713,0-8.533-3.821-8.533-8.533c0-4.713,3.82-8.533,8.533-8.533h59.733
			c4.713,0,8.533,3.821,8.533,8.533C337.067,209.513,333.246,213.333,328.533,213.333z"/>
		<path style="fill:#428DFF;" d="M226.133,213.333c-1.115-0.014-2.216-0.246-3.242-0.683c-1.045-0.412-2.001-1.02-2.817-1.792
			c-2.444-2.441-3.154-6.125-1.792-9.3c0.432-1.035,1.038-1.987,1.792-2.817c0.404-0.367,0.83-0.709,1.275-1.025
			c0.477-0.325,0.995-0.583,1.542-0.767c0.482-0.25,0.999-0.424,1.533-0.517c1.093-0.258,2.232-0.258,3.325,0
			c0.567,0.079,1.116,0.254,1.625,0.517c0.525,0.168,1.016,0.427,1.45,0.767c0.489,0.294,0.948,0.638,1.367,1.025
			c0.754,0.829,1.36,1.782,1.792,2.817c0.438,1.025,0.67,2.127,0.683,3.242c0.022,2.27-0.87,4.453-2.475,6.058
			C230.587,212.463,228.403,213.355,226.133,213.333L226.133,213.333z"/>
		<path style="fill:#428DFF;" d="M371.2,213.333c-1.115-0.014-2.216-0.246-3.242-0.683c-1.035-0.432-1.987-1.038-2.817-1.792
			c-1.606-1.605-2.498-3.788-2.475-6.058c0.028-2.26,0.912-4.425,2.475-6.059c0.829-0.754,1.782-1.36,2.817-1.792
			c1.556-0.684,3.286-0.865,4.95-0.517c0.534,0.094,1.051,0.268,1.533,0.517c0.525,0.168,1.016,0.427,1.45,0.767
			c0.478,0.273,0.911,0.619,1.283,1.025c1.597,1.617,2.513,3.786,2.559,6.059c0.027,2.287-0.9,4.483-2.558,6.059
			C375.588,212.44,373.44,213.329,371.2,213.333z"/>
		<path style="fill:#428DFF;" d="M243.2,281.6h-59.733c-4.713,0-8.533-3.82-8.533-8.533s3.82-8.533,8.533-8.533H243.2
			c4.713,0,8.533,3.82,8.533,8.533S247.913,281.6,243.2,281.6z"/>
		<path style="fill:#428DFF;" d="M140.8,281.6c-1.116-0.004-2.219-0.237-3.242-0.683c-1.045-0.412-2.001-1.02-2.817-1.792
			c-2.444-2.441-3.154-6.125-1.792-9.3c0.412-1.045,1.02-2.001,1.792-2.817c0.404-0.367,0.83-0.709,1.275-1.025
			c0.477-0.325,0.995-0.583,1.542-0.767c0.482-0.25,0.999-0.424,1.533-0.517c1.093-0.259,2.232-0.259,3.325,0
			c0.567,0.079,1.116,0.254,1.625,0.517c0.544,0.184,1.06,0.442,1.533,0.767c0.448,0.316,0.876,0.658,1.284,1.025
			c0.754,0.829,1.36,1.782,1.792,2.817c1.362,3.175,0.652,6.859-1.792,9.301c-0.817,0.77-1.773,1.378-2.817,1.792
			C143.016,281.355,141.915,281.587,140.8,281.6z"/>
		<path style="fill:#428DFF;" d="M163.328,335.384c-27.084,14.095-31.787,44.573-32.717,72.219l29.135-12.068l-23.945-20.059
			c-16.732-14.017-41.001,10.007-24.136,24.136l23.945,20.059c4.958,4.653,12.181,5.971,18.462,3.369
			c6.282-2.602,10.457-8.642,10.672-15.437c0.514-15.274,0.322-34.685,15.811-42.746
			C200.048,354.712,182.809,325.245,163.328,335.384L163.328,335.384z"/>
		<path style="fill:#428DFF;" d="M168.691,390.612c5.826,11.622,17.209,19.441,30.148,20.708c5.656,0.556,11.363-0.209,16.673-2.233
			c3.762-1.228,7.322-3.003,10.566-5.27c5.062-4.339,2.721,1.638-0.859-4.766c10.72,19.176,40.214,1.986,29.473-17.228
			c-6.657-11.226-19.972-16.647-32.577-13.264c-7.445,1.671-19.219,14.418-23.95,4.827
			C188.447,353.684,158.998,370.96,168.691,390.612L168.691,390.612z"/>
		<path style="fill:#428DFF;" d="M337.067,392.533c-9.554,0.076-18.093-5.949-21.225-14.975c-0.516-1.458-1.627-2.628-3.055-3.219
			c-1.429-0.591-3.041-0.548-4.436,0.119c-8.608,4.089-18.858,2.319-25.595-4.42c-6.738-6.74-8.505-16.99-4.413-25.596
			c0.666-1.394,0.709-3.005,0.117-4.433c-0.591-1.427-1.761-2.536-3.217-3.051c-8.978-3.195-14.975-11.695-14.975-21.225
			c0-9.53,5.997-18.029,14.975-21.225c1.458-0.516,2.628-1.627,3.219-3.055c0.591-1.429,0.548-3.041-0.119-4.436
			c-4.089-8.608-2.319-18.858,4.42-25.595c6.74-6.738,16.99-8.505,25.596-4.413c1.394,0.666,3.005,0.709,4.433,0.117
			c1.427-0.591,2.536-1.761,3.051-3.217c3.196-8.978,11.695-14.975,21.225-14.975c9.53,0,18.029,5.997,21.225,14.975l0,0
			c0.516,1.458,1.627,2.628,3.055,3.219c1.429,0.591,3.041,0.548,4.436-0.119c8.608-4.089,18.858-2.319,25.595,4.42
			c6.738,6.74,8.505,16.99,4.413,25.596c-0.666,1.394-0.709,3.005-0.117,4.433c0.591,1.427,1.761,2.536,3.217,3.051
			c8.978,3.196,14.975,11.695,14.975,21.225c0,9.53-5.997,18.029-14.975,21.225c-1.458,0.516-2.628,1.627-3.219,3.055
			c-0.591,1.429-0.548,3.041,0.119,4.436c4.089,8.608,2.319,18.858-4.42,25.595c-6.739,6.738-16.99,8.505-25.596,4.413
			c-1.394-0.666-3.005-0.709-4.433-0.117c-1.427,0.591-2.536,1.761-3.051,3.217C355.16,386.585,346.621,392.609,337.067,392.533
			L337.067,392.533z M310.708,356.867c9.529-0.001,18.026,5.997,21.217,14.975c0.775,2.174,2.834,3.625,5.142,3.625
			c2.308,0,4.366-1.451,5.142-3.625c2.136-6.004,6.715-10.823,12.602-13.263c5.888-2.44,12.533-2.271,18.289,0.463
			c2.084,0.987,4.565,0.558,6.196-1.072c1.632-1.63,2.064-4.11,1.079-6.195c-2.735-5.758-2.904-12.404-0.465-18.294
			c2.439-5.889,7.259-10.47,13.265-12.606c2.174-0.775,3.625-2.834,3.625-5.142c0-2.308-1.451-4.366-3.625-5.142
			c-6.004-2.136-10.823-6.715-13.263-12.602s-2.271-12.533,0.463-18.289c0.987-2.084,0.558-4.565-1.072-6.196
			s-4.11-2.064-6.195-1.079c-5.758,2.735-12.404,2.904-18.294,0.465c-5.889-2.44-10.469-7.259-12.606-13.265l0,0
			c-0.775-2.174-2.834-3.625-5.142-3.625c-2.308,0-4.366,1.451-5.142,3.625c-2.136,6.004-6.715,10.823-12.602,13.263
			c-5.888,2.44-12.533,2.271-18.289-0.463c-2.085-0.987-4.565-0.558-6.196,1.072c-1.632,1.63-2.064,4.11-1.079,6.195
			c2.735,5.758,2.904,12.404,0.465,18.294c-2.439,5.889-7.259,10.47-13.265,12.606c-2.174,0.775-3.625,2.834-3.625,5.142
			c0,2.308,1.451,4.366,3.625,5.142c6.004,2.136,10.823,6.715,13.263,12.602c2.44,5.888,2.271,12.533-0.463,18.289
			c-0.987,2.084-0.558,4.565,1.072,6.196s4.11,2.064,6.195,1.079C304.052,357.608,307.359,356.865,310.708,356.867z"/>
		<path style="fill:#428DFF;" d="M371.2,469.333c-2.263,0-4.433-0.9-6.033-2.5l-28.1-28.1l-28.1,28.1
			c-2.44,2.441-6.111,3.171-9.299,1.85c-3.189-1.321-5.268-4.432-5.267-7.884v-93.533c0-3.698,2.382-6.975,5.9-8.117
			c0.242-0.075,1.158-0.317,1.4-0.375c5.587-2.52,11.973-2.593,17.617-0.2c5.889,2.441,10.47,7.261,12.608,13.267
			c0.775,2.174,2.834,3.625,5.142,3.625c2.308,0,4.366-1.451,5.142-3.625c2.106-5.924,6.592-10.697,12.373-13.168
			c5.781-2.47,12.332-2.413,18.068,0.159c0.417,0.108,1.042,0.275,1.183,0.317c3.518,1.141,5.9,4.418,5.9,8.117V460.8
			C379.733,465.513,375.913,469.333,371.2,469.333z M337.067,418.133c2.264-0.003,4.435,0.897,6.033,2.5l19.567,19.566v-66.225
			c-0.454,0.07-0.899,0.193-1.325,0.367c-1.43,0.586-2.541,1.758-3.05,3.217c-3.196,8.978-11.695,14.975-21.225,14.975
			s-18.029-5.997-21.225-14.975c-0.509-1.46-1.62-2.631-3.05-3.217c-0.426-0.174-0.871-0.297-1.325-0.367V440.2l19.567-19.567
			C332.632,419.03,334.803,418.131,337.067,418.133z"/>
	</g>
</g>
<g>
</g>
<g>
</g>
<g>
</g>
<g>
</g>
<g>
</g>
<g>
</g>
<g>
</g>
<g>
</g>
<g>
</g>
<g>
</g>
<g>
</g>
<g>
</g>
<g>
</g>
<g>
</g>
<g>
</g>
</svg>
