<?xml version="1.0" encoding="iso-8859-1"?>
<!-- Generator: Adobe Illustrator 19.0.0, SVG Export Plug-In . SVG Version: 6.00 Build 0)  -->
<svg version="1.1" id="Capa_1" xmlns="http://www.w3.org/2000/svg" xmlns:xlink="http://www.w3.org/1999/xlink" x="0px" y="0px"
	 viewBox="0 0 512 512" style="enable-background:new 0 0 512 512;" xml:space="preserve">
<g>
	<polygon style="fill:#A4C2F7;" points="145.067,8.533 187.734,51.2 298.667,51.2 384.001,136.533 384.001,8.533 	"/>
	<polygon style="fill:#E3E7F2;" points="102.401,51.2 298.667,51.2 358.401,136.533 358.401,8.533 85.334,8.533 85.334,435.2 
		102.401,435.2 	"/>
	<rect x="59.734" y="8.533" style="fill:#FFFFFF;" width="25.6" height="426.667"/>
	<polygon style="fill:#A4C2F7;" points="426.667,179.2 298.667,51.2 102.401,51.2 102.401,477.867 426.667,477.867 	"/>
	
		<linearGradient id="SVGID_1_" gradientUnits="userSpaceOnUse" x1="-49.0351" y1="652.5342" x2="-47.8208" y2="651.6842" gradientTransform="matrix(298.6667 0 0 -426.6667 14687.8271 278525.5625)">
		<stop  offset="0" style="stop-color:#D4E1F4"/>
		<stop  offset="0.1717" style="stop-color:#D4E1F4"/>
		<stop  offset="0.2" style="stop-color:#D4E1F4"/>
		<stop  offset="0.2001" style="stop-color:#DAE4F4"/>
		<stop  offset="0.2007" style="stop-color:#EBEBF4"/>
		<stop  offset="0.2014" style="stop-color:#F6F1F4"/>
		<stop  offset="0.2023" style="stop-color:#FDF4F4"/>
		<stop  offset="0.205" style="stop-color:#FFF5F4"/>
		<stop  offset="0.2522" style="stop-color:#FFF5F4"/>
		<stop  offset="0.26" style="stop-color:#FFF5F4"/>
		<stop  offset="0.26" style="stop-color:#D4E1F4"/>
		<stop  offset="0.3974" style="stop-color:#D4E1F4"/>
		<stop  offset="0.42" style="stop-color:#D4E1F4"/>
		<stop  offset="0.4201" style="stop-color:#DAE4F4"/>
		<stop  offset="0.4207" style="stop-color:#EBEBF4"/>
		<stop  offset="0.4214" style="stop-color:#F6F1F4"/>
		<stop  offset="0.4223" style="stop-color:#FDF4F4"/>
		<stop  offset="0.425" style="stop-color:#FFF5F4"/>
		<stop  offset="0.4894" style="stop-color:#FFF5F4"/>
		<stop  offset="0.5" style="stop-color:#FFF5F4"/>
		<stop  offset="0.5" style="stop-color:#F9F2F4"/>
		<stop  offset="0.5001" style="stop-color:#E8EBF4"/>
		<stop  offset="0.5003" style="stop-color:#DDE5F4"/>
		<stop  offset="0.5005" style="stop-color:#D6E2F4"/>
		<stop  offset="0.501" style="stop-color:#D4E1F4"/>
		<stop  offset="0.7062" style="stop-color:#D4E1F4"/>
		<stop  offset="0.74" style="stop-color:#D4E1F4"/>
		<stop  offset="0.741" style="stop-color:#FFF5F4"/>
		<stop  offset="0.8346" style="stop-color:#FFF5F4"/>
		<stop  offset="0.85" style="stop-color:#FFF5F4"/>
		<stop  offset="0.851" style="stop-color:#D4E1F4"/>
	</linearGradient>
	<polygon style="fill:url(#SVGID_1_);" points="401.067,179.2 290.134,51.2 102.401,51.2 102.401,477.867 401.067,477.867 	"/>
	<circle style="fill:#7FACFA;" cx="276.933" cy="325.717" r="92.399"/>
	<g>
		<ellipse style="fill:#A4C2F7;" cx="261.735" cy="325.717" rx="79.599" ry="92.399"/>
		<path style="fill:#A4C2F7;" d="M424.208,179.2H298.667V53.659c0-0.412,0.248-0.783,0.629-0.941
			c0.381-0.158,0.819-0.071,1.11,0.221l124.522,124.522c0.291,0.291,0.378,0.73,0.221,1.11
			C424.992,178.952,424.62,179.2,424.208,179.2z"/>
	</g>
	<g>
		<path style="fill:#428DFF;" d="M424.209,187.733H298.667c-2.264,0.001-4.435-0.897-6.035-2.498s-2.499-3.772-2.498-6.035V53.658
			c-0.001-3.865,2.327-7.349,5.897-8.827c3.571-1.478,7.681-0.658,10.411,2.077l124.517,124.517c2.735,2.73,3.555,6.84,2.077,10.411
			C431.558,185.407,428.074,187.735,424.209,187.733L424.209,187.733z M307.201,170.667h98.867L307.201,71.8V170.667z"/>
		<path style="fill:#428DFF;" d="M426.667,486.4H102.401c-2.264,0.001-4.435-0.897-6.035-2.498
			c-1.601-1.601-2.499-3.772-2.498-6.035V51.2c-0.001-2.264,0.897-4.435,2.498-6.035c1.601-1.601,3.772-2.499,6.035-2.498h196.267
			c2.263,0,4.434,0.899,6.033,2.5l128,128c1.601,1.6,2.5,3.77,2.5,6.033v298.667c0.001,2.264-0.897,4.435-2.498,6.035
			C431.102,485.503,428.931,486.401,426.667,486.4z M110.934,469.333h307.2v-286.6l-123-123h-184.2V469.333z"/>
		<path style="fill:#428DFF;" d="M276.934,426.667c-40.824,0-77.628-24.592-93.25-62.308c-15.623-37.716-6.987-81.129,21.88-109.996
			s72.28-37.502,109.996-21.88s62.308,52.427,62.308,93.25C377.807,381.452,332.653,426.606,276.934,426.667z M276.934,241.867
			c-46.318,0-83.867,37.548-83.867,83.867s37.548,83.867,83.867,83.867s83.867-37.548,83.867-83.867
			C360.747,279.438,323.23,241.921,276.934,241.867z"/>
		<path style="fill:#428DFF;" d="M452.267,512c-2.264,0.003-4.435-0.897-6.033-2.5l-108.85-108.85
			c-3.332-3.332-3.332-8.735,0-12.067c3.332-3.332,8.735-3.332,12.067,0l108.85,108.85c2.44,2.44,3.169,6.11,1.849,9.298
			C458.829,509.92,455.718,511.999,452.267,512z"/>
		<path style="fill:#428DFF;" d="M278.401,307.2h-51.2c-4.713,0-8.533-3.82-8.533-8.533s3.821-8.533,8.533-8.533h51.2
			c4.713,0,8.533,3.82,8.533,8.533S283.114,307.2,278.401,307.2z"/>
		<path style="fill:#428DFF;" d="M329.601,358.4h-102.4c-4.713,0-8.533-3.821-8.533-8.533c0-4.713,3.821-8.533,8.533-8.533h102.4
			c4.713,0,8.533,3.821,8.533,8.533C338.134,354.579,334.314,358.4,329.601,358.4z"/>
		<path style="fill:#428DFF;" d="M102.401,443.733H59.734c-2.264,0.001-4.435-0.897-6.035-2.498
			c-1.601-1.601-2.499-3.772-2.498-6.035V8.533c-0.001-2.264,0.897-4.435,2.498-6.035S57.471-0.001,59.734,0h324.267
			c2.264-0.001,4.435,0.897,6.035,2.498c1.601,1.601,2.499,3.772,2.498,6.035v128c0,3.451-2.079,6.563-5.268,7.883
			c-3.189,1.321-6.859,0.59-9.299-1.85l-82.834-82.833h-184.2V435.2c0.001,2.264-0.897,4.435-2.498,6.035
			C106.836,442.836,104.664,443.735,102.401,443.733z M68.267,426.667h25.6V51.2c-0.001-2.264,0.897-4.435,2.498-6.035
			c1.601-1.601,3.772-2.499,6.035-2.498h196.267c2.263,0,4.434,0.899,6.033,2.5l70.767,70.766V17.067h-307.2V426.667z"/>
	</g>
</g>
<g>
</g>
<g>
</g>
<g>
</g>
<g>
</g>
<g>
</g>
<g>
</g>
<g>
</g>
<g>
</g>
<g>
</g>
<g>
</g>
<g>
</g>
<g>
</g>
<g>
</g>
<g>
</g>
<g>
</g>
</svg>
