<?xml version="1.0" encoding="iso-8859-1"?>
<!-- Generator: Adobe Illustrator 19.0.0, SVG Export Plug-In . SVG Version: 6.00 Build 0)  -->
<svg version="1.1" id="Capa_1" xmlns="http://www.w3.org/2000/svg" xmlns:xlink="http://www.w3.org/1999/xlink" x="0px" y="0px"
	 viewBox="0 0 512 512" style="enable-background:new 0 0 512 512;" xml:space="preserve">
<g>
	<path style="fill:#A4C2F7;" d="M486.4,426.667L452.267,486.4l-34.133-59.733V25.472c0-9.355,7.584-16.939,16.939-16.939h34.389
		c9.355,0,16.939,7.584,16.939,16.939V426.667z"/>
	<g>
		<rect x="187.733" y="8.533" style="fill:#7FACFA;" width="76.8" height="42.667"/>
		<rect x="418.133" y="68.267" style="fill:#7FACFA;" width="68.267" height="34.133"/>
	</g>
	<g>
		<polygon style="fill:#A4C2F7;" points="418.133,426.667 418.133,25.6 298.667,25.6 264.533,25.6 264.533,51.2 187.733,51.2 
			187.733,25.6 153.6,25.6 51.2,25.6 51.2,503.467 426.667,503.467 426.667,441.6 		"/>
		<polygon style="fill:#A4C2F7;" points="264.533,25.6 264.533,51.2 187.733,51.2 187.733,25.6 128,25.6 128,76.8 324.267,76.8 
			324.267,25.6 		"/>
	</g>
	
		<linearGradient id="SVGID_1_" gradientUnits="userSpaceOnUse" x1="-48.9056" y1="652.597" x2="-47.784" y2="651.6948" gradientTransform="matrix(315.7333 0 0 -392.5334 15490.1953 256253.5469)">
		<stop  offset="0" style="stop-color:#D4E1F4"/>
		<stop  offset="0.1717" style="stop-color:#D4E1F4"/>
		<stop  offset="0.2" style="stop-color:#D4E1F4"/>
		<stop  offset="0.2001" style="stop-color:#DAE4F4"/>
		<stop  offset="0.2007" style="stop-color:#EBEBF4"/>
		<stop  offset="0.2014" style="stop-color:#F6F1F4"/>
		<stop  offset="0.2023" style="stop-color:#FDF4F4"/>
		<stop  offset="0.205" style="stop-color:#FFF5F4"/>
		<stop  offset="0.2522" style="stop-color:#FFF5F4"/>
		<stop  offset="0.26" style="stop-color:#FFF5F4"/>
		<stop  offset="0.26" style="stop-color:#D4E1F4"/>
		<stop  offset="0.3974" style="stop-color:#D4E1F4"/>
		<stop  offset="0.42" style="stop-color:#D4E1F4"/>
		<stop  offset="0.4201" style="stop-color:#DAE4F4"/>
		<stop  offset="0.4207" style="stop-color:#EBEBF4"/>
		<stop  offset="0.4214" style="stop-color:#F6F1F4"/>
		<stop  offset="0.4223" style="stop-color:#FDF4F4"/>
		<stop  offset="0.425" style="stop-color:#FFF5F4"/>
		<stop  offset="0.4894" style="stop-color:#FFF5F4"/>
		<stop  offset="0.5" style="stop-color:#FFF5F4"/>
		<stop  offset="0.5" style="stop-color:#F9F2F4"/>
		<stop  offset="0.5001" style="stop-color:#E8EBF4"/>
		<stop  offset="0.5003" style="stop-color:#DDE5F4"/>
		<stop  offset="0.5005" style="stop-color:#D6E2F4"/>
		<stop  offset="0.501" style="stop-color:#D4E1F4"/>
		<stop  offset="0.7062" style="stop-color:#D4E1F4"/>
		<stop  offset="0.74" style="stop-color:#D4E1F4"/>
		<stop  offset="0.741" style="stop-color:#FFF5F4"/>
		<stop  offset="0.8346" style="stop-color:#FFF5F4"/>
		<stop  offset="0.85" style="stop-color:#FFF5F4"/>
		<stop  offset="0.851" style="stop-color:#D4E1F4"/>
	</linearGradient>
	<polygon style="fill:url(#SVGID_1_);" points="324.267,68.267 324.267,76.8 128,76.8 128,68.267 68.267,68.267 68.267,460.8 
		384,460.8 384,68.267 	"/>
	<g>
		<path style="fill:#428DFF;" d="M264.533,59.733h-76.8c-2.264,0.001-4.435-0.897-6.035-2.498s-2.499-3.772-2.498-6.035V8.533
			c-0.001-2.264,0.897-4.435,2.498-6.035S185.47-0.001,187.733,0h76.8c2.264-0.001,4.435,0.897,6.035,2.498s2.499,3.772,2.498,6.035
			V51.2c0.001,2.264-0.897,4.435-2.498,6.035S266.797,59.735,264.533,59.733z M196.267,42.667H256v-25.6h-59.733V42.667z"/>
		<path style="fill:#428DFF;" d="M324.267,85.333H128c-2.264,0.001-4.435-0.897-6.035-2.498c-1.601-1.601-2.499-3.772-2.498-6.035
			V25.6c-0.001-2.264,0.897-4.435,2.498-6.035c1.601-1.601,3.772-2.499,6.035-2.498h59.733c2.264-0.001,4.435,0.897,6.035,2.498
			s2.499,3.772,2.498,6.035v17.067H256V25.6c-0.001-2.264,0.897-4.435,2.498-6.035s3.772-2.499,6.035-2.498h59.733
			c2.264-0.001,4.435,0.897,6.035,2.498c1.601,1.601,2.499,3.772,2.498,6.035v51.2c0.001,2.264-0.897,4.435-2.498,6.035
			C328.701,84.436,326.53,85.335,324.267,85.333L324.267,85.333z M136.533,68.267h179.2V34.133h-42.667V51.2
			c0.001,2.264-0.897,4.435-2.498,6.035s-3.772,2.499-6.035,2.498h-76.8c-2.264,0.001-4.435-0.897-6.035-2.498
			s-2.499-3.772-2.498-6.035V34.133h-42.667V68.267z"/>
		<path style="fill:#428DFF;" d="M204.8,162.133H128c-4.713,0-8.533-3.821-8.533-8.533s3.821-8.533,8.533-8.533h76.8
			c4.713,0,8.533,3.82,8.533,8.533S209.513,162.133,204.8,162.133z"/>
		<path style="fill:#428DFF;" d="M170.667,221.867H128c-4.713,0-8.533-3.821-8.533-8.533s3.821-8.533,8.533-8.533h42.667
			c4.713,0,8.533,3.82,8.533,8.533S175.38,221.867,170.667,221.867z"/>
		<path style="fill:#428DFF;" d="M298.667,221.867h-59.733c-4.713,0-8.533-3.821-8.533-8.533s3.821-8.533,8.533-8.533h59.733
			c4.713,0,8.533,3.82,8.533,8.533S303.38,221.867,298.667,221.867z"/>
		<path style="fill:#428DFF;" d="M204.8,221.867c-1.116-0.004-2.219-0.237-3.242-0.683c-1.045-0.412-2.001-1.02-2.817-1.792
			c-2.444-2.441-3.154-6.125-1.792-9.3c0.432-1.035,1.038-1.987,1.792-2.817c3.421-3.158,8.695-3.158,12.117,0
			c0.754,0.829,1.36,1.782,1.792,2.817c0.438,1.025,0.67,2.127,0.683,3.242c-0.019,2.262-0.905,4.43-2.475,6.059
			c-0.831,0.752-1.783,1.358-2.817,1.792C207.016,221.621,205.915,221.853,204.8,221.867L204.8,221.867z"/>
		<path style="fill:#428DFF;" d="M332.8,221.867c-1.115-0.014-2.216-0.246-3.242-0.683c-3.251-1.228-5.373-4.375-5.292-7.85
			c0.013-1.115,0.245-2.216,0.683-3.242c0.432-1.035,1.038-1.987,1.792-2.817c0.404-0.367,0.83-0.709,1.275-1.025
			c0.477-0.325,0.995-0.583,1.542-0.767c0.482-0.25,0.999-0.424,1.533-0.517c2.81-0.529,5.702,0.331,7.767,2.308
			c0.754,0.829,1.36,1.782,1.792,2.817c1.362,3.175,0.652,6.859-1.792,9.301c-0.831,0.752-1.783,1.358-2.817,1.792
			C335.016,221.621,333.915,221.853,332.8,221.867L332.8,221.867z"/>
		<path style="fill:#428DFF;" d="M221.867,281.6h-59.733c-4.713,0-8.533-3.82-8.533-8.533s3.821-8.533,8.533-8.533h59.733
			c4.713,0,8.533,3.82,8.533,8.533S226.579,281.6,221.867,281.6z"/>
		<path style="fill:#428DFF;" d="M128,281.6c-1.115-0.014-2.216-0.246-3.242-0.683c-1.035-0.432-1.987-1.038-2.817-1.792
			c-0.752-0.831-1.358-1.783-1.792-2.817c-0.911-2.065-0.911-4.418,0-6.483c0.432-1.035,1.038-1.987,1.792-2.817
			c0.816-0.772,1.772-1.38,2.817-1.792c3.15-1.34,6.798-0.631,9.217,1.792c0.806,0.805,1.444,1.762,1.875,2.817
			c0.477,1.013,0.711,2.123,0.683,3.242c0.027,2.287-0.9,4.483-2.558,6.059C132.388,280.706,130.24,281.596,128,281.6z"/>
		<path style="fill:#428DFF;" d="M170.84,309.53c-27.084,14.095-31.787,44.573-32.717,72.219l29.135-12.068l-23.945-20.059
			c-16.732-14.017-41.001,10.007-24.136,24.136l23.945,20.059c4.958,4.653,12.181,5.971,18.462,3.369
			c6.282-2.602,10.457-8.642,10.672-15.437c0.514-15.274,0.322-34.685,15.811-42.746C207.56,328.859,190.321,299.391,170.84,309.53
			L170.84,309.53z"/>
		<path style="fill:#428DFF;" d="M176.203,364.758c5.826,11.622,17.209,19.441,30.148,20.708c5.656,0.556,11.363-0.209,16.673-2.233
			c3.762-1.228,7.322-3.003,10.566-5.27c5.062-4.339,2.721,1.638-0.859-4.767c10.72,19.176,40.214,1.986,29.473-17.228
			c-6.657-11.226-19.973-16.647-32.578-13.265c-7.445,1.671-19.219,14.418-23.95,4.827
			C195.959,327.831,166.51,345.107,176.203,364.758L176.203,364.758z"/>
		<path style="fill:#428DFF;" d="M452.267,494.933c-3.062-0.001-5.889-1.642-7.408-4.3L410.725,430.9
			c-0.735-1.29-1.123-2.749-1.125-4.233V25.475C409.614,11.411,421.011,0.014,435.075,0h34.383
			c14.064,0.014,25.461,11.411,25.475,25.475v401.192c-0.002,1.485-0.39,2.943-1.125,4.233l-34.133,59.733
			C458.156,493.292,455.329,494.933,452.267,494.933z M426.667,424.4l25.6,44.8l25.6-44.8V25.475
			c-0.007-4.641-3.768-8.401-8.408-8.408h-34.383c-4.641,0.007-8.401,3.768-8.408,8.408V424.4z"/>
		<path style="fill:#428DFF;" d="M486.4,110.933h-68.267c-2.264,0.001-4.435-0.897-6.035-2.498
			c-1.601-1.601-2.499-3.772-2.498-6.035V68.267c-0.001-2.264,0.897-4.435,2.498-6.035c1.601-1.601,3.772-2.499,6.035-2.498H486.4
			c2.264-0.001,4.435,0.897,6.035,2.498c1.601,1.601,2.499,3.772,2.498,6.035V102.4c0.001,2.264-0.897,4.435-2.498,6.035
			C490.835,110.036,488.664,110.935,486.4,110.933z M426.667,93.867h51.2V76.8h-51.2V93.867z"/>
		<path style="fill:#428DFF;" d="M486.4,435.2h-68.267c-4.713,0-8.533-3.82-8.533-8.533s3.82-8.533,8.533-8.533H486.4
			c4.713,0,8.533,3.82,8.533,8.533S491.113,435.2,486.4,435.2z"/>
		<path style="fill:#428DFF;" d="M452.267,512c-2.264,0.001-4.435-0.897-6.035-2.498c-1.601-1.601-2.499-3.772-2.498-6.035V486.4
			c0-4.713,3.82-8.533,8.533-8.533s8.533,3.82,8.533,8.533v17.067c0.001,2.264-0.897,4.435-2.498,6.035
			C456.701,511.103,454.53,512.001,452.267,512z"/>
		<path style="fill:#428DFF;" d="M384,469.333H68.267c-2.264,0.001-4.435-0.897-6.035-2.498c-1.601-1.601-2.499-3.772-2.498-6.035
			V68.267c-0.001-2.264,0.897-4.435,2.498-6.035s3.772-2.499,6.035-2.498H128c2.264-0.001,4.435,0.897,6.035,2.498
			s2.499,3.772,2.498,6.035h179.2c-0.001-2.264,0.897-4.435,2.498-6.035c1.601-1.601,3.772-2.499,6.035-2.498H384
			c2.264-0.001,4.435,0.897,6.035,2.498c1.601,1.601,2.499,3.772,2.498,6.035V460.8c0.001,2.264-0.897,4.435-2.498,6.035
			C388.435,468.436,386.264,469.335,384,469.333L384,469.333z M76.8,452.267h298.667V76.8H332.8
			c0.001,2.264-0.897,4.435-2.498,6.035c-1.601,1.601-3.772,2.499-6.035,2.498H128c-2.264,0.001-4.435-0.897-6.035-2.498
			c-1.601-1.601-2.499-3.772-2.498-6.035H76.8V452.267z"/>
		<path style="fill:#428DFF;" d="M426.667,512H25.6c-2.264,0.001-4.435-0.897-6.035-2.498c-1.601-1.601-2.499-3.772-2.498-6.035
			V25.6c-0.001-2.264,0.897-4.435,2.498-6.035c1.601-1.601,3.772-2.499,6.035-2.498h162.133c2.264-0.001,4.435,0.897,6.035,2.498
			s2.499,3.772,2.498,6.035v17.067H256V25.6c-0.001-2.264,0.897-4.435,2.498-6.035s3.772-2.499,6.035-2.498h153.6
			c2.264-0.001,4.435,0.897,6.035,2.498c1.601,1.601,2.499,3.772,2.498,6.035v398.8l7.408,12.967
			c0.735,1.29,1.123,2.749,1.125,4.233v61.867c0.001,2.264-0.897,4.435-2.498,6.035C431.102,511.103,428.93,512.001,426.667,512z
			 M34.133,494.933h384v-51.067l-7.408-12.967c-0.735-1.29-1.123-2.749-1.125-4.233V34.133H273.067V51.2
			c0.001,2.264-0.897,4.435-2.498,6.035s-3.772,2.499-6.035,2.498h-76.8c-2.264,0.001-4.435-0.897-6.035-2.498
			s-2.499-3.772-2.498-6.035V34.133H34.133V494.933z"/>
	</g>
</g>
<g>
</g>
<g>
</g>
<g>
</g>
<g>
</g>
<g>
</g>
<g>
</g>
<g>
</g>
<g>
</g>
<g>
</g>
<g>
</g>
<g>
</g>
<g>
</g>
<g>
</g>
<g>
</g>
<g>
</g>
</svg>
