<?xml version="1.0" encoding="iso-8859-1"?>
<!-- Generator: Adobe Illustrator 19.0.0, SVG Export Plug-In . SVG Version: 6.00 Build 0)  -->
<svg version="1.1" id="Capa_1" xmlns="http://www.w3.org/2000/svg" xmlns:xlink="http://www.w3.org/1999/xlink" x="0px" y="0px"
	 viewBox="0 0 512 512" style="enable-background:new 0 0 512 512;" xml:space="preserve">
<g>
	<rect x="212.61" y="43.39" style="fill:#A4C2F7;" width="260.339" height="459.932"/>
	<rect x="39.051" y="43.39" style="fill:#FFFFFF;" width="260.339" height="459.932"/>
	
		<linearGradient id="SVGID_1_" gradientUnits="userSpaceOnUse" x1="-48.9228" y1="652.6553" x2="-47.8205" y2="651.7402" gradientTransform="matrix(381.8305 0 0 -459.9322 18725.7793 300240.125)">
		<stop  offset="0" style="stop-color:#D4E1F4"/>
		<stop  offset="0.1717" style="stop-color:#D4E1F4"/>
		<stop  offset="0.2" style="stop-color:#D4E1F4"/>
		<stop  offset="0.2001" style="stop-color:#DAE4F4"/>
		<stop  offset="0.2007" style="stop-color:#EBEBF4"/>
		<stop  offset="0.2014" style="stop-color:#F6F1F4"/>
		<stop  offset="0.2023" style="stop-color:#FDF4F4"/>
		<stop  offset="0.205" style="stop-color:#FFF5F4"/>
		<stop  offset="0.2522" style="stop-color:#FFF5F4"/>
		<stop  offset="0.26" style="stop-color:#FFF5F4"/>
		<stop  offset="0.26" style="stop-color:#D4E1F4"/>
		<stop  offset="0.3974" style="stop-color:#D4E1F4"/>
		<stop  offset="0.42" style="stop-color:#D4E1F4"/>
		<stop  offset="0.4201" style="stop-color:#DAE4F4"/>
		<stop  offset="0.4207" style="stop-color:#EBEBF4"/>
		<stop  offset="0.4214" style="stop-color:#F6F1F4"/>
		<stop  offset="0.4223" style="stop-color:#FDF4F4"/>
		<stop  offset="0.425" style="stop-color:#FFF5F4"/>
		<stop  offset="0.4894" style="stop-color:#FFF5F4"/>
		<stop  offset="0.5" style="stop-color:#FFF5F4"/>
		<stop  offset="0.5" style="stop-color:#F9F2F4"/>
		<stop  offset="0.5001" style="stop-color:#E8EBF4"/>
		<stop  offset="0.5003" style="stop-color:#DDE5F4"/>
		<stop  offset="0.5005" style="stop-color:#D6E2F4"/>
		<stop  offset="0.501" style="stop-color:#D4E1F4"/>
		<stop  offset="0.7062" style="stop-color:#D4E1F4"/>
		<stop  offset="0.74" style="stop-color:#D4E1F4"/>
		<stop  offset="0.741" style="stop-color:#FFF5F4"/>
		<stop  offset="0.8346" style="stop-color:#FFF5F4"/>
		<stop  offset="0.85" style="stop-color:#FFF5F4"/>
		<stop  offset="0.851" style="stop-color:#D4E1F4"/>
	</linearGradient>
	<rect x="65.085" y="43.39" style="fill:url(#SVGID_1_);" width="381.831" height="459.932"/>
	<rect x="368.814" y="399.186" style="fill:#7FACFA;" width="104.136" height="104.136"/>
	<path style="fill:#A4C2F7;" d="M368.814,497.77v-98.583h98.257c0.985,0,1.873,0.593,2.25,1.503c0.377,0.91,0.169,1.957-0.528,2.654
		l-96.052,96.053c-0.658,0.658-1.647,0.855-2.507,0.499S368.813,498.7,368.814,497.77L368.814,497.77z"/>
	<g>
		<path style="fill:#428DFF;" d="M177.898,86.78c-4.793,0-8.678-3.885-8.678-8.678c0-4.793,3.885-8.678,8.678-8.678
			c14.378,0,26.034-11.656,26.034-26.034s-11.656-26.034-26.034-26.034s-26.034,11.656-26.034,26.034
			c0,4.793-3.885,8.678-8.678,8.678c-4.793,0-8.678-3.885-8.678-8.678c0-23.964,19.426-43.39,43.39-43.39s43.39,19.426,43.39,43.39
			S201.862,86.78,177.898,86.78z"/>
		<path style="fill:#428DFF;" d="M229.966,86.78c-4.793,0-8.678-3.885-8.678-8.678c0-4.793,3.885-8.678,8.678-8.678
			C244.344,69.424,256,57.768,256,43.39s-11.656-26.034-26.034-26.034c-4.793,0-8.678-3.885-8.678-8.678S225.173,0,229.966,0
			c23.964,0,43.39,19.426,43.39,43.39S253.93,86.78,229.966,86.78z"/>
		<path style="fill:#428DFF;" d="M282.034,86.78c-4.793,0-8.678-3.885-8.678-8.678c0-4.793,3.885-8.678,8.678-8.678
			c14.378,0,26.034-11.656,26.034-26.034s-11.656-26.034-26.034-26.034c-4.793,0-8.678-3.885-8.678-8.678S277.241,0,282.034,0
			c23.964,0,43.39,19.426,43.39,43.39S305.997,86.78,282.034,86.78z"/>
		<path style="fill:#428DFF;" d="M334.102,86.78c-4.793,0-8.678-3.885-8.678-8.678c0-4.793,3.885-8.678,8.678-8.678
			c14.378,0,26.034-11.656,26.034-26.034s-11.656-26.034-26.034-26.034c-4.793,0-8.678-3.885-8.678-8.678S329.309,0,334.102,0
			c23.964,0,43.39,19.426,43.39,43.39S358.065,86.78,334.102,86.78z"/>
		<path style="fill:#428DFF;" d="M169.22,52.068h-26.034c-4.793,0-8.678-3.885-8.678-8.678s3.885-8.678,8.678-8.678h26.034
			c4.793,0,8.678,3.885,8.678,8.678S174.013,52.068,169.22,52.068z"/>
		<path style="fill:#428DFF;" d="M368.814,512H39.051c-2.302,0.001-4.509-0.914-6.137-2.541c-1.628-1.628-2.542-3.835-2.541-6.137
			V43.39c-0.001-2.302,0.913-4.509,2.541-6.137c1.628-1.628,3.835-2.542,6.137-2.541h104.136c4.793,0,8.678,3.885,8.678,8.678
			s-3.885,8.678-8.678,8.678H47.729v442.576H365.22l99.051-99.051V52.068h-95.458c-4.793,0-8.678-3.885-8.678-8.678
			s3.885-8.678,8.678-8.678h104.136c2.302-0.001,4.509,0.913,6.137,2.541c1.628,1.628,2.542,3.835,2.541,6.137v355.797
			c0,2.301-0.915,4.509-2.543,6.135L374.949,509.457C373.322,511.085,371.115,511.999,368.814,512z"/>
		<path style="fill:#428DFF;" d="M472.949,156.203H39.051c-4.793,0-8.678-3.885-8.678-8.678c0-4.793,3.885-8.678,8.678-8.678
			h433.898c4.793,0,8.678,3.885,8.678,8.678C481.627,152.318,477.742,156.203,472.949,156.203z"/>
		<path style="fill:#428DFF;" d="M472.949,242.983H39.051c-4.793,0-8.678-3.885-8.678-8.678s3.885-8.678,8.678-8.678h433.898
			c4.793,0,8.678,3.885,8.678,8.678S477.742,242.983,472.949,242.983z"/>
		<path style="fill:#428DFF;" d="M472.949,329.763H39.051c-4.793,0-8.678-3.885-8.678-8.678s3.885-8.678,8.678-8.678h433.898
			c4.793,0,8.678,3.885,8.678,8.678S477.742,329.763,472.949,329.763z"/>
		<path style="fill:#428DFF;" d="M325.424,416.542H39.051c-4.793,0-8.678-3.885-8.678-8.678s3.885-8.678,8.678-8.678h286.373
			c4.793,0,8.678,3.885,8.678,8.678S330.216,416.542,325.424,416.542z"/>
		<path style="fill:#428DFF;" d="M99.797,468.61c-2.302,0.001-4.509-0.913-6.137-2.541c-1.628-1.628-2.542-3.835-2.541-6.137
			V104.136c0-4.793,3.885-8.678,8.678-8.678c4.793,0,8.678,3.885,8.678,8.678v355.797c0.001,2.302-0.913,4.509-2.541,6.137
			C104.306,467.697,102.098,468.611,99.797,468.61L99.797,468.61z"/>
		<path style="fill:#428DFF;" d="M371.127,508.754c-2.914,0.001-5.709-1.155-7.771-3.215c-2.061-2.06-3.22-4.854-3.221-7.768
			v-98.585c-0.001-2.302,0.914-4.509,2.541-6.137c1.628-1.628,3.835-2.542,6.137-2.541h98.258c4.495,0.001,8.547,2.71,10.266,6.863
			c1.72,4.153,0.768,8.933-2.41,12.112l-96.051,96.051C376.826,507.597,374.036,508.756,371.127,508.754z M377.492,407.864v74.509
			l74.513-74.509H377.492z"/>
		<path style="fill:#428DFF;" d="M472.949,512H368.814c-2.302,0.001-4.509-0.914-6.137-2.541c-1.628-1.628-2.542-3.835-2.541-6.137
			V399.186c-0.001-2.302,0.914-4.509,2.541-6.137c1.628-1.628,3.835-2.542,6.137-2.541h104.136c2.302-0.001,4.509,0.913,6.137,2.541
			s2.542,3.835,2.541,6.137v104.136c0.001,2.302-0.913,4.509-2.541,6.137C477.458,511.086,475.251,512.001,472.949,512L472.949,512z
			 M377.492,494.644h86.78v-86.78h-86.78V494.644z"/>
	</g>
</g>
<g>
</g>
<g>
</g>
<g>
</g>
<g>
</g>
<g>
</g>
<g>
</g>
<g>
</g>
<g>
</g>
<g>
</g>
<g>
</g>
<g>
</g>
<g>
</g>
<g>
</g>
<g>
</g>
<g>
</g>
</svg>
