<?xml version="1.0" encoding="iso-8859-1"?>
<!-- Generator: Adobe Illustrator 19.0.0, SVG Export Plug-In . SVG Version: 6.00 Build 0)  -->
<svg version="1.1" id="Capa_1" xmlns="http://www.w3.org/2000/svg" xmlns:xlink="http://www.w3.org/1999/xlink" x="0px" y="0px"
	 viewBox="0 0 512 512" style="enable-background:new 0 0 512 512;" xml:space="preserve">
<g>
	<path style="fill:#7FACFA;" d="M298.667,17.067h187.34c4.631,0,9.072,1.84,12.346,5.114s5.114,7.716,5.114,12.346v119.156h-222.26
		V34.527C281.206,24.884,289.024,17.067,298.667,17.067z"/>
	<path style="fill:#FFFFFF;" d="M25.994,17.067h187.34c9.643,0,17.46,7.817,17.46,17.46v119.156H8.533V34.527
		C8.533,24.884,16.351,17.067,25.994,17.067z"/>
	<g>
		<path style="fill:#A4C2F7;" d="M51.594,17.067h408.813c4.631,0,9.072,1.84,12.346,5.114s5.114,7.716,5.114,12.346v119.156H34.133
			V34.527C34.133,24.884,41.951,17.067,51.594,17.067z"/>
		<rect x="290.133" y="153.685" style="fill:#A4C2F7;" width="187.733" height="341.248"/>
		<path style="fill:#A4C2F7;" d="M179.2,51.285h153.6c18.851,0,34.133,15.282,34.133,34.133l0,0
			c0,18.851-15.282,34.133-34.133,34.133H179.2c-18.851,0-34.133-15.282-34.133-34.133l0,0
			C145.067,66.567,160.349,51.285,179.2,51.285z"/>
	</g>
	<path style="fill:#E3E7F2;" d="M179.2,51.285h128c18.851,0,34.133,15.282,34.133,34.133l0,0c0,18.851-15.282,34.133-34.133,34.133
		h-128c-18.851,0-34.133-15.282-34.133-34.133l0,0C145.067,66.567,160.349,51.285,179.2,51.285z"/>
	<rect x="34.133" y="153.685" style="fill:#FFFFFF;" width="187.733" height="341.248"/>
	<rect x="59.733" y="153.685" style="fill:#E3E7F2;" width="392.533" height="341.248"/>
	
		<linearGradient id="SVGID_1_" gradientUnits="userSpaceOnUse" x1="-48.6699" y1="652.0865" x2="-47.9199" y2="650.5865" gradientTransform="matrix(238.9333 0 0 -119.4667 11795.2666 78094.6016)">
		<stop  offset="0" style="stop-color:#D4E1F4"/>
		<stop  offset="0.1717" style="stop-color:#D4E1F4"/>
		<stop  offset="0.2" style="stop-color:#D4E1F4"/>
		<stop  offset="0.2001" style="stop-color:#DAE4F4"/>
		<stop  offset="0.2007" style="stop-color:#EBEBF4"/>
		<stop  offset="0.2014" style="stop-color:#F6F1F4"/>
		<stop  offset="0.2023" style="stop-color:#FDF4F4"/>
		<stop  offset="0.205" style="stop-color:#FFF5F4"/>
		<stop  offset="0.2522" style="stop-color:#FFF5F4"/>
		<stop  offset="0.26" style="stop-color:#FFF5F4"/>
		<stop  offset="0.26" style="stop-color:#D4E1F4"/>
		<stop  offset="0.3974" style="stop-color:#D4E1F4"/>
		<stop  offset="0.42" style="stop-color:#D4E1F4"/>
		<stop  offset="0.4201" style="stop-color:#DAE4F4"/>
		<stop  offset="0.4207" style="stop-color:#EBEBF4"/>
		<stop  offset="0.4214" style="stop-color:#F6F1F4"/>
		<stop  offset="0.4223" style="stop-color:#FDF4F4"/>
		<stop  offset="0.425" style="stop-color:#FFF5F4"/>
		<stop  offset="0.4894" style="stop-color:#FFF5F4"/>
		<stop  offset="0.5" style="stop-color:#FFF5F4"/>
		<stop  offset="0.5" style="stop-color:#F9F2F4"/>
		<stop  offset="0.5001" style="stop-color:#E8EBF4"/>
		<stop  offset="0.5003" style="stop-color:#DDE5F4"/>
		<stop  offset="0.5005" style="stop-color:#D6E2F4"/>
		<stop  offset="0.501" style="stop-color:#D4E1F4"/>
		<stop  offset="0.7062" style="stop-color:#D4E1F4"/>
		<stop  offset="0.74" style="stop-color:#D4E1F4"/>
		<stop  offset="0.741" style="stop-color:#FFF5F4"/>
		<stop  offset="0.8346" style="stop-color:#FFF5F4"/>
		<stop  offset="0.85" style="stop-color:#FFF5F4"/>
		<stop  offset="0.851" style="stop-color:#D4E1F4"/>
	</linearGradient>
	<polygon style="fill:url(#SVGID_1_);" points="349.867,221.867 136.533,221.867 136.533,341.333 349.867,341.333 375.467,341.333 
		375.467,221.867 	"/>
	<rect x="204.8" y="452.267" style="fill:#7FACFA;" width="273.067" height="42.667"/>
	<rect x="34.133" y="452.267" style="fill:#FFFFFF;" width="273.067" height="42.667"/>
	<rect x="59.733" y="452.267" style="fill:#A4C2F7;" width="392.533" height="42.667"/>
	<g>
		<path style="fill:#428DFF;" d="M503.467,162.217H8.533c-2.264,0.001-4.435-0.897-6.035-2.498
			c-1.601-1.601-2.499-3.772-2.498-6.035V34.525C0.015,20.176,11.643,8.548,25.992,8.533h460.017
			C500.357,8.548,511.985,20.176,512,34.525v119.158c0.001,2.264-0.897,4.435-2.498,6.035
			C507.901,161.319,505.73,162.218,503.467,162.217L503.467,162.217z M17.067,145.15h477.867V34.525
			c-0.003-4.928-3.997-8.922-8.925-8.925H25.992c-4.928,0.003-8.922,3.997-8.925,8.925V145.15z"/>
		<path style="fill:#428DFF;" d="M375.467,349.867H136.533c-2.264,0.001-4.435-0.897-6.035-2.498
			c-1.601-1.601-2.499-3.772-2.498-6.035V221.867c-0.001-2.264,0.897-4.435,2.498-6.035s3.772-2.499,6.035-2.498h238.933
			c2.264-0.001,4.435,0.897,6.035,2.498c1.601,1.601,2.499,3.772,2.498,6.035v119.467c0.001,2.264-0.897,4.435-2.498,6.035
			C379.901,348.969,377.73,349.868,375.467,349.867L375.467,349.867z M145.067,332.8h221.867V230.4H145.067V332.8z"/>
		<path style="fill:#428DFF;" d="M221.867,273.067h-51.2c-4.713,0-8.533-3.82-8.533-8.533s3.821-8.533,8.533-8.533h51.2
			c4.713,0,8.533,3.821,8.533,8.533S226.579,273.067,221.867,273.067z"/>
		<path style="fill:#428DFF;" d="M256,273.067c-1.115-0.014-2.216-0.246-3.242-0.683c-1.035-0.432-1.987-1.038-2.817-1.792
			c-0.752-0.831-1.358-1.783-1.792-2.817c-0.437-1.025-0.669-2.127-0.683-3.241c0-4.713,3.821-8.533,8.533-8.533
			c4.713,0,8.533,3.821,8.533,8.533c-0.014,1.115-0.246,2.216-0.683,3.242c-0.434,1.034-1.04,1.986-1.792,2.817
			C260.451,272.194,258.269,273.086,256,273.067z"/>
		<path style="fill:#428DFF;" d="M341.333,307.2H204.8c-4.713,0-8.533-3.82-8.533-8.533s3.821-8.533,8.533-8.533h136.533
			c4.713,0,8.533,3.82,8.533,8.533S346.046,307.2,341.333,307.2z"/>
		<path style="fill:#428DFF;" d="M170.667,307.2c-1.115-0.014-2.216-0.246-3.242-0.683c-1.045-0.412-2.001-1.02-2.817-1.792
			c-0.75-0.851-1.383-1.798-1.883-2.817c-0.408-1.031-0.609-2.132-0.592-3.241c-0.027-0.575,0.029-1.15,0.167-1.708
			c0.095-0.534,0.269-1.051,0.517-1.533c0.166-0.526,0.426-1.017,0.767-1.45c0.341-0.517,0.683-0.942,1.025-1.367
			c0.802-0.79,1.762-1.401,2.817-1.792c3.181-1.298,6.829-0.596,9.3,1.792c0.341,0.425,0.683,0.85,1.025,1.367
			c0.338,0.435,0.597,0.926,0.767,1.45c0.249,0.481,0.42,0.999,0.508,1.533c0.104,0.564,0.162,1.135,0.175,1.708
			c0.022,2.27-0.87,4.453-2.475,6.058C175.12,306.33,172.937,307.222,170.667,307.2L170.667,307.2z"/>
		<path style="fill:#428DFF;" d="M477.867,503.467H34.133c-2.264,0.001-4.435-0.897-6.035-2.498
			c-1.601-1.601-2.499-3.772-2.498-6.035v-341.25c-0.001-2.264,0.897-4.435,2.498-6.035c1.601-1.601,3.772-2.499,6.035-2.498
			h443.733c2.264-0.001,4.435,0.897,6.035,2.498c1.601,1.601,2.499,3.772,2.498,6.035v341.25c0.001,2.264-0.897,4.435-2.498,6.035
			C482.301,502.569,480.13,503.468,477.867,503.467z M42.667,486.4h426.667V162.217H42.667V486.4z"/>
		<path style="fill:#428DFF;" d="M332.8,128.083H179.2c-23.564,0-42.667-19.103-42.667-42.667S155.636,42.75,179.2,42.75h153.6
			c23.564,0,42.667,19.103,42.667,42.667S356.364,128.083,332.8,128.083L332.8,128.083z M179.2,59.817
			c-14.138,0-25.6,11.462-25.6,25.6s11.462,25.6,25.6,25.6h153.6c14.138,0,25.6-11.462,25.6-25.6s-11.462-25.6-25.6-25.6H179.2z"/>
		<path style="fill:#428DFF;" d="M477.867,503.467H34.133c-2.264,0.001-4.435-0.897-6.035-2.498
			c-1.601-1.601-2.499-3.772-2.498-6.035v-42.667c-0.001-2.264,0.897-4.435,2.498-6.035c1.601-1.601,3.772-2.499,6.035-2.498
			h443.733c2.264-0.001,4.435,0.897,6.035,2.498c1.601,1.601,2.499,3.772,2.498,6.035v42.667c0.001,2.264-0.897,4.435-2.498,6.035
			C482.301,502.569,480.13,503.468,477.867,503.467z M42.667,486.4h426.667v-25.6H42.667V486.4z"/>
	</g>
</g>
<g>
</g>
<g>
</g>
<g>
</g>
<g>
</g>
<g>
</g>
<g>
</g>
<g>
</g>
<g>
</g>
<g>
</g>
<g>
</g>
<g>
</g>
<g>
</g>
<g>
</g>
<g>
</g>
<g>
</g>
</svg>
