<?xml version="1.0" encoding="iso-8859-1"?>
<!-- Generator: Adobe Illustrator 19.0.0, SVG Export Plug-In . SVG Version: 6.00 Build 0)  -->
<svg version="1.1" id="Capa_1" xmlns="http://www.w3.org/2000/svg" xmlns:xlink="http://www.w3.org/1999/xlink" x="0px" y="0px"
	 viewBox="0 0 512 512" style="enable-background:new 0 0 512 512;" xml:space="preserve">
<g>
	<rect x="273.655" y="128" style="fill:#A4C2F7;" width="229.517" height="370.759"/>
	<rect x="8.828" y="48.552" style="fill:#FFFFFF;" width="229.517" height="450.207"/>
	<rect x="35.31" y="128" style="fill:#E3E7F2;" width="441.379" height="370.759"/>
	<rect x="273.655" y="48.552" style="fill:#7FACFA;" width="229.517" height="79.448"/>
	<rect x="35.31" y="48.552" style="fill:#A4C2F7;" width="441.379" height="79.448"/>
	<rect x="256" y="251.586" style="fill:#7FACFA;" width="123.586" height="123.586"/>
	<rect x="256" y="251.586" style="fill:#A4C2F7;" width="97.103" height="123.586"/>
	<g>
		<path style="fill:#428DFF;" d="M167.724,57.379h-26.483c-4.875,0-8.828-3.952-8.828-8.828s3.952-8.828,8.828-8.828h26.483
			c4.875,0,8.828,3.952,8.828,8.828S172.599,57.379,167.724,57.379z"/>
		<path style="fill:#428DFF;" d="M8.828,154.483c-2.341,0.001-4.587-0.929-6.243-2.585c-1.656-1.656-2.585-3.901-2.585-6.243V48.552
			c-0.001-2.341,0.929-4.587,2.585-6.243c1.656-1.656,3.901-2.585,6.243-2.585h132.414c4.875,0,8.828,3.952,8.828,8.828
			s-3.952,8.828-8.828,8.828H17.655v88.276c0.001,2.341-0.929,4.587-2.585,6.243C13.415,153.554,11.169,154.483,8.828,154.483z"/>
		<path style="fill:#428DFF;" d="M503.172,154.483c-2.341,0.001-4.587-0.929-6.243-2.585c-1.656-1.656-2.585-3.901-2.585-6.243
			V57.379H370.759c-4.875,0-8.828-3.952-8.828-8.828s3.952-8.828,8.828-8.828h132.414c2.341-0.001,4.587,0.929,6.243,2.585
			c1.656,1.656,2.585,3.901,2.585,6.243v97.103c0.001,2.341-0.929,4.587-2.585,6.243
			C507.759,153.554,505.514,154.483,503.172,154.483z"/>
		<path style="fill:#428DFF;" d="M503.172,507.586H8.828c-2.341,0.001-4.587-0.929-6.243-2.585C0.929,503.346-0.001,501.1,0,498.759
			V48.552c-0.001-2.341,0.929-4.587,2.585-6.243c1.656-1.656,3.901-2.585,6.243-2.585h132.414c4.875,0,8.828,3.952,8.828,8.828
			s-3.952,8.828-8.828,8.828H17.655v432.552h476.69V57.379H370.759c-4.875,0-8.828-3.952-8.828-8.828s3.952-8.828,8.828-8.828
			h132.414c2.341-0.001,4.587,0.929,6.243,2.585c1.656,1.656,2.585,3.901,2.585,6.243v450.207c0.001,2.341-0.929,4.587-2.585,6.243
			C507.759,506.657,505.514,507.587,503.172,507.586L503.172,507.586z"/>
		<path style="fill:#428DFF;" d="M176.552,92.69c-4.875,0-8.828-3.952-8.828-8.828s3.952-8.828,8.828-8.828
			c14.626,0,26.483-11.857,26.483-26.483s-11.857-26.483-26.483-26.483c-14.626,0-26.483,11.857-26.483,26.483
			c0,4.875-3.952,8.828-8.828,8.828s-8.828-3.952-8.828-8.828c0-24.377,19.761-44.138,44.138-44.138s44.138,19.761,44.138,44.138
			S200.928,92.69,176.552,92.69z"/>
		<path style="fill:#428DFF;" d="M229.517,92.69c-4.875,0-8.828-3.952-8.828-8.828s3.952-8.828,8.828-8.828
			c14.626,0,26.483-11.857,26.483-26.483s-11.857-26.483-26.483-26.483c-4.875,0-8.828-3.952-8.828-8.828s3.952-8.828,8.828-8.828
			c24.377,0,44.138,19.761,44.138,44.138S253.894,92.69,229.517,92.69z"/>
		<path style="fill:#428DFF;" d="M282.483,92.69c-4.875,0-8.828-3.952-8.828-8.828s3.952-8.828,8.828-8.828
			c14.626,0,26.483-11.857,26.483-26.483s-11.857-26.483-26.483-26.483c-4.875,0-8.828-3.952-8.828-8.828s3.952-8.828,8.828-8.828
			c24.377,0,44.138,19.761,44.138,44.138S306.859,92.69,282.483,92.69z"/>
		<path style="fill:#428DFF;" d="M335.448,92.69c-4.875,0-8.828-3.952-8.828-8.828s3.952-8.828,8.828-8.828
			c14.626,0,26.483-11.857,26.483-26.483s-11.857-26.483-26.483-26.483c-4.875,0-8.828-3.952-8.828-8.828s3.952-8.828,8.828-8.828
			c24.377,0,44.138,19.761,44.138,44.138S359.825,92.69,335.448,92.69z"/>
		<path style="fill:#428DFF;" d="M132.414,260.414H8.828c-2.341,0.001-4.587-0.929-6.243-2.585s-2.585-3.901-2.585-6.243V128
			c-0.001-2.341,0.929-4.587,2.585-6.243c1.656-1.656,3.901-2.585,6.243-2.585h123.586c2.341-0.001,4.587,0.929,6.243,2.585
			c1.656,1.656,2.585,3.901,2.585,6.243v123.586c0.001,2.341-0.929,4.587-2.585,6.243S134.755,260.414,132.414,260.414z
			 M17.655,242.759h105.931V136.828H17.655V242.759z"/>
		<path style="fill:#428DFF;" d="M132.414,384H8.828c-2.341,0.001-4.587-0.929-6.243-2.585c-1.656-1.656-2.585-3.901-2.585-6.243
			V251.586c-0.001-2.341,0.929-4.587,2.585-6.243c1.656-1.656,3.901-2.585,6.243-2.585h123.586c2.341-0.001,4.587,0.929,6.243,2.585
			c1.656,1.656,2.585,3.901,2.585,6.243v123.586c0.001,2.341-0.929,4.587-2.585,6.243C137.001,383.071,134.755,384.001,132.414,384
			L132.414,384z M17.655,366.345h105.931V260.414H17.655V366.345z"/>
		<path style="fill:#428DFF;" d="M132.414,507.586H8.828c-2.341,0.001-4.587-0.929-6.243-2.585C0.929,503.346-0.001,501.1,0,498.759
			V375.172c-0.001-2.341,0.929-4.587,2.585-6.243c1.656-1.656,3.901-2.585,6.243-2.585h123.586c2.341-0.001,4.587,0.929,6.243,2.585
			c1.656,1.656,2.585,3.901,2.585,6.243v123.586c0.001,2.341-0.929,4.587-2.585,6.243
			C137.001,506.657,134.755,507.587,132.414,507.586L132.414,507.586z M17.655,489.931h105.931V384H17.655V489.931z"/>
		<path style="fill:#428DFF;" d="M256,260.414H132.414c-2.341,0.001-4.587-0.929-6.243-2.585s-2.585-3.901-2.585-6.243V128
			c-0.001-2.341,0.929-4.587,2.585-6.243c1.656-1.656,3.901-2.585,6.243-2.585H256c2.341-0.001,4.587,0.929,6.243,2.585
			c1.656,1.656,2.585,3.901,2.585,6.243v123.586c0.001,2.341-0.929,4.587-2.585,6.243C260.587,259.485,258.341,260.414,256,260.414z
			 M141.241,242.759h105.931V136.828H141.241V242.759z"/>
		<path style="fill:#428DFF;" d="M256,384H132.414c-2.341,0.001-4.587-0.929-6.243-2.585c-1.656-1.656-2.585-3.901-2.585-6.243
			V251.586c-0.001-2.341,0.929-4.587,2.585-6.243c1.656-1.656,3.901-2.585,6.243-2.585H256c2.341-0.001,4.587,0.929,6.243,2.585
			c1.656,1.656,2.585,3.901,2.585,6.243v123.586c0.001,2.341-0.929,4.587-2.585,6.243C260.587,383.071,258.341,384.001,256,384
			L256,384z M141.241,366.345h105.931V260.414H141.241V366.345z"/>
		<path style="fill:#428DFF;" d="M256,507.586H132.414c-2.341,0.001-4.587-0.929-6.243-2.585c-1.656-1.656-2.585-3.901-2.585-6.243
			V375.172c-0.001-2.341,0.929-4.587,2.585-6.243c1.656-1.656,3.901-2.585,6.243-2.585H256c2.341-0.001,4.587,0.929,6.243,2.585
			c1.656,1.656,2.585,3.901,2.585,6.243v123.586c0.001,2.341-0.929,4.587-2.585,6.243C260.587,506.657,258.341,507.587,256,507.586
			L256,507.586z M141.241,489.931h105.931V384H141.241V489.931z"/>
		<path style="fill:#428DFF;" d="M379.586,260.414H256c-2.341,0.001-4.587-0.929-6.243-2.585c-1.656-1.656-2.585-3.901-2.585-6.243
			V128c-0.001-2.341,0.929-4.587,2.585-6.243c1.656-1.656,3.901-2.585,6.243-2.585h123.586c2.341-0.001,4.587,0.929,6.243,2.585
			c1.656,1.656,2.585,3.901,2.585,6.243v123.586c0.001,2.341-0.929,4.587-2.585,6.243
			C384.173,259.485,381.928,260.414,379.586,260.414z M264.828,242.759h105.931V136.828H264.828V242.759z"/>
		<path style="fill:#428DFF;" d="M379.586,384H256c-2.341,0.001-4.587-0.929-6.243-2.585c-1.656-1.656-2.585-3.901-2.585-6.243
			V251.586c-0.001-2.341,0.929-4.587,2.585-6.243c1.656-1.656,3.901-2.585,6.243-2.585h123.586c2.341-0.001,4.587,0.929,6.243,2.585
			c1.656,1.656,2.585,3.901,2.585,6.243v123.586c0.001,2.341-0.929,4.587-2.585,6.243C384.173,383.071,381.928,384.001,379.586,384
			L379.586,384z M264.828,366.345h105.931V260.414H264.828V366.345z"/>
		<path style="fill:#428DFF;" d="M379.586,507.586H256c-2.341,0.001-4.587-0.929-6.243-2.585c-1.656-1.656-2.585-3.901-2.585-6.243
			V375.172c-0.001-2.341,0.929-4.587,2.585-6.243c1.656-1.656,3.901-2.585,6.243-2.585h123.586c2.341-0.001,4.587,0.929,6.243,2.585
			c1.656,1.656,2.585,3.901,2.585,6.243v123.586c0.001,2.341-0.929,4.587-2.585,6.243
			C384.173,506.657,381.928,507.587,379.586,507.586L379.586,507.586z M264.828,489.931h105.931V384H264.828V489.931z"/>
		<path style="fill:#428DFF;" d="M503.172,260.414H379.586c-2.341,0.001-4.587-0.929-6.243-2.585
			c-1.656-1.656-2.585-3.901-2.585-6.243V128c-0.001-2.341,0.929-4.587,2.585-6.243c1.656-1.656,3.901-2.585,6.243-2.585h123.586
			c2.341-0.001,4.587,0.929,6.243,2.585c1.656,1.656,2.585,3.901,2.585,6.243v123.586c0.001,2.341-0.929,4.587-2.585,6.243
			C507.759,259.485,505.514,260.414,503.172,260.414z M388.414,242.759h105.931V136.828H388.414V242.759z"/>
		<path style="fill:#428DFF;" d="M503.172,384H379.586c-2.341,0.001-4.587-0.929-6.243-2.585c-1.656-1.656-2.585-3.901-2.585-6.243
			V251.586c-0.001-2.341,0.929-4.587,2.585-6.243c1.656-1.656,3.901-2.585,6.243-2.585h123.586c2.341-0.001,4.587,0.929,6.243,2.585
			c1.656,1.656,2.585,3.901,2.585,6.243v123.586c0.001,2.341-0.929,4.587-2.585,6.243C507.759,383.071,505.514,384.001,503.172,384
			L503.172,384z M388.414,366.345h105.931V260.414H388.414V366.345z"/>
		<path style="fill:#428DFF;" d="M503.172,507.586H379.586c-2.341,0.001-4.587-0.929-6.243-2.585
			c-1.656-1.656-2.585-3.901-2.585-6.243V375.172c-0.001-2.341,0.929-4.587,2.585-6.243c1.656-1.656,3.901-2.585,6.243-2.585
			h123.586c2.341-0.001,4.587,0.929,6.243,2.585c1.656,1.656,2.585,3.901,2.585,6.243v123.586c0.001,2.341-0.929,4.587-2.585,6.243
			C507.759,506.657,505.514,507.587,503.172,507.586L503.172,507.586z M388.414,489.931h105.931V384H388.414V489.931z"/>
		<path style="fill:#428DFF;" d="M353.103,357.517c-2.342,0.003-4.588-0.928-6.241-2.586l-70.621-70.621
			c-3.394-3.456-3.369-9.001,0.056-12.426c3.425-3.425,8.97-3.45,12.426-0.056l70.621,70.621c2.524,2.525,3.279,6.321,1.913,9.619
			C359.891,355.366,356.673,357.516,353.103,357.517z"/>
		<path style="fill:#428DFF;" d="M282.483,357.517c-3.57-0.001-6.788-2.152-8.154-5.45c-1.366-3.298-0.611-7.094,1.913-9.619
			l70.621-70.621c3.456-3.394,9.001-3.369,12.426,0.056c3.425,3.425,3.45,8.97,0.056,12.426l-70.621,70.621
			C287.071,356.589,284.824,357.52,282.483,357.517z"/>
	</g>
</g>
<g>
</g>
<g>
</g>
<g>
</g>
<g>
</g>
<g>
</g>
<g>
</g>
<g>
</g>
<g>
</g>
<g>
</g>
<g>
</g>
<g>
</g>
<g>
</g>
<g>
</g>
<g>
</g>
<g>
</g>
</svg>
