<?xml version="1.0" encoding="iso-8859-1"?>
<!-- Generator: Adobe Illustrator 19.0.0, SVG Export Plug-In . SVG Version: 6.00 Build 0)  -->
<svg version="1.1" id="Capa_1" xmlns="http://www.w3.org/2000/svg" xmlns:xlink="http://www.w3.org/1999/xlink" x="0px" y="0px"
	 viewBox="0 0 511.719 511.719" style="enable-background:new 0 0 511.719 511.719;" xml:space="preserve">
<g transform="translate(0 -1)">
	<circle style="fill:#A4C2F7;" cx="212.392" cy="203.918" r="193.208"/>
	
		<linearGradient id="SVGID_1_" gradientUnits="userSpaceOnUse" x1="-48.8696" y1="653.5262" x2="-48.1221" y2="652.8535" gradientTransform="matrix(347.7736 0 0 -386.4151 17058.6484 252606.3438)">
		<stop  offset="0" style="stop-color:#D4E1F4"/>
		<stop  offset="0.1717" style="stop-color:#D4E1F4"/>
		<stop  offset="0.2" style="stop-color:#D4E1F4"/>
		<stop  offset="0.2001" style="stop-color:#DAE4F4"/>
		<stop  offset="0.2007" style="stop-color:#EBEBF4"/>
		<stop  offset="0.2014" style="stop-color:#F6F1F4"/>
		<stop  offset="0.2023" style="stop-color:#FDF4F4"/>
		<stop  offset="0.205" style="stop-color:#FFF5F4"/>
		<stop  offset="0.2522" style="stop-color:#FFF5F4"/>
		<stop  offset="0.26" style="stop-color:#FFF5F4"/>
		<stop  offset="0.26" style="stop-color:#D4E1F4"/>
		<stop  offset="0.3974" style="stop-color:#D4E1F4"/>
		<stop  offset="0.42" style="stop-color:#D4E1F4"/>
		<stop  offset="0.4201" style="stop-color:#DAE4F4"/>
		<stop  offset="0.4207" style="stop-color:#EBEBF4"/>
		<stop  offset="0.4214" style="stop-color:#F6F1F4"/>
		<stop  offset="0.4223" style="stop-color:#FDF4F4"/>
		<stop  offset="0.425" style="stop-color:#FFF5F4"/>
		<stop  offset="0.4894" style="stop-color:#FFF5F4"/>
		<stop  offset="0.5" style="stop-color:#FFF5F4"/>
		<stop  offset="0.5" style="stop-color:#F9F2F4"/>
		<stop  offset="0.5001" style="stop-color:#E8EBF4"/>
		<stop  offset="0.5003" style="stop-color:#DDE5F4"/>
		<stop  offset="0.5005" style="stop-color:#D6E2F4"/>
		<stop  offset="0.501" style="stop-color:#D4E1F4"/>
		<stop  offset="0.7062" style="stop-color:#D4E1F4"/>
		<stop  offset="0.74" style="stop-color:#D4E1F4"/>
		<stop  offset="0.741" style="stop-color:#FFF5F4"/>
		<stop  offset="0.8346" style="stop-color:#FFF5F4"/>
		<stop  offset="0.85" style="stop-color:#FFF5F4"/>
		<stop  offset="0.851" style="stop-color:#D4E1F4"/>
	</linearGradient>
	<ellipse style="fill:url(#SVGID_1_);" cx="193.071" cy="203.918" rx="173.887" ry="193.208"/>
	<path style="fill:#FFFFFF;" d="M193.071,397.125c6.46-0.024,12.912-0.445,19.321-1.259
		c-86.931-10.69-154.566-92.508-154.566-191.949S125.461,22.659,212.392,11.969c-6.408-0.814-12.861-1.235-19.321-1.259
		c-96.035,0-173.887,86.502-173.887,193.208S97.036,397.125,193.071,397.125z"/>
	<g>
		<path style="fill:#428DFF;" d="M492.543,512.719c-2.629,0.004-5.145-1.068-6.962-2.967L335.401,353.563
			c-3.657-3.851-3.519-9.932,0.31-13.613c3.829-3.681,9.911-3.579,13.615,0.227l150.179,156.189
			c2.682,2.792,3.439,6.915,1.922,10.477C499.91,510.405,496.414,512.718,492.543,512.719z"/>
		<path style="fill:#428DFF;" d="M212.392,406.785c-79.745,0-152.094-46.72-184.903-119.403S7.497,129.536,60.245,69.729
			c2.28-2.599,5.776-3.78,9.165-3.098c3.389,0.682,6.155,3.124,7.253,6.402c1.097,3.278,0.359,6.894-1.937,9.479
			c-61.674,70.097-60.718,175.375,2.221,244.339s167.691,79.515,243.119,24.489s97.361-157.999,50.905-238.988
			S224.555-1.689,138.976,35.64c-4.885,2.111-10.557-0.125-12.687-5.001s0.083-10.557,4.951-12.706
			C206.875-15.065,294.959,1.034,354.033,58.65s77.367,145.271,46.269,221.706S294.91,406.777,212.392,406.785z"/>
		<circle style="fill:#428DFF;" cx="96.467" cy="49.351" r="9.66"/>
	</g>
</g>
<g>
</g>
<g>
</g>
<g>
</g>
<g>
</g>
<g>
</g>
<g>
</g>
<g>
</g>
<g>
</g>
<g>
</g>
<g>
</g>
<g>
</g>
<g>
</g>
<g>
</g>
<g>
</g>
<g>
</g>
</svg>
