<?xml version="1.0" encoding="iso-8859-1"?>
<!-- Generator: Adobe Illustrator 19.0.0, SVG Export Plug-In . SVG Version: 6.00 Build 0)  -->
<svg version="1.1" id="Capa_1" xmlns="http://www.w3.org/2000/svg" xmlns:xlink="http://www.w3.org/1999/xlink" x="0px" y="0px"
	 viewBox="0 0 512.002 512.002" style="enable-background:new 0 0 512.002 512.002;" xml:space="preserve">
<g>
	<polygon style="fill:#FFFFFF;" points="52.96,197.361 52.96,238.347 52.96,503.175 255.995,503.175 255.995,8.83 	"/>
	<polygon style="fill:#A4C2F7;" points="255.995,8.83 255.995,503.175 459.029,503.175 459.029,238.347 459.029,197.361 	"/>
	<polygon style="fill:#E3E7F2;" points="255.995,8.83 79.443,203.037 79.443,238.347 79.443,503.175 432.547,503.175 
		432.547,238.347 432.547,211.864 	"/>
	<path style="fill:#7FACFA;" d="M255.995,291.313L255.995,291.313c34.127,0,61.793,27.666,61.793,61.793v150.069H194.202V353.106
		C194.202,318.978,221.868,291.313,255.995,291.313z"/>
	<path style="fill:#A4C2F7;" d="M255.995,291.313L255.995,291.313c19.501,0,35.31,15.809,35.31,35.31v176.552h-97.103V353.106
		C194.202,318.978,221.868,291.313,255.995,291.313z"/>
	<g>
		<path style="fill:#428DFF;" d="M503.167,247.175c-2.229,0.004-4.377-0.839-6.009-2.358L255.995,20.877L14.831,244.817
			c-3.575,3.305-9.151,3.093-12.464-0.475s-3.113-9.144,0.447-12.465L249.986,2.36c3.388-3.147,8.629-3.147,12.017,0
			l247.172,229.517c2.659,2.471,3.534,6.317,2.207,9.696C510.056,244.951,506.797,247.174,503.167,247.175L503.167,247.175z"/>
		<path style="fill:#428DFF;" d="M317.788,512.002H194.202c-2.341,0.001-4.587-0.929-6.243-2.585
			c-1.656-1.656-2.585-3.901-2.585-6.243V353.106c0-39.003,31.618-70.621,70.621-70.621s70.621,31.618,70.621,70.621v150.069
			c0.001,2.341-0.929,4.587-2.585,6.243C322.375,511.073,320.129,512.003,317.788,512.002z M203.029,494.347H308.96V353.106
			c0-29.252-23.713-52.966-52.966-52.966s-52.966,23.713-52.966,52.966V494.347z"/>
		<path style="fill:#428DFF;" d="M459.029,361.933c-2.341,0.001-4.587-0.929-6.243-2.585c-1.656-1.656-2.585-3.901-2.585-6.243
			V201.213L255.995,20.877L61.788,201.213v37.134c0,4.875-3.952,8.828-8.828,8.828s-8.828-3.952-8.828-8.828v-40.983
			c0.003-2.454,1.024-4.797,2.819-6.47L249.986,2.36c3.388-3.147,8.629-3.147,12.017,0l203.034,188.534
			c1.795,1.673,2.816,4.016,2.819,6.47v155.741c0.001,2.341-0.929,4.587-2.585,6.243
			C463.616,361.004,461.371,361.934,459.029,361.933L459.029,361.933z"/>
		<path style="fill:#428DFF;" d="M459.029,512.002H52.96c-2.341,0.001-4.587-0.929-6.243-2.585
			c-1.656-1.656-2.585-3.901-2.585-6.243V308.968c0-4.875,3.952-8.828,8.828-8.828s8.828,3.952,8.828,8.828v185.379h388.414v-70.621
			c0-4.875,3.952-8.828,8.828-8.828s8.828,3.952,8.828,8.828v79.448c0.001,2.341-0.929,4.587-2.585,6.243
			C463.616,511.073,461.371,512.003,459.029,512.002z"/>
		<circle style="fill:#428DFF;" cx="52.96" cy="273.657" r="8.828"/>
		<circle style="fill:#428DFF;" cx="459.029" cy="388.416" r="8.828"/>
	</g>
</g>
<g>
</g>
<g>
</g>
<g>
</g>
<g>
</g>
<g>
</g>
<g>
</g>
<g>
</g>
<g>
</g>
<g>
</g>
<g>
</g>
<g>
</g>
<g>
</g>
<g>
</g>
<g>
</g>
<g>
</g>
</svg>
