<?xml version="1.0" encoding="iso-8859-1"?>
<!-- Generator: Adobe Illustrator 19.0.0, SVG Export Plug-In . SVG Version: 6.00 Build 0)  -->
<svg version="1.1" id="Capa_1" xmlns="http://www.w3.org/2000/svg" xmlns:xlink="http://www.w3.org/1999/xlink" x="0px" y="0px"
	 viewBox="0 0 512.004 512.004" style="enable-background:new 0 0 512.004 512.004;" xml:space="preserve">
<g transform="translate(0 -1)">
	<g>
		<path style="fill:#A4C2F7;" d="M110.933,154.612c-14.233,0.013-28.305,3.009-41.308,8.795c1.611,2.694,1.757,6.017,0.39,8.842
			c-4.871,8.338-12.078,15.066-20.731,19.353c-9.171,5.286-17.676,11.651-25.333,18.959c-1.457,1.526-3.422,2.468-5.524,2.648
			c-19.48,41.184-9.399,90.286,24.732,120.463s84.098,34.167,122.585,9.787c38.487-24.379,56.232-71.259,43.533-115.012
			C196.578,184.694,156.492,154.598,110.933,154.612L110.933,154.612z"/>
		<path style="fill:#A4C2F7;" d="M401.067,154.612c-11.037,0.013-21.999,1.816-32.458,5.339c-0.212,0.628-0.485,1.234-0.815,1.809
			c-11.808,20.546-31.056,34.265-47.667,50.579c-3.048,3.199-8.02,3.579-11.519,0.881c-19.461,41.177-9.368,90.26,24.762,120.416
			c34.13,30.157,84.082,34.129,122.549,9.746c38.467-24.384,56.191-71.254,43.482-114.989
			C486.693,184.657,446.611,154.583,401.067,154.612L401.067,154.612z"/>
	</g>
	
		<linearGradient id="SVGID_1_" gradientUnits="userSpaceOnUse" x1="-48.5952" y1="653.1435" x2="-47.8657" y2="652.5045" gradientTransform="matrix(179.367 0 0 -204.787 9038.4902 133948.7344)">
		<stop  offset="0" style="stop-color:#D4E1F4"/>
		<stop  offset="0.1717" style="stop-color:#D4E1F4"/>
		<stop  offset="0.2" style="stop-color:#D4E1F4"/>
		<stop  offset="0.2001" style="stop-color:#DAE4F4"/>
		<stop  offset="0.2007" style="stop-color:#EBEBF4"/>
		<stop  offset="0.2014" style="stop-color:#F6F1F4"/>
		<stop  offset="0.2023" style="stop-color:#FDF4F4"/>
		<stop  offset="0.205" style="stop-color:#FFF5F4"/>
		<stop  offset="0.2522" style="stop-color:#FFF5F4"/>
		<stop  offset="0.26" style="stop-color:#FFF5F4"/>
		<stop  offset="0.26" style="stop-color:#D4E1F4"/>
		<stop  offset="0.3974" style="stop-color:#D4E1F4"/>
		<stop  offset="0.42" style="stop-color:#D4E1F4"/>
		<stop  offset="0.4201" style="stop-color:#DAE4F4"/>
		<stop  offset="0.4207" style="stop-color:#EBEBF4"/>
		<stop  offset="0.4214" style="stop-color:#F6F1F4"/>
		<stop  offset="0.4223" style="stop-color:#FDF4F4"/>
		<stop  offset="0.425" style="stop-color:#FFF5F4"/>
		<stop  offset="0.4894" style="stop-color:#FFF5F4"/>
		<stop  offset="0.5" style="stop-color:#FFF5F4"/>
		<stop  offset="0.5" style="stop-color:#F9F2F4"/>
		<stop  offset="0.5001" style="stop-color:#E8EBF4"/>
		<stop  offset="0.5003" style="stop-color:#DDE5F4"/>
		<stop  offset="0.5005" style="stop-color:#D6E2F4"/>
		<stop  offset="0.501" style="stop-color:#D4E1F4"/>
		<stop  offset="0.7062" style="stop-color:#D4E1F4"/>
		<stop  offset="0.74" style="stop-color:#D4E1F4"/>
		<stop  offset="0.741" style="stop-color:#FFF5F4"/>
		<stop  offset="0.8346" style="stop-color:#FFF5F4"/>
		<stop  offset="0.85" style="stop-color:#FFF5F4"/>
		<stop  offset="0.851" style="stop-color:#D4E1F4"/>
	</linearGradient>
	<path style="fill:url(#SVGID_1_);" d="M375.467,154.612c-1.576,0-3.117,0.136-4.671,0.22c0.357,3.391-1.271,6.685-4.181,8.461
		c-8.835,7.069-17.035,14.898-24.505,23.396c-8.226,7.668-19.14,11.915-26.604,20.316c-2.195,2.775-5.989,3.716-9.226,2.288
		c-7.261,18.282-9.481,38.179-6.427,57.612c4.09,32.821,19.05,52.488,40.008,76.912c0.986,1.166,1.672,2.556,1.996,4.048
		c8.401,2.296,16.961,3.961,25.61,4.982c3.834,0.285,7.106,2.882,8.254,6.552c56.511-0.125,102.236-46.009,102.166-102.52
		C477.817,200.367,431.978,154.597,375.467,154.612L375.467,154.612z"/>
	<path style="fill:#FFFFFF;" d="M383.675,352.553c-36.579-19.481-59.426-57.553-59.408-98.996
		c0.017-41.443,22.897-79.495,59.492-98.946c-45.068,11.705-76.539,52.376-76.558,98.938
		C307.181,300.113,338.617,340.811,383.675,352.553L383.675,352.553z"/>
	
		<linearGradient id="SVGID_2_" gradientUnits="userSpaceOnUse" x1="-48.5903" y1="653.1479" x2="-47.8607" y2="652.509" gradientTransform="matrix(179.3222 0 0 -204.436 8746.1729 133719.5625)">
		<stop  offset="0" style="stop-color:#D4E1F4"/>
		<stop  offset="0.1717" style="stop-color:#D4E1F4"/>
		<stop  offset="0.2" style="stop-color:#D4E1F4"/>
		<stop  offset="0.2001" style="stop-color:#DAE4F4"/>
		<stop  offset="0.2007" style="stop-color:#EBEBF4"/>
		<stop  offset="0.2014" style="stop-color:#F6F1F4"/>
		<stop  offset="0.2023" style="stop-color:#FDF4F4"/>
		<stop  offset="0.205" style="stop-color:#FFF5F4"/>
		<stop  offset="0.2522" style="stop-color:#FFF5F4"/>
		<stop  offset="0.26" style="stop-color:#FFF5F4"/>
		<stop  offset="0.26" style="stop-color:#D4E1F4"/>
		<stop  offset="0.3974" style="stop-color:#D4E1F4"/>
		<stop  offset="0.42" style="stop-color:#D4E1F4"/>
		<stop  offset="0.4201" style="stop-color:#DAE4F4"/>
		<stop  offset="0.4207" style="stop-color:#EBEBF4"/>
		<stop  offset="0.4214" style="stop-color:#F6F1F4"/>
		<stop  offset="0.4223" style="stop-color:#FDF4F4"/>
		<stop  offset="0.425" style="stop-color:#FFF5F4"/>
		<stop  offset="0.4894" style="stop-color:#FFF5F4"/>
		<stop  offset="0.5" style="stop-color:#FFF5F4"/>
		<stop  offset="0.5" style="stop-color:#F9F2F4"/>
		<stop  offset="0.5001" style="stop-color:#E8EBF4"/>
		<stop  offset="0.5003" style="stop-color:#DDE5F4"/>
		<stop  offset="0.5005" style="stop-color:#D6E2F4"/>
		<stop  offset="0.501" style="stop-color:#D4E1F4"/>
		<stop  offset="0.7062" style="stop-color:#D4E1F4"/>
		<stop  offset="0.74" style="stop-color:#D4E1F4"/>
		<stop  offset="0.741" style="stop-color:#FFF5F4"/>
		<stop  offset="0.8346" style="stop-color:#FFF5F4"/>
		<stop  offset="0.85" style="stop-color:#FFF5F4"/>
		<stop  offset="0.851" style="stop-color:#D4E1F4"/>
	</linearGradient>
	<path style="fill:url(#SVGID_2_);" d="M92.531,154.976c-0.02,3.075-1.852,5.848-4.672,7.073c-3.898,1.96-7.975,4.104-12.18,5.944
		c-0.846,1.598-2.186,2.881-3.82,3.656c-8.814,4.46-18.159,7.443-27.291,11.046c0.175,2.421-0.815,4.781-2.664,6.355
		c-5.986,5.711-11.18,12.198-15.445,19.287c-2.46,3.81-7.264,5.358-11.486,3.703c-6.299,17.564-8.11,36.424-5.269,54.866
		c3.364,24.76,14.228,47.896,31.132,66.298c8.413,2.953,16.349,7.12,23.555,12.371c3.716,2.517,5.139,7.306,3.401,11.444
		c0.235,0.278,0.393,0.641,0.619,0.928c5.584,0.967,11.24,1.457,16.907,1.465c55.141,0.031,100.393-43.629,102.337-98.735
		C189.601,205.57,147.537,158.831,92.531,154.976L92.531,154.976z"/>
	<path style="fill:#FFFFFF;" d="M93.542,352.553C56.963,333.072,34.116,295,34.133,253.558
		c0.017-41.443,22.897-79.495,59.492-98.946c-45.068,11.705-76.539,52.376-76.558,98.938
		C17.047,300.113,48.484,340.811,93.542,352.553L93.542,352.553z"/>
	<g>
		<path style="fill:#428DFF;" d="M401.067,367.945H110.933c-4.713,0-8.533-3.82-8.533-8.533s3.821-8.533,8.533-8.533h290.133
			c4.713,0,8.533,3.82,8.533,8.533S405.78,367.945,401.067,367.945z"/>
		<circle style="fill:#428DFF;" cx="42.667" cy="180.212" r="8.533"/>
		<path style="fill:#428DFF;" d="M110.933,367.945c-40.869-0.007-78.425-22.481-97.748-58.494s-17.284-79.732,5.307-113.79
			c2.61-3.926,7.908-4.993,11.833-2.383c3.926,2.61,4.993,7.908,2.383,11.833c-25.81,38.967-18.964,90.995,16.048,121.958
			s87.486,31.397,123.005,1.016c35.519-30.381,43.224-82.288,18.061-121.676s-75.501-54.215-117.997-34.756
			c-2.77,1.271-6.008,0.968-8.494-0.795c-2.486-1.764-3.843-4.719-3.558-7.754c0.284-3.035,2.166-5.687,4.936-6.959
			c41.245-18.9,89.842-10.782,122.705,20.497s43.369,79.416,26.527,121.544C197.098,340.314,156.303,367.942,110.933,367.945z"/>
		<circle style="fill:#428DFF;" cx="332.8" cy="180.212" r="8.533"/>
		<path style="fill:#428DFF;" d="M401.067,367.945c-40.869-0.007-78.425-22.481-97.748-58.494s-17.284-79.732,5.307-113.79
			c1.688-2.54,4.603-3.986,7.646-3.793c3.043,0.192,5.753,1.993,7.108,4.725c1.355,2.732,1.15,5.979-0.538,8.518
			c-24.686,37.222-19.729,86.683,11.851,118.266s81.041,36.545,118.265,11.863c3.925-2.591,9.206-1.518,11.81,2.399
			c2.604,3.917,1.548,9.201-2.36,11.818C444.236,361.545,422.891,367.978,401.067,367.945z"/>
		<path style="fill:#428DFF;" d="M494.175,308.212c-1.226,0.002-2.438-0.264-3.55-0.779c-2.058-0.943-3.656-2.664-4.444-4.786
			c-0.788-2.122-0.7-4.469,0.244-6.526c16.315-35.674,8.74-77.73-18.999-105.468s-69.794-35.314-105.468-18.999
			c-2.77,1.271-6.008,0.968-8.495-0.795c-2.486-1.764-3.843-4.719-3.558-7.754s2.166-5.687,4.936-6.959
			c42.159-19.289,91.866-10.339,124.65,22.443s41.736,82.488,22.45,124.649C500.546,306.27,497.513,308.212,494.175,308.212z"/>
		<circle style="fill:#428DFF;" cx="477.867" cy="325.279" r="8.533"/>
	</g>
</g>
<g>
</g>
<g>
</g>
<g>
</g>
<g>
</g>
<g>
</g>
<g>
</g>
<g>
</g>
<g>
</g>
<g>
</g>
<g>
</g>
<g>
</g>
<g>
</g>
<g>
</g>
<g>
</g>
<g>
</g>
</svg>
