<?xml version="1.0" encoding="iso-8859-1"?>
<!-- Generator: Adobe Illustrator 19.0.0, SVG Export Plug-In . SVG Version: 6.00 Build 0)  -->
<svg version="1.1" id="Capa_1" xmlns="http://www.w3.org/2000/svg" xmlns:xlink="http://www.w3.org/1999/xlink" x="0px" y="0px"
	 viewBox="0 0 498.104 498.104" style="enable-background:new 0 0 498.104 498.104;" xml:space="preserve">
<g transform="translate(0 -8)">
	<path style="fill:#FFFFFF;" d="M247.86,389.055c-66.843,0.116-130.976-26.411-178.208-73.709L9.884,255.578l61.729-61.729
		c46.985-47.053,110.708-73.559,177.203-73.707L247.86,389.055z"/>
	<path style="fill:#A4C2F7;" d="M249.774,120.642c66.843-0.116,130.976,26.411,178.208,73.709l59.767,59.768l-61.729,61.729
		c-46.985,47.053-110.708,73.559-177.203,73.707L249.774,120.642z"/>
	<path style="fill:#E3E7F2;" d="M42.019,256.082l61.729-61.729c38.47-38.47,90.646-60.082,145.05-60.082
		s106.58,21.612,145.05,60.082l59.768,59.768l-61.73,61.73c-80.109,80.109-209.991,80.109-290.1,0L42.019,256.082z"/>
	<circle style="fill:#A4C2F7;" cx="247.221" cy="255.326" r="100.804"/>
	
		<linearGradient id="SVGID_1_" gradientUnits="userSpaceOnUse" x1="-55.7891" y1="657.0688" x2="-55.0271" y2="656.4224" gradientTransform="matrix(169.1515 0 0 -199.3933 9602.4277 131207.5781)">
		<stop  offset="0" style="stop-color:#D4E1F4"/>
		<stop  offset="0.1717" style="stop-color:#D4E1F4"/>
		<stop  offset="0.2" style="stop-color:#D4E1F4"/>
		<stop  offset="0.2001" style="stop-color:#DAE4F4"/>
		<stop  offset="0.2007" style="stop-color:#EBEBF4"/>
		<stop  offset="0.2014" style="stop-color:#F6F1F4"/>
		<stop  offset="0.2023" style="stop-color:#FDF4F4"/>
		<stop  offset="0.205" style="stop-color:#FFF5F4"/>
		<stop  offset="0.2522" style="stop-color:#FFF5F4"/>
		<stop  offset="0.26" style="stop-color:#FFF5F4"/>
		<stop  offset="0.26" style="stop-color:#D4E1F4"/>
		<stop  offset="0.3974" style="stop-color:#D4E1F4"/>
		<stop  offset="0.42" style="stop-color:#D4E1F4"/>
		<stop  offset="0.4201" style="stop-color:#DAE4F4"/>
		<stop  offset="0.4207" style="stop-color:#EBEBF4"/>
		<stop  offset="0.4214" style="stop-color:#F6F1F4"/>
		<stop  offset="0.4223" style="stop-color:#FDF4F4"/>
		<stop  offset="0.425" style="stop-color:#FFF5F4"/>
		<stop  offset="0.4894" style="stop-color:#FFF5F4"/>
		<stop  offset="0.5" style="stop-color:#FFF5F4"/>
		<stop  offset="0.5" style="stop-color:#F9F2F4"/>
		<stop  offset="0.5001" style="stop-color:#E8EBF4"/>
		<stop  offset="0.5003" style="stop-color:#DDE5F4"/>
		<stop  offset="0.5005" style="stop-color:#D6E2F4"/>
		<stop  offset="0.501" style="stop-color:#D4E1F4"/>
		<stop  offset="0.7062" style="stop-color:#D4E1F4"/>
		<stop  offset="0.74" style="stop-color:#D4E1F4"/>
		<stop  offset="0.741" style="stop-color:#FFF5F4"/>
		<stop  offset="0.8346" style="stop-color:#FFF5F4"/>
		<stop  offset="0.85" style="stop-color:#FFF5F4"/>
		<stop  offset="0.851" style="stop-color:#D4E1F4"/>
	</linearGradient>
	<path style="fill:url(#SVGID_1_);" d="M230.232,157.541c-1.661,1.809-4.027,2.807-6.482,2.733
		c-0.929-0.043-1.845-0.229-2.717-0.552c-1.631,1.769-3.945,2.747-6.35,2.685c-1.083-0.025-2.152-0.242-3.158-0.642
		c-1.118,1.935-2.922,3.379-5.054,4.045c-52.419,17.532-64.49,63.003-56.116,112.446c1.318,11.422,4.098,22.628,8.27,33.342
		c3.638,4.94,7.583,9.647,11.813,14.09c4.792,4.042,10.365,7.054,16.371,8.849c2.411,0.918,4.176,3.018,4.665,5.552
		c9.934,3.495,19.604,7.7,28.935,12.582c0.635,0.431,1.212,0.942,1.718,1.519c0.204-0.012,0.344-0.113,0.556-0.113
		c2.533-0.089,4.973,0.959,6.653,2.856c50.003-6.431,87.52-48.889,87.747-99.304C317.309,207.214,280.175,164.421,230.232,157.541
		L230.232,157.541z"/>
	<g>
		<path style="fill:#428DFF;" d="M249.371,402.066c-68.902-0.08-134.93-27.624-183.462-76.533L2.5,262.124
			c-1.601-1.6-2.5-3.77-2.5-6.033c0-2.263,0.899-4.434,2.5-6.033l61.729-61.729c8.546-8.551,17.672-16.502,27.313-23.796
			c3.761-2.812,9.087-2.057,11.919,1.689c2.832,3.747,2.104,9.077-1.628,11.928c-9.013,6.818-17.545,14.251-25.533,22.246
			l-55.7,55.696l57.375,57.375c70.68,71.288,178.066,91.469,269.804,50.704c4.315-1.896,9.35,0.064,11.246,4.379
			c1.896,4.315-0.064,9.35-4.379,11.246C321.479,394.44,285.627,402.024,249.371,402.066L249.371,402.066z"/>
		<path style="fill:#428DFF;" d="M402.092,350.541c-3.664,0.004-6.921-2.332-8.093-5.803c-1.172-3.471,0.002-7.303,2.918-9.522
			c8.776-6.684,17.092-13.952,24.892-21.754l55.696-55.692l-57.375-57.375c-68.689-68.767-171.744-89.993-262.017-53.967
			c-2.762,1.1-5.511,2.253-8.246,3.458c-2.788,1.233-6.022,0.884-8.484-0.914s-3.777-4.773-3.45-7.804
			c0.327-3.031,2.245-5.657,5.034-6.89c2.925-1.292,5.867-2.526,8.825-3.704c96.607-38.56,206.898-15.843,280.404,57.754
			l63.408,63.408c1.601,1.6,2.5,3.77,2.5,6.033s-0.899,4.434-2.5,6.033l-61.729,61.729c-8.344,8.343-17.239,16.116-26.625,23.267
			C405.769,349.931,403.956,350.543,402.092,350.541z"/>
		<path style="fill:#428DFF;" d="M189.083,256.674c-4.713,0-8.533-3.82-8.533-8.533c0.037-32.974,26.759-59.696,59.733-59.733
			c4.713,0,8.533,3.821,8.533,8.533c0,4.713-3.82,8.533-8.533,8.533c-23.553,0.028-42.639,19.114-42.667,42.667
			C197.617,252.854,193.796,256.674,189.083,256.674z"/>
		<path style="fill:#428DFF;" d="M248.817,367.608c-61.267,0-110.933-49.667-110.933-110.933s49.667-110.933,110.933-110.933
			S359.75,195.408,359.75,256.674C359.682,317.913,310.055,367.54,248.817,367.608z M248.817,162.808
			c-51.841,0-93.867,42.026-93.867,93.867s42.026,93.867,93.867,93.867s93.867-42.026,93.867-93.867
			C342.625,204.858,300.634,162.866,248.817,162.808L248.817,162.808z"/>
		<circle style="fill:#428DFF;" cx="120.817" cy="154.274" r="8.533"/>
		<circle style="fill:#428DFF;" cx="376.817" cy="359.074" r="8.533"/>
	</g>
</g>
<g>
</g>
<g>
</g>
<g>
</g>
<g>
</g>
<g>
</g>
<g>
</g>
<g>
</g>
<g>
</g>
<g>
</g>
<g>
</g>
<g>
</g>
<g>
</g>
<g>
</g>
<g>
</g>
<g>
</g>
</svg>
