<?xml version="1.0" encoding="iso-8859-1"?>
<!-- Generator: Adobe Illustrator 19.0.0, SVG Export Plug-In . SVG Version: 6.00 Build 0)  -->
<svg version="1.1" id="Capa_1" xmlns="http://www.w3.org/2000/svg" xmlns:xlink="http://www.w3.org/1999/xlink" x="0px" y="0px"
	 viewBox="0 0 512 512" style="enable-background:new 0 0 512 512;" xml:space="preserve">
<g>
	<rect x="273.655" y="145.655" style="fill:#A4C2F7;" width="229.517" height="353.103"/>
	<rect x="8.828" y="145.655" style="fill:#FFFFFF;" width="229.517" height="353.103"/>
	
		<linearGradient id="SVGID_1_" gradientUnits="userSpaceOnUse" x1="-48.839" y1="652.6688" x2="-47.939" y2="651.5438" gradientTransform="matrix(441.3793 0 0 -353.1035 21613.8965 230583.2031)">
		<stop  offset="0" style="stop-color:#D4E1F4"/>
		<stop  offset="0.1717" style="stop-color:#D4E1F4"/>
		<stop  offset="0.2" style="stop-color:#D4E1F4"/>
		<stop  offset="0.2001" style="stop-color:#DAE4F4"/>
		<stop  offset="0.2007" style="stop-color:#EBEBF4"/>
		<stop  offset="0.2014" style="stop-color:#F6F1F4"/>
		<stop  offset="0.2023" style="stop-color:#FDF4F4"/>
		<stop  offset="0.205" style="stop-color:#FFF5F4"/>
		<stop  offset="0.2522" style="stop-color:#FFF5F4"/>
		<stop  offset="0.26" style="stop-color:#FFF5F4"/>
		<stop  offset="0.26" style="stop-color:#D4E1F4"/>
		<stop  offset="0.3974" style="stop-color:#D4E1F4"/>
		<stop  offset="0.42" style="stop-color:#D4E1F4"/>
		<stop  offset="0.4201" style="stop-color:#DAE4F4"/>
		<stop  offset="0.4207" style="stop-color:#EBEBF4"/>
		<stop  offset="0.4214" style="stop-color:#F6F1F4"/>
		<stop  offset="0.4223" style="stop-color:#FDF4F4"/>
		<stop  offset="0.425" style="stop-color:#FFF5F4"/>
		<stop  offset="0.4894" style="stop-color:#FFF5F4"/>
		<stop  offset="0.5" style="stop-color:#FFF5F4"/>
		<stop  offset="0.5" style="stop-color:#F9F2F4"/>
		<stop  offset="0.5001" style="stop-color:#E8EBF4"/>
		<stop  offset="0.5003" style="stop-color:#DDE5F4"/>
		<stop  offset="0.5005" style="stop-color:#D6E2F4"/>
		<stop  offset="0.501" style="stop-color:#D4E1F4"/>
		<stop  offset="0.7062" style="stop-color:#D4E1F4"/>
		<stop  offset="0.74" style="stop-color:#D4E1F4"/>
		<stop  offset="0.741" style="stop-color:#FFF5F4"/>
		<stop  offset="0.8346" style="stop-color:#FFF5F4"/>
		<stop  offset="0.85" style="stop-color:#FFF5F4"/>
		<stop  offset="0.851" style="stop-color:#D4E1F4"/>
	</linearGradient>
	<rect x="35.31" y="145.655" style="fill:url(#SVGID_1_);" width="441.379" height="353.103"/>
	<rect x="273.655" y="48.552" style="fill:#7FACFA;" width="229.517" height="97.103"/>
	<rect x="8.828" y="48.552" style="fill:#FFFFFF;" width="229.517" height="97.103"/>
	<rect x="35.31" y="48.552" style="fill:#A4C2F7;" width="441.379" height="97.103"/>
	<g>
		<path style="fill:#428DFF;" d="M167.724,57.379h-26.483c-4.875,0-8.828-3.952-8.828-8.828s3.952-8.828,8.828-8.828h26.483
			c4.875,0,8.828,3.952,8.828,8.828S172.599,57.379,167.724,57.379z"/>
		<path style="fill:#428DFF;" d="M503.172,154.483H8.828c-2.341,0.001-4.587-0.929-6.243-2.585
			c-1.656-1.656-2.585-3.901-2.585-6.243V48.552c-0.001-2.341,0.929-4.587,2.585-6.243c1.656-1.656,3.901-2.585,6.243-2.585h132.414
			c4.875,0,8.828,3.952,8.828,8.828s-3.952,8.828-8.828,8.828H17.655v79.448h476.69V57.379H370.759
			c-4.875,0-8.828-3.952-8.828-8.828s3.952-8.828,8.828-8.828h132.414c2.341-0.001,4.587,0.929,6.243,2.585
			c1.656,1.656,2.585,3.901,2.585,6.243v97.103c0.001,2.341-0.929,4.587-2.585,6.243
			C507.759,153.554,505.514,154.483,503.172,154.483z"/>
		<path style="fill:#428DFF;" d="M503.172,507.586H8.828c-2.341,0.001-4.587-0.929-6.243-2.585C0.929,503.346-0.001,501.1,0,498.759
			V48.552c-0.001-2.341,0.929-4.587,2.585-6.243c1.656-1.656,3.901-2.585,6.243-2.585h132.414c4.875,0,8.828,3.952,8.828,8.828
			s-3.952,8.828-8.828,8.828H17.655v432.552h476.69V57.379H370.759c-4.875,0-8.828-3.952-8.828-8.828s3.952-8.828,8.828-8.828
			h132.414c2.341-0.001,4.587,0.929,6.243,2.585c1.656,1.656,2.585,3.901,2.585,6.243v450.207c0.001,2.341-0.929,4.587-2.585,6.243
			C507.759,506.657,505.514,507.587,503.172,507.586L503.172,507.586z"/>
		<path style="fill:#428DFF;" d="M176.552,92.69c-4.875,0-8.828-3.952-8.828-8.828s3.952-8.828,8.828-8.828
			c14.626,0,26.483-11.857,26.483-26.483s-11.857-26.483-26.483-26.483c-14.626,0-26.483,11.857-26.483,26.483
			c0,4.875-3.952,8.828-8.828,8.828s-8.828-3.952-8.828-8.828c0-24.377,19.761-44.138,44.138-44.138s44.138,19.761,44.138,44.138
			S200.928,92.69,176.552,92.69z"/>
		<path style="fill:#428DFF;" d="M229.517,92.69c-4.875,0-8.828-3.952-8.828-8.828s3.952-8.828,8.828-8.828
			c14.626,0,26.483-11.857,26.483-26.483s-11.857-26.483-26.483-26.483c-4.875,0-8.828-3.952-8.828-8.828s3.952-8.828,8.828-8.828
			c24.377,0,44.138,19.761,44.138,44.138S253.894,92.69,229.517,92.69z"/>
		<path style="fill:#428DFF;" d="M282.483,92.69c-4.875,0-8.828-3.952-8.828-8.828s3.952-8.828,8.828-8.828
			c14.626,0,26.483-11.857,26.483-26.483s-11.857-26.483-26.483-26.483c-4.875,0-8.828-3.952-8.828-8.828s3.952-8.828,8.828-8.828
			c24.377,0,44.138,19.761,44.138,44.138S306.859,92.69,282.483,92.69z"/>
		<path style="fill:#428DFF;" d="M335.448,92.69c-4.875,0-8.828-3.952-8.828-8.828s3.952-8.828,8.828-8.828
			c14.626,0,26.483-11.857,26.483-26.483s-11.857-26.483-26.483-26.483c-4.875,0-8.828-3.952-8.828-8.828s3.952-8.828,8.828-8.828
			c24.377,0,44.138,19.761,44.138,44.138S359.825,92.69,335.448,92.69z"/>
		<path style="fill:#428DFF;" d="M273.655,225.103H79.448c-4.875,0-8.828-3.952-8.828-8.828s3.952-8.828,8.828-8.828h194.207
			c4.875,0,8.828,3.952,8.828,8.828S278.531,225.103,273.655,225.103z"/>
		<path style="fill:#428DFF;" d="M432.552,366.345H300.138c-4.875,0-8.828-3.952-8.828-8.828s3.952-8.828,8.828-8.828h132.414
			c4.875,0,8.828,3.952,8.828,8.828S437.427,366.345,432.552,366.345z"/>
		<path style="fill:#428DFF;" d="M167.724,295.724H79.448c-4.875,0-8.828-3.952-8.828-8.828s3.952-8.828,8.828-8.828h88.276
			c4.875,0,8.828,3.952,8.828,8.828S172.599,295.724,167.724,295.724z"/>
		<path style="fill:#428DFF;" d="M432.552,436.966h-88.276c-4.875,0-8.828-3.952-8.828-8.828s3.952-8.828,8.828-8.828h88.276
			c4.875,0,8.828,3.952,8.828,8.828S437.427,436.966,432.552,436.966z"/>
		<path style="fill:#428DFF;" d="M388.414,295.724H256c-4.875,0-8.828-3.952-8.828-8.828s3.952-8.828,8.828-8.828h132.414
			c4.875,0,8.828,3.952,8.828,8.828S393.289,295.724,388.414,295.724z"/>
		<path style="fill:#428DFF;" d="M211.862,295.724c-2.34-0.018-4.584-0.935-6.268-2.56c-0.78-0.859-1.408-1.844-1.858-2.914
			c-0.937-2.137-0.937-4.569,0-6.707c0.807-2.215,2.552-3.96,4.767-4.767c2.131-0.974,4.58-0.974,6.711,0
			c1.07,0.448,2.055,1.075,2.914,1.854c0.799,0.843,1.428,1.833,1.854,2.914c0.943,2.136,0.943,4.571,0,6.707
			c-0.45,1.068-1.077,2.053-1.854,2.914c-0.859,0.779-1.844,1.406-2.914,1.854C214.154,295.471,213.015,295.71,211.862,295.724z"/>
		<path style="fill:#428DFF;" d="M256,366.345H123.586c-4.875,0-8.828-3.952-8.828-8.828s3.952-8.828,8.828-8.828H256
			c4.875,0,8.828,3.952,8.828,8.828S260.875,366.345,256,366.345z"/>
		<path style="fill:#428DFF;" d="M79.448,366.345c-2.952,0.028-5.72-1.436-7.358-3.892c-1.638-2.456-1.927-5.573-0.767-8.289
			c0.448-1.07,1.076-2.056,1.857-2.914c0.44-0.353,0.879-0.707,1.41-1.06c0.45-0.35,0.957-0.618,1.5-0.793
			c0.526-0.272,1.094-0.453,1.681-0.535c1.14-0.172,2.3-0.172,3.44,0c0.554,0.096,1.091,0.276,1.59,0.535
			c0.564,0.191,1.099,0.457,1.591,0.793c0.44,0.353,0.879,0.707,1.323,1.06c0.779,0.859,1.406,1.844,1.854,2.914
			c1.335,3.264,0.607,7.009-1.854,9.535C84.042,365.35,81.799,366.298,79.448,366.345L79.448,366.345z"/>
		<path style="fill:#428DFF;" d="M432.552,295.724c-1.155-0.014-2.296-0.254-3.358-0.707c-2.215-0.807-3.96-2.552-4.767-4.767
			c-0.937-2.137-0.937-4.569,0-6.707c0.448-1.071,1.076-2.056,1.857-2.915c0.431-0.402,0.904-0.757,1.409-1.06
			c0.45-0.35,0.957-0.618,1.5-0.793c0.526-0.272,1.094-0.453,1.681-0.535c2.879-0.534,5.838,0.355,7.945,2.388
			c0.779,0.859,1.406,1.844,1.854,2.914c0.943,2.136,0.943,4.571,0,6.707c-0.45,1.068-1.077,2.053-1.854,2.914
			c-0.859,0.779-1.844,1.406-2.914,1.854C434.845,295.47,433.705,295.71,432.552,295.724L432.552,295.724z"/>
		<path style="fill:#428DFF;" d="M300.138,436.966H79.448c-4.875,0-8.828-3.952-8.828-8.828s3.952-8.828,8.828-8.828h220.69
			c4.875,0,8.828,3.952,8.828,8.828S305.013,436.966,300.138,436.966z"/>
	</g>
</g>
<g>
</g>
<g>
</g>
<g>
</g>
<g>
</g>
<g>
</g>
<g>
</g>
<g>
</g>
<g>
</g>
<g>
</g>
<g>
</g>
<g>
</g>
<g>
</g>
<g>
</g>
<g>
</g>
<g>
</g>
</svg>
