<?xml version="1.0" encoding="iso-8859-1"?>
<!-- Generator: Adobe Illustrator 19.0.0, SVG Export Plug-In . SVG Version: 6.00 Build 0)  -->
<svg version="1.1" id="Capa_1" xmlns="http://www.w3.org/2000/svg" xmlns:xlink="http://www.w3.org/1999/xlink" x="0px" y="0px"
	 viewBox="0 0 505.237 505.237" style="enable-background:new 0 0 505.237 505.237;" xml:space="preserve">
<g>
	<path style="fill:#FFFFFF;" d="M252.602,402.32c-68.438-0.071-133.888-28.049-181.229-77.473l-60.78-62.819l62.775-64.881
		c47.096-49.166,112.124-77.122,180.207-77.471L252.602,402.32z"/>
	<path style="fill:#A4C2F7;" d="M254.549,120.203c68.438,0.071,133.888,28.05,181.228,77.473l60.78,62.82l-62.775,64.881
		c-47.096,49.166-112.124,77.121-180.207,77.47L254.549,120.203z"/>
	<path style="fill:#E3E7F2;" d="M461.847,260.495l-62.775,64.881c-99.945,103.297-195.071,103.297-295.016,0l-60.78-62.819
		l62.775-64.881c99.945-103.297,195.071-103.297,295.016,0L461.847,260.495z"/>
	<circle style="fill:#A4C2F7;" cx="263.903" cy="261.832" r="111.156"/>
	
		<linearGradient id="SVGID_1_" gradientUnits="userSpaceOnUse" x1="-55.3894" y1="646.6743" x2="-54.6141" y2="646.0201" gradientTransform="matrix(187.6003 0 0 -222.3121 10564.8945 143952.6563)">
		<stop  offset="0" style="stop-color:#D4E1F4"/>
		<stop  offset="0.1717" style="stop-color:#D4E1F4"/>
		<stop  offset="0.2" style="stop-color:#D4E1F4"/>
		<stop  offset="0.2001" style="stop-color:#DAE4F4"/>
		<stop  offset="0.2007" style="stop-color:#EBEBF4"/>
		<stop  offset="0.2014" style="stop-color:#F6F1F4"/>
		<stop  offset="0.2023" style="stop-color:#FDF4F4"/>
		<stop  offset="0.205" style="stop-color:#FFF5F4"/>
		<stop  offset="0.2522" style="stop-color:#FFF5F4"/>
		<stop  offset="0.26" style="stop-color:#FFF5F4"/>
		<stop  offset="0.26" style="stop-color:#D4E1F4"/>
		<stop  offset="0.3974" style="stop-color:#D4E1F4"/>
		<stop  offset="0.42" style="stop-color:#D4E1F4"/>
		<stop  offset="0.4201" style="stop-color:#DAE4F4"/>
		<stop  offset="0.4207" style="stop-color:#EBEBF4"/>
		<stop  offset="0.4214" style="stop-color:#F6F1F4"/>
		<stop  offset="0.4223" style="stop-color:#FDF4F4"/>
		<stop  offset="0.425" style="stop-color:#FFF5F4"/>
		<stop  offset="0.4894" style="stop-color:#FFF5F4"/>
		<stop  offset="0.5" style="stop-color:#FFF5F4"/>
		<stop  offset="0.5" style="stop-color:#F9F2F4"/>
		<stop  offset="0.5001" style="stop-color:#E8EBF4"/>
		<stop  offset="0.5003" style="stop-color:#DDE5F4"/>
		<stop  offset="0.5005" style="stop-color:#D6E2F4"/>
		<stop  offset="0.501" style="stop-color:#D4E1F4"/>
		<stop  offset="0.7062" style="stop-color:#D4E1F4"/>
		<stop  offset="0.74" style="stop-color:#D4E1F4"/>
		<stop  offset="0.741" style="stop-color:#FFF5F4"/>
		<stop  offset="0.8346" style="stop-color:#FFF5F4"/>
		<stop  offset="0.85" style="stop-color:#FFF5F4"/>
		<stop  offset="0.851" style="stop-color:#D4E1F4"/>
	</linearGradient>
	<ellipse style="fill:url(#SVGID_1_);" cx="246.547" cy="261.832" rx="93.8" ry="111.156"/>
	<g>
		<path style="fill:#428DFF;" d="M175.474,137.6c-4.251-0.001-7.876-3.081-8.564-7.277c-0.688-4.195,1.764-8.272,5.793-9.63
			c52.417-17.559,109.123-17.59,161.559-0.089c2.946,0.981,5.144,3.462,5.762,6.505c0.618,3.043-0.437,6.185-2.767,8.238
			c-2.33,2.053-5.58,2.704-8.521,1.707c-48.847-16.287-101.664-16.256-150.491,0.089C177.353,137.444,176.417,137.599,175.474,137.6
			L175.474,137.6z"/>
		<path style="fill:#428DFF;" d="M99.742,357.502c-1.963,0.002-3.869-0.665-5.403-1.89c-7.507-5.986-14.672-12.389-21.462-19.178
			L2.542,266.099C0.915,264.472,0,262.265,0,259.963s0.915-4.509,2.542-6.136l72.339-72.343
			c10.78-10.783,22.505-20.578,35.034-29.267c3.941-2.729,9.348-1.746,12.076,2.195c2.729,3.941,1.746,9.348-2.195,12.076
			c-11.675,8.094-22.6,17.219-32.644,27.267l-66.204,66.208l64.2,64.2c6.329,6.327,13.007,12.294,20.004,17.873
			c2.886,2.299,4.003,6.171,2.784,9.654S103.431,357.504,99.742,357.502L99.742,357.502z"/>
		<path style="fill:#428DFF;" d="M251.707,410.578c-29.152-0.016-58.082-5.064-85.517-14.92c-2.919-1.046-5.058-3.57-5.611-6.62
			c-0.553-3.051,0.563-6.165,2.928-8.169c2.365-2.005,5.62-2.595,8.539-1.549c56.447,20.327,118.532,18.29,173.525-5.695
			c4.395-1.912,9.508,0.101,11.42,4.496c1.912,4.395-0.101,9.508-4.496,11.42C320.701,403.401,286.392,410.563,251.707,410.578
			L251.707,410.578z"/>
		<path style="fill:#428DFF;" d="M401.106,359.375c-3.71,0.002-7.011-2.354-8.215-5.863c-1.203-3.509-0.043-7.396,2.888-9.67
			c7.838-6.09,15.287-12.663,22.305-19.683l66.203-66.199l-64.2-64.203c-10.871-10.87-22.769-20.66-35.53-29.233
			c-3.981-2.67-5.043-8.062-2.373-12.043s8.062-5.043,12.043-2.373c13.696,9.2,26.466,19.708,38.131,31.377l70.335,70.339
			c1.628,1.627,2.542,3.834,2.542,6.136s-0.915,4.509-2.542,6.136l-72.339,72.339c-7.533,7.528-15.526,14.581-23.932,21.119
			C404.903,358.736,403.032,359.378,401.106,359.375z"/>
		<path style="fill:#428DFF;" d="M261.424,376.303c-21.858,0.02-43.284-6.089-61.843-17.636c-4.07-2.532-5.316-7.884-2.784-11.953
			c2.532-4.07,7.884-5.316,11.953-2.784c39.919,24.79,91.722,18.379,124.394-15.393s37.364-85.759,11.267-124.836
			c-1.751-2.576-1.988-5.894-0.618-8.692c1.369-2.798,4.133-4.648,7.242-4.847c3.109-0.198,6.086,1.285,7.8,3.887
			c24.014,35.945,26.285,82.192,5.908,120.317C344.366,352.49,304.652,376.298,261.424,376.303L261.424,376.303z"/>
		<path style="fill:#428DFF;" d="M163.996,315.561c-3.314,0.002-6.34-1.881-7.801-4.856c-7.892-16.038-11.972-33.681-11.924-51.555
			c0.01-42.074,22.577-80.914,59.124-101.759s81.465-20.498,117.685,0.912c4.123,2.443,5.486,7.766,3.042,11.89
			c-2.443,4.123-7.766,5.486-11.89,3.042c-37.969-22.425-86.154-17.284-118.537,12.649s-41.292,77.565-21.917,117.178
			c1.32,2.689,1.159,5.868-0.424,8.41C169.772,314.014,166.99,315.56,163.996,315.561L163.996,315.561z"/>
		<path style="fill:#428DFF;" d="M60.746,463.083c-3.509-0.001-6.673-2.115-8.016-5.357c-1.343-3.242-0.601-6.974,1.88-9.456
			L458.136,44.744c2.186-2.221,5.395-3.098,8.407-2.3c3.012,0.799,5.365,3.151,6.163,6.163c0.799,3.012-0.079,6.221-2.3,8.407
			L66.881,460.54C65.256,462.17,63.048,463.085,60.746,463.083z"/>
		<circle style="fill:#428DFF;" cx="140.762" cy="141.998" r="8.678"/>
		<circle style="fill:#428DFF;" cx="375.068" cy="367.625" r="8.678"/>
	</g>
</g>
<g>
</g>
<g>
</g>
<g>
</g>
<g>
</g>
<g>
</g>
<g>
</g>
<g>
</g>
<g>
</g>
<g>
</g>
<g>
</g>
<g>
</g>
<g>
</g>
<g>
</g>
<g>
</g>
<g>
</g>
</svg>
