<?xml version="1.0" encoding="iso-8859-1"?>
<!-- Generator: Adobe Illustrator 19.0.0, SVG Export Plug-In . SVG Version: 6.00 Build 0)  -->
<svg version="1.1" id="Capa_1" xmlns="http://www.w3.org/2000/svg" xmlns:xlink="http://www.w3.org/1999/xlink" x="0px" y="0px"
	 viewBox="0 0 512 512" style="enable-background:new 0 0 512 512;" xml:space="preserve">
<g>
	<path style="fill:#FFFFFF;" d="M253.455,387.879c-66.843,0.116-130.976-26.411-178.208-73.709L15.48,254.402l61.729-61.729
		c46.985-47.053,110.708-73.559,177.203-73.707L253.455,387.879z"/>
	<path style="fill:#A4C2F7;" d="M255.37,119.467c66.843-0.116,130.976,26.411,178.208,73.709l59.767,59.768l-61.729,61.729
		c-46.985,47.053-110.708,73.559-177.203,73.707L255.37,119.467z"/>
	<path style="fill:#E3E7F2;" d="M47.613,254.914l61.729-61.73c38.47-38.47,90.646-60.082,145.05-60.082
		c54.404,0,106.58,21.612,145.05,60.082l59.768,59.768l-61.729,61.729c-80.109,80.109-209.991,80.109-290.1,0L47.613,254.914z"/>
	<circle style="fill:#A4C2F7;" cx="252.817" cy="254.148" r="100.804"/>
	
		<linearGradient id="SVGID_1_" gradientUnits="userSpaceOnUse" x1="-45.9267" y1="652.1277" x2="-45.1647" y2="651.4813" gradientTransform="matrix(169.1512 0 0 -199.3932 7939.7681 130221.1406)">
		<stop  offset="0" style="stop-color:#D4E1F4"/>
		<stop  offset="0.1717" style="stop-color:#D4E1F4"/>
		<stop  offset="0.2" style="stop-color:#D4E1F4"/>
		<stop  offset="0.2001" style="stop-color:#DAE4F4"/>
		<stop  offset="0.2007" style="stop-color:#EBEBF4"/>
		<stop  offset="0.2014" style="stop-color:#F6F1F4"/>
		<stop  offset="0.2023" style="stop-color:#FDF4F4"/>
		<stop  offset="0.205" style="stop-color:#FFF5F4"/>
		<stop  offset="0.2522" style="stop-color:#FFF5F4"/>
		<stop  offset="0.26" style="stop-color:#FFF5F4"/>
		<stop  offset="0.26" style="stop-color:#D4E1F4"/>
		<stop  offset="0.3974" style="stop-color:#D4E1F4"/>
		<stop  offset="0.42" style="stop-color:#D4E1F4"/>
		<stop  offset="0.4201" style="stop-color:#DAE4F4"/>
		<stop  offset="0.4207" style="stop-color:#EBEBF4"/>
		<stop  offset="0.4214" style="stop-color:#F6F1F4"/>
		<stop  offset="0.4223" style="stop-color:#FDF4F4"/>
		<stop  offset="0.425" style="stop-color:#FFF5F4"/>
		<stop  offset="0.4894" style="stop-color:#FFF5F4"/>
		<stop  offset="0.5" style="stop-color:#FFF5F4"/>
		<stop  offset="0.5" style="stop-color:#F9F2F4"/>
		<stop  offset="0.5001" style="stop-color:#E8EBF4"/>
		<stop  offset="0.5003" style="stop-color:#DDE5F4"/>
		<stop  offset="0.5005" style="stop-color:#D6E2F4"/>
		<stop  offset="0.501" style="stop-color:#D4E1F4"/>
		<stop  offset="0.7062" style="stop-color:#D4E1F4"/>
		<stop  offset="0.74" style="stop-color:#D4E1F4"/>
		<stop  offset="0.741" style="stop-color:#FFF5F4"/>
		<stop  offset="0.8346" style="stop-color:#FFF5F4"/>
		<stop  offset="0.85" style="stop-color:#FFF5F4"/>
		<stop  offset="0.851" style="stop-color:#D4E1F4"/>
	</linearGradient>
	<path style="fill:url(#SVGID_1_);" d="M235.828,156.365c-1.661,1.809-4.027,2.807-6.482,2.733
		c-0.929-0.043-1.845-0.229-2.717-0.552c-1.631,1.769-3.945,2.748-6.35,2.686c-1.083-0.025-2.152-0.242-3.158-0.642
		c-1.118,1.935-2.922,3.379-5.054,4.045c-52.419,17.532-64.49,63.003-56.116,112.446c1.318,11.422,4.098,22.628,8.27,33.342
		c3.638,4.94,7.583,9.646,11.813,14.09c4.792,4.042,10.365,7.054,16.371,8.849c2.411,0.918,4.176,3.018,4.665,5.552
		c9.934,3.495,19.604,7.7,28.935,12.582c0.635,0.431,1.212,0.942,1.718,1.519c0.204-0.012,0.344-0.113,0.556-0.113
		c2.533-0.089,4.973,0.959,6.653,2.856c50.003-6.432,87.52-48.89,87.746-99.304C322.904,206.039,285.771,163.245,235.828,156.365
		L235.828,156.365z"/>
	<g>
		<path style="fill:#428DFF;" d="M252.812,363.483c-60.383-0.004-109.331-48.956-109.329-109.339
			c0.002-60.383,48.953-109.332,109.336-109.332s109.334,48.95,109.335,109.333C362.085,314.504,313.171,363.417,252.812,363.483
			L252.812,363.483z M252.812,161.879c-50.958,0.004-92.265,41.316-92.262,92.274c0.003,50.958,41.314,92.266,92.272,92.264
			s92.266-41.313,92.265-92.271C345.029,203.209,303.749,161.933,252.812,161.879z"/>
		<path style="fill:#428DFF;" d="M254.412,102.4c-2.263,0.001-4.434-0.898-6.035-2.499c-1.6-1.6-2.499-3.771-2.499-6.035V8.533
			c0-4.713,3.821-8.533,8.533-8.533s8.533,3.821,8.533,8.533v85.333c0.001,2.263-0.898,4.434-2.499,6.035
			S256.676,102.401,254.412,102.4L254.412,102.4z"/>
		<path style="fill:#428DFF;" d="M254.412,102.4c-3.451-0.001-6.562-2.08-7.882-5.268c-1.32-3.188-0.591-6.858,1.849-9.298
			L282.513,53.7c2.149-2.188,5.307-3.055,8.271-2.27s5.28,3.1,6.065,6.065c0.785,2.965-0.082,6.122-2.27,8.271L260.445,99.9
			C258.847,101.503,256.676,102.403,254.412,102.4L254.412,102.4z"/>
		<path style="fill:#428DFF;" d="M254.412,102.4c-2.264,0.003-4.435-0.897-6.033-2.5l-34.133-34.133
			c-3.281-3.341-3.256-8.701,0.054-12.012c3.311-3.311,8.671-3.335,12.012-0.054l34.133,34.133c2.44,2.44,3.169,6.11,1.849,9.298
			C260.974,100.32,257.863,102.399,254.412,102.4z"/>
		<path style="fill:#428DFF;" d="M254.412,512c-2.263,0.001-4.434-0.898-6.035-2.499c-1.6-1.6-2.499-3.771-2.499-6.035v-85.333
			c0-4.713,3.821-8.533,8.533-8.533s8.533,3.82,8.533,8.533v85.333c0.001,2.263-0.898,4.434-2.499,6.035
			C258.847,511.102,256.676,512.001,254.412,512L254.412,512z"/>
		<path style="fill:#428DFF;" d="M220.279,460.8c-3.451-0.001-6.562-2.08-7.882-5.268c-1.32-3.188-0.591-6.858,1.849-9.298
			l34.133-34.133c3.341-3.281,8.701-3.256,12.012,0.054c3.311,3.311,3.335,8.671,0.054,12.012L226.312,458.3
			C224.714,459.903,222.543,460.803,220.279,460.8L220.279,460.8z"/>
		<path style="fill:#428DFF;" d="M288.546,460.8c-2.264,0.003-4.435-0.897-6.033-2.5l-34.133-34.133
			c-3.281-3.341-3.256-8.701,0.054-12.012c3.311-3.311,8.671-3.335,12.012-0.054l34.133,34.133c2.44,2.44,3.169,6.11,1.849,9.298
			C295.107,458.72,291.997,460.799,288.546,460.8z"/>
		<path style="fill:#428DFF;" d="M256.321,400.879c-68.904-0.077-134.934-27.622-183.467-76.533L9.446,260.937
			c-1.601-1.6-2.5-3.77-2.5-6.033c0-2.263,0.899-4.433,2.5-6.033l61.733-61.729c8.546-8.551,17.673-16.501,27.317-23.792
			c2.432-1.847,5.665-2.253,8.478-1.065c2.813,1.188,4.777,3.788,5.149,6.819c0.373,3.031-0.903,6.029-3.344,7.863
			c-9.014,6.816-17.545,14.248-25.533,22.242l-55.7,55.696l57.375,57.375c70.681,71.288,178.068,91.471,269.808,50.708
			c4.315-1.896,9.35,0.064,11.246,4.379c1.896,4.315-0.064,9.35-4.379,11.246C328.428,393.255,292.577,400.837,256.321,400.879z"/>
		<path style="fill:#428DFF;" d="M409.037,349.358c-3.664,0.004-6.921-2.332-8.094-5.803c-1.172-3.471,0.002-7.304,2.919-9.522
			c8.776-6.685,17.092-13.953,24.892-21.754l55.7-55.696l-57.375-57.375c-68.686-68.771-171.746-89.996-262.017-53.962
			c-2.775,1.1-5.525,2.253-8.25,3.458c-2.788,1.233-6.022,0.884-8.484-0.914c-2.461-1.798-3.777-4.773-3.45-7.804
			c0.327-3.031,2.246-5.657,5.034-6.89c2.925-1.296,5.872-2.533,8.842-3.713c96.606-38.538,206.882-15.822,280.392,57.758
			l63.408,63.408c1.601,1.6,2.5,3.77,2.5,6.033s-0.899,4.433-2.5,6.033l-61.733,61.729c-8.34,8.348-17.236,16.123-26.625,23.271
			C412.714,348.748,410.901,349.36,409.037,349.358L409.037,349.358z"/>
		<circle style="fill:#428DFF;" cx="127.761" cy="153.088" r="8.533"/>
		<circle style="fill:#428DFF;" cx="383.778" cy="357.888" r="8.533"/>
	</g>
</g>
<g>
</g>
<g>
</g>
<g>
</g>
<g>
</g>
<g>
</g>
<g>
</g>
<g>
</g>
<g>
</g>
<g>
</g>
<g>
</g>
<g>
</g>
<g>
</g>
<g>
</g>
<g>
</g>
<g>
</g>
</svg>
