<?xml version="1.0" encoding="iso-8859-1"?>
<!-- Generator: Adobe Illustrator 19.0.0, SVG Export Plug-In . SVG Version: 6.00 Build 0)  -->
<svg version="1.1" id="Capa_1" xmlns="http://www.w3.org/2000/svg" xmlns:xlink="http://www.w3.org/1999/xlink" x="0px" y="0px"
	 viewBox="0 0 512.009 512.009" style="enable-background:new 0 0 512.009 512.009;" xml:space="preserve">
<g>
	<path style="fill:#A4C2F7;" d="M256.001,9.141c-46.962-0.055-92.955,13.354-132.529,38.639c1.638,3.526,0.744,7.71-2.191,10.259
		c-9.663,9.229-14.239,21.942-22.601,32.207c-10.272,11.2-22.702,20.208-36.544,26.482c-3.054,1.693-6.789,1.579-9.734-0.296
		c-64.167,93.621-56.223,218.932,19.252,303.701s199.028,107.145,299.439,54.231s151.798-167.48,124.541-277.658
		C468.377,86.527,369.501,9.135,256.001,9.141L256.001,9.141z"/>
	<path style="fill:#E3E7F2;" d="M228.573,9.141c-3.526,0-7.025,0.117-10.514,0.265c-8.138,16.615-26.437,20.409-43.614,21.291
		c-6.376,0.327-16.604-0.717-26.465-0.424c0.195,2.609-0.637,5.19-2.318,7.194c-4.154,4.743-9.411,8.391-15.307,10.622
		c0.08,3.341-1.499,6.505-4.218,8.449c-6.794,4.868-13.842,9.371-21.114,13.49c1.422,3.469,0.623,7.453-2.027,10.106
		c-2.542,3.083-4.051,6.887-4.314,10.874c-1.485,5.242-6.905,8.319-12.167,6.908c-1.937-0.548-3.63-1.738-4.801-3.375
		c-3.76,3.243-7.098,6.945-9.934,11.021c-3.195,5.098-3.802,11.434-8.279,15.843c-2.143,2.453-5.22,3.89-8.476,3.959
		c-3.256,0.068-6.391-1.238-8.635-3.599c-12.272,15.711-17.642,43.616-24.04,60.441c-2.924,7.689-5.942,15.326-9.054,22.914
		c0.74,17.551-5.152,33.91-5.69,51.642c-0.084,0.737-0.254,1.462-0.506,2.16c6.98,38.147,12.977,74.02,37.917,109.039
		c13.123,18.426,19.679,38.011,31.321,56.904c14.185,23.019,40.471,33.969,61.988,48.881c2.376,1.53,3.986,4.003,4.424,6.795
		c9.957,5.09,20.119,9.786,29.862,15.3c0.323,0.203,0.635,0.422,0.934,0.658c92.436,21.169,188.826-12.498,247.981-86.615
		s70.61-175.573,29.47-261.014S323.402,9.115,228.573,9.141z"/>
	<path style="fill:#FFFFFF;" d="M260.573,503.253c4.604,0,9.172-0.15,13.714-0.398C144.334,495.736,36.573,396.872,36.573,265.141
		C36.579,134.139,138.916,25.957,269.716,18.682c-4.542-0.249-9.11-0.398-13.714-0.398c-136.335,0-246.857,110.522-246.857,246.857
		S124.237,503.253,260.573,503.253z"/>
	<g>
		<path style="fill:#428DFF;" d="M365.716,164.569H146.287c-5.049,0-9.143-4.093-9.143-9.143s4.093-9.143,9.143-9.143h219.429
			c5.049,0,9.143,4.093,9.143,9.143S370.765,164.569,365.716,164.569z"/>
		<path style="fill:#428DFF;" d="M365.716,265.141H146.287c-5.049,0-9.143-4.093-9.143-9.143s4.093-9.143,9.143-9.143h219.429
			c5.049,0,9.143,4.093,9.143,9.143S370.765,265.141,365.716,265.141z"/>
		<path style="fill:#428DFF;" d="M365.716,365.712H146.287c-5.049,0-9.143-4.093-9.143-9.143c0-5.049,4.093-9.143,9.143-9.143
			h219.429c5.049,0,9.143,4.093,9.143,9.143C374.858,361.619,370.765,365.712,365.716,365.712z"/>
		<path style="fill:#428DFF;" d="M256.001,511.998c-96.539-0.009-184.865-54.32-228.438-140.467S-7.42,182.053,49.778,104.283
			c1.935-2.636,5.131-4.038,8.381-3.676c3.25,0.362,6.059,2.433,7.366,5.431c1.307,2.998,0.913,6.465-1.033,9.093
			C-7.852,213.493,6.082,350.665,96.727,432.469s228.524,81.637,318.971-0.387c2.419-2.195,5.826-2.932,8.936-1.934
			c3.11,0.998,5.452,3.58,6.143,6.772c0.691,3.193-0.374,6.511-2.794,8.706C380.918,488.389,319.592,512.056,256.001,511.998
			L256.001,511.998z"/>
		<path style="fill:#428DFF;" d="M467.108,393.145c-3.301-0.003-6.344-1.785-7.961-4.663c-1.617-2.878-1.557-6.404,0.157-9.225
			c58.443-96.431,41.11-220.652-41.497-297.401S210.042-3.06,118.162,62.306c-2.66,1.895-6.13,2.226-9.101,0.87
			c-2.971-1.357-4.993-4.195-5.304-7.447c-0.311-3.251,1.137-6.422,3.797-8.316c98.948-70.385,233.727-61.586,322.685,21.066
			s107.624,216.422,44.69,320.269C473.272,391.482,470.306,393.149,467.108,393.145L467.108,393.145z"/>
		<circle style="fill:#428DFF;" cx="82.287" cy="82.283" r="9.143"/>
		<circle style="fill:#428DFF;" cx="448.001" cy="411.426" r="9.143"/>
	</g>
</g>
<g>
</g>
<g>
</g>
<g>
</g>
<g>
</g>
<g>
</g>
<g>
</g>
<g>
</g>
<g>
</g>
<g>
</g>
<g>
</g>
<g>
</g>
<g>
</g>
<g>
</g>
<g>
</g>
<g>
</g>
</svg>
