<?xml version="1.0" encoding="iso-8859-1"?>
<!-- Generator: Adobe Illustrator 19.0.0, SVG Export Plug-In . SVG Version: 6.00 Build 0)  -->
<svg version="1.1" id="Capa_1" xmlns="http://www.w3.org/2000/svg" xmlns:xlink="http://www.w3.org/1999/xlink" x="0px" y="0px"
	 viewBox="0 0 512 512" style="enable-background:new 0 0 512 512;" xml:space="preserve">
<g>
	<path style="fill:#428DFF;" d="M502.154,59.077H9.846C4.408,59.077,0,54.669,0,49.231s4.408-9.846,9.846-9.846h492.308
		c5.438,0,9.846,4.408,9.846,9.846S507.592,59.077,502.154,59.077z"/>
	<path style="fill:#428DFF;" d="M502.154,196.923H9.846c-5.438,0-9.846-4.408-9.846-9.846c0-5.438,4.408-9.846,9.846-9.846h492.308
		c5.438,0,9.846,4.408,9.846,9.846C512,192.515,507.592,196.923,502.154,196.923z"/>
	<path style="fill:#428DFF;" d="M502.154,334.769H9.846c-5.438,0-9.846-4.408-9.846-9.846c0-5.438,4.408-9.846,9.846-9.846h492.308
		c5.438,0,9.846,4.408,9.846,9.846C512,330.361,507.592,334.769,502.154,334.769z"/>
	<path style="fill:#428DFF;" d="M502.154,472.615H9.846c-5.438,0-9.846-4.408-9.846-9.846c0-5.438,4.408-9.846,9.846-9.846h492.308
		c5.438,0,9.846,4.408,9.846,9.846C512,468.207,507.592,472.615,502.154,472.615z"/>
</g>
<g>
</g>
<g>
</g>
<g>
</g>
<g>
</g>
<g>
</g>
<g>
</g>
<g>
</g>
<g>
</g>
<g>
</g>
<g>
</g>
<g>
</g>
<g>
</g>
<g>
</g>
<g>
</g>
<g>
</g>
</svg>
