<?xml version="1.0" encoding="iso-8859-1"?>
<!-- Generator: Adobe Illustrator 19.0.0, SVG Export Plug-In . SVG Version: 6.00 Build 0)  -->
<svg version="1.1" id="Capa_1" xmlns="http://www.w3.org/2000/svg" xmlns:xlink="http://www.w3.org/1999/xlink" x="0px" y="0px"
	 viewBox="0 0 511.997 511.997" style="enable-background:new 0 0 511.997 511.997;" xml:space="preserve">
<g>
	<polygon style="fill:#FFFFFF;" points="256,396.073 10.086,255.572 103.366,202.604 256,289.809 	"/>
	<polygon style="fill:#A4C2F7;" points="256,9.658 501.915,149.308 256,289.809 	"/>
	<polygon style="fill:#FFFFFF;" points="256,289.383 10.086,149.733 256,9.233 	"/>
	
		<linearGradient id="SVGID_1_" gradientUnits="userSpaceOnUse" x1="-48.4505" y1="651.9643" x2="-47.4505" y2="651.9643" gradientTransform="matrix(395.2253 0 0 -260.8302 19207.2578 170201.7031)">
		<stop  offset="0" style="stop-color:#D4E1F4"/>
		<stop  offset="0.1717" style="stop-color:#D4E1F4"/>
		<stop  offset="0.2" style="stop-color:#D4E1F4"/>
		<stop  offset="0.2001" style="stop-color:#DAE4F4"/>
		<stop  offset="0.2007" style="stop-color:#EBEBF4"/>
		<stop  offset="0.2014" style="stop-color:#F6F1F4"/>
		<stop  offset="0.2023" style="stop-color:#FDF4F4"/>
		<stop  offset="0.205" style="stop-color:#FFF5F4"/>
		<stop  offset="0.2522" style="stop-color:#FFF5F4"/>
		<stop  offset="0.26" style="stop-color:#FFF5F4"/>
		<stop  offset="0.26" style="stop-color:#D4E1F4"/>
		<stop  offset="0.3974" style="stop-color:#D4E1F4"/>
		<stop  offset="0.42" style="stop-color:#D4E1F4"/>
		<stop  offset="0.4201" style="stop-color:#DAE4F4"/>
		<stop  offset="0.4207" style="stop-color:#EBEBF4"/>
		<stop  offset="0.4214" style="stop-color:#F6F1F4"/>
		<stop  offset="0.4223" style="stop-color:#FDF4F4"/>
		<stop  offset="0.425" style="stop-color:#FFF5F4"/>
		<stop  offset="0.4894" style="stop-color:#FFF5F4"/>
		<stop  offset="0.5" style="stop-color:#FFF5F4"/>
		<stop  offset="0.5" style="stop-color:#F9F2F4"/>
		<stop  offset="0.5001" style="stop-color:#E8EBF4"/>
		<stop  offset="0.5003" style="stop-color:#DDE5F4"/>
		<stop  offset="0.5005" style="stop-color:#D6E2F4"/>
		<stop  offset="0.501" style="stop-color:#D4E1F4"/>
		<stop  offset="0.7062" style="stop-color:#D4E1F4"/>
		<stop  offset="0.74" style="stop-color:#D4E1F4"/>
		<stop  offset="0.741" style="stop-color:#FFF5F4"/>
		<stop  offset="0.8346" style="stop-color:#FFF5F4"/>
		<stop  offset="0.85" style="stop-color:#FFF5F4"/>
		<stop  offset="0.851" style="stop-color:#D4E1F4"/>
	</linearGradient>
	<polygon style="fill:url(#SVGID_1_);" points="453.613,149.308 256,280.148 58.388,149.308 256,19.318 	"/>
	<polygon style="fill:#A4C2F7;" points="256,396.073 501.915,255.572 408.634,202.604 256,289.809 	"/>
	<polygon style="fill:#E3E7F2;" points="251.595,289.809 131.671,218.187 38.4,271.154 251.595,396.073 464.124,270.488 
		377.18,222.186 	"/>
	<polygon style="fill:#FFFFFF;" points="256,502.598 10.086,362.097 103.366,309.129 256,396.334 	"/>
	<polygon style="fill:#A4C2F7;" points="256,502.598 501.915,362.097 408.634,309.129 256,396.334 	"/>
	<polygon style="fill:#E3E7F2;" points="251.595,396.334 131.671,324.721 38.4,377.689 251.595,502.598 464.124,377.013 
		377.18,328.711 	"/>
	<g>
		<path style="fill:#428DFF;" d="M256.001,299.469c-1.681,0-3.333-0.439-4.792-1.274L5.293,157.695
			c-3.008-1.719-4.865-4.916-4.868-8.38c-0.003-3.464,1.849-6.665,4.854-8.389l125.585-72.028c2.995-1.727,6.685-1.722,9.676,0.013
			c2.991,1.735,4.826,4.936,4.813,8.393c-0.013,3.457-1.872,6.645-4.876,8.357L29.529,149.294l226.472,129.387l226.392-129.349
			L255.869,20.691l-57.674,30.943c-3.043,1.643-6.732,1.535-9.673-0.285c-2.941-1.819-4.685-5.072-4.574-8.528
			c0.112-3.456,2.062-6.59,5.115-8.215l62.373-33.462c2.926-1.564,6.448-1.521,9.335,0.113l245.91,139.651
			c3.019,1.714,4.887,4.915,4.892,8.387c0.005,3.472-1.854,6.679-4.868,8.401l-245.91,140.5
			C259.334,299.03,257.682,299.469,256.001,299.469z"/>
		<path style="fill:#428DFF;" d="M256.001,405.733c-1.681,0-3.333-0.439-4.792-1.274L5.293,263.96
			c-3.014-1.722-4.873-4.929-4.868-8.401c0.005-3.472,1.872-6.673,4.892-8.387L98.595,194.2c2.967-1.68,6.599-1.674,9.561,0.014
			l147.844,84.467l147.84-84.467c2.962-1.688,6.594-1.694,9.561-0.014l93.278,52.972c3.019,1.714,4.887,4.915,4.892,8.387
			c0.005,3.472-1.854,6.679-4.868,8.401l-245.91,140.5C259.334,405.294,257.682,405.733,256.001,405.733z M29.605,255.596
			l226.396,129.349l226.392-129.349l-73.745-41.878l-147.854,84.477c-2.969,1.698-6.616,1.698-9.585,0L103.35,213.719
			L29.605,255.596z"/>
		<path style="fill:#428DFF;" d="M256.001,511.997c-1.681,0-3.333-0.439-4.792-1.274L5.293,370.224
			c-3.014-1.722-4.873-4.929-4.868-8.401c0.005-3.472,1.872-6.673,4.892-8.387l93.278-52.972c2.967-1.68,6.599-1.674,9.561,0.014
			l147.844,84.467l147.84-84.467c2.962-1.688,6.594-1.694,9.561-0.014l93.278,52.972c3.019,1.714,4.887,4.915,4.892,8.387
			c0.005,3.472-1.854,6.679-4.868,8.401l-245.91,140.5C259.334,511.559,257.682,511.998,256.001,511.997z M29.605,361.86
			l226.396,129.349L482.392,361.86l-73.745-41.878l-147.854,84.477c-2.969,1.698-6.616,1.698-9.585,0L103.35,319.983L29.605,361.86z
			"/>
		<circle style="fill:#428DFF;" cx="164.652" cy="57.959" r="9.66"/>
	</g>
</g>
<g>
</g>
<g>
</g>
<g>
</g>
<g>
</g>
<g>
</g>
<g>
</g>
<g>
</g>
<g>
</g>
<g>
</g>
<g>
</g>
<g>
</g>
<g>
</g>
<g>
</g>
<g>
</g>
<g>
</g>
</svg>
