<?xml version="1.0" encoding="iso-8859-1"?>
<!-- Generator: Adobe Illustrator 19.0.0, SVG Export Plug-In . SVG Version: 6.00 Build 0)  -->
<svg version="1.1" id="Capa_1" xmlns="http://www.w3.org/2000/svg" xmlns:xlink="http://www.w3.org/1999/xlink" x="0px" y="0px"
	 viewBox="0 0 512 512" style="enable-background:new 0 0 512 512;" xml:space="preserve">
<g>
	<path style="fill:#E3E7F2;" d="M198.038,67.623V28.981c0.031-10.658,8.663-19.29,19.321-19.321h77.283
		c10.658,0.031,19.29,8.663,19.321,19.321v38.642H198.038z"/>
	<path style="fill:#FFFFFF;" d="M97.153,67.623H240.96c13.642,0,24.7,11.059,24.7,24.7v33.262H72.453V92.323
		C72.453,78.681,83.512,67.623,97.153,67.623z"/>
	<path style="fill:#A4C2F7;" d="M271.04,67.623h143.807c13.642,0,24.7,11.059,24.7,24.7v33.262H246.34V92.323
		C246.34,78.681,257.398,67.623,271.04,67.623z"/>
	<path style="fill:#E3E7F2;" d="M126.134,67.623h259.731c13.642,0,24.7,11.059,24.7,24.7v33.262H101.434V92.323
		C101.434,78.681,112.493,67.623,126.134,67.623z"/>
	<path style="fill:#FFFFFF;" d="M91.774,125.585h200.255v350.387c0,14.563-11.805,26.368-26.368,26.368H118.141
		c-14.563,0-26.368-11.805-26.368-26.368V125.585z"/>
	<path style="fill:#7FACFA;" d="M219.972,125.585h200.255v350.387c0,6.993-2.778,13.7-7.723,18.645
		c-4.945,4.945-11.652,7.723-18.645,7.723H246.34c-14.563,0-26.368-11.805-26.368-26.368V125.585z"/>
	
		<linearGradient id="SVGID_1_" gradientUnits="userSpaceOnUse" x1="-48.9028" y1="652.5708" x2="-47.7349" y2="651.7323" gradientTransform="matrix(270.4906 0 0 -376.7547 13325.792 246007.4219)">
		<stop  offset="0" style="stop-color:#D4E1F4"/>
		<stop  offset="0.1717" style="stop-color:#D4E1F4"/>
		<stop  offset="0.2" style="stop-color:#D4E1F4"/>
		<stop  offset="0.2001" style="stop-color:#DAE4F4"/>
		<stop  offset="0.2007" style="stop-color:#EBEBF4"/>
		<stop  offset="0.2014" style="stop-color:#F6F1F4"/>
		<stop  offset="0.2023" style="stop-color:#FDF4F4"/>
		<stop  offset="0.205" style="stop-color:#FFF5F4"/>
		<stop  offset="0.2522" style="stop-color:#FFF5F4"/>
		<stop  offset="0.26" style="stop-color:#FFF5F4"/>
		<stop  offset="0.26" style="stop-color:#D4E1F4"/>
		<stop  offset="0.3974" style="stop-color:#D4E1F4"/>
		<stop  offset="0.42" style="stop-color:#D4E1F4"/>
		<stop  offset="0.4201" style="stop-color:#DAE4F4"/>
		<stop  offset="0.4207" style="stop-color:#EBEBF4"/>
		<stop  offset="0.4214" style="stop-color:#F6F1F4"/>
		<stop  offset="0.4223" style="stop-color:#FDF4F4"/>
		<stop  offset="0.425" style="stop-color:#FFF5F4"/>
		<stop  offset="0.4894" style="stop-color:#FFF5F4"/>
		<stop  offset="0.5" style="stop-color:#FFF5F4"/>
		<stop  offset="0.5" style="stop-color:#F9F2F4"/>
		<stop  offset="0.5001" style="stop-color:#E8EBF4"/>
		<stop  offset="0.5003" style="stop-color:#DDE5F4"/>
		<stop  offset="0.5005" style="stop-color:#D6E2F4"/>
		<stop  offset="0.501" style="stop-color:#D4E1F4"/>
		<stop  offset="0.7062" style="stop-color:#D4E1F4"/>
		<stop  offset="0.74" style="stop-color:#D4E1F4"/>
		<stop  offset="0.741" style="stop-color:#FFF5F4"/>
		<stop  offset="0.8346" style="stop-color:#FFF5F4"/>
		<stop  offset="0.85" style="stop-color:#FFF5F4"/>
		<stop  offset="0.851" style="stop-color:#D4E1F4"/>
	</linearGradient>
	<path style="fill:url(#SVGID_1_);" d="M120.755,125.585h270.491v350.387c0,14.563-11.805,26.368-26.368,26.368H147.123
		c-6.993,0-13.7-2.778-18.645-7.723c-4.945-4.945-7.723-11.652-7.723-18.645V125.585z"/>
	<g>
		<path style="fill:#428DFF;" d="M393.859,512H118.142c-19.889-0.021-36.007-16.139-36.028-36.028V241.509
			c0-5.335,4.325-9.66,9.66-9.66c5.335,0,9.66,4.325,9.66,9.66v234.462c0.009,9.224,7.484,16.699,16.708,16.708h275.717
			c9.224-0.009,16.699-7.484,16.708-16.708v-70.236c0-5.335,4.325-9.66,9.66-9.66c5.335,0,9.66,4.325,9.66,9.66v70.236
			C429.866,495.861,413.748,511.979,393.859,512z"/>
		<path style="fill:#428DFF;" d="M420.226,338.113c-2.562,0.001-5.02-1.017-6.832-2.829c-1.812-1.812-2.829-4.269-2.829-6.832
			V135.245H101.434v28.981c0,5.335-4.325,9.66-9.66,9.66c-5.335,0-9.66-4.325-9.66-9.66v-38.642
			c-0.001-2.562,1.017-5.02,2.829-6.832c1.812-1.812,4.269-2.829,6.832-2.829h328.453c2.562-0.001,5.02,1.017,6.832,2.829
			c1.812,1.812,2.829,4.269,2.829,6.832v202.868c0.001,2.562-1.017,5.02-2.829,6.832
			C425.246,337.096,422.789,338.114,420.226,338.113L420.226,338.113z"/>
		<path style="fill:#428DFF;" d="M439.547,135.245H72.453c-2.562,0.001-5.02-1.017-6.832-2.829
			c-1.812-1.812-2.829-4.269-2.829-6.832V92.321c0.023-18.966,15.392-34.336,34.358-34.358h317.698
			c18.966,0.023,34.336,15.392,34.358,34.358v33.264c0.001,2.562-1.017,5.02-2.829,6.832
			C444.567,134.228,442.109,135.246,439.547,135.245L439.547,135.245z M82.113,115.925h347.774V92.321
			c-0.009-8.301-6.736-15.029-15.038-15.038H97.151c-8.301,0.009-15.029,6.736-15.038,15.038V115.925z"/>
		<path style="fill:#428DFF;" d="M313.962,77.283H198.038c-2.562,0.001-5.02-1.017-6.832-2.829
			c-1.812-1.812-2.829-4.269-2.829-6.832V28.981C188.395,12.983,201.36,0.017,217.358,0h77.283
			c15.999,0.017,28.964,12.983,28.981,28.981v38.642c0.001,2.562-1.017,5.02-2.829,6.832
			C318.982,76.266,316.525,77.284,313.962,77.283L313.962,77.283z M207.698,57.962h96.604V28.981
			c-0.005-5.333-4.327-9.655-9.66-9.66h-77.283c-5.333,0.005-9.655,4.327-9.66,9.66V57.962z"/>
		<circle style="fill:#428DFF;" cx="91.774" cy="202.868" r="9.66"/>
		<circle style="fill:#428DFF;" cx="420.226" cy="367.094" r="9.66"/>
	</g>
</g>
<g>
</g>
<g>
</g>
<g>
</g>
<g>
</g>
<g>
</g>
<g>
</g>
<g>
</g>
<g>
</g>
<g>
</g>
<g>
</g>
<g>
</g>
<g>
</g>
<g>
</g>
<g>
</g>
<g>
</g>
</svg>
