<?xml version="1.0" encoding="iso-8859-1"?>
<!-- Generator: Adobe Illustrator 19.0.0, SVG Export Plug-In . SVG Version: 6.00 Build 0)  -->
<svg version="1.1" id="Capa_1" xmlns="http://www.w3.org/2000/svg" xmlns:xlink="http://www.w3.org/1999/xlink" x="0px" y="0px"
	 viewBox="0 0 511.995 511.995" style="enable-background:new 0 0 511.995 511.995;" xml:space="preserve">
<g>
	<path style="fill:#E3E7F2;" d="M209.988,57.022l4.75-33.801c1.337-9.319,9.949-15.808,19.276-14.525l67.602,9.501
		c9.319,1.337,15.808,9.949,14.525,19.276l-4.75,33.801L209.988,57.022z"/>
	<path style="fill:#A4C2F7;" d="M122.026,44.62l277.899,39.055c11.933,1.677,20.247,12.71,18.57,24.643l-4.089,29.095L93.293,92.286
		l4.089-29.095C99.059,51.257,110.092,42.943,122.026,44.62L122.026,44.62z"/>
	<path style="fill:#FFFFFF;" d="M222.441,59.729l-99.268-15.11c-11.933-1.677-22.966,6.637-24.643,18.57l-4.089,29.095
		l142.481,21.183L222.441,59.729z"/>
	<g>
		<path style="fill:#E3E7F2;" d="M388.804,135.672L116.91,90.543l4.089-29.095c1.677-11.933,12.71-20.247,24.643-18.57
			l228.682,39.056c11.933,1.677,20.247,12.71,18.57,24.643L388.804,135.672z"/>
		<rect x="213.908" y="145.062" style="fill:#E3E7F2;" width="68.267" height="25.6"/>
		<path style="fill:#E3E7F2;" d="M111.76,170.662h90.687l2.928-2.928l-48.272-48.272l-46.091,46.091
			c-0.578,0.578-0.903,1.363-0.903,2.181c0,0.818,0.325,1.602,0.903,2.181L111.76,170.662z"/>
		<rect x="307.775" y="145.062" style="fill:#E3E7F2;" width="42.667" height="25.6"/>
	</g>
	<path style="fill:#FFFFFF;" d="M102.975,170.662h176.892V480.17c0,12.864-10.428,23.292-23.292,23.292H126.266
		c-12.864,0-23.292-10.428-23.292-23.292V170.662z"/>
	<path style="fill:#7FACFA;" d="M216.216,170.662h176.892V480.17c0,12.864-10.428,23.292-23.292,23.292H239.508
		c-12.864,0-23.292-10.428-23.292-23.292V170.662z"/>
	
		<linearGradient id="SVGID_1_" gradientUnits="userSpaceOnUse" x1="-52.5709" y1="652.5175" x2="-51.403" y2="651.679" gradientTransform="matrix(238.9333 0 0 -332.8 12669.459 217348.5469)">
		<stop  offset="0" style="stop-color:#D4E1F4"/>
		<stop  offset="0.1717" style="stop-color:#D4E1F4"/>
		<stop  offset="0.2" style="stop-color:#D4E1F4"/>
		<stop  offset="0.2001" style="stop-color:#DAE4F4"/>
		<stop  offset="0.2007" style="stop-color:#EBEBF4"/>
		<stop  offset="0.2014" style="stop-color:#F6F1F4"/>
		<stop  offset="0.2023" style="stop-color:#FDF4F4"/>
		<stop  offset="0.205" style="stop-color:#FFF5F4"/>
		<stop  offset="0.2522" style="stop-color:#FFF5F4"/>
		<stop  offset="0.26" style="stop-color:#FFF5F4"/>
		<stop  offset="0.26" style="stop-color:#D4E1F4"/>
		<stop  offset="0.3974" style="stop-color:#D4E1F4"/>
		<stop  offset="0.42" style="stop-color:#D4E1F4"/>
		<stop  offset="0.4201" style="stop-color:#DAE4F4"/>
		<stop  offset="0.4207" style="stop-color:#EBEBF4"/>
		<stop  offset="0.4214" style="stop-color:#F6F1F4"/>
		<stop  offset="0.4223" style="stop-color:#FDF4F4"/>
		<stop  offset="0.425" style="stop-color:#FFF5F4"/>
		<stop  offset="0.4894" style="stop-color:#FFF5F4"/>
		<stop  offset="0.5" style="stop-color:#FFF5F4"/>
		<stop  offset="0.5" style="stop-color:#F9F2F4"/>
		<stop  offset="0.5001" style="stop-color:#E8EBF4"/>
		<stop  offset="0.5003" style="stop-color:#DDE5F4"/>
		<stop  offset="0.5005" style="stop-color:#D6E2F4"/>
		<stop  offset="0.501" style="stop-color:#D4E1F4"/>
		<stop  offset="0.7062" style="stop-color:#D4E1F4"/>
		<stop  offset="0.74" style="stop-color:#D4E1F4"/>
		<stop  offset="0.741" style="stop-color:#FFF5F4"/>
		<stop  offset="0.8346" style="stop-color:#FFF5F4"/>
		<stop  offset="0.85" style="stop-color:#FFF5F4"/>
		<stop  offset="0.851" style="stop-color:#D4E1F4"/>
	</linearGradient>
	<path style="fill:url(#SVGID_1_);" d="M128.575,170.662h238.933V480.17c0,12.864-10.428,23.292-23.292,23.292h-192.35
		c-6.177,0-12.102-2.454-16.47-6.822c-4.368-4.368-6.822-10.292-6.822-16.47V170.662z"/>
	<g>
		<path style="fill:#428DFF;" d="M414.404,145.945c-0.397,0.001-0.794-0.027-1.188-0.083L92.104,100.737
			c-2.242-0.315-4.267-1.508-5.629-3.316s-1.95-4.084-1.634-6.325l4.092-29.1c2.353-16.586,17.687-28.139,34.279-25.825
			l277.9,39.058c7.972,1.12,15.172,5.362,20.016,11.791c4.844,6.43,6.935,14.521,5.813,22.492l-4.087,29.083
			C422.268,142.812,418.661,145.949,414.404,145.945L414.404,145.945z M102.929,85.02l304.212,42.75l2.9-20.634
			c0.492-3.489-0.423-7.031-2.543-9.846c-2.12-2.815-5.272-4.672-8.761-5.162l-277.9-39.058c-7.26-1.006-13.967,4.045-15.004,11.3
			L102.929,85.02z"/>
		<path style="fill:#428DFF;" d="M311.687,79.804c-0.401,0.001-0.803-0.027-1.2-0.083L209.083,65.47
			c-2.242-0.315-4.267-1.508-5.629-3.316c-1.362-1.808-1.95-4.084-1.634-6.325l4.754-33.801
			c1.997-13.983,14.922-23.72,28.913-21.783l67.6,9.5c13.987,1.994,23.728,14.922,21.788,28.917l-4.75,33.8
			C319.53,76.668,315.934,79.796,311.687,79.804z M219.908,49.754l84.505,11.875l3.562-25.35c0.622-4.657-2.614-8.949-7.263-9.633
			l-67.6-9.5c-4.659-0.63-8.957,2.607-9.638,7.258L219.908,49.754z"/>
		<path style="fill:#428DFF;" d="M202.445,179.195h-90.687c-2.271-0.001-4.448-0.907-6.05-2.517l-0.746-0.75
			c-4.518-4.534-4.516-11.868,0.004-16.4l46.104-46.1c1.6-1.6,3.77-2.5,6.033-2.5l0,0c2.263,0.001,4.433,0.9,6.033,2.5
			l48.271,48.275c1.601,1.601,2.501,3.774,2.5,6.038c-0.001,2.265-0.902,4.436-2.504,6.036l-2.929,2.925
			C206.873,178.298,204.705,179.194,202.445,179.195z M126.504,162.129H187.7l-30.596-30.6L126.504,162.129z"/>
		<path style="fill:#428DFF;" d="M282.175,179.195h-68.267c-2.263,0.001-4.434-0.898-6.035-2.499c-1.6-1.6-2.499-3.771-2.499-6.035
			v-25.6c-0.001-2.263,0.898-4.434,2.499-6.035c1.6-1.6,3.771-2.499,6.035-2.499h68.267c2.263-0.001,4.434,0.898,6.035,2.499
			s2.499,3.771,2.499,6.035v25.6c0.001,2.263-0.898,4.434-2.499,6.035C286.609,178.297,284.438,179.196,282.175,179.195
			L282.175,179.195z M222.441,162.129h51.2v-8.533h-51.2V162.129z"/>
		<path style="fill:#428DFF;" d="M350.441,179.195h-42.667c-2.263,0.001-4.434-0.898-6.035-2.499c-1.6-1.6-2.499-3.771-2.499-6.035
			v-25.6c-0.001-2.263,0.898-4.434,2.499-6.035s3.771-2.499,6.035-2.499h42.667c2.263-0.001,4.434,0.898,6.035,2.499
			s2.499,3.771,2.499,6.035v25.6c0.001,2.263-0.898,4.434-2.499,6.035C354.875,178.297,352.705,179.196,350.441,179.195
			L350.441,179.195z M316.308,162.129h25.6v-8.533h-25.6V162.129z"/>
		<path style="fill:#428DFF;" d="M369.816,511.995h-243.55c-17.569-0.019-31.806-14.256-31.825-31.825V273.062
			c0-4.713,3.821-8.533,8.533-8.533s8.533,3.82,8.533,8.533V480.17c0.008,8.147,6.611,14.75,14.758,14.758h243.55
			c8.148-0.008,14.751-6.611,14.758-14.758v-62.042c0-4.713,3.821-8.533,8.533-8.533s8.533,3.821,8.533,8.533v62.042
			C401.623,497.739,387.385,511.977,369.816,511.995L369.816,511.995z"/>
		<path style="fill:#428DFF;" d="M393.108,358.395c-2.263,0.001-4.434-0.898-6.035-2.499c-1.6-1.6-2.499-3.771-2.499-6.035V179.195
			H111.508v25.6c0,4.713-3.821,8.533-8.533,8.533s-8.533-3.821-8.533-8.533v-34.133c-0.001-2.263,0.898-4.434,2.499-6.035
			c1.6-1.6,3.771-2.499,6.035-2.499h290.133c2.263-0.001,4.434,0.898,6.035,2.499c1.6,1.6,2.499,3.771,2.499,6.035v179.2
			c0.001,2.263-0.898,4.434-2.499,6.035C397.542,357.497,395.371,358.396,393.108,358.395L393.108,358.395z"/>
		<circle style="fill:#428DFF;" cx="102.975" cy="238.929" r="8.533"/>
		<circle style="fill:#428DFF;" cx="393.108" cy="383.995" r="8.533"/>
	</g>
</g>
<g>
</g>
<g>
</g>
<g>
</g>
<g>
</g>
<g>
</g>
<g>
</g>
<g>
</g>
<g>
</g>
<g>
</g>
<g>
</g>
<g>
</g>
<g>
</g>
<g>
</g>
<g>
</g>
<g>
</g>
</svg>
