<?xml version="1.0" encoding="iso-8859-1"?>
<!-- Generator: Adobe Illustrator 19.0.0, SVG Export Plug-In . SVG Version: 6.00 Build 0)  -->
<svg version="1.1" id="Capa_1" xmlns="http://www.w3.org/2000/svg" xmlns:xlink="http://www.w3.org/1999/xlink" x="0px" y="0px"
	 viewBox="0 0 512.015 512.015" style="enable-background:new 0 0 512.015 512.015;" xml:space="preserve">
<g transform="translate(0 -1)">
	<path style="fill:#A4C2F7;" d="M247.329,61.757l4.174,442.576H378.68c33.18,0,33.913-34.712,33.913-34.712l16.973-407.864H247.329z
		"/>
	<path style="fill:#FFFFFF;" d="M299.397,61.757l-4.174,442.576H168.047c-33.18,0-33.913-34.712-33.913-34.712L117.16,61.757
		H299.397z"/>
	
		<linearGradient id="SVGID_1_" gradientUnits="userSpaceOnUse" x1="-48.9208" y1="653.6342" x2="-47.7324" y2="652.8419" gradientTransform="matrix(295.0508 0 0 -442.5763 14514.8008 289372.5313)">
		<stop  offset="0" style="stop-color:#D4E1F4"/>
		<stop  offset="0.1717" style="stop-color:#D4E1F4"/>
		<stop  offset="0.2" style="stop-color:#D4E1F4"/>
		<stop  offset="0.2001" style="stop-color:#DAE4F4"/>
		<stop  offset="0.2007" style="stop-color:#EBEBF4"/>
		<stop  offset="0.2014" style="stop-color:#F6F1F4"/>
		<stop  offset="0.2023" style="stop-color:#FDF4F4"/>
		<stop  offset="0.205" style="stop-color:#FFF5F4"/>
		<stop  offset="0.2522" style="stop-color:#FFF5F4"/>
		<stop  offset="0.26" style="stop-color:#FFF5F4"/>
		<stop  offset="0.26" style="stop-color:#D4E1F4"/>
		<stop  offset="0.3974" style="stop-color:#D4E1F4"/>
		<stop  offset="0.42" style="stop-color:#D4E1F4"/>
		<stop  offset="0.4201" style="stop-color:#DAE4F4"/>
		<stop  offset="0.4207" style="stop-color:#EBEBF4"/>
		<stop  offset="0.4214" style="stop-color:#F6F1F4"/>
		<stop  offset="0.4223" style="stop-color:#FDF4F4"/>
		<stop  offset="0.425" style="stop-color:#FFF5F4"/>
		<stop  offset="0.4894" style="stop-color:#FFF5F4"/>
		<stop  offset="0.5" style="stop-color:#FFF5F4"/>
		<stop  offset="0.5" style="stop-color:#F9F2F4"/>
		<stop  offset="0.5001" style="stop-color:#E8EBF4"/>
		<stop  offset="0.5003" style="stop-color:#DDE5F4"/>
		<stop  offset="0.5005" style="stop-color:#D6E2F4"/>
		<stop  offset="0.501" style="stop-color:#D4E1F4"/>
		<stop  offset="0.7062" style="stop-color:#D4E1F4"/>
		<stop  offset="0.74" style="stop-color:#D4E1F4"/>
		<stop  offset="0.741" style="stop-color:#FFF5F4"/>
		<stop  offset="0.8346" style="stop-color:#FFF5F4"/>
		<stop  offset="0.85" style="stop-color:#FFF5F4"/>
		<stop  offset="0.851" style="stop-color:#D4E1F4"/>
	</linearGradient>
	<path style="fill:url(#SVGID_1_);" d="M108.482,61.757l16.973,407.864c0,0,0.734,34.712,33.913,34.712h193.278
		c33.18,0,33.913-34.712,33.913-34.712l16.973-407.864H108.482z"/>
	<g>
		<path style="fill:#428DFF;" d="M420.893,304.74c-0.106,0-0.216,0-0.326-0.009c-4.788-0.179-8.526-4.203-8.352-8.991l8.347-225.305
			H91.495l2.153,51.712c0.096,2.3-0.725,4.544-2.283,6.238c-1.558,1.694-3.726,2.7-6.026,2.796
			c-2.313,0.153-4.588-0.648-6.295-2.217c-1.706-1.569-2.695-3.77-2.735-6.088l-2.529-60.754c-0.1-2.363,0.768-4.664,2.405-6.371
			c1.637-1.707,3.899-2.672,6.264-2.671h347.119c2.358-0.002,4.615,0.956,6.252,2.654c1.636,1.698,2.511,3.989,2.422,6.346
			l-8.678,234.305C429.387,301.046,425.559,304.736,420.893,304.74z"/>
		<path style="fill:#428DFF;" d="M378.681,513.011H133.334c-11.444,0.136-22.45-4.392-30.485-12.542s-12.405-19.22-12.104-30.661
			L78.474,174.935c-0.096-2.3,0.725-4.544,2.283-6.238c1.558-1.694,3.726-2.7,6.026-2.796c2.309-0.137,4.575,0.669,6.278,2.235
			c1.703,1.566,2.696,3.757,2.752,6.069l12.279,295.051c0.089,2.822,1.517,26.398,25.242,26.398h245.348
			c6.871,0.02,13.452-2.769,18.217-7.72c4.765-4.951,7.299-11.634,7.016-18.5l5.055-104.229c0.08-2.31,1.091-4.49,2.803-6.043
			c1.712-1.553,3.979-2.348,6.286-2.203c4.787,0.236,8.479,4.305,8.25,9.093l-5.047,103.992
			c0.254,11.404-4.138,22.422-12.168,30.524C401.065,508.671,390.087,513.162,378.681,513.011z"/>
		<path style="fill:#428DFF;" d="M325.427,70.426h-0.216c-4.787-0.121-8.572-4.094-8.462-8.881
			c0.157-7.008-1.551-27.381-11.221-37.271c-3.882-3.975-9.266-6.121-14.818-5.907H203.94c-5.552-0.214-10.935,1.932-14.818,5.907
			c-9.67,9.89-11.377,30.263-11.221,37.271c0.103,4.778-3.677,8.739-8.454,8.86c-4.777,0.121-8.753-3.643-8.893-8.42
			c-0.034-1.322-0.653-32.593,16.106-49.788c7.128-7.381,17.022-11.438,27.279-11.186h86.771
			c10.258-0.252,20.152,3.805,27.28,11.186c16.758,17.195,16.14,48.466,16.106,49.788C333.974,66.685,330.127,70.429,325.427,70.426
			z"/>
		<path style="fill:#428DFF;" d="M256.007,443.587c-2.302,0.001-4.509-0.913-6.137-2.541c-1.628-1.628-2.542-3.835-2.541-6.137
			V148.536c0-4.793,3.885-8.678,8.678-8.678c4.793,0,8.678,3.885,8.678,8.678v286.373c0.001,2.302-0.913,4.509-2.541,6.137
			S258.309,443.588,256.007,443.587z"/>
		<path style="fill:#428DFF;" d="M169.228,443.587c-2.302,0.001-4.509-0.913-6.137-2.541s-2.542-3.835-2.541-6.137V148.536
			c0-4.793,3.885-8.678,8.678-8.678c4.793,0,8.678,3.885,8.678,8.678v286.373c0.001,2.302-0.913,4.509-2.541,6.137
			S171.529,443.588,169.228,443.587z"/>
		<path style="fill:#428DFF;" d="M342.787,443.587c-2.302,0.001-4.509-0.913-6.137-2.541c-1.628-1.628-2.542-3.835-2.541-6.137
			V148.536c0-4.793,3.885-8.678,8.678-8.678c4.793,0,8.678,3.885,8.678,8.678v286.373c0.001,2.302-0.914,4.509-2.541,6.137
			C347.296,442.674,345.089,443.588,342.787,443.587z"/>
		<path style="fill:#428DFF;" d="M455.601,70.435H56.414c-4.793,0-8.678-3.885-8.678-8.678s3.885-8.678,8.678-8.678h399.186
			c4.793,0,8.678,3.885,8.678,8.678S460.393,70.435,455.601,70.435z"/>
		<circle style="fill:#428DFF;" cx="85.815" cy="148.536" r="8.678"/>
		<circle style="fill:#428DFF;" cx="420.889" cy="330.774" r="8.678"/>
	</g>
</g>
<g>
</g>
<g>
</g>
<g>
</g>
<g>
</g>
<g>
</g>
<g>
</g>
<g>
</g>
<g>
</g>
<g>
</g>
<g>
</g>
<g>
</g>
<g>
</g>
<g>
</g>
<g>
</g>
<g>
</g>
</svg>
