<?xml version="1.0" encoding="iso-8859-1"?>
<!-- Generator: Adobe Illustrator 19.0.0, SVG Export Plug-In . SVG Version: 6.00 Build 0)  -->
<svg version="1.1" id="Capa_1" xmlns="http://www.w3.org/2000/svg" xmlns:xlink="http://www.w3.org/1999/xlink" x="0px" y="0px"
	 viewBox="0 0 512 512" style="enable-background:new 0 0 512 512;" xml:space="preserve">
<g>
	<path style="fill:#A4C2F7;" d="M387.109,9.143h94.354c11.816,0,21.394,9.579,21.394,21.394v176.64
		c0,11.816-9.579,21.394-21.394,21.394h-94.354c-11.816,0-21.394-9.579-21.394-21.394V30.537
		C365.714,18.721,375.293,9.143,387.109,9.143z"/>
	<path style="fill:#FFFFFF;" d="M304.823,9.143h94.354c11.816,0,21.394,9.579,21.394,21.394v176.64
		c0,11.816-9.579,21.394-21.394,21.394h-94.354c-11.816,0-21.394-9.579-21.394-21.394V30.537
		C283.429,18.721,293.007,9.143,304.823,9.143z"/>
	<path style="fill:#E3E7F2;" d="M332.251,9.143h121.783c11.816,0,21.394,9.579,21.394,21.394v176.64
		c0,11.816-9.579,21.394-21.394,21.394H332.251c-11.816,0-21.394-9.579-21.394-21.394V30.537
		C310.857,18.721,320.436,9.143,332.251,9.143z"/>
	<path style="fill:#A4C2F7;" d="M112.823,9.143h94.354c11.816,0,21.394,9.579,21.394,21.394v176.64
		c0,11.816-9.579,21.394-21.394,21.394h-94.354c-11.816,0-21.394-9.579-21.394-21.394V30.537
		C91.429,18.721,101.007,9.143,112.823,9.143z"/>
	<path style="fill:#FFFFFF;" d="M30.537,9.143h94.354c11.816,0,21.394,9.579,21.394,21.394v176.64
		c0,11.816-9.579,21.394-21.394,21.394H30.537c-11.816,0-21.394-9.579-21.394-21.394V30.537C9.143,18.721,18.721,9.143,30.537,9.143
		z"/>
	<path style="fill:#E3E7F2;" d="M57.966,9.143h121.783c11.816,0,21.394,9.579,21.394,21.394v176.64
		c0,11.816-9.579,21.394-21.394,21.394H57.966c-11.816,0-21.394-9.579-21.394-21.394V30.537C36.571,18.721,46.15,9.143,57.966,9.143
		z"/>
	<path style="fill:#A4C2F7;" d="M112.823,283.429h94.354c11.816,0,21.394,9.579,21.394,21.394v176.64
		c0,11.816-9.579,21.394-21.394,21.394h-94.354c-11.816,0-21.394-9.579-21.394-21.394v-176.64
		C91.429,293.007,101.007,283.429,112.823,283.429z"/>
	<path style="fill:#FFFFFF;" d="M30.537,283.429h94.354c11.816,0,21.394,9.579,21.394,21.394v176.64
		c0,11.816-9.579,21.394-21.394,21.394H30.537c-11.816,0-21.394-9.579-21.394-21.394v-176.64
		C9.143,293.007,18.721,283.429,30.537,283.429z"/>
	<path style="fill:#E3E7F2;" d="M57.966,283.429h121.783c11.816,0,21.394,9.579,21.394,21.394v176.64
		c0,11.816-9.579,21.394-21.394,21.394H57.966c-11.816,0-21.394-9.579-21.394-21.394v-176.64
		C36.571,293.007,46.15,283.429,57.966,283.429z"/>
	<g>
		<path style="fill:#428DFF;" d="M207.179,237.714H30.536C13.679,237.697,0.018,224.036,0,207.179V128
			c0-5.049,4.093-9.143,9.143-9.143s9.143,4.093,9.143,9.143v79.179c0.005,6.764,5.486,12.245,12.25,12.25h176.643
			c6.764-0.005,12.245-5.486,12.25-12.25V30.536c-0.005-6.764-5.486-12.245-12.25-12.25H30.536
			c-6.764,0.005-12.245,5.486-12.25,12.25v24.321c0,5.049-4.093,9.143-9.143,9.143S0,59.907,0,54.857V30.536
			C0.018,13.679,13.679,0.018,30.536,0h176.643c16.857,0.018,30.518,13.679,30.536,30.536v176.643
			C237.697,224.036,224.036,237.697,207.179,237.714z"/>
		<path style="fill:#428DFF;" d="M481.464,237.714H304.821c-16.857-0.018-30.518-13.679-30.536-30.536V30.536
			C274.304,13.679,287.964,0.018,304.821,0h176.643C498.321,0.018,511.982,13.679,512,30.536v79.179
			c0,5.049-4.093,9.143-9.143,9.143c-5.049,0-9.143-4.093-9.143-9.143V30.536c-0.005-6.764-5.486-12.245-12.25-12.25H304.821
			c-6.764,0.005-12.245,5.486-12.25,12.25v176.643c0.005,6.764,5.486,12.245,12.25,12.25h176.643
			c6.764-0.005,12.245-5.486,12.25-12.25v-24.321c0-5.049,4.093-9.143,9.143-9.143c5.049,0,9.143,4.093,9.143,9.143v24.321
			C511.982,224.036,498.321,237.697,481.464,237.714L481.464,237.714z"/>
		<path style="fill:#428DFF;" d="M207.179,512H30.536C13.679,511.982,0.018,498.321,0,481.464V304.821
			c0.018-16.857,13.679-30.518,30.536-30.536h176.643c16.857,0.018,30.518,13.679,30.536,30.536v176.643
			C237.697,498.321,224.036,511.982,207.179,512L207.179,512z M30.536,292.571c-6.764,0.005-12.245,5.486-12.25,12.25v176.643
			c0.005,6.764,5.486,12.245,12.25,12.25h176.643c6.764-0.005,12.245-5.486,12.25-12.25V304.821
			c-0.005-6.764-5.486-12.245-12.25-12.25H30.536z"/>
		<path style="fill:#428DFF;" d="M393.143,512c-2.425,0.001-4.752-0.961-6.467-2.676c-1.715-1.715-2.678-4.041-2.676-6.466V283.429
			c0-5.049,4.093-9.143,9.143-9.143c5.049,0,9.143,4.093,9.143,9.143v219.429c0.001,2.425-0.961,4.752-2.676,6.466
			C397.894,511.039,395.568,512.001,393.143,512L393.143,512z"/>
		<path style="fill:#428DFF;" d="M502.857,402.286H283.429c-5.049,0-9.143-4.093-9.143-9.143c0-5.049,4.093-9.143,9.143-9.143
			h219.429c5.049,0,9.143,4.093,9.143,9.143C512,398.192,507.907,402.286,502.857,402.286z"/>
		<circle style="fill:#428DFF;" cx="9.143" cy="91.429" r="9.143"/>
		<circle style="fill:#428DFF;" cx="502.857" cy="146.286" r="9.143"/>
	</g>
</g>
<g>
</g>
<g>
</g>
<g>
</g>
<g>
</g>
<g>
</g>
<g>
</g>
<g>
</g>
<g>
</g>
<g>
</g>
<g>
</g>
<g>
</g>
<g>
</g>
<g>
</g>
<g>
</g>
<g>
</g>
</svg>
