<?xml version="1.0" encoding="iso-8859-1"?>
<!-- Generator: Adobe Illustrator 19.0.0, SVG Export Plug-In . SVG Version: 6.00 Build 0)  -->
<svg version="1.1" id="Capa_1" xmlns="http://www.w3.org/2000/svg" xmlns:xlink="http://www.w3.org/1999/xlink" x="0px" y="0px"
	 viewBox="0 0 512 512" style="enable-background:new 0 0 512 512;" xml:space="preserve">
<g>
	<g>
		<circle style="fill:#A4C2F7;" cx="73.143" cy="438.857" r="64"/>
		<circle style="fill:#A4C2F7;" cx="256" cy="438.857" r="64"/>
		<circle style="fill:#A4C2F7;" cx="438.857" cy="438.857" r="64"/>
		<circle style="fill:#A4C2F7;" cx="73.143" cy="256" r="64"/>
		<circle style="fill:#A4C2F7;" cx="256" cy="256" r="64"/>
		<circle style="fill:#A4C2F7;" cx="438.857" cy="256" r="64"/>
		<circle style="fill:#A4C2F7;" cx="73.143" cy="73.143" r="64"/>
		<circle style="fill:#A4C2F7;" cx="256" cy="73.143" r="64"/>
		<circle style="fill:#A4C2F7;" cx="438.857" cy="73.143" r="64"/>
	</g>
	<g>
		<ellipse style="fill:#E3E7F2;" cx="425.143" cy="73.143" rx="50.286" ry="64"/>
		<ellipse style="fill:#E3E7F2;" cx="242.286" cy="73.143" rx="50.286" ry="64"/>
	</g>
	<g>
		<path style="fill:#FFFFFF;" d="M438.857,137.143c2.568-0.015,5.133-0.183,7.681-0.504c-24.922-3.8-44.252-30.754-44.252-63.496
			s19.33-59.696,44.252-63.496c-23.609-2.862-46.858,7.607-60.364,27.182c-13.505,19.575-15.039,45.027-3.981,66.082
			C393.251,123.966,415.075,137.15,438.857,137.143L438.857,137.143z"/>
		<path style="fill:#FFFFFF;" d="M256,137.143c2.568-0.015,5.133-0.183,7.681-0.504c-24.922-3.8-44.252-30.754-44.252-63.496
			s19.33-59.696,44.252-63.496c-23.609-2.862-46.858,7.607-60.364,27.182s-15.039,45.027-3.981,66.082
			C210.394,123.966,232.218,137.15,256,137.143L256,137.143z"/>
	</g>
	<ellipse style="fill:#E3E7F2;" cx="59.429" cy="73.143" rx="50.286" ry="64"/>
	<path style="fill:#FFFFFF;" d="M73.143,137.143c2.568-0.015,5.133-0.183,7.681-0.504c-24.922-3.8-44.252-30.754-44.252-63.496
		s19.33-59.696,44.252-63.496C57.214,6.784,33.966,17.253,20.46,36.829s-15.039,45.027-3.981,66.082S49.361,137.15,73.143,137.143
		L73.143,137.143z"/>
	<ellipse style="fill:#E3E7F2;" cx="59.429" cy="256" rx="50.286" ry="64"/>
	<path style="fill:#FFFFFF;" d="M73.143,320c2.568-0.015,5.133-0.183,7.681-0.504c-24.922-3.8-44.252-30.754-44.252-63.496
		s19.33-59.696,44.252-63.496c-23.609-2.862-46.858,7.607-60.364,27.182c-13.505,19.575-15.039,45.026-3.981,66.082
		S49.361,320.007,73.143,320L73.143,320z"/>
	<ellipse style="fill:#E3E7F2;" cx="59.429" cy="438.857" rx="50.286" ry="64"/>
	<path style="fill:#FFFFFF;" d="M73.143,502.857c2.568-0.015,5.133-0.183,7.681-0.504c-24.922-3.8-44.252-30.754-44.252-63.496
		s19.33-59.696,44.252-63.496c-23.609-2.862-46.858,7.607-60.364,27.182c-13.505,19.575-15.039,45.027-3.981,66.082
		C27.537,489.68,49.361,502.865,73.143,502.857L73.143,502.857z"/>
	<ellipse style="fill:#E3E7F2;" cx="242.286" cy="438.857" rx="50.286" ry="64"/>
	<path style="fill:#FFFFFF;" d="M256,502.857c2.568-0.015,5.133-0.183,7.681-0.504c-24.922-3.8-44.252-30.754-44.252-63.496
		s19.33-59.696,44.252-63.496c-23.609-2.862-46.858,7.607-60.364,27.182c-13.505,19.575-15.039,45.027-3.981,66.082
		C210.394,489.68,232.218,502.865,256,502.857L256,502.857z"/>
	<g>
		<ellipse style="fill:#E3E7F2;" cx="425.143" cy="438.857" rx="50.286" ry="64"/>
		<ellipse style="fill:#E3E7F2;" cx="425.143" cy="256" rx="50.286" ry="64"/>
		<ellipse style="fill:#E3E7F2;" cx="242.286" cy="256" rx="50.286" ry="64"/>
	</g>
	<g>
		<path style="fill:#FFFFFF;" d="M256,320c2.568-0.015,5.133-0.183,7.681-0.504c-24.922-3.8-44.252-30.754-44.252-63.496
			s19.33-59.696,44.252-63.496c-23.609-2.862-46.858,7.607-60.364,27.182c-13.505,19.575-15.039,45.026-3.981,66.082
			C210.394,306.823,232.218,320.007,256,320L256,320z"/>
		<path style="fill:#FFFFFF;" d="M440.319,320c2.568-0.015,5.133-0.183,7.681-0.504c-24.922-3.8-44.252-30.754-44.252-63.496
			s19.33-59.696,44.252-63.496c-23.609-2.862-46.858,7.607-60.364,27.182c-13.505,19.575-15.039,45.026-3.981,66.082
			C394.713,306.823,416.537,320.007,440.319,320L440.319,320z"/>
		<path style="fill:#FFFFFF;" d="M440.319,502.857c2.568-0.015,5.133-0.183,7.681-0.504c-24.922-3.8-44.252-30.754-44.252-63.496
			s19.33-59.696,44.252-63.496c-23.609-2.862-46.858,7.607-60.364,27.182c-13.505,19.575-15.039,45.027-3.981,66.082
			C394.713,489.68,416.537,502.865,440.319,502.857L440.319,502.857z"/>
	</g>
	<g>
		<path style="fill:#428DFF;" d="M73.143,512C32.747,512,0,479.253,0,438.857s32.747-73.143,73.143-73.143
			s73.143,32.747,73.143,73.143C146.24,479.234,113.519,511.954,73.143,512L73.143,512z M73.143,384
			c-30.297,0-54.857,24.56-54.857,54.857c0,30.297,24.56,54.857,54.857,54.857S128,469.154,128,438.857
			C127.967,408.574,103.426,384.033,73.143,384z"/>
		<path style="fill:#428DFF;" d="M256,512c-40.396,0-73.143-32.747-73.143-73.143s32.747-73.143,73.143-73.143
			s73.143,32.747,73.143,73.143C329.097,479.234,296.377,511.954,256,512L256,512z M256,384c-30.297,0-54.857,24.56-54.857,54.857
			c0,30.297,24.56,54.857,54.857,54.857c30.297,0,54.857-24.56,54.857-54.857C310.824,408.574,286.283,384.033,256,384z"/>
		<path style="fill:#428DFF;" d="M438.857,512c-40.396,0-73.143-32.747-73.143-73.143s32.747-73.143,73.143-73.143
			S512,398.461,512,438.857C511.954,479.234,479.234,511.954,438.857,512L438.857,512z M438.857,384
			C408.56,384,384,408.56,384,438.857c0,30.297,24.56,54.857,54.857,54.857c30.297,0,54.857-24.56,54.857-54.857
			C493.681,408.574,469.14,384.033,438.857,384L438.857,384z"/>
		<path style="fill:#428DFF;" d="M73.143,329.143C32.747,329.143,0,296.396,0,256s32.747-73.143,73.143-73.143
			s73.143,32.747,73.143,73.143C146.24,296.377,113.519,329.097,73.143,329.143L73.143,329.143z M73.143,201.143
			c-30.297,0-54.857,24.56-54.857,54.857c0,30.297,24.56,54.857,54.857,54.857S128,286.297,128,256
			C127.967,225.717,103.426,201.176,73.143,201.143L73.143,201.143z"/>
		<path style="fill:#428DFF;" d="M256,329.143c-40.396,0-73.143-32.747-73.143-73.143s32.747-73.143,73.143-73.143
			s73.143,32.747,73.143,73.143C329.097,296.377,296.377,329.097,256,329.143L256,329.143z M256,201.143
			c-30.297,0-54.857,24.56-54.857,54.857c0,30.297,24.56,54.857,54.857,54.857c30.297,0,54.857-24.56,54.857-54.857
			C310.824,225.717,286.283,201.176,256,201.143L256,201.143z"/>
		<path style="fill:#428DFF;" d="M438.857,329.143c-40.396,0-73.143-32.747-73.143-73.143s32.747-73.143,73.143-73.143
			S512,215.604,512,256C511.954,296.377,479.234,329.097,438.857,329.143L438.857,329.143z M438.857,201.143
			C408.56,201.143,384,225.703,384,256c0,30.297,24.56,54.857,54.857,54.857c30.297,0,54.857-24.56,54.857-54.857
			C493.681,225.717,469.14,201.176,438.857,201.143L438.857,201.143z"/>
		<path style="fill:#428DFF;" d="M73.143,146.286C32.747,146.286,0,113.539,0,73.143S32.747,0,73.143,0s73.143,32.747,73.143,73.143
			C146.24,113.519,113.519,146.24,73.143,146.286L73.143,146.286z M73.143,18.286c-30.297,0-54.857,24.56-54.857,54.857
			S42.846,128,73.143,128S128,103.44,128,73.143C127.967,42.86,103.426,18.319,73.143,18.286z"/>
		<path style="fill:#428DFF;" d="M256,146.286c-40.396,0-73.143-32.747-73.143-73.143S215.604,0,256,0s73.143,32.747,73.143,73.143
			C329.097,113.519,296.377,146.24,256,146.286L256,146.286z M256,18.286c-30.297,0-54.857,24.56-54.857,54.857S225.703,128,256,128
			c30.297,0,54.857-24.56,54.857-54.857C310.824,42.86,286.283,18.319,256,18.286z"/>
		<path style="fill:#428DFF;" d="M438.857,146.286c-40.396,0-73.143-32.747-73.143-73.143S398.461,0,438.857,0
			S512,32.747,512,73.143C511.954,113.519,479.234,146.24,438.857,146.286L438.857,146.286z M438.857,18.286
			C408.56,18.286,384,42.846,384,73.143S408.56,128,438.857,128c30.297,0,54.857-24.56,54.857-54.857
			C493.681,42.86,469.14,18.319,438.857,18.286L438.857,18.286z"/>
	</g>
</g>
<g>
</g>
<g>
</g>
<g>
</g>
<g>
</g>
<g>
</g>
<g>
</g>
<g>
</g>
<g>
</g>
<g>
</g>
<g>
</g>
<g>
</g>
<g>
</g>
<g>
</g>
<g>
</g>
<g>
</g>
</svg>
