<?xml version="1.0" encoding="iso-8859-1"?>
<!-- Generator: Adobe Illustrator 19.0.0, SVG Export Plug-In . SVG Version: 6.00 Build 0)  -->
<svg version="1.1" id="Capa_1" xmlns="http://www.w3.org/2000/svg" xmlns:xlink="http://www.w3.org/1999/xlink" x="0px" y="0px"
	 viewBox="0 0 511.999 511.999" style="enable-background:new 0 0 511.999 511.999;" xml:space="preserve">
<g>
	<path style="fill:#428DFF;" d="M261.019,511.999c-2.663,0.003-5.219-1.054-7.102-2.937c-1.883-1.883-2.94-4.439-2.937-7.102V250.98
		c0-4.06,2.446-7.721,6.197-9.274c3.751-1.554,8.069-0.695,10.94,2.177l120.471,120.471c3.808,3.812,3.932,9.95,0.279,13.912
		l-120.471,130.51C266.494,510.831,263.82,512,261.019,511.999L261.019,511.999z M271.059,275.215v201.069l96.51-104.558
		L271.059,275.215z"/>
	<path style="fill:#428DFF;" d="M261.019,271.058c-2.663,0.003-5.219-1.054-7.102-2.937c-1.883-1.883-2.94-4.439-2.937-7.102V10.039
		c0-4.06,2.446-7.721,6.197-9.274c3.751-1.554,8.069-0.695,10.94,2.177l120.471,120.471c3.808,3.812,3.932,9.95,0.279,13.912
		l-120.471,130.51C266.494,269.889,263.82,271.058,261.019,271.058z M271.059,34.274v201.069l96.51-104.558L271.059,34.274z"/>
	<path style="fill:#428DFF;" d="M271.059,271.058c-2.663,0.003-5.217-1.056-7.098-2.941L123.412,127.568
		c-3.86-3.93-3.831-10.236,0.064-14.131c3.895-3.895,10.201-3.924,14.131-0.064l140.549,140.549
		c2.87,2.871,3.729,7.188,2.175,10.939C278.778,268.611,275.118,271.057,271.059,271.058z"/>
	<path style="fill:#428DFF;" d="M130.51,401.568c-4.06-0.001-7.719-2.447-9.273-6.198c-1.554-3.751-0.695-8.068,2.175-10.939
		l140.549-140.549c3.93-3.86,10.236-3.831,14.131,0.064c3.895,3.895,3.924,10.201,0.064,14.131L137.607,398.627
		C135.727,400.512,133.173,401.571,130.51,401.568z"/>
</g>
<g>
</g>
<g>
</g>
<g>
</g>
<g>
</g>
<g>
</g>
<g>
</g>
<g>
</g>
<g>
</g>
<g>
</g>
<g>
</g>
<g>
</g>
<g>
</g>
<g>
</g>
<g>
</g>
<g>
</g>
</svg>
