<?xml version="1.0" encoding="iso-8859-1"?>
<!-- Generator: Adobe Illustrator 19.0.0, SVG Export Plug-In . SVG Version: 6.00 Build 0)  -->
<svg version="1.1" id="Capa_1" xmlns="http://www.w3.org/2000/svg" xmlns:xlink="http://www.w3.org/1999/xlink" x="0px" y="0px"
	 viewBox="0 0 512.001 512.001" style="enable-background:new 0 0 512.001 512.001;" xml:space="preserve">
<g>
	<polygon style="fill:#A4C2F7;" points="223.389,74.473 18.589,9.31 18.589,437.528 223.389,502.692 	"/>
	<polygon style="fill:#ECECEC;" points="148.916,55.855 18.589,9.31 18.589,437.528 148.916,484.073 	"/>
	
		<linearGradient id="SVGID_1_" gradientUnits="userSpaceOnUse" x1="-49.2782" y1="652.5444" x2="-47.1219" y2="651.8935" gradientTransform="matrix(148.9454 0 0 -493.3818 7300.1704 322048.9688)">
		<stop  offset="0" style="stop-color:#D4E1F4"/>
		<stop  offset="0.1717" style="stop-color:#D4E1F4"/>
		<stop  offset="0.2" style="stop-color:#D4E1F4"/>
		<stop  offset="0.2001" style="stop-color:#DAE4F4"/>
		<stop  offset="0.2007" style="stop-color:#EBEBF4"/>
		<stop  offset="0.2014" style="stop-color:#F6F1F4"/>
		<stop  offset="0.2023" style="stop-color:#FDF4F4"/>
		<stop  offset="0.205" style="stop-color:#FFF5F4"/>
		<stop  offset="0.2522" style="stop-color:#FFF5F4"/>
		<stop  offset="0.26" style="stop-color:#FFF5F4"/>
		<stop  offset="0.26" style="stop-color:#D4E1F4"/>
		<stop  offset="0.3974" style="stop-color:#D4E1F4"/>
		<stop  offset="0.42" style="stop-color:#D4E1F4"/>
		<stop  offset="0.4201" style="stop-color:#DAE4F4"/>
		<stop  offset="0.4207" style="stop-color:#EBEBF4"/>
		<stop  offset="0.4214" style="stop-color:#F6F1F4"/>
		<stop  offset="0.4223" style="stop-color:#FDF4F4"/>
		<stop  offset="0.425" style="stop-color:#FFF5F4"/>
		<stop  offset="0.4894" style="stop-color:#FFF5F4"/>
		<stop  offset="0.5" style="stop-color:#FFF5F4"/>
		<stop  offset="0.5" style="stop-color:#F9F2F4"/>
		<stop  offset="0.5001" style="stop-color:#E8EBF4"/>
		<stop  offset="0.5003" style="stop-color:#DDE5F4"/>
		<stop  offset="0.5005" style="stop-color:#D6E2F4"/>
		<stop  offset="0.501" style="stop-color:#D4E1F4"/>
		<stop  offset="0.7062" style="stop-color:#D4E1F4"/>
		<stop  offset="0.74" style="stop-color:#D4E1F4"/>
		<stop  offset="0.741" style="stop-color:#FFF5F4"/>
		<stop  offset="0.8346" style="stop-color:#FFF5F4"/>
		<stop  offset="0.85" style="stop-color:#FFF5F4"/>
		<stop  offset="0.851" style="stop-color:#D4E1F4"/>
	</linearGradient>
	<polygon style="fill:url(#SVGID_1_);" points="195.462,74.473 46.516,9.31 46.516,437.528 195.462,502.692 	"/>
	<polygon style="fill:#A4C2F7;" points="18.589,9.31 223.389,74.473 223.389,437.528 223.389,437.528 335.098,437.528 
		335.098,279.273 335.098,167.564 335.098,9.31 	"/>
	<polygon style="fill:#E3E7F2;" points="18.589,9.31 223.389,74.473 223.389,437.528 223.389,437.528 307.171,437.528 
		307.171,279.273 307.171,167.564 307.171,9.31 	"/>
	<g>
		<path style="fill:#428DFF;" d="M381.644,344.437c-3.765-0.001-7.158-2.269-8.599-5.747c-1.441-3.478-0.644-7.481,2.017-10.144
			l111.709-111.709c2.344-2.387,5.789-3.332,9.023-2.476c3.234,0.856,5.76,3.382,6.616,6.616c0.856,3.234-0.089,6.679-2.476,9.023
			L388.225,341.71C386.482,343.458,384.113,344.44,381.644,344.437z"/>
		<path style="fill:#428DFF;" d="M493.353,232.728c-2.469,0.003-4.838-0.979-6.582-2.728L375.062,118.291
			c-3.579-3.644-3.552-9.492,0.059-13.104c3.612-3.612,9.459-3.638,13.104-0.059l111.709,111.709
			c2.662,2.662,3.458,6.666,2.017,10.144C500.511,230.459,497.117,232.727,493.353,232.728z"/>
		<path style="fill:#428DFF;" d="M493.353,232.728H269.935c-5.141,0-9.309-4.168-9.309-9.309c0-5.141,4.168-9.309,9.309-9.309
			h223.418c5.141,0,9.309,4.168,9.309,9.309C502.662,228.56,498.494,232.728,493.353,232.728z"/>
		<path style="fill:#428DFF;" d="M335.098,446.837H223.389c-5.141,0-9.309-4.168-9.309-9.309s4.168-9.309,9.309-9.309h102.4V279.273
			c0-5.141,4.168-9.309,9.309-9.309s9.309,4.168,9.309,9.309v158.255c0.001,2.469-0.979,4.838-2.725,6.584
			C339.936,445.858,337.568,446.839,335.098,446.837L335.098,446.837z"/>
		<path style="fill:#428DFF;" d="M18.589,446.837c-2.469,0.001-4.838-0.979-6.584-2.725c-1.746-1.746-2.726-4.115-2.725-6.584V9.31
			c-0.001-2.469,0.979-4.838,2.725-6.584s4.115-2.726,6.584-2.725h316.509c2.469-0.001,4.838,0.979,6.584,2.725
			c1.746,1.746,2.726,4.115,2.725,6.584v158.255c0,5.141-4.168,9.309-9.309,9.309s-9.309-4.168-9.309-9.309V18.619H27.898v418.909
			c0.001,2.469-0.979,4.838-2.725,6.584C23.427,445.858,21.058,446.839,18.589,446.837z"/>
		<path style="fill:#428DFF;" d="M223.389,512.001c-0.956,0-1.907-0.148-2.818-0.436l-204.8-65.164
			c-3.865-1.229-6.49-4.817-6.491-8.873V9.31c0-2.969,1.416-5.761,3.812-7.514s5.485-2.258,8.315-1.359l204.8,65.164
			c3.865,1.229,6.49,4.817,6.491,8.873v428.218c0,2.469-0.98,4.837-2.726,6.583C228.226,511.021,225.858,512.001,223.389,512.001z
			 M27.898,430.719l186.182,59.245V81.283L27.898,22.037V430.719z"/>
	</g>
</g>
<g>
</g>
<g>
</g>
<g>
</g>
<g>
</g>
<g>
</g>
<g>
</g>
<g>
</g>
<g>
</g>
<g>
</g>
<g>
</g>
<g>
</g>
<g>
</g>
<g>
</g>
<g>
</g>
<g>
</g>
</svg>
