<?xml version="1.0" encoding="iso-8859-1"?>
<!-- Generator: Adobe Illustrator 19.0.0, SVG Export Plug-In . SVG Version: 6.00 Build 0)  -->
<svg version="1.1" id="Capa_1" xmlns="http://www.w3.org/2000/svg" xmlns:xlink="http://www.w3.org/1999/xlink" x="0px" y="0px"
	 viewBox="0 0 512 512" style="enable-background:new 0 0 512 512;" xml:space="preserve">
<g>
	<circle style="fill:#A4C2F7;" cx="119.467" cy="256" r="110.933"/>
	<ellipse style="fill:#E3E7F2;" cx="106.667" cy="256" rx="98.133" ry="110.933"/>
	<path style="fill:#FFFFFF;" d="M119.467,366.933c2.293,0,4.533-0.206,6.792-0.343C74.874,363.063,34.133,314.974,34.133,256
		s40.741-107.063,92.125-110.59c-2.258-0.137-4.499-0.343-6.792-0.343C58.2,145.067,8.533,194.733,8.533,256
		S58.2,366.933,119.467,366.933z"/>
	<path style="fill:#7FACFA;" d="M452.267,204.8H217.819c16.774,32.072,16.774,70.328,0,102.4h234.447
		c28.277,0,51.2-22.923,51.2-51.2C503.467,227.723,480.544,204.8,452.267,204.8L452.267,204.8z"/>
	<path style="fill:#A4C2F7;" d="M426.667,204.8H217.819c16.774,32.072,16.774,70.328,0,102.4h208.847
		c28.277,0,51.2-22.923,51.2-51.2C477.867,227.723,454.944,204.8,426.667,204.8L426.667,204.8z"/>
	<g>
		<path style="fill:#428DFF;" d="M119.467,375.467C53.487,375.467,0,321.98,0,256s53.487-119.467,119.467-119.467
			S238.933,190.02,238.933,256C238.859,321.949,185.416,375.393,119.467,375.467L119.467,375.467z M119.467,153.6
			c-56.554,0-102.4,45.846-102.4,102.4s45.846,102.4,102.4,102.4s102.4-45.846,102.4-102.4
			C221.804,199.472,175.994,153.663,119.467,153.6z"/>
		<path style="fill:#428DFF;" d="M452.267,315.733H217.821c-2.984-0.001-5.751-1.56-7.298-4.111
			c-1.547-2.552-1.649-5.726-0.269-8.372c15.483-29.597,15.483-64.903,0-94.5c-1.38-2.646-1.278-5.82,0.269-8.372
			c1.547-2.552,4.314-4.111,7.298-4.111h234.446C485.257,196.267,512,223.01,512,256S485.257,315.733,452.267,315.733z
			 M231.033,298.667h221.233c23.564,0,42.667-19.103,42.667-42.667s-19.103-42.667-42.667-42.667H231.033
			C241.567,240.803,241.567,271.197,231.033,298.667z"/>
	</g>
</g>
<g>
</g>
<g>
</g>
<g>
</g>
<g>
</g>
<g>
</g>
<g>
</g>
<g>
</g>
<g>
</g>
<g>
</g>
<g>
</g>
<g>
</g>
<g>
</g>
<g>
</g>
<g>
</g>
<g>
</g>
</svg>
