<?xml version="1.0" encoding="iso-8859-1"?>
<!-- Generator: Adobe Illustrator 19.0.0, SVG Export Plug-In . SVG Version: 6.00 Build 0)  -->
<svg version="1.1" id="Capa_1" xmlns="http://www.w3.org/2000/svg" xmlns:xlink="http://www.w3.org/1999/xlink" x="0px" y="0px"
	 viewBox="0 0 512 512" style="enable-background:new 0 0 512 512;" xml:space="preserve">
<g>
	<polygon style="fill:#FFFFFF;" points="264.533,136.533 264.533,170.667 204.8,170.667 204.8,136.533 153.6,136.533 153.6,170.667 
		93.867,170.667 93.867,136.533 25.6,136.533 25.6,503.467 332.8,503.467 332.8,136.533 	"/>
	<polygon style="fill:#A4C2F7;" points="418.133,42.667 418.133,76.8 358.4,76.8 358.4,42.667 315.733,42.667 315.733,76.8 
		256,76.8 256,42.667 187.733,42.667 187.733,503.467 486.4,503.467 486.4,42.667 	"/>
	
		<linearGradient id="SVGID_1_" gradientUnits="userSpaceOnUse" x1="-48.9116" y1="652.6706" x2="-47.8491" y2="651.7261" gradientTransform="matrix(409.6 0 0 -460.8 20072.5938 300806.0938)">
		<stop  offset="0" style="stop-color:#D4E1F4"/>
		<stop  offset="0.1717" style="stop-color:#D4E1F4"/>
		<stop  offset="0.2" style="stop-color:#D4E1F4"/>
		<stop  offset="0.2001" style="stop-color:#DAE4F4"/>
		<stop  offset="0.2007" style="stop-color:#EBEBF4"/>
		<stop  offset="0.2014" style="stop-color:#F6F1F4"/>
		<stop  offset="0.2023" style="stop-color:#FDF4F4"/>
		<stop  offset="0.205" style="stop-color:#FFF5F4"/>
		<stop  offset="0.2522" style="stop-color:#FFF5F4"/>
		<stop  offset="0.26" style="stop-color:#FFF5F4"/>
		<stop  offset="0.26" style="stop-color:#D4E1F4"/>
		<stop  offset="0.3974" style="stop-color:#D4E1F4"/>
		<stop  offset="0.42" style="stop-color:#D4E1F4"/>
		<stop  offset="0.4201" style="stop-color:#DAE4F4"/>
		<stop  offset="0.4207" style="stop-color:#EBEBF4"/>
		<stop  offset="0.4214" style="stop-color:#F6F1F4"/>
		<stop  offset="0.4223" style="stop-color:#FDF4F4"/>
		<stop  offset="0.425" style="stop-color:#FFF5F4"/>
		<stop  offset="0.4894" style="stop-color:#FFF5F4"/>
		<stop  offset="0.5" style="stop-color:#FFF5F4"/>
		<stop  offset="0.5" style="stop-color:#F9F2F4"/>
		<stop  offset="0.5001" style="stop-color:#E8EBF4"/>
		<stop  offset="0.5003" style="stop-color:#DDE5F4"/>
		<stop  offset="0.5005" style="stop-color:#D6E2F4"/>
		<stop  offset="0.501" style="stop-color:#D4E1F4"/>
		<stop  offset="0.7062" style="stop-color:#D4E1F4"/>
		<stop  offset="0.74" style="stop-color:#D4E1F4"/>
		<stop  offset="0.741" style="stop-color:#FFF5F4"/>
		<stop  offset="0.8346" style="stop-color:#FFF5F4"/>
		<stop  offset="0.85" style="stop-color:#FFF5F4"/>
		<stop  offset="0.851" style="stop-color:#D4E1F4"/>
	</linearGradient>
	<polygon style="fill:url(#SVGID_1_);" points="418.133,42.667 418.133,76.8 358.4,76.8 358.4,42.667 153.6,42.667 153.6,76.8 
		93.867,76.8 93.867,42.667 51.2,42.667 51.2,503.467 460.8,503.467 460.8,42.667 	"/>
	<g>
		<polygon style="fill:#7FACFA;" points="418.133,42.667 418.133,76.8 358.4,76.8 358.4,42.667 307.2,42.667 307.2,76.8 
			247.467,76.8 247.467,42.667 179.2,42.667 179.2,136.533 486.4,136.533 486.4,42.667 		"/>
		<rect x="102.4" y="204.8" style="fill:#7FACFA;" width="76.8" height="76.8"/>
		<rect x="179.2" y="281.6" style="fill:#7FACFA;" width="76.8" height="76.8"/>
		<rect x="256" y="358.4" style="fill:#7FACFA;" width="76.8" height="76.8"/>
	</g>
	<g>
		<rect x="256" y="358.4" style="fill:#A4C2F7;" width="51.2" height="76.8"/>
		<rect x="179.2" y="281.6" style="fill:#A4C2F7;" width="51.2" height="76.8"/>
		<rect x="102.4" y="204.8" style="fill:#A4C2F7;" width="51.2" height="76.8"/>
	</g>
	<rect x="102.4" y="358.4" style="fill:#7FACFA;" width="76.8" height="76.8"/>
	<rect x="102.4" y="358.4" style="fill:#A4C2F7;" width="51.2" height="76.8"/>
	<rect x="256" y="204.8" style="fill:#7FACFA;" width="76.8" height="76.8"/>
	<rect x="256" y="204.8" style="fill:#A4C2F7;" width="51.2" height="76.8"/>
	<rect x="332.8" y="281.6" style="fill:#7FACFA;" width="76.8" height="76.8"/>
	<rect x="332.8" y="281.6" style="fill:#A4C2F7;" width="51.2" height="76.8"/>
	<polygon style="fill:#FFFFFF;" points="264.533,42.667 264.533,76.8 204.8,76.8 204.8,42.667 153.6,42.667 153.6,76.8 93.867,76.8 
		93.867,42.667 25.6,42.667 25.6,136.533 332.8,136.533 332.8,42.667 	"/>
	<polygon style="fill:#A4C2F7;" points="418.133,42.667 418.133,76.8 358.4,76.8 358.4,42.667 153.6,42.667 153.6,76.8 93.867,76.8 
		93.867,42.667 51.2,42.667 51.2,136.533 460.8,136.533 460.8,42.667 	"/>
	<g>
		<path style="fill:#428DFF;" d="M153.6,85.333H93.867c-2.264,0.001-4.435-0.897-6.035-2.498c-1.601-1.601-2.499-3.772-2.498-6.035
			V8.533c-0.001-2.264,0.897-4.435,2.498-6.035C89.432,0.897,91.603-0.001,93.867,0H153.6c2.264-0.001,4.435,0.897,6.035,2.498
			s2.499,3.772,2.498,6.035V76.8c0.001,2.264-0.897,4.435-2.498,6.035C158.035,84.436,155.864,85.335,153.6,85.333L153.6,85.333z
			 M102.4,68.267h42.667v-51.2H102.4V68.267z"/>
		<path style="fill:#428DFF;" d="M418.133,85.333H358.4c-2.264,0.001-4.435-0.897-6.035-2.498c-1.601-1.601-2.499-3.772-2.498-6.035
			V8.533c-0.001-2.264,0.897-4.435,2.498-6.035c1.601-1.601,3.772-2.499,6.035-2.498h59.733c2.264-0.001,4.435,0.897,6.035,2.498
			c1.601,1.601,2.499,3.772,2.498,6.035V76.8c0.001,2.264-0.897,4.435-2.498,6.035C422.568,84.436,420.397,85.335,418.133,85.333
			L418.133,85.333z M366.933,68.267H409.6v-51.2h-42.667V68.267z"/>
		<path style="fill:#428DFF;" d="M486.4,145.067H25.6c-2.264,0.001-4.435-0.897-6.035-2.498c-1.601-1.601-2.499-3.772-2.498-6.035
			V42.667c-0.001-2.264,0.897-4.435,2.498-6.035c1.601-1.601,3.772-2.499,6.035-2.498h68.267c2.264-0.001,4.435,0.897,6.035,2.498
			c1.601,1.601,2.499,3.772,2.498,6.035v25.6h42.667v-25.6c-0.001-2.264,0.897-4.435,2.498-6.035
			c1.601-1.601,3.772-2.499,6.035-2.498h204.8c2.264-0.001,4.435,0.897,6.035,2.498c1.601,1.601,2.499,3.772,2.498,6.035v25.6H409.6
			v-25.6c-0.001-2.264,0.897-4.435,2.498-6.035c1.601-1.601,3.772-2.499,6.035-2.498H486.4c2.264-0.001,4.435,0.897,6.035,2.498
			c1.601,1.601,2.499,3.772,2.498,6.035v93.867c0.001,2.264-0.897,4.435-2.498,6.035C490.835,144.169,488.664,145.068,486.4,145.067
			z M34.133,128h443.733V51.2h-51.2v25.6c0.001,2.264-0.897,4.435-2.498,6.035c-1.601,1.601-3.772,2.499-6.035,2.498H358.4
			c-2.264,0.001-4.435-0.897-6.035-2.498c-1.601-1.601-2.499-3.772-2.498-6.035V51.2H162.133v25.6
			c0.001,2.264-0.897,4.435-2.498,6.035c-1.601,1.601-3.772,2.499-6.035,2.498H93.867c-2.264,0.001-4.435-0.897-6.035-2.498
			c-1.601-1.601-2.499-3.772-2.498-6.035V51.2h-51.2V128z"/>
		<path style="fill:#428DFF;" d="M486.4,512H25.6c-2.264,0.001-4.435-0.897-6.035-2.498c-1.601-1.601-2.499-3.772-2.498-6.035
			v-460.8c-0.001-2.264,0.897-4.435,2.498-6.035c1.601-1.601,3.772-2.499,6.035-2.498h68.267c2.264-0.001,4.435,0.897,6.035,2.498
			c1.601,1.601,2.499,3.772,2.498,6.035v25.6h42.667v-25.6c-0.001-2.264,0.897-4.435,2.498-6.035
			c1.601-1.601,3.772-2.499,6.035-2.498h204.8c2.264-0.001,4.435,0.897,6.035,2.498c1.601,1.601,2.499,3.772,2.498,6.035v25.6H409.6
			v-25.6c-0.001-2.264,0.897-4.435,2.498-6.035c1.601-1.601,3.772-2.499,6.035-2.498H486.4c2.264-0.001,4.435,0.897,6.035,2.498
			c1.601,1.601,2.499,3.772,2.498,6.035v460.8c0.001,2.264-0.897,4.435-2.498,6.035C490.835,511.103,488.664,512.001,486.4,512z
			 M34.133,494.933h443.733V51.2h-51.2v25.6c0.001,2.264-0.897,4.435-2.498,6.035c-1.601,1.601-3.772,2.499-6.035,2.498H358.4
			c-2.264,0.001-4.435-0.897-6.035-2.498c-1.601-1.601-2.499-3.772-2.498-6.035V51.2H162.133v25.6
			c0.001,2.264-0.897,4.435-2.498,6.035c-1.601,1.601-3.772,2.499-6.035,2.498H93.867c-2.264,0.001-4.435-0.897-6.035-2.498
			c-1.601-1.601-2.499-3.772-2.498-6.035V51.2h-51.2V494.933z"/>
		<path style="fill:#428DFF;" d="M179.2,290.133h-76.8c-2.264,0.001-4.435-0.897-6.035-2.498c-1.601-1.601-2.499-3.772-2.498-6.035
			v-76.8c-0.001-2.264,0.897-4.435,2.498-6.035c1.601-1.601,3.772-2.499,6.035-2.498h76.8c2.264-0.001,4.435,0.897,6.035,2.498
			s2.499,3.772,2.498,6.035v76.8c0.001,2.264-0.897,4.435-2.498,6.035C183.635,289.236,181.464,290.135,179.2,290.133L179.2,290.133
			z M110.933,273.067h59.733v-59.733h-59.733V273.067z"/>
		<path style="fill:#428DFF;" d="M179.2,366.933h-76.8c-2.264,0.001-4.435-0.897-6.035-2.498c-1.601-1.601-2.499-3.772-2.498-6.035
			v-76.8c-0.001-2.264,0.897-4.435,2.498-6.035c1.601-1.601,3.772-2.499,6.035-2.498h76.8c2.264-0.001,4.435,0.897,6.035,2.498
			c1.601,1.601,2.499,3.772,2.498,6.035v76.8c0.001,2.264-0.897,4.435-2.498,6.035C183.635,366.036,181.464,366.935,179.2,366.933
			L179.2,366.933z M110.933,349.867h59.733v-59.733h-59.733V349.867z"/>
		<path style="fill:#428DFF;" d="M179.2,443.733h-76.8c-2.264,0.001-4.435-0.897-6.035-2.498c-1.601-1.601-2.499-3.772-2.498-6.035
			v-76.8c-0.001-2.264,0.897-4.435,2.498-6.035c1.601-1.601,3.772-2.499,6.035-2.498h76.8c2.264-0.001,4.435,0.897,6.035,2.498
			c1.601,1.601,2.499,3.772,2.498,6.035v76.8c0.001,2.264-0.897,4.435-2.498,6.035C183.635,442.836,181.464,443.735,179.2,443.733
			L179.2,443.733z M110.933,426.667h59.733v-59.733h-59.733V426.667z"/>
		<path style="fill:#428DFF;" d="M256,290.133h-76.8c-2.264,0.001-4.435-0.897-6.035-2.498c-1.601-1.601-2.499-3.772-2.498-6.035
			v-76.8c-0.001-2.264,0.897-4.435,2.498-6.035s3.772-2.499,6.035-2.498H256c2.264-0.001,4.435,0.897,6.035,2.498
			s2.499,3.772,2.498,6.035v76.8c0.001,2.264-0.897,4.435-2.498,6.035C260.435,289.236,258.264,290.135,256,290.133z
			 M187.733,273.067h59.733v-59.733h-59.733V273.067z"/>
		<path style="fill:#428DFF;" d="M256,366.933h-76.8c-2.264,0.001-4.435-0.897-6.035-2.498c-1.601-1.601-2.499-3.772-2.498-6.035
			v-76.8c-0.001-2.264,0.897-4.435,2.498-6.035c1.601-1.601,3.772-2.499,6.035-2.498H256c2.264-0.001,4.435,0.897,6.035,2.498
			c1.601,1.601,2.499,3.772,2.498,6.035v76.8c0.001,2.264-0.897,4.435-2.498,6.035C260.435,366.036,258.264,366.935,256,366.933
			L256,366.933z M187.733,349.867h59.733v-59.733h-59.733V349.867z"/>
		<path style="fill:#428DFF;" d="M256,443.733h-76.8c-2.264,0.001-4.435-0.897-6.035-2.498c-1.601-1.601-2.499-3.772-2.498-6.035
			v-76.8c-0.001-2.264,0.897-4.435,2.498-6.035c1.601-1.601,3.772-2.499,6.035-2.498H256c2.264-0.001,4.435,0.897,6.035,2.498
			c1.601,1.601,2.499,3.772,2.498,6.035v76.8c0.001,2.264-0.897,4.435-2.498,6.035C260.435,442.836,258.264,443.735,256,443.733
			L256,443.733z M187.733,426.667h59.733v-59.733h-59.733V426.667z"/>
		<path style="fill:#428DFF;" d="M332.8,290.133H256c-2.264,0.001-4.435-0.897-6.035-2.498c-1.601-1.601-2.499-3.772-2.498-6.035
			v-76.8c-0.001-2.264,0.897-4.435,2.498-6.035s3.772-2.499,6.035-2.498h76.8c2.264-0.001,4.435,0.897,6.035,2.498
			c1.601,1.601,2.499,3.772,2.498,6.035v76.8c0.001,2.264-0.897,4.435-2.498,6.035C337.235,289.236,335.064,290.135,332.8,290.133
			L332.8,290.133z M264.533,273.067h59.733v-59.733h-59.733V273.067z"/>
		<path style="fill:#428DFF;" d="M332.8,366.933H256c-2.264,0.001-4.435-0.897-6.035-2.498c-1.601-1.601-2.499-3.772-2.498-6.035
			v-76.8c-0.001-2.264,0.897-4.435,2.498-6.035c1.601-1.601,3.772-2.499,6.035-2.498h76.8c2.264-0.001,4.435,0.897,6.035,2.498
			c1.601,1.601,2.499,3.772,2.498,6.035v76.8c0.001,2.264-0.897,4.435-2.498,6.035C337.235,366.036,335.064,366.935,332.8,366.933
			L332.8,366.933z M264.533,349.867h59.733v-59.733h-59.733V349.867z"/>
		<path style="fill:#428DFF;" d="M332.8,443.733H256c-2.264,0.001-4.435-0.897-6.035-2.498c-1.601-1.601-2.499-3.772-2.498-6.035
			v-76.8c-0.001-2.264,0.897-4.435,2.498-6.035c1.601-1.601,3.772-2.499,6.035-2.498h76.8c2.264-0.001,4.435,0.897,6.035,2.498
			c1.601,1.601,2.499,3.772,2.498,6.035v76.8c0.001,2.264-0.897,4.435-2.498,6.035C337.235,442.836,335.064,443.735,332.8,443.733
			L332.8,443.733z M264.533,426.667h59.733v-59.733h-59.733V426.667z"/>
		<path style="fill:#428DFF;" d="M409.6,290.133h-76.8c-2.264,0.001-4.435-0.897-6.035-2.498c-1.601-1.601-2.499-3.772-2.498-6.035
			v-76.8c-0.001-2.264,0.897-4.435,2.498-6.035c1.601-1.601,3.772-2.499,6.035-2.498h76.8c2.264-0.001,4.435,0.897,6.035,2.498
			c1.601,1.601,2.499,3.772,2.498,6.035v76.8c0.001,2.264-0.897,4.435-2.498,6.035C414.035,289.236,411.864,290.135,409.6,290.133z
			 M341.333,273.067h59.733v-59.733h-59.733V273.067z"/>
		<path style="fill:#428DFF;" d="M409.6,366.933h-76.8c-2.264,0.001-4.435-0.897-6.035-2.498c-1.601-1.601-2.499-3.772-2.498-6.035
			v-76.8c-0.001-2.264,0.897-4.435,2.498-6.035c1.601-1.601,3.772-2.499,6.035-2.498h76.8c2.264-0.001,4.435,0.897,6.035,2.498
			c1.601,1.601,2.499,3.772,2.498,6.035v76.8c0.001,2.264-0.897,4.435-2.498,6.035C414.035,366.036,411.864,366.935,409.6,366.933
			L409.6,366.933z M341.333,349.867h59.733v-59.733h-59.733V349.867z"/>
		<path style="fill:#428DFF;" d="M409.6,443.733h-76.8c-2.264,0.001-4.435-0.897-6.035-2.498c-1.601-1.601-2.499-3.772-2.498-6.035
			v-76.8c-0.001-2.264,0.897-4.435,2.498-6.035c1.601-1.601,3.772-2.499,6.035-2.498h76.8c2.264-0.001,4.435,0.897,6.035,2.498
			c1.601,1.601,2.499,3.772,2.498,6.035v76.8c0.001,2.264-0.897,4.435-2.498,6.035C414.035,442.836,411.864,443.735,409.6,443.733
			L409.6,443.733z M341.333,426.667h59.733v-59.733h-59.733V426.667z"/>
	</g>
</g>
<g>
</g>
<g>
</g>
<g>
</g>
<g>
</g>
<g>
</g>
<g>
</g>
<g>
</g>
<g>
</g>
<g>
</g>
<g>
</g>
<g>
</g>
<g>
</g>
<g>
</g>
<g>
</g>
<g>
</g>
</svg>
