<?xml version="1.0" encoding="iso-8859-1"?>
<!-- Generator: Adobe Illustrator 19.0.0, SVG Export Plug-In . SVG Version: 6.00 Build 0)  -->
<svg version="1.1" id="Capa_1" xmlns="http://www.w3.org/2000/svg" xmlns:xlink="http://www.w3.org/1999/xlink" x="0px" y="0px"
	 viewBox="0 0 512 512" style="enable-background:new 0 0 512 512;" xml:space="preserve">
<g>
	<circle style="fill:#A4C2F7;" cx="392.533" cy="256" r="110.933"/>
	<ellipse style="fill:#E3E7F2;" cx="379.733" cy="256" rx="98.133" ry="110.933"/>
	<path style="fill:#FFFFFF;" d="M392.533,145.067c2.293,0,4.533,0.206,6.792,0.343C347.941,148.937,307.2,197.026,307.2,256
		s40.741,107.063,92.125,110.59c-2.258,0.137-4.499,0.343-6.792,0.343C331.267,366.933,281.6,317.267,281.6,256
		S331.267,145.067,392.533,145.067L392.533,145.067z"/>
	<path style="fill:#7FACFA;" d="M59.733,307.2h234.447c-16.774-32.072-16.774-70.328,0-102.4H59.733
		c-28.277,0-51.2,22.923-51.2,51.2C8.533,284.277,31.456,307.2,59.733,307.2z"/>
	<path style="fill:#A4C2F7;" d="M85.333,307.2h208.847c-16.774-32.072-16.774-70.328,0-102.4H85.333
		c-28.277,0-51.2,22.923-51.2,51.2C34.133,284.277,57.056,307.2,85.333,307.2z"/>
	<g>
		<path style="fill:#428DFF;" d="M392.533,375.467c-65.98,0-119.467-53.487-119.467-119.467s53.487-119.467,119.467-119.467
			S512,190.02,512,256C511.926,321.949,458.482,375.393,392.533,375.467L392.533,375.467z M392.533,153.6
			c-56.554,0-102.4,45.846-102.4,102.4s45.846,102.4,102.4,102.4s102.4-45.846,102.4-102.4
			C494.87,199.472,449.061,153.663,392.533,153.6z"/>
		<path style="fill:#428DFF;" d="M294.179,315.733H59.733C26.744,315.733,0,288.99,0,256s26.744-59.733,59.733-59.733h234.446
			c2.984,0.001,5.751,1.56,7.298,4.111c1.547,2.552,1.649,5.726,0.269,8.372c-15.483,29.597-15.483,64.903,0,94.5
			c1.38,2.646,1.278,5.82-0.269,8.372C299.93,314.174,297.163,315.733,294.179,315.733L294.179,315.733z M59.733,213.333
			c-23.564,0-42.667,19.103-42.667,42.667s19.103,42.667,42.667,42.667h221.233c-10.533-27.469-10.533-57.864,0-85.333H59.733z"/>
	</g>
</g>
<g>
</g>
<g>
</g>
<g>
</g>
<g>
</g>
<g>
</g>
<g>
</g>
<g>
</g>
<g>
</g>
<g>
</g>
<g>
</g>
<g>
</g>
<g>
</g>
<g>
</g>
<g>
</g>
<g>
</g>
</svg>
