<?xml version="1.0" encoding="iso-8859-1"?>
<!-- Generator: Adobe Illustrator 19.0.0, SVG Export Plug-In . SVG Version: 6.00 Build 0)  -->
<svg version="1.1" id="Capa_1" xmlns="http://www.w3.org/2000/svg" xmlns:xlink="http://www.w3.org/1999/xlink" x="0px" y="0px"
	 viewBox="0 0 512 512" style="enable-background:new 0 0 512 512;" xml:space="preserve">
<g>
	<path style="fill:#A4C2F7;" d="M64.247,8.533h383.505c30.77,0,55.714,24.944,55.714,55.714v383.505
		c0,30.77-24.944,55.714-55.714,55.714H64.247c-30.77,0-55.714-24.944-55.714-55.714V64.247C8.533,33.477,33.477,8.533,64.247,8.533
		z"/>
	<path style="fill:#E3E7F2;" d="M89.847,8.533h332.305c30.77,0,55.714,24.944,55.714,55.714v383.505
		c0,30.77-24.944,55.714-55.714,55.714H89.847c-30.77,0-55.714-24.944-55.714-55.714V64.247
		C34.133,33.477,59.077,8.533,89.847,8.533z"/>
	<path style="fill:#7FACFA;" d="M375.467,452.267H136.533c-47.128,0-85.333-38.205-85.333-85.333l0,0
		c0-47.128,38.205-85.333,85.333-85.333h238.933c47.128,0,85.333,38.205,85.333,85.333l0,0
		C460.8,414.062,422.595,452.267,375.467,452.267z"/>
	<path style="fill:#A4C2F7;" d="M349.867,452.267H136.533c-47.128,0-85.333-38.205-85.333-85.333l0,0
		c0-47.128,38.205-85.333,85.333-85.333h213.333c47.128,0,85.333,38.205,85.333,85.333l0,0
		C435.2,414.062,396.995,452.267,349.867,452.267z"/>
	<circle style="fill:#FFFFFF;" cx="136.533" cy="366.933" r="85.333"/>
	<ellipse style="fill:#E3E7F2;" cx="149.333" cy="366.933" rx="72.533" ry="85.333"/>
	<path style="fill:#FFFFFF;" d="M136.533,59.733h238.933c47.128,0,85.333,38.205,85.333,85.333l0,0
		c0,47.128-38.205,85.333-85.333,85.333H136.533c-47.128,0-85.333-38.205-85.333-85.333l0,0
		C51.2,97.938,89.405,59.733,136.533,59.733z"/>
	<path style="fill:#A4C2F7;" d="M162.133,59.733h213.333c47.128,0,85.333,38.205,85.333,85.333l0,0
		c0,47.128-38.205,85.333-85.333,85.333H162.133c-47.128,0-85.333-38.205-85.333-85.333l0,0
		C76.8,97.938,115.005,59.733,162.133,59.733z"/>
	<path style="fill:#FFFFFF;" d="M34.133,447.755V64.244c0-30.768,24.943-55.711,55.711-55.711h-25.6
		c-30.768,0-55.711,24.943-55.711,55.711v383.511c0,14.776,5.869,28.946,16.317,39.394c10.448,10.448,24.618,16.318,39.394,16.318
		h25.6c-14.776,0-28.946-5.87-39.394-16.318C40.003,476.701,34.133,462.531,34.133,447.755z"/>
	<circle style="fill:#A4C2F7;" cx="375.467" cy="145.067" r="85.333"/>
	<ellipse style="fill:#E3E7F2;" cx="362.667" cy="145.067" rx="72.533" ry="85.333"/>
	<g>
		<path style="fill:#428DFF;" d="M447.758,512H64.242C28.778,511.961,0.039,483.222,0,447.758V64.242
			C0.039,28.778,28.778,0.039,64.242,0h383.517C483.222,0.039,511.961,28.778,512,64.242v383.517
			C511.961,483.222,483.222,511.961,447.758,512z M64.242,17.067c-26.041,0.032-47.143,21.134-47.175,47.175v383.517
			c0.032,26.041,21.134,47.143,47.175,47.175h383.517c26.041-0.032,47.143-21.134,47.175-47.175V64.242
			c-0.032-26.041-21.134-47.143-47.175-47.175H64.242z"/>
		<path style="fill:#428DFF;" d="M375.467,238.933c-51.841,0-93.867-42.026-93.867-93.867S323.626,51.2,375.467,51.2
			s93.867,42.026,93.867,93.867C469.275,196.884,427.284,238.875,375.467,238.933L375.467,238.933z M375.467,68.267
			c-42.415,0-76.8,34.385-76.8,76.8s34.385,76.8,76.8,76.8s76.8-34.385,76.8-76.8C452.22,102.67,417.863,68.313,375.467,68.267z"/>
		<path style="fill:#428DFF;" d="M136.533,460.8c-51.841,0-93.867-42.026-93.867-93.867s42.026-93.867,93.867-93.867
			s93.867,42.026,93.867,93.867C230.341,418.75,188.35,460.741,136.533,460.8L136.533,460.8z M136.533,290.133
			c-42.415,0-76.8,34.385-76.8,76.8s34.385,76.8,76.8,76.8s76.8-34.385,76.8-76.8C213.287,324.537,178.93,290.18,136.533,290.133
			L136.533,290.133z"/>
		<path style="fill:#428DFF;" d="M375.467,238.933H136.533c-51.841,0-93.867-42.026-93.867-93.867S84.692,51.2,136.533,51.2h238.933
			c51.841,0,93.867,42.026,93.867,93.867S427.308,238.933,375.467,238.933z M136.533,68.267c-42.415,0-76.8,34.385-76.8,76.8
			s34.385,76.8,76.8,76.8h238.933c42.415,0,76.8-34.385,76.8-76.8s-34.385-76.8-76.8-76.8H136.533z"/>
		<path style="fill:#428DFF;" d="M375.467,460.8H136.533c-51.841,0-93.867-42.026-93.867-93.867s42.026-93.867,93.867-93.867
			h238.933c51.841,0,93.867,42.026,93.867,93.867S427.308,460.8,375.467,460.8z M136.533,290.133c-42.415,0-76.8,34.385-76.8,76.8
			s34.385,76.8,76.8,76.8h238.933c42.415,0,76.8-34.385,76.8-76.8s-34.385-76.8-76.8-76.8H136.533z"/>
	</g>
</g>
<g>
</g>
<g>
</g>
<g>
</g>
<g>
</g>
<g>
</g>
<g>
</g>
<g>
</g>
<g>
</g>
<g>
</g>
<g>
</g>
<g>
</g>
<g>
</g>
<g>
</g>
<g>
</g>
<g>
</g>
</svg>
