<?xml version="1.0" encoding="iso-8859-1"?>
<!-- Generator: Adobe Illustrator 19.0.0, SVG Export Plug-In . SVG Version: 6.00 Build 0)  -->
<svg version="1.1" id="Capa_1" xmlns="http://www.w3.org/2000/svg" xmlns:xlink="http://www.w3.org/1999/xlink" x="0px" y="0px"
	 viewBox="0 0 512 512" style="enable-background:new 0 0 512 512;" xml:space="preserve">
<g>
	<g transform="matrix(-1 0 0 -1 60 36)">
		<path style="fill:#A4C2F7;" d="M-298.4-365.067h204.8c80.118,0,145.067,64.949,145.067,145.067l0,0
			c0,80.118-64.949,145.067-145.067,145.067h-204.8c-80.118,0-145.067-64.949-145.067-145.067l0,0
			C-443.467-300.118-378.518-365.067-298.4-365.067z"/>
		<path style="fill:#E3E7F2;" d="M-272.8-365.067h153.6c80.118,0,145.067,64.949,145.067,145.067l0,0
			c0,80.118-64.949,145.067-145.067,145.067h-153.6c-80.118,0-145.067-64.949-145.067-145.067l0,0
			C-417.867-300.118-352.918-365.067-272.8-365.067z"/>
	</g>
	<circle style="fill:#7FACFA;" cx="358.4" cy="256" r="102.4"/>
	<ellipse style="fill:#A4C2F7;" cx="345.6" cy="256" rx="89.6" ry="102.4"/>
	<path style="fill:#FFFFFF;" d="M34.133,256L34.133,256c0.234-80.021,65.046-144.833,145.067-145.067h-25.6
		C73.579,111.167,8.767,175.979,8.533,256v0C8.767,336.021,73.579,400.833,153.6,401.067h25.6
		C99.179,400.833,34.367,336.021,34.133,256z"/>
	<g>
		<path style="fill:#428DFF;" d="M358.4,409.6H153.6C68.769,409.6,0,340.831,0,256s68.769-153.6,153.6-153.6h204.8
			c84.831,0,153.6,68.769,153.6,153.6S443.231,409.6,358.4,409.6L358.4,409.6z M153.6,119.467
			c-75.405,0-136.533,61.128-136.533,136.533S78.195,392.533,153.6,392.533h204.8c75.405,0,136.533-61.128,136.533-136.533
			S433.805,119.467,358.4,119.467H153.6z"/>
		<path style="fill:#428DFF;" d="M358.4,366.933c-61.267,0-110.933-49.667-110.933-110.933S297.133,145.067,358.4,145.067
			S469.333,194.733,469.333,256C469.263,317.237,419.637,366.863,358.4,366.933z M358.4,162.133
			c-51.841,0-93.867,42.026-93.867,93.867s42.026,93.867,93.867,93.867s93.867-42.026,93.867-93.867
			C452.208,204.183,410.217,162.192,358.4,162.133L358.4,162.133z"/>
		<path style="fill:#428DFF;" d="M145.067,332.8c-2.264,0.001-4.435-0.897-6.035-2.498s-2.499-3.772-2.498-6.035V187.733
			c0-4.713,3.821-8.533,8.533-8.533c4.713,0,8.533,3.82,8.533,8.533v136.533c0.001,2.264-0.897,4.435-2.498,6.035
			S147.33,332.801,145.067,332.8L145.067,332.8z"/>
	</g>
</g>
<g>
</g>
<g>
</g>
<g>
</g>
<g>
</g>
<g>
</g>
<g>
</g>
<g>
</g>
<g>
</g>
<g>
</g>
<g>
</g>
<g>
</g>
<g>
</g>
<g>
</g>
<g>
</g>
<g>
</g>
</svg>
