<?xml version="1.0" encoding="iso-8859-1"?>
<!-- Generator: Adobe Illustrator 19.0.0, SVG Export Plug-In . SVG Version: 6.00 Build 0)  -->
<svg version="1.1" id="Capa_1" xmlns="http://www.w3.org/2000/svg" xmlns:xlink="http://www.w3.org/1999/xlink" x="0px" y="0px"
	 viewBox="0 0 512 512" style="enable-background:new 0 0 512 512;" xml:space="preserve">
<g>
	<g transform="matrix(-1 0 0 -1 60 36)">
		<path style="fill:#A4C2F7;" d="M-298.4-365.067h204.8c80.118,0,145.067,64.949,145.067,145.067l0,0
			c0,80.118-64.949,145.067-145.067,145.067h-204.8c-80.118,0-145.067-64.949-145.067-145.067l0,0
			C-443.467-300.118-378.518-365.067-298.4-365.067z"/>
		<path style="fill:#E3E7F2;" d="M-272.8-365.067h153.6c80.118,0,145.067,64.949,145.067,145.067l0,0
			c0,80.118-64.949,145.067-145.067,145.067h-153.6c-80.118,0-145.067-64.949-145.067-145.067l0,0
			C-417.867-300.118-352.918-365.067-272.8-365.067z"/>
	</g>
	<circle style="fill:#7FACFA;" cx="153.6" cy="256" r="102.4"/>
	<ellipse style="fill:#A4C2F7;" cx="140.8" cy="256" rx="89.6" ry="102.4"/>
	<path style="fill:#FFFFFF;" d="M34.133,256L34.133,256c0.234-80.021,65.046-144.833,145.067-145.067h-25.6
		C73.579,111.167,8.767,175.979,8.533,256v0C8.767,336.021,73.579,400.833,153.6,401.067h25.6
		C99.179,400.833,34.367,336.021,34.133,256z"/>
	<g>
		<path style="fill:#428DFF;" d="M358.4,409.6H153.6C68.769,409.6,0,340.831,0,256s68.769-153.6,153.6-153.6h204.8
			c84.831,0,153.6,68.769,153.6,153.6S443.231,409.6,358.4,409.6L358.4,409.6z M153.6,119.467
			c-75.405,0-136.533,61.128-136.533,136.533S78.195,392.533,153.6,392.533h204.8c75.405,0,136.533-61.128,136.533-136.533
			S433.805,119.467,358.4,119.467H153.6z"/>
		<path style="fill:#428DFF;" d="M153.6,366.933c-61.267,0-110.933-49.667-110.933-110.933S92.333,145.067,153.6,145.067
			S264.533,194.733,264.533,256C264.463,317.237,214.837,366.863,153.6,366.933z M153.6,162.133
			c-51.841,0-93.867,42.026-93.867,93.867s42.026,93.867,93.867,93.867s93.867-42.026,93.867-93.867
			C247.408,204.183,205.417,162.192,153.6,162.133z"/>
		<path style="fill:#428DFF;" d="M349.867,298.667c-2.264,0.003-4.435-0.897-6.033-2.5L309.7,262.033
			c-3.281-3.341-3.256-8.701,0.054-12.012c3.311-3.311,8.671-3.335,12.012-0.054L355.9,284.1c2.44,2.44,3.169,6.11,1.849,9.298
			C356.428,296.587,353.318,298.666,349.867,298.667z"/>
		<path style="fill:#428DFF;" d="M349.867,298.667c-3.451-0.001-6.562-2.08-7.882-5.268c-1.32-3.188-0.591-6.858,1.849-9.298
			l68.267-68.267c2.149-2.188,5.307-3.055,8.271-2.27c2.965,0.785,5.28,3.1,6.065,6.065c0.785,2.965-0.082,6.122-2.27,8.271
			L355.9,296.166C354.302,297.769,352.13,298.669,349.867,298.667L349.867,298.667z"/>
	</g>
</g>
<g>
</g>
<g>
</g>
<g>
</g>
<g>
</g>
<g>
</g>
<g>
</g>
<g>
</g>
<g>
</g>
<g>
</g>
<g>
</g>
<g>
</g>
<g>
</g>
<g>
</g>
<g>
</g>
<g>
</g>
</svg>
