<?xml version="1.0" encoding="iso-8859-1"?>
<!-- Generator: Adobe Illustrator 19.0.0, SVG Export Plug-In . SVG Version: 6.00 Build 0)  -->
<svg version="1.1" id="Capa_1" xmlns="http://www.w3.org/2000/svg" xmlns:xlink="http://www.w3.org/1999/xlink" x="0px" y="0px"
	 viewBox="0 0 512 512" style="enable-background:new 0 0 512 512;" xml:space="preserve">
<g>
	<polygon style="fill:#A4C2F7;" points="328.533,42.667 302.933,42.667 243.2,42.667 243.2,503.467 465.067,503.467 465.067,42.667 
			"/>
	<polygon style="fill:#FFFFFF;" points="132.267,42.667 106.667,42.667 46.933,42.667 46.933,503.467 268.8,503.467 268.8,42.667 	
		"/>
	<polygon style="fill:#7FACFA;" points="243.2,247.467 174.933,196.267 106.667,247.467 106.667,8.533 243.2,8.533 	"/>
	<polygon style="fill:#A4C2F7;" points="217.6,230.4 174.933,196.267 106.667,247.467 106.667,8.533 217.6,8.533 	"/>
	
		<linearGradient id="SVGID_1_" gradientUnits="userSpaceOnUse" x1="-48.9304" y1="652.6474" x2="-47.8025" y2="651.7493" gradientTransform="matrix(366.9333 0 0 -460.8 18003.2637 300806.0938)">
		<stop  offset="0" style="stop-color:#D4E1F4"/>
		<stop  offset="0.1717" style="stop-color:#D4E1F4"/>
		<stop  offset="0.2" style="stop-color:#D4E1F4"/>
		<stop  offset="0.2001" style="stop-color:#DAE4F4"/>
		<stop  offset="0.2007" style="stop-color:#EBEBF4"/>
		<stop  offset="0.2014" style="stop-color:#F6F1F4"/>
		<stop  offset="0.2023" style="stop-color:#FDF4F4"/>
		<stop  offset="0.205" style="stop-color:#FFF5F4"/>
		<stop  offset="0.2522" style="stop-color:#FFF5F4"/>
		<stop  offset="0.26" style="stop-color:#FFF5F4"/>
		<stop  offset="0.26" style="stop-color:#D4E1F4"/>
		<stop  offset="0.3974" style="stop-color:#D4E1F4"/>
		<stop  offset="0.42" style="stop-color:#D4E1F4"/>
		<stop  offset="0.4201" style="stop-color:#DAE4F4"/>
		<stop  offset="0.4207" style="stop-color:#EBEBF4"/>
		<stop  offset="0.4214" style="stop-color:#F6F1F4"/>
		<stop  offset="0.4223" style="stop-color:#FDF4F4"/>
		<stop  offset="0.425" style="stop-color:#FFF5F4"/>
		<stop  offset="0.4894" style="stop-color:#FFF5F4"/>
		<stop  offset="0.5" style="stop-color:#FFF5F4"/>
		<stop  offset="0.5" style="stop-color:#F9F2F4"/>
		<stop  offset="0.5001" style="stop-color:#E8EBF4"/>
		<stop  offset="0.5003" style="stop-color:#DDE5F4"/>
		<stop  offset="0.5005" style="stop-color:#D6E2F4"/>
		<stop  offset="0.501" style="stop-color:#D4E1F4"/>
		<stop  offset="0.7062" style="stop-color:#D4E1F4"/>
		<stop  offset="0.74" style="stop-color:#D4E1F4"/>
		<stop  offset="0.741" style="stop-color:#FFF5F4"/>
		<stop  offset="0.8346" style="stop-color:#FFF5F4"/>
		<stop  offset="0.85" style="stop-color:#FFF5F4"/>
		<stop  offset="0.851" style="stop-color:#D4E1F4"/>
	</linearGradient>
	<polygon style="fill:url(#SVGID_1_);" points="243.2,42.667 243.2,247.467 174.933,196.267 106.667,247.467 106.667,42.667 
		72.533,42.667 72.533,503.467 439.467,503.467 439.467,42.667 	"/>
	<g>
		<path style="fill:#428DFF;" d="M405.333,324.267H106.667c-4.713,0-8.533-3.821-8.533-8.533c0-4.713,3.821-8.533,8.533-8.533
			h298.667c4.713,0,8.533,3.821,8.533,8.533C413.867,320.446,410.046,324.267,405.333,324.267z"/>
		<path style="fill:#428DFF;" d="M405.333,264.533H294.4c-4.713,0-8.533-3.821-8.533-8.533c0-4.713,3.821-8.533,8.533-8.533h110.933
			c4.713,0,8.533,3.821,8.533,8.533C413.867,260.713,410.046,264.533,405.333,264.533z"/>
		<path style="fill:#428DFF;" d="M405.333,204.8H294.4c-4.713,0-8.533-3.821-8.533-8.533s3.821-8.533,8.533-8.533h110.933
			c4.713,0,8.533,3.821,8.533,8.533S410.046,204.8,405.333,204.8z"/>
		<path style="fill:#428DFF;" d="M405.333,145.067H294.4c-4.713,0-8.533-3.821-8.533-8.533S289.687,128,294.4,128h110.933
			c4.713,0,8.533,3.82,8.533,8.533S410.046,145.067,405.333,145.067z"/>
		<path style="fill:#428DFF;" d="M405.333,426.667H106.667c-4.713,0-8.533-3.82-8.533-8.533s3.821-8.533,8.533-8.533h298.667
			c4.713,0,8.533,3.82,8.533,8.533S410.046,426.667,405.333,426.667z"/>
		<path style="fill:#428DFF;" d="M226.133,375.467H106.667c-4.713,0-8.533-3.82-8.533-8.533s3.821-8.533,8.533-8.533h119.467
			c4.713,0,8.533,3.82,8.533,8.533S230.846,375.467,226.133,375.467z"/>
		<path style="fill:#428DFF;" d="M405.333,375.467H294.4c-4.713,0-8.533-3.82-8.533-8.533s3.821-8.533,8.533-8.533h110.933
			c4.713,0,8.533,3.82,8.533,8.533S410.046,375.467,405.333,375.467z"/>
		<path style="fill:#428DFF;" d="M260.267,375.467c-2.273-0.045-4.441-0.961-6.059-2.558c-1.617-1.563-2.513-3.727-2.475-5.975
			c0.028-2.26,0.912-4.425,2.475-6.059c0.802-0.79,1.762-1.401,2.817-1.792c2.076-0.858,4.407-0.858,6.483,0
			c1.034,0.434,1.986,1.04,2.817,1.792c0.754,0.829,1.36,1.782,1.792,2.817c0.438,1.025,0.671,2.127,0.683,3.242
			c0.034,2.248-0.861,4.41-2.475,5.975c-0.806,0.805-1.763,1.442-2.817,1.875C262.483,375.221,261.382,375.453,260.267,375.467z"/>
		<path style="fill:#428DFF;" d="M243.2,256c-1.846,0.002-3.642-0.598-5.117-1.708l-63.15-47.358l-63.15,47.358
			c-2.585,1.94-6.044,2.253-8.935,0.808c-2.891-1.445-4.716-4.4-4.715-7.633V8.533c-0.001-2.264,0.897-4.435,2.498-6.035
			c1.601-1.601,3.772-2.499,6.035-2.498H243.2c2.264-0.001,4.435,0.897,6.035,2.498s2.499,3.772,2.498,6.035v238.933
			c0.001,2.263-0.898,4.434-2.499,6.035C247.634,255.102,245.463,256.001,243.2,256z M174.933,187.733
			c1.846-0.002,3.642,0.598,5.117,1.708l54.617,40.958V17.067H115.2V230.4l54.617-40.958
			C171.291,188.331,173.087,187.731,174.933,187.733L174.933,187.733z"/>
		<path style="fill:#428DFF;" d="M465.067,512H46.933c-2.264,0.001-4.435-0.897-6.035-2.498c-1.601-1.601-2.499-3.772-2.498-6.035
			v-460.8c-0.001-2.264,0.897-4.435,2.498-6.035c1.601-1.601,3.772-2.499,6.035-2.498h59.733c2.264-0.001,4.435,0.897,6.035,2.498
			c1.601,1.601,2.499,3.772,2.498,6.035V230.4l54.617-40.958c3.029-2.283,7.204-2.283,10.233,0l54.617,40.958V42.667
			c-0.001-2.264,0.897-4.435,2.498-6.035c1.601-1.601,3.772-2.499,6.035-2.498h221.867c2.264-0.001,4.435,0.897,6.035,2.498
			c1.601,1.601,2.499,3.772,2.498,6.035v460.8c0.001,2.264-0.897,4.435-2.498,6.035C469.501,511.103,467.33,512.001,465.067,512z
			 M55.467,494.933h401.067V51.2h-204.8v196.267c0.001,3.232-1.824,6.187-4.715,7.633c-2.891,1.445-6.35,1.133-8.935-0.808
			l-63.15-47.358l-63.15,47.358c-2.585,1.94-6.044,2.253-8.935,0.808c-2.891-1.445-4.716-4.4-4.715-7.633V51.2H55.467V494.933z"/>
	</g>
</g>
<g>
</g>
<g>
</g>
<g>
</g>
<g>
</g>
<g>
</g>
<g>
</g>
<g>
</g>
<g>
</g>
<g>
</g>
<g>
</g>
<g>
</g>
<g>
</g>
<g>
</g>
<g>
</g>
<g>
</g>
</svg>
