<?xml version="1.0" encoding="iso-8859-1"?>
<!-- Generator: Adobe Illustrator 19.0.0, SVG Export Plug-In . SVG Version: 6.00 Build 0)  -->
<svg version="1.1" id="Capa_1" xmlns="http://www.w3.org/2000/svg" xmlns:xlink="http://www.w3.org/1999/xlink" x="0px" y="0px"
	 viewBox="0 0 512.001 512.001" style="enable-background:new 0 0 512.001 512.001;" xml:space="preserve">
<g>
	<rect x="230.399" y="187.735" style="fill:#A4C2F7;" width="110.933" height="145.067"/>
	<rect x="170.666" y="187.735" style="fill:#FFFFFF;" width="110.933" height="145.067"/>
	<rect x="196.266" y="187.735" style="fill:#E3E7F2;" width="119.467" height="145.067"/>
	<circle style="fill:#7FACFA;" cx="255.999" cy="247.468" r="25.6"/>
	<path style="fill:#A4C2F7;" d="M237.699,223.053c-0.288,3.989-3.336,7.227-7.299,7.756v30.545c2.341,0.474,4.39,1.877,5.679,3.888
		c1.289,2.011,1.709,4.458,1.163,6.783c10.989-2.993,18.65-12.924,18.757-24.313C256.104,236.324,248.63,226.251,237.699,223.053
		L237.699,223.053z"/>
	<g>
		<path style="fill:#428DFF;" d="M341.332,341.335H170.666c-2.263,0.001-4.434-0.898-6.035-2.499c-1.6-1.6-2.499-3.771-2.499-6.035
			V187.735c-0.001-2.263,0.898-4.434,2.499-6.035c1.6-1.6,3.771-2.499,6.035-2.499h170.667c2.263-0.001,4.434,0.898,6.035,2.499
			c1.6,1.6,2.499,3.771,2.499,6.035v145.067c0.001,2.263-0.898,4.434-2.499,6.035C345.767,340.436,343.596,341.335,341.332,341.335z
			 M179.199,324.268h153.6v-128h-153.6V324.268z"/>
		<path style="fill:#428DFF;" d="M298.666,196.268c-2.263,0.001-4.434-0.898-6.035-2.499c-1.6-1.6-2.499-3.771-2.499-6.035v-68.267
			c0-18.851-15.282-34.133-34.133-34.133s-34.133,15.282-34.133,34.133v8.533c0,4.713-3.821,8.533-8.533,8.533
			c-4.713,0-8.533-3.821-8.533-8.533v-8.533c0-28.277,22.923-51.2,51.2-51.2c28.277,0,51.2,22.923,51.2,51.2v68.267
			c0.001,2.263-0.898,4.434-2.499,6.035C303.1,195.37,300.929,196.269,298.666,196.268z"/>
		<path style="fill:#428DFF;" d="M255.999,281.601c-18.851,0-34.133-15.282-34.133-34.133s15.282-34.133,34.133-34.133
			s34.133,15.282,34.133,34.133C290.112,266.311,274.842,281.581,255.999,281.601z M255.999,230.401
			c-9.426,0-17.067,7.641-17.067,17.067c0,9.426,7.641,17.067,17.067,17.067c9.426,0,17.067-7.641,17.067-17.067
			C273.055,238.047,265.42,230.412,255.999,230.401L255.999,230.401z"/>
		<path style="fill:#428DFF;" d="M255.999,307.201c-2.263,0.001-4.434-0.898-6.035-2.499c-1.6-1.6-2.499-3.771-2.499-6.035v-25.6
			c0-4.713,3.821-8.533,8.533-8.533c4.713,0,8.533,3.82,8.533,8.533v25.6c0.001,2.263-0.898,4.434-2.499,6.035
			C260.433,306.303,258.262,307.202,255.999,307.201L255.999,307.201z"/>
		<path style="fill:#428DFF;" d="M255.999,460.801C146.191,460.796,51.647,383.294,30.1,275.62S65.992,60.03,167.342,17.769
			s218.441-7.121,279.772,83.964s49.856,212.795-27.419,290.81c-3.318,3.348-8.723,3.372-12.071,0.054
			c-3.348-3.318-3.372-8.723-0.054-12.071c71.553-72.242,82.177-184.943,25.383-269.283S267.735-5.633,173.889,33.503
			S26.859,172.568,46.815,272.271s107.504,171.464,209.184,171.464c4.713,0,8.533,3.821,8.533,8.533
			S260.712,460.801,255.999,460.801z"/>
		<path style="fill:#428DFF;" d="M204.799,512.001c-3.451-0.001-6.562-2.08-7.882-5.268c-1.32-3.188-0.591-6.858,1.849-9.298
			l51.2-51.2c3.341-3.281,8.701-3.256,12.012,0.054c3.311,3.311,3.335,8.671,0.054,12.012l-51.2,51.2
			C209.234,511.104,207.063,512.004,204.799,512.001L204.799,512.001z"/>
		<path style="fill:#428DFF;" d="M255.999,460.801c-2.264,0.003-4.435-0.897-6.033-2.5l-51.2-51.2
			c-3.281-3.341-3.256-8.701,0.054-12.012c3.311-3.311,8.671-3.335,12.012-0.054l51.2,51.2c2.44,2.44,3.169,6.11,1.849,9.298
			C262.561,458.721,259.45,460.801,255.999,460.801z"/>
	</g>
</g>
<g>
</g>
<g>
</g>
<g>
</g>
<g>
</g>
<g>
</g>
<g>
</g>
<g>
</g>
<g>
</g>
<g>
</g>
<g>
</g>
<g>
</g>
<g>
</g>
<g>
</g>
<g>
</g>
<g>
</g>
</svg>
