<?xml version="1.0" encoding="iso-8859-1"?>
<!-- Generator: Adobe Illustrator 19.0.0, SVG Export Plug-In . SVG Version: 6.00 Build 0)  -->
<svg version="1.1" id="Capa_1" xmlns="http://www.w3.org/2000/svg" xmlns:xlink="http://www.w3.org/1999/xlink" x="0px" y="0px"
	 viewBox="0 0 512 512" style="enable-background:new 0 0 512 512;" xml:space="preserve">
<g>
	<path style="fill:#A4C2F7;" d="M256,8.828L256,8.828c48.753,0,88.276,39.522,88.276,88.276v211.862
		c0,48.753-39.522,88.276-88.276,88.276l0,0c-48.753,0-88.276-39.522-88.276-88.276V97.103C167.724,48.35,207.247,8.828,256,8.828z"
		/>
	<path style="fill:#E3E7F2;" d="M256,8.828L256,8.828c34.127,0,61.793,27.666,61.793,61.793v264.828
		c0,34.127-27.666,61.793-61.793,61.793l0,0c-48.753,0-88.276-39.522-88.276-88.276V97.103C167.724,48.35,207.247,8.828,256,8.828z"
		/>
	<path style="fill:#ECECEC;" d="M256,397.241c-48.552,0-61.793-39.724-61.793-88.276V97.103c0-48.552,13.241-88.276,61.793-88.276
		c-48.694,0.143-88.133,39.582-88.276,88.276v211.862C167.867,357.66,207.306,397.099,256,397.241L256,397.241z"/>
	<g>
		<path style="fill:#428DFF;" d="M256,450.207c-77.968-0.089-141.152-63.273-141.241-141.241V256c0-4.875,3.952-8.828,8.828-8.828
			s8.828,3.952,8.828,8.828v52.966c0,68.255,55.331,123.586,123.586,123.586s123.586-55.331,123.586-123.586V256
			c0-4.875,3.952-8.828,8.828-8.828s8.828,3.952,8.828,8.828v52.966C397.152,386.934,333.969,450.118,256,450.207L256,450.207z"/>
		<path style="fill:#428DFF;" d="M256,406.069c-53.604-0.061-97.043-43.5-97.103-97.103V97.103C158.897,43.475,202.371,0,256,0
			s97.103,43.475,97.103,97.103v211.862C353.043,362.569,309.604,406.008,256,406.069z M256,17.655
			c-43.858,0.049-79.399,35.591-79.448,79.448v211.862c0,43.878,35.57,79.448,79.448,79.448s79.448-35.57,79.448-79.448V97.103
			C335.399,53.246,299.858,17.705,256,17.655z"/>
		<path style="fill:#428DFF;" d="M256,512c-2.341,0.001-4.587-0.929-6.243-2.585c-1.656-1.656-2.585-3.901-2.585-6.243v-61.793
			c0-4.875,3.952-8.828,8.828-8.828s8.828,3.952,8.828,8.828v61.793c0.001,2.341-0.929,4.587-2.585,6.243
			C260.587,511.071,258.341,512.001,256,512z"/>
		<path style="fill:#428DFF;" d="M308.966,512H203.034c-4.875,0-8.828-3.952-8.828-8.828s3.952-8.828,8.828-8.828h105.931
			c4.875,0,8.828,3.952,8.828,8.828S313.841,512,308.966,512z"/>
	</g>
</g>
<g>
</g>
<g>
</g>
<g>
</g>
<g>
</g>
<g>
</g>
<g>
</g>
<g>
</g>
<g>
</g>
<g>
</g>
<g>
</g>
<g>
</g>
<g>
</g>
<g>
</g>
<g>
</g>
<g>
</g>
</svg>
