<?xml version="1.0" encoding="iso-8859-1"?>
<!-- Generator: Adobe Illustrator 19.0.0, SVG Export Plug-In . SVG Version: 6.00 Build 0)  -->
<svg version="1.1" id="Capa_1" xmlns="http://www.w3.org/2000/svg" xmlns:xlink="http://www.w3.org/1999/xlink" x="0px" y="0px"
	 viewBox="0 0 508.411 508.411" style="enable-background:new 0 0 508.411 508.411;" xml:space="preserve">
<g>
	<polygon style="fill:#A4C2F7;" points="236.317,278.108 9.846,240.142 498.57,15.856 262.262,492.558 	"/>
	<path style="fill:#E3E7F2;" d="M448.41,33.361c-0.775,2.475-2.542,4.518-4.88,5.641c-25.485,13.44-52.037,24.75-79.385,33.816
		c-33.075,12.883-65.3,27.852-96.479,44.817c-30.074,16.666-61.435,30.897-93.781,42.558
		c-34.748,13.142-63.902,36.053-98.849,48.089c-1.739,0.632-3.62,0.764-5.43,0.38l-59.76,31.483l204.737,31.712l0.535,4.103
		c1.256-0.519,2.599-0.793,3.958-0.805c3.334,0.001,6.462,1.608,8.404,4.318c1.942,2.71,2.459,6.189,1.388,9.346
		c11.06,15.565,8.323,36.796,8.691,55.135c1.719,33.175,7.566,66.007,17.408,97.736L459.313,29.462
		C455.807,31.094,452.156,32.4,448.41,33.361L448.41,33.361z"/>
	<path style="fill:#428DFF;" d="M262.259,502.404c-4.978-0.009-9.17-3.723-9.779-8.663l-25.058-207.144L8.221,249.856
		c-4.265-0.715-7.565-4.128-8.135-8.415s1.724-8.444,5.654-10.248L494.461,6.904c3.792-1.739,8.268-0.9,11.172,2.095
		c2.904,2.995,3.606,7.495,1.751,11.232L271.077,496.933C269.418,500.285,266,502.406,262.259,502.404L262.259,502.404z
		 M43.067,235.731l194.875,32.664c4.308,0.722,7.626,4.193,8.154,8.529l21.981,181.73l209.318-422.25L43.067,235.731z"/>
</g>
<g>
</g>
<g>
</g>
<g>
</g>
<g>
</g>
<g>
</g>
<g>
</g>
<g>
</g>
<g>
</g>
<g>
</g>
<g>
</g>
<g>
</g>
<g>
</g>
<g>
</g>
<g>
</g>
<g>
</g>
</svg>
