<?xml version="1.0" encoding="iso-8859-1"?>
<!-- Generator: Adobe Illustrator 19.0.0, SVG Export Plug-In . SVG Version: 6.00 Build 0)  -->
<svg version="1.1" id="Capa_1" xmlns="http://www.w3.org/2000/svg" xmlns:xlink="http://www.w3.org/1999/xlink" x="0px" y="0px"
	 viewBox="0 0 512 512" style="enable-background:new 0 0 512 512;" xml:space="preserve">
<g>
	<circle style="fill:#A4C2F7;" cx="256" cy="34.712" r="26.034"/>
	<path style="fill:#E3E7F2;" d="M238.194,10.132c0.308,2.427-0.401,4.873-1.96,6.758c-1.558,1.886-3.827,3.043-6.269,3.197v31.565
		c4.034,0.533,7.136,3.829,7.424,7.888c10.88-3.181,18.422-13.074,18.606-24.408C256.181,23.799,248.965,13.665,238.194,10.132
		L238.194,10.132z"/>
	<circle style="fill:#A4C2F7;" cx="256" cy="295.051" r="208.271"/>
	
		<linearGradient id="SVGID_1_" gradientUnits="userSpaceOnUse" x1="-48.7452" y1="652.4985" x2="-47.9859" y2="651.8341" gradientTransform="matrix(364.4746 0 0 -416.5424 17884.0156 271949.9375)">
		<stop  offset="0" style="stop-color:#D4E1F4"/>
		<stop  offset="0.1717" style="stop-color:#D4E1F4"/>
		<stop  offset="0.2" style="stop-color:#D4E1F4"/>
		<stop  offset="0.2001" style="stop-color:#DAE4F4"/>
		<stop  offset="0.2007" style="stop-color:#EBEBF4"/>
		<stop  offset="0.2014" style="stop-color:#F6F1F4"/>
		<stop  offset="0.2023" style="stop-color:#FDF4F4"/>
		<stop  offset="0.205" style="stop-color:#FFF5F4"/>
		<stop  offset="0.2522" style="stop-color:#FFF5F4"/>
		<stop  offset="0.26" style="stop-color:#FFF5F4"/>
		<stop  offset="0.26" style="stop-color:#D4E1F4"/>
		<stop  offset="0.3974" style="stop-color:#D4E1F4"/>
		<stop  offset="0.42" style="stop-color:#D4E1F4"/>
		<stop  offset="0.4201" style="stop-color:#DAE4F4"/>
		<stop  offset="0.4207" style="stop-color:#EBEBF4"/>
		<stop  offset="0.4214" style="stop-color:#F6F1F4"/>
		<stop  offset="0.4223" style="stop-color:#FDF4F4"/>
		<stop  offset="0.425" style="stop-color:#FFF5F4"/>
		<stop  offset="0.4894" style="stop-color:#FFF5F4"/>
		<stop  offset="0.5" style="stop-color:#FFF5F4"/>
		<stop  offset="0.5" style="stop-color:#F9F2F4"/>
		<stop  offset="0.5001" style="stop-color:#E8EBF4"/>
		<stop  offset="0.5003" style="stop-color:#DDE5F4"/>
		<stop  offset="0.5005" style="stop-color:#D6E2F4"/>
		<stop  offset="0.501" style="stop-color:#D4E1F4"/>
		<stop  offset="0.7062" style="stop-color:#D4E1F4"/>
		<stop  offset="0.74" style="stop-color:#D4E1F4"/>
		<stop  offset="0.741" style="stop-color:#FFF5F4"/>
		<stop  offset="0.8346" style="stop-color:#FFF5F4"/>
		<stop  offset="0.85" style="stop-color:#FFF5F4"/>
		<stop  offset="0.851" style="stop-color:#D4E1F4"/>
	</linearGradient>
	<ellipse style="fill:url(#SVGID_1_);" cx="256" cy="295.051" rx="182.237" ry="208.271"/>
	<polygon style="fill:#7FACFA;" points="143.438,407.864 217.079,260.591 290.712,334.232 	"/>
	<path style="fill:#A4C2F7;" d="M176.644,338.009c2.558-0.956,4.566-2.989,5.489-5.559c4.649-10.662,8.281-21.74,10.847-33.085
		c0.008-0.312-0.001-0.624-0.025-0.934c8.589-7.231,15.881-15.875,21.561-25.56c1.615-3.575,2.854-7.308,3.697-11.139l55.269,55.27
		l-108.654,54.327C170.782,361.043,174.787,349.747,176.644,338.009z"/>
	<path style="fill:#FFFFFF;" d="M73.763,295.051C73.763,180.025,155.353,86.78,256,86.78c-115.025,0-208.271,93.246-208.271,208.271
		S140.975,503.322,256,503.322C155.353,503.322,73.763,410.076,73.763,295.051z"/>
	<polygon style="fill:#7FACFA;" points="366.453,184.598 219.179,258.23 292.821,331.871 	"/>
	<path style="fill:#A4C2F7;" d="M296.597,217.801c-0.956,2.558-2.989,4.566-5.559,5.489c-10.662,4.649-21.74,8.281-33.085,10.847
		c-0.312,0.008-0.624-0.001-0.934-0.025c-7.231,8.589-15.875,15.881-25.56,21.561c-3.575,1.615-7.308,2.854-11.139,3.697
		l55.27,55.269l54.327-108.655C319.631,211.938,308.335,215.943,296.597,217.801L296.597,217.801z"/>
	<g>
		<path style="fill:#428DFF;" d="M256,512c-119.818,0-216.949-97.131-216.949-216.949S136.182,78.102,256,78.102
			s216.949,97.131,216.949,216.949C472.814,414.813,375.762,511.865,256,512z M256,95.458
			c-110.232,0-199.593,89.361-199.593,199.593S145.768,494.644,256,494.644s199.593-89.361,199.593-199.593
			C455.471,184.869,366.182,95.58,256,95.458z"/>
		<path style="fill:#428DFF;" d="M256,69.424c-19.171,0-34.712-15.541-34.712-34.712S236.829,0,256,0s34.712,15.541,34.712,34.712
			C290.693,53.875,275.163,69.405,256,69.424L256,69.424z M256,17.356c-9.585,0-17.356,7.771-17.356,17.356
			S246.415,52.068,256,52.068s17.356-7.771,17.356-17.356C273.344,25.132,265.58,17.368,256,17.356z"/>
		<path style="fill:#428DFF;" d="M256,95.458c-2.302,0.001-4.51-0.913-6.138-2.54c-1.628-1.628-2.542-3.836-2.54-6.138V60.746
			c0-4.793,3.885-8.678,8.678-8.678c4.793,0,8.678,3.885,8.678,8.678V86.78c0.001,2.302-0.913,4.51-2.54,6.138
			C260.51,94.545,258.302,95.459,256,95.458L256,95.458z"/>
		<path style="fill:#428DFF;" d="M145.551,414.178c-3.007-0.001-5.8-1.558-7.381-4.116s-1.725-5.753-0.381-8.443l73.636-147.263
			c1.247-2.496,3.618-4.24,6.372-4.686c2.754-0.447,5.555,0.458,7.526,2.432l73.627,73.627c1.974,1.972,2.879,4.772,2.432,7.526
			c-0.447,2.754-2.19,5.125-4.686,6.372l-147.263,73.636C148.227,413.866,146.898,414.18,145.551,414.178L145.551,414.178z
			 M221.568,272.89l-56.61,113.203l113.203-56.61L221.568,272.89z"/>
		<path style="fill:#428DFF;" d="M292.814,340.542c-2.302,0.002-4.509-0.913-6.135-2.543l-73.627-73.627
			c-1.974-1.972-2.879-4.773-2.432-7.526c0.447-2.754,2.191-5.125,4.686-6.372l147.263-73.636c3.341-1.669,7.376-1.014,10.017,1.627
			c2.641,2.641,3.296,6.676,1.627,10.017l-73.636,147.263C299.109,338.689,296.102,340.547,292.814,340.542L292.814,340.542z
			 M233.839,260.618l56.593,56.593l56.61-113.203L233.839,260.618z"/>
	</g>
</g>
<g>
</g>
<g>
</g>
<g>
</g>
<g>
</g>
<g>
</g>
<g>
</g>
<g>
</g>
<g>
</g>
<g>
</g>
<g>
</g>
<g>
</g>
<g>
</g>
<g>
</g>
<g>
</g>
<g>
</g>
</svg>
