<?xml version="1.0" encoding="iso-8859-1"?>
<!-- Generator: Adobe Illustrator 19.0.0, SVG Export Plug-In . SVG Version: 6.00 Build 0)  -->
<svg version="1.1" id="Capa_1" xmlns="http://www.w3.org/2000/svg" xmlns:xlink="http://www.w3.org/1999/xlink" x="0px" y="0px"
	 viewBox="0 0 512 512" style="enable-background:new 0 0 512 512;" xml:space="preserve">
<g>
	<path style="fill:#A4C2F7;" d="M464.751,141.281l-48.779,54.986l-48.779-54.986c-26.94-31.707-26.94-78.264,0-109.971l0,0
		c12.089-14.436,29.95-22.776,48.779-22.776s36.691,8.34,48.779,22.776l0,0C491.691,63.017,491.691,109.573,464.751,141.281z"/>
	<path style="fill:#E3E7F2;" d="M437.706,31.309L437.706,31.309C424.7,16.076,405.365,7.734,385.359,8.725
		c-0.49,1.042-1.168,1.985-2,2.78c-5.565,5.332-10.839,10.636-15.677,16.025c0.031,1.72-0.445,3.411-1.369,4.862
		c-34.548,56.321-16.06,113.637,35.464,149.39l35.929-40.501C464.647,109.574,464.647,63.017,437.706,31.309L437.706,31.309z"/>
	<circle style="fill:#7FACFA;" cx="418.076" cy="81.067" r="38.4"/>
	<g>
		<ellipse style="fill:#A4C2F7;" cx="405.276" cy="81.067" rx="25.6" ry="38.4"/>
		<path style="fill:#A4C2F7;" d="M172.983,402.886l-66.374,74.981l-66.374-74.981c-36.657-43.267-36.657-106.695,0-149.961l0,0
			c16.426-19.681,40.739-31.058,66.374-31.058s49.948,11.377,66.374,31.058l0,0C209.64,296.191,209.64,359.619,172.983,402.886z"/>
	</g>
	<path style="fill:#E3E7F2;" d="M147.383,252.925c-18.543-21.882-46.621-33.305-75.174-30.583c1.233,2.228,1.272,4.925,0.105,7.188
		s-3.387,3.795-5.917,4.083c-2.218,0.383-4.409,0.906-6.56,1.567c0.001,2.196-0.766,4.324-2.167,6.015
		c-9.305,9.864-19.952,18.368-31.629,25.262c-8.663,17.099-6.94,36.343-8.477,55.019c-0.452,5.487-5.617,21.029-6.938,32.099
		c3.269,6.581,6.844,13.129,10.383,19.594c18.473,33.738,53.129,59.825,69.159,94.353l57.215-64.634
		C184.04,359.619,184.04,296.191,147.383,252.925z"/>
	<circle style="fill:#7FACFA;" cx="106.609" cy="315.733" r="42.667"/>
	<ellipse style="fill:#A4C2F7;" cx="93.809" cy="315.733" rx="29.867" ry="42.667"/>
	<path style="fill:#FFFFFF;" d="M88.704,461.383c0.712-0.71,1.423-1.422,2.133-2.133c1.133-1.16,2.559-1.991,4.126-2.405
		c0.215-0.145,0.351-0.326,0.587-0.461c1.498-0.792,3.063-1.448,4.678-1.96c0.815-0.692,1.756-1.22,2.771-1.555
		c0.536-0.471,1.136-0.865,1.781-1.17l-43.211-48.813c-36.657-43.266-36.657-106.694,0-149.96
		c13.755-15.956,32.684-26.565,53.474-29.969c-29.761-4.308-59.643,7.017-79.073,29.969h-0.001
		c-36.657,43.266-36.657,106.694,0,149.96l52.278,59.056C88.407,461.757,88.524,461.565,88.704,461.383z"/>
	<g>
		<path style="fill:#428DFF;" d="M106.609,486.4c-2.443-0.003-4.769-1.049-6.391-2.875l-66.375-74.983
			c-39.358-46.554-39.358-114.721,0-161.275c18.185-21.331,44.737-33.714,72.767-33.933c28.03,0.22,54.582,12.602,72.767,33.933
			c39.358,46.554,39.358,114.721,0,161.275l-66.375,74.983C111.378,485.351,109.052,486.397,106.609,486.4L106.609,486.4z
			 M106.609,230.4c-23.136,0.25-45.023,10.533-59.983,28.183c-33.842,40.018-33.842,98.623,0,138.642l59.983,67.767l59.983-67.767
			l0,0c33.842-40.018,33.842-98.623,0-138.642C151.633,240.933,129.745,230.65,106.609,230.4z"/>
		<path style="fill:#428DFF;" d="M415.976,204.8c-2.44,0.002-4.764-1.042-6.383-2.867L360.81,146.95
			c-29.675-34.992-29.675-86.317,0-121.308C374.52,9.383,394.704,0,415.972,0s41.452,9.383,55.163,25.642
			c29.675,34.992,29.675,86.317,0,121.308l-48.775,54.983C420.74,203.758,418.416,204.802,415.976,204.8z M415.968,17.067
			c-16.347,0.183-31.812,7.445-42.392,19.908c-24.133,28.452-24.133,70.189,0,98.642l42.4,47.792l42.392-47.792l0,0
			c24.133-28.452,24.133-70.189,0-98.642C447.785,24.51,432.318,17.247,415.968,17.067L415.968,17.067z"/>
		<path style="fill:#428DFF;" d="M409.543,512H106.609c-4.713,0-8.533-3.82-8.533-8.533s3.821-8.533,8.533-8.533h302.933
			c16.495,0,29.867-13.372,29.867-29.867c0-16.495-13.372-29.867-29.867-29.867h-102.4c-25.921,0-46.933-21.013-46.933-46.933
			c0-25.921,21.013-46.933,46.933-46.933h153.6c16.495,0,29.867-13.372,29.867-29.867c0-16.495-13.372-29.867-29.867-29.867H273.009
			c-25.921,0-46.933-21.013-46.933-46.933s21.013-46.933,46.933-46.933h98.133c4.713,0,8.533,3.821,8.533,8.533
			s-3.82,8.533-8.533,8.533h-98.133c-16.495,0-29.867,13.372-29.867,29.867s13.372,29.867,29.867,29.867h187.733
			c25.921,0,46.933,21.013,46.933,46.933c0,25.921-21.013,46.933-46.933,46.933h-153.6c-16.495,0-29.867,13.372-29.867,29.867
			c0,16.495,13.372,29.867,29.867,29.867h102.4c25.921,0,46.933,21.013,46.933,46.933C456.476,490.987,435.463,512,409.543,512
			L409.543,512z"/>
		<path style="fill:#428DFF;" d="M418.076,128c-25.921,0-46.933-21.013-46.933-46.933s21.013-46.933,46.933-46.933
			c25.921,0,46.933,21.013,46.933,46.933C464.977,106.974,443.983,127.968,418.076,128L418.076,128z M418.076,51.2
			c-16.495,0-29.867,13.372-29.867,29.867s13.372,29.867,29.867,29.867c16.495,0,29.867-13.372,29.867-29.867
			C447.923,64.58,434.563,51.22,418.076,51.2L418.076,51.2z"/>
		<path style="fill:#428DFF;" d="M106.609,366.933c-28.277,0-51.2-22.923-51.2-51.2s22.923-51.2,51.2-51.2s51.2,22.923,51.2,51.2
			C157.778,343.997,134.874,366.902,106.609,366.933z M106.609,281.6c-18.851,0-34.133,15.282-34.133,34.133
			c0,18.851,15.282,34.133,34.133,34.133s34.133-15.282,34.133-34.133C140.724,296.89,125.453,281.619,106.609,281.6L106.609,281.6z
			"/>
	</g>
</g>
<g>
</g>
<g>
</g>
<g>
</g>
<g>
</g>
<g>
</g>
<g>
</g>
<g>
</g>
<g>
</g>
<g>
</g>
<g>
</g>
<g>
</g>
<g>
</g>
<g>
</g>
<g>
</g>
<g>
</g>
</svg>
