<?xml version="1.0" encoding="iso-8859-1"?>
<!-- Generator: Adobe Illustrator 19.0.0, SVG Export Plug-In . SVG Version: 6.00 Build 0)  -->
<svg version="1.1" id="Capa_1" xmlns="http://www.w3.org/2000/svg" xmlns:xlink="http://www.w3.org/1999/xlink" x="0px" y="0px"
	 viewBox="0 0 512 512" style="enable-background:new 0 0 512 512;" xml:space="preserve">
<g>
	<g>
		<rect x="221.867" y="469.333" style="fill:#A4C2F7;" width="102.4" height="34.133"/>
		<rect x="247.467" y="435.2" style="fill:#A4C2F7;" width="51.2" height="34.133"/>
	</g>
	<g>
		<rect x="213.333" y="435.2" style="fill:#FFFFFF;" width="51.2" height="34.133"/>
		<rect x="187.733" y="469.333" style="fill:#FFFFFF;" width="51.2" height="34.133"/>
	</g>
	<g>
		<rect x="238.933" y="435.2" style="fill:#E3E7F2;" width="34.133" height="34.133"/>
		<rect x="213.333" y="469.333" style="fill:#E3E7F2;" width="85.333" height="34.133"/>
	</g>
	<path style="fill:#A4C2F7;" d="M230.4,110.933h136.533c28.277,0,51.2,22.923,51.2,51.2l0,0c0,28.277-22.923,51.2-51.2,51.2H230.4
		c-28.277,0-51.2-22.923-51.2-51.2l0,0C179.2,133.856,202.123,110.933,230.4,110.933z"/>
	<path style="fill:#FFFFFF;" d="M145.067,110.933H281.6c28.277,0,51.2,22.923,51.2,51.2l0,0c0,28.277-22.923,51.2-51.2,51.2H145.067
		c-28.277,0-51.2-22.923-51.2-51.2l0,0C93.867,133.856,116.79,110.933,145.067,110.933z"/>
	
		<linearGradient id="SVGID_1_" gradientUnits="userSpaceOnUse" x1="-48.6092" y1="651.9124" x2="-48.0319" y2="650.3728" gradientTransform="matrix(273.0667 0 0 -102.4 13450.7314 66839.1406)">
		<stop  offset="0" style="stop-color:#D4E1F4"/>
		<stop  offset="0.1717" style="stop-color:#D4E1F4"/>
		<stop  offset="0.2" style="stop-color:#D4E1F4"/>
		<stop  offset="0.2001" style="stop-color:#DAE4F4"/>
		<stop  offset="0.2007" style="stop-color:#EBEBF4"/>
		<stop  offset="0.2014" style="stop-color:#F6F1F4"/>
		<stop  offset="0.2023" style="stop-color:#FDF4F4"/>
		<stop  offset="0.205" style="stop-color:#FFF5F4"/>
		<stop  offset="0.2522" style="stop-color:#FFF5F4"/>
		<stop  offset="0.26" style="stop-color:#FFF5F4"/>
		<stop  offset="0.26" style="stop-color:#D4E1F4"/>
		<stop  offset="0.3974" style="stop-color:#D4E1F4"/>
		<stop  offset="0.42" style="stop-color:#D4E1F4"/>
		<stop  offset="0.4201" style="stop-color:#DAE4F4"/>
		<stop  offset="0.4207" style="stop-color:#EBEBF4"/>
		<stop  offset="0.4214" style="stop-color:#F6F1F4"/>
		<stop  offset="0.4223" style="stop-color:#FDF4F4"/>
		<stop  offset="0.425" style="stop-color:#FFF5F4"/>
		<stop  offset="0.4894" style="stop-color:#FFF5F4"/>
		<stop  offset="0.5" style="stop-color:#FFF5F4"/>
		<stop  offset="0.5" style="stop-color:#F9F2F4"/>
		<stop  offset="0.5001" style="stop-color:#E8EBF4"/>
		<stop  offset="0.5003" style="stop-color:#DDE5F4"/>
		<stop  offset="0.5005" style="stop-color:#D6E2F4"/>
		<stop  offset="0.501" style="stop-color:#D4E1F4"/>
		<stop  offset="0.7062" style="stop-color:#D4E1F4"/>
		<stop  offset="0.74" style="stop-color:#D4E1F4"/>
		<stop  offset="0.741" style="stop-color:#FFF5F4"/>
		<stop  offset="0.8346" style="stop-color:#FFF5F4"/>
		<stop  offset="0.85" style="stop-color:#FFF5F4"/>
		<stop  offset="0.851" style="stop-color:#D4E1F4"/>
	</linearGradient>
	<path style="fill:url(#SVGID_1_);" d="M170.667,110.933h170.667c28.277,0,51.2,22.923,51.2,51.2l0,0
		c0,28.277-22.923,51.2-51.2,51.2H170.667c-28.277,0-51.2-22.923-51.2-51.2l0,0C119.467,133.856,142.39,110.933,170.667,110.933z"/>
	<circle style="fill:#A4C2F7;" cx="256" cy="42.667" r="34.133"/>
	<path style="fill:#E3E7F2;" d="M239.785,10.004c-0.367,4.482-4.179,7.892-8.674,7.76c-0.271,0-0.452-0.125-0.711-0.144v45.971
		c2.736,0.477,5.105,2.175,6.435,4.613c1.33,2.438,1.475,5.349,0.395,7.908c15.4-3.107,26.672-16.351,27.279-32.049
		C265.115,28.365,254.899,14.291,239.785,10.004z"/>
	<g>
		<path style="fill:#428DFF;" d="M256,443.733c-2.263,0.001-4.434-0.898-6.035-2.499c-1.6-1.6-2.499-3.771-2.499-6.035V213.333
			c0-4.713,3.821-8.533,8.533-8.533c4.713,0,8.533,3.82,8.533,8.533V435.2c0.001,2.263-0.898,4.434-2.499,6.035
			S258.263,443.734,256,443.733L256,443.733z"/>
		<path style="fill:#428DFF;" d="M256,85.333c-23.564,0-42.667-19.103-42.667-42.667S232.436,0,256,0s42.667,19.103,42.667,42.667
			C298.639,66.219,279.553,85.306,256,85.333L256,85.333z M256,17.067c-14.138,0-25.6,11.462-25.6,25.6s11.462,25.6,25.6,25.6
			c14.139,0,25.6-11.462,25.6-25.6C281.585,28.535,270.132,17.082,256,17.067z"/>
		<path style="fill:#428DFF;" d="M324.267,512H187.733c-2.263,0.001-4.434-0.898-6.035-2.499c-1.6-1.6-2.499-3.771-2.499-6.035
			v-34.133c-0.001-2.263,0.898-4.434,2.499-6.035s3.771-2.499,6.035-2.499h136.533c2.263-0.001,4.434,0.898,6.035,2.499
			c1.6,1.6,2.499,3.771,2.499,6.035v34.133c0.001,2.263-0.898,4.434-2.499,6.035C328.701,511.102,326.53,512.001,324.267,512
			L324.267,512z M196.267,494.933h119.467v-17.067H196.267V494.933z"/>
		<path style="fill:#428DFF;" d="M298.667,477.867h-85.333c-2.263,0.001-4.434-0.898-6.035-2.499c-1.6-1.6-2.499-3.771-2.499-6.035
			V435.2c-0.001-2.263,0.898-4.434,2.499-6.035c1.6-1.6,3.771-2.499,6.035-2.499h85.333c2.263-0.001,4.434,0.898,6.035,2.499
			c1.6,1.6,2.499,3.771,2.499,6.035v34.133c0.001,2.263-0.898,4.434-2.499,6.035C303.101,476.968,300.93,477.867,298.667,477.867
			L298.667,477.867z M221.867,460.8h68.267v-17.067h-68.267V460.8z"/>
		<path style="fill:#428DFF;" d="M366.933,221.867H145.067c-32.99,0-59.733-26.744-59.733-59.733s26.744-59.733,59.733-59.733
			h221.867c32.99,0,59.733,26.744,59.733,59.733S399.923,221.867,366.933,221.867L366.933,221.867z M145.067,119.467
			c-23.564,0-42.667,19.103-42.667,42.667s19.103,42.667,42.667,42.667h221.867c23.564,0,42.667-19.103,42.667-42.667
			s-19.102-42.667-42.667-42.667H145.067z"/>
		<path style="fill:#428DFF;" d="M256,119.467c-2.263,0.001-4.434-0.898-6.035-2.499c-1.6-1.6-2.499-3.771-2.499-6.035V76.8
			c0-4.713,3.821-8.533,8.533-8.533c4.713,0,8.533,3.821,8.533,8.533v34.133c0.001,2.263-0.898,4.434-2.499,6.035
			C260.434,118.568,258.263,119.467,256,119.467L256,119.467z"/>
		<path style="fill:#428DFF;" d="M298.667,153.6h-85.333c-4.713,0-8.533-3.821-8.533-8.533c0-4.713,3.821-8.533,8.533-8.533h85.333
			c4.713,0,8.533,3.821,8.533,8.533C307.2,149.779,303.38,153.6,298.667,153.6z"/>
		<path style="fill:#428DFF;" d="M375.467,187.733h-230.4c-4.713,0-8.533-3.82-8.533-8.533s3.821-8.533,8.533-8.533h230.4
			c4.713,0,8.533,3.821,8.533,8.533S380.18,187.733,375.467,187.733z"/>
	</g>
</g>
<g>
</g>
<g>
</g>
<g>
</g>
<g>
</g>
<g>
</g>
<g>
</g>
<g>
</g>
<g>
</g>
<g>
</g>
<g>
</g>
<g>
</g>
<g>
</g>
<g>
</g>
<g>
</g>
<g>
</g>
</svg>
