<?xml version="1.0" encoding="iso-8859-1"?>
<!-- Generator: Adobe Illustrator 19.0.0, SVG Export Plug-In . SVG Version: 6.00 Build 0)  -->
<svg version="1.1" id="Capa_1" xmlns="http://www.w3.org/2000/svg" xmlns:xlink="http://www.w3.org/1999/xlink" x="0px" y="0px"
	 viewBox="0 0 512 512" style="enable-background:new 0 0 512 512;" xml:space="preserve">
<g>
	<path style="fill:#A4C2F7;" d="M102.4,8.533V460.8c-0.069,23.536-19.131,42.598-42.667,42.667h392.533
		c11.293,0,22.124-4.486,30.109-12.472c7.985-7.985,12.472-18.816,12.472-30.109V8.533H102.4z"/>
	
		<linearGradient id="SVGID_1_" gradientUnits="userSpaceOnUse" x1="-48.8832" y1="652.6286" x2="-47.8503" y2="651.7918" gradientTransform="matrix(400.9806 0 0 -494.9333 19667.3105 323061.0313)">
		<stop  offset="0" style="stop-color:#D4E1F4"/>
		<stop  offset="0.1717" style="stop-color:#D4E1F4"/>
		<stop  offset="0.2" style="stop-color:#D4E1F4"/>
		<stop  offset="0.2001" style="stop-color:#DAE4F4"/>
		<stop  offset="0.2007" style="stop-color:#EBEBF4"/>
		<stop  offset="0.2014" style="stop-color:#F6F1F4"/>
		<stop  offset="0.2023" style="stop-color:#FDF4F4"/>
		<stop  offset="0.205" style="stop-color:#FFF5F4"/>
		<stop  offset="0.2522" style="stop-color:#FFF5F4"/>
		<stop  offset="0.26" style="stop-color:#FFF5F4"/>
		<stop  offset="0.26" style="stop-color:#D4E1F4"/>
		<stop  offset="0.3974" style="stop-color:#D4E1F4"/>
		<stop  offset="0.42" style="stop-color:#D4E1F4"/>
		<stop  offset="0.4201" style="stop-color:#DAE4F4"/>
		<stop  offset="0.4207" style="stop-color:#EBEBF4"/>
		<stop  offset="0.4214" style="stop-color:#F6F1F4"/>
		<stop  offset="0.4223" style="stop-color:#FDF4F4"/>
		<stop  offset="0.425" style="stop-color:#FFF5F4"/>
		<stop  offset="0.4894" style="stop-color:#FFF5F4"/>
		<stop  offset="0.5" style="stop-color:#FFF5F4"/>
		<stop  offset="0.5" style="stop-color:#F9F2F4"/>
		<stop  offset="0.5001" style="stop-color:#E8EBF4"/>
		<stop  offset="0.5003" style="stop-color:#DDE5F4"/>
		<stop  offset="0.5005" style="stop-color:#D6E2F4"/>
		<stop  offset="0.501" style="stop-color:#D4E1F4"/>
		<stop  offset="0.7062" style="stop-color:#D4E1F4"/>
		<stop  offset="0.74" style="stop-color:#D4E1F4"/>
		<stop  offset="0.741" style="stop-color:#FFF5F4"/>
		<stop  offset="0.8346" style="stop-color:#FFF5F4"/>
		<stop  offset="0.85" style="stop-color:#FFF5F4"/>
		<stop  offset="0.851" style="stop-color:#D4E1F4"/>
	</linearGradient>
	<path style="fill:url(#SVGID_1_);" d="M110.933,8.533V460.8c-0.069,23.536-19.131,42.598-42.667,42.667h358.4
		c11.293,0,22.124-4.486,30.109-12.472c7.985-7.985,12.472-18.816,12.472-30.109V8.533H110.933z"/>
	<path style="fill:#A4C2F7;" d="M17.067,264.533H102.4V460.8c0,11.316-4.495,22.168-12.497,30.17s-18.854,12.497-30.17,12.497l0,0
		c-23.564,0-42.667-19.103-42.667-42.667V264.533z"/>
	<rect x="204.8" y="42.667" style="fill:#7FACFA;" width="187.733" height="34.133"/>
	<rect x="204.8" y="42.667" style="fill:#A4C2F7;" width="162.133" height="34.133"/>
	<rect x="153.6" y="145.067" style="fill:#7FACFA;" width="102.4" height="102.4"/>
	<rect x="153.6" y="145.067" style="fill:#A4C2F7;" width="76.8" height="102.4"/>
	<rect x="341.333" y="349.867" style="fill:#7FACFA;" width="102.4" height="102.4"/>
	<rect x="341.333" y="349.867" style="fill:#A4C2F7;" width="76.8" height="102.4"/>
	<path style="fill:#FFFFFF;" d="M17.067,264.533h25.6v230.4h-7.706c-4.746,0-9.297-1.885-12.653-5.241
		c-3.356-3.356-5.241-7.907-5.241-12.653V264.533z"/>
	<g>
		<path style="fill:#428DFF;" d="M59.733,512c-28.264-0.031-51.169-22.936-51.2-51.2V264.533c-0.001-2.264,0.897-4.435,2.498-6.035
			s3.772-2.499,6.035-2.498H102.4c2.264-0.001,4.435,0.897,6.035,2.498c1.601,1.601,2.499,3.772,2.498,6.035V460.8
			C110.902,489.064,87.998,511.969,59.733,512z M25.6,273.067V460.8c0,18.851,15.282,34.133,34.133,34.133
			s34.133-15.282,34.133-34.133V273.067H25.6z"/>
		<path style="fill:#428DFF;" d="M452.267,512H59.733c-4.713,0-8.533-3.82-8.533-8.533s3.821-8.533,8.533-8.533
			c18.844-0.019,34.115-15.29,34.133-34.133V8.533c-0.001-2.264,0.897-4.435,2.498-6.035C97.965,0.897,100.136-0.001,102.4,0h392.45
			c2.264-0.001,4.435,0.897,6.035,2.498c1.601,1.601,2.499,3.772,2.498,6.035v452.35C503.35,489.1,480.484,511.966,452.267,512z
			 M97.867,494.933h354.4c18.796-0.021,34.029-15.254,34.05-34.05V17.067H110.933V460.8
			C110.941,473.401,106.287,485.559,97.867,494.933z"/>
		<path style="fill:#428DFF;" d="M256,256H153.6c-2.264,0.001-4.435-0.897-6.035-2.498s-2.499-3.772-2.498-6.035v-102.4
			c-0.001-2.264,0.897-4.435,2.498-6.035s3.772-2.499,6.035-2.498H256c2.264-0.001,4.435,0.897,6.035,2.498s2.499,3.772,2.498,6.035
			v102.4c0.001,2.264-0.897,4.435-2.498,6.035S258.264,256.001,256,256z M162.133,238.933h85.333V153.6h-85.333V238.933z"/>
		<path style="fill:#428DFF;" d="M443.733,153.6H307.2c-4.713,0-8.533-3.821-8.533-8.533c0-4.713,3.82-8.533,8.533-8.533h136.533
			c4.713,0,8.533,3.821,8.533,8.533C452.267,149.779,448.446,153.6,443.733,153.6z"/>
		<path style="fill:#428DFF;" d="M443.733,204.8H307.2c-4.713,0-8.533-3.821-8.533-8.533s3.82-8.533,8.533-8.533h136.533
			c4.713,0,8.533,3.821,8.533,8.533S448.446,204.8,443.733,204.8z"/>
		<path style="fill:#428DFF;" d="M443.733,256H307.2c-4.713,0-8.533-3.82-8.533-8.533c0-4.713,3.82-8.533,8.533-8.533h136.533
			c4.713,0,8.533,3.821,8.533,8.533C452.267,252.18,448.446,256,443.733,256z"/>
		<path style="fill:#428DFF;" d="M443.733,307.2h-281.6c-4.713,0-8.533-3.82-8.533-8.533s3.821-8.533,8.533-8.533h281.6
			c4.713,0,8.533,3.82,8.533,8.533S448.446,307.2,443.733,307.2z"/>
		<path style="fill:#428DFF;" d="M290.133,358.4h-128c-4.713,0-8.533-3.821-8.533-8.533c0-4.713,3.821-8.533,8.533-8.533h128
			c4.713,0,8.533,3.821,8.533,8.533C298.667,354.579,294.846,358.4,290.133,358.4z"/>
		<path style="fill:#428DFF;" d="M290.133,409.6h-128c-4.713,0-8.533-3.821-8.533-8.533s3.821-8.533,8.533-8.533h128
			c4.713,0,8.533,3.82,8.533,8.533S294.846,409.6,290.133,409.6z"/>
		<path style="fill:#428DFF;" d="M290.133,460.8h-128c-4.713,0-8.533-3.82-8.533-8.533s3.821-8.533,8.533-8.533h128
			c4.713,0,8.533,3.82,8.533,8.533S294.846,460.8,290.133,460.8z"/>
		<path style="fill:#428DFF;" d="M443.733,460.8h-102.4c-2.264,0.001-4.435-0.897-6.035-2.498c-1.601-1.601-2.499-3.772-2.498-6.035
			v-102.4c-0.001-2.264,0.897-4.435,2.498-6.035c1.601-1.601,3.772-2.499,6.035-2.498h102.4c2.264-0.001,4.435,0.897,6.035,2.498
			c1.601,1.601,2.499,3.772,2.498,6.035v102.4c0.001,2.264-0.897,4.435-2.498,6.035C448.168,459.903,445.997,460.801,443.733,460.8z
			 M349.867,443.733H435.2V358.4h-85.333V443.733z"/>
		<path style="fill:#428DFF;" d="M494.933,119.467H102.4c-4.713,0-8.533-3.821-8.533-8.533c0-4.713,3.821-8.533,8.533-8.533h392.533
			c4.713,0,8.533,3.821,8.533,8.533C503.467,115.646,499.646,119.467,494.933,119.467z"/>
		<path style="fill:#428DFF;" d="M392.533,85.333H204.8c-2.264,0.001-4.435-0.897-6.035-2.498c-1.601-1.601-2.499-3.772-2.498-6.035
			V42.667c-0.001-2.264,0.897-4.435,2.498-6.035c1.601-1.601,3.772-2.499,6.035-2.498h187.733c2.264-0.001,4.435,0.897,6.035,2.498
			c1.601,1.601,2.499,3.772,2.498,6.035V76.8c0.001,2.264-0.897,4.435-2.498,6.035C396.968,84.436,394.797,85.335,392.533,85.333
			L392.533,85.333z M213.333,68.267H384V51.2H213.333V68.267z"/>
	</g>
</g>
<g>
</g>
<g>
</g>
<g>
</g>
<g>
</g>
<g>
</g>
<g>
</g>
<g>
</g>
<g>
</g>
<g>
</g>
<g>
</g>
<g>
</g>
<g>
</g>
<g>
</g>
<g>
</g>
<g>
</g>
</svg>
