<?xml version="1.0" encoding="iso-8859-1"?>
<!-- Generator: Adobe Illustrator 19.0.0, SVG Export Plug-In . SVG Version: 6.00 Build 0)  -->
<svg version="1.1" id="Capa_1" xmlns="http://www.w3.org/2000/svg" xmlns:xlink="http://www.w3.org/1999/xlink" x="0px" y="0px"
	 viewBox="0 0 512 512" style="enable-background:new 0 0 512 512;" xml:space="preserve">
<g>
	<path style="fill:#A4C2F7;" d="M388.267,102.4H176.139c-4.846,0-9.494,1.925-12.92,5.352c-3.427,3.427-5.352,8.074-5.352,12.92
		V153.6h177.995c4.846,0,9.494,1.925,12.92,5.352c3.427,3.427,5.352,8.074,5.352,12.92v15.861h34.133l42.667-42.667L388.267,102.4z"
		/>
	<path style="fill:#FFFFFF;" d="M176.139,102.4c-4.846,0-9.494,1.925-12.92,5.352c-3.427,3.427-5.352,8.074-5.352,12.92V153.6H243.2
		l1.205-51.2H176.139z"/>
	
		<linearGradient id="SVGID_1_" gradientUnits="userSpaceOnUse" x1="-48.6052" y1="651.6584" x2="-48.0303" y2="650.2211" gradientTransform="matrix(213.3333 0 0 -85.3333 10587.7979 55686.0703)">
		<stop  offset="0" style="stop-color:#D4E1F4"/>
		<stop  offset="0.1717" style="stop-color:#D4E1F4"/>
		<stop  offset="0.2" style="stop-color:#D4E1F4"/>
		<stop  offset="0.2001" style="stop-color:#DAE4F4"/>
		<stop  offset="0.2007" style="stop-color:#EBEBF4"/>
		<stop  offset="0.2014" style="stop-color:#F6F1F4"/>
		<stop  offset="0.2023" style="stop-color:#FDF4F4"/>
		<stop  offset="0.205" style="stop-color:#FFF5F4"/>
		<stop  offset="0.2522" style="stop-color:#FFF5F4"/>
		<stop  offset="0.26" style="stop-color:#FFF5F4"/>
		<stop  offset="0.26" style="stop-color:#D4E1F4"/>
		<stop  offset="0.3974" style="stop-color:#D4E1F4"/>
		<stop  offset="0.42" style="stop-color:#D4E1F4"/>
		<stop  offset="0.4201" style="stop-color:#DAE4F4"/>
		<stop  offset="0.4207" style="stop-color:#EBEBF4"/>
		<stop  offset="0.4214" style="stop-color:#F6F1F4"/>
		<stop  offset="0.4223" style="stop-color:#FDF4F4"/>
		<stop  offset="0.425" style="stop-color:#FFF5F4"/>
		<stop  offset="0.4894" style="stop-color:#FFF5F4"/>
		<stop  offset="0.5" style="stop-color:#FFF5F4"/>
		<stop  offset="0.5" style="stop-color:#F9F2F4"/>
		<stop  offset="0.5001" style="stop-color:#E8EBF4"/>
		<stop  offset="0.5003" style="stop-color:#DDE5F4"/>
		<stop  offset="0.5005" style="stop-color:#D6E2F4"/>
		<stop  offset="0.501" style="stop-color:#D4E1F4"/>
		<stop  offset="0.7062" style="stop-color:#D4E1F4"/>
		<stop  offset="0.74" style="stop-color:#D4E1F4"/>
		<stop  offset="0.741" style="stop-color:#FFF5F4"/>
		<stop  offset="0.8346" style="stop-color:#FFF5F4"/>
		<stop  offset="0.85" style="stop-color:#FFF5F4"/>
		<stop  offset="0.851" style="stop-color:#D4E1F4"/>
	</linearGradient>
	<path style="fill:url(#SVGID_1_);" d="M354.133,102.4H201.739c-4.846,0-9.494,1.925-12.92,5.352
		c-3.427,3.427-5.352,8.074-5.352,12.92V153.6h126.795c10.091,0,43.872-1.558,35.339,8.533l8.533,25.6l42.667-42.667L354.133,102.4z
		"/>
	<circle style="fill:#A4C2F7;" cx="251.733" cy="42.667" r="34.133"/>
	<path style="fill:#E3E7F2;" d="M236.532,10.319c-0.017,2.302-0.959,4.501-2.614,6.102s-3.883,2.47-6.185,2.411
		c-0.542-0.058-1.078-0.167-1.6-0.325V67.79c3.893,0.867,6.631,4.364,6.539,8.352c15.284-2.937,26.625-15.873,27.536-31.41
		S251.368,15.021,236.532,10.319z"/>
	<path style="fill:#FFFFFF;" d="M123.733,238.933H243.2c10.091,0,18.272-8.181,18.272-18.272v-48.79
		c0-10.091-8.181-18.272-18.272-18.272H123.733l-42.667,42.667L123.733,238.933z"/>
	<path style="fill:#A4C2F7;" d="M209.067,238.933h126.795c4.846,0,9.494-1.925,12.92-5.352c3.427-3.427,5.352-8.074,5.352-12.92
		v-48.79c0-4.846-1.925-9.494-5.352-12.92c-3.427-3.427-8.074-5.352-12.92-5.352H209.067V238.933z"/>
	
		<linearGradient id="SVGID_2_" gradientUnits="userSpaceOnUse" x1="-48.5234" y1="651.6911" x2="-47.9485" y2="650.2538" gradientTransform="matrix(213.3333 0 0 -85.3333 10519.5313 55737.2695)">
		<stop  offset="0" style="stop-color:#D4E1F4"/>
		<stop  offset="0.1717" style="stop-color:#D4E1F4"/>
		<stop  offset="0.2" style="stop-color:#D4E1F4"/>
		<stop  offset="0.2001" style="stop-color:#DAE4F4"/>
		<stop  offset="0.2007" style="stop-color:#EBEBF4"/>
		<stop  offset="0.2014" style="stop-color:#F6F1F4"/>
		<stop  offset="0.2023" style="stop-color:#FDF4F4"/>
		<stop  offset="0.205" style="stop-color:#FFF5F4"/>
		<stop  offset="0.2522" style="stop-color:#FFF5F4"/>
		<stop  offset="0.26" style="stop-color:#FFF5F4"/>
		<stop  offset="0.26" style="stop-color:#D4E1F4"/>
		<stop  offset="0.3974" style="stop-color:#D4E1F4"/>
		<stop  offset="0.42" style="stop-color:#D4E1F4"/>
		<stop  offset="0.4201" style="stop-color:#DAE4F4"/>
		<stop  offset="0.4207" style="stop-color:#EBEBF4"/>
		<stop  offset="0.4214" style="stop-color:#F6F1F4"/>
		<stop  offset="0.4223" style="stop-color:#FDF4F4"/>
		<stop  offset="0.425" style="stop-color:#FFF5F4"/>
		<stop  offset="0.4894" style="stop-color:#FFF5F4"/>
		<stop  offset="0.5" style="stop-color:#FFF5F4"/>
		<stop  offset="0.5" style="stop-color:#F9F2F4"/>
		<stop  offset="0.5001" style="stop-color:#E8EBF4"/>
		<stop  offset="0.5003" style="stop-color:#DDE5F4"/>
		<stop  offset="0.5005" style="stop-color:#D6E2F4"/>
		<stop  offset="0.501" style="stop-color:#D4E1F4"/>
		<stop  offset="0.7062" style="stop-color:#D4E1F4"/>
		<stop  offset="0.74" style="stop-color:#D4E1F4"/>
		<stop  offset="0.741" style="stop-color:#FFF5F4"/>
		<stop  offset="0.8346" style="stop-color:#FFF5F4"/>
		<stop  offset="0.85" style="stop-color:#FFF5F4"/>
		<stop  offset="0.851" style="stop-color:#D4E1F4"/>
	</linearGradient>
	<path style="fill:url(#SVGID_2_);" d="M157.867,238.933h152.395c4.846,0,9.494-1.925,12.92-5.352
		c3.427-3.427,5.352-8.074,5.352-12.92v-48.79c0-4.846-1.925-9.494-5.352-12.92c-3.427-3.427-8.074-5.352-12.92-5.352H157.867
		L115.2,196.267L157.867,238.933z"/>
	<g>
		<rect x="217.6" y="469.333" style="fill:#7FACFA;" width="102.4" height="34.133"/>
		<rect x="243.2" y="435.2" style="fill:#7FACFA;" width="51.2" height="34.133"/>
	</g>
	<g>
		<rect x="209.067" y="435.2" style="fill:#FFFFFF;" width="51.2" height="34.133"/>
		<rect x="183.467" y="469.333" style="fill:#FFFFFF;" width="51.2" height="34.133"/>
	</g>
	<g>
		<rect x="234.667" y="435.2" style="fill:#A4C2F7;" width="34.133" height="34.133"/>
		<rect x="209.067" y="469.333" style="fill:#A4C2F7;" width="85.333" height="34.133"/>
	</g>
	<g>
		<path style="fill:#428DFF;" d="M251.733,443.733c-2.263,0.001-4.434-0.898-6.035-2.499c-1.6-1.6-2.499-3.771-2.499-6.035V238.933
			c0-4.713,3.821-8.533,8.533-8.533c4.713,0,8.533,3.821,8.533,8.533V435.2c0.001,2.263-0.898,4.434-2.499,6.035
			S253.997,443.734,251.733,443.733z"/>
		<path style="fill:#428DFF;" d="M251.733,85.333c-23.564,0-42.667-19.103-42.667-42.667S228.169,0,251.733,0
			S294.4,19.103,294.4,42.667C294.372,66.219,275.286,85.306,251.733,85.333L251.733,85.333z M251.733,17.067
			c-14.139,0-25.6,11.462-25.6,25.6s11.462,25.6,25.6,25.6s25.6-11.462,25.6-25.6C277.318,28.535,265.865,17.082,251.733,17.067
			L251.733,17.067z"/>
		<path style="fill:#428DFF;" d="M320,512H183.467c-2.263,0.001-4.434-0.898-6.035-2.499c-1.6-1.6-2.499-3.771-2.499-6.035v-34.133
			c-0.001-2.263,0.898-4.434,2.499-6.035s3.771-2.499,6.035-2.499H320c2.263-0.001,4.434,0.898,6.035,2.499
			c1.6,1.6,2.499,3.771,2.499,6.035v34.133c0.001,2.263-0.898,4.434-2.499,6.035C324.434,511.102,322.263,512.001,320,512z
			 M192,494.933h119.467v-17.067H192V494.933z"/>
		<path style="fill:#428DFF;" d="M294.4,477.867h-85.333c-2.263,0.001-4.434-0.898-6.035-2.499c-1.6-1.6-2.499-3.771-2.499-6.035
			V435.2c-0.001-2.263,0.898-4.434,2.499-6.035c1.6-1.6,3.771-2.499,6.035-2.499H294.4c2.263-0.001,4.434,0.898,6.035,2.499
			c1.6,1.6,2.499,3.771,2.499,6.035v34.133c0.001,2.263-0.898,4.434-2.499,6.035C298.834,476.968,296.663,477.867,294.4,477.867
			L294.4,477.867z M217.6,460.8h68.267v-17.067H217.6V460.8z"/>
		<path style="fill:#428DFF;" d="M335.863,247.467H123.733c-2.263-0.001-4.433-0.9-6.033-2.5L75.034,202.3
			c-1.601-1.6-2.5-3.77-2.5-6.033c0-2.263,0.899-4.433,2.5-6.033l42.667-42.667c1.6-1.6,3.77-2.499,6.033-2.5h212.129
			c14.798,0.018,26.789,12.011,26.804,26.808v48.783C362.651,235.456,350.66,247.449,335.863,247.467z M127.267,230.4h208.596
			c5.377-0.005,9.734-4.364,9.737-9.742v-48.783c-0.003-5.377-4.36-9.736-9.737-9.742H127.267l-34.133,34.133L127.267,230.4z"/>
		<path style="fill:#428DFF;" d="M251.733,110.933c-2.263,0.001-4.434-0.898-6.035-2.499c-1.6-1.6-2.499-3.771-2.499-6.035V76.8
			c0-4.713,3.821-8.533,8.533-8.533c4.713,0,8.533,3.821,8.533,8.533v25.6c0.001,2.263-0.898,4.434-2.499,6.035
			S253.997,110.934,251.733,110.933z"/>
		<path style="fill:#428DFF;" d="M388.267,196.267h-34.133c-2.263,0.001-4.434-0.898-6.035-2.499c-1.6-1.6-2.499-3.771-2.499-6.035
			v-15.858c-0.003-5.377-4.36-9.736-9.737-9.742H157.867c-2.263,0.001-4.434-0.898-6.035-2.499c-1.6-1.6-2.499-3.771-2.499-6.035
			v-32.925c0.015-14.798,12.006-26.791,26.804-26.808h212.129c2.263,0.001,4.433,0.9,6.033,2.5l42.667,42.667
			c1.601,1.6,2.5,3.77,2.5,6.033c0,2.263-0.899,4.433-2.5,6.033L394.3,193.767C392.7,195.367,390.53,196.266,388.267,196.267z
			 M362.667,179.2h22.067l34.133-34.133l-34.133-34.133H176.137c-5.377,0.006-9.734,4.364-9.737,9.742v24.392h169.463
			c14.798,0.018,26.789,12.011,26.804,26.808V179.2z"/>
	</g>
</g>
<g>
</g>
<g>
</g>
<g>
</g>
<g>
</g>
<g>
</g>
<g>
</g>
<g>
</g>
<g>
</g>
<g>
</g>
<g>
</g>
<g>
</g>
<g>
</g>
<g>
</g>
<g>
</g>
<g>
</g>
</svg>
