<?xml version="1.0" encoding="iso-8859-1"?>
<!-- Generator: Adobe Illustrator 19.0.0, SVG Export Plug-In . SVG Version: 6.00 Build 0)  -->
<svg version="1.1" id="Capa_1" xmlns="http://www.w3.org/2000/svg" xmlns:xlink="http://www.w3.org/1999/xlink" x="0px" y="0px"
	 viewBox="0 0 510.944 510.944" style="enable-background:new 0 0 510.944 510.944;" xml:space="preserve">
<g>
	<path style="fill:#A4C2F7;" d="M414.897,220.162h-220.69V61.265h220.69l86.514,77.862c0.45,0.405,0.706,0.981,0.706,1.586
		s-0.257,1.181-0.706,1.586L414.897,220.162z"/>
	<rect x="8.828" y="61.265" style="fill:#FFFFFF;" width="220.69" height="158.897"/>
	
		<linearGradient id="SVGID_1_" gradientUnits="userSpaceOnUse" x1="-48.774" y1="651.9042" x2="-48.1811" y2="650.2903" gradientTransform="matrix(432.5519 0 0 -158.8965 21181.3535 103597.8281)">
		<stop  offset="0" style="stop-color:#D4E1F4"/>
		<stop  offset="0.1717" style="stop-color:#D4E1F4"/>
		<stop  offset="0.2" style="stop-color:#D4E1F4"/>
		<stop  offset="0.2001" style="stop-color:#DAE4F4"/>
		<stop  offset="0.2007" style="stop-color:#EBEBF4"/>
		<stop  offset="0.2014" style="stop-color:#F6F1F4"/>
		<stop  offset="0.2023" style="stop-color:#FDF4F4"/>
		<stop  offset="0.205" style="stop-color:#FFF5F4"/>
		<stop  offset="0.2522" style="stop-color:#FFF5F4"/>
		<stop  offset="0.26" style="stop-color:#FFF5F4"/>
		<stop  offset="0.26" style="stop-color:#D4E1F4"/>
		<stop  offset="0.3974" style="stop-color:#D4E1F4"/>
		<stop  offset="0.42" style="stop-color:#D4E1F4"/>
		<stop  offset="0.4201" style="stop-color:#DAE4F4"/>
		<stop  offset="0.4207" style="stop-color:#EBEBF4"/>
		<stop  offset="0.4214" style="stop-color:#F6F1F4"/>
		<stop  offset="0.4223" style="stop-color:#FDF4F4"/>
		<stop  offset="0.425" style="stop-color:#FFF5F4"/>
		<stop  offset="0.4894" style="stop-color:#FFF5F4"/>
		<stop  offset="0.5" style="stop-color:#FFF5F4"/>
		<stop  offset="0.5" style="stop-color:#F9F2F4"/>
		<stop  offset="0.5001" style="stop-color:#E8EBF4"/>
		<stop  offset="0.5003" style="stop-color:#DDE5F4"/>
		<stop  offset="0.5005" style="stop-color:#D6E2F4"/>
		<stop  offset="0.501" style="stop-color:#D4E1F4"/>
		<stop  offset="0.7062" style="stop-color:#D4E1F4"/>
		<stop  offset="0.74" style="stop-color:#D4E1F4"/>
		<stop  offset="0.741" style="stop-color:#FFF5F4"/>
		<stop  offset="0.8346" style="stop-color:#FFF5F4"/>
		<stop  offset="0.85" style="stop-color:#FFF5F4"/>
		<stop  offset="0.851" style="stop-color:#D4E1F4"/>
	</linearGradient>
	<path style="fill:url(#SVGID_1_);" d="M380.642,220.162H35.31V61.265h345.332l86.514,77.862c0.45,0.405,0.706,0.981,0.706,1.586
		s-0.257,1.181-0.706,1.586L380.642,220.162z"/>
	<g>
		<path style="fill:#428DFF;" d="M220.69,70.084c-2.341,0.001-4.587-0.929-6.243-2.585s-2.585-3.901-2.585-6.243V17.127
			c0-4.875,3.952-8.828,8.828-8.828s8.828,3.952,8.828,8.828v44.129c0.001,2.341-0.929,4.587-2.585,6.243
			C225.277,69.155,223.031,70.085,220.69,70.084z"/>
		<path style="fill:#428DFF;" d="M220.69,502.645c-2.341,0.001-4.587-0.929-6.243-2.585c-1.656-1.656-2.585-3.901-2.585-6.243
			V220.162c0-4.875,3.952-8.828,8.828-8.828s8.828,3.952,8.828,8.828v273.655c0.001,2.341-0.929,4.587-2.585,6.243
			C225.277,501.715,223.031,502.645,220.69,502.645z"/>
		<path style="fill:#428DFF;" d="M414.897,228.989H8.828c-2.341,0.001-4.587-0.929-6.243-2.585
			c-1.656-1.656-2.585-3.901-2.585-6.243V61.265c-0.001-2.341,0.929-4.587,2.585-6.243s3.901-2.585,6.243-2.585h406.069
			c2.181,0.001,4.284,0.809,5.906,2.267l86.513,77.862c2.313,2.081,3.632,5.048,3.629,8.159c-0.003,3.112-1.329,6.075-3.647,8.151
			l-86.495,77.845C419.181,228.181,417.077,228.988,414.897,228.989z M17.655,211.334h393.853l78.465-70.621l-78.465-70.621H17.655
			V211.334z M495.496,145.679l0.026,0.026L495.496,145.679z M495.505,135.739l-0.026,0.018L495.505,135.739z"/>
	</g>
</g>
<g>
</g>
<g>
</g>
<g>
</g>
<g>
</g>
<g>
</g>
<g>
</g>
<g>
</g>
<g>
</g>
<g>
</g>
<g>
</g>
<g>
</g>
<g>
</g>
<g>
</g>
<g>
</g>
<g>
</g>
</svg>
