<?xml version="1.0" encoding="iso-8859-1"?>
<!-- Generator: Adobe Illustrator 19.0.0, SVG Export Plug-In . SVG Version: 6.00 Build 0)  -->
<svg version="1.1" id="Capa_1" xmlns="http://www.w3.org/2000/svg" xmlns:xlink="http://www.w3.org/1999/xlink" x="0px" y="0px"
	 viewBox="0 0 512 512" style="enable-background:new 0 0 512 512;" xml:space="preserve">
<g>
	<path style="fill:#FFFFFF;" d="M85.853,34.138c-11.294,0-20.45,9.156-20.451,20.45v95.632c0,11.295,9.156,20.451,20.451,20.451
		h150.216V34.138H85.853z"/>
	<path style="fill:#A4C2F7;" d="M414.321,170.671H265.053c-5.424,0-10.626-2.155-14.461-5.99s-5.99-9.037-5.99-14.461V54.588
		c0-11.295,9.156-20.451,20.451-20.451h149.268l74.338,66.904c0.386,0.348,0.607,0.843,0.607,1.363c0,0.52-0.221,1.015-0.607,1.363
		L414.321,170.671z"/>
	
		<linearGradient id="SVGID_1_" gradientUnits="userSpaceOnUse" x1="-47.3285" y1="652.2531" x2="-46.7502" y2="650.7108" gradientTransform="matrix(364.1297 0 0 -136.5333 17373.7324 89051.4063)">
		<stop  offset="0" style="stop-color:#D4E1F4"/>
		<stop  offset="0.1717" style="stop-color:#D4E1F4"/>
		<stop  offset="0.2" style="stop-color:#D4E1F4"/>
		<stop  offset="0.2001" style="stop-color:#DAE4F4"/>
		<stop  offset="0.2007" style="stop-color:#EBEBF4"/>
		<stop  offset="0.2014" style="stop-color:#F6F1F4"/>
		<stop  offset="0.2023" style="stop-color:#FDF4F4"/>
		<stop  offset="0.205" style="stop-color:#FFF5F4"/>
		<stop  offset="0.2522" style="stop-color:#FFF5F4"/>
		<stop  offset="0.26" style="stop-color:#FFF5F4"/>
		<stop  offset="0.26" style="stop-color:#D4E1F4"/>
		<stop  offset="0.3974" style="stop-color:#D4E1F4"/>
		<stop  offset="0.42" style="stop-color:#D4E1F4"/>
		<stop  offset="0.4201" style="stop-color:#DAE4F4"/>
		<stop  offset="0.4207" style="stop-color:#EBEBF4"/>
		<stop  offset="0.4214" style="stop-color:#F6F1F4"/>
		<stop  offset="0.4223" style="stop-color:#FDF4F4"/>
		<stop  offset="0.425" style="stop-color:#FFF5F4"/>
		<stop  offset="0.4894" style="stop-color:#FFF5F4"/>
		<stop  offset="0.5" style="stop-color:#FFF5F4"/>
		<stop  offset="0.5" style="stop-color:#F9F2F4"/>
		<stop  offset="0.5001" style="stop-color:#E8EBF4"/>
		<stop  offset="0.5003" style="stop-color:#DDE5F4"/>
		<stop  offset="0.5005" style="stop-color:#D6E2F4"/>
		<stop  offset="0.501" style="stop-color:#D4E1F4"/>
		<stop  offset="0.7062" style="stop-color:#D4E1F4"/>
		<stop  offset="0.74" style="stop-color:#D4E1F4"/>
		<stop  offset="0.741" style="stop-color:#FFF5F4"/>
		<stop  offset="0.8346" style="stop-color:#FFF5F4"/>
		<stop  offset="0.85" style="stop-color:#FFF5F4"/>
		<stop  offset="0.851" style="stop-color:#D4E1F4"/>
	</linearGradient>
	<path style="fill:url(#SVGID_1_);" d="M380.188,170.671H111.453c-5.424,0-10.626-2.155-14.461-5.99
		c-3.835-3.835-5.99-9.037-5.99-14.461V54.588c0-5.424,2.155-10.626,5.99-14.461c3.835-3.835,9.037-5.99,14.461-5.99h268.735
		l74.338,66.904c0.386,0.348,0.607,0.843,0.607,1.363c0,0.52-0.221,1.015-0.607,1.363L380.188,170.671z"/>
	<path style="fill:#A4C2F7;" d="M428.952,341.333c11.294,0,20.45-9.156,20.451-20.45v-95.632c0-11.295-9.156-20.451-20.451-20.451
		H278.736v136.533H428.952z"/>
	<path style="fill:#FFFFFF;" d="M100.484,204.8h149.268c11.295,0,20.451,9.156,20.451,20.451v95.632
		c0,11.295-9.156,20.451-20.451,20.451H100.484l-74.338-66.904c-0.386-0.348-0.607-0.843-0.607-1.363s0.221-1.015,0.607-1.363
		L100.484,204.8z"/>
	
		<linearGradient id="SVGID_2_" gradientUnits="userSpaceOnUse" x1="-47.1948" y1="652.3033" x2="-46.6165" y2="650.7609" gradientTransform="matrix(364.1297 0 0 -136.5333 17342.4023 89222.0703)">
		<stop  offset="0" style="stop-color:#D4E1F4"/>
		<stop  offset="0.1717" style="stop-color:#D4E1F4"/>
		<stop  offset="0.2" style="stop-color:#D4E1F4"/>
		<stop  offset="0.2001" style="stop-color:#DAE4F4"/>
		<stop  offset="0.2007" style="stop-color:#EBEBF4"/>
		<stop  offset="0.2014" style="stop-color:#F6F1F4"/>
		<stop  offset="0.2023" style="stop-color:#FDF4F4"/>
		<stop  offset="0.205" style="stop-color:#FFF5F4"/>
		<stop  offset="0.2522" style="stop-color:#FFF5F4"/>
		<stop  offset="0.26" style="stop-color:#FFF5F4"/>
		<stop  offset="0.26" style="stop-color:#D4E1F4"/>
		<stop  offset="0.3974" style="stop-color:#D4E1F4"/>
		<stop  offset="0.42" style="stop-color:#D4E1F4"/>
		<stop  offset="0.4201" style="stop-color:#DAE4F4"/>
		<stop  offset="0.4207" style="stop-color:#EBEBF4"/>
		<stop  offset="0.4214" style="stop-color:#F6F1F4"/>
		<stop  offset="0.4223" style="stop-color:#FDF4F4"/>
		<stop  offset="0.425" style="stop-color:#FFF5F4"/>
		<stop  offset="0.4894" style="stop-color:#FFF5F4"/>
		<stop  offset="0.5" style="stop-color:#FFF5F4"/>
		<stop  offset="0.5" style="stop-color:#F9F2F4"/>
		<stop  offset="0.5001" style="stop-color:#E8EBF4"/>
		<stop  offset="0.5003" style="stop-color:#DDE5F4"/>
		<stop  offset="0.5005" style="stop-color:#D6E2F4"/>
		<stop  offset="0.501" style="stop-color:#D4E1F4"/>
		<stop  offset="0.7062" style="stop-color:#D4E1F4"/>
		<stop  offset="0.74" style="stop-color:#D4E1F4"/>
		<stop  offset="0.741" style="stop-color:#FFF5F4"/>
		<stop  offset="0.8346" style="stop-color:#FFF5F4"/>
		<stop  offset="0.85" style="stop-color:#FFF5F4"/>
		<stop  offset="0.851" style="stop-color:#D4E1F4"/>
	</linearGradient>
	<path style="fill:url(#SVGID_2_);" d="M134.617,204.8h268.735c11.295,0,20.451,9.156,20.451,20.451v95.632
		c0,11.295-9.156,20.451-20.451,20.451H134.617l-74.338-66.904c-0.386-0.348-0.607-0.843-0.607-1.363s0.221-1.015,0.607-1.363
		L134.617,204.8z"/>
	<g>
		<path style="fill:#428DFF;" d="M244.602,42.667c-2.263,0.001-4.434-0.898-6.035-2.499c-1.6-1.6-2.499-3.771-2.499-6.035v-25.6
			c0-4.713,3.821-8.533,8.533-8.533c4.713,0,8.533,3.821,8.533,8.533v25.6c0.001,2.263-0.898,4.434-2.499,6.035
			C249.037,41.768,246.866,42.667,244.602,42.667z"/>
		<path style="fill:#428DFF;" d="M244.602,512c-2.263,0.001-4.434-0.898-6.035-2.499c-1.6-1.6-2.499-3.771-2.499-6.035V341.333
			c0-4.713,3.821-8.533,8.533-8.533c4.713,0,8.533,3.82,8.533,8.533v162.133c0.001,2.263-0.898,4.434-2.499,6.035
			C249.037,511.102,246.866,512.001,244.602,512L244.602,512z"/>
		<path style="fill:#428DFF;" d="M414.319,179.209H85.852c-16.002-0.021-28.967-12.99-28.983-28.992V54.592
			c0.017-16,12.983-28.967,28.983-28.983h328.467c2.108,0.001,4.141,0.782,5.709,2.192l74.337,66.9
			c2.19,1.969,3.438,4.777,3.433,7.722c-0.005,2.945-1.262,5.749-3.458,7.711l-74.312,66.883
			C418.46,178.427,416.427,179.207,414.319,179.209L414.319,179.209z M85.852,42.675c-6.579,0.006-11.911,5.338-11.917,11.916
			v95.625c0.005,6.581,5.336,11.915,11.917,11.925h325.192l66.371-59.733l-66.371-59.733H85.852z M482.936,107.375l0.037,0.033
			L482.936,107.375z M482.948,97.425l-0.042,0.033L482.948,97.425z"/>
		<path style="fill:#428DFF;" d="M428.952,349.867H97.681c-2.108-0.001-4.141-0.782-5.708-2.192l-74.338-66.9
			c-2.184-1.965-3.432-4.764-3.433-7.702c-0.002-2.938,1.243-5.739,3.425-7.706l74.346-66.908c1.567-1.41,3.6-2.191,5.709-2.192
			h331.271c16,0.017,28.966,12.983,28.983,28.983v95.633C457.919,336.883,444.953,349.85,428.952,349.867z M100.957,332.8h327.996
			c6.579-0.006,11.911-5.338,11.917-11.917V225.25c-0.006-6.579-5.338-11.911-11.917-11.917H100.956l-66.375,59.733L100.957,332.8z"
			/>
		<path style="fill:#428DFF;" d="M244.602,213.333c-2.263,0.001-4.434-0.898-6.035-2.499s-2.499-3.771-2.499-6.035v-34.125
			c0-4.713,3.821-8.533,8.533-8.533c4.713,0,8.533,3.82,8.533,8.533V204.8c0.001,2.263-0.898,4.434-2.499,6.035
			C249.037,212.435,246.866,213.334,244.602,213.333z"/>
	</g>
</g>
<g>
</g>
<g>
</g>
<g>
</g>
<g>
</g>
<g>
</g>
<g>
</g>
<g>
</g>
<g>
</g>
<g>
</g>
<g>
</g>
<g>
</g>
<g>
</g>
<g>
</g>
<g>
</g>
<g>
</g>
</svg>
