<?xml version="1.0" encoding="iso-8859-1"?>
<!-- Generator: Adobe Illustrator 19.0.0, SVG Export Plug-In . SVG Version: 6.00 Build 0)  -->
<svg version="1.1" id="Capa_1" xmlns="http://www.w3.org/2000/svg" xmlns:xlink="http://www.w3.org/1999/xlink" x="0px" y="0px"
	 viewBox="0 0 512 512" style="enable-background:new 0 0 512 512;" xml:space="preserve">
<g>
	<circle style="fill:#A4C2F7;" cx="256" cy="130.169" r="121.492"/>
	<ellipse style="fill:#E3E7F2;" cx="242.983" cy="130.169" rx="108.475" ry="121.492"/>
	<circle style="fill:#A4C2F7;" cx="212.61" cy="95.458" r="26.034"/>
	<path style="fill:#FFFFFF;" d="M256,251.661c2.322,0,4.587-0.218,6.877-0.347c-57.035-3.585-102.334-56.368-102.334-121.144
		S205.841,12.61,262.877,9.025c-2.29-0.129-4.555-0.347-6.877-0.347c-67.098,0-121.492,54.394-121.492,121.492
		S188.902,251.661,256,251.661L256,251.661z"/>
	<g>
		<path style="fill:#428DFF;" d="M256,260.339c-71.891,0-130.169-58.279-130.169-130.169S184.109,0,256,0
			s130.169,58.279,130.169,130.169C386.09,202.027,327.857,260.259,256,260.339z M256,17.356
			c-62.305,0-112.814,50.508-112.814,112.814S193.695,242.983,256,242.983s112.814-50.508,112.814-112.814
			C368.743,67.894,318.276,17.426,256,17.356z"/>
		<path style="fill:#428DFF;" d="M212.61,130.169c-19.171,0-34.712-15.541-34.712-34.712s15.541-34.712,34.712-34.712
			s34.712,15.541,34.712,34.712C247.302,114.62,231.773,130.149,212.61,130.169L212.61,130.169z M212.61,78.102
			c-9.585,0-17.356,7.771-17.356,17.356s7.771,17.356,17.356,17.356s17.356-7.771,17.356-17.356
			C229.955,85.877,222.191,78.113,212.61,78.102L212.61,78.102z"/>
		<path style="fill:#428DFF;" d="M256,512c-2.302,0.001-4.509-0.914-6.137-2.541c-1.628-1.628-2.542-3.835-2.541-6.137V251.661
			c0-4.793,3.885-8.678,8.678-8.678c4.793,0,8.678,3.885,8.678,8.678v251.661c0.001,2.302-0.914,4.509-2.541,6.137
			C260.509,511.086,258.302,512.001,256,512L256,512z"/>
	</g>
</g>
<g>
</g>
<g>
</g>
<g>
</g>
<g>
</g>
<g>
</g>
<g>
</g>
<g>
</g>
<g>
</g>
<g>
</g>
<g>
</g>
<g>
</g>
<g>
</g>
<g>
</g>
<g>
</g>
<g>
</g>
</svg>
