<?xml version="1.0" encoding="iso-8859-1"?>
<!-- Generator: Adobe Illustrator 19.0.0, SVG Export Plug-In . SVG Version: 6.00 Build 0)  -->
<svg version="1.1" id="Capa_1" xmlns="http://www.w3.org/2000/svg" xmlns:xlink="http://www.w3.org/1999/xlink" x="0px" y="0px"
	 viewBox="0 0 512 512" style="enable-background:new 0 0 512 512;" xml:space="preserve">
<g>
	<path style="fill:#A4C2F7;" d="M256.017,502.519L118.144,303.407c-51.459-68.613-44.636-182.803,16.009-243.448l0,0
		c67.303-67.303,176.424-67.303,243.727,0l0,0c60.646,60.645,67.469,174.836,16.01,243.448L256.017,502.519z"/>
	<path style="fill:#E3E7F2;" d="M349.437,59.958L349.437,59.958c-34.7-34.656-82.579-52.796-131.532-49.835
		c-0.525,1.943-1.7,3.648-3.328,4.832c-10.622,8.186-23.266,13.335-36.585,14.898c-5.888,1.069-11.635,2.807-17.129,5.181
		c-2.94,12.441-9.671,23.662-19.263,32.114c-15.417,14.516-30.046,29.847-43.823,45.927c-1.392,3.322-2.602,6.718-3.624,10.171
		c-3.406,14.371-6.056,28.91-7.939,43.558c1.173,13.027,1.534,26.001,1.669,39.14c-0.849,11.211-0.804,22.472,0.135,33.676
		l0.012,0.023c0.501,1.373,0.862,2.626,1.296,3.938c21.129,46.433,45.679,91.232,73.446,134.028
		c22.753,32.826,61.995,69.081,76.713,107.708l125.962-181.91C416.905,234.794,410.082,120.604,349.437,59.958z"/>
	<circle style="fill:#7FACFA;" cx="257.694" cy="180.148" r="56.889"/>
	<ellipse style="fill:#A4C2F7;" cx="243.471" cy="180.148" rx="42.667" ry="56.889"/>
	<path style="fill:#FFFFFF;" d="M137.781,59.958L137.781,59.958c36.492-36.555,87.482-54.772,138.875-49.617
		c-41.637,2.487-80.921,20.137-110.43,49.617h-0.001c-60.645,60.646-67.469,174.836-16.009,243.449l123.651,178.572l-14.222,20.539
		L121.772,303.407C70.313,234.794,77.136,120.604,137.781,59.958z"/>
	<g>
		<path style="fill:#428DFF;" d="M257.694,246.519c-36.655,0-66.37-29.715-66.37-66.37s29.715-66.37,66.37-66.37
			s66.37,29.715,66.37,66.37C324.02,216.785,294.331,246.474,257.694,246.519z M257.694,132.741
			c-26.182,0-47.407,21.225-47.407,47.407s21.225,47.407,47.407,47.407s47.407-21.225,47.407-47.407
			C305.07,153.979,283.863,132.771,257.694,132.741L257.694,132.741z"/>
		<path style="fill:#428DFF;" d="M256.018,512c-3.111,0-6.025-1.526-7.796-4.083l-137.87-199.111
			c-54.352-72.444-46.454-192,17.102-255.546C161.549,19.158,207.796,0,256.018,0s94.469,19.158,128.565,53.259
			c63.556,63.546,71.454,183.102,16.889,255.833L263.814,507.917C262.042,510.474,259.129,512,256.018,512z M256.018,18.963
			c-43.216-0.116-84.683,17.061-115.157,47.704c-57.361,57.352-64.426,165.324-15.13,231.056l130.287,188.139l130.074-187.852
			c49.509-66.019,42.444-173.991-14.917-231.343C340.701,36.024,299.234,18.847,256.018,18.963z"/>
	</g>
</g>
<g>
</g>
<g>
</g>
<g>
</g>
<g>
</g>
<g>
</g>
<g>
</g>
<g>
</g>
<g>
</g>
<g>
</g>
<g>
</g>
<g>
</g>
<g>
</g>
<g>
</g>
<g>
</g>
<g>
</g>
</svg>
