<?xml version="1.0" encoding="iso-8859-1"?>
<!-- Generator: Adobe Illustrator 19.0.0, SVG Export Plug-In . SVG Version: 6.00 Build 0)  -->
<svg version="1.1" id="Capa_1" xmlns="http://www.w3.org/2000/svg" xmlns:xlink="http://www.w3.org/1999/xlink" x="0px" y="0px"
	 viewBox="0 0 500.748 500.748" style="enable-background:new 0 0 500.748 500.748;" xml:space="preserve">
<g>
	<path style="fill:#A4C2F7;" d="M351.477,98.85c-4.794-36.564-23.905-83.941-98.944-83.941S158.384,62.286,153.59,98.85
		c-2.399,20.087-1.379,40.436,3.018,60.182c13.864,69.825,45.968,134.735,93.047,188.133c0.745,0.797,1.788,1.25,2.879,1.25
		c1.091,0,2.134-0.453,2.879-1.25c47.079-53.398,79.182-118.308,93.047-188.133C352.856,139.286,353.877,118.937,351.477,98.85
		L351.477,98.85z"/>
	<path style="fill:#E3E7F2;" d="M324.678,98.85c-4.497-34.29-22.141-78.089-86.212-83.403c-0.997,4.112-4.828,6.894-9.046,6.568
		c-8.192-0.254-17.197,0.632-25.863,0.112c0.064,3.222-1.71,6.201-4.573,7.681c-6.195,2.674-12.468,5.165-18.416,8.372
		c-4.629,2.497-11.584,5.724-12.467,11.432c-0.435,2.268-1.828,4.237-3.82,5.404c-3.84,18.799-8.921,37.623-13.816,56.354
		c0.384,16.309,0.765,32.612,1.141,48.91c2.492-1.014,5.302-0.895,7.7,0.325c2.398,1.22,4.148,3.422,4.795,6.034
		c7.8,28.931,14.899,58.57,21.877,87.964c1.42,3.633,2.818,7.23,4.143,10.77c1.61,4.299,3.182,9.153,4.781,14.277
		c2.958-1.078,6.257-0.648,8.84,1.152s4.128,4.746,4.14,7.895v0.571c0.02,2.21-0.772,4.351-2.225,6.016
		c0.427,0.12,0.818,0.341,1.25,0.446c4.345,0.853,7.337,4.859,6.921,9.267c7.64,10.749,15.364,21.432,23.032,32.158
		c42.337-51.591,71.445-112.733,84.8-178.121C326.056,139.287,327.077,118.937,324.678,98.85z"/>
	
		<linearGradient id="SVGID_1_" gradientUnits="userSpaceOnUse" x1="-51.6203" y1="643.796" x2="-50.8982" y2="643.0563" gradientTransform="matrix(118.8786 0 0 -116.0335 6342.4287 74773.125)">
		<stop  offset="0" style="stop-color:#D4E1F4"/>
		<stop  offset="0.1717" style="stop-color:#D4E1F4"/>
		<stop  offset="0.2" style="stop-color:#D4E1F4"/>
		<stop  offset="0.2001" style="stop-color:#DAE4F4"/>
		<stop  offset="0.2007" style="stop-color:#EBEBF4"/>
		<stop  offset="0.2014" style="stop-color:#F6F1F4"/>
		<stop  offset="0.2023" style="stop-color:#FDF4F4"/>
		<stop  offset="0.205" style="stop-color:#FFF5F4"/>
		<stop  offset="0.2522" style="stop-color:#FFF5F4"/>
		<stop  offset="0.26" style="stop-color:#FFF5F4"/>
		<stop  offset="0.26" style="stop-color:#D4E1F4"/>
		<stop  offset="0.3974" style="stop-color:#D4E1F4"/>
		<stop  offset="0.42" style="stop-color:#D4E1F4"/>
		<stop  offset="0.4201" style="stop-color:#DAE4F4"/>
		<stop  offset="0.4207" style="stop-color:#EBEBF4"/>
		<stop  offset="0.4214" style="stop-color:#F6F1F4"/>
		<stop  offset="0.4223" style="stop-color:#FDF4F4"/>
		<stop  offset="0.425" style="stop-color:#FFF5F4"/>
		<stop  offset="0.4894" style="stop-color:#FFF5F4"/>
		<stop  offset="0.5" style="stop-color:#FFF5F4"/>
		<stop  offset="0.5" style="stop-color:#F9F2F4"/>
		<stop  offset="0.5001" style="stop-color:#E8EBF4"/>
		<stop  offset="0.5003" style="stop-color:#DDE5F4"/>
		<stop  offset="0.5005" style="stop-color:#D6E2F4"/>
		<stop  offset="0.501" style="stop-color:#D4E1F4"/>
		<stop  offset="0.7062" style="stop-color:#D4E1F4"/>
		<stop  offset="0.74" style="stop-color:#D4E1F4"/>
		<stop  offset="0.741" style="stop-color:#FFF5F4"/>
		<stop  offset="0.8346" style="stop-color:#FFF5F4"/>
		<stop  offset="0.85" style="stop-color:#FFF5F4"/>
		<stop  offset="0.851" style="stop-color:#D4E1F4"/>
	</linearGradient>
	<path style="fill:url(#SVGID_1_);" d="M252.533,56.124c-3.147,0.022-6.287,0.298-9.39,0.827c-2.354-0.527-4.757-0.804-7.169-0.827
		c-24.468,0-44.302,25.975-44.302,58.017s19.835,58.017,44.302,58.017c2.412-0.023,4.816-0.3,7.17-0.827
		c21.561,3.549,43.287-5.324,56.199-22.952s14.819-41.018,4.931-60.505C294.387,68.387,274.385,56.113,252.533,56.124
		L252.533,56.124z"/>
	<path style="fill:#FFFFFF;" d="M153.59,98.85c4.795-36.562,23.906-83.941,98.944-83.941c4.8,0,9.357,0.204,13.71,0.577
		c-63.77,5.451-81.367,49.139-85.855,83.364c-2.399,20.088-1.379,40.436,3.018,60.183c13.192,64.353,41.587,124.617,82.814,175.761
		c-4.656,5.664-8.435,9.856-10.809,12.37c-0.745,0.797-1.788,1.25-2.879,1.25c-1.091,0-2.134-0.452-2.879-1.25
		c-47.079-53.397-79.182-118.307-93.047-188.132C152.211,139.286,151.19,118.937,153.59,98.85L153.59,98.85z"/>
	<g>
		<path style="fill:#428DFF;" d="M491.607,494.981H9.143c-2.624-0.001-5.12-1.129-6.856-3.097c-1.735-1.968-2.542-4.586-2.216-7.189
			l33.42-265.143c0.578-4.571,4.464-7.998,9.071-8h91.429c5.049,0,9.143,4.093,9.143,9.143c0,5.049-4.093,9.143-9.143,9.143H50.625
			L19.509,476.696h461.92l-26.509-246.857h-83.214c-5.049,0-9.143-4.093-9.143-9.143c0-5.049,4.093-9.143,9.143-9.143h91.429
			c4.672,0,8.593,3.524,9.089,8.17l28.473,265.143c0.277,2.579-0.556,5.155-2.289,7.084
			C496.673,493.879,494.201,494.981,491.607,494.981z"/>
		<path style="fill:#428DFF;" d="M252.527,357.553c-3.599-0.008-7.039-1.489-9.518-4.098
			c-48.34-54.557-81.254-121.02-95.348-192.536c-4.612-20.758-5.672-42.147-3.134-63.259c7.884-60.116,45.232-91.893,108.009-91.893
			c62.786,0,100.134,31.777,108,91.893l0,0c2.545,21.111,1.488,42.501-3.125,63.259c-14.085,71.517-47,137.979-95.348,192.527
			C259.579,356.061,256.133,357.546,252.527,357.553L252.527,357.553z M252.536,24.053c-53.777,0-83.179,24.857-89.884,75.982
			c-2.26,19.066-1.279,38.377,2.902,57.116c13.451,66.226,43.365,127.998,86.982,179.616
			c43.625-51.613,73.54-113.387,86.982-179.616c4.182-18.739,5.161-38.051,2.893-57.116l0,0
			C335.714,48.91,306.321,24.053,252.536,24.053L252.536,24.053z"/>
		<path style="fill:#428DFF;" d="M252.536,181.303c-27.164,0-51.653-16.363-62.049-41.459
			c-10.395-25.096-4.649-53.983,14.559-73.191s48.095-24.954,73.191-14.559s41.46,34.884,41.46,62.048
			C319.657,151.217,289.611,181.263,252.536,181.303z M252.536,65.267c-19.768,0-37.59,11.908-45.155,30.171
			s-3.383,39.285,10.595,53.264c13.978,13.978,35,18.16,53.264,10.595s30.171-25.387,30.171-45.155
			C301.378,87.163,279.515,65.3,252.536,65.267L252.536,65.267z"/>
		<path style="fill:#428DFF;" d="M103.125,446.026c-2.346,0.003-4.69-0.14-7.018-0.429c-13.905-1.271-26.198-9.554-32.598-21.964
			c-2.823-6.557-3.997-13.706-3.419-20.821c1.143-23.366,17.402-49.196,42.625-51.973c8.701-1.367,17.53,1.514,23.75,7.75
			c2.208,2.411,2.961,5.817,1.975,8.934c-0.986,3.117-3.561,5.47-6.754,6.173c-3.193,0.703-6.518-0.353-8.721-2.768
			c-2.344-1.8-5.353-2.497-8.25-1.911c-15.312,1.679-25.607,19.312-26.357,34.687c-0.407,4.174,0.196,8.385,1.759,12.277
			c3.798,6.624,10.643,10.925,18.259,11.473c9.324,0.592,18.67-0.754,27.447-3.955c30.928-9.617,59.754-25.004,84.955-45.349
			c2.375-1.911,4.714-3.875,7.062-5.83c6.523-5.679,13.387-10.954,20.553-15.795c22.397-13.371,47.684-21.156,73.723-22.697
			c12.295-1.214,24.714-1.705,36.723-2.179c12.072-0.482,24.554-0.973,36.625-2.205c7.787-0.22,15.4-2.351,22.17-6.205
			c4.069-3.264,7.561-7.187,10.33-11.607c4.421-5.422,7.37-11.892,8.562-18.786c0.072-7.851-4.109-15.127-10.929-19.018
			c-7.679-4.101-16.677-4.972-25-2.42c-3.147,0.891-6.529,0.034-8.872-2.247s-3.29-5.64-2.484-8.809
			c0.806-3.169,3.243-5.667,6.392-6.551c13.122-3.952,27.287-2.409,39.25,4.277c12.76,7.42,20.405,21.257,19.893,36.009
			c-1.3,10.23-5.379,19.908-11.794,27.982c-3.947,6.21-8.966,11.669-14.822,16.125c-9.292,5.757-19.916,9.012-30.839,9.446
			c-12.643,1.286-25.411,1.795-37.759,2.277c-11.75,0.464-23.893,0.946-35.661,2.107c-23.138,1.208-45.636,8.017-65.562,19.839
			c-6.545,4.445-12.815,9.282-18.777,14.482c-2.42,2.027-4.848,4.054-7.303,6.036c-27.019,21.806-57.924,38.296-91.08,48.598
			C122.13,444.045,112.675,445.745,103.125,446.026L103.125,446.026z"/>
	</g>
</g>
<g>
</g>
<g>
</g>
<g>
</g>
<g>
</g>
<g>
</g>
<g>
</g>
<g>
</g>
<g>
</g>
<g>
</g>
<g>
</g>
<g>
</g>
<g>
</g>
<g>
</g>
<g>
</g>
<g>
</g>
</svg>
