<?xml version="1.0" encoding="iso-8859-1"?>
<!-- Generator: Adobe Illustrator 19.0.0, SVG Export Plug-In . SVG Version: 6.00 Build 0)  -->
<svg version="1.1" id="Capa_1" xmlns="http://www.w3.org/2000/svg" xmlns:xlink="http://www.w3.org/1999/xlink" x="0px" y="0px"
	 viewBox="0 0 504.139 504.139" style="enable-background:new 0 0 504.139 504.139;" xml:space="preserve">
<g>
	<polygon style="fill:#7FACFA;" points="193.051,264.66 176.264,398.955 248.398,343.726 	"/>
	<g>
		<path style="fill:#A4C2F7;" d="M232.074,331.143c-5.967-9.746-4.215-21.982-11.749-31.135c-6.15-6.23-12.91-11.827-20.178-16.708
			c-1.098,1.663-2.761,2.872-4.681,3.405c-0.939,0.236-1.912,0.311-2.876,0.221c1.901,11.039,1.706,22.338-0.575,33.305
			c-0.529,2.322-2.053,4.294-4.168,5.389c-0.09,0.21-0.137,0.416-0.244,0.627c-5.064,9.994-3.64,22.135-7.185,32.736
			c-2,5.978-3.995,11.901-5.658,17.91l58.211-44.565C232.643,331.956,232.343,331.56,232.074,331.143L232.074,331.143z"/>
		<polygon style="fill:#A4C2F7;" points="193.051,264.66 8.396,204.16 495.752,71.611 310.56,432.529 		"/>
	</g>
	<polygon style="fill:#E3E7F2;" points="184.658,264.66 8.396,205.906 470.035,80.004 293.773,407.348 	"/>
	<g>
		<path style="fill:#428DFF;" d="M310.56,440.922c-2.739-0.001-5.306-1.338-6.877-3.582L187.781,271.766l-182-59.631
			c-3.524-1.154-5.873-4.483-5.778-8.189c0.094-3.706,2.61-6.912,6.188-7.884L493.543,63.513c3.208-0.873,6.628,0.23,8.722,2.812
			s2.467,6.156,0.95,9.114L318.027,436.357c-1.342,2.619-3.957,4.345-6.893,4.549C310.937,440.914,310.748,440.922,310.56,440.922z
			 M37.633,204.906l158.033,51.779c1.726,0.566,3.222,1.676,4.262,3.164l109.525,156.459L479.6,84.701L37.633,204.906z"/>
		<path style="fill:#428DFF;" d="M193.06,273.053c-3.73,0.003-7.015-2.456-8.063-6.037c-1.047-3.58,0.394-7.422,3.538-9.43
			L490.699,64.537c3.907-2.494,9.096-1.349,11.59,2.557c2.494,3.907,1.349,9.096-2.557,11.59L197.568,271.734
			C196.223,272.597,194.658,273.055,193.06,273.053z"/>
		<path style="fill:#428DFF;" d="M176.264,407.348c-2.407,0-4.699-1.033-6.292-2.838c-1.593-1.805-2.335-4.207-2.036-6.596
			l16.787-134.295c0.429-3.446,2.937-6.272,6.307-7.108c3.371-0.836,6.908,0.491,8.897,3.337l55.344,79.066
			c2.575,3.683,1.795,8.74-1.771,11.475l-72.131,55.23C179.905,406.741,178.11,407.348,176.264,407.348L176.264,407.348z
			 M198.674,287.332l-11.598,92.771l49.828-38.156L198.674,287.332z"/>
	</g>
</g>
<g>
</g>
<g>
</g>
<g>
</g>
<g>
</g>
<g>
</g>
<g>
</g>
<g>
</g>
<g>
</g>
<g>
</g>
<g>
</g>
<g>
</g>
<g>
</g>
<g>
</g>
<g>
</g>
<g>
</g>
</svg>
