<?xml version="1.0" encoding="iso-8859-1"?>
<!-- Generator: Adobe Illustrator 19.0.0, SVG Export Plug-In . SVG Version: 6.00 Build 0)  -->
<svg version="1.1" id="Capa_1" xmlns="http://www.w3.org/2000/svg" xmlns:xlink="http://www.w3.org/1999/xlink" x="0px" y="0px"
	 viewBox="0 0 504.142 504.142" style="enable-background:new 0 0 504.142 504.142;" xml:space="preserve">
<g>
	<path style="fill:#EB7A0C;" d="M176.797,411.547l99.446-66.298"/>
	<g>
		<polygon style="fill:#A4C2F7;" points="210.371,302.432 176.797,411.547 276.243,345.247 		"/>
		<polygon style="fill:#A4C2F7;" points="210.371,302.432 177.334,411.547 151.617,268.858 495.748,92.596 		"/>
		<path style="fill:#A4C2F7;" d="M487.705,107.971c-3.004,0.098-5.814-1.481-7.293-4.098L210.371,302.432L378.24,411.547
			l112.037-304.098C489.45,107.75,488.583,107.926,487.705,107.971z"/>
	</g>
	<polygon style="fill:#E3E7F2;" points="445.387,126.17 210.371,302.432 361.453,394.76 462.174,117.776 	"/>
	<path style="fill:#FFFFFF;" d="M468.41,98.245L8.394,193.317l143.222,75.541l323.041-165.461
		C471.805,102.919,469.423,100.955,468.41,98.245z"/>
	<path style="fill:#E3E7F2;" d="M445.387,117.776L34.109,210.104l117.508,58.754l300.017-145.93
		C448.781,122.449,446.4,120.486,445.387,117.776z"/>
	<g>
		<path style="fill:#428DFF;" d="M378.24,419.94c-1.623,0.001-3.212-0.469-4.574-1.352L205.797,309.473
			c-2.312-1.501-3.74-4.041-3.82-6.796c-0.08-2.755,1.197-5.374,3.418-7.007l201.385-148.074l-251.336,128.73
			c-2.434,1.249-5.325,1.234-7.746-0.041L4.477,200.743c-3.134-1.654-4.892-5.097-4.394-8.605c0.498-3.508,3.145-6.326,6.615-7.042
			L493.895,84.407c3.357-0.756,6.835,0.612,8.779,3.451c0.177,0.251,0.336,0.514,0.475,0.787c0.785,1.46,1.116,3.121,0.951,4.771
			c-0.04,0.435-0.117,0.865-0.23,1.287c-0.076,0.3-0.169,0.596-0.279,0.885L386.117,414.448
			C384.904,417.75,381.758,419.944,378.24,419.94z M225.117,302.006l148.885,96.771l104.213-282.869L225.117,302.006z M32.994,196.8
			l118.68,62.598L436.83,113.342L32.994,196.8z"/>
		<path style="fill:#428DFF;" d="M176.805,419.94c-3.7,0.003-6.966-2.417-8.04-5.957c-1.074-3.541,0.297-7.367,3.376-9.42
			l99.443-66.295c2.495-1.689,5.704-1.911,8.408-0.582c2.704,1.329,4.488,4.005,4.675,7.012c0.187,3.007-1.253,5.884-3.771,7.537
			l-99.443,66.295C180.077,419.448,178.46,419.939,176.805,419.94L176.805,419.94z"/>
		<path style="fill:#428DFF;" d="M177.33,419.94c-0.156,0-0.32-0.008-0.484-0.017c-3.873-0.222-7.089-3.068-7.779-6.885
			l-25.713-142.689c-0.656-3.637,1.145-7.275,4.435-8.959L491.92,85.128c3.893-1.994,8.664-0.665,10.965,3.054
			c2.301,3.719,1.36,8.582-2.162,11.175L217.592,307.538l-32.229,106.442C184.292,417.521,181.028,419.942,177.33,419.94
			L177.33,419.94z M160.977,273.489l18.426,102.246l22.935-75.737c0.524-1.735,1.597-3.254,3.057-4.328l201.385-148.074
			L160.977,273.489z"/>
		<path style="fill:#428DFF;" d="M176.797,419.94c-2.664,0-5.169-1.264-6.752-3.406c-1.583-2.142-2.055-4.909-1.273-7.455
			l33.574-109.115c0.774-2.518,2.684-4.526,5.16-5.425c2.476-0.899,5.23-0.584,7.439,0.851l65.869,42.82
			c2.368,1.539,3.803,4.166,3.82,6.99c0.017,2.824-1.388,5.467-3.738,7.034l-99.443,66.295
			C180.075,419.451,178.454,419.942,176.797,419.94z M215.125,315.53l-23.377,75.959l69.229-46.147L215.125,315.53z"/>
	</g>
</g>
<g>
</g>
<g>
</g>
<g>
</g>
<g>
</g>
<g>
</g>
<g>
</g>
<g>
</g>
<g>
</g>
<g>
</g>
<g>
</g>
<g>
</g>
<g>
</g>
<g>
</g>
<g>
</g>
<g>
</g>
</svg>
