<?xml version="1.0" encoding="iso-8859-1"?>
<!-- Generator: Adobe Illustrator 19.0.0, SVG Export Plug-In . SVG Version: 6.00 Build 0)  -->
<svg version="1.1" id="Capa_1" xmlns="http://www.w3.org/2000/svg" xmlns:xlink="http://www.w3.org/1999/xlink" x="0px" y="0px"
	 viewBox="0 0 512 512" style="enable-background:new 0 0 512 512;" xml:space="preserve">
<g>
	<path style="fill:#A4C2F7;" d="M163.67,394.411l50.738-27.675c-0.286-0.283-0.047-0.365,0.558-0.305l24.832-13.545
		c9.988-5.448,16.202-15.917,16.202-27.294V294.4c-6.915-8.808-12.898-18.31-17.854-28.352h-0.001l-0.011-0.023
		c-1.149-2.286-2.284-4.7-3.403-7.202c-0.154-0.346-0.308-0.679-0.461-1.029c-1.136-2.588-2.244-5.258-3.297-8.052
		c-0.069-0.181-0.131-0.374-0.199-0.556c-0.922-2.472-1.787-5.029-2.609-7.642c-0.225-0.714-0.445-1.423-0.66-2.146
		c-0.862-2.885-1.677-5.821-2.373-8.854c-7.328-4.688-11.772-12.778-11.799-21.477v-34.133c0.028-7.231,3.131-14.11,8.533-18.917
		v-48.193C204.619,95.111,183.541,88.68,162.133,89.6c-81.6,0-85.333,68.267-85.333,68.267v42.621
		c-4.984,4.029-8.074,9.944-8.533,16.336v29.479c0.023,7.513,3.861,14.499,10.19,18.548c5.633,20.896,16.705,39.926,32.089,55.149
		v26.938c0,9.826-5.367,18.867-13.993,23.573l-57.214,35.863c-18.99,10.358-30.806,30.262-30.806,51.894v23.867H128v-27.635
		C128,429.451,141.681,406.405,163.67,394.411z"/>
	<path style="fill:#FFFFFF;" d="M163.67,394.411l50.738-27.675c-0.286-0.283-0.047-0.365,0.558-0.305l24.832-13.545
		c9.988-5.448,16.202-15.917,16.202-27.294V294.4c-6.915-8.808-12.898-18.31-17.854-28.352h-0.001l-0.011-0.023
		c-1.149-2.286-2.284-4.7-3.403-7.202c-0.154-0.346-0.308-0.679-0.461-1.029c-1.136-2.588-2.244-5.258-3.297-8.052
		c-0.069-0.181-0.131-0.374-0.199-0.556c-0.922-2.472-1.787-5.029-2.609-7.642c-0.225-0.714-0.445-1.423-0.66-2.146
		c-0.862-2.885-1.677-5.821-2.373-8.854c-7.328-4.688-11.772-12.778-11.799-21.477v-34.133c0.028-7.231,3.131-14.11,8.533-18.917
		v-48.193C204.619,95.111,183.541,88.68,162.133,89.6c-81.6,0-85.333,68.267-85.333,68.267v42.621
		c-4.984,4.029-8.074,9.944-8.533,16.336v29.479c0.023,7.513,3.861,14.499,10.19,18.548c5.633,20.896,16.705,39.926,32.089,55.149
		v26.938c0,9.826-5.367,18.867-13.993,23.573l-57.214,35.863c-18.99,10.358-30.806,30.262-30.806,51.894v23.867H128v-27.635
		C128,429.451,141.681,406.405,163.67,394.411z"/>
	<path style="fill:#E3E7F2;" d="M189.27,394.411l50.738-27.675c-0.286-0.283-0.047-0.365,0.558-0.305l24.832-13.545
		c9.988-5.448,16.202-15.917,16.202-27.294V294.4c-6.915-8.808-12.898-18.31-17.854-28.352h-0.001l-0.011-0.023
		c-1.149-2.286-2.284-4.7-3.403-7.202c-0.154-0.346-0.308-0.679-0.461-1.029c-1.136-2.588-2.244-5.258-3.297-8.052
		c-0.069-0.181-0.131-0.374-0.199-0.556c-0.922-2.472-1.787-5.029-2.609-7.642c-0.225-0.714-0.445-1.423-0.66-2.146
		c-0.862-2.885-1.677-5.821-2.373-8.854c-7.328-4.688-11.772-12.778-11.799-21.477v-34.133c0.028-7.231,3.131-14.11,8.533-18.917
		v-48.193C230.219,95.111,209.141,88.68,187.733,89.6c-81.6,0-85.333,68.267-85.333,68.267v42.621
		c-4.984,4.029-8.074,9.944-8.533,16.336v29.479c0.023,7.513,3.861,14.499,10.19,18.548c5.633,20.896,16.705,39.926,32.089,55.149
		v26.938c0,9.826-5.367,18.867-13.993,23.573l-57.214,35.863c-18.991,10.358-30.806,30.262-30.806,51.894v23.867H153.6v-27.635
		C153.6,429.451,167.281,406.405,189.27,394.411z"/>
	<path style="fill:#A4C2F7;" d="M465.631,394.949l-81.512-40.755c-10.533-5.266-17.186-16.032-17.185-27.808V294.4
		c2.738-3.171,5.311-6.48,7.71-9.915c10.998-15.63,19.541-32.849,25.335-51.06c10.735-3.264,18.094-13.138,18.154-24.358v-34.133
		c-0.028-7.231-3.131-14.11-8.533-18.917v-49.35c0,0,10.133-76.8-93.867-76.8s-93.867,76.8-93.867,76.8v49.35
		c-5.402,4.807-8.505,11.685-8.533,18.917v34.133c0.027,8.699,4.471,16.789,11.799,21.477c5.665,23.226,16.185,44.989,30.868,63.856
		v31.192c0,11.377-6.214,21.846-16.202,27.294l-76.128,41.525c-21.989,11.994-35.67,35.04-35.67,60.087v27.635h375.467v-25.965
		C503.466,430.244,488.819,406.543,465.631,394.949L465.631,394.949z"/>
	<path style="fill:#E3E7F2;" d="M440.031,394.949l-81.512-40.755c-10.533-5.266-17.186-16.032-17.185-27.808V294.4
		c2.738-3.171,5.311-6.48,7.71-9.915c10.998-15.63,19.541-32.849,25.335-51.06c10.735-3.264,18.094-13.138,18.154-24.358v-34.133
		c-0.028-7.231-3.131-14.11-8.533-18.917v-49.35c0,0,10.133-76.8-93.867-76.8c-48.356,0-59.733,76.8-59.733,76.8v49.35
		c-5.402,4.807-8.505,11.685-8.533,18.917v34.133c0.027,8.699,4.471,16.789,11.799,21.477c5.665,23.226,16.185,44.989,30.868,63.856
		v31.192c0,11.377-6.214,21.846-16.202,27.294l-76.128,41.525c-21.989,11.994-35.67,35.04-35.67,60.087v27.635h341.333v-25.965
		C477.866,430.244,463.219,406.543,440.031,394.949z"/>
	<path style="fill:#428DFF;" d="M503.467,490.667H128c-2.263,0.001-4.434-0.898-6.035-2.499c-1.6-1.6-2.499-3.771-2.499-6.035V454.5
		c-0.01-28.173,15.379-54.099,40.117-67.583l76.129-41.525c7.247-3.951,11.756-11.546,11.754-19.8v-28.233
		c-13.848-18.469-23.998-39.439-29.892-61.758c-8.073-6.441-12.775-16.206-12.775-26.533v-34.133
		c0.032-8.255,3.065-16.216,8.533-22.4v-45.392c-1.657-20.193,4.764-40.219,17.854-55.683
		c17.525-19.992,45.971-30.125,84.546-30.125s67.021,10.133,84.546,30.125c13.09,15.464,19.511,35.49,17.854,55.683v45.392
		c5.468,6.184,8.501,14.145,8.533,22.4v34.133c0.014,13.295-7.753,25.368-19.858,30.867c-6,17.611-14.487,34.274-25.204,49.483
		c-2.125,3.008-4.183,5.725-6.138,8.117v28.85c-0.03,8.551,4.805,16.376,12.467,20.175l81.517,40.758
		c26.146,12.965,42.648,39.666,42.55,68.85v25.967c0.001,2.263-0.898,4.434-2.499,6.035
		C507.901,489.769,505.73,490.668,503.467,490.667z M136.533,473.6h358.4v-17.434c0.08-22.714-12.764-43.497-33.117-53.583
		L380.3,361.825c-13.457-6.676-21.949-20.42-21.9-35.441V294.4c-0.001-2.074,0.755-4.077,2.125-5.633
		c2.54-2.944,4.925-6.017,7.146-9.208c10.504-14.92,18.659-31.36,24.183-48.75c0.854-2.649,2.948-4.715,5.608-5.533
		c7.178-2.134,12.109-8.72,12.137-16.208v-34.133c-0.016-4.82-2.099-9.402-5.721-12.583c-1.792-1.618-2.814-3.919-2.813-6.333
		v-49.35c0-0.373,0.025-0.747,0.075-1.117c1.166-15.595-3.802-31.029-13.846-43.017C373.133,46.517,349.054,38.4,315.733,38.4
		c-33.446,0-57.571,8.175-71.713,24.308c-10.023,11.923-14.943,27.316-13.696,42.842c0.05,0.37,0.075,0.743,0.075,1.117v49.35
		c0.001,2.414-1.021,4.716-2.813,6.333c-3.622,3.181-5.705,7.763-5.721,12.583v34.133c0.019,5.804,2.996,11.198,7.896,14.308
		c1.867,1.206,3.19,3.092,3.688,5.258c5.368,21.914,15.281,42.455,29.096,60.292c1.284,1.536,1.987,3.473,1.988,5.475v31.192
		c0.001,14.499-7.917,27.84-20.646,34.783L167.758,401.9c-19.256,10.492-31.235,30.671-31.225,52.6V473.6z"/>
	<path id="SVGCleanerId_0" style="fill:#428DFF;" d="M128,490.667H8.533c-2.263,0.001-4.434-0.898-6.035-2.499
		c-1.6-1.6-2.499-3.771-2.499-6.035v-23.867c-0.007-24.755,13.515-47.535,35.25-59.383l56.771-35.608
		c6.104-3.172,9.95-9.463,9.992-16.341v-23.408c-14.514-15.127-25.178-33.522-31.095-53.633
		c-7.082-5.785-11.188-14.447-11.184-23.592v-29.475c0.243-7.465,3.29-14.564,8.533-19.883v-39.075
		c0.054-1.233,5.213-76.8,93.867-76.8c23.293-0.851,46.188,6.204,64.962,20.017c2.083,1.617,3.303,4.105,3.304,6.741v48.192
		c0.001,2.414-1.021,4.716-2.813,6.333c-3.622,3.181-5.705,7.763-5.721,12.583v34.133c0.019,5.804,2.996,11.198,7.896,14.308
		c1.867,1.206,3.19,3.092,3.688,5.258c0.654,2.85,1.421,5.617,2.229,8.325l0.621,2c0.783,2.5,1.6,4.917,2.471,7.242
		c1.183,3.175,2.233,5.709,3.308,8.15l-7.346,4.475l7.792-3.483c1.062,2.383,2.146,4.683,3.233,6.858
		c4.669,9.462,10.297,18.421,16.796,26.733c1.279,1.534,1.98,3.469,1.979,5.467v31.192c0.001,14.499-7.917,27.84-20.646,34.783
		l-24.833,13.55c-0.108,0.058-0.221,0.117-0.329,0.167c-0.075,0.05-0.154,0.092-0.229,0.133L167.758,401.9l0,0
		c-19.256,10.492-31.235,30.671-31.225,52.6v27.633c0.001,2.263-0.898,4.434-2.499,6.035
		C132.434,489.769,130.263,490.668,128,490.667z M17.067,473.6h102.4v-19.1c-0.01-28.173,15.379-54.099,40.117-67.583l49.329-26.908
		c0.856-0.665,1.814-1.185,2.838-1.542l23.963-13.075c7.247-3.951,11.756-11.546,11.754-19.8V297.35
		c-6.454-8.633-12.125-17.825-16.946-27.466c-1.217-2.425-2.408-4.958-3.579-7.575l-0.479-1.075c-1.2-2.725-2.367-5.542-3.475-8.492
		c-1.179-3.183-2.096-5.883-2.963-8.65l-0.688-2.225c-0.621-2.058-1.206-4.144-1.754-6.258
		c-8.077-6.442-12.782-16.211-12.783-26.542v-34.133c0.032-8.255,3.065-16.216,8.533-22.4v-40.375
		c-15.239-9.783-33.103-14.676-51.2-14.025c-72.221,0-76.663,57.775-76.817,60.233l0.017,42.117
		c-0.001,2.41-1.021,4.708-2.808,6.325c-3.177,2.434-5.24,6.044-5.725,10.017V246.3c0.018,4.617,2.386,8.907,6.283,11.383
		c1.871,1.202,3.196,3.09,3.692,5.258c5.237,19.241,15.442,36.766,29.592,50.817c1.729,1.615,2.712,3.875,2.712,6.242v26.933
		c0.008,12.952-7.068,24.871-18.442,31.067l-56.767,35.608c-16.467,8.824-26.762,25.976-26.804,44.658V473.6z"/>
	<g>
		<path id="SVGCleanerId_0_1_" style="fill:#428DFF;" d="M128,490.667H8.533c-2.263,0.001-4.434-0.898-6.035-2.499
			c-1.6-1.6-2.499-3.771-2.499-6.035v-23.867c-0.007-24.755,13.515-47.535,35.25-59.383l56.771-35.608
			c6.104-3.172,9.95-9.463,9.992-16.341v-23.408c-14.514-15.127-25.178-33.522-31.095-53.633
			c-7.082-5.785-11.188-14.447-11.184-23.592v-29.475c0.243-7.465,3.29-14.564,8.533-19.883v-39.075
			c0.054-1.233,5.213-76.8,93.867-76.8c23.293-0.851,46.188,6.204,64.962,20.017c2.083,1.617,3.303,4.105,3.304,6.741v48.192
			c0.001,2.414-1.021,4.716-2.813,6.333c-3.622,3.181-5.705,7.763-5.721,12.583v34.133c0.019,5.804,2.996,11.198,7.896,14.308
			c1.867,1.206,3.19,3.092,3.688,5.258c0.654,2.85,1.421,5.617,2.229,8.325l0.621,2c0.783,2.5,1.6,4.917,2.471,7.242
			c1.183,3.175,2.233,5.709,3.308,8.15l-7.346,4.475l7.792-3.483c1.062,2.383,2.146,4.683,3.233,6.858
			c4.669,9.462,10.297,18.421,16.796,26.733c1.279,1.534,1.98,3.469,1.979,5.467v31.192c0.001,14.499-7.917,27.84-20.646,34.783
			l-24.833,13.55c-0.108,0.058-0.221,0.117-0.329,0.167c-0.075,0.05-0.154,0.092-0.229,0.133L167.758,401.9l0,0
			c-19.256,10.492-31.235,30.671-31.225,52.6v27.633c0.001,2.263-0.898,4.434-2.499,6.035
			C132.434,489.769,130.263,490.668,128,490.667z M17.067,473.6h102.4v-19.1c-0.01-28.173,15.379-54.099,40.117-67.583
			l49.329-26.908c0.856-0.665,1.814-1.185,2.838-1.542l23.963-13.075c7.247-3.951,11.756-11.546,11.754-19.8V297.35
			c-6.454-8.633-12.125-17.825-16.946-27.466c-1.217-2.425-2.408-4.958-3.579-7.575l-0.479-1.075
			c-1.2-2.725-2.367-5.542-3.475-8.492c-1.179-3.183-2.096-5.883-2.963-8.65l-0.688-2.225c-0.621-2.058-1.206-4.144-1.754-6.258
			c-8.077-6.442-12.782-16.211-12.783-26.542v-34.133c0.032-8.255,3.065-16.216,8.533-22.4v-40.375
			c-15.239-9.783-33.103-14.676-51.2-14.025c-72.221,0-76.663,57.775-76.817,60.233l0.017,42.117
			c-0.001,2.41-1.021,4.708-2.808,6.325c-3.177,2.434-5.24,6.044-5.725,10.017V246.3c0.018,4.617,2.386,8.907,6.283,11.383
			c1.871,1.202,3.196,3.09,3.692,5.258c5.237,19.241,15.442,36.766,29.592,50.817c1.729,1.615,2.712,3.875,2.712,6.242v26.933
			c0.008,12.952-7.068,24.871-18.442,31.067l-56.767,35.608c-16.467,8.824-26.762,25.976-26.804,44.658V473.6z"/>
	</g>
</g>
<g>
</g>
<g>
</g>
<g>
</g>
<g>
</g>
<g>
</g>
<g>
</g>
<g>
</g>
<g>
</g>
<g>
</g>
<g>
</g>
<g>
</g>
<g>
</g>
<g>
</g>
<g>
</g>
<g>
</g>
</svg>
