<?xml version="1.0" encoding="iso-8859-1"?>
<!-- Generator: Adobe Illustrator 19.0.0, SVG Export Plug-In . SVG Version: 6.00 Build 0)  -->
<svg version="1.1" id="Capa_1" xmlns="http://www.w3.org/2000/svg" xmlns:xlink="http://www.w3.org/1999/xlink" x="0px" y="0px"
	 viewBox="0 0 512 512" style="enable-background:new 0 0 512 512;" xml:space="preserve">
<g>
	<path style="fill:#A4C2F7;" d="M303.703,128v329.303c0,16.07,13.027,29.097,29.097,29.097H448.77
		c16.07,0,29.097-13.027,29.097-29.097V128H303.703z"/>
	<path style="fill:#FFFFFF;" d="M34.133,128v337.143c-0.189,16.26,12.837,29.596,29.097,29.79H179.2
		c16.26-0.194,29.286-13.53,29.097-29.79V128H34.133z"/>
	<path style="fill:#E3E7F2;" d="M59.733,128v329.303c0,16.07,13.027,29.097,29.097,29.097h334.339
		c16.07,0,29.097-13.027,29.097-29.097V128H59.733z"/>
	<g>
		<path style="fill:#A4C2F7;" d="M34.133,401.067L34.133,401.067c47.128,0,85.333,38.205,85.333,85.333l0,0H63.231
			c-16.07,0-29.097-13.027-29.097-29.097V401.067z"/>
		<path style="fill:#A4C2F7;" d="M477.867,401.067L477.867,401.067v56.236c0,16.07-13.027,29.097-29.097,29.097h-56.236l0,0
			C392.533,439.272,430.738,401.067,477.867,401.067L477.867,401.067z"/>
	</g>
	<path style="fill:#FFFFFF;" d="M233.917,128H8.533V37.65c0-6.655,5.395-12.05,12.05-12.05h201.283c6.655,0,12.05,5.395,12.05,12.05
		V128z"/>
	<path style="fill:#7FACFA;" d="M503.467,128H278.083V37.65c0-6.655,5.395-12.05,12.05-12.05h201.283
		c6.655,0,12.05,5.395,12.05,12.05V128z"/>
	<path style="fill:#A4C2F7;" d="M477.867,128H34.133V37.65c0-6.655,5.395-12.05,12.05-12.05h419.633
		c6.655,0,12.05,5.395,12.05,12.05V128z"/>
	<g>
		<path style="fill:#428DFF;" d="M503.467,136.533H8.533c-2.264,0.001-4.435-0.897-6.035-2.498C0.897,132.435-0.001,130.264,0,128
			V37.65c0.013-11.363,9.221-20.571,20.583-20.583h470.833c11.363,0.013,20.571,9.221,20.583,20.583V128
			c0.001,2.264-0.897,4.435-2.498,6.035C507.901,135.636,505.73,136.535,503.467,136.533z M17.067,119.467h477.867V37.65
			c0-1.942-1.575-3.516-3.517-3.517H20.583c-1.942,0-3.516,1.575-3.517,3.517V119.467z"/>
		<path style="fill:#428DFF;" d="M448.767,494.933H63.233C42.459,494.909,25.624,478.074,25.6,457.3V128
			c-0.001-2.264,0.897-4.435,2.498-6.035c1.601-1.601,3.772-2.499,6.035-2.498h443.733c2.264-0.001,4.435,0.897,6.035,2.498
			c1.601,1.601,2.499,3.772,2.498,6.035v329.3C486.376,478.074,469.541,494.909,448.767,494.933z M42.667,136.533V457.3
			c0.012,11.354,9.213,20.555,20.567,20.567h385.533c11.354-0.012,20.555-9.213,20.567-20.567V136.533H42.667z"/>
		<path style="fill:#428DFF;" d="M119.467,494.933H63.233C42.459,494.909,25.624,478.074,25.6,457.3v-56.233
			c-0.001-2.264,0.897-4.435,2.498-6.035c1.601-1.601,3.772-2.499,6.035-2.498c51.817,0.059,93.808,42.05,93.867,93.867
			c0.001,2.264-0.897,4.435-2.498,6.035C123.901,494.036,121.73,494.935,119.467,494.933z M42.667,410.075V457.3
			c0.012,11.354,9.213,20.555,20.567,20.567h47.225C106.423,442.231,78.302,414.11,42.667,410.075z"/>
		<path style="fill:#428DFF;" d="M448.767,494.933h-56.233c-2.264,0.001-4.435-0.897-6.035-2.498
			c-1.601-1.601-2.499-3.772-2.498-6.035c0.059-51.817,42.05-93.808,93.867-93.867c2.264-0.001,4.435,0.897,6.035,2.498
			c1.601,1.601,2.499,3.772,2.498,6.035V457.3C486.376,478.074,469.541,494.909,448.767,494.933L448.767,494.933z M401.542,477.867
			h47.225c11.354-0.012,20.555-9.213,20.567-20.567v-47.225C433.698,414.11,405.577,442.231,401.542,477.867z"/>
		<path style="fill:#428DFF;" d="M302.892,264.533h-93.783c-16.51-0.019-29.89-13.398-29.908-29.908v-12.758
			c0-4.713,3.821-8.533,8.533-8.533c4.713,0,8.533,3.821,8.533,8.533v12.758c0.006,7.09,5.752,12.835,12.842,12.842h93.783
			c7.09-0.006,12.835-5.752,12.842-12.842v-12.758c0-4.713,3.821-8.533,8.533-8.533s8.533,3.821,8.533,8.533v12.758
			C332.781,251.135,319.402,264.515,302.892,264.533z"/>
	</g>
</g>
<g>
</g>
<g>
</g>
<g>
</g>
<g>
</g>
<g>
</g>
<g>
</g>
<g>
</g>
<g>
</g>
<g>
</g>
<g>
</g>
<g>
</g>
<g>
</g>
<g>
</g>
<g>
</g>
<g>
</g>
</svg>
