<?xml version="1.0" encoding="iso-8859-1"?>
<!-- Generator: Adobe Illustrator 19.0.0, SVG Export Plug-In . SVG Version: 6.00 Build 0)  -->
<svg version="1.1" id="Capa_1" xmlns="http://www.w3.org/2000/svg" xmlns:xlink="http://www.w3.org/1999/xlink" x="0px" y="0px"
	 viewBox="0 0 512 512" style="enable-background:new 0 0 512 512;" xml:space="preserve">
<g>
	<path style="fill:#A4C2F7;" d="M469.931,404.856l-83.402-36.124c-4.835-2.897-8.645-7.233-10.896-12.401
		c-1.088-2.23-0.949-4.863,0.367-6.966c1.316-2.103,3.623-3.379,6.104-3.376h58.736c12.933,1.06,25.943-0.669,38.15-5.071
		c4.617-2.024,8.081-6.015,9.436-10.87c1.356-4.855,0.46-10.063-2.44-14.186c-17.794-25.332-54.576-84.973-55.768-146.573
		c0,0-2.039-94.819-95.59-95.59c-16.034-0.147-31.896,3.319-46.407,10.141c1.927,7.446,2.574,15.166,1.912,22.828v49.35
		c5.402,4.807,8.505,11.685,8.533,18.917v34.133c-0.06,11.22-7.419,21.094-18.154,24.358c-5.794,18.212-14.338,35.431-25.335,51.06
		c-2.399,3.435-4.972,6.744-7.71,9.915v31.985c0.004,7.142,2.468,14.064,6.978,19.602c8.025,4.13,15.656,8.984,22.799,14.5
		l68.921,34.461C369.353,406.543,384,430.244,384,456.169v25.965h119.467v-23.014C503.466,436.14,490.484,415.133,469.931,404.856z"
		/>
	<path style="fill:#E3E7F2;" d="M469.931,404.856l-83.402-36.124c-4.678-3.094-8.282-7.562-10.314-12.789
		c-1.088-2.23-0.949-4.863,0.367-6.966c1.316-2.103,3.623-3.379,6.104-3.376l24.021,0.388c12.933,1.06,25.943-0.669,38.149-5.071
		c4.617-2.024,8.081-6.015,9.437-10.87c1.356-4.855,0.46-10.063-2.44-14.186c-17.794-25.332-54.576-84.973-55.768-146.573
		c0,0-2.039-94.819-95.59-95.59c-16.034-0.147-31.896,3.319-46.407,10.141c1.928,7.446,2.574,15.166,1.912,22.829v49.35
		c5.402,4.807,8.505,11.685,8.533,18.917v34.133c-0.06,11.22-7.419,21.094-18.154,24.358c-5.794,18.212-14.338,35.431-25.335,51.06
		c-2.399,3.435-4.972,6.744-7.71,9.915v31.985c0.004,7.142,2.468,14.064,6.978,19.602c8.025,4.13,15.656,8.984,22.799,14.5
		l68.921,34.461C335.219,406.543,384,430.243,384,456.169v25.965h119.467v-23.014C503.466,436.14,490.484,415.133,469.931,404.856z"
		/>
	<path style="fill:#A4C2F7;" d="M346.165,394.948l-81.512-40.755c-10.533-5.266-17.186-16.032-17.185-27.808V294.4
		c2.738-3.171,5.311-6.48,7.71-9.915c10.998-15.63,19.541-32.849,25.335-51.06c10.735-3.264,18.094-13.138,18.154-24.358v-34.133
		c-0.028-7.231-3.131-14.11-8.533-18.917v-49.35c0,0,10.133-76.8-93.867-76.8s-93.867,76.8-93.867,76.8v49.35
		c-5.402,4.807-8.505,11.685-8.533,18.917v34.133c0.027,8.699,4.471,16.789,11.799,21.477c5.665,23.226,16.185,44.989,30.868,63.856
		v31.192c0,11.377-6.214,21.846-16.202,27.294l-76.129,41.525c-21.989,11.994-35.67,35.04-35.669,60.087v27.635H384v-25.965
		C384,430.244,369.353,406.543,346.165,394.948L346.165,394.948z"/>
	<path style="fill:#E3E7F2;" d="M307.2,394.948l-68.148-40.755c-10.533-5.266-17.186-16.032-17.185-27.808V294.4
		c2.738-3.171,5.311-6.48,7.71-9.915c10.998-15.63,19.541-32.849,25.335-51.06c10.735-3.264,18.094-13.138,18.154-24.358v-34.133
		c-0.028-7.231-3.131-14.11-8.533-18.917v-49.35c0,0,10.133-76.8-93.867-76.8c-70.4,0-68.267,76.8-68.267,76.8v49.35
		c-5.402,4.807-8.505,11.685-8.533,18.917v34.133c0.027,8.699,4.471,16.789,11.799,21.477c5.665,23.226,16.185,44.989,30.868,63.856
		v31.192c0,11.377-6.214,21.846-16.202,27.294l-76.129,41.525c-21.989,11.994-35.67,35.04-35.669,60.087v27.635h336.502v-25.965
		C345.035,430.244,330.388,406.543,307.2,394.948z"/>
	<g>
		<path style="fill:#428DFF;" d="M384,490.667H8.533c-2.263,0.001-4.434-0.898-6.035-2.499s-2.499-3.771-2.499-6.035V454.5
			c-0.01-28.173,15.379-54.099,40.117-67.583l76.129-41.525c7.247-3.951,11.756-11.546,11.754-19.8v-28.233
			c-13.848-18.469-23.998-39.439-29.892-61.758c-8.073-6.441-12.775-16.206-12.775-26.533v-34.133
			c0.032-8.255,3.065-16.216,8.533-22.4v-45.392c-1.657-20.193,4.764-40.219,17.854-55.683
			c17.525-19.992,45.971-30.125,84.546-30.125s67.021,10.133,84.546,30.125c13.09,15.464,19.511,35.49,17.854,55.683v45.392
			c5.468,6.184,8.501,14.145,8.533,22.4v34.133c0.014,13.295-7.753,25.368-19.858,30.867c-6,17.611-14.487,34.274-25.204,49.483
			c-2.125,3.008-4.183,5.725-6.138,8.117v28.85c-0.03,8.551,4.805,16.376,12.467,20.175l81.517,40.758
			c26.148,12.963,42.65,39.665,42.55,68.85v25.967c0.001,2.263-0.898,4.434-2.499,6.035
			C388.434,489.769,386.263,490.667,384,490.667z M17.067,473.6h358.4v-17.434c0.08-22.714-12.764-43.497-33.117-53.583l0,0
			l-81.517-40.758c-13.457-6.676-21.949-20.42-21.9-35.441V294.4c-0.001-2.074,0.755-4.077,2.125-5.633
			c2.54-2.944,4.925-6.017,7.146-9.208c10.504-14.92,18.659-31.36,24.183-48.75c0.854-2.649,2.948-4.715,5.608-5.533
			c7.178-2.134,12.109-8.72,12.137-16.208v-34.133c-0.016-4.82-2.099-9.402-5.721-12.583c-1.792-1.618-2.814-3.919-2.813-6.333
			v-49.35c0-0.373,0.025-0.747,0.075-1.117c1.166-15.595-3.802-31.029-13.846-43.017C253.667,46.517,229.588,38.4,196.267,38.4
			c-33.446,0-57.571,8.175-71.713,24.308c-10.023,11.923-14.943,27.316-13.696,42.842c0.05,0.37,0.075,0.743,0.075,1.117v49.35
			c0.001,2.414-1.021,4.716-2.813,6.333c-3.622,3.181-5.705,7.763-5.721,12.583v34.133c0.019,5.804,2.996,11.198,7.896,14.308
			c1.867,1.206,3.19,3.092,3.688,5.258c5.368,21.914,15.281,42.455,29.096,60.292c1.284,1.536,1.987,3.473,1.988,5.475v31.192
			c0.001,14.499-7.917,27.84-20.646,34.783L48.292,401.9c-19.256,10.492-31.235,30.671-31.225,52.6V473.6z"/>
		<path style="fill:#428DFF;" d="M503.467,490.667H384c-2.263,0.001-4.434-0.898-6.035-2.499c-1.6-1.6-2.499-3.771-2.499-6.035
			v-25.967c0.08-22.714-12.764-43.497-33.117-53.583l-68.925-34.466c-1.283-0.642-2.383-1.596-3.2-2.775
			c-3.075-2.208-12.25-7.633-19.925-11.9c-0.949-0.527-1.788-1.231-2.471-2.075c-5.743-7.061-8.884-15.882-8.896-24.983V294.4
			c-0.001-2.074,0.755-4.077,2.125-5.633c2.54-2.944,4.925-6.017,7.146-9.208c10.504-14.92,18.659-31.36,24.183-48.75
			c0.854-2.649,2.948-4.715,5.608-5.533c7.178-2.134,12.109-8.72,12.137-16.208v-34.133c-0.016-4.82-2.099-9.402-5.721-12.583
			c-1.792-1.618-2.814-3.919-2.813-6.333v-49.35c0-0.365,0.024-0.73,0.071-1.092c0.503-6.606-0.081-13.25-1.729-19.667
			c-0.981-3.922,0.922-7.994,4.558-9.758c15.661-7.345,32.765-11.097,50.063-10.983c100.804,0.825,104.166,102.9,104.192,103.933
			c1.158,60.025,38.3,119.2,54.217,141.85c4.378,6.227,5.725,14.093,3.669,21.422c-2.056,7.329-7.299,13.346-14.277,16.387
			c-13.526,4.972-27.977,6.924-42.338,5.717l-55.684,0.042c1.379,2.692,3.453,4.965,6.008,6.583l82.971,35.925l0.425,0.2
			c23.507,11.652,38.343,35.655,38.255,61.891v23.017c0.001,2.263-0.898,4.434-2.499,6.035
			C507.901,489.769,505.73,490.667,503.467,490.667z M392.533,473.6h102.4v-14.483c0.067-19.685-11.021-37.709-28.621-46.525
			l-83.175-36.025c-6.683-3.713-11.995-9.478-15.15-16.442c-2.4-4.876-2.113-10.645,0.759-15.259
			c2.872-4.614,7.923-7.418,13.357-7.416h58.738c11.773,1.006,23.626-0.485,34.783-4.375c2.243-0.961,3.924-2.895,4.563-5.25
			c0.695-2.411,0.26-5.006-1.183-7.058c-16.817-23.942-56.062-86.608-57.317-151.317c-0.087-3.5-3.154-86.525-87.129-87.217
			c-12.51-0.042-24.922,2.215-36.617,6.658c0.977,6.026,1.22,12.149,0.725,18.233v45.408c5.468,6.184,8.501,14.145,8.533,22.4
			v34.133c0.014,13.295-7.753,25.368-19.858,30.867c-6,17.611-14.487,34.274-25.204,49.483c-2.125,3.008-4.183,5.725-6.138,8.117
			v28.85c0.006,4.661,1.456,9.205,4.15,13.008c8.127,4.042,15.823,8.897,22.971,14.492l66.863,33.434
			c26.148,12.963,42.65,39.665,42.55,68.85V473.6z"/>
	</g>
</g>
<g>
</g>
<g>
</g>
<g>
</g>
<g>
</g>
<g>
</g>
<g>
</g>
<g>
</g>
<g>
</g>
<g>
</g>
<g>
</g>
<g>
</g>
<g>
</g>
<g>
</g>
<g>
</g>
<g>
</g>
</svg>
