<?xml version="1.0" encoding="iso-8859-1"?>
<!-- Generator: Adobe Illustrator 19.0.0, SVG Export Plug-In . SVG Version: 6.00 Build 0)  -->
<svg version="1.1" id="Capa_1" xmlns="http://www.w3.org/2000/svg" xmlns:xlink="http://www.w3.org/1999/xlink" x="0px" y="0px"
	 viewBox="0 0 512 512" style="enable-background:new 0 0 512 512;" xml:space="preserve">
<g>
	<path style="fill:#A4C2F7;" d="M443.733,434.835c0-25.925-14.647-49.626-37.835-61.221l-81.512-40.755
		c-10.533-5.266-17.186-16.032-17.185-27.808v-31.985c2.738-3.171,5.311-6.48,7.71-9.915c10.998-15.63,19.541-32.849,25.335-51.06
		c10.735-3.264,18.094-13.138,18.154-24.358V153.6c-0.028-7.231-3.131-14.11-8.533-18.917v-49.35c0,0,10.133-76.8-93.867-76.8
		s-93.867,76.8-93.867,76.8v49.35c-5.402,4.807-8.505,11.685-8.533,18.917v34.133c0.027,8.699,4.471,16.789,11.799,21.477
		c5.665,23.226,16.185,44.989,30.868,63.856v31.192c0,11.377-6.214,21.846-16.202,27.294l-76.128,41.525
		c-21.989,11.994-35.67,35.04-35.67,60.087V460.8c0,23.565,84.051,42.667,187.733,42.667s187.733-19.102,187.733-42.667V434.835z"/>
	<path style="fill:#E3E7F2;" d="M418.133,434.835c0-25.925-14.647-49.626-37.835-61.221l-81.512-40.755
		c-10.533-5.266-17.186-16.032-17.185-27.808v-31.985c2.738-3.171,5.311-6.48,7.71-9.915c10.998-15.63,19.541-32.849,25.335-51.06
		c10.735-3.264,18.094-13.138,18.154-24.358V153.6c-0.028-7.231-3.131-14.11-8.533-18.917v-49.35c0,0,10.133-76.8-93.867-76.8
		c-57.6,0-68.267,76.8-68.267,76.8v49.35c-5.402,4.807-8.505,11.685-8.533,18.917v34.133c0.027,8.699,4.471,16.789,11.799,21.477
		c5.665,23.226,16.185,44.989,30.868,63.856v31.192c0,11.377-6.214,21.846-16.202,27.294l-59.062,41.525
		c-21.989,11.993-61.27,35.039-61.27,60.087V460.8c0,23.565,180.762,42.667,170.667,42.667c103.682,0,187.733-19.102,187.733-42.667
		V434.835z"/>
	<path style="fill:#428DFF;" d="M256,512c-67.883,0-196.267-10.7-196.267-51.2v-27.633c-0.01-28.173,15.379-54.099,40.117-67.583
		l76.129-41.525c7.247-3.951,11.756-11.546,11.754-19.8v-28.233c-13.848-18.469-23.998-39.439-29.892-61.758
		c-8.073-6.441-12.775-16.206-12.775-26.533V153.6c0.032-8.255,3.065-16.216,8.533-22.4V85.808
		c-1.657-20.193,4.764-40.219,17.854-55.683C188.979,10.133,217.425,0,256,0s67.021,10.133,84.546,30.125
		c13.09,15.464,19.511,35.49,17.854,55.683V131.2c5.468,6.184,8.501,14.145,8.533,22.4v34.133
		c0.014,13.295-7.753,25.368-19.858,30.867c-6,17.611-14.487,34.274-25.204,49.483c-2.125,3.008-4.183,5.725-6.138,8.117v28.85
		c-0.03,8.551,4.805,16.376,12.467,20.175l81.517,40.758c26.146,12.965,42.648,39.666,42.55,68.85V460.8
		C452.266,501.3,323.883,512,256,512z M256,17.067c-33.446,0-57.571,8.175-71.713,24.308
		c-10.023,11.923-14.943,27.316-13.696,42.842c0.05,0.37,0.075,0.743,0.075,1.117v49.35c0.001,2.414-1.021,4.716-2.813,6.333
		c-3.622,3.181-5.705,7.763-5.721,12.583v34.133c0.019,5.804,2.996,11.198,7.896,14.308c1.867,1.206,3.19,3.092,3.688,5.258
		c5.368,21.914,15.281,42.455,29.096,60.292c1.284,1.536,1.987,3.473,1.987,5.475v31.192c0.001,14.499-7.917,27.84-20.646,34.783
		l-76.129,41.525c-19.256,10.492-31.235,30.671-31.225,52.6V460.8c0,11.583,63.25,34.133,179.2,34.133s179.2-22.55,179.2-34.133
		v-25.967c0.08-22.714-12.764-43.497-33.117-53.583l-81.517-40.758c-13.457-6.676-21.949-20.42-21.9-35.441v-31.983
		c-0.001-2.074,0.755-4.077,2.125-5.633c2.54-2.944,4.925-6.017,7.146-9.208c10.504-14.92,18.659-31.36,24.183-48.75
		c0.854-2.649,2.948-4.715,5.608-5.533c7.178-2.134,12.109-8.72,12.137-16.208V153.6c-0.016-4.82-2.099-9.402-5.721-12.583
		c-1.792-1.618-2.814-3.919-2.813-6.333v-49.35c0-0.373,0.025-0.747,0.075-1.117c1.166-15.595-3.802-31.029-13.846-43.017
		C313.4,25.183,289.321,17.067,256,17.067z"/>
</g>
<g>
</g>
<g>
</g>
<g>
</g>
<g>
</g>
<g>
</g>
<g>
</g>
<g>
</g>
<g>
</g>
<g>
</g>
<g>
</g>
<g>
</g>
<g>
</g>
<g>
</g>
<g>
</g>
<g>
</g>
</svg>
