<?xml version="1.0" encoding="iso-8859-1"?>
<!-- Generator: Adobe Illustrator 19.0.0, SVG Export Plug-In . SVG Version: 6.00 Build 0)  -->
<svg version="1.1" id="Capa_1" xmlns="http://www.w3.org/2000/svg" xmlns:xlink="http://www.w3.org/1999/xlink" x="0px" y="0px"
	 viewBox="0 0 512 512" style="enable-background:new 0 0 512 512;" xml:space="preserve">
<g>
	<path style="fill:#A4C2F7;" d="M443.733,443.369c0-25.925-14.647-49.626-37.835-61.221l-94.095-40.755
		c-5.455-3.269-9.753-8.16-12.293-13.991c-1.227-2.516-1.071-5.487,0.414-7.86c1.485-2.373,4.088-3.813,6.887-3.809h66.266
		c14.591,1.196,29.269-0.755,43.041-5.721c5.208-2.284,9.116-6.786,10.646-12.264c1.53-5.478,0.519-11.353-2.753-16.005
		c-20.075-28.58-61.572-95.868-62.917-165.365c0,0-2.301-106.975-107.846-107.846c-61.568,0.508-90.647,36.748-104.192,66.859
		c-7.158,16.973-11.225,35.089-12.008,53.494c-4.379,66.242-38.11,128.781-53.832,154.675c-5.421,8.787-2.709,20.304,6.064,25.749
		c9.848,5.273,21.039,7.508,32.157,6.423h67.831c2.97-0.001,5.616,1.878,6.593,4.683c0.978,2.805,0.073,5.921-2.254,7.767
		c-3.316,2.739-6.808,5.26-10.452,7.546l-79.219,45.881c-21.989,11.994-35.67,35.04-35.67,60.087V460.8
		c0,23.565,84.051,42.667,187.733,42.667s187.733-19.102,187.733-42.667V443.369z"/>
	<path style="fill:#E3E7F2;" d="M443.733,443.369c0-25.925-14.647-49.626-37.835-61.221l-94.095-40.755
		c-5.455-3.269-9.753-8.16-12.293-13.991c-1.227-2.516-1.071-5.487,0.414-7.86c1.485-2.373,4.088-3.813,6.887-3.809h40.666
		c14.591,1.196,29.269-0.755,43.041-5.721c5.208-2.284,9.116-6.786,10.646-12.264c1.53-5.478,0.519-11.353-2.753-16.005
		c-20.075-28.58-61.572-95.868-62.917-165.365c0,0,8.983-106.975-96.561-107.846c-61.568,0.508-76.332,36.748-89.876,66.859
		c-7.158,16.973-11.225,35.089-12.008,53.494c-4.379,66.242-38.11,128.781-53.832,154.675c-5.421,8.787-2.709,20.304,6.064,25.749
		c9.848,5.273,21.039,7.508,32.157,6.423h67.831c2.97-0.001,5.616,1.878,6.593,4.683c0.978,2.805,0.073,5.921-2.254,7.767
		c-3.316,2.739-6.808,5.26-10.452,7.546l-79.219,45.881c-21.989,11.994-35.67,35.04-35.67,60.087V460.8
		c0,23.565,84.051,42.667,187.733,42.667s187.733-19.102,187.733-42.667V443.369z"/>
	<path style="fill:#428DFF;" d="M256,512c-67.883,0-196.267-10.7-196.267-51.2v-19.1c-0.01-28.173,15.379-54.099,40.117-67.583
		l79.029-45.767c2.039-1.231,3.995-2.595,5.854-4.083h-62.846c-12.812,1.172-25.683-1.484-36.983-7.633
		c-6.111-3.652-10.498-9.606-12.174-16.525c-1.753-7.139-0.605-14.681,3.191-20.975c14.392-23.7,48.317-85.833,52.612-150.817
		c0.83-19.42,5.146-38.533,12.741-56.426C155.892,39.4,187.171,0.542,253.179,0c112.663,0.925,116.425,115.05,116.45,116.2
		c1.317,68.017,43.354,135,61.367,160.633c4.78,6.795,6.229,15.388,3.942,23.375c-2.216,7.918-7.898,14.407-15.454,17.65
		c-15.086,5.542-31.202,7.716-47.217,6.367l-65.454,0.042c2.143,3.817,5.162,7.07,8.808,9.492l93.67,40.558
		c26.351,12.904,43.034,39.709,42.975,69.05V460.8C452.267,501.3,323.883,512,256,512z M121.438,307.2h67.829
		c6.605,0,12.486,4.181,14.655,10.42c2.169,6.239,0.151,13.166-5.03,17.264c-3.652,3.08-7.542,5.867-11.633,8.333l-79.046,45.775
		C88.866,399.469,76.81,419.699,76.8,441.7v19.1c0,11.583,63.25,34.133,179.2,34.133s179.2-22.55,179.2-34.133v-17.434
		c0.08-22.714-12.764-43.497-33.117-53.583l-93.67-40.558c-7.302-4.087-13.101-10.408-16.546-18.033
		c-2.543-5.16-2.239-11.268,0.803-16.151c3.042-4.883,8.39-7.848,14.143-7.84h66.267c13.43,1.15,26.951-0.563,39.671-5.025
		c2.825-1.223,4.945-3.658,5.767-6.625c0.879-3.039,0.332-6.312-1.487-8.9c-18.913-26.925-63.058-97.391-64.467-170.1
		c-0.096-4-3.554-98.7-99.383-99.483c-41.895-1.614-80.352,23.066-96.337,61.825c-6.752,16.04-10.571,33.161-11.275,50.55
		c-4.546,68.742-40.017,133.775-55.054,158.542c-1.451,2.406-1.888,5.289-1.217,8.017c0.591,2.5,2.163,4.656,4.362,5.983
		c8.226,4.288,17.511,6.121,26.75,5.283C120.75,307.224,121.094,307.201,121.438,307.2z"/>
</g>
<g>
</g>
<g>
</g>
<g>
</g>
<g>
</g>
<g>
</g>
<g>
</g>
<g>
</g>
<g>
</g>
<g>
</g>
<g>
</g>
<g>
</g>
<g>
</g>
<g>
</g>
<g>
</g>
<g>
</g>
</svg>
