<?xml version="1.0" encoding="iso-8859-1"?>
<!-- Generator: Adobe Illustrator 19.0.0, SVG Export Plug-In . SVG Version: 6.00 Build 0)  -->
<svg version="1.1" id="Capa_1" xmlns="http://www.w3.org/2000/svg" xmlns:xlink="http://www.w3.org/1999/xlink" x="0px" y="0px"
	 viewBox="0 0 512 512" style="enable-background:new 0 0 512 512;" xml:space="preserve">
<g>
	<circle style="fill:#A4C2F7;" cx="256" cy="256" r="246.691"/>
	<ellipse style="fill:#E3E7F2;" cx="242.036" cy="256" rx="232.727" ry="246.691"/>
	<path style="fill:#7FACFA;" d="M116.244,424.873l84.831-36.377c4.949-3.924,8.742-9.117,10.973-15.026
		c1.095-2.246,0.955-4.897-0.37-7.015c-1.325-2.118-3.649-3.403-6.147-3.4h-59.993c-13.156-1.418-26.071-4.547-38.416-9.309
		c-9.798-4.208-13.175-9.764-7.045-18.491c17.918-25.509,54.957-85.567,56.158-147.598c0,0,2.053-95.482,96.259-96.259
		c40.441-1.562,77.566,22.261,92.997,59.675c6.389,15.15,10.019,31.32,10.718,47.748c3.908,59.124,34.016,113.195,48.049,136.307
		c4.839,7.843,2.418,18.123-5.413,22.982c-8.796,4.664-18.852,6.396-28.702,4.945h-60.397c-2.731,0.214-5.064,2.052-5.912,4.658
		c-0.848,2.605-0.043,5.464,2.039,7.245c2.96,2.445,6.076,4.694,9.328,6.734l70.563,42.702c9.988,5.468,18.245,13.625,23.835,23.545
		c-92.41,74.659-224.927,72.775-315.177-4.481C100.113,435.613,107.594,429.241,116.244,424.873z"/>
	<path style="fill:#FFFFFF;" d="M256,502.691c2.41,0,4.792-0.114,7.185-0.182C137.797,498.697,37.236,389.834,37.236,256
		S137.797,13.303,263.185,9.491c-2.393-0.068-4.776-0.182-7.185-0.182C119.756,9.309,9.309,119.756,9.309,256
		S119.756,502.691,256,502.691L256,502.691z"/>
	<path style="fill:#A4C2F7;" d="M381.673,424.393l-72.08-42.702c-3.252-2.04-6.368-4.289-9.328-6.734
		c-2.082-1.78-2.888-4.64-2.04-7.245c0.848-2.605,3.181-4.444,5.912-4.658h36.746c9.85,1.451,19.905-0.282,28.702-4.945
		c7.831-4.859,10.252-15.139,5.413-22.982c-14.033-23.111-44.14-77.183-48.049-136.307c-0.699-16.427-4.329-32.598-10.718-47.748
		c-15.431-37.414-52.556-61.237-92.997-59.675c-2.939,0.025-5.789,0.139-8.55,0.343c-0.471,2.822-2.252,5.254-4.801,6.555
		c-13.72,7.835-26.719,16.87-38.844,27c-0.065,0.245-0.08,0.475-0.164,0.727c-2.997,8.993-4.544,18.216-7.788,27.055
		c4.334,1.954,6.638,6.739,5.461,11.345c-2.329,13.247-4.787,26.402-7.564,39.564c-1.018,4.633-5.408,7.72-10.112,7.11
		c-0.198,0.442-0.426,0.864-0.629,1.302c3.261,2.28,4.568,6.477,3.177,10.206c-3.884,13.795-8.894,27.248-14.979,40.223
		c-0.878,1.869-2.362,3.386-4.211,4.305c0.477,2.993-0.487,6.035-2.6,8.207c-10.17,10.393-17.363,23.326-20.828,37.448
		c-1.935,9.706-5.579,18.991-10.761,27.423c-0.639,0.927-1.438,1.93-2.21,2.919c4.322,3.021,8.331,6.466,11.967,10.285
		c0.596,0.069,1.184,0.19,1.758,0.364c9.22,4.064,18.832,7.173,28.686,9.277h10.104c2.48-2.44,6.022-3.466,9.422-2.73
		c3.281,0.997,6.633,1.742,10.028,2.23c1.041-0.289,2.095-0.461,3.127-0.82c9.828-4.163,21.184-2.173,29.01,5.084
		c3.175,3.238,4.583,7.814,3.779,12.277c-0.804,4.463-3.722,8.259-7.828,10.185c-5.895,2.502-12.352,3.382-18.701,2.549
		c-0.832,1.064-1.867,1.952-3.045,2.611c-8.775,4.984-50.478,19.599-74.437,33.336c5.057,1.522,8.078,6.693,6.919,11.845
		c-0.814,3.895-1.491,7.852-2.212,11.802c4.285,1.655,6.828,6.083,6.097,10.618c6.02,4.787,12.372,9.141,19.008,13.03
		c9.036,4.723,18.872,8.109,28.416,11.99c2.153-2.801,5.669-4.194,9.156-3.627c3.487,0.567,6.381,3.003,7.535,6.341
		c2.495,0.018,4.88,1.029,6.628,2.81c1.748,1.781,2.715,4.184,2.687,6.679c13.048,2.234,26.26,3.38,39.498,3.424
		c58.688,0,137.728-20.531,180.077-54.752C399.919,438.018,391.661,429.861,381.673,424.393z"/>
	<g>
		<path style="fill:#428DFF;" d="M256,512C114.615,512,0,397.385,0,256S114.615,0,256,0s256,114.615,256,256
			C511.839,397.318,397.318,511.839,256,512z M256,18.618C124.898,18.618,18.618,124.898,18.618,256S124.898,493.382,256,493.382
			S493.382,387.102,493.382,256C493.232,124.96,387.04,18.768,256,18.618z"/>
		<path style="fill:#428DFF;" d="M254.691,512c-60.994-0.021-119.976-21.821-166.323-61.473c-3.7-3.169-4.332-8.654-1.45-12.582
			c6.553-9.047,15.185-16.387,25.168-21.4c0.159-0.082,0.323-0.155,0.491-0.227l84.832-36.382c1.942-2.284,3.548-4.834,4.768-7.573
			h-56.641c-14.423-1.415-28.584-4.801-42.086-10.063c-7.027-2.221-12.617-7.588-15.123-14.518
			c-1.482-6.279,0.045-12.89,4.132-17.882c15.986-22.755,53.3-82.2,54.468-142.427c0.023-1.064,3.427-104.545,105.491-105.382
			c44.168-1.719,84.718,24.298,101.564,65.164c6.858,16.155,10.759,33.411,11.518,50.945
			c3.382,51.181,27.273,100.082,46.714,132.091c3.625,6.01,4.72,13.212,3.045,20.027c-1.604,6.61-5.799,12.298-11.641,15.782
			c-10.428,5.673-22.396,7.868-34.159,6.264h-51.572c0.571,0.414,1.163,0.799,1.773,1.154l70.922,42.909
			c11.363,6.28,20.751,15.601,27.114,26.918c2.248,3.961,1.298,8.966-2.245,11.827C369.91,491.89,313.189,511.94,254.691,512z
			 M107.677,442.3c41.87,33.068,93.66,51.063,147.014,51.082c51.377,0.203,101.399-16.476,142.373-47.473
			c-4.295-5.468-9.655-10.008-15.755-13.345l-70.927-42.909c-3.611-2.195-7.047-4.666-10.277-7.391
			c-5.286-4.284-7.286-11.442-4.986-17.846c2.059-6.344,7.958-10.648,14.627-10.673h60.395c0.539,0,1.078,0.045,1.609,0.136
			c7.65,1.078,15.445-0.237,22.318-3.764c1.575-0.953,2.7-2.499,3.123-4.291c0.49-1.998,0.17-4.109-0.891-5.873
			c-20.523-33.782-45.75-85.591-49.382-140.518c-0.619-15.322-3.978-30.409-9.918-44.545
			c-14.048-34.006-47.817-55.638-84.582-54.182c-84.05,0.691-86.8,83.618-86.872,87.145c-1.227,62.991-36.773,122.745-57.85,152.755
			c-0.541,0.715-0.981,1.502-1.309,2.337c0.345,0.055,1.541,1.018,4.409,2.245c11.464,4.39,23.446,7.28,35.65,8.6l59.086-0.046
			c5.72-0.003,11.037,2.947,14.06,7.803c3.024,4.856,3.326,10.929,0.799,16.06c-2.9,7.842-8.206,14.566-15.159,19.21l-85.059,36.5
			C115.571,435.653,111.357,438.683,107.677,442.3z"/>
	</g>
</g>
<g>
</g>
<g>
</g>
<g>
</g>
<g>
</g>
<g>
</g>
<g>
</g>
<g>
</g>
<g>
</g>
<g>
</g>
<g>
</g>
<g>
</g>
<g>
</g>
<g>
</g>
<g>
</g>
<g>
</g>
</svg>
