<?xml version="1.0" encoding="iso-8859-1"?>
<!-- Generator: Adobe Illustrator 19.0.0, SVG Export Plug-In . SVG Version: 6.00 Build 0)  -->
<svg version="1.1" id="Capa_1" xmlns="http://www.w3.org/2000/svg" xmlns:xlink="http://www.w3.org/1999/xlink" x="0px" y="0px"
	 viewBox="0 0 512.002 512.002" style="enable-background:new 0 0 512.002 512.002;" xml:space="preserve">
<g>
	<circle style="fill:#A4C2F7;" cx="256.001" cy="256" r="247.467"/>
	<ellipse style="fill:#E3E7F2;" cx="256.001" cy="256" rx="221.867" ry="247.467"/>
	<g>
		<path style="fill:#A4C2F7;" d="M289.495,270.53c-4.672,1.648-7.822,6.032-7.894,10.985v5.506c0,6.432,5.214,11.646,11.646,11.646
			h50.741c7.715,0.012,15.408,0.846,22.946,2.489V128h-0.104C366.95,181.248,334.813,253.491,289.495,270.53z"/>
		<path style="fill:#A4C2F7;" d="M150.947,298.667h50.742c6.432,0,11.646-5.214,11.646-11.646V281.6
			c0.063-4.783-2.844-9.104-7.297-10.848c-45.548-16.847-78.036-91.348-78.036-142.752v173.156
			C135.539,299.513,143.231,298.678,150.947,298.667L150.947,298.667z"/>
	</g>
	<path style="fill:#E3E7F2;" d="M452.254,406.673c-0.146-59.691-48.575-108.004-108.266-108.006h-50.741
		c-6.432,0-11.646-5.214-11.646-11.646v-5.506c0.072-4.953,3.222-9.337,7.893-10.985c49.53-18.622,83.439-99.872,76.553-157.298
		c-6.924-54.6-50.151-97.464-104.807-103.927c-3.674-0.411-7.297-0.544-10.907-0.628c-6.435,0.145-12.826,0.469-19.131,1.096
		C172.095,17.864,128.032,68.342,128.001,128c0,51.404,32.488,125.905,78.036,142.752c4.454,1.744,7.36,6.065,7.297,10.848v5.421
		c0,6.432-5.214,11.646-11.646,11.646h-50.741c-51.389,0.004-95.702,36.117-106.077,86.448
		c42.532,69.558,116.601,113.698,198.018,118.006C324.304,507.43,402.618,471.353,452.254,406.673z"/>
	<path style="fill:#FFFFFF;" d="M34.134,256c0-136.673,99.333-247.467,221.867-247.467C119.329,8.533,8.534,119.328,8.534,256
		s110.795,247.467,247.467,247.467C133.467,503.467,34.134,392.672,34.134,256z"/>
	<path style="fill:#A4C2F7;" d="M278.281,502.367c3.896-0.348,7.77-0.769,11.612-1.296c1.942-0.266,3.876-0.554,5.804-0.865
		c3.805-0.614,7.574-1.331,11.32-2.118c1.7-0.357,3.413-0.678,5.099-1.07c5.306-1.231,10.563-2.587,15.732-4.155
		c0.285-0.087,0.56-0.196,0.845-0.283c4.903-1.505,9.728-3.184,14.496-4.981c1.677-0.632,3.321-1.328,4.981-1.996
		c3.387-1.363,6.745-2.782,10.056-4.289c1.786-0.812,3.562-1.644,5.326-2.496c3.286-1.592,6.523-3.268,9.727-4.998
		c1.539-0.831,3.098-1.631,4.617-2.495c4.583-2.603,9.1-5.311,13.495-8.193c0.417-0.273,0.811-0.577,1.227-0.854
		c4.013-2.665,7.939-5.445,11.78-8.34c1.422-1.069,2.802-2.19,4.199-3.289c2.831-2.224,5.614-4.504,8.351-6.84
		c1.443-1.239,2.872-2.492,4.287-3.762c2.764-2.484,5.466-5.033,8.108-7.646c1.154-1.135,2.333-2.244,3.466-3.401
		c3.716-3.799,7.34-7.691,10.807-11.722c0.138-0.16,0.264-0.332,0.401-0.494c2.852-3.334,5.554-6.798,8.229-10.281
		c-0.137-34.915-17.135-67.613-45.635-87.783L247.467,460.8L88.98,318.161c-22.701,15.84-38.477,39.769-44.09,66.875
		c2.977,4.861,6.11,9.612,9.399,14.251c0.414,0.582,0.866,1.133,1.285,1.713c2.725,3.76,5.528,7.46,8.454,11.058
		c0.834,1.023,1.721,2,2.57,3.01c2.595,3.088,5.228,6.143,7.968,9.099c1.107,1.193,2.264,2.337,3.394,3.507
		c2.577,2.674,5.181,5.319,7.875,7.875c1.336,1.267,2.718,2.485,4.082,3.723c2.592,2.352,5.21,4.674,7.9,6.915
		c1.523,1.269,3.081,2.495,4.635,3.727c2.634,2.09,5.298,4.144,8.018,6.127c1.691,1.232,3.408,2.429,5.13,3.62
		c2.684,1.855,5.405,3.66,8.162,5.415c1.833,1.161,3.683,2.299,5.548,3.413c2.746,1.643,5.528,3.231,8.344,4.765
		c1.96,1.07,3.928,2.126,5.92,3.145c2.819,1.443,5.68,2.811,8.56,4.147c2.064,0.956,4.126,1.91,6.22,2.813
		c2.896,1.246,5.839,2.404,8.791,3.541c2.154,0.831,4.301,1.673,6.483,2.444c2.988,1.056,6.023,2.005,9.062,2.948
		c2.214,0.686,4.414,1.402,6.654,2.027c3.121,0.872,6.292,1.618,9.461,2.369c2.219,0.526,4.421,1.1,6.663,1.565
		c3.325,0.692,6.703,1.232,10.076,1.787c2.147,0.354,4.272,0.775,6.438,1.073c3.734,0.515,7.521,0.852,11.306,1.198
		c1.855,0.169,3.684,0.425,5.551,0.552c5.672,0.39,11.392,0.605,17.163,0.605c5.72,0,11.381-0.247,17.005-0.629
		C274.775,502.717,276.523,502.525,278.281,502.367z"/>
	<g>
		<path style="fill:#428DFF;" d="M119.467,470.958c-2.264,0.001-4.435-0.897-6.035-2.498c-1.601-1.601-2.499-3.772-2.498-6.035
			v-44.292c0-4.713,3.821-8.533,8.533-8.533c4.713,0,8.533,3.82,8.533,8.533v44.292c0.001,2.264-0.897,4.435-2.498,6.035
			C123.902,470.061,121.731,470.96,119.467,470.958L119.467,470.958z"/>
		<path style="fill:#428DFF;" d="M375.467,481.267c-2.264,0.001-4.435-0.897-6.035-2.498c-1.601-1.601-2.499-3.772-2.498-6.035
			v-54.6c0-4.713,3.82-8.533,8.533-8.533s8.533,3.82,8.533,8.533v54.6c0.001,2.264-0.897,4.435-2.498,6.035
			C379.902,480.369,377.731,481.268,375.467,481.267L375.467,481.267z"/>
		<path style="fill:#428DFF;" d="M247.467,443.733c-2.264,0.001-4.435-0.897-6.035-2.498c-1.601-1.601-2.499-3.772-2.498-6.035
			c0.055-47.105,38.228-85.278,85.333-85.333c4.713,0,8.533,3.82,8.533,8.533s-3.82,8.533-8.533,8.533
			c-37.685,0.043-68.224,30.582-68.267,68.267c0.001,2.264-0.897,4.435-2.498,6.035
			C251.902,442.836,249.731,443.735,247.467,443.733z"/>
		<path style="fill:#428DFF;" d="M247.467,443.733c-2.264,0.001-4.435-0.897-6.035-2.498c-1.601-1.601-2.499-3.772-2.498-6.035
			c-0.043-37.685-30.582-68.224-68.267-68.267c-4.713,0-8.533-3.82-8.533-8.533s3.82-8.533,8.533-8.533
			c47.105,0.055,85.278,38.228,85.333,85.333c0.001,2.264-0.897,4.435-2.498,6.035C251.902,442.836,249.731,443.735,247.467,443.733
			z"/>
		<path style="fill:#428DFF;" d="M247.467,469.333c-2.264,0.001-4.435-0.897-6.035-2.498c-1.601-1.601-2.499-3.772-2.498-6.035
			v-25.6c0-4.713,3.821-8.533,8.533-8.533c4.713,0,8.533,3.82,8.533,8.533v25.6c0.001,2.264-0.897,4.435-2.498,6.035
			C251.902,468.436,249.731,469.335,247.467,469.333L247.467,469.333z"/>
		<path style="fill:#428DFF;" d="M366.934,309.692c-0.605-0.001-1.208-0.066-1.8-0.192c-6.949-1.514-14.038-2.285-21.15-2.3h-50.733
			c-11.141-0.016-20.168-9.043-20.183-20.183v-5.5c0.04-8.519,5.405-16.102,13.425-18.975c41.233-15.5,71.917-83.808,71.808-134.525
			c-0.004-2.266,0.893-4.44,2.494-6.044c1.601-1.604,3.773-2.505,6.039-2.506c4.734-0.011,8.589,3.8,8.634,8.534v173.158
			c0,2.263-0.899,4.434-2.499,6.034C371.368,308.793,369.197,309.692,366.934,309.692L366.934,309.692z M358.401,204.717
			c-14.625,33.817-37.8,63.233-65.908,73.8v0.009c-1.326,0.418-2.262,1.604-2.358,2.991v5.5c0.003,1.72,1.397,3.113,3.117,3.117
			h50.733c4.82,0.004,9.635,0.31,14.417,0.917V204.717z"/>
		<path style="fill:#428DFF;" d="M128.001,309.692c-2.263,0-4.434-0.899-6.034-2.499c-1.6-1.6-2.499-3.771-2.499-6.034V128
			c0-4.713,3.821-8.533,8.533-8.533c4.713,0,8.533,3.821,8.533,8.533c0,49.917,31.65,119.658,72.458,134.75
			c7.796,2.992,12.924,10.5,12.875,18.85v5.417c-0.016,11.14-9.043,20.168-20.183,20.183h-50.733
			c-7.112,0.015-14.201,0.786-21.15,2.3C129.209,309.626,128.606,309.69,128.001,309.692L128.001,309.692z M136.534,203.75v87.3
			c4.782-0.607,9.597-0.913,14.417-0.917h50.733c1.72-0.003,3.113-1.397,3.117-3.117V281.6c0.052-1.213-0.632-2.338-1.733-2.85
			C175.251,268.467,151.526,238.308,136.534,203.75L136.534,203.75z"/>
		<path style="fill:#428DFF;" d="M256.001,512c-141.385,0-256-114.615-256-256s114.615-256,256-256s256,114.615,256,256
			C511.841,397.319,397.319,511.84,256.001,512z M256.001,17.067C124.042,17.067,17.067,124.041,17.067,256
			s106.974,238.933,238.933,238.933S494.934,387.959,494.934,256C494.786,124.102,387.899,17.215,256.001,17.067z"/>
		<path style="fill:#428DFF;" d="M256.001,512c-89.231,0.305-172.104-46.148-218.408-122.425c-1.131-1.843-1.519-4.048-1.083-6.167
			c11.295-54.24,59.039-93.153,114.442-93.275h50.733c1.72-0.003,3.113-1.397,3.117-3.117V281.6c0.052-1.213-0.632-2.338-1.733-2.85
			c-47.842-17.692-83.6-94.183-83.6-150.75c0.213-63.858,47.34-117.846,110.583-126.683c6.225-0.625,12.7-1,20.083-1.175
			c4.258,0.092,8.133,0.242,12.067,0.692c58.573,6.938,104.894,52.871,112.325,111.383c7.183,59.942-27.083,145.642-82.033,166.3
			c-1.325,0.424-2.259,1.612-2.358,3v5.5c0.003,1.72,1.397,3.113,3.117,3.117h50.733c64.352,0.107,116.537,52.165,116.8,116.517
			c0.007,1.889-0.615,3.727-1.766,5.225C410.747,475.186,335.614,512.24,256.001,512z M53.951,383.567
			c41.421,65.612,112.128,107.02,189.616,111.045c77.489,4.025,152.105-29.835,200.1-90.803
			c-1.779-53.797-45.857-96.516-99.683-96.608h-50.733c-11.141-0.016-20.168-9.043-20.183-20.183v-5.5
			c0.04-8.519,5.405-16.102,13.425-18.975c45.792-17.217,77.358-95.933,71.083-148.292c-6.432-50.677-46.554-90.458-97.283-96.458
			c-3.425-0.392-6.8-0.508-10.158-0.583c-6.55,0.158-12.592,0.508-18.083,1.058C177.368,26.029,136.683,72.77,136.534,128
			c0,49.917,31.65,119.658,72.458,134.75c7.796,2.992,12.924,10.5,12.875,18.85v5.417c-0.016,11.14-9.043,20.168-20.183,20.183
			h-50.733C104.897,307.304,64.861,338.824,53.951,383.567z"/>
	</g>
	<path style="fill:#A4C2F7;" d="M286.263,65.519c32.05,8.713,60.376,27.656,80.671,53.948c-0.139-1.887-0.2-3.817-0.421-5.658
		c-6.924-54.6-50.151-97.463-104.807-103.927c-4.35-0.482-8.722-0.734-13.099-0.754l-0.408-0.01
		c-58.07-0.102-107.793,41.587-117.823,98.784l0.033,0.05c1.525,2.153,52.037-20.81,76.294-10.066
		c14.812,6.541,31.645,6.79,46.644,0.688C268.345,92.472,280.224,80.543,286.263,65.519L286.263,65.519z"/>
	<g>
		<path style="fill:#428DFF;" d="M366.934,128c-2.699,0-5.239-1.277-6.85-3.442c-17.6-22.895-41.746-39.896-69.233-48.75
			c-16.97,31.25-55.081,44.246-87.608,29.875c-14.633-6.475-44.933,3.1-59.492,7.717c-11.167,3.533-16.275,5.15-20.3-0.517
			c-1.329-1.869-1.863-4.188-1.483-6.45C132.573,45.177,185.775,0.475,247.942,0.583h0.275c4.822,0.019,9.64,0.292,14.433,0.817
			c58.575,6.946,104.898,52.878,112.341,111.392c0.158,1.383,0.25,2.8,0.333,4.208l0.117,1.825c0.176,2.367-0.641,4.701-2.255,6.441
			C371.573,127.007,369.308,127.997,366.934,128z M248.301,17.658c-48.873-0.209-92.098,31.659-106.35,78.408
			c18.392-5.767,48.883-14.55,68.208-5.983c12.697,5.602,27.124,5.812,39.979,0.581c12.854-5.231,23.036-15.455,28.213-28.331
			c1.616-4.027,6-6.198,10.183-5.042c23.638,6.526,45.523,18.244,64.059,34.3c-14.227-39.864-49.803-68.231-91.833-73.225
			c-4.051-0.451-8.124-0.687-12.2-0.708H248.301z"/>
		<path style="fill:#428DFF;" d="M256.001,512c-5.692,0-11.658-0.208-17.742-0.617c-1.275-0.092-2.5-0.225-3.733-0.367l-2.042-0.217
			c-3.883-0.35-7.792-0.7-11.65-1.225c-1.483-0.208-2.925-0.458-4.367-0.717l-3.275-0.558c-3.175-0.525-6.342-1.042-9.467-1.692
			c-1.742-0.367-3.467-0.783-5.192-1.208l-1.725-0.417c-3.6-0.858-6.7-1.592-9.767-2.45c-1.75-0.483-3.483-1.025-5.208-1.575
			l-1.667-0.517c-3.15-0.975-6.292-1.958-9.392-3.058c-1.942-0.683-3.875-1.425-5.808-2.175l-0.9-0.35
			c-3.033-1.167-6.075-2.375-9.075-3.658c-1.875-0.8-3.708-1.65-5.55-2.492l-0.875-0.408c-3.017-1.4-5.967-2.817-8.883-4.3
			c-2.05-1.05-4.092-2.15-6.125-3.258c-2.9-1.592-5.783-3.225-8.625-4.925c-1.933-1.158-3.844-2.333-5.733-3.525
			c-2.867-1.825-5.686-3.697-8.458-5.617c-1.775-1.225-3.55-2.458-5.3-3.742c-2.808-2.05-5.567-4.175-8.283-6.325l-0.775-0.617
			c-1.358-1.075-2.708-2.15-4.042-3.258c-2.758-2.3-5.475-4.7-8.158-7.133l-1.192-1.084c-1.025-0.917-2.042-1.833-3.033-2.783
			c-2.783-2.642-5.483-5.375-8.15-8.142l-3.492-3.617c-2.85-3.067-5.575-6.225-8.258-9.425l-0.95-1.108
			c-0.575-0.658-1.15-1.317-1.708-2c-3.025-3.725-5.917-7.55-8.733-11.433l-1.367-1.832c-3.267-4.575-6.542-9.533-9.692-14.692
			c-1.125-1.846-1.509-4.049-1.075-6.167c6.002-29.264,23.03-55.098,47.558-72.15c3.252-2.284,7.652-2.014,10.6,0.65l152.8,137.525
			l153.433-136.983c2.975-2.65,7.387-2.893,10.633-0.583c30.671,21.823,48.983,57.058,49.217,94.7
			c0.007,1.892-0.615,3.733-1.766,5.233c-2.767,3.6-5.558,7.175-8.508,10.617c-4,4.692-7.75,8.708-11.592,12.642
			c-0.833,0.85-1.692,1.683-2.542,2.508l-1.058,1.025c-2.725,2.683-5.508,5.333-8.375,7.9c-1.475,1.317-2.953,2.614-4.433,3.891
			c-2.817,2.417-5.7,4.767-8.617,7.058l-4.325,3.392c-4.017,3.008-8.075,5.892-12.217,8.65l-1.25,0.867
			c-4.575,2.992-9.25,5.8-13.992,8.492c-1.15,0.658-2.35,1.292-3.558,1.933l-1.242,0.658c-3.275,1.775-6.625,3.508-10.033,5.158
			c-1.792,0.875-3.642,1.733-5.492,2.575c-3.45,1.567-6.925,3.042-10.433,4.45l-1.592,0.642c-1.175,0.483-2.35,0.967-3.541,1.417
			c-4.933,1.867-9.936,3.586-15.009,5.158l-0.875,0.292c-5.342,1.617-10.783,3.017-16.275,4.292c-1.2,0.283-2.417,0.533-3.625,0.775
			l-1.65,0.341c-3.891,0.817-7.783,1.55-11.709,2.192c-2.025,0.325-4.033,0.625-6.05,0.892c-3.925,0.55-7.942,0.975-11.967,1.342
			l-1.575,0.15c-1.3,0.125-2.6,0.242-3.908,0.333C267.142,511.783,261.384,512,256.001,512z M53.976,383.492
			c2.375,3.767,4.817,7.4,7.267,10.833l1.275,1.717c2.6,3.583,5.308,7.158,8.133,10.633l2.475,2.892c2.517,3,5.058,5.942,7.7,8.8
			l3.3,3.408c2.467,2.567,4.983,5.117,7.583,7.592c0.883,0.833,1.792,1.65,2.7,2.467l1.25,1.125
			c2.492,2.258,5.008,4.508,7.608,6.658c1.242,1.042,2.483,2.025,3.725,3.017l0.775,0.608c2.525,2,5.1,3.992,7.733,5.908
			c1.625,1.183,3.283,2.333,4.95,3.483c2.6,1.8,5.217,3.55,7.883,5.233c1.758,1.117,3.55,2.225,5.358,3.3
			c2.65,1.583,5.333,3.114,8.05,4.592c1.9,1.042,3.792,2.058,5.717,3.042c2.725,1.4,5.492,2.717,8.275,4.017l0.85,0.383
			c1.708,0.792,3.408,1.575,5.142,2.317c2.783,1.2,5.625,2.325,8.475,3.417l0.925,0.358c1.766,0.683,3.533,1.367,5.325,2
			c2.908,1.025,5.833,1.942,8.767,2.85l1.717,0.533c1.558,0.492,3.117,0.983,4.7,1.425c2.85,0.792,5.733,1.475,8.608,2.158
			l2.342,0.558c1.533,0.383,3.067,0.758,4.625,1.075c2.892,0.608,5.825,1.084,8.758,1.575l3.475,0.583
			c1.233,0.225,2.467,0.442,3.708,0.617c3.592,0.483,7.25,0.817,10.9,1.142l2.358,0.25c1.008,0.108,2.008,0.225,3.033,0.3
			c10.981,0.794,22.005,0.781,32.983-0.042c1.158-0.075,2.292-0.183,3.417-0.292l1.675-0.158l0,0c3.758-0.333,7.492-0.742,11.2-1.25
			c1.917-0.258,3.775-0.542,5.642-0.833c3.65-0.592,7.292-1.292,10.917-2.042l1.742-0.367c1.058-0.208,2.116-0.425,3.167-0.667
			c5.125-1.192,10.2-2.492,15.192-4.008l0.908-0.3c4.642-1.425,9.292-3.05,13.892-4.783c1.042-0.392,2.067-0.817,3.1-1.242
			l1.708-0.691c3.283-1.317,6.522-2.697,9.717-4.142c1.692-0.775,3.408-1.567,5.108-2.392c3.2-1.55,6.317-3.167,9.4-4.833
			l1.358-0.725c1.033-0.55,2.075-1.092,3.092-1.675c4.45-2.525,8.808-5.133,13.058-7.917l1.2-0.842
			c3.85-2.558,7.642-5.258,11.366-8.05l4.042-3.167c2.725-2.15,5.425-4.35,8.075-6.617c1.4-1.192,2.775-2.408,4.142-3.633
			c2.658-2.392,5.264-4.85,7.817-7.375l1.142-1.108c0.742-0.717,1.483-1.434,2.208-2.175c3.592-3.667,7.092-7.417,10.433-11.308
			c2.408-2.842,4.5-5.467,6.517-8.058c-1.013-28.749-14.358-55.67-36.625-73.883L253.151,467.167
			c-3.252,2.889-8.153,2.878-11.392-0.025L88.484,329.192C71.266,342.954,59.125,362.06,53.976,383.492z"/>
	</g>
</g>
<g>
</g>
<g>
</g>
<g>
</g>
<g>
</g>
<g>
</g>
<g>
</g>
<g>
</g>
<g>
</g>
<g>
</g>
<g>
</g>
<g>
</g>
<g>
</g>
<g>
</g>
<g>
</g>
<g>
</g>
</svg>
