<?xml version="1.0" encoding="iso-8859-1"?>
<!-- Generator: Adobe Illustrator 19.0.0, SVG Export Plug-In . SVG Version: 6.00 Build 0)  -->
<svg version="1.1" id="Capa_1" xmlns="http://www.w3.org/2000/svg" xmlns:xlink="http://www.w3.org/1999/xlink" x="0px" y="0px"
	 viewBox="0 0 512 512" style="enable-background:new 0 0 512 512;" xml:space="preserve">
<g>
	<circle style="fill:#A4C2F7;" cx="256" cy="256" r="247.467"/>
	<g>
		<ellipse style="fill:#E3E7F2;" cx="256" cy="256" rx="221.867" ry="247.467"/>
		<path style="fill:#E3E7F2;" d="M460.221,395.742c-5.743-55.164-52.238-97.072-107.7-97.075h-50.741
			c-6.432,0-11.646-5.214-11.646-11.646v-5.506c0.072-4.953,3.222-9.337,7.893-10.985c49.53-18.622,83.439-99.872,76.553-157.298
			c-6.924-54.6-50.151-97.464-104.807-103.927c-4.35-0.483-8.723-0.734-13.099-0.754l-0.407-0.01
			c-31.73-0.071-62.184,12.483-84.646,34.894C149.157,65.844,136.534,96.27,136.533,128c0,51.404,32.488,125.905,78.036,142.752
			c4.454,1.744,7.36,6.065,7.297,10.848v5.421c0,6.432-5.214,11.646-11.646,11.646h-50.741
			c-55.462,0.003-101.957,41.911-107.7,97.075C97.9,463.156,174.319,503.466,256,503.466S414.1,463.156,460.221,395.742z"/>
	</g>
	<g>
		<rect x="230.4" y="332.8" style="fill:#A4C2F7;" width="51.2" height="51.2"/>
		<path style="fill:#A4C2F7;" d="M221.532,501.024c22.949,3.268,46.245,3.257,69.191-0.032L273.067,384h-34.133L221.532,501.024z"/>
		<path style="fill:#A4C2F7;" d="M230.4,339.627l-34.133-40.96h-41.434c-0.277,0-0.535,0.137-0.691,0.366s-0.187,0.52-0.084,0.777
			L187.733,384l42.667-28.444V339.627z"/>
		<path style="fill:#A4C2F7;" d="M357.168,298.667h-41.434l-34.133,40.96v15.929L324.267,384l33.676-84.19
			c0.103-0.257,0.071-0.548-0.084-0.777C357.703,298.804,357.444,298.667,357.168,298.667z"/>
	</g>
	<path style="fill:#FFFFFF;" d="M34.133,256C34.133,119.327,133.467,8.533,256,8.533C119.328,8.533,8.533,119.328,8.533,256
		S119.328,503.467,256,503.467C133.467,503.467,34.133,392.672,34.133,256z"/>
	<g>
		<path style="fill:#428DFF;" d="M128,476.367c-2.264,0.001-4.435-0.897-6.035-2.498c-1.601-1.601-2.499-3.772-2.498-6.035V409.6
			c0-4.713,3.821-8.533,8.533-8.533c4.713,0,8.533,3.821,8.533,8.533v58.233c0.001,2.264-0.897,4.435-2.498,6.035
			C132.435,475.469,130.264,476.368,128,476.367L128,476.367z"/>
		<path style="fill:#428DFF;" d="M384,476.342c-2.264,0.001-4.435-0.897-6.035-2.498c-1.601-1.601-2.499-3.772-2.498-6.035V409.6
			c0-4.713,3.821-8.533,8.533-8.533s8.533,3.821,8.533,8.533v58.208c0.001,2.264-0.897,4.435-2.498,6.035
			C388.435,475.444,386.264,476.343,384,476.342L384,476.342z"/>
		<path style="fill:#428DFF;" d="M256,512C114.615,512,0,397.385,0,256S114.615,0,256,0s256,114.615,256,256
			C511.84,397.319,397.319,511.84,256,512z M256,17.067C124.041,17.067,17.067,124.041,17.067,256S124.041,494.933,256,494.933
			S494.933,387.959,494.933,256C494.785,124.102,387.898,17.215,256,17.067z"/>
		<path style="fill:#428DFF;" d="M256,512c-84.49-0.022-163.532-41.714-211.258-111.433c-1.14-1.67-1.654-3.689-1.45-5.7
			c6.018-59.605,56.284-104.914,116.192-104.733h50.733c1.72-0.003,3.113-1.397,3.117-3.117V281.6
			c0.052-1.213-0.632-2.338-1.733-2.85C163.758,261.058,128,184.567,128,128c0-33.947,13.485-66.504,37.49-90.507
			S222.053,0.006,256,0.009h0.283c4.828,0.015,9.651,0.288,14.45,0.817c58.572,6.944,104.892,52.879,112.325,111.391
			c7.183,59.942-27.083,145.642-82.033,166.3c-1.325,0.424-2.259,1.612-2.358,3v5.5c0.003,1.72,1.397,3.113,3.117,3.117h50.733
			c59.907-0.181,110.174,45.129,116.192,104.733c0.204,2.012-0.31,4.03-1.45,5.7C419.532,470.286,340.49,511.979,256,512z
			 M60.633,393.525C105.375,457.103,178.257,494.933,256,494.933s150.625-37.83,195.367-101.408
			c-6.573-49.528-48.888-86.481-98.85-86.325h-50.733c-11.141-0.016-20.168-9.043-20.183-20.183v-5.5
			c0.04-8.519,5.405-16.102,13.425-18.975c45.792-17.217,77.358-95.933,71.083-148.292c-6.432-50.677-46.554-90.458-97.283-96.458
			c-4.051-0.455-8.124-0.691-12.2-0.708h-0.284c-29.479-0.094-57.782,11.55-78.66,32.361S145.068,98.521,145.067,128
			c0,49.917,31.65,119.658,72.458,134.75c7.796,2.992,12.924,10.5,12.875,18.85v5.417c-0.016,11.14-9.043,20.168-20.183,20.183
			h-50.733C109.521,307.044,67.207,343.997,60.633,393.525z"/>
		<path style="fill:#428DFF;" d="M281.6,392.533h-51.2c-2.264,0.001-4.435-0.897-6.035-2.498c-1.601-1.601-2.499-3.772-2.498-6.035
			v-51.2c-0.001-2.264,0.897-4.435,2.498-6.035c1.601-1.601,3.772-2.499,6.035-2.498h51.2c2.264-0.001,4.435,0.897,6.035,2.498
			c1.601,1.601,2.499,3.772,2.498,6.035V384c0.001,2.264-0.897,4.435-2.498,6.035C286.035,391.636,283.864,392.535,281.6,392.533
			L281.6,392.533z M238.933,375.467h34.133v-34.133h-34.133V375.467z"/>
		<path style="fill:#428DFF;" d="M187.733,392.533c-3.491,0.002-6.631-2.124-7.925-5.367l-33.675-84.192
			c-1.019-2.901-0.673-6.108,0.942-8.725c1.744-2.573,4.65-4.115,7.758-4.117h41.433c2.532,0.001,4.934,1.124,6.558,3.067
			l34.133,40.958c1.277,1.536,1.975,3.47,1.975,5.467v15.933c-0.001,2.853-1.426,5.517-3.8,7.1L192.467,391.1
			C191.064,392.033,189.418,392.532,187.733,392.533L187.733,392.533z M166.208,307.2l25.542,63.867l30.117-20.075v-8.275
			l-29.6-35.517H166.208z"/>
		<path style="fill:#428DFF;" d="M324.267,392.533c-1.685-0.001-3.331-0.5-4.733-1.434l-42.667-28.442
			c-2.374-1.583-3.799-4.247-3.8-7.1v-15.933c0-1.997,0.698-3.931,1.975-5.467l34.133-40.958c1.624-1.943,4.026-3.066,6.558-3.067
			h41.433c3.108,0,6.013,1.541,7.756,4.113s2.097,5.842,0.944,8.728l-33.675,84.192
			C330.898,390.409,327.758,392.536,324.267,392.533L324.267,392.533z M290.133,350.992l30.117,20.075l25.542-63.867h-26.058
			l-29.6,35.517V350.992z"/>
		<path style="fill:#428DFF;" d="M256,512c-11.927-0.018-23.839-0.862-35.65-2.525c-2.254-0.317-4.288-1.52-5.651-3.343
			c-1.363-1.823-1.942-4.114-1.608-6.366l17.4-117.025c0.627-4.179,4.216-7.272,8.442-7.275h34.133
			c4.222-0.002,7.81,3.084,8.442,7.258l17.658,116.992c0.339,2.254-0.238,4.55-1.601,6.376c-1.363,1.826-3.4,3.032-5.657,3.349
			C280.013,511.125,268.014,511.98,256,512z M231.258,493.617c16.526,1.763,33.193,1.754,49.717-0.025l-15.25-101.058h-19.433
			L231.258,493.617z"/>
	</g>
	<path style="fill:#A4C2F7;" d="M292.421,65.519c32.05,8.713,60.377,27.656,80.671,53.948c-0.139-1.887-0.2-3.817-0.421-5.658
		c-6.924-54.6-50.151-97.463-104.807-103.927c-4.35-0.482-8.722-0.734-13.099-0.754l-0.408-0.01
		c-58.07-0.102-107.793,41.587-117.823,98.784l0.033,0.05c1.525,2.153,52.037-20.81,76.294-10.066
		c14.812,6.541,31.645,6.79,46.644,0.688C274.503,92.472,286.382,80.543,292.421,65.519L292.421,65.519z"/>
	<path style="fill:#428DFF;" d="M373.092,128c-2.698-0.002-5.237-1.278-6.85-3.442C348.639,101.663,324.49,84.661,297,75.808
		c-16.966,31.249-55.076,44.246-87.6,29.875c-14.642-6.483-44.933,3.1-59.5,7.717c-11.167,3.533-16.275,5.15-20.292-0.517
		c-1.329-1.869-1.862-4.188-1.483-6.45C138.731,45.177,191.932,0.475,254.1,0.583h0.275c4.822,0.019,9.64,0.292,14.434,0.817
		c58.575,6.941,104.899,52.877,112.333,111.392c0.167,1.383,0.258,2.825,0.341,4.267l0.117,1.766
		c0.176,2.367-0.641,4.701-2.255,6.441C377.731,127.007,375.465,127.997,373.092,128z M254.458,17.658
		c-48.873-0.209-92.098,31.659-106.35,78.408c18.392-5.767,48.875-14.55,68.208-5.983c12.696,5.602,27.122,5.812,39.975,0.581
		c12.853-5.231,23.033-15.455,28.208-28.331c1.619-4.021,5.995-6.19,10.175-5.042c23.641,6.522,45.528,18.237,64.066,34.292
		c-14.225-39.86-49.798-68.224-91.825-73.217c-4.051-0.451-8.124-0.687-12.2-0.708H254.458z"/>
</g>
<g>
</g>
<g>
</g>
<g>
</g>
<g>
</g>
<g>
</g>
<g>
</g>
<g>
</g>
<g>
</g>
<g>
</g>
<g>
</g>
<g>
</g>
<g>
</g>
<g>
</g>
<g>
</g>
<g>
</g>
</svg>
