<?xml version="1.0" encoding="iso-8859-1"?>
<!-- Generator: Adobe Illustrator 19.0.0, SVG Export Plug-In . SVG Version: 6.00 Build 0)  -->
<svg version="1.1" id="Capa_1" xmlns="http://www.w3.org/2000/svg" xmlns:xlink="http://www.w3.org/1999/xlink" x="0px" y="0px"
	 viewBox="0 0 512 512" style="enable-background:new 0 0 512 512;" xml:space="preserve">
<g>
	<circle style="fill:#A4C2F7;" cx="256" cy="256" r="247.467"/>
	<g>
		<ellipse style="fill:#E3E7F2;" cx="256" cy="256" rx="221.867" ry="247.467"/>
		<path style="fill:#E3E7F2;" d="M460.221,395.742c-5.743-55.164-52.238-97.072-107.7-97.075h-50.741
			c-6.432,0-11.646-5.214-11.646-11.646v-5.506c0.072-4.953,3.222-9.337,7.893-10.985c49.53-18.622,83.439-99.872,76.553-157.298
			c-6.924-54.6-50.151-97.464-104.807-103.927c-4.35-0.483-8.723-0.734-13.099-0.754l-0.407-0.01
			c-31.73-0.071-62.184,12.483-84.646,34.894C149.157,65.844,136.534,96.27,136.533,128c0,51.404,32.488,125.905,78.036,142.752
			c4.454,1.744,7.36,6.065,7.297,10.848v5.421c0,6.432-5.214,11.646-11.646,11.646h-50.741
			c-55.462,0.003-101.957,41.911-107.7,97.075C97.9,463.156,174.319,503.466,256,503.466S414.1,463.156,460.221,395.742z"/>
	</g>
	<g>
		<rect x="162.133" y="298.667" style="fill:#A4C2F7;" width="34.133" height="68.267"/>
		<rect x="315.733" y="298.667" style="fill:#A4C2F7;" width="34.133" height="68.267"/>
		<path style="fill:#A4C2F7;" d="M128,409.6v58.225c78.717,47.522,177.283,47.522,256,0V366.933H128V409.6z"/>
		<path style="fill:#A4C2F7;" d="M294.329,64.942c32.05,8.713,60.376,27.656,80.671,53.948c-0.138-1.887-0.2-3.817-0.421-5.658
			c-6.924-54.6-50.151-97.464-104.807-103.927c-4.35-0.482-8.722-0.734-13.099-0.754l-0.409-0.01
			c-58.069-0.101-107.793,41.587-117.823,98.784l0.033,0.05c1.525,2.153,52.037-20.81,76.294-10.066
			c14.812,6.541,31.645,6.79,46.644,0.688C276.411,91.894,288.29,79.965,294.329,64.942L294.329,64.942z"/>
	</g>
	<path style="fill:#FFFFFF;" d="M34.133,256C34.133,119.327,133.467,8.533,256,8.533C119.328,8.533,8.533,119.328,8.533,256
		S119.328,503.467,256,503.467C133.467,503.467,34.133,392.672,34.133,256z"/>
	<g>
		<path style="fill:#428DFF;" d="M256,512C114.615,512,0,397.385,0,256S114.615,0,256,0s256,114.615,256,256
			C511.84,397.319,397.319,511.84,256,512z M256,17.067C124.041,17.067,17.067,124.041,17.067,256S124.041,494.933,256,494.933
			S494.933,387.959,494.933,256C494.785,124.102,387.898,17.215,256,17.067z"/>
		<path style="fill:#428DFF;" d="M256,512c-84.49-0.022-163.532-41.714-211.258-111.433c-1.14-1.67-1.654-3.689-1.45-5.7
			c6.018-59.605,56.284-104.914,116.192-104.733h50.733c1.72-0.003,3.113-1.397,3.117-3.117V281.6
			c0.052-1.213-0.632-2.338-1.733-2.85C163.758,261.058,128,184.567,128,128c0-33.947,13.485-66.504,37.49-90.507
			S222.053,0.006,256,0.009h0.283c4.828,0.015,9.651,0.288,14.45,0.817c58.572,6.944,104.892,52.879,112.325,111.391
			c7.183,59.942-27.083,145.642-82.033,166.3c-1.325,0.424-2.259,1.612-2.358,3v5.5c0.003,1.72,1.397,3.113,3.117,3.117h50.733
			c59.907-0.181,110.174,45.129,116.192,104.733c0.204,2.012-0.31,4.03-1.45,5.7C419.532,470.286,340.49,511.979,256,512z
			 M60.633,393.525C105.376,457.103,178.257,494.933,256,494.933s150.625-37.83,195.367-101.408
			c-6.573-49.528-48.888-86.481-98.85-86.325h-50.733c-11.141-0.016-20.168-9.043-20.183-20.183v-5.5
			c0.04-8.519,5.405-16.102,13.425-18.975c45.792-17.217,77.358-95.933,71.083-148.292c-6.432-50.677-46.554-90.458-97.283-96.458
			c-4.051-0.455-8.124-0.691-12.2-0.708h-0.284c-29.479-0.094-57.782,11.55-78.66,32.361S145.068,98.521,145.067,128
			c0,49.917,31.65,119.658,72.458,134.75c7.796,2.992,12.924,10.5,12.875,18.85v5.417c-0.016,11.14-9.043,20.168-20.183,20.183
			h-50.733C109.521,307.044,67.207,343.997,60.633,393.525z"/>
		<path style="fill:#428DFF;" d="M196.267,375.467h-34.133c-2.264,0.001-4.435-0.897-6.035-2.498
			c-1.601-1.601-2.499-3.772-2.498-6.035v-68.267c-0.001-2.264,0.897-4.435,2.498-6.035c1.601-1.601,3.772-2.499,6.035-2.498h34.133
			c2.264-0.001,4.435,0.897,6.035,2.498c1.601,1.601,2.499,3.772,2.498,6.035v68.267c0.001,2.264-0.897,4.435-2.498,6.035
			C200.702,374.569,198.53,375.468,196.267,375.467L196.267,375.467z M170.667,358.4h17.067v-51.2h-17.067V358.4z"/>
		<path style="fill:#428DFF;" d="M349.867,375.467h-34.133c-2.264,0.001-4.435-0.897-6.035-2.498
			c-1.601-1.601-2.499-3.772-2.498-6.035v-68.267c-0.001-2.264,0.897-4.435,2.498-6.035c1.601-1.601,3.772-2.499,6.035-2.498h34.133
			c2.264-0.001,4.435,0.897,6.035,2.498c1.601,1.601,2.499,3.772,2.498,6.035v68.267c0.001,2.264-0.897,4.435-2.498,6.035
			C354.302,374.569,352.13,375.468,349.867,375.467L349.867,375.467z M324.267,358.4h17.067v-51.2h-17.067V358.4z"/>
		<path style="fill:#428DFF;" d="M375,127.425c-2.699,0-5.239-1.277-6.85-3.442c-17.599-22.896-41.745-39.899-69.233-48.75
			c-16.97,31.25-55.081,44.246-87.608,29.875c-14.658-6.5-44.942,3.1-59.492,7.717c-11.167,3.533-16.275,5.15-20.3-0.517
			c-1.329-1.869-1.862-4.188-1.483-6.45C140.639,44.602,193.841-0.1,256.009,0.009h0.275c4.822,0.018,9.639,0.288,14.433,0.808
			c58.579,6.944,104.905,52.882,112.341,111.4c0.158,1.392,0.25,2.8,0.333,4.217l0.117,1.825c0.282,3.786-1.969,7.303-5.525,8.633
			C377.028,127.244,376.018,127.424,375,127.425z M256.367,17.084c-48.875-0.209-92.102,31.664-106.35,78.417
			c18.392-5.783,48.875-14.558,68.208-5.992c12.697,5.602,27.124,5.812,39.979,0.581c12.854-5.231,23.036-15.455,28.213-28.331
			c1.615-4.029,6-6.2,10.183-5.042c23.638,6.527,45.522,18.244,64.058,34.3c-14.226-39.866-49.802-68.236-91.833-73.233
			c-4.052-0.447-8.124-0.681-12.2-0.7H256.367z"/>
		<path style="fill:#428DFF;" d="M256,512c-46.678,0.033-92.474-12.72-132.417-36.875c-2.555-1.546-4.116-4.314-4.117-7.3V366.933
			c-0.001-2.264,0.897-4.435,2.498-6.035c1.601-1.601,3.772-2.499,6.035-2.498h256c2.264-0.001,4.435,0.897,6.035,2.498
			c1.601,1.601,2.499,3.772,2.498,6.035v100.892c0,2.986-1.562,5.755-4.117,7.3C348.474,499.28,302.678,512.033,256,512L256,512z
			 M136.533,462.958c73.939,42.633,164.994,42.633,238.933,0v-87.492H136.533V462.958z"/>
	</g>
</g>
<g>
</g>
<g>
</g>
<g>
</g>
<g>
</g>
<g>
</g>
<g>
</g>
<g>
</g>
<g>
</g>
<g>
</g>
<g>
</g>
<g>
</g>
<g>
</g>
<g>
</g>
<g>
</g>
<g>
</g>
</svg>
