<?xml version="1.0" encoding="iso-8859-1"?>
<!-- Generator: Adobe Illustrator 19.0.0, SVG Export Plug-In . SVG Version: 6.00 Build 0)  -->
<svg version="1.1" id="Capa_1" xmlns="http://www.w3.org/2000/svg" xmlns:xlink="http://www.w3.org/1999/xlink" x="0px" y="0px"
	 viewBox="0 0 512.146 512.146" style="enable-background:new 0 0 512.146 512.146;" xml:space="preserve">
<g>
	<polygon style="fill:#A4C2F7;" points="421.222,42.731 204.8,42.731 204.8,503.531 469.333,503.531 469.333,91.158 	"/>
	<polygon style="fill:#FFFFFF;" points="224.956,42.731 8.533,42.731 8.533,503.531 273.067,503.531 273.067,91.158 	"/>
	<path style="fill:#A4C2F7;" d="M214.975,345.518l-66.374,18.102l18.102-66.374L450.391,13.559
		c3.177-3.177,7.485-4.961,11.978-4.961c4.492,0,8.801,1.785,11.978,4.961l24.317,24.317c3.177,3.177,4.961,7.485,4.961,11.978
		s-1.785,8.801-4.961,11.978L214.975,345.518z"/>
	
		<rect x="398.064" y="62.949" transform="matrix(-0.7071 -0.7071 0.7071 -0.7071 681.2264 442.2056)" style="fill:#7FACFA;" width="68.267" height="34.133"/>
	
		<linearGradient id="SVGID_1_" gradientUnits="userSpaceOnUse" x1="-48.9254" y1="652.723" x2="-47.8629" y2="651.7785" gradientTransform="matrix(409.6 0 0 -460.8 20055.5352 300835.9063)">
		<stop  offset="0" style="stop-color:#D4E1F4"/>
		<stop  offset="0.1717" style="stop-color:#D4E1F4"/>
		<stop  offset="0.2" style="stop-color:#D4E1F4"/>
		<stop  offset="0.2001" style="stop-color:#DAE4F4"/>
		<stop  offset="0.2007" style="stop-color:#EBEBF4"/>
		<stop  offset="0.2014" style="stop-color:#F6F1F4"/>
		<stop  offset="0.2023" style="stop-color:#FDF4F4"/>
		<stop  offset="0.205" style="stop-color:#FFF5F4"/>
		<stop  offset="0.2522" style="stop-color:#FFF5F4"/>
		<stop  offset="0.26" style="stop-color:#FFF5F4"/>
		<stop  offset="0.26" style="stop-color:#D4E1F4"/>
		<stop  offset="0.3974" style="stop-color:#D4E1F4"/>
		<stop  offset="0.42" style="stop-color:#D4E1F4"/>
		<stop  offset="0.4201" style="stop-color:#DAE4F4"/>
		<stop  offset="0.4207" style="stop-color:#EBEBF4"/>
		<stop  offset="0.4214" style="stop-color:#F6F1F4"/>
		<stop  offset="0.4223" style="stop-color:#FDF4F4"/>
		<stop  offset="0.425" style="stop-color:#FFF5F4"/>
		<stop  offset="0.4894" style="stop-color:#FFF5F4"/>
		<stop  offset="0.5" style="stop-color:#FFF5F4"/>
		<stop  offset="0.5" style="stop-color:#F9F2F4"/>
		<stop  offset="0.5001" style="stop-color:#E8EBF4"/>
		<stop  offset="0.5003" style="stop-color:#DDE5F4"/>
		<stop  offset="0.5005" style="stop-color:#D6E2F4"/>
		<stop  offset="0.501" style="stop-color:#D4E1F4"/>
		<stop  offset="0.7062" style="stop-color:#D4E1F4"/>
		<stop  offset="0.74" style="stop-color:#D4E1F4"/>
		<stop  offset="0.741" style="stop-color:#FFF5F4"/>
		<stop  offset="0.8346" style="stop-color:#FFF5F4"/>
		<stop  offset="0.85" style="stop-color:#FFF5F4"/>
		<stop  offset="0.851" style="stop-color:#D4E1F4"/>
	</linearGradient>
	<polygon style="fill:url(#SVGID_1_);" points="214.972,345.52 148.599,363.619 166.707,297.246 421.222,42.731 34.133,42.731 
		34.133,503.531 443.733,503.531 443.733,110.998 	"/>
	<g>
		<path style="fill:#428DFF;" d="M148.6,372.156c-2.659-0.001-5.165-1.24-6.78-3.353c-1.614-2.113-2.152-4.857-1.454-7.422
			l18.104-66.375c0.391-1.434,1.15-2.74,2.2-3.792L444.358,7.523c9.956-9.919,26.057-9.923,36.017-0.008l24.32,24.325
			c9.933,9.954,9.933,26.071,0,36.025L221.008,351.548c-1.05,1.05-2.355,1.809-3.787,2.2l-66.375,18.108
			C150.114,372.055,149.359,372.155,148.6,372.156z M174.342,301.681l-13.579,49.775l49.779-13.575L492.629,55.798
			c3.279-3.286,3.279-8.606,0-11.892L468.313,19.59c-3.288-3.271-8.6-3.271-11.888,0L174.342,301.681z"/>
		<path style="fill:#428DFF;" d="M444.267,124.765c-2.263-0.001-4.433-0.9-6.033-2.5L389.963,73.99c-1.601-1.6-2.5-3.77-2.5-6.033
			c0-2.263,0.899-4.433,2.5-6.033l24.133-24.133c1.6-1.601,3.77-2.5,6.033-2.5s4.434,0.899,6.033,2.5l48.275,48.267
			c1.601,1.6,2.5,3.77,2.5,6.033s-0.899,4.433-2.5,6.033L450.3,122.265C448.7,123.865,446.53,124.764,444.267,124.765
			L444.267,124.765z M408.063,67.956l36.204,36.208l12.071-12.075l-36.208-36.2L408.063,67.956z"/>
		<path style="fill:#428DFF;" d="M214.975,354.048c-2.264,0.003-4.435-0.897-6.033-2.5l-48.271-48.266
			c-3.332-3.332-3.332-8.735,0-12.067c3.332-3.332,8.735-3.332,12.067,0l48.271,48.267c2.44,2.44,3.169,6.11,1.849,9.298
			C221.537,351.968,218.426,354.047,214.975,354.048L214.975,354.048z"/>
		<path style="fill:#428DFF;" d="M136.533,384.223c-3.451-0.001-6.562-2.08-7.882-5.268c-1.32-3.188-0.591-6.858,1.849-9.298
			l12.066-12.067c2.155-2.155,5.297-2.997,8.242-2.208c2.944,0.789,5.244,3.089,6.033,6.033c0.789,2.944-0.053,6.086-2.208,8.242
			l-12.067,12.067C140.968,383.326,138.797,384.226,136.533,384.223L136.533,384.223z"/>
		<path style="fill:#428DFF;" d="M469.333,512.065H8.533c-2.263,0.001-4.434-0.898-6.035-2.499c-1.6-1.6-2.499-3.771-2.499-6.035
			v-460.8c-0.001-2.263,0.898-4.434,2.499-6.035c1.6-1.6,3.771-2.499,6.035-2.499h412.683c3.451,0,6.563,2.079,7.883,5.268
			c1.321,3.189,0.59,6.859-1.85,9.299L174.342,301.681l-13.579,49.775l49.779-13.575L463.3,85.131c2.44-2.441,6.11-3.171,9.299-1.85
			c3.189,1.321,5.268,4.432,5.268,7.883v412.367c0.001,2.263-0.898,4.434-2.499,6.035
			C473.768,511.166,471.597,512.065,469.333,512.065z M17.067,494.998H460.8V111.765L221.008,351.548
			c-1.05,1.05-2.355,1.809-3.787,2.2l-66.375,18.108c-2.954,0.805-6.112-0.034-8.277-2.198c-2.165-2.164-3.005-5.323-2.202-8.276
			l18.104-66.375c0.391-1.434,1.15-2.74,2.2-3.792l239.946-239.95H17.067V494.998z"/>
	</g>
</g>
<g>
</g>
<g>
</g>
<g>
</g>
<g>
</g>
<g>
</g>
<g>
</g>
<g>
</g>
<g>
</g>
<g>
</g>
<g>
</g>
<g>
</g>
<g>
</g>
<g>
</g>
<g>
</g>
<g>
</g>
</svg>
