<?xml version="1.0" encoding="iso-8859-1"?>
<!-- Generator: Adobe Illustrator 19.0.0, SVG Export Plug-In . SVG Version: 6.00 Build 0)  -->
<svg version="1.1" id="Capa_1" xmlns="http://www.w3.org/2000/svg" xmlns:xlink="http://www.w3.org/1999/xlink" x="0px" y="0px"
	 viewBox="0 0 512 512" style="enable-background:new 0 0 512 512;" xml:space="preserve">
<g>
	<path style="fill:#428DFF;" d="M345.825,224.561c-2.382,0.001-4.668-0.946-6.352-2.63c-1.685-1.685-2.631-3.97-2.63-6.352V104.202
		c0-47.553-42.311-86.237-94.316-86.237s-94.316,38.684-94.316,86.237v28.921c0,4.961-4.022,8.982-8.982,8.982
		s-8.982-4.022-8.982-8.982v-28.921C130.246,46.746,180.614,0,242.526,0s112.281,46.746,112.281,104.202v111.377
		c0.001,2.382-0.946,4.668-2.63,6.352C350.492,223.616,348.207,224.562,345.825,224.561L345.825,224.561z"/>
	<rect x="247.018" y="215.579" style="fill:#7FACFA;" width="197.614" height="287.439"/>
	<rect x="67.368" y="215.579" style="fill:#FFFFFF;" width="197.614" height="287.439"/>
	<g>
		<rect x="94.316" y="215.579" style="fill:#A4C2F7;" width="323.368" height="287.439"/>
		<rect x="247.018" y="395.228" style="fill:#A4C2F7;" width="197.614" height="107.789"/>
	</g>
	<rect x="67.368" y="395.228" style="fill:#FFFFFF;" width="197.614" height="107.789"/>
	<rect x="94.316" y="395.228" style="fill:#E3E7F2;" width="323.368" height="107.789"/>
	<g>
		<path style="fill:#428DFF;" d="M444.632,512H67.368c-2.382,0.001-4.668-0.946-6.352-2.63c-1.685-1.685-2.631-3.97-2.63-6.352
			V215.579c-0.001-2.382,0.946-4.668,2.63-6.352c1.685-1.685,3.97-2.631,6.352-2.63h377.263c2.382-0.001,4.668,0.946,6.352,2.63
			c1.685,1.685,2.631,3.97,2.63,6.352v287.439c0.001,2.382-0.946,4.668-2.63,6.352C449.299,511.054,447.014,512.001,444.632,512z
			 M76.351,494.035h359.298V224.561H76.351V494.035z"/>
		<path style="fill:#428DFF;" d="M444.632,512H67.368c-2.382,0.001-4.668-0.946-6.352-2.63c-1.685-1.685-2.631-3.97-2.63-6.352
			V395.228c-0.001-2.382,0.946-4.668,2.63-6.352c1.685-1.685,3.97-2.631,6.352-2.63h377.263c2.382-0.001,4.668,0.946,6.352,2.63
			c1.685,1.685,2.631,3.97,2.63,6.352v107.789c0.001,2.382-0.946,4.668-2.63,6.352C449.299,511.054,447.014,512.001,444.632,512
			L444.632,512z M76.351,494.035h359.298v-89.825H76.351V494.035z"/>
		<path style="fill:#428DFF;" d="M76.351,494.035c-3.632-0.001-6.907-2.189-8.297-5.545c-1.39-3.356-0.622-7.219,1.946-9.788
			l89.825-89.825c3.516-3.453,9.159-3.428,12.644,0.057c3.485,3.485,3.511,9.127,0.057,12.644l-89.825,89.825
			C81.019,493.091,78.734,494.038,76.351,494.035L76.351,494.035z"/>
		<path style="fill:#428DFF;" d="M166.175,512c-3.632-0.001-6.907-2.189-8.297-5.545c-1.39-3.356-0.622-7.219,1.946-9.788
			l107.789-107.789c3.516-3.453,9.159-3.428,12.644,0.057c3.485,3.485,3.511,9.127,0.057,12.644L172.526,509.368
			C170.844,511.056,168.558,512.003,166.175,512L166.175,512z"/>
		<path style="fill:#428DFF;" d="M273.965,512c-3.632-0.001-6.907-2.189-8.297-5.545c-1.39-3.356-0.622-7.219,1.946-9.788
			l107.789-107.789c3.516-3.453,9.159-3.428,12.644,0.057c3.485,3.485,3.511,9.127,0.057,12.644L280.316,509.368
			C278.633,511.056,276.348,512.003,273.965,512z"/>
		<path style="fill:#428DFF;" d="M381.754,512c-3.632-0.001-6.907-2.189-8.297-5.545c-1.39-3.356-0.622-7.219,1.946-9.788
			l62.877-62.877c3.516-3.453,9.159-3.428,12.644,0.057c3.485,3.485,3.511,9.127,0.057,12.644l-62.877,62.877
			C386.423,511.056,384.137,512.003,381.754,512z"/>
	</g>
</g>
<g>
</g>
<g>
</g>
<g>
</g>
<g>
</g>
<g>
</g>
<g>
</g>
<g>
</g>
<g>
</g>
<g>
</g>
<g>
</g>
<g>
</g>
<g>
</g>
<g>
</g>
<g>
</g>
<g>
</g>
</svg>
