<?xml version="1.0" encoding="iso-8859-1"?>
<!-- Generator: Adobe Illustrator 19.0.0, SVG Export Plug-In . SVG Version: 6.00 Build 0)  -->
<svg version="1.1" id="Capa_1" xmlns="http://www.w3.org/2000/svg" xmlns:xlink="http://www.w3.org/1999/xlink" x="0px" y="0px"
	 viewBox="0 0 512 512" style="enable-background:new 0 0 512 512;" xml:space="preserve">
<g>
	<path style="fill:#FFFFFF;" d="M115.949,199.111h121.097c32.618,0,59.06,26.442,59.06,59.06v185.287
		c0,32.618-26.442,59.06-59.06,59.06H115.949c-32.618,0-59.06-26.442-59.06-59.06V258.171
		C56.889,225.553,83.331,199.111,115.949,199.111z"/>
	<path style="fill:#A4C2F7;" d="M274.963,199.111H396.06c32.618,0,59.06,26.442,59.06,59.06v185.287
		c0,32.618-26.442,59.06-59.06,59.06H274.963c-32.618,0-59.06-26.442-59.06-59.06V258.171
		C215.903,225.553,242.345,199.111,274.963,199.111z"/>
	
		<linearGradient id="SVGID_1_" gradientUnits="userSpaceOnUse" x1="-48.778" y1="652.5161" x2="-47.9349" y2="651.5676" gradientTransform="matrix(341.3333 0 0 -303.4074 16761.668 198185.1563)">
		<stop  offset="0" style="stop-color:#D4E1F4"/>
		<stop  offset="0.1717" style="stop-color:#D4E1F4"/>
		<stop  offset="0.2" style="stop-color:#D4E1F4"/>
		<stop  offset="0.2001" style="stop-color:#DAE4F4"/>
		<stop  offset="0.2007" style="stop-color:#EBEBF4"/>
		<stop  offset="0.2014" style="stop-color:#F6F1F4"/>
		<stop  offset="0.2023" style="stop-color:#FDF4F4"/>
		<stop  offset="0.205" style="stop-color:#FFF5F4"/>
		<stop  offset="0.2522" style="stop-color:#FFF5F4"/>
		<stop  offset="0.26" style="stop-color:#FFF5F4"/>
		<stop  offset="0.26" style="stop-color:#D4E1F4"/>
		<stop  offset="0.3974" style="stop-color:#D4E1F4"/>
		<stop  offset="0.42" style="stop-color:#D4E1F4"/>
		<stop  offset="0.4201" style="stop-color:#DAE4F4"/>
		<stop  offset="0.4207" style="stop-color:#EBEBF4"/>
		<stop  offset="0.4214" style="stop-color:#F6F1F4"/>
		<stop  offset="0.4223" style="stop-color:#FDF4F4"/>
		<stop  offset="0.425" style="stop-color:#FFF5F4"/>
		<stop  offset="0.4894" style="stop-color:#FFF5F4"/>
		<stop  offset="0.5" style="stop-color:#FFF5F4"/>
		<stop  offset="0.5" style="stop-color:#F9F2F4"/>
		<stop  offset="0.5001" style="stop-color:#E8EBF4"/>
		<stop  offset="0.5003" style="stop-color:#DDE5F4"/>
		<stop  offset="0.5005" style="stop-color:#D6E2F4"/>
		<stop  offset="0.501" style="stop-color:#D4E1F4"/>
		<stop  offset="0.7062" style="stop-color:#D4E1F4"/>
		<stop  offset="0.74" style="stop-color:#D4E1F4"/>
		<stop  offset="0.741" style="stop-color:#FFF5F4"/>
		<stop  offset="0.8346" style="stop-color:#FFF5F4"/>
		<stop  offset="0.85" style="stop-color:#FFF5F4"/>
		<stop  offset="0.851" style="stop-color:#D4E1F4"/>
	</linearGradient>
	<path style="fill:url(#SVGID_1_);" d="M144.393,199.111h223.213c32.618,0,59.06,26.442,59.06,59.06v185.287
		c0,32.618-26.442,59.06-59.06,59.06H144.393c-32.618,0-59.06-26.442-59.06-59.06V258.171
		C85.333,225.553,111.775,199.111,144.393,199.111z"/>
	<path style="fill:#7FACFA;" d="M256,274.963L256,274.963c15.709,0,28.444,12.735,28.444,28.444v56.889
		c0,15.709-12.735,28.444-28.444,28.444l0,0c-15.709,0-28.444-12.735-28.444-28.444v-56.889
		C227.556,287.698,240.291,274.963,256,274.963z"/>
	<path style="fill:#A4C2F7;" d="M237.639,276.907c-1.648,3.027-4.861,4.867-8.306,4.757c-0.603-0.064-1.198-0.185-1.778-0.361
		v96.708c0.218-0.012,0.367-0.12,0.592-0.12c5.086-0.15,9.371,3.768,9.677,8.847c10.917-4.241,18.127-14.73,18.175-26.442v-56.889
		C255.949,291.627,248.651,281.093,237.639,276.907L237.639,276.907z"/>
	<g>
		<path style="fill:#428DFF;" d="M396.056,512H115.954c-37.836-0.042-68.499-30.701-68.546-68.537V258.176
			c0.043-37.839,30.707-68.503,68.546-68.546h280.102c37.836,0.047,68.495,30.71,68.537,68.546v185.287
			C464.547,481.296,433.888,511.954,396.056,512z M115.954,208.593c-27.372,0.029-49.554,22.211-49.583,49.583v185.287
			c0.033,27.369,22.215,49.546,49.583,49.574h280.102c27.366-0.032,49.542-22.208,49.574-49.574V258.176
			c-0.028-27.369-22.205-49.55-49.574-49.583H115.954z"/>
		<path style="fill:#428DFF;" d="M256,398.222c-20.937-0.021-37.905-16.989-37.926-37.926v-56.889
			c0-20.946,16.98-37.926,37.926-37.926s37.926,16.98,37.926,37.926v56.889C293.905,381.234,276.937,398.201,256,398.222
			L256,398.222z M256,284.444c-10.467,0.014-18.949,8.496-18.963,18.963v56.889c0,10.473,8.49,18.963,18.963,18.963
			s18.963-8.49,18.963-18.963v-56.889C274.949,292.94,266.467,284.458,256,284.444L256,284.444z"/>
		<path style="fill:#428DFF;" d="M398.222,208.593c-2.515,0.001-4.928-0.997-6.706-2.775c-1.778-1.778-2.777-4.191-2.775-6.706
			v-61.63c0-65.352-59.546-118.519-132.741-118.519c-71.954,0-132.741,56.444-132.741,123.259c0,5.236-4.245,9.481-9.481,9.481
			s-9.481-4.245-9.481-9.481C104.296,65.13,173.769,0,256,0c83.648,0,151.704,61.676,151.704,137.481v61.63
			c0.001,2.515-0.997,4.928-2.775,6.706C403.15,207.596,400.737,208.594,398.222,208.593L398.222,208.593z"/>
	</g>
</g>
<g>
</g>
<g>
</g>
<g>
</g>
<g>
</g>
<g>
</g>
<g>
</g>
<g>
</g>
<g>
</g>
<g>
</g>
<g>
</g>
<g>
</g>
<g>
</g>
<g>
</g>
<g>
</g>
<g>
</g>
</svg>
