<?xml version="1.0" encoding="iso-8859-1"?>
<!-- Generator: Adobe Illustrator 19.0.0, SVG Export Plug-In . SVG Version: 6.00 Build 0)  -->
<svg version="1.1" id="Capa_1" xmlns="http://www.w3.org/2000/svg" xmlns:xlink="http://www.w3.org/1999/xlink" x="0px" y="0px"
	 viewBox="0 0 512 512" style="enable-background:new 0 0 512 512;" xml:space="preserve">
<g>
	<path style="fill:#FFFFFF;" d="M256,503.172c-92.631,0-167.724-75.093-167.724-167.724S163.369,167.724,256,167.724V503.172z"/>
	<path style="fill:#A4C2F7;" d="M256,167.724c92.631,0,167.724,75.093,167.724,167.724S348.631,503.172,256,503.172V167.724z"/>
	
		<linearGradient id="SVGID_1_" gradientUnits="userSpaceOnUse" x1="-48.7147" y1="652.4125" x2="-47.9384" y2="651.7588" gradientTransform="matrix(282.4828 0 0 -335.4483 13907.4131 219076.4531)">
		<stop  offset="0" style="stop-color:#D4E1F4"/>
		<stop  offset="0.1717" style="stop-color:#D4E1F4"/>
		<stop  offset="0.2" style="stop-color:#D4E1F4"/>
		<stop  offset="0.2001" style="stop-color:#DAE4F4"/>
		<stop  offset="0.2007" style="stop-color:#EBEBF4"/>
		<stop  offset="0.2014" style="stop-color:#F6F1F4"/>
		<stop  offset="0.2023" style="stop-color:#FDF4F4"/>
		<stop  offset="0.205" style="stop-color:#FFF5F4"/>
		<stop  offset="0.2522" style="stop-color:#FFF5F4"/>
		<stop  offset="0.26" style="stop-color:#FFF5F4"/>
		<stop  offset="0.26" style="stop-color:#D4E1F4"/>
		<stop  offset="0.3974" style="stop-color:#D4E1F4"/>
		<stop  offset="0.42" style="stop-color:#D4E1F4"/>
		<stop  offset="0.4201" style="stop-color:#DAE4F4"/>
		<stop  offset="0.4207" style="stop-color:#EBEBF4"/>
		<stop  offset="0.4214" style="stop-color:#F6F1F4"/>
		<stop  offset="0.4223" style="stop-color:#FDF4F4"/>
		<stop  offset="0.425" style="stop-color:#FFF5F4"/>
		<stop  offset="0.4894" style="stop-color:#FFF5F4"/>
		<stop  offset="0.5" style="stop-color:#FFF5F4"/>
		<stop  offset="0.5" style="stop-color:#F9F2F4"/>
		<stop  offset="0.5001" style="stop-color:#E8EBF4"/>
		<stop  offset="0.5003" style="stop-color:#DDE5F4"/>
		<stop  offset="0.5005" style="stop-color:#D6E2F4"/>
		<stop  offset="0.501" style="stop-color:#D4E1F4"/>
		<stop  offset="0.7062" style="stop-color:#D4E1F4"/>
		<stop  offset="0.74" style="stop-color:#D4E1F4"/>
		<stop  offset="0.741" style="stop-color:#FFF5F4"/>
		<stop  offset="0.8346" style="stop-color:#FFF5F4"/>
		<stop  offset="0.85" style="stop-color:#FFF5F4"/>
		<stop  offset="0.851" style="stop-color:#D4E1F4"/>
	</linearGradient>
	<ellipse style="fill:url(#SVGID_1_);" cx="256" cy="335.448" rx="141.241" ry="167.724"/>
	<path style="fill:#7FACFA;" d="M256,273.655L256,273.655c14.626,0,26.483,11.857,26.483,26.483v52.966
		c0,14.626-11.857,26.483-26.483,26.483l0,0c-14.626,0-26.483-11.857-26.483-26.483v-52.966
		C229.517,285.512,241.374,273.655,256,273.655z"/>
	<path style="fill:#A4C2F7;" d="M239.863,275.778c-0.637,4.373-4.457,7.57-8.874,7.427c-0.498-0.058-0.99-0.159-1.471-0.3v84.489
		c2.866-0.857,5.971-0.124,8.151,1.924c2.18,2.048,3.106,5.101,2.431,8.015c9.629-4.217,15.864-13.717,15.9-24.23v-52.966
		C255.969,289.524,249.624,279.947,239.863,275.778L239.863,275.778z"/>
	<g>
		<path style="fill:#428DFF;" d="M256,388.414c-19.493-0.019-35.291-15.817-35.31-35.31v-52.966c0-19.501,15.809-35.31,35.31-35.31
			s35.31,15.809,35.31,35.31v52.966C291.291,372.597,275.493,388.394,256,388.414L256,388.414z M256,282.483
			c-9.745,0.013-17.643,7.91-17.655,17.655v52.966c0,9.751,7.904,17.655,17.655,17.655c9.751,0,17.655-7.904,17.655-17.655v-52.966
			C273.643,290.392,265.745,282.495,256,282.483L256,282.483z"/>
		<path style="fill:#428DFF;" d="M256,512c-97.507,0-176.552-79.045-176.552-176.552S158.493,158.897,256,158.897
			s176.552,79.045,176.552,176.552C432.443,432.91,353.462,511.892,256,512z M256,176.552c-87.756,0-158.897,71.14-158.897,158.897
			S168.244,494.345,256,494.345s158.897-71.14,158.897-158.897C414.795,247.734,343.714,176.654,256,176.552z"/>
		<path style="fill:#428DFF;" d="M344.276,201.853c-2.342,0.001-4.588-0.928-6.244-2.584c-1.656-1.656-2.585-3.902-2.584-6.244
			V90.216c0-40.009-35.638-72.56-79.448-72.56c-44.552,0-79.448,31.017-79.448,70.621c0,4.875-3.952,8.828-8.828,8.828
			c-4.875,0-8.828-3.952-8.828-8.828C158.897,38.776,201.551,0,256,0c53.543,0,97.103,40.474,97.103,90.216v102.81
			c0.001,2.342-0.928,4.588-2.584,6.244C348.864,200.925,346.617,201.855,344.276,201.853L344.276,201.853z"/>
	</g>
</g>
<g>
</g>
<g>
</g>
<g>
</g>
<g>
</g>
<g>
</g>
<g>
</g>
<g>
</g>
<g>
</g>
<g>
</g>
<g>
</g>
<g>
</g>
<g>
</g>
<g>
</g>
<g>
</g>
<g>
</g>
</svg>
