<?xml version="1.0" encoding="iso-8859-1"?>
<!-- Generator: Adobe Illustrator 19.0.0, SVG Export Plug-In . SVG Version: 6.00 Build 0)  -->
<svg version="1.1" id="Capa_1" xmlns="http://www.w3.org/2000/svg" xmlns:xlink="http://www.w3.org/1999/xlink" x="0px" y="0px"
	 viewBox="0 0 512 512" style="enable-background:new 0 0 512 512;" xml:space="preserve">
<g>
	<path style="fill:#FFFFFF;" d="M256,503.172c-92.631,0-167.724-75.093-167.724-167.724S163.369,167.724,256,167.724V503.172z"/>
	<path style="fill:#A4C2F7;" d="M256,167.724c92.631,0,167.724,75.093,167.724,167.724S348.631,503.172,256,503.172V167.724z"/>
	
		<linearGradient id="SVGID_1_" gradientUnits="userSpaceOnUse" x1="-48.7147" y1="652.4125" x2="-47.9384" y2="651.7588" gradientTransform="matrix(282.4828 0 0 -335.4483 13907.4131 219076.4531)">
		<stop  offset="0" style="stop-color:#D4E1F4"/>
		<stop  offset="0.1717" style="stop-color:#D4E1F4"/>
		<stop  offset="0.2" style="stop-color:#D4E1F4"/>
		<stop  offset="0.2001" style="stop-color:#DAE4F4"/>
		<stop  offset="0.2007" style="stop-color:#EBEBF4"/>
		<stop  offset="0.2014" style="stop-color:#F6F1F4"/>
		<stop  offset="0.2023" style="stop-color:#FDF4F4"/>
		<stop  offset="0.205" style="stop-color:#FFF5F4"/>
		<stop  offset="0.2522" style="stop-color:#FFF5F4"/>
		<stop  offset="0.26" style="stop-color:#FFF5F4"/>
		<stop  offset="0.26" style="stop-color:#D4E1F4"/>
		<stop  offset="0.3974" style="stop-color:#D4E1F4"/>
		<stop  offset="0.42" style="stop-color:#D4E1F4"/>
		<stop  offset="0.4201" style="stop-color:#DAE4F4"/>
		<stop  offset="0.4207" style="stop-color:#EBEBF4"/>
		<stop  offset="0.4214" style="stop-color:#F6F1F4"/>
		<stop  offset="0.4223" style="stop-color:#FDF4F4"/>
		<stop  offset="0.425" style="stop-color:#FFF5F4"/>
		<stop  offset="0.4894" style="stop-color:#FFF5F4"/>
		<stop  offset="0.5" style="stop-color:#FFF5F4"/>
		<stop  offset="0.5" style="stop-color:#F9F2F4"/>
		<stop  offset="0.5001" style="stop-color:#E8EBF4"/>
		<stop  offset="0.5003" style="stop-color:#DDE5F4"/>
		<stop  offset="0.5005" style="stop-color:#D6E2F4"/>
		<stop  offset="0.501" style="stop-color:#D4E1F4"/>
		<stop  offset="0.7062" style="stop-color:#D4E1F4"/>
		<stop  offset="0.74" style="stop-color:#D4E1F4"/>
		<stop  offset="0.741" style="stop-color:#FFF5F4"/>
		<stop  offset="0.8346" style="stop-color:#FFF5F4"/>
		<stop  offset="0.85" style="stop-color:#FFF5F4"/>
		<stop  offset="0.851" style="stop-color:#D4E1F4"/>
	</linearGradient>
	<ellipse style="fill:url(#SVGID_1_);" cx="256" cy="335.448" rx="141.241" ry="167.724"/>
	<path style="fill:#428DFF;" d="M256,512c-97.507,0-176.552-79.045-176.552-176.552S158.493,158.897,256,158.897
		s176.552,79.045,176.552,176.552C432.443,432.91,353.462,511.892,256,512z M256,176.552c-87.756,0-158.897,71.14-158.897,158.897
		S168.244,494.345,256,494.345s158.897-71.14,158.897-158.897C414.795,247.734,343.714,176.654,256,176.552z"/>
	<circle style="fill:#7FACFA;" cx="256" cy="335.448" r="70.621"/>
	<ellipse style="fill:#A4C2F7;" cx="242.759" cy="335.448" rx="57.379" ry="70.621"/>
	<g>
		<path style="fill:#428DFF;" d="M344.276,201.853c-2.342,0.001-4.588-0.928-6.244-2.584c-1.656-1.656-2.585-3.902-2.584-6.244
			V90.216c0-40.009-35.638-72.56-79.448-72.56s-79.448,32.552-79.448,72.56v102.81c0,4.875-3.952,8.828-8.828,8.828
			c-4.875,0-8.828-3.952-8.828-8.828V90.216C158.897,40.474,202.457,0,256,0s97.103,40.474,97.103,90.216v102.81
			c0.001,2.342-0.928,4.588-2.584,6.244C348.864,200.925,346.617,201.855,344.276,201.853z"/>
		<path style="fill:#428DFF;" d="M256,414.897c-43.878,0-79.448-35.57-79.448-79.448S212.122,256,256,256
			s79.448,35.57,79.448,79.448C335.4,379.307,299.858,414.849,256,414.897L256,414.897z M256,273.655
			c-34.127,0-61.793,27.666-61.793,61.793s27.666,61.793,61.793,61.793s61.793-27.666,61.793-61.793
			C317.752,301.338,290.11,273.696,256,273.655L256,273.655z"/>
		<path style="fill:#428DFF;" d="M256,273.655c-2.342,0.001-4.588-0.928-6.244-2.584c-1.656-1.656-2.585-3.902-2.584-6.244v-35.31
			c0-4.875,3.952-8.828,8.828-8.828s8.828,3.952,8.828,8.828v35.31c0.001,2.342-0.928,4.588-2.584,6.244
			C260.588,272.727,258.342,273.656,256,273.655z"/>
		<path style="fill:#428DFF;" d="M256,450.207c-2.342,0.001-4.588-0.928-6.244-2.584s-2.585-3.902-2.584-6.244v-35.31
			c0-4.875,3.952-8.828,8.828-8.828s8.828,3.952,8.828,8.828v35.31c0.001,2.342-0.928,4.588-2.584,6.244
			C260.588,449.279,258.342,450.208,256,450.207z"/>
		<path style="fill:#428DFF;" d="M330.905,419.181c-2.342,0.003-4.588-0.928-6.241-2.587l-24.966-24.965
			c-3.447-3.447-3.447-9.036,0-12.483c3.447-3.447,9.036-3.447,12.483,0l24.965,24.965c2.524,2.525,3.279,6.321,1.913,9.619
			C337.693,417.029,334.475,419.18,330.905,419.181L330.905,419.181z"/>
		<path style="fill:#428DFF;" d="M181.095,419.181c-3.57-0.001-6.788-2.152-8.154-5.45s-0.611-7.094,1.913-9.619l24.965-24.965
			c2.23-2.23,5.48-3.101,8.526-2.284c3.046,0.816,5.425,3.195,6.241,6.241c0.816,3.046-0.055,6.296-2.285,8.526l-24.965,24.965
			C185.683,418.253,183.437,419.184,181.095,419.181L181.095,419.181z"/>
		<path style="fill:#428DFF;" d="M305.94,294.336c-3.57-0.001-6.788-2.152-8.154-5.45c-1.366-3.298-0.611-7.094,1.913-9.619
			l24.965-24.965c3.447-3.447,9.036-3.447,12.483,0c3.447,3.447,3.447,9.036,0,12.483l-24.966,24.965
			C310.528,293.408,308.281,294.339,305.94,294.336L305.94,294.336z"/>
		<path style="fill:#428DFF;" d="M206.06,294.336c-2.342,0.003-4.588-0.928-6.241-2.586l-24.965-24.965
			c-3.447-3.447-3.447-9.036,0-12.483c3.447-3.447,9.036-3.447,12.483,0l24.965,24.965c2.524,2.525,3.279,6.321,1.913,9.619
			S209.631,294.335,206.06,294.336L206.06,294.336z"/>
		<path style="fill:#428DFF;" d="M361.931,344.276h-35.31c-4.875,0-8.828-3.952-8.828-8.828s3.952-8.828,8.828-8.828h35.31
			c4.875,0,8.828,3.952,8.828,8.828S366.806,344.276,361.931,344.276z"/>
		<path style="fill:#428DFF;" d="M185.379,344.276h-35.31c-4.875,0-8.828-3.952-8.828-8.828s3.952-8.828,8.828-8.828h35.31
			c4.875,0,8.828,3.952,8.828,8.828S190.255,344.276,185.379,344.276z"/>
	</g>
</g>
<g>
</g>
<g>
</g>
<g>
</g>
<g>
</g>
<g>
</g>
<g>
</g>
<g>
</g>
<g>
</g>
<g>
</g>
<g>
</g>
<g>
</g>
<g>
</g>
<g>
</g>
<g>
</g>
<g>
</g>
</svg>
