<?xml version="1.0" encoding="iso-8859-1"?>
<!-- Generator: Adobe Illustrator 19.0.0, SVG Export Plug-In . SVG Version: 6.00 Build 0)  -->
<svg version="1.1" id="Capa_1" xmlns="http://www.w3.org/2000/svg" xmlns:xlink="http://www.w3.org/1999/xlink" x="0px" y="0px"
	 viewBox="0 0 512 512" style="enable-background:new 0 0 512 512;" xml:space="preserve">
<g>
	<rect x="8.828" y="61.793" style="fill:#FFFFFF;" width="264.828" height="388.414"/>
	<rect x="238.345" y="61.793" style="fill:#A4C2F7;" width="264.828" height="388.414"/>
	<rect x="35.31" y="61.793" style="fill:#E3E7F2;" width="441.379" height="388.414"/>
	<polygon style="fill:#7FACFA;" points="220.69,317.793 220.69,255.594 220.69,194.207 317.793,256 	"/>
	<path style="fill:#A4C2F7;" d="M282.483,256l-63.192-40.213c-0.049,0.237-0.052,0.498-0.097,0.737
		c0.046,2.062,0.066,4.122,0.008,6.228c-0.689,4.43,0.014,8.965,2.01,12.98c2.396,3.325,1.984,7.907-0.967,10.751
		c1.131,6.929,1.887,13.914,2.264,20.925c0.191,9.212-0.241,18.427-1.293,27.581L282.483,256z"/>
	<rect x="414.897" y="61.793" style="fill:#7FACFA;" width="88.276" height="97.103"/>
	<g>
		<rect x="414.897" y="61.793" style="fill:#A4C2F7;" width="61.793" height="97.103"/>
		<rect x="35.31" y="61.793" style="fill:#A4C2F7;" width="61.793" height="97.103"/>
		<rect x="35.31" y="256" style="fill:#A4C2F7;" width="61.793" height="97.103"/>
	</g>
	<rect x="414.897" y="256" style="fill:#7FACFA;" width="88.276" height="97.103"/>
	<rect x="414.897" y="256" style="fill:#A4C2F7;" width="61.793" height="97.103"/>
	<g>
		<path style="fill:#428DFF;" d="M503.172,459.034H8.828c-2.341,0.001-4.587-0.929-6.243-2.585
			c-1.656-1.656-2.585-3.901-2.585-6.243V61.793c-0.001-2.341,0.929-4.587,2.585-6.243s3.901-2.585,6.243-2.585h494.345
			c2.341-0.001,4.587,0.929,6.243,2.585c1.656,1.656,2.585,3.901,2.585,6.243v388.414c0.001,2.341-0.929,4.587-2.585,6.243
			C507.759,458.105,505.514,459.035,503.172,459.034z M17.655,441.379h476.69V70.621H17.655V441.379z"/>
		<path style="fill:#428DFF;" d="M220.69,326.621c-2.342,0.003-4.589-0.926-6.245-2.583c-1.656-1.656-2.585-3.903-2.583-6.245
			V194.207c-0.002-3.223,1.753-6.191,4.579-7.742c2.826-1.551,6.272-1.438,8.99,0.294l97.103,61.793
			c2.545,1.622,4.086,4.43,4.086,7.448s-1.541,5.827-4.086,7.448l-97.103,61.793C224.013,326.141,222.369,326.619,220.69,326.621z
			 M229.517,210.284v91.431L301.349,256L229.517,210.284z"/>
		<path style="fill:#428DFF;" d="M97.103,167.724H8.828c-2.341,0.001-4.587-0.929-6.243-2.585s-2.585-3.901-2.585-6.243V61.793
			c-0.001-2.341,0.929-4.587,2.585-6.243s3.901-2.585,6.243-2.585h88.276c2.341-0.001,4.587,0.929,6.243,2.585
			c1.656,1.656,2.585,3.901,2.585,6.243v97.103c0.001,2.341-0.929,4.587-2.585,6.243C101.691,166.795,99.445,167.725,97.103,167.724
			L97.103,167.724z M17.655,150.069h70.621V70.621H17.655V150.069z"/>
		<path style="fill:#428DFF;" d="M97.103,264.828H8.828c-2.341,0.001-4.587-0.929-6.243-2.585C0.929,260.587-0.001,258.341,0,256
			v-97.103c-0.001-2.341,0.929-4.587,2.585-6.243c1.656-1.656,3.901-2.585,6.243-2.585h88.276c2.341-0.001,4.587,0.929,6.243,2.585
			c1.656,1.656,2.585,3.901,2.585,6.243V256c0.001,2.341-0.929,4.587-2.585,6.243C101.691,263.898,99.445,264.828,97.103,264.828z
			 M17.655,247.172h70.621v-79.448H17.655V247.172z"/>
		<path style="fill:#428DFF;" d="M97.103,361.931H8.828c-2.341,0.001-4.587-0.929-6.243-2.585c-1.656-1.656-2.585-3.901-2.585-6.243
			V256c-0.001-2.341,0.929-4.587,2.585-6.243c1.656-1.656,3.901-2.585,6.243-2.585h88.276c2.341-0.001,4.587,0.929,6.243,2.585
			c1.656,1.656,2.585,3.901,2.585,6.243v97.103c0.001,2.341-0.929,4.587-2.585,6.243C101.691,361.002,99.445,361.932,97.103,361.931
			L97.103,361.931z M17.655,344.276h70.621v-79.448H17.655V344.276z"/>
		<path style="fill:#428DFF;" d="M97.103,459.034H8.828c-2.341,0.001-4.587-0.929-6.243-2.585c-1.656-1.656-2.585-3.901-2.585-6.243
			v-97.103c-0.001-2.341,0.929-4.587,2.585-6.243c1.656-1.656,3.901-2.585,6.243-2.585h88.276c2.341-0.001,4.587,0.929,6.243,2.585
			c1.656,1.656,2.585,3.901,2.585,6.243v97.103c0.001,2.341-0.929,4.587-2.585,6.243C101.691,458.105,99.445,459.035,97.103,459.034
			z M17.655,441.379h70.621v-79.448H17.655V441.379z"/>
		<path style="fill:#428DFF;" d="M503.172,167.724h-88.276c-2.341,0.001-4.587-0.929-6.243-2.585s-2.585-3.901-2.585-6.243V61.793
			c-0.001-2.341,0.929-4.587,2.585-6.243s3.901-2.585,6.243-2.585h88.276c2.341-0.001,4.587,0.929,6.243,2.585
			c1.656,1.656,2.585,3.901,2.585,6.243v97.103c0.001,2.341-0.929,4.587-2.585,6.243
			C507.759,166.795,505.514,167.725,503.172,167.724L503.172,167.724z M423.724,150.069h70.621V70.621h-70.621V150.069z"/>
		<path style="fill:#428DFF;" d="M503.172,264.828h-88.276c-2.341,0.001-4.587-0.929-6.243-2.585
			c-1.656-1.656-2.585-3.901-2.585-6.243v-97.103c-0.001-2.341,0.929-4.587,2.585-6.243c1.656-1.656,3.901-2.585,6.243-2.585h88.276
			c2.341-0.001,4.587,0.929,6.243,2.585c1.656,1.656,2.585,3.901,2.585,6.243V256c0.001,2.341-0.929,4.587-2.585,6.243
			C507.759,263.898,505.514,264.828,503.172,264.828z M423.724,247.172h70.621v-79.448h-70.621V247.172z"/>
		<path style="fill:#428DFF;" d="M503.172,361.931h-88.276c-2.341,0.001-4.587-0.929-6.243-2.585
			c-1.656-1.656-2.585-3.901-2.585-6.243V256c-0.001-2.341,0.929-4.587,2.585-6.243c1.656-1.656,3.901-2.585,6.243-2.585h88.276
			c2.341-0.001,4.587,0.929,6.243,2.585c1.656,1.656,2.585,3.901,2.585,6.243v97.103c0.001,2.341-0.929,4.587-2.585,6.243
			C507.759,361.002,505.514,361.932,503.172,361.931L503.172,361.931z M423.724,344.276h70.621v-79.448h-70.621V344.276z"/>
		<path style="fill:#428DFF;" d="M503.172,459.034h-88.276c-2.341,0.001-4.587-0.929-6.243-2.585
			c-1.656-1.656-2.585-3.901-2.585-6.243v-97.103c-0.001-2.341,0.929-4.587,2.585-6.243c1.656-1.656,3.901-2.585,6.243-2.585h88.276
			c2.341-0.001,4.587,0.929,6.243,2.585c1.656,1.656,2.585,3.901,2.585,6.243v97.103c0.001,2.341-0.929,4.587-2.585,6.243
			C507.759,458.105,505.514,459.035,503.172,459.034z M423.724,441.379h70.621v-79.448h-70.621V441.379z"/>
	</g>
</g>
<g>
</g>
<g>
</g>
<g>
</g>
<g>
</g>
<g>
</g>
<g>
</g>
<g>
</g>
<g>
</g>
<g>
</g>
<g>
</g>
<g>
</g>
<g>
</g>
<g>
</g>
<g>
</g>
<g>
</g>
</svg>
