<?xml version="1.0" encoding="iso-8859-1"?>
<!-- Generator: Adobe Illustrator 19.0.0, SVG Export Plug-In . SVG Version: 6.00 Build 0)  -->
<svg version="1.1" id="Capa_1" xmlns="http://www.w3.org/2000/svg" xmlns:xlink="http://www.w3.org/1999/xlink" x="0px" y="0px"
	 viewBox="0 0 512 512" style="enable-background:new 0 0 512 512;" xml:space="preserve">
<g>
	<path style="fill:#A4C2F7;" d="M264.828,8.828h185.079c19.667,0,35.61,15.943,35.61,35.61v423.124
		c0,19.667-15.943,35.611-35.61,35.611H264.828V8.828z"/>
	<path style="fill:#FFFFFF;" d="M61.793,8.828h185.079c19.667,0,35.61,15.943,35.61,35.61v423.124
		c0,19.667-15.943,35.611-35.61,35.611H61.793V8.828z"/>
	<path style="fill:#E3E7F2;" d="M88.276,8.828h335.148c19.667,0,35.611,15.943,35.611,35.61v423.124
		c0,19.667-15.943,35.611-35.611,35.611H88.276V8.828z"/>
	<rect x="388.414" y="8.828" style="fill:#A4C2F7;" width="44.138" height="494.318"/>
	<g>
		<path style="fill:#428DFF;" d="M61.793,467.862c-2.341,0.001-4.587-0.929-6.243-2.585c-1.656-1.656-2.585-3.901-2.585-6.243
			v-26.483c0-4.875,3.952-8.828,8.828-8.828s8.828,3.952,8.828,8.828v26.483c0.001,2.341-0.929,4.587-2.585,6.243
			C66.38,466.933,64.135,467.863,61.793,467.862L61.793,467.862z"/>
		<path style="fill:#428DFF;" d="M158.897,512H61.793c-2.341,0.001-4.587-0.929-6.243-2.585c-1.656-1.656-2.585-3.901-2.585-6.243
			v-44.138c0-4.875,3.952-8.828,8.828-8.828s8.828,3.952,8.828,8.828v35.31h79.448V17.655H70.621v52.966
			c0,4.875-3.952,8.828-8.828,8.828s-8.828-3.952-8.828-8.828V8.828c-0.001-2.341,0.929-4.587,2.585-6.243S59.452-0.001,61.793,0
			h97.103c2.341-0.001,4.587,0.929,6.243,2.585c1.656,1.656,2.585,3.901,2.585,6.243v494.345c0.001,2.341-0.929,4.587-2.585,6.243
			C163.484,511.071,161.238,512.001,158.897,512z"/>
		<path style="fill:#428DFF;" d="M61.793,467.862c-24.377,0-44.138-19.761-44.138-44.138c0-24.377,19.761-44.138,44.138-44.138
			s44.138,19.761,44.138,44.138c0,4.875-3.952,8.828-8.828,8.828s-8.828-3.952-8.828-8.828c0-14.626-11.857-26.483-26.483-26.483
			S35.31,409.098,35.31,423.724c0,14.626,11.857,26.483,26.483,26.483c4.875,0,8.828,3.952,8.828,8.828
			S66.668,467.862,61.793,467.862z"/>
		<path style="fill:#428DFF;" d="M97.103,379.586c-2.341,0.001-4.587-0.929-6.243-2.585c-1.656-1.656-2.585-3.901-2.585-6.243
			c0-14.626-11.857-26.483-26.483-26.483S35.31,356.133,35.31,370.759c0,4.875-3.952,8.828-8.828,8.828s-8.828-3.952-8.828-8.828
			c0-24.377,19.761-44.138,44.138-44.138s44.138,19.761,44.138,44.138c0.001,2.341-0.929,4.587-2.585,6.243
			C101.691,378.657,99.445,379.587,97.103,379.586L97.103,379.586z"/>
		<path style="fill:#428DFF;" d="M97.103,326.621c-2.341,0.001-4.587-0.929-6.243-2.585c-1.656-1.656-2.585-3.901-2.585-6.243
			c0-14.626-11.857-26.483-26.483-26.483S35.31,303.167,35.31,317.793c0,4.875-3.952,8.828-8.828,8.828s-8.828-3.952-8.828-8.828
			c0-24.377,19.761-44.138,44.138-44.138s44.138,19.761,44.138,44.138c0.001,2.341-0.929,4.587-2.585,6.243
			C101.691,325.691,99.445,326.621,97.103,326.621z"/>
		<path style="fill:#428DFF;" d="M97.103,273.655c-2.341,0.001-4.587-0.929-6.243-2.585c-1.656-1.656-2.585-3.901-2.585-6.243
			c0-14.626-11.857-26.483-26.483-26.483S35.31,250.202,35.31,264.828c0,4.875-3.952,8.828-8.828,8.828s-8.828-3.952-8.828-8.828
			c0-24.377,19.761-44.138,44.138-44.138s44.138,19.761,44.138,44.138c0.001,2.341-0.929,4.587-2.585,6.243
			C101.691,272.726,99.445,273.656,97.103,273.655z"/>
		<path style="fill:#428DFF;" d="M97.103,220.69c-2.341,0.001-4.587-0.929-6.243-2.585c-1.656-1.656-2.585-3.901-2.585-6.243
			c0-14.626-11.857-26.483-26.483-26.483S35.31,197.236,35.31,211.862c0,4.875-3.952,8.828-8.828,8.828s-8.828-3.952-8.828-8.828
			c0-24.377,19.761-44.138,44.138-44.138s44.138,19.761,44.138,44.138c0.001,2.341-0.929,4.587-2.585,6.243
			C101.691,219.76,99.445,220.69,97.103,220.69z"/>
		<path style="fill:#428DFF;" d="M97.103,167.724c-2.341,0.001-4.587-0.929-6.243-2.585c-1.656-1.656-2.585-3.901-2.585-6.243
			c0-14.626-11.857-26.483-26.483-26.483S35.31,144.271,35.31,158.897c0,4.875-3.952,8.828-8.828,8.828s-8.828-3.952-8.828-8.828
			c0-24.377,19.761-44.138,44.138-44.138s44.138,19.761,44.138,44.138c0.001,2.341-0.929,4.587-2.585,6.243
			C101.691,166.795,99.445,167.725,97.103,167.724z"/>
		<path style="fill:#428DFF;" d="M97.103,114.759c-2.341,0.001-4.587-0.929-6.243-2.585c-1.656-1.656-2.585-3.901-2.585-6.243
			c0-14.626-11.857-26.483-26.483-26.483S35.31,91.305,35.31,105.931c0,4.875-3.952,8.828-8.828,8.828s-8.828-3.952-8.828-8.828
			c0-24.377,19.761-44.138,44.138-44.138s44.138,19.761,44.138,44.138c0.001,2.341-0.929,4.587-2.585,6.243
			C101.691,113.829,99.445,114.759,97.103,114.759L97.103,114.759z"/>
		<path style="fill:#428DFF;" d="M459.065,512H158.897c-2.341,0.001-4.587-0.929-6.243-2.585c-1.656-1.656-2.585-3.901-2.585-6.243
			V8.862c-0.001-2.341,0.929-4.587,2.585-6.243c1.656-1.656,3.901-2.585,6.243-2.585h300.168
			c19.474,0.022,35.256,15.802,35.28,35.276v441.414C494.32,496.198,478.538,511.978,459.065,512z M167.724,494.345h291.341
			c9.728-0.01,17.613-7.892,17.625-17.621V35.31c-0.012-9.728-7.897-17.611-17.625-17.621H167.724V494.345z"/>
		<path style="fill:#428DFF;" d="M432.552,512h-44.138c-2.341,0.001-4.587-0.929-6.243-2.585c-1.656-1.656-2.585-3.901-2.585-6.243
			V8.862c-0.001-2.341,0.929-4.587,2.585-6.243c1.656-1.656,3.901-2.585,6.243-2.585h44.138c2.341-0.001,4.587,0.929,6.243,2.585
			c1.656,1.656,2.585,3.901,2.585,6.243v494.31c0.001,2.341-0.929,4.587-2.585,6.243C437.139,511.071,434.893,512.001,432.552,512
			L432.552,512z M397.241,494.345h26.483V17.69h-26.483V494.345z"/>
	</g>
</g>
<g>
</g>
<g>
</g>
<g>
</g>
<g>
</g>
<g>
</g>
<g>
</g>
<g>
</g>
<g>
</g>
<g>
</g>
<g>
</g>
<g>
</g>
<g>
</g>
<g>
</g>
<g>
</g>
<g>
</g>
</svg>
