<?xml version="1.0" encoding="iso-8859-1"?>
<!-- Generator: Adobe Illustrator 19.0.0, SVG Export Plug-In . SVG Version: 6.00 Build 0)  -->
<svg version="1.1" id="Capa_1" xmlns="http://www.w3.org/2000/svg" xmlns:xlink="http://www.w3.org/1999/xlink" x="0px" y="0px"
	 viewBox="0 0 512 512" style="enable-background:new 0 0 512 512;" xml:space="preserve">
<g>
	<rect x="8.828" y="61.793" style="fill:#FFFFFF;" width="264.828" height="388.414"/>
	<rect x="238.345" y="61.793" style="fill:#A4C2F7;" width="264.828" height="388.414"/>
	<rect x="35.31" y="61.793" style="fill:#E3E7F2;" width="441.379" height="388.414"/>
	<rect x="414.897" y="61.793" style="fill:#7FACFA;" width="88.276" height="97.103"/>
	<g>
		<rect x="414.897" y="61.793" style="fill:#A4C2F7;" width="61.793" height="97.103"/>
		<rect x="35.31" y="61.793" style="fill:#A4C2F7;" width="61.793" height="97.103"/>
		<rect x="35.31" y="256" style="fill:#A4C2F7;" width="61.793" height="97.103"/>
	</g>
	<rect x="414.897" y="256" style="fill:#7FACFA;" width="88.276" height="97.103"/>
	<rect x="414.897" y="256" style="fill:#A4C2F7;" width="61.793" height="97.103"/>
	<g>
		<path style="fill:#428DFF;" d="M503.172,459.034H8.828c-2.341,0.001-4.587-0.929-6.243-2.585
			c-1.656-1.656-2.585-3.901-2.585-6.243V61.793c-0.001-2.341,0.929-4.587,2.585-6.243s3.901-2.585,6.243-2.585h494.345
			c2.341-0.001,4.587,0.929,6.243,2.585c1.656,1.656,2.585,3.901,2.585,6.243v388.414c0.001,2.341-0.929,4.587-2.585,6.243
			C507.759,458.105,505.514,459.035,503.172,459.034z M17.655,441.379h476.69V70.621H17.655V441.379z"/>
		<path style="fill:#428DFF;" d="M97.103,167.724H8.828c-2.341,0.001-4.587-0.929-6.243-2.585s-2.585-3.901-2.585-6.243V61.793
			c-0.001-2.341,0.929-4.587,2.585-6.243s3.901-2.585,6.243-2.585h88.276c2.341-0.001,4.587,0.929,6.243,2.585
			c1.656,1.656,2.585,3.901,2.585,6.243v97.103c0.001,2.341-0.929,4.587-2.585,6.243C101.691,166.795,99.445,167.725,97.103,167.724
			L97.103,167.724z M17.655,150.069h70.621V70.621H17.655V150.069z"/>
		<path style="fill:#428DFF;" d="M97.103,264.828H8.828c-2.341,0.001-4.587-0.929-6.243-2.585C0.929,260.587-0.001,258.341,0,256
			v-97.103c-0.001-2.341,0.929-4.587,2.585-6.243c1.656-1.656,3.901-2.585,6.243-2.585h88.276c2.341-0.001,4.587,0.929,6.243,2.585
			c1.656,1.656,2.585,3.901,2.585,6.243V256c0.001,2.341-0.929,4.587-2.585,6.243C101.691,263.898,99.445,264.828,97.103,264.828z
			 M17.655,247.172h70.621v-79.448H17.655V247.172z"/>
		<path style="fill:#428DFF;" d="M97.103,361.931H8.828c-2.341,0.001-4.587-0.929-6.243-2.585c-1.656-1.656-2.585-3.901-2.585-6.243
			V256c-0.001-2.341,0.929-4.587,2.585-6.243c1.656-1.656,3.901-2.585,6.243-2.585h88.276c2.341-0.001,4.587,0.929,6.243,2.585
			c1.656,1.656,2.585,3.901,2.585,6.243v97.103c0.001,2.341-0.929,4.587-2.585,6.243C101.691,361.002,99.445,361.932,97.103,361.931
			L97.103,361.931z M17.655,344.276h70.621v-79.448H17.655V344.276z"/>
		<path style="fill:#428DFF;" d="M97.103,459.034H8.828c-2.341,0.001-4.587-0.929-6.243-2.585c-1.656-1.656-2.585-3.901-2.585-6.243
			v-97.103c-0.001-2.341,0.929-4.587,2.585-6.243c1.656-1.656,3.901-2.585,6.243-2.585h88.276c2.341-0.001,4.587,0.929,6.243,2.585
			c1.656,1.656,2.585,3.901,2.585,6.243v97.103c0.001,2.341-0.929,4.587-2.585,6.243C101.691,458.105,99.445,459.035,97.103,459.034
			z M17.655,441.379h70.621v-79.448H17.655V441.379z"/>
		<path style="fill:#428DFF;" d="M503.172,167.724h-88.276c-2.341,0.001-4.587-0.929-6.243-2.585s-2.585-3.901-2.585-6.243V61.793
			c-0.001-2.341,0.929-4.587,2.585-6.243s3.901-2.585,6.243-2.585h88.276c2.341-0.001,4.587,0.929,6.243,2.585
			c1.656,1.656,2.585,3.901,2.585,6.243v97.103c0.001,2.341-0.929,4.587-2.585,6.243
			C507.759,166.795,505.514,167.725,503.172,167.724L503.172,167.724z M423.724,150.069h70.621V70.621h-70.621V150.069z"/>
		<path style="fill:#428DFF;" d="M503.172,264.828h-88.276c-2.341,0.001-4.587-0.929-6.243-2.585
			c-1.656-1.656-2.585-3.901-2.585-6.243v-97.103c-0.001-2.341,0.929-4.587,2.585-6.243c1.656-1.656,3.901-2.585,6.243-2.585h88.276
			c2.341-0.001,4.587,0.929,6.243,2.585c1.656,1.656,2.585,3.901,2.585,6.243V256c0.001,2.341-0.929,4.587-2.585,6.243
			C507.759,263.898,505.514,264.828,503.172,264.828z M423.724,247.172h70.621v-79.448h-70.621V247.172z"/>
		<path style="fill:#428DFF;" d="M503.172,361.931h-88.276c-2.341,0.001-4.587-0.929-6.243-2.585
			c-1.656-1.656-2.585-3.901-2.585-6.243V256c-0.001-2.341,0.929-4.587,2.585-6.243c1.656-1.656,3.901-2.585,6.243-2.585h88.276
			c2.341-0.001,4.587,0.929,6.243,2.585c1.656,1.656,2.585,3.901,2.585,6.243v97.103c0.001,2.341-0.929,4.587-2.585,6.243
			C507.759,361.002,505.514,361.932,503.172,361.931L503.172,361.931z M423.724,344.276h70.621v-79.448h-70.621V344.276z"/>
		<path style="fill:#428DFF;" d="M503.172,459.034h-88.276c-2.341,0.001-4.587-0.929-6.243-2.585
			c-1.656-1.656-2.585-3.901-2.585-6.243v-97.103c-0.001-2.341,0.929-4.587,2.585-6.243c1.656-1.656,3.901-2.585,6.243-2.585h88.276
			c2.341-0.001,4.587,0.929,6.243,2.585c1.656,1.656,2.585,3.901,2.585,6.243v97.103c0.001,2.341-0.929,4.587-2.585,6.243
			C507.759,458.105,505.514,459.035,503.172,459.034z M423.724,441.379h70.621v-79.448h-70.621V441.379z"/>
		<path style="fill:#428DFF;" d="M414.897,264.828H97.103c-4.875,0-8.828-3.952-8.828-8.828s3.952-8.828,8.828-8.828h317.793
			c4.875,0,8.828,3.952,8.828,8.828S419.772,264.828,414.897,264.828z"/>
	</g>
</g>
<g>
</g>
<g>
</g>
<g>
</g>
<g>
</g>
<g>
</g>
<g>
</g>
<g>
</g>
<g>
</g>
<g>
</g>
<g>
</g>
<g>
</g>
<g>
</g>
<g>
</g>
<g>
</g>
<g>
</g>
</svg>
