<?xml version="1.0" encoding="iso-8859-1"?>
<!-- Generator: Adobe Illustrator 19.0.0, SVG Export Plug-In . SVG Version: 6.00 Build 0)  -->
<svg version="1.1" id="Capa_1" xmlns="http://www.w3.org/2000/svg" xmlns:xlink="http://www.w3.org/1999/xlink" x="0px" y="0px"
	 viewBox="0 0 512 512" style="enable-background:new 0 0 512 512;" xml:space="preserve">
<g>
	<rect x="273.655" y="61.793" style="fill:#A4C2F7;" width="229.517" height="388.414"/>
	<rect x="8.828" y="61.793" style="fill:#FFFFFF;" width="229.517" height="388.414"/>
	
		<linearGradient id="SVGID_1_" gradientUnits="userSpaceOnUse" x1="-48.859" y1="652.6762" x2="-47.919" y2="651.608" gradientTransform="matrix(441.3793 0 0 -388.4138 21613.8965 253557)">
		<stop  offset="0" style="stop-color:#D4E1F4"/>
		<stop  offset="0.1717" style="stop-color:#D4E1F4"/>
		<stop  offset="0.2" style="stop-color:#D4E1F4"/>
		<stop  offset="0.2001" style="stop-color:#DAE4F4"/>
		<stop  offset="0.2007" style="stop-color:#EBEBF4"/>
		<stop  offset="0.2014" style="stop-color:#F6F1F4"/>
		<stop  offset="0.2023" style="stop-color:#FDF4F4"/>
		<stop  offset="0.205" style="stop-color:#FFF5F4"/>
		<stop  offset="0.2522" style="stop-color:#FFF5F4"/>
		<stop  offset="0.26" style="stop-color:#FFF5F4"/>
		<stop  offset="0.26" style="stop-color:#D4E1F4"/>
		<stop  offset="0.3974" style="stop-color:#D4E1F4"/>
		<stop  offset="0.42" style="stop-color:#D4E1F4"/>
		<stop  offset="0.4201" style="stop-color:#DAE4F4"/>
		<stop  offset="0.4207" style="stop-color:#EBEBF4"/>
		<stop  offset="0.4214" style="stop-color:#F6F1F4"/>
		<stop  offset="0.4223" style="stop-color:#FDF4F4"/>
		<stop  offset="0.425" style="stop-color:#FFF5F4"/>
		<stop  offset="0.4894" style="stop-color:#FFF5F4"/>
		<stop  offset="0.5" style="stop-color:#FFF5F4"/>
		<stop  offset="0.5" style="stop-color:#F9F2F4"/>
		<stop  offset="0.5001" style="stop-color:#E8EBF4"/>
		<stop  offset="0.5003" style="stop-color:#DDE5F4"/>
		<stop  offset="0.5005" style="stop-color:#D6E2F4"/>
		<stop  offset="0.501" style="stop-color:#D4E1F4"/>
		<stop  offset="0.7062" style="stop-color:#D4E1F4"/>
		<stop  offset="0.74" style="stop-color:#D4E1F4"/>
		<stop  offset="0.741" style="stop-color:#FFF5F4"/>
		<stop  offset="0.8346" style="stop-color:#FFF5F4"/>
		<stop  offset="0.85" style="stop-color:#FFF5F4"/>
		<stop  offset="0.851" style="stop-color:#D4E1F4"/>
	</linearGradient>
	<rect x="35.31" y="61.793" style="fill:url(#SVGID_1_);" width="441.379" height="388.414"/>
	<circle style="fill:#7FACFA;" cx="128.609" cy="199.23" r="40.333"/>
	<ellipse style="fill:#A4C2F7;" cx="115.377" cy="199.23" rx="27.092" ry="40.333"/>
	<g>
		<path style="fill:#428DFF;" d="M503.172,459.034H8.828c-2.341,0.001-4.587-0.929-6.243-2.585
			c-1.656-1.656-2.585-3.901-2.585-6.243V61.793c-0.001-2.341,0.929-4.587,2.585-6.243s3.901-2.585,6.243-2.585h494.345
			c2.341-0.001,4.587,0.929,6.243,2.585c1.656,1.656,2.585,3.901,2.585,6.243v388.414c0.001,2.341-0.929,4.587-2.585,6.243
			C507.759,458.105,505.514,459.035,503.172,459.034z M17.655,441.379h476.69V70.621H17.655V441.379z"/>
		<path style="fill:#428DFF;" d="M128.608,248.388c-19.884,0-37.809-11.978-45.418-30.348c-7.609-18.37-3.402-39.515,10.658-53.574
			s35.206-18.264,53.575-10.654c18.37,7.61,30.346,25.537,30.344,45.421C177.736,226.369,155.744,248.359,128.608,248.388
			L128.608,248.388z M128.608,167.724c-17.399,0-31.504,14.104-31.504,31.503s14.103,31.504,31.501,31.506
			c17.399,0.002,31.505-14.101,31.507-31.5C160.092,181.841,146,167.746,128.608,167.724z"/>
		<path style="fill:#428DFF;" d="M61.797,406.069c-3.675,0.003-6.968-2.271-8.266-5.709c-1.298-3.438-0.33-7.321,2.43-9.748
			l150.22-132.258c3.498-3.072,8.78-2.902,12.073,0.388l96.802,96.793c2.23,2.23,3.101,5.48,2.284,8.526
			c-0.816,3.046-3.195,5.425-6.241,6.241c-3.046,0.816-6.296-0.055-8.526-2.285l-90.944-90.931L67.625,403.871
			C66.015,405.289,63.943,406.071,61.797,406.069z"/>
		<path style="fill:#428DFF;" d="M260.409,322.207c-3.496-0.002-6.661-2.067-8.071-5.266s-0.799-6.928,1.558-9.51l92.69-101.517
			c1.579-1.733,3.783-2.766,6.125-2.871c2.337-0.074,4.613,0.753,6.358,2.31L465,302.457c3.595,3.295,3.838,8.879,0.543,12.474
			c-3.295,3.595-8.88,3.838-12.474,0.543l-99.409-91.129l-86.729,94.983C265.262,321.166,262.893,322.212,260.409,322.207z"/>
	</g>
</g>
<g>
</g>
<g>
</g>
<g>
</g>
<g>
</g>
<g>
</g>
<g>
</g>
<g>
</g>
<g>
</g>
<g>
</g>
<g>
</g>
<g>
</g>
<g>
</g>
<g>
</g>
<g>
</g>
<g>
</g>
</svg>
