<?xml version="1.0" encoding="iso-8859-1"?>
<!-- Generator: Adobe Illustrator 19.0.0, SVG Export Plug-In . SVG Version: 6.00 Build 0)  -->
<svg version="1.1" id="Capa_1" xmlns="http://www.w3.org/2000/svg" xmlns:xlink="http://www.w3.org/1999/xlink" x="0px" y="0px"
	 viewBox="0 0 512 512" style="enable-background:new 0 0 512 512;" xml:space="preserve">
<g>
	<rect x="44.912" y="143.719" style="fill:#A4C2F7;" width="449.123" height="359.298"/>
	
		<linearGradient id="SVGID_1_" gradientUnits="userSpaceOnUse" x1="-48.8065" y1="652.618" x2="-47.951" y2="651.4149" gradientTransform="matrix(404.2105 0 0 -287.4386 19811.209 187738.0469)">
		<stop  offset="0" style="stop-color:#D4E1F4"/>
		<stop  offset="0.1717" style="stop-color:#D4E1F4"/>
		<stop  offset="0.2" style="stop-color:#D4E1F4"/>
		<stop  offset="0.2001" style="stop-color:#DAE4F4"/>
		<stop  offset="0.2007" style="stop-color:#EBEBF4"/>
		<stop  offset="0.2014" style="stop-color:#F6F1F4"/>
		<stop  offset="0.2023" style="stop-color:#FDF4F4"/>
		<stop  offset="0.205" style="stop-color:#FFF5F4"/>
		<stop  offset="0.2522" style="stop-color:#FFF5F4"/>
		<stop  offset="0.26" style="stop-color:#FFF5F4"/>
		<stop  offset="0.26" style="stop-color:#D4E1F4"/>
		<stop  offset="0.3974" style="stop-color:#D4E1F4"/>
		<stop  offset="0.42" style="stop-color:#D4E1F4"/>
		<stop  offset="0.4201" style="stop-color:#DAE4F4"/>
		<stop  offset="0.4207" style="stop-color:#EBEBF4"/>
		<stop  offset="0.4214" style="stop-color:#F6F1F4"/>
		<stop  offset="0.4223" style="stop-color:#FDF4F4"/>
		<stop  offset="0.425" style="stop-color:#FFF5F4"/>
		<stop  offset="0.4894" style="stop-color:#FFF5F4"/>
		<stop  offset="0.5" style="stop-color:#FFF5F4"/>
		<stop  offset="0.5" style="stop-color:#F9F2F4"/>
		<stop  offset="0.5001" style="stop-color:#E8EBF4"/>
		<stop  offset="0.5003" style="stop-color:#DDE5F4"/>
		<stop  offset="0.5005" style="stop-color:#D6E2F4"/>
		<stop  offset="0.501" style="stop-color:#D4E1F4"/>
		<stop  offset="0.7062" style="stop-color:#D4E1F4"/>
		<stop  offset="0.74" style="stop-color:#D4E1F4"/>
		<stop  offset="0.741" style="stop-color:#FFF5F4"/>
		<stop  offset="0.8346" style="stop-color:#FFF5F4"/>
		<stop  offset="0.85" style="stop-color:#FFF5F4"/>
		<stop  offset="0.851" style="stop-color:#D4E1F4"/>
	</linearGradient>
	<rect x="53.895" y="179.649" style="fill:url(#SVGID_1_);" width="404.211" height="287.439"/>
	<circle style="fill:#7FACFA;" cx="134.737" cy="265.602" r="41.041"/>
	<ellipse style="fill:#A4C2F7;" cx="121.883" cy="265.602" rx="23.076" ry="41.041"/>
	<circle style="fill:#7FACFA;" cx="260.491" cy="44.912" r="35.93"/>
	<ellipse style="fill:#A4C2F7;" cx="247.018" cy="44.912" rx="22.456" ry="35.93"/>
	<g>
		<path style="fill:#428DFF;" d="M458.105,476.07H53.895c-2.382,0.001-4.668-0.946-6.352-2.63c-1.685-1.685-2.631-3.97-2.63-6.352
			V179.649c-0.001-2.382,0.946-4.668,2.63-6.352c1.685-1.685,3.97-2.631,6.352-2.63h404.211c2.382-0.001,4.668,0.946,6.352,2.63
			c1.685,1.685,2.631,3.97,2.63,6.352v287.439c0.001,2.382-0.946,4.668-2.63,6.352C462.773,475.125,460.488,476.071,458.105,476.07z
			 M62.877,458.105h386.246V188.632H62.877V458.105z"/>
		<path style="fill:#428DFF;" d="M134.737,315.623c-20.232,0-38.472-12.188-46.215-30.88c-7.742-18.692-3.462-40.208,10.845-54.514
			s35.823-18.584,54.515-10.841c18.692,7.744,30.878,25.985,30.876,46.217C184.726,293.218,162.349,315.593,134.737,315.623z
			 M134.737,233.544c-17.704,0-32.056,14.352-32.057,32.056c-0.001,17.704,14.35,32.057,32.054,32.059
			c17.704,0.002,32.058-14.349,32.06-32.053C166.774,247.908,152.434,233.567,134.737,233.544z"/>
		<path style="fill:#428DFF;" d="M53.899,476.07c-3.74,0.003-7.09-2.311-8.411-5.81c-1.321-3.499-0.336-7.449,2.472-9.919
			l152.855-134.579c3.561-3.121,8.932-2.948,12.285,0.395l98.5,98.491c2.269,2.269,3.155,5.576,2.325,8.675
			c-0.831,3.099-3.251,5.52-6.351,6.351c-3.099,0.83-6.406-0.056-8.675-2.325l-92.54-92.526L59.829,473.834
			C58.191,475.277,56.082,476.072,53.899,476.07L53.899,476.07z"/>
		<path style="fill:#428DFF;" d="M255.996,390.737c-3.557-0.002-6.778-2.103-8.212-5.358c-1.435-3.255-0.813-7.05,1.585-9.677
			l94.316-103.298c1.606-1.764,3.849-2.815,6.233-2.921c2.386-0.128,4.722,0.721,6.469,2.351l107.789,98.807
			c2.366,2.169,3.395,5.435,2.7,8.568c-0.695,3.133-3.009,5.658-6.07,6.623c-3.061,0.965-6.404,0.223-8.771-1.946l-101.153-92.728
			l-88.25,96.649C260.933,389.678,258.522,390.742,255.996,390.737L255.996,390.737z"/>
		<path style="fill:#428DFF;" d="M494.035,512H17.965c-2.382,0.001-4.668-0.946-6.352-2.63s-2.631-3.97-2.63-6.352V143.719
			c-0.001-2.382,0.946-4.668,2.63-6.352c1.685-1.685,3.97-2.631,6.352-2.63h476.07c2.382-0.001,4.668,0.946,6.352,2.63
			c1.685,1.685,2.631,3.97,2.63,6.352v359.298c0.001,2.382-0.946,4.668-2.63,6.352C498.703,511.054,496.418,512.001,494.035,512
			L494.035,512z M26.947,494.035h458.105V152.702H26.947V494.035z"/>
		<path style="fill:#428DFF;" d="M260.491,89.825c-24.804,0-44.912-20.108-44.912-44.912S235.687,0,260.491,0
			s44.912,20.108,44.912,44.912C305.374,69.705,285.284,89.795,260.491,89.825z M260.491,17.965
			c-14.883,0-26.947,12.065-26.947,26.947s12.065,26.947,26.947,26.947c14.883,0,26.947-12.065,26.947-26.947
			C287.422,30.036,275.367,17.981,260.491,17.965L260.491,17.965z"/>
		<path style="fill:#428DFF;" d="M440.14,152.702H80.842c-3.727,0.002-7.068-2.299-8.395-5.782
			c-1.327-3.483-0.366-7.423,2.417-9.903c4.114-3.675,101.439-90.325,154.083-123.474c3.787-2.383,8.751-1.615,11.642,1.8
			c2.891,3.415,2.829,8.437-0.146,11.779c-4.424,4.87-6.883,11.21-6.899,17.789c0,14.883,12.065,26.947,26.947,26.947
			c14.883,0,26.947-12.065,26.947-26.947c-0.016-6.58-2.475-12.919-6.899-17.789c-2.975-3.342-3.037-8.364-0.146-11.779
			c2.891-3.415,7.854-4.182,11.642-1.8c52.645,33.149,149.969,119.798,154.083,123.474c2.783,2.479,3.744,6.42,2.417,9.903
			C447.208,150.403,443.867,152.703,440.14,152.702L440.14,152.702z M104.693,134.737H416.29
			c-25.518-22.175-73.434-63.026-110.89-90.272l0.004,0.447c0,24.804-20.108,44.912-44.912,44.912s-44.912-20.108-44.912-44.912
			l0.004-0.447C178.127,71.711,130.21,112.561,104.693,134.737z"/>
	</g>
</g>
<g>
</g>
<g>
</g>
<g>
</g>
<g>
</g>
<g>
</g>
<g>
</g>
<g>
</g>
<g>
</g>
<g>
</g>
<g>
</g>
<g>
</g>
<g>
</g>
<g>
</g>
<g>
</g>
<g>
</g>
</svg>
