<?xml version="1.0" encoding="iso-8859-1"?>
<!-- Generator: Adobe Illustrator 19.0.0, SVG Export Plug-In . SVG Version: 6.00 Build 0)  -->
<svg version="1.1" id="Capa_1" xmlns="http://www.w3.org/2000/svg" xmlns:xlink="http://www.w3.org/1999/xlink" x="0px" y="0px"
	 viewBox="0 0 512 512" style="enable-background:new 0 0 512 512;" xml:space="preserve">
<g>
	<rect x="293.236" y="335.127" style="fill:#7FACFA;" width="204.8" height="167.564"/>
	<rect x="4.655" y="335.127" style="fill:#ECECEC;" width="204.8" height="167.564"/>
	<g>
		<rect x="41.891" y="335.127" style="fill:#A4C2F7;" width="428.218" height="167.564"/>
		<rect x="293.236" y="9.309" style="fill:#A4C2F7;" width="204.8" height="325.818"/>
	</g>
	<rect x="13.964" y="9.309" style="fill:#FFFFFF;" width="204.8" height="325.818"/>
	
		<linearGradient id="SVGID_1_" gradientUnits="userSpaceOnUse" x1="-48.8258" y1="652.6519" x2="-47.9454" y2="651.4948" gradientTransform="matrix(428.2182 0 0 -325.8182 20975.5859 212629.5781)">
		<stop  offset="0" style="stop-color:#D4E1F4"/>
		<stop  offset="0.1717" style="stop-color:#D4E1F4"/>
		<stop  offset="0.2" style="stop-color:#D4E1F4"/>
		<stop  offset="0.2001" style="stop-color:#DAE4F4"/>
		<stop  offset="0.2007" style="stop-color:#EBEBF4"/>
		<stop  offset="0.2014" style="stop-color:#F6F1F4"/>
		<stop  offset="0.2023" style="stop-color:#FDF4F4"/>
		<stop  offset="0.205" style="stop-color:#FFF5F4"/>
		<stop  offset="0.2522" style="stop-color:#FFF5F4"/>
		<stop  offset="0.26" style="stop-color:#FFF5F4"/>
		<stop  offset="0.26" style="stop-color:#D4E1F4"/>
		<stop  offset="0.3974" style="stop-color:#D4E1F4"/>
		<stop  offset="0.42" style="stop-color:#D4E1F4"/>
		<stop  offset="0.4201" style="stop-color:#DAE4F4"/>
		<stop  offset="0.4207" style="stop-color:#EBEBF4"/>
		<stop  offset="0.4214" style="stop-color:#F6F1F4"/>
		<stop  offset="0.4223" style="stop-color:#FDF4F4"/>
		<stop  offset="0.425" style="stop-color:#FFF5F4"/>
		<stop  offset="0.4894" style="stop-color:#FFF5F4"/>
		<stop  offset="0.5" style="stop-color:#FFF5F4"/>
		<stop  offset="0.5" style="stop-color:#F9F2F4"/>
		<stop  offset="0.5001" style="stop-color:#E8EBF4"/>
		<stop  offset="0.5003" style="stop-color:#DDE5F4"/>
		<stop  offset="0.5005" style="stop-color:#D6E2F4"/>
		<stop  offset="0.501" style="stop-color:#D4E1F4"/>
		<stop  offset="0.7062" style="stop-color:#D4E1F4"/>
		<stop  offset="0.74" style="stop-color:#D4E1F4"/>
		<stop  offset="0.741" style="stop-color:#FFF5F4"/>
		<stop  offset="0.8346" style="stop-color:#FFF5F4"/>
		<stop  offset="0.85" style="stop-color:#FFF5F4"/>
		<stop  offset="0.851" style="stop-color:#D4E1F4"/>
	</linearGradient>
	<rect x="41.891" y="9.309" style="fill:url(#SVGID_1_);" width="428.218" height="325.818"/>
	<polygon style="fill:#7FACFA;" points="209.455,232.727 209.455,167.135 209.455,102.4 311.855,167.564 	"/>
	<path style="fill:#A4C2F7;" d="M274.618,167.564l-68.395-43.524c0.174,3.072,0.461,6.148,0.567,9.217
		c5.325,24.136,0.619,55.204-1.677,78.537L274.618,167.564z"/>
	<g>
		<path style="fill:#428DFF;" d="M209.455,242.036c-2.47,0.003-4.839-0.977-6.586-2.723s-2.726-4.116-2.723-6.586V102.4
			c-0.002-3.399,1.849-6.529,4.829-8.164s6.614-1.517,9.48,0.31l102.4,65.164c2.684,1.71,4.309,4.672,4.309,7.855
			c0,3.182-1.625,6.145-4.309,7.855l-102.4,65.164C212.959,241.529,211.225,242.034,209.455,242.036L209.455,242.036z
			 M218.764,119.355v96.418l75.755-48.209L218.764,119.355z"/>
		<path style="fill:#428DFF;" d="M498.036,344.436H13.964c-2.469,0.001-4.838-0.979-6.584-2.725
			c-1.746-1.746-2.726-4.115-2.725-6.584V9.309C4.653,6.84,5.633,4.471,7.38,2.725S11.494-0.001,13.964,0h484.073
			c2.469-0.001,4.838,0.979,6.584,2.725c1.746,1.746,2.726,4.115,2.725,6.584v325.818c0.001,2.469-0.979,4.838-2.725,6.584
			C502.874,343.457,500.506,344.438,498.036,344.436L498.036,344.436z M23.273,325.818h465.455v-307.2H23.273V325.818z"/>
		<path style="fill:#428DFF;" d="M442.182,428.218H162.909c-5.141,0-9.309-4.168-9.309-9.309s4.168-9.309,9.309-9.309h279.273
			c5.141,0,9.309,4.168,9.309,9.309S447.323,428.218,442.182,428.218z"/>
		<path style="fill:#428DFF;" d="M209.455,456.145c-2.469,0.001-4.838-0.979-6.584-2.725c-1.746-1.746-2.726-4.115-2.725-6.584
			v-55.855c0-5.141,4.168-9.309,9.309-9.309s9.309,4.168,9.309,9.309v55.855c0.001,2.469-0.979,4.838-2.725,6.584
			C214.293,455.167,211.924,456.147,209.455,456.145z"/>
		<path style="fill:#428DFF;" d="M69.818,456.145c-2.469,0.001-4.838-0.979-6.584-2.725c-1.746-1.746-2.726-4.115-2.725-6.584
			v-55.855c0-5.141,4.168-9.309,9.309-9.309c5.141,0,9.309,4.168,9.309,9.309v55.855c0.001,2.469-0.979,4.838-2.725,6.584
			C74.656,455.167,72.288,456.147,69.818,456.145L69.818,456.145z"/>
		<path style="fill:#428DFF;" d="M107.055,456.145c-2.469,0.001-4.838-0.979-6.584-2.725c-1.746-1.746-2.726-4.115-2.725-6.584
			v-55.855c0-5.141,4.168-9.309,9.309-9.309s9.309,4.168,9.309,9.309v55.855c0.001,2.469-0.979,4.838-2.725,6.584
			C111.893,455.167,109.524,456.147,107.055,456.145z"/>
		<path style="fill:#428DFF;" d="M498.036,512H13.964c-2.469,0.001-4.838-0.979-6.584-2.725c-1.746-1.746-2.726-4.115-2.725-6.584
			V335.127c-0.001-2.469,0.979-4.838,2.725-6.584c1.746-1.746,4.115-2.726,6.584-2.725h484.073c2.469-0.001,4.838,0.979,6.584,2.725
			c1.746,1.746,2.726,4.115,2.725,6.584v167.564c0.001,2.469-0.979,4.838-2.725,6.584C502.874,511.021,500.506,512.001,498.036,512z
			 M23.273,493.382h465.455V344.436H23.273V493.382z"/>
	</g>
</g>
<g>
</g>
<g>
</g>
<g>
</g>
<g>
</g>
<g>
</g>
<g>
</g>
<g>
</g>
<g>
</g>
<g>
</g>
<g>
</g>
<g>
</g>
<g>
</g>
<g>
</g>
<g>
</g>
<g>
</g>
</svg>
