<?xml version="1.0" encoding="iso-8859-1"?>
<!-- Generator: Adobe Illustrator 19.0.0, SVG Export Plug-In . SVG Version: 6.00 Build 0)  -->
<svg version="1.1" id="Capa_1" xmlns="http://www.w3.org/2000/svg" xmlns:xlink="http://www.w3.org/1999/xlink" x="0px" y="0px"
	 viewBox="0 0 512 512" style="enable-background:new 0 0 512 512;" xml:space="preserve">
<g>
	<polygon style="fill:#A4C2F7;" points="170.667,465.067 256,328.533 341.333,465.067 	"/>
	<path style="fill:#E3E7F2;" d="M242.836,348.431c-4.984,15.823-16.278,27.521-26.509,41.65
		c-17.932,22.904-32.684,48.127-43.856,74.985h143.262L242.836,348.431z"/>
	<g>
		<path style="fill:#428DFF;" d="M341.333,473.6H170.667c-3.103,0.001-5.962-1.683-7.465-4.397
			c-1.504-2.714-1.415-6.031,0.232-8.661l85.333-136.533c1.663-2.344,4.359-3.738,7.233-3.738c2.874,0,5.57,1.393,7.233,3.738
			l85.333,136.533c1.647,2.63,1.735,5.947,0.232,8.661C347.295,471.917,344.436,473.601,341.333,473.6z M186.067,456.533h139.867
			L256,344.633L186.067,456.533z"/>
		<path style="fill:#428DFF;" d="M503.467,379.733h-179.2c-4.713,0-8.533-3.821-8.533-8.533s3.821-8.533,8.533-8.533h170.667v-307.2
			H17.067v307.2h170.667c4.713,0,8.533,3.82,8.533,8.533s-3.821,8.533-8.533,8.533H8.533c-2.264,0.001-4.435-0.897-6.035-2.498
			C0.897,375.635-0.001,373.464,0,371.2V46.933c-0.001-2.264,0.897-4.435,2.498-6.035S6.27,38.399,8.533,38.4h494.933
			c2.264-0.001,4.435,0.897,6.035,2.498c1.601,1.601,2.499,3.772,2.498,6.035V371.2c0.001,2.264-0.897,4.435-2.498,6.035
			C507.901,378.836,505.73,379.735,503.467,379.733L503.467,379.733z"/>
	</g>
</g>
<g>
</g>
<g>
</g>
<g>
</g>
<g>
</g>
<g>
</g>
<g>
</g>
<g>
</g>
<g>
</g>
<g>
</g>
<g>
</g>
<g>
</g>
<g>
</g>
<g>
</g>
<g>
</g>
<g>
</g>
</svg>
