<?xml version="1.0" encoding="iso-8859-1"?>
<!-- Generator: Adobe Illustrator 19.0.0, SVG Export Plug-In . SVG Version: 6.00 Build 0)  -->
<svg version="1.1" id="Capa_1" xmlns="http://www.w3.org/2000/svg" xmlns:xlink="http://www.w3.org/1999/xlink" x="0px" y="0px"
	 viewBox="0 0 512 512" style="enable-background:new 0 0 512 512;" xml:space="preserve">
<g>
	<path style="fill:#A4C2F7;" d="M471.052,140.8h-78.519L358.4,55.467H238.933v401.067h231.822c18.066,0,32.711-14.646,32.711-32.711
		V173.215c0-8.597-3.415-16.842-9.494-22.921C487.894,144.215,479.649,140.8,471.052,140.8z"/>
	<rect x="59.733" y="98.133" style="fill:#7FACFA;" width="34.133" height="42.667"/>
	<path style="fill:#FFFFFF;" d="M40.948,140.8h78.519L153.6,55.467h119.467v401.067H41.245c-18.066,0-32.711-14.646-32.711-32.711
		V173.215c0-8.597,3.415-16.842,9.494-22.921S32.351,140.8,40.948,140.8z"/>
	<path style="fill:#E3E7F2;" d="M366.933,140.8L332.8,55.467H179.2L145.067,140.8H66.548c-17.902,0-32.415,14.512-32.415,32.415
		v250.607c0,8.676,3.446,16.996,9.581,23.131c6.135,6.135,14.455,9.581,23.131,9.581h378.311c8.676,0,16.996-3.446,23.13-9.581
		c6.135-6.135,9.581-14.455,9.581-23.13V173.215c0-8.597-3.415-16.842-9.494-22.921c-6.079-6.079-14.324-9.494-22.921-9.494H366.933
		z"/>
	<g>
		<circle style="fill:#A4C2F7;" cx="256" cy="277.333" r="145.067"/>
		<circle style="fill:#A4C2F7;" cx="256" cy="277.333" r="93.867"/>
	</g>
	
		<linearGradient id="SVGID_1_" gradientUnits="userSpaceOnUse" x1="-48.5803" y1="652.09" x2="-47.8153" y2="651.4293" gradientTransform="matrix(162.1333 0 0 -187.7333 8057.667 122634.3438)">
		<stop  offset="0" style="stop-color:#D4E1F4"/>
		<stop  offset="0.1717" style="stop-color:#D4E1F4"/>
		<stop  offset="0.2" style="stop-color:#D4E1F4"/>
		<stop  offset="0.2001" style="stop-color:#DAE4F4"/>
		<stop  offset="0.2007" style="stop-color:#EBEBF4"/>
		<stop  offset="0.2014" style="stop-color:#F6F1F4"/>
		<stop  offset="0.2023" style="stop-color:#FDF4F4"/>
		<stop  offset="0.205" style="stop-color:#FFF5F4"/>
		<stop  offset="0.2522" style="stop-color:#FFF5F4"/>
		<stop  offset="0.26" style="stop-color:#FFF5F4"/>
		<stop  offset="0.26" style="stop-color:#D4E1F4"/>
		<stop  offset="0.3974" style="stop-color:#D4E1F4"/>
		<stop  offset="0.42" style="stop-color:#D4E1F4"/>
		<stop  offset="0.4201" style="stop-color:#DAE4F4"/>
		<stop  offset="0.4207" style="stop-color:#EBEBF4"/>
		<stop  offset="0.4214" style="stop-color:#F6F1F4"/>
		<stop  offset="0.4223" style="stop-color:#FDF4F4"/>
		<stop  offset="0.425" style="stop-color:#FFF5F4"/>
		<stop  offset="0.4894" style="stop-color:#FFF5F4"/>
		<stop  offset="0.5" style="stop-color:#FFF5F4"/>
		<stop  offset="0.5" style="stop-color:#F9F2F4"/>
		<stop  offset="0.5001" style="stop-color:#E8EBF4"/>
		<stop  offset="0.5003" style="stop-color:#DDE5F4"/>
		<stop  offset="0.5005" style="stop-color:#D6E2F4"/>
		<stop  offset="0.501" style="stop-color:#D4E1F4"/>
		<stop  offset="0.7062" style="stop-color:#D4E1F4"/>
		<stop  offset="0.74" style="stop-color:#D4E1F4"/>
		<stop  offset="0.741" style="stop-color:#FFF5F4"/>
		<stop  offset="0.8346" style="stop-color:#FFF5F4"/>
		<stop  offset="0.85" style="stop-color:#FFF5F4"/>
		<stop  offset="0.851" style="stop-color:#D4E1F4"/>
	</linearGradient>
	<ellipse style="fill:url(#SVGID_1_);" cx="243.2" cy="277.333" rx="81.067" ry="93.867"/>
	<circle style="fill:#A4C2F7;" cx="443.733" cy="200.533" r="25.6"/>
	<g>
		<path style="fill:#428DFF;" d="M470.758,465.067H41.242C18.475,465.042,0.025,446.592,0,423.825V173.217
			c0.023-22.606,18.344-40.927,40.95-40.95h72.742L145.675,52.3c1.296-3.241,4.435-5.366,7.925-5.367h204.8
			c3.49,0.001,6.629,2.126,7.925,5.367l31.983,79.967h72.742c22.606,0.023,40.927,18.344,40.95,40.95v250.608
			C511.975,446.592,493.525,465.042,470.758,465.067z M40.95,149.333c-13.183,0.017-23.867,10.7-23.883,23.883v250.608
			C17.08,437.171,27.895,447.987,41.242,448h429.517c13.346-0.013,24.162-10.829,24.175-24.175V173.217
			c-0.017-13.183-10.7-23.867-23.883-23.883h-78.517c-3.49-0.001-6.629-2.126-7.925-5.367L352.625,64h-193.25l-31.983,79.967
			c-1.296,3.241-4.435,5.366-7.925,5.367H40.95z"/>
		<path style="fill:#428DFF;" d="M256,430.933c-84.831,0-153.6-68.769-153.6-153.6s68.769-153.6,153.6-153.6
			s153.6,68.769,153.6,153.6C409.502,362.123,340.79,430.835,256,430.933z M256,140.8c-75.405,0-136.533,61.128-136.533,136.533
			S180.595,413.867,256,413.867s136.533-61.128,136.533-136.533C392.447,201.964,331.37,140.886,256,140.8z"/>
		<path style="fill:#428DFF;" d="M256,379.733c-56.554,0-102.4-45.846-102.4-102.4s45.846-102.4,102.4-102.4
			s102.4,45.846,102.4,102.4C358.338,333.862,312.528,379.672,256,379.733L256,379.733z M256,192
			c-47.128,0-85.333,38.205-85.333,85.333s38.205,85.333,85.333,85.333s85.333-38.205,85.333-85.333
			C341.278,230.228,303.105,192.055,256,192z"/>
		<path style="fill:#428DFF;" d="M93.867,149.333H59.733c-2.264,0.001-4.435-0.897-6.035-2.498
			c-1.601-1.601-2.499-3.772-2.498-6.035V98.133c-0.001-2.264,0.897-4.435,2.498-6.035c1.601-1.601,3.772-2.499,6.035-2.498h34.133
			c2.264-0.001,4.435,0.897,6.035,2.498c1.601,1.601,2.499,3.772,2.498,6.035V140.8c0.001,2.264-0.897,4.435-2.498,6.035
			C98.301,148.436,96.13,149.335,93.867,149.333L93.867,149.333z M68.267,132.267h17.067v-25.6H68.267V132.267z"/>
		<path style="fill:#428DFF;" d="M443.733,234.667c-18.851,0-34.133-15.282-34.133-34.133s15.282-34.133,34.133-34.133
			c18.851,0,34.133,15.282,34.133,34.133C477.848,219.377,462.577,234.648,443.733,234.667L443.733,234.667z M443.733,183.467
			c-9.426,0-17.067,7.641-17.067,17.067c0,9.426,7.641,17.067,17.067,17.067c9.426,0,17.067-7.641,17.067-17.067
			C460.788,191.113,453.154,183.479,443.733,183.467z"/>
	</g>
</g>
<g>
</g>
<g>
</g>
<g>
</g>
<g>
</g>
<g>
</g>
<g>
</g>
<g>
</g>
<g>
</g>
<g>
</g>
<g>
</g>
<g>
</g>
<g>
</g>
<g>
</g>
<g>
</g>
<g>
</g>
</svg>
