<?xml version="1.0" encoding="iso-8859-1"?>
<!-- Generator: Adobe Illustrator 19.0.0, SVG Export Plug-In . SVG Version: 6.00 Build 0)  -->
<svg version="1.1" id="Capa_1" xmlns="http://www.w3.org/2000/svg" xmlns:xlink="http://www.w3.org/1999/xlink" x="0px" y="0px"
	 viewBox="0 0 512 512" style="enable-background:new 0 0 512 512;" xml:space="preserve">
<g>
	<path style="fill:#A4C2F7;" d="M268.094,97.103h214.157c11.555,0,20.921,9.367,20.921,20.921v311.261
		c0,11.555-9.367,20.921-20.921,20.921H268.094c-11.555,0-20.921-9.367-20.921-20.921V118.025
		C247.172,106.47,256.539,97.103,268.094,97.103z"/>
	<path style="fill:#FFFFFF;" d="M29.749,97.103h214.157c11.555,0,20.921,9.367,20.921,20.921v311.261
		c0,11.555-9.367,20.921-20.921,20.921H29.749c-11.555,0-20.921-9.367-20.921-20.921V118.025
		C8.828,106.47,18.194,97.103,29.749,97.103z"/>
	<path style="fill:#E3E7F2;" d="M56.232,97.103h399.537c11.555,0,20.921,9.367,20.921,20.921v311.261
		c0,11.555-9.367,20.921-20.921,20.921H56.232c-11.555,0-20.921-9.367-20.921-20.921V118.025
		C35.31,106.47,44.677,97.103,56.232,97.103z"/>
	<circle style="fill:#A4C2F7;" cx="264.828" cy="273.655" r="141.241"/>
	
		<linearGradient id="SVGID_1_" gradientUnits="userSpaceOnUse" x1="-48.6809" y1="652.3453" x2="-47.9363" y2="651.6705" gradientTransform="matrix(256 0 0 -282.4828 12618.5859 184454.6563)">
		<stop  offset="0" style="stop-color:#D4E1F4"/>
		<stop  offset="0.1717" style="stop-color:#D4E1F4"/>
		<stop  offset="0.2" style="stop-color:#D4E1F4"/>
		<stop  offset="0.2001" style="stop-color:#DAE4F4"/>
		<stop  offset="0.2007" style="stop-color:#EBEBF4"/>
		<stop  offset="0.2014" style="stop-color:#F6F1F4"/>
		<stop  offset="0.2023" style="stop-color:#FDF4F4"/>
		<stop  offset="0.205" style="stop-color:#FFF5F4"/>
		<stop  offset="0.2522" style="stop-color:#FFF5F4"/>
		<stop  offset="0.26" style="stop-color:#FFF5F4"/>
		<stop  offset="0.26" style="stop-color:#D4E1F4"/>
		<stop  offset="0.3974" style="stop-color:#D4E1F4"/>
		<stop  offset="0.42" style="stop-color:#D4E1F4"/>
		<stop  offset="0.4201" style="stop-color:#DAE4F4"/>
		<stop  offset="0.4207" style="stop-color:#EBEBF4"/>
		<stop  offset="0.4214" style="stop-color:#F6F1F4"/>
		<stop  offset="0.4223" style="stop-color:#FDF4F4"/>
		<stop  offset="0.425" style="stop-color:#FFF5F4"/>
		<stop  offset="0.4894" style="stop-color:#FFF5F4"/>
		<stop  offset="0.5" style="stop-color:#FFF5F4"/>
		<stop  offset="0.5" style="stop-color:#F9F2F4"/>
		<stop  offset="0.5001" style="stop-color:#E8EBF4"/>
		<stop  offset="0.5003" style="stop-color:#DDE5F4"/>
		<stop  offset="0.5005" style="stop-color:#D6E2F4"/>
		<stop  offset="0.501" style="stop-color:#D4E1F4"/>
		<stop  offset="0.7062" style="stop-color:#D4E1F4"/>
		<stop  offset="0.74" style="stop-color:#D4E1F4"/>
		<stop  offset="0.741" style="stop-color:#FFF5F4"/>
		<stop  offset="0.8346" style="stop-color:#FFF5F4"/>
		<stop  offset="0.85" style="stop-color:#FFF5F4"/>
		<stop  offset="0.851" style="stop-color:#D4E1F4"/>
	</linearGradient>
	<ellipse style="fill:url(#SVGID_1_);" cx="251.586" cy="273.655" rx="128" ry="141.241"/>
	<g>
		<path style="fill:#428DFF;" d="M482.25,459.034H29.75C13.327,459.017,0.018,445.708,0,429.284V118.026
			c0.018-16.423,13.327-29.732,29.75-29.75h452.5c16.423,0.018,29.732,13.327,29.75,29.75v311.259
			C511.982,445.708,498.673,459.017,482.25,459.034z M29.75,105.931c-6.678,0.005-12.09,5.417-12.095,12.095v311.259
			c0.005,6.678,5.417,12.09,12.095,12.095h452.5c6.678-0.005,12.09-5.417,12.095-12.095V118.026
			c-0.005-6.678-5.417-12.09-12.095-12.095H29.75z"/>
		<path style="fill:#428DFF;" d="M264.828,423.724c-82.881,0-150.069-67.188-150.069-150.069s67.188-150.069,150.069-150.069
			s150.069,67.188,150.069,150.069C414.804,356.498,347.67,423.632,264.828,423.724L264.828,423.724z M264.828,141.241
			c-73.13,0-132.414,59.284-132.414,132.414s59.284,132.414,132.414,132.414s132.414-59.284,132.414-132.414
			C397.162,200.558,337.925,141.321,264.828,141.241z"/>
		<path style="fill:#428DFF;" d="M344.276,70.621H176.552c-4.875,0-8.828-3.952-8.828-8.828s3.952-8.828,8.828-8.828h167.724
			c4.875,0,8.828,3.952,8.828,8.828S349.151,70.621,344.276,70.621z"/>
	</g>
</g>
<g>
</g>
<g>
</g>
<g>
</g>
<g>
</g>
<g>
</g>
<g>
</g>
<g>
</g>
<g>
</g>
<g>
</g>
<g>
</g>
<g>
</g>
<g>
</g>
<g>
</g>
<g>
</g>
<g>
</g>
</svg>
