<?xml version="1.0" encoding="iso-8859-1"?>
<!-- Generator: Adobe Illustrator 19.0.0, SVG Export Plug-In . SVG Version: 6.00 Build 0)  -->
<svg version="1.1" id="Capa_1" xmlns="http://www.w3.org/2000/svg" xmlns:xlink="http://www.w3.org/1999/xlink" x="0px" y="0px"
	 viewBox="0 0 511.966 511.966" style="enable-background:new 0 0 511.966 511.966;" xml:space="preserve">
<g>
	<polygon style="fill:#A4C2F7;" points="164.865,503.322 138.831,485.966 112.797,503.322 112.797,459.932 164.865,459.932 	"/>
	<path style="fill:#FFFFFF;" d="M78.085,8.708h156.233c14.362,0,26.004,11.642,26.004,26.004v399.216
		c0,14.362-11.642,26.004-26.004,26.004H78.085V8.708z"/>
	<path style="fill:#A4C2F7;" d="M251.644,8.708h156.233c6.897,0,13.511,2.74,18.388,7.616c4.877,4.877,7.616,11.491,7.616,18.388
		v399.216c0,6.897-2.74,13.511-7.616,18.388c-4.877,4.877-11.491,7.616-18.388,7.616H251.644V8.708z"/>
	<path style="fill:#E3E7F2;" d="M104.119,8.708h277.725c14.362,0,26.004,11.642,26.004,26.004v399.216
		c0,14.362-11.642,26.004-26.004,26.004H104.119V8.708z"/>
	<rect x="104.119" y="156.29" style="fill:#A4C2F7;" width="234.305" height="156.203"/>
	<rect x="381.814" y="156.29" style="fill:#7FACFA;" width="52.068" height="156.203"/>
	<g>
		<rect x="381.814" y="156.29" style="fill:#A4C2F7;" width="26.034" height="156.203"/>
		<rect x="338.424" y="8.678" style="fill:#A4C2F7;" width="43.39" height="451.228"/>
	</g>
	<g>
		<path style="fill:#428DFF;" d="M407.877,468.576H78.085c-2.302,0.001-4.509-0.913-6.137-2.541
			c-1.628-1.628-2.542-3.835-2.541-6.137V8.678c-0.001-2.302,0.913-4.509,2.541-6.137S75.783-0.001,78.085,0h329.792
			c19.144,0.022,34.658,15.534,34.682,34.678v399.22C442.535,453.042,427.021,468.554,407.877,468.576z M86.763,451.22h321.114
			c9.563-0.009,17.315-7.759,17.326-17.322V34.678c-0.012-9.563-7.763-17.313-17.326-17.322H86.763V451.22z"/>
		<path style="fill:#428DFF;" d="M381.814,468.576h-43.39c-2.302,0.001-4.509-0.913-6.137-2.541
			c-1.628-1.628-2.542-3.835-2.541-6.137V8.678c-0.001-2.302,0.913-4.509,2.541-6.137s3.835-2.542,6.137-2.541h43.39
			c2.302-0.001,4.509,0.913,6.137,2.541c1.628,1.628,2.542,3.835,2.541,6.137v451.22c0.001,2.302-0.913,4.509-2.541,6.137
			C386.323,467.663,384.115,468.577,381.814,468.576z M347.102,451.22h26.034V17.356h-26.034V451.22z"/>
		<path style="fill:#428DFF;" d="M338.424,321.144H78.085c-2.302,0.001-4.509-0.914-6.137-2.541
			c-1.628-1.628-2.542-3.835-2.541-6.137V156.263c-0.001-2.302,0.913-4.509,2.541-6.137c1.628-1.628,3.835-2.542,6.137-2.541
			h260.339c2.302-0.001,4.509,0.913,6.137,2.541c1.628,1.628,2.542,3.835,2.541,6.137v156.203c0.001,2.302-0.913,4.509-2.541,6.137
			C342.933,320.231,340.726,321.145,338.424,321.144z M86.763,303.788h242.983V164.941H86.763V303.788z"/>
		<path style="fill:#428DFF;" d="M433.882,321.144h-52.068c-2.302,0.001-4.509-0.914-6.137-2.541
			c-1.628-1.628-2.542-3.835-2.541-6.137V156.263c-0.001-2.302,0.913-4.509,2.541-6.137s3.835-2.542,6.137-2.541h52.068
			c2.302-0.001,4.509,0.913,6.137,2.541c1.628,1.628,2.542,3.835,2.541,6.137v156.203c0.001,2.302-0.914,4.509-2.541,6.137
			C438.391,320.231,436.183,321.145,433.882,321.144z M390.492,303.788h34.712V164.941h-34.712V303.788z"/>
		<path style="fill:#428DFF;" d="M164.865,511.966c-1.713-0.001-3.388-0.508-4.814-1.458l-21.22-14.144l-21.22,14.144
			c-2.663,1.776-6.087,1.941-8.909,0.431s-4.583-4.451-4.583-7.652v-43.39c-0.001-2.302,0.913-4.509,2.541-6.137
			c1.628-1.628,3.835-2.542,6.137-2.541h52.068c2.302-0.001,4.509,0.914,6.137,2.541c1.628,1.628,2.542,3.835,2.541,6.137v43.39
			c0,2.302-0.914,4.509-2.541,6.137C169.374,511.052,167.166,511.966,164.865,511.966z M138.831,477.254
			c1.714-0.002,3.389,0.506,4.814,1.458l12.542,8.364v-18.5h-34.712v18.5l12.542-8.364
			C135.442,477.76,137.117,477.252,138.831,477.254z"/>
		<circle style="fill:#428DFF;" cx="433.882" cy="199.567" r="8.678"/>
		<circle style="fill:#428DFF;" cx="433.882" cy="251.635" r="8.678"/>
		<circle style="fill:#428DFF;" cx="433.882" cy="303.703" r="8.678"/>
	</g>
</g>
<g>
</g>
<g>
</g>
<g>
</g>
<g>
</g>
<g>
</g>
<g>
</g>
<g>
</g>
<g>
</g>
<g>
</g>
<g>
</g>
<g>
</g>
<g>
</g>
<g>
</g>
<g>
</g>
<g>
</g>
</svg>
