<?xml version="1.0" encoding="iso-8859-1"?>
<!-- Generator: Adobe Illustrator 19.0.0, SVG Export Plug-In . SVG Version: 6.00 Build 0)  -->
<svg version="1.1" id="Capa_1" xmlns="http://www.w3.org/2000/svg" xmlns:xlink="http://www.w3.org/1999/xlink" x="0px" y="0px"
	 viewBox="0 0 512.003 512.003" style="enable-background:new 0 0 512.003 512.003;" xml:space="preserve">
<g>
	<polygon style="fill:#ECECEC;" points="363.056,121.021 195.493,141.865 195.493,46.651 363.056,25.808 	"/>
	<polygon style="fill:#A4C2F7;" points="484.074,104.526 307.202,121.021 307.202,25.808 484.074,9.312 	"/>
	<polygon style="fill:#E3E7F2;" points="456.147,104.526 223.42,141.865 223.42,46.651 456.147,9.312 	"/>
	<g>
		<ellipse style="fill:#A4C2F7;" cx="111.711" cy="428.221" rx="83.782" ry="74.473"/>
		<ellipse style="fill:#A4C2F7;" cx="400.293" cy="335.131" rx="83.782" ry="74.473"/>
	</g>
	<g>
		<ellipse style="fill:#E3E7F2;" cx="111.711" cy="428.221" rx="55.855" ry="74.473"/>
		<ellipse style="fill:#E3E7F2;" cx="400.293" cy="335.131" rx="55.855" ry="74.473"/>
	</g>
	<g>
		<path style="fill:#FFFFFF;" d="M344.438,335.131c0-41.13,25.007-74.473,55.855-74.473c-46.272,0-83.782,33.343-83.782,74.473
			s37.51,74.473,83.782,74.473C369.445,409.603,344.438,376.26,344.438,335.131z"/>
		<path style="fill:#FFFFFF;" d="M55.856,428.221c0-41.129,25.007-74.473,55.855-74.473c-46.272,0-83.782,33.343-83.782,74.473
			s37.51,74.473,83.782,74.473C80.863,502.694,55.856,469.351,55.856,428.221z"/>
	</g>
	<g>
		<path style="fill:#428DFF;" d="M195.493,151.176c-5.141-0.001-9.308-4.168-9.309-9.309V46.649
			c0.001-4.679,3.473-8.632,8.114-9.236L482.879,0.076c2.655-0.341,5.329,0.476,7.34,2.244c2.01,1.768,3.163,4.315,3.165,6.992
			v95.209c-0.001,4.679-3.473,8.632-8.114,9.236l-288.582,37.345C196.291,151.15,195.892,151.174,195.493,151.176z M204.802,54.831
			v76.445L474.765,96.34V19.903L204.802,54.831z"/>
		<path style="fill:#428DFF;" d="M195.493,429.349c-2.469,0.001-4.837-0.98-6.583-2.726c-1.746-1.746-2.727-4.114-2.726-6.583
			V102.658c0-5.141,4.168-9.309,9.309-9.309s9.309,4.168,9.309,9.309V420.04c0.001,2.469-0.98,4.837-2.726,6.583
			C200.33,428.369,197.962,429.349,195.493,429.349z"/>
		<path style="fill:#428DFF;" d="M484.074,345.331c-2.469,0.001-4.837-0.98-6.583-2.726s-2.727-4.114-2.726-6.583v-270.7
			c0-5.141,4.168-9.309,9.309-9.309s9.309,4.168,9.309,9.309v270.7c0.001,2.469-0.98,4.837-2.726,6.583
			C488.912,344.351,486.543,345.331,484.074,345.331L484.074,345.331z"/>
		<path style="fill:#428DFF;" d="M111.711,512.003c-51.332,0-93.091-37.582-93.091-83.782s41.759-83.782,93.091-83.782
			s93.091,37.582,93.091,83.782S163.043,512.003,111.711,512.003z M111.711,363.058c-41.064,0-74.473,29.236-74.473,65.164
			s33.409,65.164,74.473,65.164s74.473-29.236,74.473-65.164S152.774,363.058,111.711,363.058z"/>
		<path style="fill:#428DFF;" d="M400.293,418.912c-51.332,0-93.091-37.582-93.091-83.782s41.759-83.782,93.091-83.782
			s93.091,37.582,93.091,83.782S451.624,418.912,400.293,418.912z M400.293,269.967c-41.064,0-74.473,29.236-74.473,65.164
			s33.409,65.164,74.473,65.164s74.473-29.236,74.473-65.164S441.356,269.967,400.293,269.967z"/>
	</g>
</g>
<g>
</g>
<g>
</g>
<g>
</g>
<g>
</g>
<g>
</g>
<g>
</g>
<g>
</g>
<g>
</g>
<g>
</g>
<g>
</g>
<g>
</g>
<g>
</g>
<g>
</g>
<g>
</g>
<g>
</g>
</svg>
