<?xml version="1.0" encoding="iso-8859-1"?>
<!-- Generator: Adobe Illustrator 19.0.0, SVG Export Plug-In . SVG Version: 6.00 Build 0)  -->
<svg version="1.1" id="Capa_1" xmlns="http://www.w3.org/2000/svg" xmlns:xlink="http://www.w3.org/1999/xlink" x="0px" y="0px"
	 viewBox="0 0 512.001 512.001" style="enable-background:new 0 0 512.001 512.001;" xml:space="preserve">
<g>
	<path style="fill:#7FACFA;" d="M476.25,304.757L363.891,197.379c-3.001-3.038-4.655-7.155-4.591-11.425
		c0.064-4.27,1.841-8.335,4.932-11.282L476.59,70.963c4.564-4.315,11.264-5.487,17.022-2.977s9.46,8.216,9.405,14.497v211.088
		c0.057,6.368-3.747,12.136-9.623,14.592C487.519,310.618,480.741,309.272,476.25,304.757z"/>
	<path style="fill:#FFFFFF;" d="M44.408,44.913h135.241c19.565,0,35.426,15.861,35.426,35.426v205.543
		c0,9.942-3.95,19.477-10.98,26.508c-7.03,7.03-16.565,10.98-26.508,10.98H43.033c-18.806,0-34.05-15.245-34.05-34.05V80.339
		C8.982,60.774,24.843,44.913,44.408,44.913z"/>
	<path style="fill:#A4C2F7;" d="M188.632,44.913h135.241c19.565,0,35.426,15.861,35.426,35.426v205.543
		c0,20.704-16.784,37.487-37.487,37.487H187.256c-18.806,0-34.05-15.245-34.05-34.05V80.339
		C153.206,60.774,169.067,44.913,188.632,44.913z"/>
	<path style="fill:#E3E7F2;" d="M71.355,44.913h225.57c19.565,0,35.426,15.861,35.426,35.426v205.543
		c0,20.704-16.784,37.487-37.487,37.487H69.98c-18.806,0-34.05-15.245-34.05-34.05V80.339c0-9.395,3.732-18.406,10.376-25.05
		S61.96,44.913,71.355,44.913z"/>
	<circle style="fill:#7FACFA;" cx="112.281" cy="148.211" r="49.404"/>
	<g>
		<ellipse style="fill:#A4C2F7;" cx="98.807" cy="148.211" rx="35.93" ry="49.404"/>
		<path style="fill:#A4C2F7;" d="M475.3,77.525c-9.129,10.31-21.195,17.578-34.577,20.828c-0.214,8.295-4.888,15.83-12.226,19.705
			c-4.605,2.352-8.75,5.512-12.236,9.33c-2.746,4.427-4.668,9.313-5.674,14.424c-1.224,3.775-4.582,6.455-8.534,6.812
			c-3.952,0.357-7.736-1.678-9.617-5.172c-9.946,11.593-20.087,23.092-30.604,34.061c1.391,5.852,3.616,11.474,6.606,16.693
			c2.025,3.042,1.881,7.037-0.358,9.926c24.673,22.184,45.728,48.355,72.475,68.18c2.304,1.648,3.792,4.203,4.089,7.02
			c9.143,7.7,18.49,15.122,28.098,22.173c0.257,0.243,0.5,0.501,0.728,0.772c1.709-2.581,2.615-5.611,2.601-8.706V82.483
			C476.072,80.8,475.812,79.128,475.3,77.525L475.3,77.525z"/>
	</g>
	<g>
		<path style="fill:#428DFF;" d="M321.811,332.352H43.031C19.276,332.323,0.026,313.072,0,289.317V80.343
			c0.026-24.516,19.892-44.384,44.408-44.412h279.465c24.516,0.028,44.382,19.896,44.408,44.412v205.535
			C368.252,311.531,347.464,332.32,321.811,332.352L321.811,332.352z M44.408,53.895c-14.598,0.02-26.426,11.85-26.443,26.447
			v208.974c0.015,13.838,11.228,25.053,25.066,25.07h278.781c15.737-0.019,28.488-12.772,28.504-28.509V80.343
			c-0.017-14.598-11.845-26.428-26.443-26.447H44.408z"/>
		<path style="fill:#428DFF;" d="M487.184,318.431c-6.478-0.023-12.678-2.635-17.219-7.254L357.684,203.869
			c-4.777-4.737-7.434-11.205-7.366-17.932c0.069-6.727,2.857-13.14,7.73-17.778L470.5,64.369
			c7.064-6.808,17.544-8.666,26.517-4.702c9.167,3.853,15.09,12.872,14.983,22.815v211.088
			C511.999,307.283,500.896,318.405,487.184,318.431L487.184,318.431z M487.224,75.606c-1.67,0.01-3.268,0.682-4.443,1.868
			L370.325,181.273c-1.296,1.269-2.032,3.002-2.044,4.816c-0.035,1.855,0.682,3.646,1.987,4.965l112.189,107.211l0.175,0.167
			c1.847,1.971,4.736,2.564,7.21,1.482c2.58-1.036,4.25-3.561,4.193-6.342V82.483c0.054-2.745-1.573-5.245-4.105-6.307
			C489.075,75.809,488.155,75.615,487.224,75.606z"/>
		<path style="fill:#428DFF;" d="M116.763,476.071c-3.123-0.002-6.02-1.626-7.652-4.288c-1.632-2.662-1.764-5.981-0.348-8.764
			l73.039-143.719c1.454-2.861,4.324-4.729,7.529-4.901c3.205-0.171,6.258,1.38,8.009,4.07c1.751,2.69,1.934,6.11,0.48,8.971
			l-73.04,143.719C123.245,474.174,120.147,476.072,116.763,476.071z"/>
		<path style="fill:#428DFF;" d="M260.5,476.071c-3.427,0.004-6.558-1.942-8.07-5.018l-70.68-143.719
			c-1.423-2.881-1.199-6.302,0.588-8.973s4.863-4.184,8.069-3.969c3.206,0.215,6.053,2.126,7.466,5.012l70.68,143.719
			c1.37,2.783,1.206,6.076-0.432,8.709C266.483,474.467,263.602,476.069,260.5,476.071L260.5,476.071z"/>
		<path style="fill:#428DFF;" d="M112.281,206.597c-32.246,0-58.386-26.14-58.386-58.386s26.14-58.386,58.386-58.386
			s58.386,26.14,58.386,58.386C170.629,180.441,144.511,206.56,112.281,206.597z M112.281,107.79
			c-22.324,0-40.421,18.097-40.421,40.421s18.097,40.421,40.421,40.421s40.421-18.097,40.421-40.421
			C152.677,125.897,134.595,107.814,112.281,107.79L112.281,107.79z"/>
		<path style="fill:#428DFF;" d="M170.667,206.597c-2.383,0.003-4.668-0.944-6.351-2.632l-44.912-44.912
			c-3.453-3.516-3.428-9.159,0.057-12.644c3.485-3.485,9.127-3.511,12.644-0.057l44.912,44.912c2.568,2.569,3.336,6.432,1.946,9.788
			C177.574,204.408,174.299,206.596,170.667,206.597z"/>
	</g>
</g>
<g>
</g>
<g>
</g>
<g>
</g>
<g>
</g>
<g>
</g>
<g>
</g>
<g>
</g>
<g>
</g>
<g>
</g>
<g>
</g>
<g>
</g>
<g>
</g>
<g>
</g>
<g>
</g>
<g>
</g>
</svg>
