<?xml version="1.0" encoding="iso-8859-1"?>
<!-- Generator: Adobe Illustrator 19.0.0, SVG Export Plug-In . SVG Version: 6.00 Build 0)  -->
<svg version="1.1" id="Capa_1" xmlns="http://www.w3.org/2000/svg" xmlns:xlink="http://www.w3.org/1999/xlink" x="0px" y="0px"
	 viewBox="0 0 512 512" style="enable-background:new 0 0 512 512;" xml:space="preserve">
<g>
	<rect x="79.448" y="52.966" style="fill:#FFFFFF;" width="176.552" height="406.069"/>
	<rect x="256" y="52.966" style="fill:#A4C2F7;" width="176.552" height="406.069"/>
	<rect x="441.379" y="88.276" style="fill:#E3E7F2;" width="17.655" height="335.448"/>
	<rect x="476.69" y="123.586" style="fill:#A4C2F7;" width="17.655" height="264.828"/>
	<rect x="52.966" y="88.276" style="fill:#E3E7F2;" width="17.655" height="335.448"/>
	<rect x="17.655" y="123.586" style="fill:#A4C2F7;" width="17.655" height="264.828"/>
	
		<linearGradient id="SVGID_1_" gradientUnits="userSpaceOnUse" x1="-48.925" y1="652.5925" x2="-47.7485" y2="651.7229" gradientTransform="matrix(300.1379 0 0 -406.069 14763.6895 265077)">
		<stop  offset="0" style="stop-color:#D4E1F4"/>
		<stop  offset="0.1717" style="stop-color:#D4E1F4"/>
		<stop  offset="0.2" style="stop-color:#D4E1F4"/>
		<stop  offset="0.2001" style="stop-color:#DAE4F4"/>
		<stop  offset="0.2007" style="stop-color:#EBEBF4"/>
		<stop  offset="0.2014" style="stop-color:#F6F1F4"/>
		<stop  offset="0.2023" style="stop-color:#FDF4F4"/>
		<stop  offset="0.205" style="stop-color:#FFF5F4"/>
		<stop  offset="0.2522" style="stop-color:#FFF5F4"/>
		<stop  offset="0.26" style="stop-color:#FFF5F4"/>
		<stop  offset="0.26" style="stop-color:#D4E1F4"/>
		<stop  offset="0.3974" style="stop-color:#D4E1F4"/>
		<stop  offset="0.42" style="stop-color:#D4E1F4"/>
		<stop  offset="0.4201" style="stop-color:#DAE4F4"/>
		<stop  offset="0.4207" style="stop-color:#EBEBF4"/>
		<stop  offset="0.4214" style="stop-color:#F6F1F4"/>
		<stop  offset="0.4223" style="stop-color:#FDF4F4"/>
		<stop  offset="0.425" style="stop-color:#FFF5F4"/>
		<stop  offset="0.4894" style="stop-color:#FFF5F4"/>
		<stop  offset="0.5" style="stop-color:#FFF5F4"/>
		<stop  offset="0.5" style="stop-color:#F9F2F4"/>
		<stop  offset="0.5001" style="stop-color:#E8EBF4"/>
		<stop  offset="0.5003" style="stop-color:#DDE5F4"/>
		<stop  offset="0.5005" style="stop-color:#D6E2F4"/>
		<stop  offset="0.501" style="stop-color:#D4E1F4"/>
		<stop  offset="0.7062" style="stop-color:#D4E1F4"/>
		<stop  offset="0.74" style="stop-color:#D4E1F4"/>
		<stop  offset="0.741" style="stop-color:#FFF5F4"/>
		<stop  offset="0.8346" style="stop-color:#FFF5F4"/>
		<stop  offset="0.85" style="stop-color:#FFF5F4"/>
		<stop  offset="0.851" style="stop-color:#D4E1F4"/>
	</linearGradient>
	<rect x="105.931" y="52.966" style="fill:url(#SVGID_1_);" width="300.138" height="406.069"/>
	<ellipse style="fill:#7FACFA;" cx="339.862" cy="300.138" rx="48.552" ry="44.138"/>
	<ellipse style="fill:#A4C2F7;" cx="326.621" cy="300.138" rx="35.31" ry="44.138"/>
	<ellipse style="fill:#7FACFA;" cx="172.138" cy="353.103" rx="48.552" ry="44.138"/>
	<ellipse style="fill:#A4C2F7;" cx="158.897" cy="353.103" rx="35.31" ry="44.138"/>
	<g>
		<path style="fill:#428DFF;" d="M326.621,467.862H79.448c-2.341,0.001-4.587-0.929-6.243-2.585
			c-1.656-1.656-2.585-3.901-2.585-6.243V52.966c-0.001-2.341,0.929-4.587,2.585-6.243c1.656-1.656,3.901-2.585,6.243-2.585h35.306
			c4.875,0,8.828,3.952,8.828,8.828s-3.952,8.828-8.828,8.828H88.276v388.414h238.345c4.875,0,8.828,3.952,8.828,8.828
			S331.496,467.862,326.621,467.862z"/>
		<path style="fill:#428DFF;" d="M432.552,467.862h-35.31c-4.875,0-8.828-3.952-8.828-8.828s3.952-8.828,8.828-8.828h26.483V61.793
			H185.379c-4.875,0-8.828-3.952-8.828-8.828s3.952-8.828,8.828-8.828h247.172c2.342-0.001,4.588,0.928,6.244,2.584
			c1.656,1.656,2.585,3.902,2.584,6.244v406.069c0.001,2.342-0.928,4.588-2.584,6.244
			C437.139,466.934,434.893,467.863,432.552,467.862z"/>
		<path style="fill:#428DFF;" d="M467.862,432.552h-35.31c-2.342,0.001-4.588-0.928-6.244-2.584
			c-1.656-1.656-2.585-3.902-2.584-6.244V88.276c-0.001-2.342,0.928-4.588,2.584-6.244s3.902-2.585,6.244-2.584h35.31
			c2.342-0.001,4.588,0.928,6.244,2.584s2.585,3.902,2.584,6.244v335.448c0.001,2.342-0.928,4.588-2.584,6.244
			C472.45,431.623,470.204,432.553,467.862,432.552L467.862,432.552z M441.379,414.897h17.655V97.103h-17.655V414.897z"/>
		<path style="fill:#428DFF;" d="M79.448,432.552h-35.31c-2.341,0.001-4.587-0.929-6.243-2.585
			c-1.656-1.656-2.585-3.901-2.585-6.243V88.276c-0.001-2.341,0.929-4.587,2.585-6.243c1.656-1.656,3.901-2.585,6.243-2.585h35.31
			c2.341-0.001,4.587,0.929,6.243,2.585s2.585,3.901,2.585,6.243v335.448c0.001,2.341-0.929,4.587-2.585,6.243
			C84.035,431.622,81.79,432.552,79.448,432.552L79.448,432.552z M52.966,414.897h17.655V97.103H52.966V414.897z"/>
		<path style="fill:#428DFF;" d="M503.172,397.241h-35.31c-2.342,0.001-4.588-0.928-6.244-2.584
			c-1.656-1.656-2.585-3.902-2.584-6.244V123.586c-0.001-2.342,0.928-4.588,2.584-6.244c1.656-1.656,3.902-2.585,6.244-2.584h35.31
			c2.342-0.001,4.588,0.928,6.244,2.584c1.656,1.656,2.585,3.902,2.584,6.244v264.828c0.001,2.342-0.928,4.588-2.584,6.244
			C507.76,396.313,505.514,397.243,503.172,397.241L503.172,397.241z M476.69,379.586h17.655V132.414H476.69V379.586z"/>
		<path style="fill:#428DFF;" d="M44.138,397.241H8.828c-2.341,0.001-4.587-0.929-6.243-2.585c-1.656-1.656-2.585-3.901-2.585-6.243
			V123.586c-0.001-2.341,0.929-4.587,2.585-6.243s3.901-2.585,6.243-2.585h35.31c2.341-0.001,4.587,0.929,6.243,2.585
			c1.656,1.656,2.585,3.901,2.585,6.243v264.828c0.001,2.341-0.929,4.587-2.585,6.243C48.725,396.312,46.479,397.242,44.138,397.241
			z M17.655,379.586H35.31V132.414H17.655V379.586z"/>
		<circle style="fill:#428DFF;" cx="150.069" cy="52.966" r="8.828"/>
		<circle style="fill:#428DFF;" cx="361.931" cy="459.034" r="8.828"/>
		<path style="fill:#428DFF;" d="M220.69,203.034c-4.873-0.006-8.822-3.955-8.828-8.828v-52.966
			c-0.002-4.344,3.161-8.043,7.453-8.715l167.724-26.483c2.549-0.401,5.146,0.333,7.108,2.009c1.962,1.676,3.093,4.126,3.095,6.707
			v52.966c0.002,4.344-3.161,8.043-7.453,8.715l-167.724,26.483C221.61,202.998,221.15,203.036,220.69,203.034L220.69,203.034z
			 M229.517,148.784v35.095l150.069-23.698v-35.095L229.517,148.784z"/>
		<path style="fill:#428DFF;" d="M220.69,362.828c-2.341,0.001-4.587-0.929-6.243-2.585c-1.656-1.656-2.585-3.901-2.585-6.243
			V170.25c0-4.875,3.952-8.828,8.828-8.828s8.828,3.952,8.828,8.828V354c0.001,2.341-0.929,4.587-2.585,6.243
			C225.277,361.898,223.031,362.828,220.69,362.828z"/>
		<path style="fill:#428DFF;" d="M388.414,308.966c-2.341,0.001-4.587-0.929-6.243-2.585c-1.656-1.656-2.585-3.901-2.585-6.243
			V123.586c0-4.875,3.952-8.828,8.828-8.828s8.828,3.952,8.828,8.828v176.552c0.001,2.341-0.929,4.587-2.585,6.243
			C393.001,308.036,390.755,308.966,388.414,308.966L388.414,308.966z"/>
		<path style="fill:#428DFF;" d="M339.862,353.103c-30.44,1.135-56.079-22.532-57.379-52.966c1.3-30.433,26.94-54.1,57.379-52.966
			c30.44-1.135,56.079,22.532,57.379,52.966C395.941,330.571,370.302,354.238,339.862,353.103z M339.862,264.828
			c-20.687-1.123-38.414,14.634-39.724,35.31c1.31,20.676,19.037,36.434,39.724,35.31c20.687,1.123,38.415-14.634,39.724-35.31
			C378.277,279.462,360.549,263.704,339.862,264.828z"/>
		<path style="fill:#428DFF;" d="M172.138,406.069c-30.44,1.135-56.079-22.532-57.379-52.966c1.3-30.433,26.94-54.1,57.379-52.966
			c30.44-1.135,56.079,22.532,57.379,52.966C228.217,383.537,202.578,407.203,172.138,406.069L172.138,406.069z M172.138,317.793
			c-20.687-1.123-38.414,14.634-39.724,35.31c1.31,20.676,19.037,36.434,39.724,35.31c20.687,1.123,38.414-14.634,39.724-35.31
			C210.552,332.427,192.825,316.67,172.138,317.793z"/>
	</g>
</g>
<g>
</g>
<g>
</g>
<g>
</g>
<g>
</g>
<g>
</g>
<g>
</g>
<g>
</g>
<g>
</g>
<g>
</g>
<g>
</g>
<g>
</g>
<g>
</g>
<g>
</g>
<g>
</g>
<g>
</g>
</svg>
