<?xml version="1.0" encoding="iso-8859-1"?>
<!-- Generator: Adobe Illustrator 19.0.0, SVG Export Plug-In . SVG Version: 6.00 Build 0)  -->
<svg version="1.1" id="Capa_1" xmlns="http://www.w3.org/2000/svg" xmlns:xlink="http://www.w3.org/1999/xlink" x="0px" y="0px"
	 viewBox="0 0 512 512" style="enable-background:new 0 0 512 512;" xml:space="preserve">
<g>
	<circle style="fill:#A4C2F7;" cx="256" cy="256" r="247.467"/>
	
		<linearGradient id="SVGID_1_" gradientUnits="userSpaceOnUse" x1="-48.7641" y1="652.5549" x2="-48.0151" y2="651.8834" gradientTransform="matrix(443.7334 0 0 -494.9333 21728.0684 323061.0313)">
		<stop  offset="0" style="stop-color:#D4E1F4"/>
		<stop  offset="0.1717" style="stop-color:#D4E1F4"/>
		<stop  offset="0.2" style="stop-color:#D4E1F4"/>
		<stop  offset="0.2001" style="stop-color:#DAE4F4"/>
		<stop  offset="0.2007" style="stop-color:#EBEBF4"/>
		<stop  offset="0.2014" style="stop-color:#F6F1F4"/>
		<stop  offset="0.2023" style="stop-color:#FDF4F4"/>
		<stop  offset="0.205" style="stop-color:#FFF5F4"/>
		<stop  offset="0.2522" style="stop-color:#FFF5F4"/>
		<stop  offset="0.26" style="stop-color:#FFF5F4"/>
		<stop  offset="0.26" style="stop-color:#D4E1F4"/>
		<stop  offset="0.3974" style="stop-color:#D4E1F4"/>
		<stop  offset="0.42" style="stop-color:#D4E1F4"/>
		<stop  offset="0.4201" style="stop-color:#DAE4F4"/>
		<stop  offset="0.4207" style="stop-color:#EBEBF4"/>
		<stop  offset="0.4214" style="stop-color:#F6F1F4"/>
		<stop  offset="0.4223" style="stop-color:#FDF4F4"/>
		<stop  offset="0.425" style="stop-color:#FFF5F4"/>
		<stop  offset="0.4894" style="stop-color:#FFF5F4"/>
		<stop  offset="0.5" style="stop-color:#FFF5F4"/>
		<stop  offset="0.5" style="stop-color:#F9F2F4"/>
		<stop  offset="0.5001" style="stop-color:#E8EBF4"/>
		<stop  offset="0.5003" style="stop-color:#DDE5F4"/>
		<stop  offset="0.5005" style="stop-color:#D6E2F4"/>
		<stop  offset="0.501" style="stop-color:#D4E1F4"/>
		<stop  offset="0.7062" style="stop-color:#D4E1F4"/>
		<stop  offset="0.74" style="stop-color:#D4E1F4"/>
		<stop  offset="0.741" style="stop-color:#FFF5F4"/>
		<stop  offset="0.8346" style="stop-color:#FFF5F4"/>
		<stop  offset="0.85" style="stop-color:#FFF5F4"/>
		<stop  offset="0.851" style="stop-color:#D4E1F4"/>
	</linearGradient>
	<ellipse style="fill:url(#SVGID_1_);" cx="256" cy="256" rx="221.867" ry="247.467"/>
	<circle style="fill:#7FACFA;" cx="256" cy="256" r="60.416"/>
	<ellipse style="fill:#A4C2F7;" cx="242.859" cy="256" rx="47.275" ry="60.416"/>
	<path style="fill:#FFFFFF;" d="M34.134,256c0-136.672,99.333-247.467,221.867-247.467H256C119.328,8.533,8.533,119.328,8.533,256
		S119.328,503.467,256,503.467h0.001C133.467,503.467,34.134,392.673,34.134,256z"/>
	<g>
		<path style="fill:#428DFF;" d="M256,512C114.615,512,0,397.385,0,256S114.615,0,256,0s256,114.615,256,256
			C511.84,397.319,397.319,511.84,256,512z M256,17.067C124.041,17.067,17.067,124.041,17.067,256S124.041,494.933,256,494.933
			S494.933,387.959,494.933,256C494.785,124.102,387.898,17.215,256,17.067z"/>
		<path style="fill:#428DFF;" d="M63.892,204.217c-0.673,0-1.345-0.078-2-0.233c-4.581-1.104-7.403-5.709-6.308-10.292
			C71.97,125.339,125.339,71.97,193.692,55.583c4.584-1.1,9.192,1.725,10.292,6.309c1.1,4.584-1.725,9.192-6.309,10.292
			C135.561,87.064,87.064,135.561,72.183,197.675C71.261,201.508,67.835,204.212,63.892,204.217L63.892,204.217z"/>
		<path style="fill:#428DFF;" d="M316.3,456.65c-4.325-0.003-7.964-3.241-8.47-7.536c-0.506-4.295,2.281-8.29,6.486-9.298
			c62.118-14.876,110.619-63.375,125.5-125.491c0.705-2.972,2.945-5.341,5.873-6.212c2.928-0.87,6.098-0.11,8.312,1.995
			c2.214,2.104,3.135,5.232,2.415,8.2c-16.387,68.356-69.76,121.726-138.117,138.108C317.645,456.572,316.973,456.65,316.3,456.65
			L316.3,456.65z"/>
		<path style="fill:#428DFF;" d="M105.075,215.258c-0.654,0.003-1.306-0.073-1.942-0.225c-2.204-0.511-4.115-1.878-5.311-3.799
			c-1.196-1.921-1.579-4.239-1.064-6.442c12.465-53.665,54.368-95.568,108.033-108.033c2.968-0.691,6.08,0.255,8.162,2.48
			c2.082,2.225,2.819,5.392,1.933,8.308s-3.26,5.138-6.229,5.828c-47.33,10.997-84.286,47.953-95.283,95.283
			C112.478,212.519,109.039,215.254,105.075,215.258L105.075,215.258z"/>
		<path style="fill:#428DFF;" d="M305.267,415.467c-4.333-0.005-7.974-3.258-8.466-7.563s2.321-8.295,6.541-9.279
			c47.33-10.997,84.286-47.953,95.283-95.283c0.691-2.968,2.913-5.343,5.829-6.229c2.916-0.886,6.083-0.149,8.308,1.933
			c2.225,2.082,3.171,5.194,2.48,8.162c-12.465,53.665-54.368,95.568-108.033,108.033
			C306.573,415.394,305.921,415.47,305.267,415.467z"/>
		<path style="fill:#428DFF;" d="M146.258,226.292c-0.617-0.001-1.231-0.068-1.833-0.2c-4.602-1.009-7.515-5.556-6.508-10.158
			c8.601-38.976,39.041-69.416,78.017-78.017c2.977-0.652,6.076,0.334,8.129,2.586c2.053,2.252,2.749,5.429,1.825,8.333
			s-3.327,5.095-6.304,5.747c-32.47,7.17-57.83,32.53-65,65C153.728,223.497,150.265,226.288,146.258,226.292z"/>
		<path style="fill:#428DFF;" d="M294.233,374.283c-4.355-0.005-8.007-3.289-8.473-7.618c-0.466-4.33,2.403-8.316,6.657-9.248
			c32.47-7.17,57.83-32.53,65-65c0.652-2.977,2.843-5.38,5.747-6.304c2.904-0.924,6.081-0.228,8.333,1.825
			c2.252,2.053,3.238,5.152,2.586,8.129c-8.601,38.976-39.041,69.416-78.017,78.017C295.464,374.215,294.85,374.282,294.233,374.283
			z"/>
		<path style="fill:#428DFF;" d="M256,324.95c-38.08,0-68.95-30.87-68.95-68.95s30.87-68.95,68.95-68.95s68.95,30.87,68.95,68.95
			C324.905,294.061,294.061,324.905,256,324.95L256,324.95z M256,204.117c-28.654,0-51.883,23.229-51.883,51.883
			c0,28.654,23.229,51.883,51.883,51.883c28.654,0,51.883-23.229,51.883-51.883C307.851,227.359,284.641,204.149,256,204.117
			L256,204.117z"/>
	</g>
</g>
<g>
</g>
<g>
</g>
<g>
</g>
<g>
</g>
<g>
</g>
<g>
</g>
<g>
</g>
<g>
</g>
<g>
</g>
<g>
</g>
<g>
</g>
<g>
</g>
<g>
</g>
<g>
</g>
<g>
</g>
</svg>
