<?xml version="1.0" encoding="iso-8859-1"?>
<!-- Generator: Adobe Illustrator 19.0.0, SVG Export Plug-In . SVG Version: 6.00 Build 0)  -->
<svg version="1.1" id="Capa_1" xmlns="http://www.w3.org/2000/svg" xmlns:xlink="http://www.w3.org/1999/xlink" x="0px" y="0px"
	 viewBox="0 0 512.003 512.003" style="enable-background:new 0 0 512.003 512.003;" xml:space="preserve">
<g>
	<polygon style="fill:#A4C2F7;" points="79.24,256.003 432.764,12.194 432.764,251.566 432.764,499.813 	"/>
	<polygon style="fill:#E3E7F2;" points="432.764,457.78 432.764,54.227 140.192,256.003 	"/>
	<g>
		<path style="fill:#428DFF;" d="M432.764,512.003c-2.473-0.001-4.887-0.752-6.923-2.155L72.317,266.039
			c-3.299-2.276-5.268-6.028-5.268-10.036c0-4.008,1.969-7.759,5.268-10.036L425.841,2.158c3.729-2.575,8.579-2.868,12.591-0.761
			c4.012,2.107,6.524,6.265,6.522,10.797v487.619c0.003,3.234-1.281,6.336-3.567,8.623
			C439.1,510.723,435.998,512.006,432.764,512.003L432.764,512.003z M100.71,256.003l319.863,220.595V35.408L100.71,256.003z"/>
		<path style="fill:#428DFF;" d="M79.24,512.003c-3.233,0.001-6.335-1.283-8.621-3.57c-2.286-2.286-3.57-5.388-3.57-8.621V12.194
			c0-6.733,5.458-12.19,12.19-12.19s12.19,5.458,12.19,12.19v487.619c0.001,3.233-1.283,6.335-3.57,8.621
			C85.574,510.72,82.473,512.004,79.24,512.003z"/>
	</g>
</g>
<g>
</g>
<g>
</g>
<g>
</g>
<g>
</g>
<g>
</g>
<g>
</g>
<g>
</g>
<g>
</g>
<g>
</g>
<g>
</g>
<g>
</g>
<g>
</g>
<g>
</g>
<g>
</g>
<g>
</g>
</svg>
