<?xml version="1.0" encoding="iso-8859-1"?>
<!-- Generator: Adobe Illustrator 19.0.0, SVG Export Plug-In . SVG Version: 6.00 Build 0)  -->
<svg version="1.1" id="Capa_1" xmlns="http://www.w3.org/2000/svg" xmlns:xlink="http://www.w3.org/1999/xlink" x="0px" y="0px"
	 viewBox="0 0 512 512" style="enable-background:new 0 0 512 512;" xml:space="preserve">
<g>
	<path style="fill:#428DFF;" d="M176.762,512c-3.233,0.001-6.335-1.283-8.621-3.57c-2.286-2.286-3.57-5.388-3.57-8.621V12.19
		c0-6.733,5.458-12.19,12.19-12.19c6.733,0,12.19,5.458,12.19,12.19V499.81c0.001,3.233-1.283,6.335-3.57,8.621
		C183.096,510.717,179.995,512.001,176.762,512L176.762,512z"/>
	<path style="fill:#428DFF;" d="M335.238,512c-3.233,0.001-6.335-1.283-8.621-3.57c-2.286-2.286-3.57-5.388-3.57-8.621V12.19
		c0-6.733,5.458-12.19,12.19-12.19s12.19,5.458,12.19,12.19V499.81c0.001,3.233-1.283,6.335-3.57,8.621
		C341.573,510.717,338.471,512.001,335.238,512L335.238,512z"/>
</g>
<g>
</g>
<g>
</g>
<g>
</g>
<g>
</g>
<g>
</g>
<g>
</g>
<g>
</g>
<g>
</g>
<g>
</g>
<g>
</g>
<g>
</g>
<g>
</g>
<g>
</g>
<g>
</g>
<g>
</g>
</svg>
