<?xml version="1.0" encoding="iso-8859-1"?>
<!-- Generator: Adobe Illustrator 19.0.0, SVG Export Plug-In . SVG Version: 6.00 Build 0)  -->
<svg version="1.1" id="Capa_1" xmlns="http://www.w3.org/2000/svg" xmlns:xlink="http://www.w3.org/1999/xlink" x="0px" y="0px"
	 viewBox="0 0 512 512" style="enable-background:new 0 0 512 512;" xml:space="preserve">
<g>
	<polygon style="fill:#A4C2F7;" points="251.509,256 8.982,426.55 8.982,259.099 8.982,85.45 	"/>
	<polygon style="fill:#E3E7F2;" points="8.982,117.032 8.982,394.968 206.596,256 	"/>
	<polygon style="fill:#A4C2F7;" points="503.018,256 260.491,426.55 260.491,259.099 260.491,85.45 	"/>
	<polygon style="fill:#E3E7F2;" points="260.491,117.032 260.491,394.968 458.105,256 	"/>
	<g>
		<path style="fill:#428DFF;" d="M8.982,435.535c-2.383,0.002-4.668-0.944-6.353-2.629s-2.631-3.971-2.629-6.353V85.447
			c-0.001-3.353,1.866-6.428,4.842-7.973s6.564-1.306,9.308,0.623l242.526,170.553c2.392,1.683,3.816,4.426,3.816,7.351
			c0,2.925-1.423,5.667-3.816,7.351L14.149,433.903C12.635,434.964,10.831,435.534,8.982,435.535z M17.965,102.746v306.508
			L235.895,256L17.965,102.746z"/>
		<path style="fill:#428DFF;" d="M260.491,435.649c-2.383,0.002-4.668-0.944-6.353-2.629c-1.685-1.685-2.631-3.971-2.629-6.353
			V85.333c-0.002-3.354,1.865-6.429,4.842-7.974c2.977-1.545,6.566-1.301,9.307,0.632l242.526,170.667
			c2.392,1.68,3.816,4.419,3.816,7.342c0,2.923-1.424,5.662-3.816,7.342L265.658,434.009
			C264.147,435.077,262.342,435.65,260.491,435.649L260.491,435.649z M269.474,102.64V409.36L487.412,256L269.474,102.64z"/>
	</g>
</g>
<g>
</g>
<g>
</g>
<g>
</g>
<g>
</g>
<g>
</g>
<g>
</g>
<g>
</g>
<g>
</g>
<g>
</g>
<g>
</g>
<g>
</g>
<g>
</g>
<g>
</g>
<g>
</g>
<g>
</g>
</svg>
