<?xml version="1.0" encoding="iso-8859-1"?>
<!-- Generator: Adobe Illustrator 19.0.0, SVG Export Plug-In . SVG Version: 6.00 Build 0)  -->
<svg version="1.1" id="Capa_1" xmlns="http://www.w3.org/2000/svg" xmlns:xlink="http://www.w3.org/1999/xlink" x="0px" y="0px"
	 viewBox="0 0 512 512" style="enable-background:new 0 0 512 512;" xml:space="preserve">
<g>
	<polygon style="fill:#A4C2F7;" points="260.491,256 503.018,85.45 503.018,252.901 503.018,426.55 	"/>
	<polygon style="fill:#E3E7F2;" points="503.018,394.968 503.018,117.032 305.404,256 	"/>
	<polygon style="fill:#A4C2F7;" points="8.982,256 251.509,85.45 251.509,252.901 251.509,426.55 	"/>
	<polygon style="fill:#E3E7F2;" points="251.509,394.968 251.509,117.032 53.895,256 	"/>
	<g>
		<path style="fill:#428DFF;" d="M503.018,435.535c-1.849-0.001-3.652-0.571-5.167-1.632L255.325,263.351
			c-2.392-1.683-3.816-4.426-3.816-7.351c0-2.925,1.423-5.667,3.816-7.351L497.851,78.097c2.743-1.928,6.332-2.168,9.308-0.623
			c2.976,1.546,4.842,4.62,4.842,7.973v341.105c0.002,2.383-0.944,4.668-2.629,6.353C507.686,434.591,505.4,435.537,503.018,435.535
			L503.018,435.535z M276.105,256l217.93,153.254V102.746L276.105,256z"/>
		<path style="fill:#428DFF;" d="M251.509,435.649c-1.85,0-3.655-0.573-5.167-1.64L3.816,263.342C1.424,261.662,0,258.923,0,256
			c0-2.923,1.424-5.662,3.816-7.342L246.342,77.991c2.741-1.933,6.33-2.176,9.307-0.632c2.977,1.545,4.844,4.62,4.842,7.974v341.333
			c0.002,2.383-0.944,4.668-2.629,6.353C256.177,434.705,253.892,435.651,251.509,435.649z M24.588,256l217.939,153.36V102.64
			L24.588,256z"/>
	</g>
</g>
<g>
</g>
<g>
</g>
<g>
</g>
<g>
</g>
<g>
</g>
<g>
</g>
<g>
</g>
<g>
</g>
<g>
</g>
<g>
</g>
<g>
</g>
<g>
</g>
<g>
</g>
<g>
</g>
<g>
</g>
</svg>
