<?xml version="1.0" encoding="iso-8859-1"?>
<!-- Generator: Adobe Illustrator 19.0.0, SVG Export Plug-In . SVG Version: 6.00 Build 0)  -->
<svg version="1.1" id="Capa_1" xmlns="http://www.w3.org/2000/svg" xmlns:xlink="http://www.w3.org/1999/xlink" x="0px" y="0px"
	 viewBox="0 0 512 512" style="enable-background:new 0 0 512 512;" xml:space="preserve">
<g>
	<g>
		<polygon style="fill:#A4C2F7;" points="386.612,214.202 501.551,130.61 386.612,47.019 		"/>
		<polygon style="fill:#A4C2F7;" points="386.612,464.978 501.551,381.386 386.612,297.794 		"/>
	</g>
	<g>
		<polygon style="fill:#E3E7F2;" points="386.612,183.806 459.755,130.61 386.612,77.415 		"/>
		<polygon style="fill:#E3E7F2;" points="386.612,328.19 386.612,434.582 459.755,381.386 		"/>
	</g>
	<g>
		<path style="fill:#428DFF;" d="M31.347,391.835c-5.771,0-10.449-4.678-10.449-10.449c0-5.771,4.678-10.449,10.449-10.449
			c63.449-0.072,114.867-51.49,114.939-114.939c0.087-74.985,60.852-135.75,135.837-135.837h104.49
			c5.771,0,10.449,4.678,10.449,10.449s-4.678,10.449-10.449,10.449h-104.49c-63.449,0.072-114.867,51.49-114.939,114.939
			C167.097,330.983,106.332,391.748,31.347,391.835z"/>
		<path style="fill:#428DFF;" d="M386.612,391.835h-104.49c-33.091,0.021-65.051-12.048-89.867-33.938
			c-4.323-3.816-4.736-10.414-0.923-14.74c3.813-4.326,10.41-4.744,14.739-0.934c21.002,18.523,48.048,28.734,76.051,28.714h104.49
			c5.771,0,10.449,4.678,10.449,10.449C397.061,387.157,392.383,391.835,386.612,391.835z"/>
		<path style="fill:#428DFF;" d="M114.969,172.968c-2.572,0.002-5.054-0.946-6.969-2.663c-21.077-18.856-48.372-29.27-76.653-29.245
			H10.449C4.678,141.059,0,136.381,0,130.61s4.678-10.449,10.449-10.449h20.898c33.425-0.03,65.685,12.281,90.592,34.571
			c3.228,2.889,4.338,7.47,2.792,11.516C123.184,170.295,119.301,172.968,114.969,172.968L114.969,172.968z"/>
		<path style="fill:#428DFF;" d="M31.347,391.835H10.449C4.678,391.835,0,387.157,0,381.386c0-5.771,4.678-10.449,10.449-10.449
			h20.898c5.771,0,10.449,4.678,10.449,10.449C41.796,387.157,37.118,391.835,31.347,391.835z"/>
		<path style="fill:#428DFF;" d="M386.612,224.651c-5.769-0.005-10.444-4.68-10.449-10.449V47.019
			c0.001-3.929,2.206-7.525,5.707-9.308c3.501-1.783,7.706-1.451,10.884,0.859l114.939,83.592c2.705,1.965,4.306,5.106,4.306,8.449
			c0,3.343-1.601,6.484-4.306,8.449l-114.939,83.592C390.971,223.952,388.82,224.652,386.612,224.651L386.612,224.651z
			 M397.061,67.539v126.143l86.724-63.071L397.061,67.539z"/>
		<path style="fill:#428DFF;" d="M386.612,475.427c-5.769-0.005-10.444-4.68-10.449-10.449V297.794
			c0.001-3.929,2.206-7.525,5.707-9.308c3.501-1.783,7.706-1.451,10.884,0.859l114.939,83.592c2.705,1.965,4.306,5.106,4.306,8.449
			c0,3.343-1.601,6.484-4.306,8.449l-114.939,83.592C390.971,474.727,388.82,475.428,386.612,475.427L386.612,475.427z
			 M397.061,318.315v126.143l86.724-63.071L397.061,318.315z"/>
	</g>
</g>
<g>
</g>
<g>
</g>
<g>
</g>
<g>
</g>
<g>
</g>
<g>
</g>
<g>
</g>
<g>
</g>
<g>
</g>
<g>
</g>
<g>
</g>
<g>
</g>
<g>
</g>
<g>
</g>
<g>
</g>
</svg>
