<?xml version="1.0" encoding="iso-8859-1"?>
<!-- Generator: Adobe Illustrator 19.0.0, SVG Export Plug-In . SVG Version: 6.00 Build 0)  -->
<svg version="1.1" id="Capa_1" xmlns="http://www.w3.org/2000/svg" xmlns:xlink="http://www.w3.org/1999/xlink" x="0px" y="0px"
	 viewBox="0 0 512 512" style="enable-background:new 0 0 512 512;" xml:space="preserve">
<g>
	<polygon style="fill:#A4C2F7;" points="389.12,199.678 501.76,117.758 389.12,35.838 	"/>
	<polygon style="fill:#E3E7F2;" points="389.12,169.89 460.8,117.758 389.12,65.626 	"/>
	<path style="fill:#428DFF;" d="M389.12,209.918c-5.653-0.005-10.235-4.587-10.24-10.24V35.838c0.001-3.85,2.162-7.374,5.593-9.121
		c3.431-1.747,7.552-1.422,10.667,0.841l112.64,81.92c2.651,1.925,4.22,5.004,4.22,8.28c0,3.276-1.569,6.355-4.22,8.28
		l-112.64,81.92C393.392,209.233,391.284,209.919,389.12,209.918L389.12,209.918z M399.36,55.948v123.62l84.99-61.81L399.36,55.948z
		"/>
	<polygon style="fill:#A4C2F7;" points="122.88,312.318 10.24,394.238 122.88,476.158 	"/>
	<polygon style="fill:#E3E7F2;" points="122.88,342.106 51.2,394.238 122.88,446.37 	"/>
	<g>
		<path style="fill:#428DFF;" d="M122.88,486.398c-2.164,0.001-4.272-0.685-6.02-1.96L4.22,402.518
			c-2.651-1.925-4.22-5.004-4.22-8.28s1.569-6.355,4.22-8.28l112.64-81.92c3.115-2.264,7.236-2.589,10.667-0.841
			c3.431,1.747,5.592,5.271,5.593,9.121v163.84C133.115,481.812,128.533,486.393,122.88,486.398z M27.65,394.238l84.99,61.81
			v-123.62L27.65,394.238z"/>
		<path style="fill:#428DFF;" d="M10.24,250.878c-2.716,0.002-5.322-1.077-7.242-2.998s-2.999-4.526-2.998-7.242
			c0.085-73.485,59.635-133.035,133.12-133.12h256c5.655,0,10.24,4.585,10.24,10.24c0,5.655-4.585,10.24-10.24,10.24h-256
			c-62.18,0.07-112.57,50.46-112.64,112.64c0.002,2.716-1.077,5.322-2.998,7.242S12.956,250.88,10.24,250.878L10.24,250.878z"/>
		<path style="fill:#428DFF;" d="M378.88,404.478h-256c-5.655,0-10.24-4.585-10.24-10.24s4.585-10.24,10.24-10.24h256
			c62.18-0.07,112.57-50.46,112.64-112.64c0-5.655,4.585-10.24,10.24-10.24c5.655,0,10.24,4.585,10.24,10.24
			C511.915,344.843,452.365,404.393,378.88,404.478z"/>
	</g>
</g>
<g>
</g>
<g>
</g>
<g>
</g>
<g>
</g>
<g>
</g>
<g>
</g>
<g>
</g>
<g>
</g>
<g>
</g>
<g>
</g>
<g>
</g>
<g>
</g>
<g>
</g>
<g>
</g>
<g>
</g>
</svg>
