<?xml version="1.0" encoding="iso-8859-1"?>
<!-- Generator: Adobe Illustrator 19.0.0, SVG Export Plug-In . SVG Version: 6.00 Build 0)  -->
<svg version="1.1" id="Capa_1" xmlns="http://www.w3.org/2000/svg" xmlns:xlink="http://www.w3.org/1999/xlink" x="0px" y="0px"
	 viewBox="0 0 512 512" style="enable-background:new 0 0 512 512;" xml:space="preserve">
<g>
	<polygon style="fill:#A4C2F7;" points="102.4,494.933 76.8,477.867 51.2,494.933 51.2,452.267 102.4,452.267 	"/>
	<path style="fill:#FFFFFF;" d="M17.067,8.563h153.629c14.122,0,25.571,11.448,25.571,25.571v392.563
		c0,14.122-11.448,25.571-25.571,25.571H17.067V8.563z"/>
	<path style="fill:#A4C2F7;" d="M187.733,8.563h153.629c14.122,0,25.571,11.448,25.571,25.571v392.563
		c0,14.122-11.448,25.571-25.571,25.571H187.733V8.563z"/>
	<path style="fill:#E3E7F2;" d="M42.667,8.563h273.096c6.782,0,13.286,2.694,18.081,7.49s7.49,11.299,7.49,18.081v392.563
		c0,6.782-2.694,13.286-7.49,18.081s-11.3,7.49-18.081,7.49H42.667V8.563z"/>
	<g>
		<rect x="273.067" y="8.533" style="fill:#A4C2F7;" width="42.667" height="443.708"/>
		<path style="fill:#A4C2F7;" d="M494.933,426.667L460.8,486.4l-34.133-59.733V25.472c0-9.355,7.584-16.939,16.939-16.939h34.389
			c9.355,0,16.939,7.584,16.939,16.939V426.667z"/>
	</g>
	<rect x="426.667" y="68.267" style="fill:#7FACFA;" width="68.267" height="34.133"/>
	<g>
		<path style="fill:#428DFF;" d="M341.367,460.8h-324.3c-2.264,0.001-4.435-0.897-6.035-2.498c-1.601-1.601-2.499-3.772-2.498-6.035
			V8.567c-0.001-2.264,0.897-4.435,2.498-6.035s3.772-2.499,6.035-2.498h324.3c18.823,0.023,34.077,15.277,34.1,34.1V426.7
			C375.444,445.523,360.19,460.777,341.367,460.8z M25.6,443.733h315.767c9.403-0.011,17.022-7.631,17.033-17.033V34.133
			c-0.011-9.403-7.631-17.022-17.033-17.033H25.6V443.733z"/>
		<path style="fill:#428DFF;" d="M315.733,460.8h-42.667c-2.264,0.001-4.435-0.897-6.035-2.498
			c-1.601-1.601-2.499-3.772-2.498-6.035V8.567c-0.001-2.264,0.897-4.435,2.498-6.035s3.772-2.499,6.035-2.498h42.667
			c2.264-0.001,4.435,0.897,6.035,2.498c1.601,1.601,2.499,3.772,2.498,6.035v443.7c0.001,2.264-0.897,4.435-2.498,6.035
			C320.168,459.903,317.997,460.801,315.733,460.8z M281.6,443.733h25.6V17.1h-25.6V443.733z"/>
		<path style="fill:#428DFF;" d="M273.067,315.817h-256c-2.264,0.001-4.435-0.897-6.035-2.498s-2.499-3.772-2.498-6.035v-153.6
			c-0.001-2.264,0.897-4.435,2.498-6.035c1.601-1.601,3.772-2.499,6.035-2.498h256c2.264-0.001,4.435,0.897,6.035,2.498
			c1.601,1.601,2.499,3.772,2.498,6.035v153.6c0.001,2.264-0.897,4.435-2.498,6.035S275.33,315.818,273.067,315.817L273.067,315.817
			z M25.6,298.75h238.933V162.217H25.6V298.75z"/>
		<path style="fill:#428DFF;" d="M366.933,315.817h-51.2c-2.264,0.001-4.435-0.897-6.035-2.498
			c-1.601-1.601-2.499-3.772-2.498-6.035v-153.6c-0.001-2.264,0.897-4.435,2.498-6.035c1.601-1.601,3.772-2.499,6.035-2.498h51.2
			c2.264-0.001,4.435,0.897,6.035,2.498c1.601,1.601,2.499,3.772,2.498,6.035v153.6c0.001,2.264-0.897,4.435-2.498,6.035
			C371.368,314.919,369.197,315.818,366.933,315.817L366.933,315.817z M324.267,298.75H358.4V162.217h-34.133V298.75z"/>
		<path style="fill:#428DFF;" d="M102.4,503.467c-1.685,0-3.332-0.499-4.733-1.434L76.8,488.125l-20.867,13.908
			c-2.618,1.746-5.985,1.909-8.76,0.424c-2.775-1.485-4.507-4.377-4.507-7.524v-42.667c-0.001-2.264,0.897-4.435,2.498-6.035
			c1.601-1.601,3.772-2.499,6.035-2.498h51.2c2.264-0.001,4.435,0.897,6.035,2.498c1.601,1.601,2.499,3.772,2.498,6.035v42.667
			c0,2.263-0.899,4.434-2.499,6.034C106.834,502.568,104.663,503.467,102.4,503.467L102.4,503.467z M76.8,469.333
			c1.685-0.002,3.332,0.497,4.733,1.434l12.333,8.225V460.8H59.733v18.192l12.333-8.225C73.468,469.831,75.115,469.332,76.8,469.333
			z"/>
		<path style="fill:#428DFF;" d="M460.8,494.933c-3.062-0.001-5.889-1.642-7.408-4.3L419.258,430.9
			c-0.735-1.29-1.123-2.749-1.125-4.233V25.475C418.147,11.411,429.545,0.014,443.608,0h34.383
			c14.064,0.014,25.461,11.411,25.475,25.475v401.192c-0.002,1.485-0.39,2.943-1.125,4.233l-34.133,59.733
			C466.689,493.292,463.862,494.933,460.8,494.933z M435.2,424.4l25.6,44.8l25.6-44.8V25.475c-0.007-4.641-3.768-8.401-8.408-8.408
			h-34.383c-4.641,0.007-8.401,3.768-8.408,8.408V424.4z"/>
		<path style="fill:#428DFF;" d="M494.933,110.933h-68.267c-2.264,0.001-4.435-0.897-6.035-2.498
			c-1.601-1.601-2.499-3.772-2.498-6.035V68.267c-0.001-2.264,0.897-4.435,2.498-6.035c1.601-1.601,3.772-2.499,6.035-2.498h68.267
			c2.264-0.001,4.435,0.897,6.035,2.498c1.601,1.601,2.499,3.772,2.498,6.035V102.4c0.001,2.264-0.897,4.435-2.498,6.035
			C499.368,110.036,497.197,110.935,494.933,110.933z M435.2,93.867h51.2V76.8h-51.2V93.867z"/>
		<path style="fill:#428DFF;" d="M494.933,435.2h-68.267c-4.713,0-8.533-3.82-8.533-8.533s3.82-8.533,8.533-8.533h68.267
			c4.713,0,8.533,3.82,8.533,8.533S499.646,435.2,494.933,435.2z"/>
		<path style="fill:#428DFF;" d="M460.8,512c-2.264,0.001-4.435-0.897-6.035-2.498c-1.601-1.601-2.499-3.772-2.498-6.035V486.4
			c0-4.713,3.82-8.533,8.533-8.533s8.533,3.82,8.533,8.533v17.067c0.001,2.264-0.897,4.435-2.498,6.035
			C465.235,511.103,463.064,512.001,460.8,512z"/>
	</g>
</g>
<g>
</g>
<g>
</g>
<g>
</g>
<g>
</g>
<g>
</g>
<g>
</g>
<g>
</g>
<g>
</g>
<g>
</g>
<g>
</g>
<g>
</g>
<g>
</g>
<g>
</g>
<g>
</g>
<g>
</g>
</svg>
