<?xml version="1.0" encoding="iso-8859-1"?>
<!-- Generator: Adobe Illustrator 19.0.0, SVG Export Plug-In . SVG Version: 6.00 Build 0)  -->
<svg version="1.1" id="Capa_1" xmlns="http://www.w3.org/2000/svg" xmlns:xlink="http://www.w3.org/1999/xlink" x="0px" y="0px"
	 viewBox="0 0 512 512" style="enable-background:new 0 0 512 512;" xml:space="preserve">
<g>
	<circle style="fill:#A4C2F7;" cx="256" cy="256" r="247.467"/>
	
		<linearGradient id="SVGID_1_" gradientUnits="userSpaceOnUse" x1="-48.7641" y1="652.5549" x2="-48.0151" y2="651.8834" gradientTransform="matrix(443.7334 0 0 -494.9333 21728.0684 323061.0313)">
		<stop  offset="0" style="stop-color:#D4E1F4"/>
		<stop  offset="0.1717" style="stop-color:#D4E1F4"/>
		<stop  offset="0.2" style="stop-color:#D4E1F4"/>
		<stop  offset="0.2001" style="stop-color:#DAE4F4"/>
		<stop  offset="0.2007" style="stop-color:#EBEBF4"/>
		<stop  offset="0.2014" style="stop-color:#F6F1F4"/>
		<stop  offset="0.2023" style="stop-color:#FDF4F4"/>
		<stop  offset="0.205" style="stop-color:#FFF5F4"/>
		<stop  offset="0.2522" style="stop-color:#FFF5F4"/>
		<stop  offset="0.26" style="stop-color:#FFF5F4"/>
		<stop  offset="0.26" style="stop-color:#D4E1F4"/>
		<stop  offset="0.3974" style="stop-color:#D4E1F4"/>
		<stop  offset="0.42" style="stop-color:#D4E1F4"/>
		<stop  offset="0.4201" style="stop-color:#DAE4F4"/>
		<stop  offset="0.4207" style="stop-color:#EBEBF4"/>
		<stop  offset="0.4214" style="stop-color:#F6F1F4"/>
		<stop  offset="0.4223" style="stop-color:#FDF4F4"/>
		<stop  offset="0.425" style="stop-color:#FFF5F4"/>
		<stop  offset="0.4894" style="stop-color:#FFF5F4"/>
		<stop  offset="0.5" style="stop-color:#FFF5F4"/>
		<stop  offset="0.5" style="stop-color:#F9F2F4"/>
		<stop  offset="0.5001" style="stop-color:#E8EBF4"/>
		<stop  offset="0.5003" style="stop-color:#DDE5F4"/>
		<stop  offset="0.5005" style="stop-color:#D6E2F4"/>
		<stop  offset="0.501" style="stop-color:#D4E1F4"/>
		<stop  offset="0.7062" style="stop-color:#D4E1F4"/>
		<stop  offset="0.74" style="stop-color:#D4E1F4"/>
		<stop  offset="0.741" style="stop-color:#FFF5F4"/>
		<stop  offset="0.8346" style="stop-color:#FFF5F4"/>
		<stop  offset="0.85" style="stop-color:#FFF5F4"/>
		<stop  offset="0.851" style="stop-color:#D4E1F4"/>
	</linearGradient>
	<ellipse style="fill:url(#SVGID_1_);" cx="256" cy="256" rx="221.867" ry="247.467"/>
	<path style="fill:#FFFFFF;" d="M34.133,256C34.133,119.327,133.467,8.533,256,8.533C119.328,8.533,8.533,119.328,8.533,256
		S119.328,503.467,256,503.467C133.467,503.467,34.133,392.672,34.133,256z"/>
	<g>
		<path style="fill:#428DFF;" d="M93.867,273.067c-2.264,0.001-4.435-0.897-6.035-2.498c-1.601-1.601-2.499-3.772-2.498-6.035
			c0.071-61.237,49.696-110.863,110.933-110.933h119.467c4.713,0,8.533,3.821,8.533,8.533c0,4.713-3.821,8.533-8.533,8.533H196.267
			c-51.817,0.059-93.808,42.05-93.867,93.867c0.001,2.264-0.897,4.435-2.498,6.035C98.301,272.169,96.13,273.068,93.867,273.067z"/>
		<path style="fill:#428DFF;" d="M230.409,238.933c-3.697,0.002-6.975-2.376-8.119-5.891c-1.145-3.515,0.105-7.368,3.094-9.542
			l84.375-61.367l-84.375-61.367c-2.475-1.789-3.805-4.764-3.487-7.801c0.317-3.037,2.234-5.673,5.025-6.911
			c2.791-1.238,6.031-0.891,8.496,0.912l93.867,68.267c2.209,1.604,3.517,4.17,3.517,6.9c0,2.73-1.307,5.296-3.517,6.9
			L235.417,237.3C233.962,238.361,232.209,238.933,230.409,238.933L230.409,238.933z"/>
		<path style="fill:#428DFF;" d="M256,512C114.615,512,0,397.385,0,256S114.615,0,256,0s256,114.615,256,256
			C511.84,397.319,397.319,511.84,256,512z M256,17.067C124.041,17.067,17.067,124.041,17.067,256S124.041,494.933,256,494.933
			S494.933,387.959,494.933,256C494.785,124.102,387.898,17.215,256,17.067z"/>
		<path style="fill:#428DFF;" d="M307.2,358.4H187.733c-4.713,0-8.533-3.821-8.533-8.533c0-4.713,3.821-8.533,8.533-8.533H307.2
			c51.817-0.059,93.808-42.05,93.867-93.867c0-4.713,3.821-8.533,8.533-8.533c4.713,0,8.533,3.821,8.533,8.533
			C418.063,308.704,368.437,358.329,307.2,358.4z"/>
		<path style="fill:#428DFF;" d="M273.058,426.667c-1.8,0-3.554-0.572-5.008-1.633l-93.867-68.267
			c-2.209-1.604-3.517-4.17-3.517-6.9c0-2.73,1.307-5.296,3.517-6.9L268.05,274.7c2.465-1.802,5.705-2.15,8.496-0.912
			c2.791,1.238,4.707,3.874,5.025,6.911c0.317,3.037-1.013,6.012-3.487,7.801l-84.375,61.367l84.375,61.367
			c2.99,2.175,4.239,6.027,3.094,9.542S276.755,426.669,273.058,426.667L273.058,426.667z"/>
	</g>
</g>
<g>
</g>
<g>
</g>
<g>
</g>
<g>
</g>
<g>
</g>
<g>
</g>
<g>
</g>
<g>
</g>
<g>
</g>
<g>
</g>
<g>
</g>
<g>
</g>
<g>
</g>
<g>
</g>
<g>
</g>
</svg>
