<?xml version="1.0" encoding="iso-8859-1"?>
<!-- Generator: Adobe Illustrator 19.0.0, SVG Export Plug-In . SVG Version: 6.00 Build 0)  -->
<svg version="1.1" id="Capa_1" xmlns="http://www.w3.org/2000/svg" xmlns:xlink="http://www.w3.org/1999/xlink" x="0px" y="0px"
	 viewBox="0 0 512 512" style="enable-background:new 0 0 512 512;" xml:space="preserve">
<g>
	<path style="fill:#A4C2F7;" d="M503.467,426.667L469.333,486.4L435.2,426.667V25.472c0-9.355,7.584-16.939,16.939-16.939h34.389
		c9.355,0,16.939,7.584,16.939,16.939V426.667z"/>
	<rect x="435.2" y="68.267" style="fill:#7FACFA;" width="68.267" height="34.133"/>
	<g>
		<rect x="8.533" y="8.533" style="fill:#A4C2F7;" width="375.467" height="494.933"/>
		<polygon style="fill:#A4C2F7;" points="51.2,8.533 34.133,8.533 8.533,8.533 8.533,503.467 34.133,503.467 51.2,503.467 
			76.8,503.467 76.8,8.533 		"/>
	</g>
	<rect x="17.067" y="8.533" style="fill:#FFFFFF;" width="17.067" height="494.933"/>
	<rect x="76.8" y="8.533" style="fill:#E3E7F2;" width="281.6" height="494.933"/>
	
		<linearGradient id="SVGID_1_" gradientUnits="userSpaceOnUse" x1="-48.6254" y1="651.8509" x2="-47.8526" y2="650.4343" gradientTransform="matrix(187.7333 0 0 -102.4 9286.4668 66822.0703)">
		<stop  offset="0" style="stop-color:#D4E1F4"/>
		<stop  offset="0.1717" style="stop-color:#D4E1F4"/>
		<stop  offset="0.2" style="stop-color:#D4E1F4"/>
		<stop  offset="0.2001" style="stop-color:#DAE4F4"/>
		<stop  offset="0.2007" style="stop-color:#EBEBF4"/>
		<stop  offset="0.2014" style="stop-color:#F6F1F4"/>
		<stop  offset="0.2023" style="stop-color:#FDF4F4"/>
		<stop  offset="0.205" style="stop-color:#FFF5F4"/>
		<stop  offset="0.2522" style="stop-color:#FFF5F4"/>
		<stop  offset="0.26" style="stop-color:#FFF5F4"/>
		<stop  offset="0.26" style="stop-color:#D4E1F4"/>
		<stop  offset="0.3974" style="stop-color:#D4E1F4"/>
		<stop  offset="0.42" style="stop-color:#D4E1F4"/>
		<stop  offset="0.4201" style="stop-color:#DAE4F4"/>
		<stop  offset="0.4207" style="stop-color:#EBEBF4"/>
		<stop  offset="0.4214" style="stop-color:#F6F1F4"/>
		<stop  offset="0.4223" style="stop-color:#FDF4F4"/>
		<stop  offset="0.425" style="stop-color:#FFF5F4"/>
		<stop  offset="0.4894" style="stop-color:#FFF5F4"/>
		<stop  offset="0.5" style="stop-color:#FFF5F4"/>
		<stop  offset="0.5" style="stop-color:#F9F2F4"/>
		<stop  offset="0.5001" style="stop-color:#E8EBF4"/>
		<stop  offset="0.5003" style="stop-color:#DDE5F4"/>
		<stop  offset="0.5005" style="stop-color:#D6E2F4"/>
		<stop  offset="0.501" style="stop-color:#D4E1F4"/>
		<stop  offset="0.7062" style="stop-color:#D4E1F4"/>
		<stop  offset="0.74" style="stop-color:#D4E1F4"/>
		<stop  offset="0.741" style="stop-color:#FFF5F4"/>
		<stop  offset="0.8346" style="stop-color:#FFF5F4"/>
		<stop  offset="0.85" style="stop-color:#FFF5F4"/>
		<stop  offset="0.851" style="stop-color:#D4E1F4"/>
	</linearGradient>
	<polygon style="fill:url(#SVGID_1_);" points="298.667,93.867 136.533,93.867 136.533,196.267 298.667,196.267 324.267,196.267 
		324.267,93.867 	"/>
	<g>
		<path style="fill:#428DFF;" d="M469.333,494.933c-3.062-0.001-5.889-1.642-7.408-4.3L427.792,430.9
			c-0.735-1.29-1.123-2.749-1.125-4.233V25.475C426.68,11.411,438.078,0.014,452.142,0h34.383
			C500.589,0.014,511.986,11.411,512,25.475v401.192c-0.002,1.485-0.39,2.943-1.125,4.233l-34.133,59.733
			C475.222,493.292,472.395,494.933,469.333,494.933z M443.733,424.4l25.6,44.8l25.6-44.8V25.475
			c-0.007-4.641-3.768-8.401-8.408-8.408h-34.383c-4.641,0.007-8.401,3.768-8.408,8.408V424.4z"/>
		<path style="fill:#428DFF;" d="M503.467,110.933H435.2c-2.264,0.001-4.435-0.897-6.035-2.498
			c-1.601-1.601-2.499-3.772-2.498-6.035V68.267c-0.001-2.264,0.897-4.435,2.498-6.035c1.601-1.601,3.772-2.499,6.035-2.498h68.267
			c2.264-0.001,4.435,0.897,6.035,2.498c1.601,1.601,2.499,3.772,2.498,6.035V102.4c0.001,2.264-0.897,4.435-2.498,6.035
			C507.901,110.036,505.73,110.935,503.467,110.933z M443.733,93.867h51.2V76.8h-51.2V93.867z"/>
		<path style="fill:#428DFF;" d="M503.467,435.2H435.2c-4.713,0-8.533-3.82-8.533-8.533s3.821-8.533,8.533-8.533h68.267
			c4.713,0,8.533,3.82,8.533,8.533S508.18,435.2,503.467,435.2z"/>
		<path style="fill:#428DFF;" d="M469.333,512c-2.264,0.001-4.435-0.897-6.035-2.498c-1.601-1.601-2.499-3.772-2.498-6.035V486.4
			c0-4.713,3.821-8.533,8.533-8.533c4.713,0,8.533,3.82,8.533,8.533v17.067c0.001,2.264-0.897,4.435-2.498,6.035
			C473.768,511.103,471.597,512.001,469.333,512z"/>
		<path style="fill:#428DFF;" d="M384,512H8.533c-2.264,0.001-4.435-0.897-6.035-2.498c-1.601-1.601-2.499-3.772-2.498-6.035V8.533
			C-0.001,6.27,0.897,4.099,2.498,2.498S6.27-0.001,8.533,0H384c2.264-0.001,4.435,0.897,6.035,2.498
			c1.601,1.601,2.499,3.772,2.498,6.035v494.933c0.001,2.264-0.897,4.435-2.498,6.035C388.435,511.103,386.264,512.001,384,512z
			 M17.067,494.933h358.4V17.067h-358.4V494.933z"/>
		<path style="fill:#428DFF;" d="M76.8,512H8.533c-2.264,0.001-4.435-0.897-6.035-2.498c-1.601-1.601-2.499-3.772-2.498-6.035V8.533
			C-0.001,6.27,0.897,4.099,2.498,2.498S6.27-0.001,8.533,0H76.8c2.264-0.001,4.435,0.897,6.035,2.498
			c1.601,1.601,2.499,3.772,2.498,6.035v494.933c0.001,2.264-0.897,4.435-2.498,6.035C81.235,511.103,79.064,512.001,76.8,512z
			 M17.067,494.933h51.2V17.067h-51.2V494.933z"/>
		<path style="fill:#428DFF;" d="M324.267,204.8H136.533c-2.264,0.001-4.435-0.897-6.035-2.498s-2.499-3.772-2.498-6.035v-102.4
			c-0.001-2.264,0.897-4.435,2.498-6.035c1.601-1.601,3.772-2.499,6.035-2.498h187.733c2.264-0.001,4.435,0.897,6.035,2.498
			c1.601,1.601,2.499,3.772,2.498,6.035v102.4c0.001,2.264-0.897,4.435-2.498,6.035C328.701,203.903,326.53,204.801,324.267,204.8
			L324.267,204.8z M145.067,187.733h170.667V102.4H145.067V187.733z"/>
		<path style="fill:#428DFF;" d="M290.133,136.533H170.667c-4.713,0-8.533-3.821-8.533-8.533c0-4.713,3.821-8.533,8.533-8.533
			h119.467c4.713,0,8.533,3.821,8.533,8.533C298.667,132.713,294.846,136.533,290.133,136.533z"/>
		<path style="fill:#428DFF;" d="M290.133,170.667H170.667c-4.713,0-8.533-3.82-8.533-8.533s3.821-8.533,8.533-8.533h119.467
			c4.713,0,8.533,3.821,8.533,8.533S294.846,170.667,290.133,170.667z"/>
	</g>
</g>
<g>
</g>
<g>
</g>
<g>
</g>
<g>
</g>
<g>
</g>
<g>
</g>
<g>
</g>
<g>
</g>
<g>
</g>
<g>
</g>
<g>
</g>
<g>
</g>
<g>
</g>
<g>
</g>
<g>
</g>
</svg>
