<?xml version="1.0" encoding="iso-8859-1"?>
<!-- Generator: Adobe Illustrator 19.0.0, SVG Export Plug-In . SVG Version: 6.00 Build 0)  -->
<svg version="1.1" id="Capa_1" xmlns="http://www.w3.org/2000/svg" xmlns:xlink="http://www.w3.org/1999/xlink" x="0px" y="0px"
	 viewBox="0 0 512 512" style="enable-background:new 0 0 512 512;" xml:space="preserve">
<g>
	<circle style="fill:#A4C2F7;" cx="256" cy="256" r="247.467"/>
	
		<linearGradient id="SVGID_1_" gradientUnits="userSpaceOnUse" x1="-48.7641" y1="652.5549" x2="-48.0151" y2="651.8834" gradientTransform="matrix(443.7334 0 0 -494.9333 21728.0684 323061.0313)">
		<stop  offset="0" style="stop-color:#D4E1F4"/>
		<stop  offset="0.1717" style="stop-color:#D4E1F4"/>
		<stop  offset="0.2" style="stop-color:#D4E1F4"/>
		<stop  offset="0.2001" style="stop-color:#DAE4F4"/>
		<stop  offset="0.2007" style="stop-color:#EBEBF4"/>
		<stop  offset="0.2014" style="stop-color:#F6F1F4"/>
		<stop  offset="0.2023" style="stop-color:#FDF4F4"/>
		<stop  offset="0.205" style="stop-color:#FFF5F4"/>
		<stop  offset="0.2522" style="stop-color:#FFF5F4"/>
		<stop  offset="0.26" style="stop-color:#FFF5F4"/>
		<stop  offset="0.26" style="stop-color:#D4E1F4"/>
		<stop  offset="0.3974" style="stop-color:#D4E1F4"/>
		<stop  offset="0.42" style="stop-color:#D4E1F4"/>
		<stop  offset="0.4201" style="stop-color:#DAE4F4"/>
		<stop  offset="0.4207" style="stop-color:#EBEBF4"/>
		<stop  offset="0.4214" style="stop-color:#F6F1F4"/>
		<stop  offset="0.4223" style="stop-color:#FDF4F4"/>
		<stop  offset="0.425" style="stop-color:#FFF5F4"/>
		<stop  offset="0.4894" style="stop-color:#FFF5F4"/>
		<stop  offset="0.5" style="stop-color:#FFF5F4"/>
		<stop  offset="0.5" style="stop-color:#F9F2F4"/>
		<stop  offset="0.5001" style="stop-color:#E8EBF4"/>
		<stop  offset="0.5003" style="stop-color:#DDE5F4"/>
		<stop  offset="0.5005" style="stop-color:#D6E2F4"/>
		<stop  offset="0.501" style="stop-color:#D4E1F4"/>
		<stop  offset="0.7062" style="stop-color:#D4E1F4"/>
		<stop  offset="0.74" style="stop-color:#D4E1F4"/>
		<stop  offset="0.741" style="stop-color:#FFF5F4"/>
		<stop  offset="0.8346" style="stop-color:#FFF5F4"/>
		<stop  offset="0.85" style="stop-color:#FFF5F4"/>
		<stop  offset="0.851" style="stop-color:#D4E1F4"/>
	</linearGradient>
	<ellipse style="fill:url(#SVGID_1_);" cx="256" cy="256" rx="221.867" ry="247.467"/>
	<path style="fill:#FFFFFF;" d="M34.133,256C34.133,119.327,133.467,8.533,256,8.533C119.328,8.533,8.533,119.328,8.533,256
		S119.328,503.467,256,503.467C133.467,503.467,34.133,392.672,34.133,256z"/>
	<path style="fill:#7FACFA;" d="M148.712,179.2H77.685c-9.914,0-17.952,8.037-17.952,17.952v109.163
		c0,9.914,8.037,17.952,17.952,17.952h71.027c3.201,0,6.343,0.856,9.102,2.479l113.8,105.949c5.551,3.265,12.425,3.307,18.015,0.11
		c5.59-3.197,9.039-9.143,9.039-15.583V86.246c0-6.44-3.449-12.386-9.039-15.583c-5.59-3.197-12.464-3.155-18.015,0.11
		l-113.8,105.949C155.055,178.344,151.912,179.2,148.712,179.2z"/>
	<path style="fill:#A4C2F7;" d="M148.712,179.2H77.685c-9.914,0-17.952,8.037-17.952,17.952v109.163
		c0,9.914,8.037,17.952,17.952,17.952h71.027c3.201,0,6.343,0.856,9.102-8.533L256,421.682c11.967,18.051,17.067,9.423,17.067-4.461
		V86.246c0-13.884-5.099-7.952-17.067-0.912l-98.186,91.388C155.055,178.344,151.912,179.2,148.712,179.2z"/>
	<g>
		<path style="fill:#428DFF;" d="M280.713,443.75c-4.727-0.011-9.364-1.288-13.429-3.7c-0.535-0.317-1.033-0.692-1.488-1.117
			l-113-105.2c-1.273-0.615-2.669-0.934-4.083-0.933H77.683c-14.619-0.017-26.466-11.864-26.483-26.483V197.15
			c0.017-14.619,11.864-26.466,26.483-26.483h71.029c1.414,0.001,2.81-0.318,4.083-0.933l113-105.2
			c0.454-0.425,0.953-0.799,1.488-1.117c8.189-4.816,18.33-4.877,26.576-0.162c8.247,4.716,13.337,13.487,13.34,22.987v330.983
			C307.162,431.844,295.331,443.691,280.713,443.75L280.713,443.75z M276.642,425.717c2.918,1.4,6.351,1.203,9.09-0.521
			c2.739-1.724,4.401-4.734,4.401-7.971V86.242c0-3.237-1.662-6.246-4.401-7.97c-2.739-1.724-6.172-1.921-9.09-0.521
			L163.629,182.967c-0.454,0.43-0.958,0.805-1.5,1.117c-4.068,2.389-8.699,3.649-13.417,3.65H77.683
			c-5.198,0.006-9.41,4.219-9.417,9.417v109.167c0.007,5.198,4.219,9.41,9.417,9.416h71.029c4.717,0.001,9.349,1.261,13.417,3.65
			c0.542,0.312,1.046,0.687,1.5,1.117L276.642,425.717z"/>
		<path style="fill:#428DFF;" d="M363.013,367.292c-3.451-0.001-6.562-2.08-7.882-5.268c-1.32-3.188-0.591-6.858,1.849-9.298
			c53.229-53.359,53.229-139.733,0-193.092c-3.313-3.335-3.304-8.722,0.02-12.046c3.324-3.324,8.711-3.333,12.046-0.02
			c59.887,60.025,59.887,157.2,0,217.225C367.448,366.395,365.276,367.295,363.013,367.292L363.013,367.292z"/>
		<path style="fill:#428DFF;" d="M332.8,332.8c-3.451-0.001-6.562-2.08-7.882-5.268c-1.32-3.188-0.591-6.858,1.849-9.298
			c36.667-36.752,36.667-96.248,0-133c-3.296-3.338-3.28-8.711,0.038-12.029c3.317-3.317,8.69-3.334,12.029-0.038
			c43.321,43.42,43.321,113.713,0,157.133C337.235,331.903,335.064,332.803,332.8,332.8L332.8,332.8z"/>
		<path style="fill:#428DFF;" d="M256,512C114.615,512,0,397.385,0,256S114.615,0,256,0s256,114.615,256,256
			C511.84,397.319,397.319,511.84,256,512z M256,17.067C124.041,17.067,17.067,124.041,17.067,256S124.041,494.933,256,494.933
			S494.933,387.959,494.933,256C494.785,124.102,387.898,17.215,256,17.067z"/>
	</g>
</g>
<g>
</g>
<g>
</g>
<g>
</g>
<g>
</g>
<g>
</g>
<g>
</g>
<g>
</g>
<g>
</g>
<g>
</g>
<g>
</g>
<g>
</g>
<g>
</g>
<g>
</g>
<g>
</g>
<g>
</g>
</svg>
