<?xml version="1.0" encoding="iso-8859-1"?>
<!-- Generator: Adobe Illustrator 19.0.0, SVG Export Plug-In . SVG Version: 6.00 Build 0)  -->
<svg version="1.1" id="Capa_1" xmlns="http://www.w3.org/2000/svg" xmlns:xlink="http://www.w3.org/1999/xlink" x="0px" y="0px"
	 viewBox="0 0 511.78 511.78" style="enable-background:new 0 0 511.78 511.78;" xml:space="preserve">
<g>
	<circle style="fill:#A4C2F7;" cx="255.729" cy="255.903" r="247.467"/>
	
		<linearGradient id="SVGID_1_" gradientUnits="userSpaceOnUse" x1="-49.0352" y1="652.4578" x2="-48.2861" y2="651.7863" gradientTransform="matrix(443.7334 0 0 -494.9333 21848.0859 323012.8438)">
		<stop  offset="0" style="stop-color:#D4E1F4"/>
		<stop  offset="0.1717" style="stop-color:#D4E1F4"/>
		<stop  offset="0.2" style="stop-color:#D4E1F4"/>
		<stop  offset="0.2001" style="stop-color:#DAE4F4"/>
		<stop  offset="0.2007" style="stop-color:#EBEBF4"/>
		<stop  offset="0.2014" style="stop-color:#F6F1F4"/>
		<stop  offset="0.2023" style="stop-color:#FDF4F4"/>
		<stop  offset="0.205" style="stop-color:#FFF5F4"/>
		<stop  offset="0.2522" style="stop-color:#FFF5F4"/>
		<stop  offset="0.26" style="stop-color:#FFF5F4"/>
		<stop  offset="0.26" style="stop-color:#D4E1F4"/>
		<stop  offset="0.3974" style="stop-color:#D4E1F4"/>
		<stop  offset="0.42" style="stop-color:#D4E1F4"/>
		<stop  offset="0.4201" style="stop-color:#DAE4F4"/>
		<stop  offset="0.4207" style="stop-color:#EBEBF4"/>
		<stop  offset="0.4214" style="stop-color:#F6F1F4"/>
		<stop  offset="0.4223" style="stop-color:#FDF4F4"/>
		<stop  offset="0.425" style="stop-color:#FFF5F4"/>
		<stop  offset="0.4894" style="stop-color:#FFF5F4"/>
		<stop  offset="0.5" style="stop-color:#FFF5F4"/>
		<stop  offset="0.5" style="stop-color:#F9F2F4"/>
		<stop  offset="0.5001" style="stop-color:#E8EBF4"/>
		<stop  offset="0.5003" style="stop-color:#DDE5F4"/>
		<stop  offset="0.5005" style="stop-color:#D6E2F4"/>
		<stop  offset="0.501" style="stop-color:#D4E1F4"/>
		<stop  offset="0.7062" style="stop-color:#D4E1F4"/>
		<stop  offset="0.74" style="stop-color:#D4E1F4"/>
		<stop  offset="0.741" style="stop-color:#FFF5F4"/>
		<stop  offset="0.8346" style="stop-color:#FFF5F4"/>
		<stop  offset="0.85" style="stop-color:#FFF5F4"/>
		<stop  offset="0.851" style="stop-color:#D4E1F4"/>
	</linearGradient>
	<ellipse style="fill:url(#SVGID_1_);" cx="255.729" cy="255.903" rx="221.867" ry="247.467"/>
	<path style="fill:#FFFFFF;" d="M33.862,255.903c0-136.673,99.333-247.467,221.867-247.467
		C119.057,8.436,8.262,119.231,8.262,255.903S119.057,503.37,255.729,503.37C133.196,503.37,33.862,392.575,33.862,255.903z"/>
	<path style="fill:#7FACFA;" d="M199.641,179.103h-71.027c-9.914,0-17.952,8.037-17.952,17.952v109.163
		c0,9.914,8.037,17.952,17.952,17.952h71.027c3.201,0,6.343,0.856,9.102,2.479l113.8,105.949c5.551,3.265,12.425,3.307,18.015,0.11
		c5.59-3.197,9.039-9.143,9.039-15.583V86.148c0-6.44-3.449-12.386-9.039-15.583c-5.59-3.197-12.464-3.155-18.015,0.11
		l-113.8,105.949C205.984,178.247,202.841,179.103,199.641,179.103z"/>
	<path style="fill:#A4C2F7;" d="M199.641,179.103h-71.027c-9.914,0-17.952,8.037-17.952,17.952v109.163
		c0,9.914,8.037,17.952,17.952,17.952h71.027c3.201,0,6.343,0.856,9.102-8.533l98.186,105.949
		c11.967,18.051,17.067,9.423,17.067-4.461V86.148c0-13.884-5.099-7.952-17.067-0.912l-98.186,91.388
		C205.984,178.247,202.841,179.103,199.641,179.103z"/>
	<g>
		<path style="fill:#428DFF;" d="M331.641,443.653c-4.727-0.011-9.364-1.288-13.429-3.7c-0.535-0.317-1.033-0.692-1.488-1.117
			l-113-105.2c-1.273-0.615-2.669-0.934-4.083-0.933h-71.029c-14.619-0.017-26.466-11.864-26.483-26.483V197.053
			c0.017-14.619,11.864-26.466,26.483-26.483h71.029c1.414,0.001,2.81-0.318,4.083-0.933l113-105.2
			c0.454-0.425,0.953-0.799,1.488-1.117c8.189-4.816,18.33-4.877,26.576-0.162s13.337,13.487,13.34,22.987v330.983
			C358.091,431.747,346.26,443.594,331.641,443.653L331.641,443.653z M327.571,425.62c2.918,1.4,6.351,1.203,9.09-0.521
			s4.401-4.734,4.401-7.971V86.145c0-3.237-1.662-6.246-4.401-7.97c-2.739-1.724-6.172-1.921-9.09-0.521L214.558,182.87
			c-0.454,0.43-0.958,0.805-1.5,1.117c-4.068,2.389-8.699,3.649-13.417,3.65h-71.029c-5.198,0.006-9.41,4.219-9.417,9.417V306.22
			c0.007,5.198,4.219,9.41,9.417,9.416h71.029c4.717,0.001,9.349,1.261,13.417,3.65c0.542,0.312,1.046,0.687,1.5,1.117
			L327.571,425.62z"/>
		<path style="fill:#428DFF;" d="M255.729,511.778C133.662,511.696,28.651,425.402,4.911,305.666S45.315,66.098,158.116,19.449
			s242.847-7.122,310.611,94.408s54.374,236.789-31.981,323.062C388.768,484.959,323.624,511.899,255.729,511.778z M255.729,17.086
			C141.8,17.164,43.79,97.706,21.634,209.459s37.712,223.597,142.994,267.134s226.657,6.645,289.902-88.117
			s50.747-221.003-29.851-301.524C379.897,42.119,319.097,16.976,255.729,17.086z"/>
		<path style="fill:#428DFF;" d="M80.746,439.42c-3.451-0.001-6.562-2.08-7.882-5.268c-1.32-3.188-0.591-6.858,1.849-9.298
			L424.679,74.886c2.156-2.156,5.297-2.997,8.242-2.208c2.944,0.789,5.244,3.089,6.033,6.033c0.789,2.944-0.053,6.086-2.208,8.242
			L86.779,436.92C85.181,438.523,83.009,439.422,80.746,439.42z"/>
	</g>
</g>
<g>
</g>
<g>
</g>
<g>
</g>
<g>
</g>
<g>
</g>
<g>
</g>
<g>
</g>
<g>
</g>
<g>
</g>
<g>
</g>
<g>
</g>
<g>
</g>
<g>
</g>
<g>
</g>
<g>
</g>
</svg>
