<?xml version="1.0" encoding="iso-8859-1"?>
<!-- Generator: Adobe Illustrator 19.0.0, SVG Export Plug-In . SVG Version: 6.00 Build 0)  -->
<svg version="1.1" id="Capa_1" xmlns="http://www.w3.org/2000/svg" xmlns:xlink="http://www.w3.org/1999/xlink" x="0px" y="0px"
	 viewBox="0 0 512 512" style="enable-background:new 0 0 512 512;" xml:space="preserve">
<g>
	<path style="fill:#FFFFFF;" d="M8.533,173.722v162.133l93.867-0.044l118.013,108.413c5.606,3.299,12.558,3.307,18.172,0.021
		c5.614-3.286,9.012-9.351,8.881-15.854V89.719c0.13-6.503-3.267-12.569-8.881-15.854c-5.614-3.286-12.566-3.278-18.172,0.021
		L102.4,173.722H8.533z"/>
	<path style="fill:#A4C2F7;" d="M102.4,335.812l118.013,108.413c5.606,3.299,12.558,3.307,18.172,0.021
		c5.614-3.286,9.012-9.351,8.881-15.854V89.719c0.13-6.503-3.267-12.569-8.881-15.854c-5.614-3.286-12.566-3.278-18.172,0.021
		L102.4,173.722V335.812z"/>
	<path style="fill:#E3E7F2;" d="M34.133,173.722v162.133l68.267-0.044l92.413,85.377c11.967,7.203,27.054,21.41,27.054,7.203V89.719
		c0-14.207-15.086,0-27.054,7.203l-92.413,76.8H34.133z"/>
	<g>
		<path style="fill:#428DFF;" d="M229.517,455.339c-4.763-0.013-9.432-1.33-13.5-3.808c-0.493-0.293-0.954-0.636-1.375-1.025
			L99.075,344.348l-90.542,0.041l0,0c-4.712-0.001-8.532-3.821-8.533-8.533V173.722c-0.001-2.264,0.897-4.435,2.498-6.035
			c1.601-1.601,3.772-2.499,6.035-2.498h90.742l115.633-97.817c0.347-0.295,0.717-0.559,1.108-0.792
			c8.059-4.937,18.17-5.081,26.367-0.375c8.494,4.763,13.715,13.779,13.617,23.517v338.667c0.098,9.738-5.122,18.754-13.617,23.517
			C238.463,454.142,234.03,455.325,229.517,455.339z M225.458,437.273c2.7,1.372,5.91,1.287,8.533-0.225
			c3.104-1.768,4.999-5.087,4.942-8.659V89.722c0.057-3.572-1.837-6.891-4.942-8.658c-2.668-1.547-5.947-1.604-8.667-0.15
			l-117.417,99.325c-1.541,1.301-3.492,2.015-5.508,2.017H17.067v145.067l85.333-0.042l0,0c2.139-0.002,4.201,0.801,5.775,2.25
			L225.458,437.273z"/>
		<path style="fill:#428DFF;" d="M102.4,224.922c-2.264,0.001-4.435-0.897-6.035-2.498c-1.601-1.601-2.499-3.772-2.498-6.035
			v-42.667c0-4.713,3.821-8.533,8.533-8.533c4.713,0,8.533,3.821,8.533,8.533v42.667c0.001,2.264-0.897,4.435-2.498,6.035
			C106.835,224.025,104.664,224.924,102.4,224.922z"/>
		<path style="fill:#428DFF;" d="M102.4,344.389c-2.264,0.001-4.435-0.897-6.035-2.498c-1.601-1.601-2.499-3.772-2.498-6.035
			v-42.667c0-4.713,3.821-8.533,8.533-8.533c4.713,0,8.533,3.82,8.533,8.533v42.667c0.001,2.264-0.897,4.435-2.498,6.035
			C106.835,343.492,104.664,344.39,102.4,344.389L102.4,344.389z"/>
		<path style="fill:#428DFF;" d="M328.542,412.656c-4.173,0-7.734-3.019-8.417-7.135s1.71-8.124,5.659-9.473
			c60.494-20.591,101.154-77.424,101.108-141.326s-40.786-120.678-101.308-141.183c-2.888-0.98-5.034-3.425-5.63-6.416
			c-0.596-2.991,0.449-6.072,2.742-8.083c2.292-2.011,5.483-2.647,8.371-1.667c67.442,22.853,112.839,86.121,112.892,157.329
			S398.708,389.244,331.3,412.197C330.413,412.503,329.48,412.658,328.542,412.656L328.542,412.656z"/>
		<path style="fill:#428DFF;" d="M369.892,458.281c-4.109,0.001-7.635-2.927-8.39-6.965c-0.755-4.039,1.475-8.042,5.306-9.526
			c76.149-29.494,126.813-102.213,128.1-183.865c1.287-81.652-47.06-155.931-122.242-187.81c-2.808-1.191-4.766-3.789-5.139-6.816
			c-0.372-3.027,0.898-6.022,3.333-7.858c2.435-1.836,5.665-2.233,8.472-1.042c81.578,34.596,134.036,115.196,132.64,203.795
			s-56.37,167.506-138.998,199.513C371.991,458.086,370.946,458.281,369.892,458.281z"/>
		<path style="fill:#428DFF;" d="M281.6,365.731c-4.252,0.001-7.857-3.128-8.452-7.339s2-8.217,6.086-9.395
			c41.966-12.115,70.858-50.528,70.858-94.208s-28.892-82.093-70.858-94.208c-2.937-0.839-5.201-3.184-5.937-6.149
			c-0.736-2.964,0.168-6.096,2.37-8.212c2.203-2.116,5.368-2.894,8.3-2.039c49.271,14.225,83.192,59.325,83.192,110.608
			s-33.921,96.383-83.192,110.608C283.197,365.617,282.401,365.73,281.6,365.731z"/>
	</g>
</g>
<g>
</g>
<g>
</g>
<g>
</g>
<g>
</g>
<g>
</g>
<g>
</g>
<g>
</g>
<g>
</g>
<g>
</g>
<g>
</g>
<g>
</g>
<g>
</g>
<g>
</g>
<g>
</g>
<g>
</g>
</svg>
