<?xml version="1.0" encoding="iso-8859-1"?>
<!-- Generator: Adobe Illustrator 19.0.0, SVG Export Plug-In . SVG Version: 6.00 Build 0)  -->
<svg version="1.1" id="Capa_1" xmlns="http://www.w3.org/2000/svg" xmlns:xlink="http://www.w3.org/1999/xlink" x="0px" y="0px"
	 viewBox="0 0 512.041 512.041" style="enable-background:new 0 0 512.041 512.041;" xml:space="preserve">
<g transform="translate(0 -1)">
	<path style="fill:#FFFFFF;" d="M27.7,145.714v211.478l122.435-0.057l153.93,141.408c7.313,4.302,16.38,4.313,23.703,0.027
		s11.754-12.197,11.584-20.679V36.145c0.17-8.483-4.262-16.394-11.584-20.679s-16.39-4.275-23.703,0.027l-153.93,130.221H27.7z"/>
	<path style="fill:#A4C2F7;" d="M150.135,357.136l153.93,141.408c7.313,4.302,16.38,4.313,23.703,0.027s11.754-12.197,11.584-20.679
		V36.145c0.17-8.483-4.262-16.394-11.584-20.679s-16.39-4.275-23.703,0.027l-153.93,130.221V357.136z"/>
	<path style="fill:#E3E7F2;" d="M61.091,145.714v211.478l89.043-0.057l120.539,111.361c15.609,9.396,35.287,27.926,35.287,9.395
		V36.145c0-18.531-19.678,0-35.287,9.395L150.135,145.714H61.091z"/>
	<g>
		<path style="fill:#428DFF;" d="M315.939,513.041c-6.213-0.017-12.302-1.735-17.608-4.967c-0.643-0.382-1.244-0.83-1.793-1.337
			l-150.74-138.467L27.7,368.323l0,0c-6.147-0.002-11.129-4.984-11.13-11.13V145.714c-0.002-2.952,1.17-5.785,3.258-7.872
			c2.088-2.088,4.92-3.26,7.872-3.258h118.359L296.885,6.997c0.452-0.384,0.936-0.73,1.446-1.033
			c10.512-6.439,23.7-6.627,34.391-0.49c11.08,6.212,17.889,17.973,17.761,30.674v441.739c0.128,12.702-6.681,24.462-17.761,30.674
			C327.608,511.479,321.826,513.022,315.939,513.041z M310.646,489.476c3.521,1.789,7.708,1.679,11.13-0.293
			c4.049-2.306,6.52-6.635,6.446-11.294V36.149c0.074-4.659-2.397-8.988-6.446-11.293c-3.48-2.017-7.756-2.091-11.304-0.196
			L157.319,154.214c-2.01,1.697-4.555,2.629-7.185,2.63H38.83v189.217l111.304-0.054l0,0c2.79-0.002,5.479,1.045,7.533,2.935
			L310.646,489.476z"/>
		<path style="fill:#428DFF;" d="M150.135,212.497c-2.952,0.002-5.785-1.17-7.872-3.258c-2.088-2.088-3.26-4.92-3.258-7.872v-55.652
			c0-6.147,4.983-11.13,11.13-11.13c6.147,0,11.13,4.983,11.13,11.13v55.652c0.002,2.952-1.17,5.785-3.258,7.872
			S153.087,212.499,150.135,212.497z"/>
		<path style="fill:#428DFF;" d="M150.135,368.323c-2.952,0.002-5.785-1.17-7.872-3.258c-2.088-2.088-3.26-4.92-3.258-7.872V301.54
			c0-6.147,4.983-11.13,11.13-11.13c6.147,0,11.13,4.983,11.13,11.13v55.652c0.002,2.952-1.17,5.785-3.258,7.872
			C155.919,367.153,153.087,368.325,150.135,368.323L150.135,368.323z"/>
		<path style="fill:#428DFF;" d="M383.874,396.16c-5.547,0.002-10.248-4.08-11.025-9.572c-0.777-5.492,2.608-10.718,7.938-12.254
			c54.738-15.803,92.424-65.907,92.424-122.88s-37.686-107.078-92.424-122.88c-3.83-1.095-6.784-4.153-7.744-8.02
			c-0.96-3.866,0.219-7.951,3.091-10.711c2.873-2.76,7.002-3.775,10.827-2.66c64.266,18.555,108.511,77.381,108.511,144.272
			S451.227,377.17,386.961,395.725C385.957,396.012,384.918,396.159,383.874,396.16z"/>
	</g>
</g>
<g>
</g>
<g>
</g>
<g>
</g>
<g>
</g>
<g>
</g>
<g>
</g>
<g>
</g>
<g>
</g>
<g>
</g>
<g>
</g>
<g>
</g>
<g>
</g>
<g>
</g>
<g>
</g>
<g>
</g>
</svg>
