<?xml version="1.0" encoding="iso-8859-1"?>
<!-- Generator: Adobe Illustrator 19.0.0, SVG Export Plug-In . SVG Version: 6.00 Build 0)  -->
<svg version="1.1" id="Capa_1" xmlns="http://www.w3.org/2000/svg" xmlns:xlink="http://www.w3.org/1999/xlink" x="0px" y="0px"
	 viewBox="0 0 512 512" style="enable-background:new 0 0 512 512;" xml:space="preserve">
<g>
	<circle style="fill:#A4C2F7;" cx="256" cy="246.154" r="246.154"/>
	<ellipse style="fill:#E3E7F2;" cx="256" cy="246.154" rx="216.615" ry="246.154"/>
	<path style="fill:#FFFFFF;" d="M39.385,246.154C39.385,110.207,136.367,0,256,0C120.053,0,9.846,110.207,9.846,246.154
		S120.053,492.308,256,492.308C136.367,492.308,39.385,382.101,39.385,246.154z"/>
	<g>
		<path style="fill:#428DFF;" d="M256,512C114.615,512,0,397.385,0,256S114.615,0,256,0s256,114.615,256,256
			C511.842,397.319,397.319,511.842,256,512z M256,19.692C125.491,19.692,19.692,125.491,19.692,256S125.491,492.308,256,492.308
			S492.308,386.509,492.308,256C492.158,125.553,386.447,19.842,256,19.692z"/>
		<path style="fill:#428DFF;" d="M256,393.846c-2.612,0.001-5.116-1.036-6.963-2.883c-1.847-1.847-2.884-4.351-2.883-6.963V137.846
			c0-5.438,4.408-9.846,9.846-9.846c5.438,0,9.846,4.408,9.846,9.846V384c0.001,2.612-1.036,5.116-2.883,6.963
			C261.116,392.81,258.612,393.847,256,393.846L256,393.846z"/>
		<path style="fill:#428DFF;" d="M379.077,265.846H132.923c-5.438,0-9.846-4.408-9.846-9.846c0-5.438,4.408-9.846,9.846-9.846
			h246.154c5.438,0,9.846,4.408,9.846,9.846C388.923,261.438,384.515,265.846,379.077,265.846z"/>
	</g>
</g>
<g>
</g>
<g>
</g>
<g>
</g>
<g>
</g>
<g>
</g>
<g>
</g>
<g>
</g>
<g>
</g>
<g>
</g>
<g>
</g>
<g>
</g>
<g>
</g>
<g>
</g>
<g>
</g>
<g>
</g>
</svg>
