<?xml version="1.0" encoding="iso-8859-1"?>
<!-- Generator: Adobe Illustrator 19.0.0, SVG Export Plug-In . SVG Version: 6.00 Build 0)  -->
<svg version="1.1" id="Capa_1" xmlns="http://www.w3.org/2000/svg" xmlns:xlink="http://www.w3.org/1999/xlink" x="0px" y="0px"
	 viewBox="0 0 512 512" style="enable-background:new 0 0 512 512;" xml:space="preserve">
<g>
	<circle style="fill:#A4C2F7;" cx="256" cy="256" r="246.154"/>
	<ellipse style="fill:#E3E7F2;" cx="256" cy="256" rx="216.615" ry="246.154"/>
	<path style="fill:#FFFFFF;" d="M39.385,256C39.385,120.053,136.367,9.846,256,9.846C120.053,9.846,9.846,120.053,9.846,256
		S120.053,502.154,256,502.154C136.367,502.154,39.385,391.947,39.385,256z"/>
	<g>
		<path style="fill:#428DFF;" d="M256,512C114.615,512,0,397.385,0,256S114.615,0,256,0s256,114.615,256,256
			C511.842,397.319,397.319,511.842,256,512z M256,19.692C125.491,19.692,19.692,125.491,19.692,256S125.491,492.308,256,492.308
			S492.308,386.509,492.308,256C492.158,125.553,386.447,19.842,256,19.692z"/>
		<path style="fill:#428DFF;" d="M256,334.769c-2.612,0.001-5.116-1.036-6.963-2.883c-1.847-1.847-2.884-4.352-2.883-6.963V108.308
			c0-5.438,4.408-9.846,9.846-9.846c5.438,0,9.846,4.408,9.846,9.846v216.615c0.001,2.612-1.036,5.116-2.883,6.963
			C261.116,333.733,258.612,334.77,256,334.769z"/>
		<path style="fill:#428DFF;" d="M256,403.692c-2.612,0.001-5.116-1.036-6.963-2.883c-1.847-1.847-2.884-4.351-2.883-6.963v-19.692
			c0-5.438,4.408-9.846,9.846-9.846c5.438,0,9.846,4.408,9.846,9.846v19.692c0.001,2.612-1.036,5.116-2.883,6.963
			C261.116,402.656,258.612,403.693,256,403.692z"/>
	</g>
</g>
<g>
</g>
<g>
</g>
<g>
</g>
<g>
</g>
<g>
</g>
<g>
</g>
<g>
</g>
<g>
</g>
<g>
</g>
<g>
</g>
<g>
</g>
<g>
</g>
<g>
</g>
<g>
</g>
<g>
</g>
</svg>
