<?xml version="1.0" encoding="iso-8859-1"?>
<!-- Generator: Adobe Illustrator 19.0.0, SVG Export Plug-In . SVG Version: 6.00 Build 0)  -->
<svg version="1.1" id="Capa_1" xmlns="http://www.w3.org/2000/svg" xmlns:xlink="http://www.w3.org/1999/xlink" x="0px" y="0px"
	 viewBox="0 0 512 512" style="enable-background:new 0 0 512 512;" xml:space="preserve">
<g>
	<circle style="fill:#A4C2F7;" cx="256" cy="256" r="246.154"/>
	<ellipse style="fill:#E3E7F2;" cx="256" cy="256" rx="216.615" ry="246.154"/>
	<path style="fill:#FFFFFF;" d="M39.385,256C39.385,120.053,136.367,9.846,256,9.846C120.053,9.846,9.846,120.053,9.846,256
		S120.053,502.154,256,502.154C136.367,502.154,39.385,391.947,39.385,256z"/>
	<g>
		<path style="fill:#428DFF;" d="M256,512C114.615,512,0,397.385,0,256S114.615,0,256,0s256,114.615,256,256
			C511.843,397.32,397.32,511.843,256,512z M256,19.692C125.491,19.692,19.692,125.491,19.692,256S125.491,492.308,256,492.308
			S492.308,386.509,492.308,256C492.158,125.553,386.447,19.842,256,19.692z"/>
		<path style="fill:#428DFF;" d="M256,403.692c-2.612,0.001-5.117-1.035-6.964-2.882c-1.847-1.847-2.884-4.352-2.882-6.964v-19.692
			c0-5.438,4.408-9.846,9.846-9.846c5.438,0,9.846,4.408,9.846,9.846v19.692c0.001,2.612-1.035,5.117-2.882,6.964
			C261.117,402.657,258.612,403.694,256,403.692L256,403.692z"/>
		<path style="fill:#428DFF;" d="M256,334.769c-2.612,0.001-5.117-1.035-6.964-2.882c-1.847-1.847-2.884-4.352-2.882-6.964v-27.981
			c-0.587-32.015,15.179-62.122,41.826-79.875c17.185-11.002,27.437-30.127,27.087-50.529
			c-1.027-31.719-26.502-57.194-58.221-58.221c-15.813-0.229-31.058,5.892-42.321,16.995
			c-11.263,11.102-17.604,26.257-17.602,42.073c0,5.438-4.408,9.846-9.846,9.846c-5.438,0-9.846-4.408-9.846-9.846
			c0-43.496,35.254-78.759,78.75-78.769c0.385,0,0.76,0.01,1.135,0.01c42.513,0.878,76.766,35.131,77.645,77.644
			c0.463,27.192-13.203,52.681-36.106,67.346c-20.872,14.264-33.194,38.049-32.807,63.327v27.981
			c0.001,2.612-1.035,5.117-2.882,6.964C261.117,333.734,258.612,334.771,256,334.769L256,334.769z"/>
	</g>
</g>
<g>
</g>
<g>
</g>
<g>
</g>
<g>
</g>
<g>
</g>
<g>
</g>
<g>
</g>
<g>
</g>
<g>
</g>
<g>
</g>
<g>
</g>
<g>
</g>
<g>
</g>
<g>
</g>
<g>
</g>
</svg>
