<?xml version="1.0" encoding="iso-8859-1"?>
<!-- Generator: Adobe Illustrator 19.0.0, SVG Export Plug-In . SVG Version: 6.00 Build 0)  -->
<svg version="1.1" id="Capa_1" xmlns="http://www.w3.org/2000/svg" xmlns:xlink="http://www.w3.org/1999/xlink" x="0px" y="0px"
	 viewBox="0 0 511.799 511.799" style="enable-background:new 0 0 511.799 511.799;" xml:space="preserve">
<g>
	<circle style="fill:#A4C2F7;" cx="255.747" cy="255.913" r="246.154"/>
	<ellipse style="fill:#E3E7F2;" cx="255.747" cy="255.913" rx="216.615" ry="246.154"/>
	<path style="fill:#FFFFFF;" d="M39.132,255.913c0-135.947,96.982-246.154,216.615-246.154C119.8,9.759,9.593,119.965,9.593,255.913
		S119.8,502.066,255.747,502.066C136.113,502.066,39.132,391.86,39.132,255.913z"/>
	<g>
		<path style="fill:#428DFF;" d="M255.747,511.797c-122.072-0.078-227.09-86.372-250.834-206.112S45.311,66.106,158.116,19.453
			s242.856-7.129,310.625,94.404s54.382,236.797-31.975,323.075C388.787,484.972,323.643,511.914,255.747,511.797z M255.747,19.711
			C143.065,19.783,46.125,99.44,24.208,209.97s37.292,221.15,141.42,264.214s224.176,6.579,286.731-87.144
			s50.197-218.582-29.517-298.224C378.554,44.472,318.42,19.602,255.747,19.711z"/>
		<path style="fill:#428DFF;" d="M81.689,439.816c-3.982-0.001-7.571-2.4-9.095-6.079c-1.524-3.679-0.682-7.913,2.133-10.729
			L422.843,74.893c3.847-3.833,10.071-3.828,13.911,0.012c3.84,3.84,3.845,10.064,0.012,13.911L88.651,436.932
			C86.807,438.781,84.301,439.819,81.689,439.816L81.689,439.816z"/>
	</g>
</g>
<g>
</g>
<g>
</g>
<g>
</g>
<g>
</g>
<g>
</g>
<g>
</g>
<g>
</g>
<g>
</g>
<g>
</g>
<g>
</g>
<g>
</g>
<g>
</g>
<g>
</g>
<g>
</g>
<g>
</g>
</svg>
