<?xml version="1.0" encoding="iso-8859-1"?>
<!-- Generator: Adobe Illustrator 19.0.0, SVG Export Plug-In . SVG Version: 6.00 Build 0)  -->
<svg version="1.1" id="Capa_1" xmlns="http://www.w3.org/2000/svg" xmlns:xlink="http://www.w3.org/1999/xlink" x="0px" y="0px"
	 viewBox="0 0 512 512" style="enable-background:new 0 0 512 512;" xml:space="preserve">
<g>
	<circle style="fill:#A4C2F7;" cx="256" cy="256" r="246.154"/>
	
		<linearGradient id="SVGID_1_" gradientUnits="userSpaceOnUse" x1="-48.7653" y1="652.5507" x2="-48.0085" y2="651.8846" gradientTransform="matrix(433.2308 0 0 -492.3077 21218.6934 321347.7813)">
		<stop  offset="0" style="stop-color:#D4E1F4"/>
		<stop  offset="0.1717" style="stop-color:#D4E1F4"/>
		<stop  offset="0.2" style="stop-color:#D4E1F4"/>
		<stop  offset="0.2001" style="stop-color:#DAE4F4"/>
		<stop  offset="0.2007" style="stop-color:#EBEBF4"/>
		<stop  offset="0.2014" style="stop-color:#F6F1F4"/>
		<stop  offset="0.2023" style="stop-color:#FDF4F4"/>
		<stop  offset="0.205" style="stop-color:#FFF5F4"/>
		<stop  offset="0.2522" style="stop-color:#FFF5F4"/>
		<stop  offset="0.26" style="stop-color:#FFF5F4"/>
		<stop  offset="0.26" style="stop-color:#D4E1F4"/>
		<stop  offset="0.3974" style="stop-color:#D4E1F4"/>
		<stop  offset="0.42" style="stop-color:#D4E1F4"/>
		<stop  offset="0.4201" style="stop-color:#DAE4F4"/>
		<stop  offset="0.4207" style="stop-color:#EBEBF4"/>
		<stop  offset="0.4214" style="stop-color:#F6F1F4"/>
		<stop  offset="0.4223" style="stop-color:#FDF4F4"/>
		<stop  offset="0.425" style="stop-color:#FFF5F4"/>
		<stop  offset="0.4894" style="stop-color:#FFF5F4"/>
		<stop  offset="0.5" style="stop-color:#FFF5F4"/>
		<stop  offset="0.5" style="stop-color:#F9F2F4"/>
		<stop  offset="0.5001" style="stop-color:#E8EBF4"/>
		<stop  offset="0.5003" style="stop-color:#DDE5F4"/>
		<stop  offset="0.5005" style="stop-color:#D6E2F4"/>
		<stop  offset="0.501" style="stop-color:#D4E1F4"/>
		<stop  offset="0.7062" style="stop-color:#D4E1F4"/>
		<stop  offset="0.74" style="stop-color:#D4E1F4"/>
		<stop  offset="0.741" style="stop-color:#FFF5F4"/>
		<stop  offset="0.8346" style="stop-color:#FFF5F4"/>
		<stop  offset="0.85" style="stop-color:#FFF5F4"/>
		<stop  offset="0.851" style="stop-color:#D4E1F4"/>
	</linearGradient>
	<ellipse style="fill:url(#SVGID_1_);" cx="256" cy="256" rx="216.615" ry="246.154"/>
	<path style="fill:#FFFFFF;" d="M39.385,256C39.385,120.053,136.367,9.846,256,9.846C120.053,9.846,9.846,120.053,9.846,256
		S120.053,502.154,256,502.154C136.367,502.154,39.385,391.947,39.385,256z"/>
	<polygon style="fill:#7FACFA;" points="305.231,344.615 157.538,254.326 305.231,169.058 	"/>
	<path style="fill:#A4C2F7;" d="M232.267,208.457c-0.803,1.026-1.782,1.902-2.891,2.586c-14.75,9.063-29.213,18.589-44.308,27.077
		c-1.47,0.846-3.121,1.329-4.815,1.409c-0.408,0.495-0.855,0.966-1.254,1.466c-8.569,10.74-10.708,9.668-3.531,22.269
		c8.357,14.668,30.828,20.99,45.173,29.457c18.079,10.671,37.57,19.74,55.05,31.476V181.37
		C262.808,192.73,248.136,201.882,232.267,208.457z"/>
	<g>
		<path style="fill:#428DFF;" d="M256,512C114.615,512,0,397.385,0,256S114.615,0,256,0s256,114.615,256,256
			C511.843,397.32,397.32,511.843,256,512z M256,19.692C125.491,19.692,19.692,125.491,19.692,256S125.491,492.308,256,492.308
			S492.308,386.509,492.308,256C492.158,125.553,386.447,19.842,256,19.692z"/>
		<path style="fill:#428DFF;" d="M305.231,354.462c-1.812,0-3.588-0.499-5.135-1.442l-147.692-90.289
			c-2.965-1.812-4.755-5.052-4.712-8.526c0.043-3.474,1.914-6.669,4.923-8.406l147.692-85.269c3.047-1.759,6.8-1.759,9.847,0
			c3.047,1.759,4.923,5.01,4.922,8.528v175.558C315.076,350.053,310.668,354.461,305.231,354.462L305.231,354.462z M176.807,254.567
			l118.577,72.49V186.115L176.807,254.567z"/>
	</g>
</g>
<g>
</g>
<g>
</g>
<g>
</g>
<g>
</g>
<g>
</g>
<g>
</g>
<g>
</g>
<g>
</g>
<g>
</g>
<g>
</g>
<g>
</g>
<g>
</g>
<g>
</g>
<g>
</g>
<g>
</g>
</svg>
