<?xml version="1.0" encoding="iso-8859-1"?>
<!-- Generator: Adobe Illustrator 19.0.0, SVG Export Plug-In . SVG Version: 6.00 Build 0)  -->
<svg version="1.1" id="Capa_1" xmlns="http://www.w3.org/2000/svg" xmlns:xlink="http://www.w3.org/1999/xlink" x="0px" y="0px"
	 viewBox="0 0 512 512" style="enable-background:new 0 0 512 512;" xml:space="preserve">
<g transform="translate(-1)">
	<path style="fill:#428DFF;" d="M257,512c-118.306-0.017-218.599-87.016-235.326-204.134S76.876,79.153,190.446,46.018
		c4.841-1.393,9.898,1.393,11.305,6.231c1.407,4.837-1.365,9.902-6.198,11.323C90.744,94.139,24.347,197.108,39.75,305.192
		s107.922,188.405,217.098,188.476c109.176,0.071,201.799-80.129,217.344-188.193c15.545-108.064-50.718-211.119-155.488-241.823
		c-4.847-1.415-7.629-6.492-6.214-11.339c1.415-4.847,6.492-7.629,11.339-6.214c113.478,33.257,185.265,144.858,168.475,261.911
		C475.515,425.062,375.251,511.983,257,512z"/>
	<path style="fill:#428DFF;" d="M257,246.857c-2.425,0.001-4.752-0.961-6.467-2.676c-1.715-1.715-2.678-4.041-2.676-6.467V9.143
		C247.857,4.093,251.951,0,257,0c5.049,0,9.143,4.093,9.143,9.143v228.571c0.001,2.425-0.961,4.752-2.676,6.467
		C261.752,245.896,259.425,246.859,257,246.857z"/>
</g>
<g>
</g>
<g>
</g>
<g>
</g>
<g>
</g>
<g>
</g>
<g>
</g>
<g>
</g>
<g>
</g>
<g>
</g>
<g>
</g>
<g>
</g>
<g>
</g>
<g>
</g>
<g>
</g>
<g>
</g>
</svg>
