<?xml version="1.0" encoding="iso-8859-1"?>
<!-- Generator: Adobe Illustrator 19.0.0, SVG Export Plug-In . SVG Version: 6.00 Build 0)  -->
<svg version="1.1" id="Capa_1" xmlns="http://www.w3.org/2000/svg" xmlns:xlink="http://www.w3.org/1999/xlink" x="0px" y="0px"
	 viewBox="0 0 512 512" style="enable-background:new 0 0 512 512;" xml:space="preserve">
<g>
	<g>
		<path style="fill:#A4C2F7;" d="M256,58.182L256,58.182c25.706,0,46.545,20.839,46.545,46.545l0,0
			c0,25.706-20.839,46.545-46.545,46.545l0,0c-25.706,0-46.545-20.839-46.545-46.545l0,0C209.455,79.021,230.294,58.182,256,58.182z
			"/>
		<path style="fill:#A4C2F7;" d="M256,360.727L256,360.727c25.706,0,46.545,20.839,46.545,46.545l0,0
			c0,25.706-20.839,46.545-46.545,46.545l0,0c-25.706,0-46.545-20.839-46.545-46.545l0,0
			C209.455,381.566,230.294,360.727,256,360.727z"/>
	</g>
	<g>
		<path style="fill:#E3E7F2;" d="M231.016,59.313c0.39,6.09-3.903,11.483-9.925,12.469v66.324c0.268-0.014,0.45-0.148,0.727-0.148
			c3.088-0.086,6.083,1.06,8.325,3.185c2.242,2.125,3.547,5.054,3.628,8.142c20.531-5.746,34.496-24.754,33.843-46.065
			S251.86,63.792,231.016,59.313L231.016,59.313z"/>
		<path style="fill:#E3E7F2;" d="M231.353,361.961c-0.794,5.186-5.034,9.156-10.262,9.605v67.645
			c1.389-0.557,2.867-0.858,4.364-0.889c3.273-0.08,6.433,1.199,8.729,3.534c2.296,2.335,3.522,5.516,3.387,8.787
			c19.205-7.217,31.386-26.193,29.951-46.659C266.087,383.518,251.377,366.427,231.353,361.961L231.353,361.961z"/>
	</g>
	<g>
		<path style="fill:#428DFF;" d="M500.364,267.636H11.636C5.21,267.636,0,262.427,0,256s5.21-11.636,11.636-11.636h488.727
			c6.427,0,11.636,5.21,11.636,11.636S506.79,267.636,500.364,267.636z"/>
		<path style="fill:#428DFF;" d="M256,162.909c-32.133,0-58.182-26.049-58.182-58.182S223.867,46.545,256,46.545
			s58.182,26.049,58.182,58.182C314.144,136.845,288.117,162.871,256,162.909L256,162.909z M256,69.818
			c-19.28,0-34.909,15.629-34.909,34.909S236.72,139.636,256,139.636c19.28,0,34.909-15.629,34.909-34.909
			C290.888,85.456,275.271,69.839,256,69.818L256,69.818z"/>
		<path style="fill:#428DFF;" d="M256,465.455c-32.133,0-58.182-26.049-58.182-58.182s26.049-58.182,58.182-58.182
			s58.182,26.049,58.182,58.182C314.144,439.39,288.117,465.417,256,465.455L256,465.455z M256,372.364
			c-19.28,0-34.909,15.629-34.909,34.909S236.72,442.182,256,442.182c19.28,0,34.909-15.629,34.909-34.909
			C290.888,388.002,275.271,372.385,256,372.364L256,372.364z"/>
	</g>
</g>
<g>
</g>
<g>
</g>
<g>
</g>
<g>
</g>
<g>
</g>
<g>
</g>
<g>
</g>
<g>
</g>
<g>
</g>
<g>
</g>
<g>
</g>
<g>
</g>
<g>
</g>
<g>
</g>
<g>
</g>
</svg>
