<?xml version="1.0" encoding="iso-8859-1"?>
<!-- Generator: Adobe Illustrator 19.0.0, SVG Export Plug-In . SVG Version: 6.00 Build 0)  -->
<svg version="1.1" id="Capa_1" xmlns="http://www.w3.org/2000/svg" xmlns:xlink="http://www.w3.org/1999/xlink" x="0px" y="0px"
	 viewBox="0 0 512.085 512.085" style="enable-background:new 0 0 512.085 512.085;" xml:space="preserve">
<g transform="translate(0 -1)">
	<g>
		<circle style="fill:#A4C2F7;" cx="80.842" cy="81.927" r="67.368"/>
		<circle style="fill:#A4C2F7;" cx="431.158" cy="432.243" r="67.368"/>
	</g>
	<g>
		<ellipse style="fill:#E3E7F2;" cx="410.947" cy="432.243" rx="47.158" ry="67.368"/>
		<ellipse style="fill:#E3E7F2;" cx="60.632" cy="81.927" rx="47.158" ry="67.368"/>
	</g>
	<path style="fill:#428DFF;" d="M13.474,513.085c-5.449-0.001-10.36-3.284-12.445-8.318s-0.933-10.828,2.919-14.682L489,5.033
		c3.393-3.455,8.379-4.823,13.06-3.584c4.681,1.239,8.337,4.895,9.576,9.576c1.239,4.681-0.129,9.667-3.584,13.06L23,509.137
		C20.476,511.668,17.048,513.089,13.474,513.085L13.474,513.085z"/>
	<path id="SVGCleanerId_0" style="fill:#428DFF;" d="M80.842,162.769C36.194,162.769,0,126.575,0,81.927S36.194,1.085,80.842,1.085
		s80.842,36.194,80.842,80.842C161.635,126.555,125.47,162.721,80.842,162.769L80.842,162.769z M80.842,28.032
		c-29.765,0-53.895,24.129-53.895,53.895s24.129,53.895,53.895,53.895s53.895-24.129,53.895-53.895
		C134.707,52.174,110.595,28.062,80.842,28.032z"/>
	<path id="SVGCleanerId_1" style="fill:#428DFF;" d="M431.158,513.085c-44.648,0-80.842-36.194-80.842-80.842
		s36.194-80.842,80.842-80.842S512,387.595,512,432.243C511.951,476.871,475.786,513.036,431.158,513.085L431.158,513.085z
		 M431.158,378.348c-29.765,0-53.895,24.13-53.895,53.895c0,29.765,24.13,53.895,53.895,53.895
		c29.765,0,53.895-24.129,53.895-53.895C485.023,402.49,460.911,378.378,431.158,378.348z"/>
	<g>
		<path id="SVGCleanerId_0_1_" style="fill:#428DFF;" d="M80.842,162.769C36.194,162.769,0,126.575,0,81.927
			S36.194,1.085,80.842,1.085s80.842,36.194,80.842,80.842C161.635,126.555,125.47,162.721,80.842,162.769L80.842,162.769z
			 M80.842,28.032c-29.765,0-53.895,24.129-53.895,53.895s24.129,53.895,53.895,53.895s53.895-24.129,53.895-53.895
			C134.707,52.174,110.595,28.062,80.842,28.032z"/>
	</g>
	<g>
		<path id="SVGCleanerId_1_1_" style="fill:#428DFF;" d="M431.158,513.085c-44.648,0-80.842-36.194-80.842-80.842
			s36.194-80.842,80.842-80.842S512,387.595,512,432.243C511.951,476.871,475.786,513.036,431.158,513.085L431.158,513.085z
			 M431.158,378.348c-29.765,0-53.895,24.13-53.895,53.895c0,29.765,24.13,53.895,53.895,53.895
			c29.765,0,53.895-24.129,53.895-53.895C485.023,402.49,460.911,378.378,431.158,378.348z"/>
	</g>
</g>
<g>
</g>
<g>
</g>
<g>
</g>
<g>
</g>
<g>
</g>
<g>
</g>
<g>
</g>
<g>
</g>
<g>
</g>
<g>
</g>
<g>
</g>
<g>
</g>
<g>
</g>
<g>
</g>
<g>
</g>
</svg>
