<?xml version="1.0" encoding="iso-8859-1"?>
<!-- Generator: Adobe Illustrator 19.0.0, SVG Export Plug-In . SVG Version: 6.00 Build 0)  -->
<svg version="1.1" id="Capa_1" xmlns="http://www.w3.org/2000/svg" xmlns:xlink="http://www.w3.org/1999/xlink" x="0px" y="0px"
	 viewBox="0 0 511.997 511.997" style="enable-background:new 0 0 511.997 511.997;" xml:space="preserve">
<g>
	<path style="fill:#FFFFFF;" d="M69.132,221.09h128.685V104.726H69.132c-31.864,0.377-57.497,26.315-57.497,58.182
		S37.268,220.713,69.132,221.09L69.132,221.09z"/>
	<path style="fill:#A4C2F7;" d="M442.865,104.726H314.181V221.09h128.685c31.864-0.377,57.497-26.315,57.497-58.182
		S474.73,105.103,442.865,104.726L442.865,104.726z"/>
	<path style="fill:#E3E7F2;" d="M407.956,104.726H104.041c-31.864,0.377-57.497,26.315-57.497,58.182s25.633,57.805,57.497,58.182
		h303.915c31.864-0.377,57.497-26.315,57.497-58.182S439.821,105.103,407.956,104.726L407.956,104.726z"/>
	<path style="fill:#FFFFFF;" d="M69.132,407.271h128.685V290.908H69.132c-31.864,0.377-57.497,26.315-57.497,58.182
		S37.268,406.894,69.132,407.271L69.132,407.271z"/>
	<path style="fill:#A4C2F7;" d="M442.865,290.908H314.181v116.364h128.685c31.864-0.377,57.497-26.315,57.497-58.182
		S474.73,291.285,442.865,290.908z"/>
	<path style="fill:#E3E7F2;" d="M407.956,290.908H104.041c-31.864,0.377-57.497,26.315-57.497,58.182s25.633,57.805,57.497,58.182
		h303.915c31.864-0.377,57.497-26.315,57.497-58.182S439.821,291.285,407.956,290.908z"/>
	<g>
		<path style="fill:#428DFF;" d="M442.862,232.726H69.135C30.843,232.35,0,201.201,0,162.908S30.843,93.466,69.135,93.09h373.727
			c38.292,0.376,69.135,31.525,69.135,69.818S481.154,232.35,442.862,232.726z M69.135,116.362
			c-25.437,0.377-45.86,21.105-45.86,46.545c0,25.44,20.423,46.168,45.86,46.545h373.727c25.437-0.377,45.86-21.106,45.86-46.545
			c0-25.44-20.423-46.168-45.86-46.545H69.135z"/>
		<path style="fill:#428DFF;" d="M442.862,418.908H69.135C30.843,418.531,0,387.383,0,349.09s30.843-69.442,69.135-69.818h373.727
			c38.292,0.376,69.135,31.525,69.135,69.818S481.154,418.531,442.862,418.908L442.862,418.908z M69.135,302.544
			c-25.437,0.377-45.86,21.105-45.86,46.545s20.423,46.168,45.86,46.545h373.727c25.437-0.377,45.86-21.105,45.86-46.545
			s-20.423-46.168-45.86-46.545H69.135z"/>
	</g>
</g>
<g>
</g>
<g>
</g>
<g>
</g>
<g>
</g>
<g>
</g>
<g>
</g>
<g>
</g>
<g>
</g>
<g>
</g>
<g>
</g>
<g>
</g>
<g>
</g>
<g>
</g>
<g>
</g>
<g>
</g>
</svg>
