<?xml version="1.0" encoding="iso-8859-1"?>
<!-- Generator: Adobe Illustrator 19.0.0, SVG Export Plug-In . SVG Version: 6.00 Build 0)  -->
<svg version="1.1" id="Capa_1" xmlns="http://www.w3.org/2000/svg" xmlns:xlink="http://www.w3.org/1999/xlink" x="0px" y="0px"
	 viewBox="0 0 511.997 511.997" style="enable-background:new 0 0 511.997 511.997;" xml:space="preserve">
<g>
	<g>
		<circle style="fill:#A4C2F7;" cx="255.999" cy="81.453" r="58.182"/>
		<circle style="fill:#A4C2F7;" cx="255.999" cy="430.544" r="58.182"/>
	</g>
	<g>
		<ellipse style="fill:#E3E7F2;" cx="238.544" cy="81.453" rx="40.727" ry="58.182"/>
		<ellipse style="fill:#E3E7F2;" cx="238.544" cy="430.544" rx="40.727" ry="58.182"/>
	</g>
	<path style="fill:#FFFFFF;" d="M69.132,314.181h128.685V197.817H69.132c-31.864,0.377-57.497,26.315-57.497,58.182
		S37.268,313.803,69.132,314.181L69.132,314.181z"/>
	<path style="fill:#A4C2F7;" d="M442.865,197.817H314.181v116.364h128.685c31.864-0.377,57.497-26.315,57.497-58.182
		S474.73,198.194,442.865,197.817z"/>
	<path style="fill:#E3E7F2;" d="M407.956,197.817H104.041c-31.864,0.377-57.497,26.315-57.497,58.182s25.633,57.805,57.497,58.182
		h303.915c31.864-0.377,57.497-26.315,57.497-58.182S439.821,198.194,407.956,197.817z"/>
	<g>
		<path style="fill:#428DFF;" d="M442.862,325.817H69.135C30.843,325.44,0,294.292,0,255.999s30.843-69.442,69.135-69.818h373.727
			c38.292,0.376,69.135,31.525,69.135,69.818S481.154,325.44,442.862,325.817L442.862,325.817z M69.135,209.453
			c-25.437,0.377-45.86,21.105-45.86,46.545s20.423,46.168,45.86,46.545h373.727c25.437-0.377,45.86-21.105,45.86-46.545
			s-20.423-46.168-45.86-46.545H69.135z"/>
		<path style="fill:#428DFF;" d="M255.999,151.271c-38.56,0-69.818-31.259-69.818-69.818s31.259-69.818,69.818-69.818
			s69.818,31.259,69.818,69.818C325.775,119.995,294.541,151.229,255.999,151.271z M255.999,34.908
			c-25.706,0-46.545,20.839-46.545,46.545s20.839,46.545,46.545,46.545s46.545-20.839,46.545-46.545
			C302.518,55.758,281.694,34.933,255.999,34.908L255.999,34.908z"/>
		<path style="fill:#428DFF;" d="M255.999,500.362c-38.56,0-69.818-31.259-69.818-69.818s31.259-69.818,69.818-69.818
			s69.818,31.259,69.818,69.818C325.775,469.086,294.541,500.32,255.999,500.362L255.999,500.362z M255.999,383.999
			c-25.706,0-46.545,20.839-46.545,46.545c0,25.706,20.839,46.545,46.545,46.545s46.545-20.839,46.545-46.545
			C302.518,404.848,281.694,384.024,255.999,383.999L255.999,383.999z"/>
	</g>
</g>
<g>
</g>
<g>
</g>
<g>
</g>
<g>
</g>
<g>
</g>
<g>
</g>
<g>
</g>
<g>
</g>
<g>
</g>
<g>
</g>
<g>
</g>
<g>
</g>
<g>
</g>
<g>
</g>
<g>
</g>
</svg>
