<?xml version="1.0" encoding="iso-8859-1"?>
<!-- Generator: Adobe Illustrator 19.0.0, SVG Export Plug-In . SVG Version: 6.00 Build 0)  -->
<svg version="1.1" id="Capa_1" xmlns="http://www.w3.org/2000/svg" xmlns:xlink="http://www.w3.org/1999/xlink" x="0px" y="0px"
	 viewBox="0 0 512 512" style="enable-background:new 0 0 512 512;" xml:space="preserve">
<g>
	<circle style="fill:#A4C2F7;" cx="256" cy="42.667" r="34.133"/>
	<ellipse style="fill:#E3E7F2;" cx="243.2" cy="42.667" rx="21.333" ry="34.133"/>
	<rect x="264.533" y="162.133" style="fill:#A4C2F7;" width="238.933" height="341.333"/>
	<rect x="8.533" y="102.4" style="fill:#FFFFFF;" width="238.933" height="401.067"/>
	<rect x="477.867" y="102.4" style="fill:#7FACFA;" width="25.6" height="59.733"/>
	
		<linearGradient id="SVGID_1_" gradientUnits="userSpaceOnUse" x1="-48.8319" y1="652.6678" x2="-47.9473" y2="651.5178" gradientTransform="matrix(443.7334 0 0 -341.3333 21728.0664 222913.8125)">
		<stop  offset="0" style="stop-color:#D4E1F4"/>
		<stop  offset="0.1717" style="stop-color:#D4E1F4"/>
		<stop  offset="0.2" style="stop-color:#D4E1F4"/>
		<stop  offset="0.2001" style="stop-color:#DAE4F4"/>
		<stop  offset="0.2007" style="stop-color:#EBEBF4"/>
		<stop  offset="0.2014" style="stop-color:#F6F1F4"/>
		<stop  offset="0.2023" style="stop-color:#FDF4F4"/>
		<stop  offset="0.205" style="stop-color:#FFF5F4"/>
		<stop  offset="0.2522" style="stop-color:#FFF5F4"/>
		<stop  offset="0.26" style="stop-color:#FFF5F4"/>
		<stop  offset="0.26" style="stop-color:#D4E1F4"/>
		<stop  offset="0.3974" style="stop-color:#D4E1F4"/>
		<stop  offset="0.42" style="stop-color:#D4E1F4"/>
		<stop  offset="0.4201" style="stop-color:#DAE4F4"/>
		<stop  offset="0.4207" style="stop-color:#EBEBF4"/>
		<stop  offset="0.4214" style="stop-color:#F6F1F4"/>
		<stop  offset="0.4223" style="stop-color:#FDF4F4"/>
		<stop  offset="0.425" style="stop-color:#FFF5F4"/>
		<stop  offset="0.4894" style="stop-color:#FFF5F4"/>
		<stop  offset="0.5" style="stop-color:#FFF5F4"/>
		<stop  offset="0.5" style="stop-color:#F9F2F4"/>
		<stop  offset="0.5001" style="stop-color:#E8EBF4"/>
		<stop  offset="0.5003" style="stop-color:#DDE5F4"/>
		<stop  offset="0.5005" style="stop-color:#D6E2F4"/>
		<stop  offset="0.501" style="stop-color:#D4E1F4"/>
		<stop  offset="0.7062" style="stop-color:#D4E1F4"/>
		<stop  offset="0.74" style="stop-color:#D4E1F4"/>
		<stop  offset="0.741" style="stop-color:#FFF5F4"/>
		<stop  offset="0.8346" style="stop-color:#FFF5F4"/>
		<stop  offset="0.85" style="stop-color:#FFF5F4"/>
		<stop  offset="0.851" style="stop-color:#D4E1F4"/>
	</linearGradient>
	<rect x="34.133" y="162.133" style="fill:url(#SVGID_1_);" width="443.733" height="341.333"/>
	<rect x="34.133" y="102.4" style="fill:#A4C2F7;" width="443.733" height="59.733"/>
	<g>
		<path style="fill:#428DFF;" d="M503.467,512H8.533c-2.264,0.001-4.435-0.897-6.035-2.498c-1.601-1.601-2.499-3.772-2.498-6.035
			V102.4c-0.001-2.264,0.897-4.435,2.498-6.035c1.601-1.601,3.772-2.499,6.035-2.498h494.933c2.264-0.001,4.435,0.897,6.035,2.498
			c1.601,1.601,2.499,3.772,2.498,6.035v401.067c0.001,2.264-0.897,4.435-2.498,6.035C507.901,511.103,505.73,512.001,503.467,512z
			 M17.067,494.933h477.867v-384H17.067V494.933z"/>
		<path style="fill:#428DFF;" d="M256,85.333c-23.564,0-42.667-19.103-42.667-42.667S232.436,0,256,0
			c23.564,0,42.667,19.103,42.667,42.667C298.639,66.219,279.553,85.306,256,85.333L256,85.333z M256,17.067
			c-14.138,0-25.6,11.462-25.6,25.6s11.462,25.6,25.6,25.6c14.139,0,25.6-11.462,25.6-25.6
			C281.585,28.535,270.132,17.082,256,17.067L256,17.067z"/>
		<path style="fill:#428DFF;" d="M426.667,110.933H85.333c-3.914-0.001-7.326-2.664-8.276-6.462
			c-0.95-3.797,0.806-7.754,4.259-9.597c0.95-0.508,95.558-51.067,144.708-82.008c3.598-2.262,8.313-1.534,11.059,1.71
			c2.747,3.243,2.69,8.014-0.134,11.19c-4.201,4.627-6.535,10.65-6.55,16.9c0,14.138,11.462,25.6,25.6,25.6
			c14.139,0,25.6-11.462,25.6-25.6c-0.014-6.25-2.349-12.273-6.55-16.9c-2.824-3.177-2.881-7.947-0.134-11.19
			c2.747-3.243,7.461-3.972,11.059-1.71c49.15,30.95,143.758,81.5,144.708,82.008c3.453,1.843,5.209,5.8,4.259,9.597
			C433.993,108.269,430.581,110.933,426.667,110.933z M119.033,93.867h273.933c-25.783-14.075-63.692-35.075-94.35-53.3
			c0.033,0.7,0.05,1.4,0.05,2.1c0,23.564-19.103,42.667-42.667,42.667c-23.564,0-42.667-19.103-42.667-42.667
			c0-0.7,0.017-1.4,0.05-2.1C182.725,58.792,144.817,79.792,119.033,93.867z"/>
		<circle style="fill:#428DFF;" cx="196.267" cy="238.933" r="8.533"/>
		<circle style="fill:#428DFF;" cx="256" cy="238.933" r="8.533"/>
		<circle style="fill:#428DFF;" cx="315.733" cy="238.933" r="8.533"/>
		<circle style="fill:#428DFF;" cx="375.467" cy="238.933" r="8.533"/>
		<circle style="fill:#428DFF;" cx="435.2" cy="238.933" r="8.533"/>
		<circle style="fill:#428DFF;" cx="76.8" cy="307.2" r="8.533"/>
		<circle style="fill:#428DFF;" cx="136.533" cy="307.2" r="8.533"/>
		<circle style="fill:#428DFF;" cx="196.267" cy="307.2" r="8.533"/>
		<circle style="fill:#428DFF;" cx="256" cy="307.2" r="8.533"/>
		<circle style="fill:#428DFF;" cx="315.733" cy="307.2" r="8.533"/>
		<circle style="fill:#428DFF;" cx="375.467" cy="307.2" r="8.533"/>
		<circle style="fill:#428DFF;" cx="435.2" cy="307.2" r="8.533"/>
		<circle style="fill:#428DFF;" cx="76.8" cy="366.933" r="8.533"/>
		<circle style="fill:#428DFF;" cx="136.533" cy="366.933" r="8.533"/>
		<circle style="fill:#428DFF;" cx="196.267" cy="366.933" r="8.533"/>
		<circle style="fill:#428DFF;" cx="256" cy="366.933" r="8.533"/>
		<circle style="fill:#428DFF;" cx="315.733" cy="366.933" r="8.533"/>
		<circle style="fill:#428DFF;" cx="375.467" cy="366.933" r="8.533"/>
		<circle style="fill:#428DFF;" cx="435.2" cy="366.933" r="8.533"/>
		<circle style="fill:#428DFF;" cx="76.8" cy="435.2" r="8.533"/>
		<circle style="fill:#428DFF;" cx="136.533" cy="435.2" r="8.533"/>
		<circle style="fill:#428DFF;" cx="196.267" cy="435.2" r="8.533"/>
		<circle style="fill:#428DFF;" cx="256" cy="435.2" r="8.533"/>
		<circle style="fill:#428DFF;" cx="315.733" cy="435.2" r="8.533"/>
		<path style="fill:#428DFF;" d="M503.467,170.667H8.533c-2.264,0.001-4.435-0.897-6.035-2.498s-2.499-3.772-2.498-6.035V102.4
			c-0.001-2.264,0.897-4.435,2.498-6.035c1.601-1.601,3.772-2.499,6.035-2.498h494.933c2.264-0.001,4.435,0.897,6.035,2.498
			c1.601,1.601,2.499,3.772,2.498,6.035v59.733c0.001,2.264-0.897,4.435-2.498,6.035
			C507.901,169.769,505.73,170.668,503.467,170.667L503.467,170.667z M17.067,153.6h477.867v-42.667H17.067V153.6z"/>
	</g>
</g>
<g>
</g>
<g>
</g>
<g>
</g>
<g>
</g>
<g>
</g>
<g>
</g>
<g>
</g>
<g>
</g>
<g>
</g>
<g>
</g>
<g>
</g>
<g>
</g>
<g>
</g>
<g>
</g>
<g>
</g>
</svg>
