<?xml version="1.0" encoding="iso-8859-1"?>
<!-- Generator: Adobe Illustrator 19.0.0, SVG Export Plug-In . SVG Version: 6.00 Build 0)  -->
<svg version="1.1" id="Capa_1" xmlns="http://www.w3.org/2000/svg" xmlns:xlink="http://www.w3.org/1999/xlink" x="0px" y="0px"
	 viewBox="0 0 512 512" style="enable-background:new 0 0 512 512;" xml:space="preserve">
<g>
	<rect x="8.828" y="8.828" style="fill:#FFFFFF;" width="158.897" height="247.172"/>
	<g>
		<rect x="97.103" y="8.828" style="fill:#A4C2F7;" width="158.897" height="247.172"/>
		<rect x="256" y="256" style="fill:#A4C2F7;" width="247.172" height="247.172"/>
	</g>
	<rect x="35.31" y="8.828" style="fill:#E3E7F2;" width="194.207" height="247.172"/>
	<rect x="8.828" y="256" style="fill:#FFFFFF;" width="158.897" height="247.172"/>
	<rect x="97.103" y="256" style="fill:#7FACFA;" width="158.897" height="247.172"/>
	<rect x="35.31" y="256" style="fill:#A4C2F7;" width="194.207" height="247.172"/>
	<rect x="256" y="256" style="fill:#E3E7F2;" width="220.69" height="247.172"/>
	<rect x="256" y="8.828" style="fill:#7FACFA;" width="247.172" height="247.172"/>
	<rect x="256" y="8.828" style="fill:#A4C2F7;" width="220.69" height="247.172"/>
	<g>
		<path style="fill:#428DFF;" d="M185.379,141.241H79.448c-4.875,0-8.828-3.952-8.828-8.828c0-4.875,3.952-8.828,8.828-8.828
			h105.931c4.875,0,8.828,3.952,8.828,8.828C194.207,137.289,190.255,141.241,185.379,141.241z"/>
		<path style="fill:#428DFF;" d="M132.414,194.207c-2.341,0.001-4.587-0.929-6.243-2.585c-1.656-1.656-2.585-3.901-2.585-6.243
			V79.448c0-4.875,3.952-8.828,8.828-8.828c4.875,0,8.828,3.952,8.828,8.828v105.931c0.001,2.341-0.929,4.587-2.585,6.243
			C137.001,193.278,134.755,194.208,132.414,194.207z"/>
		<path style="fill:#428DFF;" d="M432.552,141.241H326.621c-4.875,0-8.828-3.952-8.828-8.828c0-4.875,3.952-8.828,8.828-8.828
			h105.931c4.875,0,8.828,3.952,8.828,8.828C441.379,137.289,437.427,141.241,432.552,141.241z"/>
		<path style="fill:#428DFF;" d="M503.172,512H8.828c-2.341,0.001-4.587-0.929-6.243-2.585c-1.656-1.656-2.585-3.901-2.585-6.243
			V8.828C-0.001,6.486,0.929,4.24,2.585,2.585S6.486-0.001,8.828,0h494.345c2.341-0.001,4.587,0.929,6.243,2.585
			c1.656,1.656,2.585,3.901,2.585,6.243v494.345c0.001,2.341-0.929,4.587-2.585,6.243C507.759,511.071,505.514,512.001,503.172,512z
			 M17.655,494.345h476.69V17.655H17.655V494.345z"/>
		<path style="fill:#428DFF;" d="M256,264.828H8.828c-2.341,0.001-4.587-0.929-6.243-2.585C0.929,260.587-0.001,258.341,0,256V8.828
			C-0.001,6.486,0.929,4.24,2.585,2.585S6.486-0.001,8.828,0H256c2.341-0.001,4.587,0.929,6.243,2.585
			c1.656,1.656,2.585,3.901,2.585,6.243V256c0.001,2.341-0.929,4.587-2.585,6.243C260.587,263.898,258.341,264.828,256,264.828z
			 M17.655,247.172h229.517V17.655H17.655V247.172z"/>
		<path style="fill:#428DFF;" d="M503.172,264.828H256c-2.341,0.001-4.587-0.929-6.243-2.585c-1.656-1.656-2.585-3.901-2.585-6.243
			V8.828c-0.001-2.341,0.929-4.587,2.585-6.243C251.413,0.929,253.659-0.001,256,0h247.172c2.341-0.001,4.587,0.929,6.243,2.585
			c1.656,1.656,2.585,3.901,2.585,6.243V256c0.001,2.341-0.929,4.587-2.585,6.243C507.759,263.898,505.514,264.828,503.172,264.828z
			 M264.828,247.172h229.517V17.655H264.828V247.172z"/>
		<path style="fill:#428DFF;" d="M256,512H8.828c-2.341,0.001-4.587-0.929-6.243-2.585c-1.656-1.656-2.585-3.901-2.585-6.243V256
			c-0.001-2.341,0.929-4.587,2.585-6.243c1.656-1.656,3.901-2.585,6.243-2.585H256c2.341-0.001,4.587,0.929,6.243,2.585
			c1.656,1.656,2.585,3.901,2.585,6.243v247.172c0.001,2.341-0.929,4.587-2.585,6.243C260.587,511.071,258.341,512.001,256,512z
			 M17.655,494.345h229.517V264.828H17.655V494.345z"/>
		<path style="fill:#428DFF;" d="M503.172,512H256c-2.341,0.001-4.587-0.929-6.243-2.585c-1.656-1.656-2.585-3.901-2.585-6.243V256
			c-0.001-2.341,0.929-4.587,2.585-6.243c1.656-1.656,3.901-2.585,6.243-2.585h247.172c2.341-0.001,4.587,0.929,6.243,2.585
			c1.656,1.656,2.585,3.901,2.585,6.243v247.172c0.001,2.341-0.929,4.587-2.585,6.243C507.759,511.071,505.514,512.001,503.172,512z
			 M264.828,494.345h229.517V264.828H264.828V494.345z"/>
		<path style="fill:#428DFF;" d="M432.552,414.897H326.621c-4.875,0-8.828-3.952-8.828-8.828s3.952-8.828,8.828-8.828h105.931
			c4.875,0,8.828,3.952,8.828,8.828S437.427,414.897,432.552,414.897z"/>
		<path style="fill:#428DFF;" d="M432.552,361.931H326.621c-4.875,0-8.828-3.952-8.828-8.828s3.952-8.828,8.828-8.828h105.931
			c4.875,0,8.828,3.952,8.828,8.828S437.427,361.931,432.552,361.931z"/>
		<path style="fill:#428DFF;" d="M132.414,388.414c-3.57-0.001-6.788-2.152-8.154-5.45c-1.366-3.298-0.611-7.094,1.913-9.619
			l44.138-44.138c3.456-3.394,9.001-3.369,12.426,0.056c3.425,3.425,3.45,8.97,0.056,12.426l-44.138,44.138
			C137.002,387.486,134.755,388.416,132.414,388.414z"/>
		<path style="fill:#428DFF;" d="M88.276,432.552c-3.57-0.001-6.788-2.152-8.154-5.45c-1.366-3.298-0.611-7.094,1.913-9.619
			l44.138-44.138c3.456-3.394,9.001-3.369,12.426,0.056c3.425,3.425,3.45,8.97,0.056,12.426l-44.138,44.138
			C92.864,431.624,90.618,432.554,88.276,432.552L88.276,432.552z"/>
		<path style="fill:#428DFF;" d="M176.552,432.552c-2.342,0.003-4.588-0.928-6.241-2.586l-44.138-44.138
			c-3.394-3.456-3.369-9.001,0.056-12.426c3.425-3.425,8.97-3.45,12.426-0.056l44.138,44.138c2.524,2.525,3.279,6.321,1.913,9.619
			C183.34,430.4,180.122,432.551,176.552,432.552z"/>
		<path style="fill:#428DFF;" d="M132.414,388.414c-2.342,0.003-4.588-0.928-6.241-2.586l-44.138-44.138
			c-3.394-3.456-3.369-9.001,0.056-12.426c3.425-3.425,8.97-3.45,12.426-0.056l44.138,44.138c2.524,2.525,3.279,6.321,1.913,9.619
			C139.202,386.262,135.984,388.413,132.414,388.414z"/>
	</g>
</g>
<g>
</g>
<g>
</g>
<g>
</g>
<g>
</g>
<g>
</g>
<g>
</g>
<g>
</g>
<g>
</g>
<g>
</g>
<g>
</g>
<g>
</g>
<g>
</g>
<g>
</g>
<g>
</g>
<g>
</g>
</svg>
