<?xml version="1.0" encoding="iso-8859-1"?>
<!-- Generator: Adobe Illustrator 19.0.0, SVG Export Plug-In . SVG Version: 6.00 Build 0)  -->
<svg version="1.1" id="Capa_1" xmlns="http://www.w3.org/2000/svg" xmlns:xlink="http://www.w3.org/1999/xlink" x="0px" y="0px"
	 viewBox="0 0 512 512" style="enable-background:new 0 0 512 512;" xml:space="preserve">
<g>
	<path style="fill:#A4C2F7;" d="M259.533,8.533h172.134c9.02,0,16.333,7.312,16.333,16.333v462.268
		c0,9.02-7.312,16.333-16.333,16.333H259.533c-9.02,0-16.333-7.312-16.333-16.333V24.866C243.2,15.846,250.512,8.533,259.533,8.533z
		"/>
	<path style="fill:#FFFFFF;" d="M80.333,8.533h172.134c9.02,0,16.333,7.312,16.333,16.333v462.268
		c0,9.02-7.312,16.333-16.333,16.333H80.333c-9.02,0-16.333-7.312-16.333-16.333V24.866C64,15.846,71.312,8.533,80.333,8.533z"/>
	<path style="fill:#E3E7F2;" d="M105.933,8.533h300.134c9.02,0,16.333,7.312,16.333,16.333v462.268
		c0,9.02-7.312,16.333-16.333,16.333H105.933c-9.02,0-16.333-7.312-16.333-16.333V24.866C89.6,15.846,96.912,8.533,105.933,8.533z"
		/>
	<rect x="106.667" y="51.2" style="fill:#7FACFA;" width="298.667" height="68.267"/>
	
		<linearGradient id="SVGID_1_" gradientUnits="userSpaceOnUse" x1="-48.633" y1="651.7139" x2="-48.008" y2="649.2139" gradientTransform="matrix(273.0667 0 0 -68.2667 13437.9316 44490.3359)">
		<stop  offset="0" style="stop-color:#D4E1F4"/>
		<stop  offset="0.1717" style="stop-color:#D4E1F4"/>
		<stop  offset="0.2" style="stop-color:#D4E1F4"/>
		<stop  offset="0.2001" style="stop-color:#DAE4F4"/>
		<stop  offset="0.2007" style="stop-color:#EBEBF4"/>
		<stop  offset="0.2014" style="stop-color:#F6F1F4"/>
		<stop  offset="0.2023" style="stop-color:#FDF4F4"/>
		<stop  offset="0.205" style="stop-color:#FFF5F4"/>
		<stop  offset="0.2522" style="stop-color:#FFF5F4"/>
		<stop  offset="0.26" style="stop-color:#FFF5F4"/>
		<stop  offset="0.26" style="stop-color:#D4E1F4"/>
		<stop  offset="0.3974" style="stop-color:#D4E1F4"/>
		<stop  offset="0.42" style="stop-color:#D4E1F4"/>
		<stop  offset="0.4201" style="stop-color:#DAE4F4"/>
		<stop  offset="0.4207" style="stop-color:#EBEBF4"/>
		<stop  offset="0.4214" style="stop-color:#F6F1F4"/>
		<stop  offset="0.4223" style="stop-color:#FDF4F4"/>
		<stop  offset="0.425" style="stop-color:#FFF5F4"/>
		<stop  offset="0.4894" style="stop-color:#FFF5F4"/>
		<stop  offset="0.5" style="stop-color:#FFF5F4"/>
		<stop  offset="0.5" style="stop-color:#F9F2F4"/>
		<stop  offset="0.5001" style="stop-color:#E8EBF4"/>
		<stop  offset="0.5003" style="stop-color:#DDE5F4"/>
		<stop  offset="0.5005" style="stop-color:#D6E2F4"/>
		<stop  offset="0.501" style="stop-color:#D4E1F4"/>
		<stop  offset="0.7062" style="stop-color:#D4E1F4"/>
		<stop  offset="0.74" style="stop-color:#D4E1F4"/>
		<stop  offset="0.741" style="stop-color:#FFF5F4"/>
		<stop  offset="0.8346" style="stop-color:#FFF5F4"/>
		<stop  offset="0.85" style="stop-color:#FFF5F4"/>
		<stop  offset="0.851" style="stop-color:#D4E1F4"/>
	</linearGradient>
	<rect x="106.667" y="51.2" style="fill:url(#SVGID_1_);" width="273.067" height="68.267"/>
	<g>
		<rect x="106.667" y="384" style="fill:#7FACFA;" width="76.8" height="76.8"/>
		<rect x="217.6" y="384" style="fill:#7FACFA;" width="76.8" height="76.8"/>
		<rect x="328.533" y="273.067" style="fill:#7FACFA;" width="76.8" height="187.733"/>
	</g>
	<rect x="328.533" y="273.067" style="fill:#A4C2F7;" width="51.2" height="187.733"/>
	<g>
		<rect x="106.667" y="273.067" style="fill:#7FACFA;" width="76.8" height="76.8"/>
		<rect x="217.6" y="273.067" style="fill:#7FACFA;" width="76.8" height="76.8"/>
		<rect x="106.667" y="162.133" style="fill:#7FACFA;" width="76.8" height="76.8"/>
		<rect x="217.6" y="162.133" style="fill:#7FACFA;" width="76.8" height="76.8"/>
		<rect x="328.533" y="162.133" style="fill:#7FACFA;" width="76.8" height="76.8"/>
	</g>
	<g>
		<rect x="328.533" y="162.133" style="fill:#A4C2F7;" width="51.2" height="76.8"/>
		<rect x="217.6" y="162.133" style="fill:#A4C2F7;" width="51.2" height="76.8"/>
		<rect x="217.6" y="273.067" style="fill:#A4C2F7;" width="51.2" height="76.8"/>
		<rect x="217.6" y="384" style="fill:#A4C2F7;" width="51.2" height="76.8"/>
		<rect x="106.667" y="162.133" style="fill:#A4C2F7;" width="51.2" height="76.8"/>
		<rect x="106.667" y="273.067" style="fill:#A4C2F7;" width="51.2" height="76.8"/>
		<rect x="106.667" y="384" style="fill:#A4C2F7;" width="51.2" height="76.8"/>
	</g>
	<g>
		<path style="fill:#428DFF;" d="M431.667,512H80.333c-13.727-0.016-24.85-11.14-24.867-24.867V24.867
			C55.483,11.14,66.607,0.016,80.333,0h351.333c13.727,0.016,24.85,11.14,24.867,24.867v462.267
			C456.517,500.86,445.393,511.984,431.667,512z M80.333,17.067c-4.306,0.006-7.794,3.494-7.8,7.8v462.267
			c0.006,4.306,3.494,7.794,7.8,7.8h351.333c4.306-0.006,7.794-3.494,7.8-7.8V24.867c-0.006-4.306-3.494-7.794-7.8-7.8H80.333z"/>
		<path style="fill:#428DFF;" d="M183.467,469.333h-76.8c-2.263,0.001-4.434-0.898-6.035-2.499c-1.6-1.6-2.499-3.771-2.499-6.035
			V384c-0.001-2.263,0.898-4.434,2.499-6.035c1.6-1.6,3.771-2.499,6.035-2.499h76.8c2.263-0.001,4.434,0.898,6.035,2.499
			c1.6,1.6,2.499,3.771,2.499,6.035v76.8c0.001,2.263-0.898,4.434-2.499,6.035C187.901,468.435,185.73,469.334,183.467,469.333
			L183.467,469.333z M115.2,452.267h59.733v-59.733H115.2V452.267z"/>
		<path style="fill:#428DFF;" d="M294.4,469.333h-76.8c-2.263,0.001-4.434-0.898-6.035-2.499c-1.6-1.6-2.499-3.771-2.499-6.035V384
			c-0.001-2.263,0.898-4.434,2.499-6.035c1.6-1.6,3.771-2.499,6.035-2.499h76.8c2.263-0.001,4.434,0.898,6.035,2.499
			c1.6,1.6,2.499,3.771,2.499,6.035v76.8c0.001,2.263-0.898,4.434-2.499,6.035C298.834,468.435,296.663,469.334,294.4,469.333
			L294.4,469.333z M226.133,452.267h59.733v-59.733h-59.733V452.267z"/>
		<path style="fill:#428DFF;" d="M405.333,469.333h-76.8c-2.263,0.001-4.434-0.898-6.035-2.499c-1.6-1.6-2.499-3.771-2.499-6.035
			V273.067c-0.001-2.263,0.898-4.434,2.499-6.035s3.771-2.499,6.035-2.499h76.8c2.263-0.001,4.434,0.898,6.035,2.499
			s2.499,3.771,2.499,6.035V460.8c0.001,2.263-0.898,4.434-2.499,6.035C409.768,468.435,407.597,469.334,405.333,469.333
			L405.333,469.333z M337.067,452.267H396.8V281.6h-59.733V452.267z"/>
		<path style="fill:#428DFF;" d="M183.467,358.4h-76.8c-2.263,0.001-4.434-0.898-6.035-2.499c-1.6-1.6-2.499-3.771-2.499-6.035
			v-76.8c-0.001-2.263,0.898-4.434,2.499-6.035c1.6-1.6,3.771-2.499,6.035-2.499h76.8c2.263-0.001,4.434,0.898,6.035,2.499
			c1.6,1.6,2.499,3.771,2.499,6.035v76.8c0.001,2.263-0.898,4.434-2.499,6.035C187.901,357.502,185.73,358.401,183.467,358.4
			L183.467,358.4z M115.2,341.333h59.733V281.6H115.2V341.333z"/>
		<path style="fill:#428DFF;" d="M294.4,358.4h-76.8c-2.263,0.001-4.434-0.898-6.035-2.499c-1.6-1.6-2.499-3.771-2.499-6.035v-76.8
			c-0.001-2.263,0.898-4.434,2.499-6.035c1.6-1.6,3.771-2.499,6.035-2.499h76.8c2.263-0.001,4.434,0.898,6.035,2.499
			c1.6,1.6,2.499,3.771,2.499,6.035v76.8c0.001,2.263-0.898,4.434-2.499,6.035C298.834,357.502,296.663,358.401,294.4,358.4
			L294.4,358.4z M226.133,341.333h59.733V281.6h-59.733V341.333z"/>
		<path style="fill:#428DFF;" d="M183.467,247.467h-76.8c-2.263,0.001-4.434-0.898-6.035-2.499c-1.6-1.6-2.499-3.771-2.499-6.035
			v-76.8c-0.001-2.263,0.898-4.434,2.499-6.035c1.6-1.6,3.771-2.499,6.035-2.499h76.8c2.263-0.001,4.434,0.898,6.035,2.499
			c1.6,1.6,2.499,3.771,2.499,6.035v76.8c0.001,2.263-0.898,4.434-2.499,6.035C187.901,246.568,185.73,247.467,183.467,247.467z
			 M115.2,230.4h59.733v-59.733H115.2V230.4z"/>
		<path style="fill:#428DFF;" d="M294.4,247.467h-76.8c-2.263,0.001-4.434-0.898-6.035-2.499c-1.6-1.6-2.499-3.771-2.499-6.035
			v-76.8c-0.001-2.263,0.898-4.434,2.499-6.035c1.6-1.6,3.771-2.499,6.035-2.499h76.8c2.263-0.001,4.434,0.898,6.035,2.499
			c1.6,1.6,2.499,3.771,2.499,6.035v76.8c0.001,2.263-0.898,4.434-2.499,6.035C298.834,246.568,296.663,247.467,294.4,247.467z
			 M226.133,230.4h59.733v-59.733h-59.733V230.4z"/>
		<path style="fill:#428DFF;" d="M405.333,247.467h-76.8c-2.263,0.001-4.434-0.898-6.035-2.499c-1.6-1.6-2.499-3.771-2.499-6.035
			v-76.8c-0.001-2.263,0.898-4.434,2.499-6.035s3.771-2.499,6.035-2.499h76.8c2.263-0.001,4.434,0.898,6.035,2.499
			s2.499,3.771,2.499,6.035v76.8c0.001,2.263-0.898,4.434-2.499,6.035C409.768,246.568,407.597,247.467,405.333,247.467
			L405.333,247.467z M337.067,230.4H396.8v-59.733h-59.733V230.4z"/>
		<path style="fill:#428DFF;" d="M405.333,128H106.667c-2.263,0.001-4.434-0.898-6.035-2.499c-1.6-1.6-2.499-3.771-2.499-6.035V51.2
			c-0.001-2.263,0.898-4.434,2.499-6.035c1.6-1.6,3.771-2.499,6.035-2.499h298.667c2.263-0.001,4.434,0.898,6.035,2.499
			c1.6,1.6,2.499,3.771,2.499,6.035v68.267c0.001,2.263-0.898,4.434-2.499,6.035C409.768,127.102,407.597,128.001,405.333,128z
			 M115.2,110.933h281.6v-51.2H115.2V110.933z"/>
	</g>
</g>
<g>
</g>
<g>
</g>
<g>
</g>
<g>
</g>
<g>
</g>
<g>
</g>
<g>
</g>
<g>
</g>
<g>
</g>
<g>
</g>
<g>
</g>
<g>
</g>
<g>
</g>
<g>
</g>
<g>
</g>
</svg>
