<?xml version="1.0" encoding="iso-8859-1"?>
<!-- Generator: Adobe Illustrator 19.0.0, SVG Export Plug-In . SVG Version: 6.00 Build 0)  -->
<svg version="1.1" id="Capa_1" xmlns="http://www.w3.org/2000/svg" xmlns:xlink="http://www.w3.org/1999/xlink" x="0px" y="0px"
	 viewBox="0 0 512 512" style="enable-background:new 0 0 512 512;" xml:space="preserve">
<g>
	<rect x="8.533" y="8.533" style="fill:#FFFFFF;" width="238.933" height="494.933"/>
	<rect x="264.533" y="8.533" style="fill:#A4C2F7;" width="238.933" height="494.933"/>
	<rect x="34.133" y="8.533" style="fill:#E3E7F2;" width="443.733" height="494.933"/>
	<g>
		<path style="fill:#7FACFA;" d="M256,110.933L256,110.933c18.851,0,34.133,15.282,34.133,34.133l0,0
			c0,18.851-15.282,34.133-34.133,34.133l0,0c-18.851,0-34.133-15.282-34.133-34.133l0,0
			C221.867,126.215,237.149,110.933,256,110.933z"/>
		<path style="fill:#7FACFA;" d="M256,332.8L256,332.8c18.851,0,34.133,15.282,34.133,34.133l0,0
			c0,18.851-15.282,34.133-34.133,34.133l0,0c-18.851,0-34.133-15.282-34.133-34.133l0,0C221.867,348.082,237.149,332.8,256,332.8z"
			/>
	</g>
	<g>
		<path style="fill:#A4C2F7;" d="M240.682,112.7c0.568,2.615-0.085,5.347-1.774,7.422c-1.69,2.075-4.232,3.269-6.908,3.243
			c-0.542-0.058-1.078-0.167-1.6-0.325v47.462c4.375-0.14,8.126,3.099,8.625,7.448c14.7-3.762,25.113-16.83,25.498-31.999
			C264.908,130.782,255.172,117.203,240.682,112.7L240.682,112.7z"/>
		<path style="fill:#A4C2F7;" d="M240.682,332.8c0.568,2.615-0.085,5.347-1.774,7.422c-1.69,2.075-4.232,3.269-6.908,3.243
			c-0.542-0.058-1.078-0.167-1.6-0.325v47.462c4.375-0.14,8.126,3.099,8.625,7.448c14.7-3.762,25.112-16.83,25.497-31.999
			C264.908,350.883,255.172,337.304,240.682,332.8L240.682,332.8z"/>
	</g>
	<g>
		<path style="fill:#428DFF;" d="M503.467,512H8.533c-2.264,0.001-4.435-0.897-6.035-2.498c-1.601-1.601-2.499-3.772-2.498-6.035
			V8.533C-0.001,6.27,0.897,4.099,2.498,2.498S6.27-0.001,8.533,0h494.933c2.264-0.001,4.435,0.897,6.035,2.498
			c1.601,1.601,2.499,3.772,2.498,6.035v494.933c0.001,2.264-0.897,4.435-2.498,6.035C507.901,511.103,505.73,512.001,503.467,512z
			 M17.067,494.933h477.867V17.067H17.067V494.933z"/>
		<path style="fill:#428DFF;" d="M435.2,264.533H76.8c-4.713,0-8.533-3.821-8.533-8.533c0-4.713,3.821-8.533,8.533-8.533h358.4
			c4.713,0,8.533,3.821,8.533,8.533C443.733,260.713,439.913,264.533,435.2,264.533z"/>
		<path style="fill:#428DFF;" d="M256,187.733c-23.564,0-42.667-19.103-42.667-42.667S232.436,102.4,256,102.4
			c23.564,0,42.667,19.103,42.667,42.667C298.639,168.619,279.553,187.706,256,187.733L256,187.733z M256,119.467
			c-14.138,0-25.6,11.462-25.6,25.6c0,14.138,11.462,25.6,25.6,25.6c14.139,0,25.6-11.462,25.6-25.6
			C281.585,130.935,270.132,119.482,256,119.467L256,119.467z"/>
		<path style="fill:#428DFF;" d="M256,409.6c-23.564,0-42.667-19.103-42.667-42.667c0-23.564,19.103-42.667,42.667-42.667
			c23.564,0,42.667,19.103,42.667,42.667C298.639,390.486,279.553,409.572,256,409.6L256,409.6z M256,341.333
			c-14.138,0-25.6,11.462-25.6,25.6c0,14.138,11.462,25.6,25.6,25.6c14.139,0,25.6-11.462,25.6-25.6
			C281.585,352.801,270.132,341.349,256,341.333L256,341.333z"/>
	</g>
</g>
<g>
</g>
<g>
</g>
<g>
</g>
<g>
</g>
<g>
</g>
<g>
</g>
<g>
</g>
<g>
</g>
<g>
</g>
<g>
</g>
<g>
</g>
<g>
</g>
<g>
</g>
<g>
</g>
<g>
</g>
</svg>
