<?xml version="1.0" encoding="iso-8859-1"?>
<!-- Generator: Adobe Illustrator 19.0.0, SVG Export Plug-In . SVG Version: 6.00 Build 0)  -->
<svg version="1.1" id="Capa_1" xmlns="http://www.w3.org/2000/svg" xmlns:xlink="http://www.w3.org/1999/xlink" x="0px" y="0px"
	 viewBox="0 0 503.606 503.606" style="enable-background:new 0 0 503.606 503.606;" xml:space="preserve">
<g transform="translate(0 1)">
	<path style="fill:#E3E7F2;" d="M117.514,31.596c0.006-5.494,1.606-10.869,4.606-15.471L37.986,38.668
		c-7.323,1.962-13.566,6.753-17.357,13.318s-4.818,14.368-2.856,21.69L116.9,443.62c0.041,0.151,0.187,0.248,0.342,0.228
		c0.155-0.02,0.271-0.152,0.271-0.309L117.514,31.596L117.514,31.596z"/>
	<path style="fill:#A4C2F7;" d="M268.596,7.393h97.318c15.786,0,28.583,12.797,28.583,28.583v429.653
		c0,15.786-12.797,28.583-28.583,28.583h-97.318c-15.786,0-28.583-12.797-28.583-28.583V35.976
		C240.012,20.19,252.809,7.393,268.596,7.393z"/>
	<path style="fill:#FFFFFF;" d="M146.097,7.393h97.318c15.786,0,28.583,12.797,28.583,28.583v429.653
		c0,15.786-12.797,28.583-28.583,28.583h-97.318c-15.786,0-28.583-12.797-28.583-28.583V35.976
		C117.514,20.19,130.311,7.393,146.097,7.393z"/>
	<path style="fill:#E3E7F2;" d="M171.277,7.393H332.34c15.786,0,28.583,12.797,28.583,28.583v429.653
		c0,15.786-12.797,28.583-28.583,28.583H171.277c-15.786,0-28.583-12.797-28.583-28.583V35.976
		C142.694,20.19,155.491,7.393,171.277,7.393z"/>
	<rect x="240.012" y="57.756" style="fill:#A4C2F7;" width="154.49" height="335.74"/>
	
		<linearGradient id="SVGID_1_" gradientUnits="userSpaceOnUse" x1="-106.0731" y1="-7.4807" x2="-104.8041" y2="-6.6507" gradientTransform="matrix(218.2295 0 0 335.7376 23261.7109 2597.9287)">
		<stop  offset="0" style="stop-color:#D4E1F4"/>
		<stop  offset="0.172" style="stop-color:#D4E1F4"/>
		<stop  offset="0.2" style="stop-color:#D4E1F4"/>
		<stop  offset="0.2" style="stop-color:#DAE4F4"/>
		<stop  offset="0.201" style="stop-color:#EBEBF4"/>
		<stop  offset="0.201" style="stop-color:#F6F1F4"/>
		<stop  offset="0.202" style="stop-color:#FDF4F4"/>
		<stop  offset="0.205" style="stop-color:#FFF5F4"/>
		<stop  offset="0.252" style="stop-color:#FFF5F4"/>
		<stop  offset="0.26" style="stop-color:#FFF5F4"/>
		<stop  offset="0.26" style="stop-color:#D4E1F4"/>
		<stop  offset="0.397" style="stop-color:#D4E1F4"/>
		<stop  offset="0.42" style="stop-color:#D4E1F4"/>
		<stop  offset="0.42" style="stop-color:#DAE4F4"/>
		<stop  offset="0.421" style="stop-color:#EBEBF4"/>
		<stop  offset="0.421" style="stop-color:#F6F1F4"/>
		<stop  offset="0.422" style="stop-color:#FDF4F4"/>
		<stop  offset="0.425" style="stop-color:#FFF5F4"/>
		<stop  offset="0.489" style="stop-color:#FFF5F4"/>
		<stop  offset="0.5" style="stop-color:#FFF5F4"/>
		<stop  offset="0.5" style="stop-color:#F9F2F4"/>
		<stop  offset="0.5" style="stop-color:#E8EBF4"/>
		<stop  offset="0.5" style="stop-color:#DDE5F4"/>
		<stop  offset="0.5" style="stop-color:#D6E2F4"/>
		<stop  offset="0.501" style="stop-color:#D4E1F4"/>
		<stop  offset="0.706" style="stop-color:#D4E1F4"/>
		<stop  offset="0.74" style="stop-color:#D4E1F4"/>
		<stop  offset="0.741" style="stop-color:#FFF5F4"/>
		<stop  offset="0.835" style="stop-color:#FFF5F4"/>
		<stop  offset="0.85" style="stop-color:#FFF5F4"/>
		<stop  offset="0.851" style="stop-color:#D4E1F4"/>
	</linearGradient>
	<rect x="142.692" y="57.756" style="fill:url(#SVGID_1_);" width="218.23" height="335.74"/>
	<circle style="fill:#A4C2F7;" cx="251.812" cy="443.856" r="25.18"/>
	<g>
		<path style="fill:#428DFF;" d="M357.522,502.606H146.096c-20.411-0.024-36.952-16.564-36.975-36.975V35.975
			C109.145,15.564,125.685-0.977,146.096-1h211.426c20.411,0.024,36.952,16.564,36.975,36.975v429.656
			C394.473,486.042,377.933,502.582,357.522,502.606z M146.096,15.786c-11.144,0.013-20.175,9.044-20.188,20.188V465.63
			c0.013,11.144,9.044,20.175,20.188,20.189h211.426c11.144-0.013,20.175-9.044,20.188-20.189V35.975
			c-0.013-11.144-9.044-20.175-20.188-20.188L146.096,15.786L146.096,15.786z"/>
		<path style="fill:#428DFF;" d="M251.809,477.426c-18.542,0-33.574-15.031-33.574-33.574s15.031-33.574,33.574-33.574
			c18.542,0,33.574,15.031,33.574,33.574C285.363,462.386,270.343,477.406,251.809,477.426L251.809,477.426z M251.809,427.065
			c-9.271,0-16.787,7.516-16.787,16.787s7.516,16.787,16.787,16.787s16.787-7.516,16.787-16.787
			C268.585,434.585,261.075,427.076,251.809,427.065z"/>
		<path style="fill:#428DFF;" d="M386.104,401.885h-268.59c-4.636,0-8.393-3.758-8.393-8.393c0-4.636,3.758-8.393,8.393-8.393
			h268.59c4.636,0,8.393,3.758,8.393,8.393S390.739,401.885,386.104,401.885z"/>
		<path style="fill:#428DFF;" d="M386.104,66.147h-268.59c-4.636,0-8.393-3.758-8.393-8.393s3.758-8.393,8.393-8.393h268.59
			c4.636,0,8.393,3.758,8.393,8.393S390.739,66.147,386.104,66.147z"/>
		<path style="fill:#428DFF;" d="M251.809,40.967h-33.574c-4.636,0-8.393-3.758-8.393-8.393s3.758-8.393,8.393-8.393h33.574
			c4.636,0,8.393,3.758,8.393,8.393S256.444,40.967,251.809,40.967z"/>
		<path style="fill:#428DFF;" d="M285.383,40.967h-8.393c-4.636,0-8.393-3.758-8.393-8.393s3.758-8.393,8.393-8.393h8.393
			c4.636,0,8.393,3.758,8.393,8.393S290.018,40.967,285.383,40.967z"/>
		<path style="fill:#428DFF;" d="M120.092,32.573c-3.165-0.001-6.06-1.782-7.488-4.607c-2.368-2.026-3.417-5.198-2.726-8.237
			s3.01-5.444,6.021-6.247l25.193-6.73l-11.943,18.336c-0.536,0.828-1.012,1.693-1.422,2.59
			C126.358,30.664,123.375,32.576,120.092,32.573L120.092,32.573z"/>
		<path style="fill:#428DFF;" d="M117.51,442.721c-3.029,0.001-5.824-1.631-7.311-4.27c-2.994-0.718-5.355-3.017-6.152-5.992
			l-2.123-7.926c-1.066-3.979,0.912-8.143,4.67-9.83c3.758-1.687,8.185-0.398,10.449,3.043c2.301-0.122,4.552,0.706,6.226,2.289
			c1.675,1.583,2.627,3.784,2.634,6.088v8.205c0.001,2.226-0.883,4.362-2.458,5.936C121.871,441.837,119.736,442.721,117.51,442.721
			L117.51,442.721z"/>
		<path style="fill:#428DFF;" d="M117.51,401.68c-4.302-0.001-7.907-3.254-8.348-7.533c-1.476,3.215-4.81,5.16-8.335,4.862
			c-3.525-0.297-6.486-2.773-7.403-6.19l-2.123-7.926c-0.776-2.896,0.052-5.986,2.172-8.107c2.12-2.12,5.21-2.948,8.107-2.172
			s5.158,3.038,5.934,5.934l1.602,5.975v-1.443c0-4.636,3.758-8.393,8.393-8.393c4.636,0,8.393,3.758,8.393,8.393v8.205
			c0.001,2.226-0.884,4.361-2.458,5.936C121.871,400.796,119.736,401.68,117.51,401.68L117.51,401.68z"/>
		<path style="fill:#428DFF;" d="M90.907,359.401c-3.797-0.002-7.12-2.553-8.102-6.221l-2.127-7.926
			c-1.2-4.477,1.457-9.079,5.934-10.279c4.477-1.2,9.079,1.457,10.279,5.934l2.127,7.926c0.676,2.521,0.14,5.213-1.449,7.284
			C95.979,358.189,93.517,359.403,90.907,359.401L90.907,359.401z"/>
		<path style="fill:#428DFF;" d="M80.284,319.762c-3.797-0.002-7.12-2.553-8.102-6.221l-2.127-7.935
			c-1.2-4.477,1.457-9.079,5.934-10.279c4.477-1.2,9.079,1.457,10.279,5.934l2.127,7.934c0.674,2.521,0.138,5.212-1.451,7.282
			C85.355,318.548,82.894,319.762,80.284,319.762L80.284,319.762z"/>
		<path style="fill:#428DFF;" d="M69.661,280.114c-3.797-0.004-7.119-2.554-8.102-6.221l-2.123-7.926
			c-0.776-2.896,0.052-5.986,2.172-8.107c2.12-2.12,5.21-2.948,8.107-2.172c2.896,0.776,5.158,3.038,5.934,5.934l2.123,7.926
			c0.674,2.521,0.138,5.212-1.451,7.282C74.732,278.901,72.271,280.114,69.661,280.114L69.661,280.114z"/>
		<path style="fill:#428DFF;" d="M59.038,240.475c-3.797-0.004-7.119-2.554-8.102-6.221l-2.123-7.926
			c-1.192-4.474,1.465-9.069,5.938-10.267s9.071,1.452,10.276,5.923l2.123,7.926c0.674,2.521,0.138,5.212-1.451,7.282
			C64.109,239.262,61.648,240.475,59.038,240.475L59.038,240.475z"/>
		<path style="fill:#428DFF;" d="M48.415,200.836c-3.797-0.004-7.119-2.554-8.102-6.221l-2.123-7.934
			c-1.2-4.477,1.457-9.079,5.935-10.279c4.477-1.2,9.079,1.457,10.279,5.935l2.123,7.934c0.577,2.151,0.276,4.442-0.838,6.37
			s-2.949,3.334-5.1,3.908C49.88,200.74,49.149,200.836,48.415,200.836L48.415,200.836z"/>
		<path style="fill:#428DFF;" d="M37.796,161.188c-3.797-0.002-7.12-2.553-8.102-6.221l-2.127-7.926
			c-1.2-4.477,1.457-9.079,5.934-10.279s9.079,1.457,10.279,5.934l2.127,7.926c0.676,2.521,0.14,5.213-1.449,7.284
			C42.869,159.976,40.407,161.189,37.796,161.188z"/>
		<path style="fill:#428DFF;" d="M27.174,121.549c-3.797-0.002-7.12-2.553-8.103-6.221l-2.127-7.927
			c-1.2-4.477,1.457-9.079,5.934-10.279s9.079,1.457,10.279,5.934l2.127,7.926c0.676,2.521,0.14,5.213-1.449,7.284
			C32.246,120.337,29.784,121.55,27.174,121.549L27.174,121.549z"/>
		<path style="fill:#428DFF;" d="M16.915,81.827c-4.321-0.005-7.933-3.289-8.349-7.59c-0.115-1.213-0.172-2.418-0.172-3.607
			c-0.001-2.333,0.22-4.66,0.66-6.951c0.565-2.945,2.658-5.364,5.491-6.347s5.974-0.38,8.242,1.582s3.316,4.984,2.751,7.929
			c-0.239,1.243-0.358,2.505-0.357,3.77c0,0.68,0.033,1.344,0.098,2.025c0.436,4.612-2.946,8.706-7.557,9.148
			C17.455,81.816,17.185,81.83,16.915,81.827z"/>
		<path style="fill:#428DFF;" d="M38.776,51.229c-4.21-0.004-7.766-3.126-8.314-7.3s2.08-8.109,6.146-9.2l7.93-2.123
			c4.477-1.2,9.079,1.457,10.279,5.934s-1.457,9.079-5.934,10.279l-7.93,2.123C40.243,51.133,39.511,51.23,38.776,51.229z"/>
		<path style="fill:#428DFF;" d="M78.419,40.598c-4.21-0.004-7.766-3.126-8.314-7.3c-0.548-4.174,2.08-8.109,6.146-9.2l7.926-2.123
			c4.477-1.2,9.079,1.457,10.279,5.935c1.2,4.477-1.457,9.079-5.935,10.279l-7.926,2.123C79.886,40.502,79.154,40.599,78.419,40.598
			z"/>
	</g>
	<path style="fill:#E3E7F2;" d="M386.104,35.976c-0.006-5.494-1.606-10.869-4.606-15.471l84.133,22.543
		c7.323,1.962,13.566,6.753,17.357,13.318s4.818,14.368,2.856,21.69L386.717,448c-0.041,0.151-0.187,0.248-0.342,0.227
		c-0.155-0.02-0.271-0.152-0.271-0.308L386.104,35.976L386.104,35.976z"/>
	<path style="fill:#428DFF;" d="M392.919,457.278l-14.939-1.688l-0.27-7.672V35.975c-0.009-3.873-1.14-7.659-3.258-10.902
		l-11.869-18.32l105.221,28.189c9.473,2.537,17.55,8.734,22.454,17.228c4.904,8.493,6.232,18.586,3.694,28.059L392.919,457.278z
		 M394.345,32.639c0.102,1.107,0.152,2.221,0.152,3.336v350.566l83.242-310.656c1.386-5.173,0.66-10.684-2.018-15.322
		s-7.088-8.022-12.261-9.408L394.345,32.639z"/>
</g>
<g>
</g>
<g>
</g>
<g>
</g>
<g>
</g>
<g>
</g>
<g>
</g>
<g>
</g>
<g>
</g>
<g>
</g>
<g>
</g>
<g>
</g>
<g>
</g>
<g>
</g>
<g>
</g>
<g>
</g>
</svg>
