<?xml version="1.0" encoding="iso-8859-1"?>
<!-- Generator: Adobe Illustrator 19.0.0, SVG Export Plug-In . SVG Version: 6.00 Build 0)  -->
<svg version="1.1" id="Capa_1" xmlns="http://www.w3.org/2000/svg" xmlns:xlink="http://www.w3.org/1999/xlink" x="0px" y="0px"
	 viewBox="0 0 512 512" style="enable-background:new 0 0 512 512;" xml:space="preserve">
<g>
	<polygon style="fill:#A4C2F7;" points="406.601,9.143 286.116,9.143 9.143,285.394 226.139,502.857 502.857,226.871 
		502.857,105.18 	"/>
	<polygon style="fill:#7FACFA;" points="406.601,9.143 286.116,9.143 9.143,285.394 226.139,502.857 502.857,226.871 
		502.857,105.18 	"/>
	<g>
		<polygon style="fill:#A4C2F7;" points="402.285,9.143 286.116,9.143 9.143,283.429 207.853,475.429 484.571,199.442 
			484.571,77.751 		"/>
		<polygon style="fill:#A4C2F7;" points="406.601,9.143 286.116,9.143 64,230.537 280.996,448 502.857,226.871 502.857,105.18 		"/>
	</g>
	
		<linearGradient id="SVGID_1_" gradientUnits="userSpaceOnUse" x1="-48.8812" y1="652.1622" x2="-47.8812" y2="652.1622" gradientTransform="matrix(411.4286 0 0 -411.4286 20175.1094 268533.0625)">
		<stop  offset="0" style="stop-color:#D4E1F4"/>
		<stop  offset="0.1717" style="stop-color:#D4E1F4"/>
		<stop  offset="0.2" style="stop-color:#D4E1F4"/>
		<stop  offset="0.2001" style="stop-color:#DAE4F4"/>
		<stop  offset="0.2007" style="stop-color:#EBEBF4"/>
		<stop  offset="0.2014" style="stop-color:#F6F1F4"/>
		<stop  offset="0.2023" style="stop-color:#FDF4F4"/>
		<stop  offset="0.205" style="stop-color:#FFF5F4"/>
		<stop  offset="0.2522" style="stop-color:#FFF5F4"/>
		<stop  offset="0.26" style="stop-color:#FFF5F4"/>
		<stop  offset="0.26" style="stop-color:#D4E1F4"/>
		<stop  offset="0.3974" style="stop-color:#D4E1F4"/>
		<stop  offset="0.42" style="stop-color:#D4E1F4"/>
		<stop  offset="0.4201" style="stop-color:#DAE4F4"/>
		<stop  offset="0.4207" style="stop-color:#EBEBF4"/>
		<stop  offset="0.4214" style="stop-color:#F6F1F4"/>
		<stop  offset="0.4223" style="stop-color:#FDF4F4"/>
		<stop  offset="0.425" style="stop-color:#FFF5F4"/>
		<stop  offset="0.4894" style="stop-color:#FFF5F4"/>
		<stop  offset="0.5" style="stop-color:#FFF5F4"/>
		<stop  offset="0.5" style="stop-color:#F9F2F4"/>
		<stop  offset="0.5001" style="stop-color:#E8EBF4"/>
		<stop  offset="0.5003" style="stop-color:#DDE5F4"/>
		<stop  offset="0.5005" style="stop-color:#D6E2F4"/>
		<stop  offset="0.501" style="stop-color:#D4E1F4"/>
		<stop  offset="0.7062" style="stop-color:#D4E1F4"/>
		<stop  offset="0.74" style="stop-color:#D4E1F4"/>
		<stop  offset="0.741" style="stop-color:#FFF5F4"/>
		<stop  offset="0.8346" style="stop-color:#FFF5F4"/>
		<stop  offset="0.85" style="stop-color:#FFF5F4"/>
		<stop  offset="0.851" style="stop-color:#D4E1F4"/>
	</linearGradient>
	<polygon style="fill:url(#SVGID_1_);" points="379.172,9.143 286.116,9.143 64,230.537 265.143,420.572 475.428,219.429 
		475.428,105.18 	"/>
	<circle style="fill:#A4C2F7;" cx="393.325" cy="118.263" r="26.834"/>
	<g>
		<path style="fill:#428DFF;" d="M226.143,512c-2.43,0.004-4.761-0.964-6.473-2.688l-217-217.464
			c-1.713-1.717-2.673-4.043-2.669-6.468c0.003-2.425,0.97-4.749,2.688-6.461L279.66,2.67c1.715-1.708,4.036-2.668,6.456-2.67
			h120.482c2.42,0.002,4.74,0.962,6.455,2.67l96.259,96.036c1.722,1.714,2.689,4.044,2.688,6.473v121.696
			c0.001,2.429-0.966,4.759-2.688,6.473L232.598,509.33C230.886,511.042,228.563,512.002,226.143,512z M22.071,285.411
			L226.16,489.929L493.714,223.08V108.974l-90.893-90.688H289.892L22.071,285.411z"/>
		<path style="fill:#428DFF;" d="M393.277,154.241c-19.87-0.002-35.976-16.112-35.973-35.982
			c0.002-19.87,16.112-35.976,35.982-35.973c19.87,0.002,35.976,16.112,35.973,35.982
			C429.239,138.131,413.139,154.226,393.277,154.241z M393.277,100.572c-9.77,0.002-17.688,7.924-17.687,17.693
			c0.001,9.77,7.921,17.69,17.69,17.69s17.691-7.918,17.693-17.687C410.964,108.498,403.046,100.581,393.277,100.572
			L393.277,100.572z"/>
		<path style="fill:#428DFF;" d="M281,457.143c-2.43,0.004-4.761-0.964-6.473-2.688l-217-217.464
			c-1.713-1.717-2.673-4.043-2.669-6.468c0.003-2.425,0.97-4.749,2.688-6.46L279.66,2.67c1.712-1.711,4.035-2.672,6.456-2.67
			h120.482c2.42,0.002,4.74,0.962,6.455,2.67l96.259,96.036c1.722,1.714,2.689,4.044,2.688,6.473v121.696
			c0.001,2.429-0.966,4.759-2.688,6.473L287.455,454.473C285.742,456.183,283.42,457.143,281,457.143z M76.937,230.554
			l204.081,204.518L493.714,223.08V108.974l-90.893-90.688H289.892L76.937,230.554z"/>
		<path style="fill:#428DFF;" d="M9.152,128c-3.975,0.002-7.496-2.564-8.71-6.349c-1.215-3.785,0.155-7.921,3.389-10.232
			C5.813,110.009,203.437-28,389.482,111.545c2.623,1.955,4.001,5.163,3.613,8.411c-0.388,3.248-2.482,6.042-5.491,7.324
			c-3.009,1.283-6.475,0.859-9.087-1.11C203.035-5.402,16.321,124.974,14.455,126.295C12.91,127.405,11.055,128.002,9.152,128z"/>
		<path style="fill:#428DFF;" d="M380.402,438.955c-23.041,0.235-45.756-5.456-65.964-16.527
			c-30-17.071-76.259-61.688-49.009-168.687c1.248-4.892,6.224-7.846,11.116-6.598c4.892,1.248,7.846,6.224,6.598,11.116
			c-17.973,70.589-3.652,123.241,40.339,148.277c43.741,24.893,102.134,14.33,127.197-10.714
			c68.223-68.232,27.723-141.33,25.964-144.411c-2.486-4.373-0.973-9.933,3.387-12.443c4.359-2.51,9.928-1.027,12.461,3.318
			c28.577,55.719,16.794,123.629-28.884,166.463C440.801,429.165,410.993,439.986,380.402,438.955L380.402,438.955z"/>
	</g>
</g>
<g>
</g>
<g>
</g>
<g>
</g>
<g>
</g>
<g>
</g>
<g>
</g>
<g>
</g>
<g>
</g>
<g>
</g>
<g>
</g>
<g>
</g>
<g>
</g>
<g>
</g>
<g>
</g>
<g>
</g>
</svg>
