<?xml version="1.0" encoding="iso-8859-1"?>
<!-- Generator: Adobe Illustrator 19.0.0, SVG Export Plug-In . SVG Version: 6.00 Build 0)  -->
<svg version="1.1" id="Capa_1" xmlns="http://www.w3.org/2000/svg" xmlns:xlink="http://www.w3.org/1999/xlink" x="0px" y="0px"
	 viewBox="0 0 511.958 511.958" style="enable-background:new 0 0 511.958 511.958;" xml:space="preserve">
<g>
	<g>
		<circle style="fill:#A4C2F7;" cx="104.114" cy="255.618" r="78.102"/>
		<circle style="fill:#A4C2F7;" cx="407.843" cy="425.22" r="78.102"/>
		<circle style="fill:#A4C2F7;" cx="407.843" cy="86.78" r="78.102"/>
	</g>
	<g>
		<ellipse style="fill:#E3E7F2;" cx="91.097" cy="255.618" rx="65.085" ry="78.102"/>
		<ellipse style="fill:#E3E7F2;" cx="394.826" cy="425.22" rx="65.085" ry="78.102"/>
		<ellipse style="fill:#E3E7F2;" cx="394.826" cy="86.78" rx="65.085" ry="78.102"/>
	</g>
	<g>
		<path style="fill:#FFFFFF;" d="M407.843,164.881c2.396,0,4.756-0.146,7.096-0.358c-33.166-3.595-59.163-37.008-59.163-77.744
			c0-40.739,26.002-74.153,59.172-77.744c-2.344-0.212-4.707-0.358-7.105-0.358c-43.134,0-78.102,34.967-78.102,78.102
			S364.708,164.881,407.843,164.881z"/>
		<path style="fill:#FFFFFF;" d="M407.843,503.322c2.396,0,4.756-0.146,7.096-0.358c-33.166-3.595-59.163-37.008-59.163-77.744
			c0-40.739,26.002-74.153,59.172-77.744c-2.344-0.212-4.707-0.358-7.105-0.358c-43.134,0-78.102,34.967-78.102,78.102
			S364.708,503.322,407.843,503.322z"/>
		<path style="fill:#FFFFFF;" d="M104.114,338.441c2.396,0,4.756-0.146,7.096-0.358c-33.166-3.595-59.163-37.008-59.163-77.744
			c0-40.739,26.002-74.153,59.172-77.744c-2.344-0.212-4.707-0.358-7.105-0.358c-43.134,0-78.102,34.967-78.102,78.102
			S60.979,338.441,104.114,338.441L104.114,338.441z"/>
	</g>
	<g>
		<path style="fill:#428DFF;" d="M104.114,342.398c-47.927,0-86.78-38.853-86.78-86.78s38.853-86.78,86.78-86.78
			s86.78,38.853,86.78,86.78C190.839,303.523,152.018,342.344,104.114,342.398z M104.114,186.195
			c-38.342,0-69.424,31.082-69.424,69.424s31.082,69.424,69.424,69.424s69.424-31.082,69.424-69.424
			C173.494,217.295,142.437,186.239,104.114,186.195L104.114,186.195z"/>
		<path style="fill:#428DFF;" d="M407.843,511.958c-41.363-0.034-76.942-29.279-84.982-69.853
			c-8.04-40.574,13.697-81.177,51.921-96.983c38.224-15.806,82.289-2.412,105.252,31.991c22.963,34.403,18.429,80.236-10.83,109.472
			l0,0C452.939,502.867,430.857,511.998,407.843,511.958L407.843,511.958z M407.843,355.831c-31.417,0-58.917,21.103-67.047,51.45
			c-8.13,30.347,5.138,62.371,32.348,78.076c27.21,15.706,61.576,11.176,83.788-11.043l0,0
			c19.868-19.846,25.815-49.71,15.067-75.653S435.924,355.81,407.843,355.831L407.843,355.831z"/>
		<path style="fill:#428DFF;" d="M407.843,173.559c-47.927,0-86.78-38.853-86.78-86.78S359.915,0,407.843,0
			s86.78,38.853,86.78,86.78C494.567,134.684,455.747,173.505,407.843,173.559z M407.843,17.356
			c-38.342,0-69.424,31.082-69.424,69.424s31.082,69.424,69.424,69.424s69.424-31.082,69.424-69.424
			C477.222,48.456,446.166,17.4,407.843,17.356L407.843,17.356z"/>
		<path style="fill:#428DFF;" d="M173.682,228.754c-3.898,0.002-7.319-2.595-8.365-6.35c-1.046-3.755,0.54-7.747,3.878-9.76
			l164.081-98.822c2.655-1.6,5.962-1.662,8.676-0.163c2.713,1.499,4.421,4.333,4.479,7.432c0.058,3.1-1.542,5.995-4.197,7.595
			l-164.08,98.822C176.804,228.325,175.258,228.756,173.682,228.754L173.682,228.754z"/>
		<path style="fill:#428DFF;" d="M337.745,399.407c-1.586,0-3.142-0.436-4.496-1.263l-164.081-99.593
			c-2.649-1.609-4.239-4.51-4.17-7.608c0.069-3.099,1.786-5.926,4.504-7.415c2.718-1.49,6.025-1.416,8.674,0.193l164.08,99.593
			c3.327,2.021,4.902,6.011,3.851,9.759C345.057,396.821,341.638,399.411,337.745,399.407L337.745,399.407z"/>
	</g>
</g>
<g>
</g>
<g>
</g>
<g>
</g>
<g>
</g>
<g>
</g>
<g>
</g>
<g>
</g>
<g>
</g>
<g>
</g>
<g>
</g>
<g>
</g>
<g>
</g>
<g>
</g>
<g>
</g>
<g>
</g>
</svg>
