<?xml version="1.0" encoding="iso-8859-1"?>
<!-- Generator: Adobe Illustrator 19.0.0, SVG Export Plug-In . SVG Version: 6.00 Build 0)  -->
<svg version="1.1" id="Capa_1" xmlns="http://www.w3.org/2000/svg" xmlns:xlink="http://www.w3.org/1999/xlink" x="0px" y="0px"
	 viewBox="0 0 512 512" style="enable-background:new 0 0 512 512;" xml:space="preserve">
<g>
	<g>
		<path style="fill:#FFFFFF;" d="M293.926,376.983v-4.172c0,1.409,0.155,2.777,0.211,4.172H293.926z"/>
		<path style="fill:#FFFFFF;" d="M367.271,34.964c31.818,2.194,58.438,24.984,65.508,56.085l56.225,230.522
			c-23.275-41.284-71.467-61.675-117.306-49.635c-45.838,12.04-77.789,53.482-77.772,100.875V104.99
			c0-19.155,7.839-37.475,21.693-50.703C329.473,41.06,348.137,34.078,367.271,34.964z"/>
		<path style="fill:#FFFFFF;" d="M218.074,376.983v-4.172c0,1.409-0.155,2.777-0.211,4.172H218.074z"/>
		<path style="fill:#FFFFFF;" d="M144.729,34.964c-31.818,2.194-58.438,24.984-65.508,56.085L22.997,321.571
			c23.275-41.284,71.467-61.675,117.306-49.635s77.789,53.482,77.772,100.875V104.99c0-19.155-7.839-37.475-21.693-50.703
			C182.527,41.06,163.863,34.078,144.729,34.964z"/>
	</g>
	<g>
		<path style="fill:#A4C2F7;" d="M218.074,376.983v-4.172c0,1.409-0.155,2.777-0.211,4.172H218.074z"/>
		<path style="fill:#A4C2F7;" d="M144.729,34.964l-30.951,233.551c57.601,0,104.296,46.695,104.296,104.296V104.989
			c0-19.155-7.839-37.475-21.693-50.702C182.527,41.06,163.863,34.078,144.729,34.964L144.729,34.964z"/>
	</g>
	<g>
		<path style="fill:#E3E7F2;" d="M189.63,376.983v-4.172c0,1.409-0.155,2.777-0.211,4.172H189.63z"/>
		<path style="fill:#E3E7F2;" d="M142.222,34.964c-31.696,1.43-30.408,25.26-37.926,56.085L48.072,321.571
			c17.907-31.653,24.237-53.056,63.199-53.056c57.601,0,78.358,46.695,78.358,104.296V104.99
			C189.63,65.199,182.414,33.151,142.222,34.964z"/>
	</g>
	<path style="fill:#A4C2F7;" d="M432.779,91.05c-7.07-31.101-33.689-53.891-65.508-56.086l30.951,233.551
		c37.619,0.002,72.316,20.28,90.781,53.056L432.779,91.05z"/>
	<g>
		<path style="fill:#E3E7F2;" d="M322.37,376.983v-4.172c0,1.409,0.155,2.777,0.211,4.172H322.37z"/>
		<path style="fill:#E3E7F2;" d="M360.296,34.964c31.696,1.43,36.52,25.26,44.038,56.085l56.225,230.522
			c-18.465-32.776-53.162-53.054-90.781-53.056c-57.601,0-47.407,46.695-47.407,104.296V104.99
			C322.37,65.199,320.105,33.151,360.296,34.964z"/>
	</g>
	<g>
		<circle style="fill:#A4C2F7;" cx="113.778" cy="372.811" r="104.296"/>
		<circle style="fill:#A4C2F7;" cx="398.222" cy="372.811" r="104.296"/>
	</g>
	
		<linearGradient id="SVGID_1_" gradientUnits="userSpaceOnUse" x1="-48.6105" y1="650.4565" x2="-47.8455" y2="649.7958" gradientTransform="matrix(180.1481 0 0 -208.5926 8787.7412 135984.3125)">
		<stop  offset="0" style="stop-color:#D4E1F4"/>
		<stop  offset="0.1717" style="stop-color:#D4E1F4"/>
		<stop  offset="0.2" style="stop-color:#D4E1F4"/>
		<stop  offset="0.2001" style="stop-color:#DAE4F4"/>
		<stop  offset="0.2007" style="stop-color:#EBEBF4"/>
		<stop  offset="0.2014" style="stop-color:#F6F1F4"/>
		<stop  offset="0.2023" style="stop-color:#FDF4F4"/>
		<stop  offset="0.205" style="stop-color:#FFF5F4"/>
		<stop  offset="0.2522" style="stop-color:#FFF5F4"/>
		<stop  offset="0.26" style="stop-color:#FFF5F4"/>
		<stop  offset="0.26" style="stop-color:#D4E1F4"/>
		<stop  offset="0.3974" style="stop-color:#D4E1F4"/>
		<stop  offset="0.42" style="stop-color:#D4E1F4"/>
		<stop  offset="0.4201" style="stop-color:#DAE4F4"/>
		<stop  offset="0.4207" style="stop-color:#EBEBF4"/>
		<stop  offset="0.4214" style="stop-color:#F6F1F4"/>
		<stop  offset="0.4223" style="stop-color:#FDF4F4"/>
		<stop  offset="0.425" style="stop-color:#FFF5F4"/>
		<stop  offset="0.4894" style="stop-color:#FFF5F4"/>
		<stop  offset="0.5" style="stop-color:#FFF5F4"/>
		<stop  offset="0.5" style="stop-color:#F9F2F4"/>
		<stop  offset="0.5001" style="stop-color:#E8EBF4"/>
		<stop  offset="0.5003" style="stop-color:#DDE5F4"/>
		<stop  offset="0.5005" style="stop-color:#D6E2F4"/>
		<stop  offset="0.501" style="stop-color:#D4E1F4"/>
		<stop  offset="0.7062" style="stop-color:#D4E1F4"/>
		<stop  offset="0.74" style="stop-color:#D4E1F4"/>
		<stop  offset="0.741" style="stop-color:#FFF5F4"/>
		<stop  offset="0.8346" style="stop-color:#FFF5F4"/>
		<stop  offset="0.85" style="stop-color:#FFF5F4"/>
		<stop  offset="0.851" style="stop-color:#D4E1F4"/>
	</linearGradient>
	<ellipse style="fill:url(#SVGID_1_);" cx="99.556" cy="372.811" rx="90.074" ry="104.296"/>
	<path style="fill:#FFFFFF;" d="M113.778,477.107c2.576,0,5.102-0.201,7.631-0.384c-46.657-3.924-83.483-48.887-83.483-103.912
		s36.826-99.988,83.483-103.912c-2.529-0.183-5.055-0.384-7.631-0.384c-57.601,0-104.296,46.695-104.296,104.296
		S56.177,477.107,113.778,477.107z"/>
	
		<linearGradient id="SVGID_2_" gradientUnits="userSpaceOnUse" x1="-48.6105" y1="650.4565" x2="-47.8455" y2="649.7958" gradientTransform="matrix(180.1481 0 0 -208.5926 9072.1855 135984.3125)">
		<stop  offset="0" style="stop-color:#D4E1F4"/>
		<stop  offset="0.1717" style="stop-color:#D4E1F4"/>
		<stop  offset="0.2" style="stop-color:#D4E1F4"/>
		<stop  offset="0.2001" style="stop-color:#DAE4F4"/>
		<stop  offset="0.2007" style="stop-color:#EBEBF4"/>
		<stop  offset="0.2014" style="stop-color:#F6F1F4"/>
		<stop  offset="0.2023" style="stop-color:#FDF4F4"/>
		<stop  offset="0.205" style="stop-color:#FFF5F4"/>
		<stop  offset="0.2522" style="stop-color:#FFF5F4"/>
		<stop  offset="0.26" style="stop-color:#FFF5F4"/>
		<stop  offset="0.26" style="stop-color:#D4E1F4"/>
		<stop  offset="0.3974" style="stop-color:#D4E1F4"/>
		<stop  offset="0.42" style="stop-color:#D4E1F4"/>
		<stop  offset="0.4201" style="stop-color:#DAE4F4"/>
		<stop  offset="0.4207" style="stop-color:#EBEBF4"/>
		<stop  offset="0.4214" style="stop-color:#F6F1F4"/>
		<stop  offset="0.4223" style="stop-color:#FDF4F4"/>
		<stop  offset="0.425" style="stop-color:#FFF5F4"/>
		<stop  offset="0.4894" style="stop-color:#FFF5F4"/>
		<stop  offset="0.5" style="stop-color:#FFF5F4"/>
		<stop  offset="0.5" style="stop-color:#F9F2F4"/>
		<stop  offset="0.5001" style="stop-color:#E8EBF4"/>
		<stop  offset="0.5003" style="stop-color:#DDE5F4"/>
		<stop  offset="0.5005" style="stop-color:#D6E2F4"/>
		<stop  offset="0.501" style="stop-color:#D4E1F4"/>
		<stop  offset="0.7062" style="stop-color:#D4E1F4"/>
		<stop  offset="0.74" style="stop-color:#D4E1F4"/>
		<stop  offset="0.741" style="stop-color:#FFF5F4"/>
		<stop  offset="0.8346" style="stop-color:#FFF5F4"/>
		<stop  offset="0.85" style="stop-color:#FFF5F4"/>
		<stop  offset="0.851" style="stop-color:#D4E1F4"/>
	</linearGradient>
	<ellipse style="fill:url(#SVGID_2_);" cx="384" cy="372.811" rx="90.074" ry="104.296"/>
	<path style="fill:#FFFFFF;" d="M398.222,477.107c2.576,0,5.102-0.201,7.631-0.384c-46.657-3.924-83.483-48.887-83.483-103.912
		s36.826-99.988,83.483-103.912c-2.529-0.183-5.055-0.384-7.631-0.384c-57.601,0-104.296,46.695-104.296,104.296
		S340.621,477.107,398.222,477.107z"/>
	<g>
		<path style="fill:#428DFF;" d="M113.778,486.589C50.94,486.589,0,435.649,0,372.811s50.94-113.778,113.778-113.778
			s113.778,50.94,113.778,113.778C227.485,435.62,176.586,486.519,113.778,486.589L113.778,486.589z M113.778,277.996
			c-52.365,0-94.815,42.45-94.815,94.815s42.45,94.815,94.815,94.815s94.815-42.45,94.815-94.815
			C208.533,320.471,166.118,278.056,113.778,277.996z"/>
		<path style="fill:#428DFF;" d="M218.074,386.468h-0.213c-2.581,0.003-5.052-1.048-6.84-2.91c-1.788-1.862-2.739-4.372-2.632-6.951
			l0.111-1.917c0.042-0.621,0.092-1.25,0.092-1.88c0-5.236,4.245-9.481,9.481-9.481c5.236,0,9.481,4.245,9.481,9.481v4.176
			c0.001,2.515-0.998,4.927-2.776,6.705C223.001,385.47,220.589,386.469,218.074,386.468L218.074,386.468z"/>
		<path style="fill:#428DFF;" d="M218.074,382.293c-2.515,0.001-4.927-0.998-6.705-2.776c-1.778-1.778-2.777-4.19-2.776-6.705
			c0.016-43.087-29.032-80.762-70.706-91.706c-41.673-10.944-85.485,7.598-106.642,45.132c-2.331,4.119-7.343,5.888-11.743,4.145
			c-4.4-1.743-6.841-6.463-5.72-11.061L70.009,88.802c8.092-35.177,38.276-60.898,74.292-63.306
			c21.72-1.004,42.904,6.922,58.63,21.937s24.623,35.811,24.624,57.554v267.824c0.001,2.515-0.998,4.927-2.776,6.705
			S220.589,382.293,218.074,382.293L218.074,382.293z M113.778,259.033c38.147,0.011,73.75,19.14,94.815,50.944v-204.99
			c-0.003-16.565-6.784-32.408-18.767-43.845c-11.983-11.437-28.125-17.472-44.672-16.702l0,0c-27.611,2-50.653,21.85-56.718,48.861
			L41.708,284.867C62.026,268.189,87.492,259.061,113.778,259.033L113.778,259.033z"/>
		<path style="fill:#428DFF;" d="M293.926,287.478h-75.852c-2.515,0.001-4.927-0.998-6.705-2.776
			c-1.778-1.778-2.777-4.19-2.776-6.705V154.737c-0.001-2.515,0.998-4.927,2.776-6.705c1.778-1.778,4.19-2.777,6.705-2.776h75.852
			c2.515-0.001,4.927,0.998,6.705,2.776c1.778,1.778,2.777,4.19,2.776,6.705v123.259c0.001,2.515-0.998,4.927-2.776,6.705
			C298.853,286.48,296.441,287.478,293.926,287.478z M227.556,268.515h56.889V164.218h-56.889V268.515z"/>
		<path style="fill:#428DFF;" d="M398.222,486.589c-62.838,0-113.778-50.94-113.778-113.778s50.94-113.778,113.778-113.778
			S512,309.973,512,372.811C511.93,435.62,461.031,486.519,398.222,486.589L398.222,486.589z M398.222,277.996
			c-52.365,0-94.815,42.45-94.815,94.815s42.45,94.815,94.815,94.815s94.815-42.45,94.815-94.815
			C492.977,320.471,450.562,278.056,398.222,277.996z"/>
		<path style="fill:#428DFF;" d="M294.139,386.468c-5.279,0.018-9.595-4.204-9.694-9.481v-4.176c0-5.236,4.245-9.481,9.481-9.481
			s9.481,4.245,9.481,9.481c0,0.63,0.051,1.259,0.093,1.88l0.111,1.917c0.107,2.579-0.844,5.09-2.632,6.951
			S296.72,386.471,294.139,386.468L294.139,386.468z"/>
		<path style="fill:#428DFF;" d="M293.926,382.293c-2.515,0.001-4.927-0.998-6.705-2.776c-1.778-1.778-2.777-4.19-2.776-6.705
			V104.987c0.001-21.743,8.898-42.539,24.624-57.554c15.726-15.015,36.911-22.941,58.63-21.937l0,0
			c36.015,2.409,66.199,28.129,74.292,63.306l56.222,230.519c1.121,4.598-1.32,9.319-5.72,11.061
			c-4.4,1.743-9.412-0.026-11.743-4.145c-21.155-37.535-64.967-56.077-106.64-45.133c-41.673,10.944-70.72,48.621-70.703,91.707
			c0.001,2.515-0.998,4.927-2.776,6.705S296.441,382.293,293.926,382.293L293.926,382.293z M364.005,44.376
			c-33.467,0.013-60.592,27.144-60.597,60.611v204.991c17.745-26.838,46.038-44.892,77.854-49.68s64.169,4.141,89.026,24.569
			L423.565,93.302c-6.064-27.011-29.106-46.861-56.718-48.861l0,0C365.893,44.394,364.949,44.376,364.005,44.376z"/>
	</g>
</g>
<g>
</g>
<g>
</g>
<g>
</g>
<g>
</g>
<g>
</g>
<g>
</g>
<g>
</g>
<g>
</g>
<g>
</g>
<g>
</g>
<g>
</g>
<g>
</g>
<g>
</g>
<g>
</g>
<g>
</g>
</svg>
