<?xml version="1.0" encoding="iso-8859-1"?>
<!-- Generator: Adobe Illustrator 19.0.0, SVG Export Plug-In . SVG Version: 6.00 Build 0)  -->
<svg version="1.1" id="Capa_1" xmlns="http://www.w3.org/2000/svg" xmlns:xlink="http://www.w3.org/1999/xlink" x="0px" y="0px"
	 viewBox="0 0 512 512" style="enable-background:new 0 0 512 512;" xml:space="preserve">
<g>
	<rect x="247.322" y="147.525" style="fill:#A4C2F7;" width="190.915" height="355.797"/>
	<rect x="73.763" y="147.525" style="fill:#FFFFFF;" width="190.915" height="355.797"/>
	<rect x="99.797" y="147.525" style="fill:#E3E7F2;" width="312.407" height="355.797"/>
	<g>
		<path style="fill:#428DFF;" d="M169.042,104.314c-3.509-0.001-6.673-2.115-8.016-5.357s-0.601-6.974,1.88-9.456l86.958-86.958
			C251.492,0.915,253.699,0,256,0c2.301,0,4.509,0.915,6.136,2.542l86.602,86.602c2.192,2.192,3.048,5.387,2.246,8.381
			c-0.802,2.994-3.141,5.333-6.136,6.136c-2.994,0.802-6.189-0.054-8.381-2.246L256,20.949l-80.822,80.822
			C173.553,103.401,171.344,104.316,169.042,104.314z"/>
		<path style="fill:#428DFF;" d="M256,347.119c-2.302,0.001-4.51-0.913-6.138-2.54c-1.628-1.628-2.542-3.836-2.54-6.138V8.678
			C247.322,3.885,251.207,0,256,0c4.793,0,8.678,3.885,8.678,8.678v329.763c0.001,2.302-0.913,4.51-2.54,6.138
			C260.51,346.206,258.302,347.12,256,347.119L256,347.119z"/>
		<path style="fill:#428DFF;" d="M438.237,512H73.763c-2.302,0.001-4.51-0.913-6.138-2.54c-1.628-1.628-2.542-3.836-2.54-6.138
			V147.525c-0.001-2.302,0.913-4.51,2.54-6.138c1.628-1.628,3.836-2.542,6.138-2.54h121.492c4.793,0,8.678,3.885,8.678,8.678
			c0,4.793-3.885,8.678-8.678,8.678H82.441v338.441h347.119V156.203H316.746c-4.793,0-8.678-3.885-8.678-8.678
			c0-4.793,3.885-8.678,8.678-8.678h121.492c2.302-0.001,4.51,0.913,6.138,2.54c1.628,1.628,2.542,3.836,2.54,6.138v355.797
			c0.001,2.302-0.913,4.51-2.54,6.138C442.747,511.087,440.539,512.001,438.237,512z"/>
	</g>
</g>
<g>
</g>
<g>
</g>
<g>
</g>
<g>
</g>
<g>
</g>
<g>
</g>
<g>
</g>
<g>
</g>
<g>
</g>
<g>
</g>
<g>
</g>
<g>
</g>
<g>
</g>
<g>
</g>
<g>
</g>
</svg>
