<?xml version="1.0" encoding="iso-8859-1"?>
<!-- Generator: Adobe Illustrator 19.0.0, SVG Export Plug-In . SVG Version: 6.00 Build 0)  -->
<svg version="1.1" id="Capa_1" xmlns="http://www.w3.org/2000/svg" xmlns:xlink="http://www.w3.org/1999/xlink" x="0px" y="0px"
	 viewBox="0 0 512.004 512.004" style="enable-background:new 0 0 512.004 512.004;" xml:space="preserve">
<g>
	<path style="fill:#A4C2F7;" d="M390.74,225.737V160.71c0,0-95.719-23.162-161.103,86.7c-7.536-54.79,13.946-109.559,56.723-144.614
		c6.267-5.231,13.212-9.593,20.645-12.967h-113.88v413.193H426.67V189.61L390.74,225.737z"/>
	<path style="fill:#ECECEC;" d="M211.091,225.737V160.71c0,0-95.719-23.162-161.103,86.7
		c-7.536-54.79,13.946-109.559,56.723-144.614c6.267-5.231,13.212-9.593,20.645-12.967H13.477v413.193h233.544V189.61
		L211.091,225.737z"/>
	
		<linearGradient id="SVGID_1_" gradientUnits="userSpaceOnUse" x1="-48.8979" y1="652.6354" x2="-47.8229" y2="651.7006" gradientTransform="matrix(359.2982 0 0 -413.193 17595.8887 269767.6563)">
		<stop  offset="0" style="stop-color:#D4E1F4"/>
		<stop  offset="0.1717" style="stop-color:#D4E1F4"/>
		<stop  offset="0.2" style="stop-color:#D4E1F4"/>
		<stop  offset="0.2001" style="stop-color:#DAE4F4"/>
		<stop  offset="0.2007" style="stop-color:#EBEBF4"/>
		<stop  offset="0.2014" style="stop-color:#F6F1F4"/>
		<stop  offset="0.2023" style="stop-color:#FDF4F4"/>
		<stop  offset="0.205" style="stop-color:#FFF5F4"/>
		<stop  offset="0.2522" style="stop-color:#FFF5F4"/>
		<stop  offset="0.26" style="stop-color:#FFF5F4"/>
		<stop  offset="0.26" style="stop-color:#D4E1F4"/>
		<stop  offset="0.3974" style="stop-color:#D4E1F4"/>
		<stop  offset="0.42" style="stop-color:#D4E1F4"/>
		<stop  offset="0.4201" style="stop-color:#DAE4F4"/>
		<stop  offset="0.4207" style="stop-color:#EBEBF4"/>
		<stop  offset="0.4214" style="stop-color:#F6F1F4"/>
		<stop  offset="0.4223" style="stop-color:#FDF4F4"/>
		<stop  offset="0.425" style="stop-color:#FFF5F4"/>
		<stop  offset="0.4894" style="stop-color:#FFF5F4"/>
		<stop  offset="0.5" style="stop-color:#FFF5F4"/>
		<stop  offset="0.5" style="stop-color:#F9F2F4"/>
		<stop  offset="0.5001" style="stop-color:#E8EBF4"/>
		<stop  offset="0.5003" style="stop-color:#DDE5F4"/>
		<stop  offset="0.5005" style="stop-color:#D6E2F4"/>
		<stop  offset="0.501" style="stop-color:#D4E1F4"/>
		<stop  offset="0.7062" style="stop-color:#D4E1F4"/>
		<stop  offset="0.74" style="stop-color:#D4E1F4"/>
		<stop  offset="0.741" style="stop-color:#FFF5F4"/>
		<stop  offset="0.8346" style="stop-color:#FFF5F4"/>
		<stop  offset="0.85" style="stop-color:#FFF5F4"/>
		<stop  offset="0.851" style="stop-color:#D4E1F4"/>
	</linearGradient>
	<polygon style="fill:url(#SVGID_1_);" points="280.058,89.829 40.424,89.829 40.424,503.022 399.723,503.022 399.723,89.829 	"/>
	<path style="fill:#7FACFA;" d="M390.74,74.012V8.987L498.53,117.361L390.74,225.736v-65.025c0,0-95.719-23.163-161.102,86.7
		c-7.536-54.79,13.946-109.559,56.722-144.615C286.36,102.796,319.442,71.864,390.74,74.012z"/>
	<path style="fill:#A4C2F7;" d="M389.299,43.662c-4.373,23.921-14.992,32.482-41.974,37.171c-5.346,0.945-10.639,2.168-15.857,3.662
		c-0.773,0.534-1.623,0.949-2.52,1.231c-2.274,0.601-4.49,1.147-6.726,1.708c-20.936,7.967-38.94,22.138-51.603,40.616
		c-20.611,32.114-34.731,67.955-41.564,105.497c48.219-41.985,104.968-75.971,120.66-73.722c11.541-4.265,24.45-2.478,34.397,4.763
		c6.309,5.448,9.931,13.375,9.921,21.711l68.566-68.939L389.299,43.662z"/>
	<g>
		<path style="fill:#428DFF;" d="M229.635,256.391c-0.517-0.001-1.034-0.045-1.544-0.132c-3.67-0.643-6.562-3.483-7.272-7.14
			c-8.422-58.04,14.289-116.235,59.798-153.228c1.026-0.982,33.325-30.412,101.14-30.956V8.987c-0.003-3.639,2.19-6.92,5.554-8.308
			c3.364-1.388,7.233-0.608,9.797,1.975l107.789,108.377c3.482,3.504,3.482,9.163,0,12.667L397.109,232.066
			c-2.564,2.583-6.433,3.363-9.797,1.975c-3.364-1.388-5.558-4.669-5.554-8.308v-57.43c-22.193-2.719-92.561-3.404-144.404,83.702
			C235.732,254.723,232.8,256.388,229.635,256.391z M383.784,82.89c-61.649,0-91.018,26.219-91.325,26.5
			c-33.395,27.25-53.492,67.519-55.193,110.588c23.131-32.364,56.827-55.646,95.281-65.833c19.693-5.188,40.294-5.925,60.307-2.158
			c4.03,0.975,6.868,4.582,6.868,8.728v43.246l86.14-86.596l-86.14-86.605v43.254c0.001,2.43-0.984,4.756-2.728,6.447
			c-1.759,1.668-4.103,2.578-6.526,2.535C388.205,82.925,385.968,82.89,383.784,82.89z"/>
		<path style="fill:#428DFF;" d="M426.67,512.004H13.477c-2.383,0.001-4.668-0.945-6.353-2.629c-1.685-1.685-2.631-3.97-2.629-6.353
			V89.829c-0.001-2.383,0.945-4.668,2.629-6.353c1.685-1.685,3.97-2.631,6.353-2.629h293.526c4.188,0.001,7.82,2.895,8.755,6.977
			c0.936,4.082-1.073,8.269-4.843,10.093c-6.628,3.025-12.84,6.89-18.483,11.5c-33.381,27.248-53.471,67.505-55.175,110.561
			c23.141-32.36,56.837-55.642,95.289-65.842c19.694-5.178,40.293-5.915,60.307-2.158c4.03,0.975,6.868,4.582,6.868,8.728v43.263
			l20.579-20.693c2.564-2.583,6.433-3.363,9.797-1.975c3.364,1.388,5.558,4.669,5.554,8.308v313.412
			c0.001,2.383-0.945,4.668-2.629,6.353C431.338,511.06,429.053,512.006,426.67,512.004L426.67,512.004z M22.459,494.039h395.228
			V211.382l-20.579,20.693c-2.564,2.583-6.433,3.362-9.797,1.975c-3.364-1.388-5.558-4.669-5.554-8.308v-57.447
			c-22.149-2.702-92.544-3.403-144.404,83.711c-1.906,3.202-5.591,4.895-9.262,4.255c-3.671-0.641-6.565-3.482-7.273-7.141
			c-8.201-56.451,13.07-113.17,56.369-150.307H22.459V494.039z"/>
	</g>
</g>
<g>
</g>
<g>
</g>
<g>
</g>
<g>
</g>
<g>
</g>
<g>
</g>
<g>
</g>
<g>
</g>
<g>
</g>
<g>
</g>
<g>
</g>
<g>
</g>
<g>
</g>
<g>
</g>
<g>
</g>
</svg>
