<?xml version="1.0" encoding="iso-8859-1"?>
<!-- Generator: Adobe Illustrator 19.0.0, SVG Export Plug-In . SVG Version: 6.00 Build 0)  -->
<svg version="1.1" id="Capa_1" xmlns="http://www.w3.org/2000/svg" xmlns:xlink="http://www.w3.org/1999/xlink" x="0px" y="0px"
	 viewBox="0 0 512 512" style="enable-background:new 0 0 512 512;" xml:space="preserve">
<g transform="translate(-1)">
	<g transform="matrix(-1 0 0 -1 96 38)">
		<rect x="-394.97" y="-288.621" style="fill:#FFFFFF;" width="123.586" height="317.793"/>
		<rect x="-368.487" y="-288.621" style="fill:#A4C2F7;" width="70.621" height="317.793"/>
	</g>
	<rect x="464.487" y="8.828" style="fill:#7FACFA;" width="26.483" height="317.793"/>
	<circle style="fill:#A4C2F7;" cx="429.177" cy="88.276" r="35.31"/>
	<path style="fill:#E3E7F2;" d="M411.473,54.198c-0.877,4.11-4.579,6.996-8.779,6.844v51.67c2.423,0.142,4.686,1.258,6.274,3.093
		c1.588,1.836,2.366,4.236,2.158,6.654c15.707-3.809,26.796-17.834,26.878-33.996S427.141,58.166,411.473,54.198L411.473,54.198z"/>
	<path style="fill:#FFFFFF;" d="M31.936,273.655c0,9.365,3.72,18.346,10.342,24.968s15.604,10.342,24.968,10.342h137.731
		l-8.719,40.772c-5.592,31.616-5.903,63.94-0.921,95.657c3.954,26.636,27.806,57.778,52.761,57.778h2.111
		c21.275,0,28.9-23.471,28.9-52.966c0-143.448,70.621-141.241,70.621-141.241h17.655V26.483h-256
		c-19.501,0-35.31,15.809-35.31,35.31s15.809,35.31,35.31,35.31H84.901c-19.501,0-35.31,15.809-35.31,35.31
		s15.809,35.31,35.31,35.31H58.418c-19.501,0-35.31,15.809-35.31,35.31c0,22.01,14.24,30.386,35.31,33.511
		c11.727,1.265,23.516,1.866,35.31,1.799H67.246C47.745,238.345,31.936,254.154,31.936,273.655z"/>
	<path style="fill:#E3E7F2;" d="M58.418,273.655c0,9.365,3.72,18.346,10.342,24.968s15.604,10.342,24.968,10.342h137.731
		l-8.719,40.772c-5.592,31.616-5.903,63.94-0.921,95.657c3.954,26.636,14.679,48.95,39.634,48.95h2.111
		c21.275,0,6.717-14.643,6.717-44.138c0-143.448,79.448-141.241,79.448-141.241h17.655V26.483H137.867
		c-19.501,0-35.31,15.809-35.31,35.31s15.809,35.31,35.31,35.31h-26.483c-19.501,0-35.31,15.809-35.31,35.31
		s15.809,35.31,35.31,35.31H84.901c-19.501,0-35.31,15.809-35.31,35.31c0,22.01,14.24,30.386,35.31,33.511
		c11.727,1.265,23.516,1.866,35.31,1.799H93.729C74.227,238.345,58.418,254.154,58.418,273.655z"/>
	<g>
		<path style="fill:#428DFF;" d="M490.97,335.448H367.384c-2.341,0.001-4.587-0.929-6.243-2.585
			c-1.656-1.656-2.585-3.901-2.585-6.243V8.828c-0.001-2.341,0.929-4.587,2.585-6.243c1.656-1.656,3.901-2.585,6.243-2.585H490.97
			c2.341-0.001,4.587,0.929,6.243,2.585c1.656,1.656,2.585,3.901,2.585,6.243v317.793c0.001,2.341-0.929,4.587-2.585,6.243
			C495.557,334.519,493.311,335.449,490.97,335.448L490.97,335.448z M376.211,317.793h105.931V17.655H376.211V317.793z"/>
		<path style="fill:#428DFF;" d="M429.177,132.414c-24.377,0-44.138-19.761-44.138-44.138s19.761-44.138,44.138-44.138
			s44.138,19.761,44.138,44.138C473.286,112.641,453.542,132.385,429.177,132.414L429.177,132.414z M429.177,61.793
			c-14.626,0-26.483,11.857-26.483,26.483s11.857,26.483,26.483,26.483s26.483-11.857,26.483-26.483
			C455.644,73.656,443.796,61.809,429.177,61.793z"/>
		<path style="fill:#428DFF;" d="M155.522,247.172H84.901c-4.875,0-8.828-3.952-8.828-8.828s3.952-8.828,8.828-8.828h70.621
			c4.875,0,8.828,3.952,8.828,8.828S160.397,247.172,155.522,247.172z"/>
		<path style="fill:#428DFF;" d="M155.522,176.552H84.901c-4.875,0-8.828-3.952-8.828-8.828s3.952-8.828,8.828-8.828h70.621
			c4.875,0,8.828,3.952,8.828,8.828S160.397,176.552,155.522,176.552z"/>
		<path style="fill:#428DFF;" d="M173.177,105.931h-70.621c-4.875,0-8.828-3.952-8.828-8.828s3.952-8.828,8.828-8.828h70.621
			c4.875,0,8.828,3.952,8.828,8.828S178.052,105.931,173.177,105.931z"/>
		<path style="fill:#428DFF;" d="M250.207,512h-2.108c-29.651,0-56.922-34.483-61.496-65.31
			c-5.009-32.769-4.664-66.134,1.022-98.793l6.44-30.103H67.246c-18.402,0.007-34.875-11.408-41.332-28.639
			s-1.542-36.661,12.332-48.749c-15.308-5.867-25.02-21.011-23.965-37.371c0.026-21.2,15.098-39.397,35.922-43.371
			c-9.53-12.117-12.043-28.329-6.631-42.762c5.413-14.434,17.967-24.995,33.114-27.858C66.24,75.762,64.298,57.682,71.684,42.486
			s22.803-24.839,39.699-24.831h256c2.341-0.001,4.587,0.929,6.243,2.585c1.656,1.656,2.585,3.901,2.585,6.243v282.483
			c0.001,2.341-0.929,4.587-2.585,6.243c-1.656,1.656-3.901,2.585-6.243,2.585h-17.655c-11.214,1.055-21.645,6.209-29.297,14.474
			c-14.823,14.707-32.496,47.112-32.496,117.94C287.936,503.974,264.298,512,250.207,512z M67.246,247.172
			c-14.626,0-26.483,11.857-26.483,26.483c0,14.626,11.857,26.483,26.483,26.483h137.733c2.665,0.001,5.187,1.205,6.863,3.277
			c1.676,2.072,2.327,4.79,1.771,7.396l-8.72,40.776c-5.262,30.593-5.541,61.836-0.823,92.517
			c3.354,22.612,24.332,50.241,44.03,50.241h2.108c17.466,0,20.073-27.655,20.073-44.138c0-62.328,12.918-106.448,38.392-131.138
			c10.831-11.389,25.634-18.165,41.332-18.922l8.552-0.009V35.31H111.384c-14.626,0-26.483,11.857-26.483,26.483
			s11.857,26.483,26.483,26.483c4.875,0,8.828,3.952,8.828,8.828s-3.952,8.828-8.828,8.828H84.901
			c-14.626,0-26.483,11.857-26.483,26.483c0,14.626,11.857,26.483,26.483,26.483c4.875,0,8.828,3.952,8.828,8.828
			s-3.952,8.828-8.828,8.828H58.418c-14.619,0.016-26.467,11.863-26.483,26.483c0,12.405,4.724,21.362,27.776,24.776
			c11.298,1.212,22.655,1.782,34.017,1.707c4.875,0,8.828,3.952,8.828,8.828s-3.952,8.828-8.828,8.828H67.246z"/>
	</g>
</g>
<g>
</g>
<g>
</g>
<g>
</g>
<g>
</g>
<g>
</g>
<g>
</g>
<g>
</g>
<g>
</g>
<g>
</g>
<g>
</g>
<g>
</g>
<g>
</g>
<g>
</g>
<g>
</g>
<g>
</g>
</svg>
