<?xml version="1.0" encoding="iso-8859-1"?>
<!-- Generator: Adobe Illustrator 19.0.0, SVG Export Plug-In . SVG Version: 6.00 Build 0)  -->
<svg version="1.1" id="Capa_1" xmlns="http://www.w3.org/2000/svg" xmlns:xlink="http://www.w3.org/1999/xlink" x="0px" y="0px"
	 viewBox="0 0 512.026 512.026" style="enable-background:new 0 0 512.026 512.026;" xml:space="preserve">
<g transform="translate(0 -1)">
	<circle style="fill:#A4C2F7;" cx="255.983" cy="183.263" r="52.068"/>
	<ellipse style="fill:#E3E7F2;" cx="242.879" cy="183.263" rx="39.051" ry="52.068"/>
	<path style="fill:#FFFFFF;" d="M255.896,235.331c2.512-0.02,5.019-0.221,7.502-0.602c-18.892-3.646-33.422-25.265-33.422-51.466
		s14.531-47.822,33.425-51.466c-19.293-2.822-38.546,5.378-49.879,21.245s-12.846,36.738-3.92,54.073
		C218.529,224.45,236.398,235.341,255.896,235.331L255.896,235.331z"/>
	<g>
		<path style="fill:#428DFF;" d="M84.193,362.009c-2.302,0.003-4.51-0.912-6.135-2.543c-98.119-98.345-98.119-257.553,0-355.898
			c2.189-2.208,5.392-3.076,8.396-2.275c3.004,0.8,5.35,3.147,6.151,6.151s-0.068,6.207-2.275,8.396
			c-91.356,91.562-91.356,239.794,0,331.356c2.481,2.482,3.223,6.214,1.88,9.456C90.866,359.893,87.702,362.008,84.193,362.009
			L84.193,362.009z"/>
		<path style="fill:#428DFF;" d="M427.82,362.009c-3.509-0.001-6.673-2.115-8.016-5.357c-1.343-3.242-0.601-6.974,1.88-9.456
			c91.356-91.562,91.356-239.794,0-331.356c-3.369-3.392-3.36-8.87,0.02-12.25c3.38-3.381,8.859-3.39,12.251-0.021
			c98.136,98.338,98.136,257.561,0,355.898C432.33,361.097,430.122,362.012,427.82,362.009L427.82,362.009z"/>
		<path style="fill:#428DFF;" d="M121.015,325.195c-2.302,0.003-4.51-0.912-6.135-2.543c-77.822-77.999-77.822-204.272,0-282.271
			c3.389-3.389,8.883-3.389,12.271,0c3.389,3.389,3.389,8.883,0,12.271c-71.051,71.219-71.051,186.51,0,257.729
			c2.481,2.482,3.223,6.214,1.88,9.456C127.688,323.08,124.524,325.194,121.015,325.195L121.015,325.195z"/>
		<path style="fill:#428DFF;" d="M391.006,325.195c-3.509-0.001-6.673-2.115-8.016-5.357c-1.343-3.242-0.601-6.974,1.88-9.456
			c71.051-71.219,71.051-186.51,0-257.729c-3.389-3.389-3.389-8.883,0-12.271c3.389-3.389,8.883-3.389,12.271,0
			c77.822,77.999,77.822,204.272,0,282.271C395.517,324.283,393.309,325.198,391.006,325.195L391.006,325.195z"/>
		<path style="fill:#428DFF;" d="M157.828,288.373c-2.302,0.003-4.51-0.912-6.135-2.543c-57.525-57.646-57.525-150.981,0-208.627
			c2.192-2.192,5.387-3.048,8.381-2.246c2.994,0.802,5.333,3.141,6.136,6.136c0.802,2.994-0.054,6.189-2.246,8.381
			c-50.754,50.866-50.754,133.218,0,184.085c2.481,2.482,3.223,6.214,1.88,9.456C164.502,286.258,161.338,288.372,157.828,288.373
			L157.828,288.373z"/>
		<path style="fill:#428DFF;" d="M354.193,288.373c-3.509-0.001-6.673-2.115-8.016-5.357c-1.343-3.242-0.601-6.974,1.88-9.456
			c50.754-50.866,50.754-133.218,0-184.085c-3.389-3.389-3.389-8.883,0-12.271c3.389-3.389,8.883-3.389,12.271,0
			c57.525,57.646,57.525,150.981,0,208.627C358.703,287.461,356.495,288.376,354.193,288.373L354.193,288.373z"/>
		<path style="fill:#428DFF;" d="M256.006,244.009c-24.569,0-46.719-14.8-56.122-37.499c-9.402-22.699-4.205-48.827,13.168-66.2
			c17.373-17.373,43.501-22.57,66.2-13.168c22.699,9.402,37.499,31.552,37.499,56.122
			C316.712,216.795,289.539,243.968,256.006,244.009z M256.006,139.873c-23.964,0-43.39,19.426-43.39,43.39
			s19.426,43.39,43.39,43.39c23.964,0,43.39-19.426,43.39-43.39C299.368,159.311,279.958,139.901,256.006,139.873L256.006,139.873z"
			/>
		<path style="fill:#428DFF;" d="M256.006,513.026c-2.302,0.001-4.51-0.913-6.138-2.54c-1.628-1.628-2.542-3.836-2.54-6.138V235.331
			c0-4.793,3.885-8.678,8.678-8.678c4.793,0,8.678,3.885,8.678,8.678v269.017c0.001,2.302-0.913,4.51-2.54,6.138
			C260.516,512.113,258.308,513.027,256.006,513.026z"/>
	</g>
</g>
<g>
</g>
<g>
</g>
<g>
</g>
<g>
</g>
<g>
</g>
<g>
</g>
<g>
</g>
<g>
</g>
<g>
</g>
<g>
</g>
<g>
</g>
<g>
</g>
<g>
</g>
<g>
</g>
<g>
</g>
</svg>
