<?xml version="1.0" encoding="iso-8859-1"?>
<!-- Generator: Adobe Illustrator 19.0.0, SVG Export Plug-In . SVG Version: 6.00 Build 0)  -->
<svg version="1.1" id="Capa_1" xmlns="http://www.w3.org/2000/svg" xmlns:xlink="http://www.w3.org/1999/xlink" x="0px" y="0px"
	 viewBox="0 0 512 512" style="enable-background:new 0 0 512 512;" xml:space="preserve">
<g>
	
		<linearGradient id="SVGID_1_" gradientUnits="userSpaceOnUse" x1="-48.7773" y1="652.3907" x2="-47.842" y2="651.5035" gradientTransform="matrix(250.9266 0 0 -264.5334 12498.9443 172840.2031)">
		<stop  offset="0" style="stop-color:#D4E1F4"/>
		<stop  offset="0.1717" style="stop-color:#D4E1F4"/>
		<stop  offset="0.2" style="stop-color:#D4E1F4"/>
		<stop  offset="0.2001" style="stop-color:#DAE4F4"/>
		<stop  offset="0.2007" style="stop-color:#EBEBF4"/>
		<stop  offset="0.2014" style="stop-color:#F6F1F4"/>
		<stop  offset="0.2023" style="stop-color:#FDF4F4"/>
		<stop  offset="0.205" style="stop-color:#FFF5F4"/>
		<stop  offset="0.2522" style="stop-color:#FFF5F4"/>
		<stop  offset="0.26" style="stop-color:#FFF5F4"/>
		<stop  offset="0.26" style="stop-color:#D4E1F4"/>
		<stop  offset="0.3974" style="stop-color:#D4E1F4"/>
		<stop  offset="0.42" style="stop-color:#D4E1F4"/>
		<stop  offset="0.4201" style="stop-color:#DAE4F4"/>
		<stop  offset="0.4207" style="stop-color:#EBEBF4"/>
		<stop  offset="0.4214" style="stop-color:#F6F1F4"/>
		<stop  offset="0.4223" style="stop-color:#FDF4F4"/>
		<stop  offset="0.425" style="stop-color:#FFF5F4"/>
		<stop  offset="0.4894" style="stop-color:#FFF5F4"/>
		<stop  offset="0.5" style="stop-color:#FFF5F4"/>
		<stop  offset="0.5" style="stop-color:#F9F2F4"/>
		<stop  offset="0.5001" style="stop-color:#E8EBF4"/>
		<stop  offset="0.5003" style="stop-color:#DDE5F4"/>
		<stop  offset="0.5005" style="stop-color:#D6E2F4"/>
		<stop  offset="0.501" style="stop-color:#D4E1F4"/>
		<stop  offset="0.7062" style="stop-color:#D4E1F4"/>
		<stop  offset="0.74" style="stop-color:#D4E1F4"/>
		<stop  offset="0.741" style="stop-color:#FFF5F4"/>
		<stop  offset="0.8346" style="stop-color:#FFF5F4"/>
		<stop  offset="0.85" style="stop-color:#FFF5F4"/>
		<stop  offset="0.851" style="stop-color:#D4E1F4"/>
	</linearGradient>
	<path style="fill:url(#SVGID_1_);" d="M474.407,238.933H281.6v235.473c0,7.707-3.061,15.099-8.511,20.549
		c-5.45,5.45-12.841,8.512-20.549,8.512h221.867c7.707,0,15.099-3.062,20.549-8.512s8.511-12.841,8.511-20.549V267.992
		C503.466,251.943,490.456,238.933,474.407,238.933z"/>
	<path style="fill:#A4C2F7;" d="M162.133,8.533h98.944c16.047,0,29.056,13.009,29.056,29.056v436.821
		c0,16.047-13.009,29.056-29.056,29.056h-98.944c-16.047,0-29.056-13.009-29.056-29.056V37.589
		C133.077,21.542,146.086,8.533,162.133,8.533z"/>
	<path style="fill:#FFFFFF;" d="M37.589,8.533h98.944c16.047,0,29.056,13.009,29.056,29.056v436.821
		c0,16.047-13.009,29.056-29.056,29.056H37.589c-16.047,0-29.056-13.009-29.056-29.056V37.589
		C8.533,21.542,21.542,8.533,37.589,8.533z"/>
	<path style="fill:#E3E7F2;" d="M63.189,8.533h163.755C242.991,8.533,256,21.542,256,37.589v436.821
		c0,16.047-13.009,29.056-29.056,29.056H63.189c-16.047,0-29.056-13.009-29.056-29.056V37.589
		C34.133,21.542,47.142,8.533,63.189,8.533z"/>
	<rect x="124.544" y="59.733" style="fill:#A4C2F7;" width="157.056" height="341.333"/>
	
		<linearGradient id="SVGID_2_" gradientUnits="userSpaceOnUse" x1="-48.7357" y1="652.5258" x2="-47.8004" y2="651.6387" gradientTransform="matrix(221.8667 0 0 -341.3333 10856.6006 222811.4063)">
		<stop  offset="0" style="stop-color:#D4E1F4"/>
		<stop  offset="0.1717" style="stop-color:#D4E1F4"/>
		<stop  offset="0.2" style="stop-color:#D4E1F4"/>
		<stop  offset="0.2001" style="stop-color:#DAE4F4"/>
		<stop  offset="0.2007" style="stop-color:#EBEBF4"/>
		<stop  offset="0.2014" style="stop-color:#F6F1F4"/>
		<stop  offset="0.2023" style="stop-color:#FDF4F4"/>
		<stop  offset="0.205" style="stop-color:#FFF5F4"/>
		<stop  offset="0.2522" style="stop-color:#FFF5F4"/>
		<stop  offset="0.26" style="stop-color:#FFF5F4"/>
		<stop  offset="0.26" style="stop-color:#D4E1F4"/>
		<stop  offset="0.3974" style="stop-color:#D4E1F4"/>
		<stop  offset="0.42" style="stop-color:#D4E1F4"/>
		<stop  offset="0.4201" style="stop-color:#DAE4F4"/>
		<stop  offset="0.4207" style="stop-color:#EBEBF4"/>
		<stop  offset="0.4214" style="stop-color:#F6F1F4"/>
		<stop  offset="0.4223" style="stop-color:#FDF4F4"/>
		<stop  offset="0.425" style="stop-color:#FFF5F4"/>
		<stop  offset="0.4894" style="stop-color:#FFF5F4"/>
		<stop  offset="0.5" style="stop-color:#FFF5F4"/>
		<stop  offset="0.5" style="stop-color:#F9F2F4"/>
		<stop  offset="0.5001" style="stop-color:#E8EBF4"/>
		<stop  offset="0.5003" style="stop-color:#DDE5F4"/>
		<stop  offset="0.5005" style="stop-color:#D6E2F4"/>
		<stop  offset="0.501" style="stop-color:#D4E1F4"/>
		<stop  offset="0.7062" style="stop-color:#D4E1F4"/>
		<stop  offset="0.74" style="stop-color:#D4E1F4"/>
		<stop  offset="0.741" style="stop-color:#FFF5F4"/>
		<stop  offset="0.8346" style="stop-color:#FFF5F4"/>
		<stop  offset="0.85" style="stop-color:#FFF5F4"/>
		<stop  offset="0.851" style="stop-color:#D4E1F4"/>
	</linearGradient>
	<rect x="34.133" y="59.733" style="fill:url(#SVGID_2_);" width="221.867" height="341.333"/>
	<circle style="fill:#A4C2F7;" cx="145.067" cy="452.267" r="25.6"/>
	<g>
		<path style="fill:#428DFF;" d="M252.542,512H37.592C16.84,511.976,0.024,495.16,0,474.408V37.592
			C0.024,16.84,16.84,0.024,37.592,0h214.95c20.751,0.024,37.567,16.84,37.592,37.592v436.817
			C290.109,495.16,273.293,511.976,252.542,512z M37.592,17.067c-11.33,0.013-20.512,9.195-20.525,20.525v436.817
			c0.013,11.33,9.195,20.512,20.525,20.525h214.95c11.33-0.013,20.512-9.195,20.525-20.525V37.592
			c-0.013-11.33-9.195-20.512-20.525-20.525H37.592z"/>
		<path style="fill:#428DFF;" d="M145.067,486.4c-18.851,0-34.133-15.282-34.133-34.133c0-18.851,15.282-34.133,34.133-34.133
			s34.133,15.282,34.133,34.133C179.18,471.11,163.91,486.38,145.067,486.4L145.067,486.4z M145.067,435.2
			c-9.426,0-17.067,7.641-17.067,17.067s7.641,17.067,17.067,17.067s17.067-7.641,17.067-17.067
			C162.123,442.845,154.488,435.211,145.067,435.2z"/>
		<path style="fill:#428DFF;" d="M281.6,409.6H8.533C3.821,409.6,0,405.78,0,401.067s3.821-8.533,8.533-8.533H281.6
			c4.713,0,8.533,3.82,8.533,8.533S286.313,409.6,281.6,409.6z"/>
		<path style="fill:#428DFF;" d="M281.6,68.267H8.533C3.821,68.267,0,64.446,0,59.733S3.821,51.2,8.533,51.2H281.6
			c4.713,0,8.533,3.821,8.533,8.533S286.313,68.267,281.6,68.267z"/>
		<path style="fill:#428DFF;" d="M145.067,42.667h-34.133c-4.713,0-8.533-3.821-8.533-8.533s3.821-8.533,8.533-8.533h34.133
			c4.713,0,8.533,3.821,8.533,8.533S149.779,42.667,145.067,42.667z"/>
		<path style="fill:#428DFF;" d="M179.2,42.667h-8.533c-4.713,0-8.533-3.821-8.533-8.533s3.821-8.533,8.533-8.533h8.533
			c4.713,0,8.533,3.821,8.533,8.533S183.913,42.667,179.2,42.667z"/>
		<path style="fill:#428DFF;" d="M452.267,494.933c-2.263,0.001-4.434-0.898-6.035-2.499c-1.6-1.6-2.499-3.771-2.499-6.035V264.533
			c0-4.713,3.82-8.533,8.533-8.533s8.533,3.821,8.533,8.533V486.4c0.001,2.263-0.898,4.434-2.499,6.035
			C456.701,494.035,454.53,494.934,452.267,494.933L452.267,494.933z"/>
		<path style="fill:#428DFF;" d="M474.408,512H252.542c-4.713,0-8.533-3.82-8.533-8.533c0-4.713,3.821-8.533,8.533-8.533
			c11.33-0.013,20.512-9.195,20.525-20.525V238.933c-0.001-2.263,0.898-4.434,2.499-6.035c1.6-1.6,3.771-2.499,6.035-2.499h192.808
			c20.751,0.024,37.567,16.84,37.592,37.592v206.417C511.976,495.16,495.16,511.976,474.408,512L474.408,512z M284.021,494.933
			h190.387c11.33-0.013,20.512-9.195,20.525-20.525V267.992c-0.013-11.33-9.195-20.512-20.525-20.525H290.133v226.942
			C290.143,481.7,288.018,488.835,284.021,494.933L284.021,494.933z"/>
		<path style="fill:#428DFF;" d="M443.733,136.533c-2.263,0.001-4.434-0.898-6.035-2.499c-1.6-1.6-2.499-3.771-2.499-6.035
			c-0.059-51.817-42.05-93.808-93.867-93.867c-4.713,0-8.533-3.821-8.533-8.533s3.82-8.533,8.533-8.533
			C402.571,17.136,452.197,66.762,452.267,128c0.001,2.263-0.898,4.434-2.499,6.035
			C448.168,135.635,445.997,136.534,443.733,136.533z"/>
		<path style="fill:#428DFF;" d="M443.733,179.2c-2.264,0.003-4.435-0.897-6.033-2.5l-51.2-51.2
			c-3.281-3.341-3.256-8.701,0.054-12.012s8.671-3.335,12.012-0.054l51.2,51.2c2.44,2.44,3.169,6.11,1.849,9.298
			C450.295,177.12,447.184,179.199,443.733,179.2z"/>
		<path style="fill:#428DFF;" d="M443.733,179.2c-3.451-0.001-6.562-2.08-7.882-5.268c-1.32-3.188-0.591-6.858,1.849-9.298
			l51.2-51.2c2.149-2.188,5.307-3.055,8.271-2.27c2.965,0.785,5.28,3.1,6.065,6.065c0.785,2.965-0.082,6.122-2.27,8.271l-51.2,51.2
			C448.168,178.303,445.997,179.203,443.733,179.2L443.733,179.2z"/>
		<path style="fill:#428DFF;" d="M443.733,179.2c-2.263,0.001-4.434-0.898-6.035-2.499c-1.6-1.6-2.499-3.771-2.499-6.035V128
			c0-4.713,3.821-8.533,8.533-8.533c4.713,0,8.533,3.821,8.533,8.533v42.667c0.001,2.263-0.898,4.434-2.499,6.035
			C448.168,178.302,445.997,179.201,443.733,179.2L443.733,179.2z"/>
	</g>
</g>
<g>
</g>
<g>
</g>
<g>
</g>
<g>
</g>
<g>
</g>
<g>
</g>
<g>
</g>
<g>
</g>
<g>
</g>
<g>
</g>
<g>
</g>
<g>
</g>
<g>
</g>
<g>
</g>
<g>
</g>
</svg>
