<?xml version="1.0" encoding="iso-8859-1"?>
<!-- Generator: Adobe Illustrator 19.0.0, SVG Export Plug-In . SVG Version: 6.00 Build 0)  -->
<svg version="1.1" id="Capa_1" xmlns="http://www.w3.org/2000/svg" xmlns:xlink="http://www.w3.org/1999/xlink" x="0px" y="0px"
	 viewBox="0 0 512 512" style="enable-background:new 0 0 512 512;" xml:space="preserve">
<g>
	<path style="fill:#FFFFFF;" d="M32.998,83.782C39.805,42.248,137.024,9.309,256,9.309v493.382
		c-118.975,0-216.194-32.941-223.002-74.473h-0.416V83.782H32.998z"/>
	<path style="fill:#7FACFA;" d="M479.002,83.782C472.195,42.248,374.976,9.309,256,9.309v493.382
		c118.975,0,216.194-32.941,223.002-74.473h0.416V83.782H479.002z"/>
	<g>
		<path style="fill:#A4C2F7;" d="M451.075,83.782L451.075,83.782c-6.807-41.534-48.172-74.473-167.148-74.473
			S67.732,42.248,60.925,83.782h-0.416v344.436h0.416c6.808,41.532,104.027,74.473,223.002,74.473s160.34-32.941,167.148-74.473
			h0.416V83.782H451.075z"/>
		<ellipse style="fill:#A4C2F7;" cx="269.964" cy="93.091" rx="209.455" ry="83.782"/>
	</g>
	<ellipse style="fill:#FFFFFF;" cx="242.036" cy="93.091" rx="209.455" ry="83.782"/>
	
		<linearGradient id="SVGID_1_" gradientUnits="userSpaceOnUse" x1="-48.6467" y1="652.3052" x2="-48.1026" y2="651.0356" gradientTransform="matrix(390.9818 0 0 -167.5636 19169.6211 109289.3594)">
		<stop  offset="0" style="stop-color:#D4E1F4"/>
		<stop  offset="0.1717" style="stop-color:#D4E1F4"/>
		<stop  offset="0.2" style="stop-color:#D4E1F4"/>
		<stop  offset="0.2001" style="stop-color:#DAE4F4"/>
		<stop  offset="0.2007" style="stop-color:#EBEBF4"/>
		<stop  offset="0.2014" style="stop-color:#F6F1F4"/>
		<stop  offset="0.2023" style="stop-color:#FDF4F4"/>
		<stop  offset="0.205" style="stop-color:#FFF5F4"/>
		<stop  offset="0.2522" style="stop-color:#FFF5F4"/>
		<stop  offset="0.26" style="stop-color:#FFF5F4"/>
		<stop  offset="0.26" style="stop-color:#D4E1F4"/>
		<stop  offset="0.3974" style="stop-color:#D4E1F4"/>
		<stop  offset="0.42" style="stop-color:#D4E1F4"/>
		<stop  offset="0.4201" style="stop-color:#DAE4F4"/>
		<stop  offset="0.4207" style="stop-color:#EBEBF4"/>
		<stop  offset="0.4214" style="stop-color:#F6F1F4"/>
		<stop  offset="0.4223" style="stop-color:#FDF4F4"/>
		<stop  offset="0.425" style="stop-color:#FFF5F4"/>
		<stop  offset="0.4894" style="stop-color:#FFF5F4"/>
		<stop  offset="0.5" style="stop-color:#FFF5F4"/>
		<stop  offset="0.5" style="stop-color:#F9F2F4"/>
		<stop  offset="0.5001" style="stop-color:#E8EBF4"/>
		<stop  offset="0.5003" style="stop-color:#DDE5F4"/>
		<stop  offset="0.5005" style="stop-color:#D6E2F4"/>
		<stop  offset="0.501" style="stop-color:#D4E1F4"/>
		<stop  offset="0.7062" style="stop-color:#D4E1F4"/>
		<stop  offset="0.74" style="stop-color:#D4E1F4"/>
		<stop  offset="0.741" style="stop-color:#FFF5F4"/>
		<stop  offset="0.8346" style="stop-color:#FFF5F4"/>
		<stop  offset="0.85" style="stop-color:#FFF5F4"/>
		<stop  offset="0.851" style="stop-color:#D4E1F4"/>
	</linearGradient>
	<ellipse style="fill:url(#SVGID_1_);" cx="256" cy="93.091" rx="195.491" ry="83.782"/>
	<g>
		<path style="fill:#428DFF;" d="M256,512c-122.282,0-220.645-34.018-231.636-79.582c-0.711-1.286-1.087-2.731-1.091-4.2V83.782
			c-0.004-1.578,0.396-3.13,1.164-4.509C35.782,33.873,133.982,0,256,0s220.218,33.873,231.564,79.273
			c0.767,1.379,1.168,2.931,1.164,4.509v344.436c0.004,1.578-0.396,3.13-1.164,4.509C476.209,478.127,378.009,512,256,512z
			 M41.891,425.491c0.129,0.398,0.229,0.806,0.3,1.218c5.273,32.2,92.455,66.673,213.809,66.673s208.536-34.473,213.809-66.673
			c0.072-0.424,0.172-0.844,0.3-1.255V86.509c-0.129-0.402-0.229-0.812-0.3-1.227C464.545,53.091,377.373,18.618,256,18.618
			S47.455,53.091,42.191,85.282c-0.071,0.428-0.171,0.85-0.3,1.264V425.491z"/>
		<path style="fill:#428DFF;" d="M256,418.909c-122.282,0-220.645-34.018-231.636-79.582c-0.711-1.286-1.087-2.73-1.091-4.2V214.109
			c0-5.141,4.168-9.309,9.309-9.309s9.309,4.168,9.309,9.309c0,35.155,91.564,74.473,214.109,74.473s214.109-39.318,214.109-74.473
			c0-5.141,4.168-9.309,9.309-9.309c5.141,0,9.309,4.168,9.309,9.309v121.018c0.004,1.578-0.396,3.13-1.164,4.509
			C476.209,385.036,378.009,418.909,256,418.909z M41.891,332.4c0.129,0.398,0.229,0.806,0.3,1.218
			c5.273,32.2,92.455,66.673,213.809,66.673s208.536-34.473,213.809-66.673c0.072-0.424,0.172-0.844,0.3-1.255v-81.772
			C434.564,283.836,351.973,307.2,256,307.2S77.436,283.836,41.891,250.591V332.4z"/>
		<path style="fill:#428DFF;" d="M256,307.2c-122.282,0-220.645-34.018-231.636-79.582c-0.711-1.286-1.087-2.73-1.091-4.2V102.4
			c0-5.141,4.168-9.309,9.309-9.309s9.309,4.168,9.309,9.309c0,35.155,91.564,74.473,214.109,74.473s214.109-39.318,214.109-74.473
			c0-5.141,4.168-9.309,9.309-9.309c5.141,0,9.309,4.168,9.309,9.309v121.018c0.004,1.578-0.396,3.13-1.164,4.509
			C476.209,273.327,378.009,307.2,256,307.2z M41.891,220.691c0.129,0.398,0.229,0.806,0.3,1.218
			c5.273,32.2,92.455,66.673,213.809,66.673s208.536-34.473,213.809-66.673c0.072-0.424,0.172-0.844,0.3-1.255v-81.772
			C434.564,172.127,351.973,195.491,256,195.491S77.436,172.127,41.891,138.882V220.691z"/>
	</g>
</g>
<g>
</g>
<g>
</g>
<g>
</g>
<g>
</g>
<g>
</g>
<g>
</g>
<g>
</g>
<g>
</g>
<g>
</g>
<g>
</g>
<g>
</g>
<g>
</g>
<g>
</g>
<g>
</g>
<g>
</g>
</svg>
