<?xml version="1.0" encoding="iso-8859-1"?>
<!-- Generator: Adobe Illustrator 19.0.0, SVG Export Plug-In . SVG Version: 6.00 Build 0)  -->
<svg version="1.1" id="Capa_1" xmlns="http://www.w3.org/2000/svg" xmlns:xlink="http://www.w3.org/1999/xlink" x="0px" y="0px"
	 viewBox="0 0 512 512" style="enable-background:new 0 0 512 512;" xml:space="preserve">
<g>
	<path style="fill:#7FACFA;" d="M418.133,136.521v102.412c48.606-12.39,81.263-32.137,84.952-54.642h0.381V77.625
		C503.467,101.888,469.794,123.354,418.133,136.521z"/>
	<path style="fill:#A4C2F7;" d="M418.133,145.067v97.308c48.606-12.39,55.663-9.979,59.352-32.483h0.381V103.225
		C477.867,127.488,469.794,131.9,418.133,145.067z"/>
	<path style="fill:#7FACFA;" d="M418.133,244.012v102.413c48.606-12.39,81.263-32.137,84.952-54.642h0.381V185.117
		C503.467,209.379,469.794,230.846,418.133,244.012z"/>
	<path style="fill:#A4C2F7;" d="M418.133,247.467v102.4c48.606-12.39,55.663-9.979,59.352-32.483h0.381V210.717
		C477.867,234.979,469.794,234.3,418.133,247.467z"/>
	<path style="fill:#7FACFA;" d="M418.133,340.496v102.412c48.606-12.39,81.263-32.137,84.952-54.642h0.381V281.6
		C503.467,305.863,469.794,327.329,418.133,340.496z"/>
	<g>
		<path style="fill:#A4C2F7;" d="M418.133,349.042v97.308c48.606-12.39,55.663-9.979,59.352-32.483h0.381V307.2
			C477.867,331.463,469.794,335.875,418.133,349.042z"/>
		<path style="fill:#A4C2F7;" d="M298.667,8.533c-95.814,0-176.236,23.306-198.597,54.783c37.173-8.32,75.172-12.385,113.264-12.117
			c109.061,0,198.179,30.194,204.419,68.267h0.381v20.496c51.661-13.167,85.333-34.633,85.333-58.896
			C503.467,41.008,411.775,8.533,298.667,8.533z"/>
	</g>
	
		<linearGradient id="SVGID_1_" gradientUnits="userSpaceOnUse" x1="-48.6275" y1="652.2511" x2="-48.0864" y2="650.6701" gradientTransform="matrix(384 0 0 -131.4292 18860.8672 85692.8047)">
		<stop  offset="0" style="stop-color:#D4E1F4"/>
		<stop  offset="0.1717" style="stop-color:#D4E1F4"/>
		<stop  offset="0.2" style="stop-color:#D4E1F4"/>
		<stop  offset="0.2001" style="stop-color:#DAE4F4"/>
		<stop  offset="0.2007" style="stop-color:#EBEBF4"/>
		<stop  offset="0.2014" style="stop-color:#F6F1F4"/>
		<stop  offset="0.2023" style="stop-color:#FDF4F4"/>
		<stop  offset="0.205" style="stop-color:#FFF5F4"/>
		<stop  offset="0.2522" style="stop-color:#FFF5F4"/>
		<stop  offset="0.26" style="stop-color:#FFF5F4"/>
		<stop  offset="0.26" style="stop-color:#D4E1F4"/>
		<stop  offset="0.3974" style="stop-color:#D4E1F4"/>
		<stop  offset="0.42" style="stop-color:#D4E1F4"/>
		<stop  offset="0.4201" style="stop-color:#DAE4F4"/>
		<stop  offset="0.4207" style="stop-color:#EBEBF4"/>
		<stop  offset="0.4214" style="stop-color:#F6F1F4"/>
		<stop  offset="0.4223" style="stop-color:#FDF4F4"/>
		<stop  offset="0.425" style="stop-color:#FFF5F4"/>
		<stop  offset="0.4894" style="stop-color:#FFF5F4"/>
		<stop  offset="0.5" style="stop-color:#FFF5F4"/>
		<stop  offset="0.5" style="stop-color:#F9F2F4"/>
		<stop  offset="0.5001" style="stop-color:#E8EBF4"/>
		<stop  offset="0.5003" style="stop-color:#DDE5F4"/>
		<stop  offset="0.5005" style="stop-color:#D6E2F4"/>
		<stop  offset="0.501" style="stop-color:#D4E1F4"/>
		<stop  offset="0.7062" style="stop-color:#D4E1F4"/>
		<stop  offset="0.74" style="stop-color:#D4E1F4"/>
		<stop  offset="0.741" style="stop-color:#FFF5F4"/>
		<stop  offset="0.8346" style="stop-color:#FFF5F4"/>
		<stop  offset="0.85" style="stop-color:#FFF5F4"/>
		<stop  offset="0.851" style="stop-color:#D4E1F4"/>
	</linearGradient>
	<path style="fill:url(#SVGID_1_);" d="M273.067,8.533c-95.814,0-156.839,23.306-179.2,54.783
		c30.57-8.4,62.166-12.478,93.867-12.117c109.061,0,198.179,30.194,204.419,68.267h0.381v20.496
		c51.661-13.167,85.333-34.633,85.333-58.896C477.867,41.008,386.174,8.533,273.067,8.533z"/>
	<g>
		<path style="fill:#FFFFFF;" d="M213.333,196.267v102.4c-109.06,0-198.178-30.196-204.419-68.267H8.533V123.733
			C8.533,163.792,100.225,196.267,213.333,196.267z"/>
		<path style="fill:#FFFFFF;" d="M8.915,119.467c-0.243,1.41-0.37,2.836-0.381,4.267v-4.267H8.915z"/>
	</g>
	<g>
		<path style="fill:#7FACFA;" d="M213.333,196.267v102.4c109.06,0,198.178-30.196,204.419-68.267h0.381V123.733
			C418.133,163.792,326.442,196.267,213.333,196.267z"/>
		<path style="fill:#7FACFA;" d="M417.752,119.467c0.243,1.41,0.37,2.836,0.381,4.267v-4.267H417.752z"/>
	</g>
	<path style="fill:#A4C2F7;" d="M187.733,196.267c-51.2-13.333-153.6-2.608-153.6-42.667v76.8h0.381
		c6.241,38.071,44.158,68.267,153.219,68.267s198.559-4.596,204.8-42.667V123.733C392.533,163.792,297.191,224.771,187.733,196.267z
		"/>
	<g>
		<path style="fill:#E3E7F2;" d="M34.133,119.467v4.267c0.011-1.43,0.139-2.857,0.381-4.267H34.133z"/>
		<path style="fill:#E3E7F2;" d="M392.152,119.467c0.243,1.41,0.37,2.836,0.381,4.267v-4.267H392.152z"/>
	</g>
	<g>
		<path style="fill:#FFFFFF;" d="M213.333,298.667v102.4c-109.06,0-198.178-30.196-204.419-68.267H8.533V226.133
			C8.533,266.192,100.225,298.667,213.333,298.667z"/>
		<path style="fill:#FFFFFF;" d="M8.915,221.867c-0.243,1.41-0.37,2.836-0.381,4.267v-4.267H8.915z"/>
	</g>
	<g>
		<path style="fill:#7FACFA;" d="M213.333,298.667v102.4c109.06,0,198.178-30.196,204.419-68.267h0.381V226.133
			C418.133,266.192,326.442,298.667,213.333,298.667z"/>
		<path style="fill:#7FACFA;" d="M417.752,221.867c0.243,1.41,0.37,2.836,0.381,4.267v-4.267H417.752z"/>
	</g>
	<path style="fill:#A4C2F7;" d="M392.533,264.974c0-15.969-19.01-2.872-30.62,8.092c-36.74,34.699-97.914,29.867-174.18,25.6
		c-52.825-2.955-153.6-2.608-153.6-42.667v76.8h0.381c6.241,38.071,44.158,68.267,153.219,68.267s198.559-4.596,204.8-42.667"/>
	<path style="fill:#E3E7F2;" d="M34.133,221.867v4.267c0.011-1.43,0.139-2.857,0.381-4.267H34.133z"/>
	<g>
		<path style="fill:#FFFFFF;" d="M213.333,401.067v102.4c-109.06,0-198.178-30.196-204.419-68.267H8.533V328.533
			C8.533,368.592,100.225,401.067,213.333,401.067z"/>
		<path style="fill:#FFFFFF;" d="M8.915,324.267c-0.243,1.41-0.37,2.836-0.381,4.267v-4.267H8.915z"/>
	</g>
	<g>
		<path style="fill:#7FACFA;" d="M213.333,401.067v102.4c109.06,0,198.178-30.196,204.419-68.267h0.381V328.533
			C418.133,368.592,326.442,401.067,213.333,401.067z"/>
		<path style="fill:#7FACFA;" d="M417.752,324.267c0.243,1.41,0.37,2.836,0.381,4.267v-4.267H417.752z"/>
	</g>
	<path style="fill:#A4C2F7;" d="M187.733,401.067c-52.825-2.955-153.6-2.608-153.6-42.667v76.8h0.381
		c6.241,38.071,44.158,68.267,153.219,68.267s193.6-17.067,204.8-42.667v-93.426c0-15.969-19.01-2.872-30.62,8.093
		C325.173,410.166,264,405.333,187.733,401.067z"/>
	<path style="fill:#E3E7F2;" d="M34.133,324.267v4.267c0.011-1.43,0.139-2.857,0.381-4.267H34.133z"/>
	<path style="fill:#FFFFFF;" d="M213.333,196.267V51.2c-113.108,0-204.8,32.475-204.8,72.533S100.226,196.267,213.333,196.267z"/>
	<path style="fill:#A4C2F7;" d="M213.333,51.2v145.067c113.108,0,204.8-32.475,204.8-72.533S326.441,51.2,213.333,51.2z"/>
	
		<linearGradient id="SVGID_2_" gradientUnits="userSpaceOnUse" x1="-48.6455" y1="652.3389" x2="-48.1044" y2="650.7579" gradientTransform="matrix(341.3333 0 0 -145.0667 16719 94640.7422)">
		<stop  offset="0" style="stop-color:#D4E1F4"/>
		<stop  offset="0.1717" style="stop-color:#D4E1F4"/>
		<stop  offset="0.2" style="stop-color:#D4E1F4"/>
		<stop  offset="0.2001" style="stop-color:#DAE4F4"/>
		<stop  offset="0.2007" style="stop-color:#EBEBF4"/>
		<stop  offset="0.2014" style="stop-color:#F6F1F4"/>
		<stop  offset="0.2023" style="stop-color:#FDF4F4"/>
		<stop  offset="0.205" style="stop-color:#FFF5F4"/>
		<stop  offset="0.2522" style="stop-color:#FFF5F4"/>
		<stop  offset="0.26" style="stop-color:#FFF5F4"/>
		<stop  offset="0.26" style="stop-color:#D4E1F4"/>
		<stop  offset="0.3974" style="stop-color:#D4E1F4"/>
		<stop  offset="0.42" style="stop-color:#D4E1F4"/>
		<stop  offset="0.4201" style="stop-color:#DAE4F4"/>
		<stop  offset="0.4207" style="stop-color:#EBEBF4"/>
		<stop  offset="0.4214" style="stop-color:#F6F1F4"/>
		<stop  offset="0.4223" style="stop-color:#FDF4F4"/>
		<stop  offset="0.425" style="stop-color:#FFF5F4"/>
		<stop  offset="0.4894" style="stop-color:#FFF5F4"/>
		<stop  offset="0.5" style="stop-color:#FFF5F4"/>
		<stop  offset="0.5" style="stop-color:#F9F2F4"/>
		<stop  offset="0.5001" style="stop-color:#E8EBF4"/>
		<stop  offset="0.5003" style="stop-color:#DDE5F4"/>
		<stop  offset="0.5005" style="stop-color:#D6E2F4"/>
		<stop  offset="0.501" style="stop-color:#D4E1F4"/>
		<stop  offset="0.7062" style="stop-color:#D4E1F4"/>
		<stop  offset="0.74" style="stop-color:#D4E1F4"/>
		<stop  offset="0.741" style="stop-color:#FFF5F4"/>
		<stop  offset="0.8346" style="stop-color:#FFF5F4"/>
		<stop  offset="0.85" style="stop-color:#FFF5F4"/>
		<stop  offset="0.851" style="stop-color:#D4E1F4"/>
	</linearGradient>
	<path style="fill:url(#SVGID_2_);" d="M384,123.733c0,40.059-91.692,72.533-204.8,72.533S42.667,163.792,42.667,123.733
		S66.092,51.2,179.2,51.2S384,83.674,384,123.733z"/>
	<g>
		<path style="fill:#428DFF;" d="M213.333,512C101.242,512,11.075,480.817,1,439.05c-0.652-1.179-0.996-2.503-1-3.85V328.533
			C0,323.821,3.821,320,8.533,320s8.533,3.82,8.533,8.533c0,30.275,80.6,64,196.267,64s196.267-33.725,196.267-64
			c0-4.713,3.82-8.533,8.533-8.533s8.533,3.82,8.533,8.533V435.2c0.004,1.446-0.363,2.87-1.067,4.133
			C415.192,480.95,325.175,512,213.333,512z M17.067,432.7c0.118,0.365,0.21,0.738,0.275,1.117
			c4.833,29.517,84.75,61.117,195.992,61.117s191.158-31.6,195.992-61.117c0.066-0.389,0.158-0.773,0.275-1.15V360.9
			c-29.383,26.908-96.183,48.7-196.267,48.7S46.45,387.808,17.067,360.9V432.7z"/>
		<path style="fill:#428DFF;" d="M8.533,337.067c-2.264,0.001-4.435-0.897-6.035-2.498c-1.601-1.601-2.499-3.772-2.498-6.035v-4.267
			c-0.001-2.264,0.897-4.435,2.498-6.035c1.601-1.601,3.772-2.499,6.035-2.498h0.383c2.506-0.003,4.886,1.097,6.507,3.007
			c1.621,1.91,2.32,4.438,1.909,6.91c-0.168,0.952-0.257,1.917-0.267,2.883c0.001,2.264-0.897,4.435-2.498,6.035
			C12.968,336.169,10.797,337.068,8.533,337.067L8.533,337.067z"/>
		<path style="fill:#428DFF;" d="M418.133,337.067c-2.264,0.001-4.435-0.897-6.035-2.498c-1.601-1.601-2.499-3.772-2.498-6.035
			c-0.01-0.967-0.099-1.931-0.267-2.883c-0.41-2.472,0.288-4.999,1.909-6.91c1.621-1.91,4.002-3.01,6.507-3.007h0.383
			c2.264-0.001,4.435,0.897,6.035,2.498c1.601,1.601,2.499,3.772,2.498,6.035v4.267c0.001,2.264-0.897,4.435-2.498,6.035
			C422.568,336.169,420.397,337.068,418.133,337.067z"/>
		<path style="fill:#428DFF;" d="M213.333,409.6C101.242,409.6,11.075,378.417,1,336.65c-0.652-1.179-0.996-2.503-1-3.85V226.133
			c0-4.713,3.821-8.533,8.533-8.533s8.533,3.821,8.533,8.533c0,30.275,80.6,64,196.267,64s196.267-33.725,196.267-64
			c0-4.713,3.82-8.533,8.533-8.533s8.533,3.821,8.533,8.533V332.8c0.004,1.446-0.363,2.87-1.067,4.133
			C415.192,378.55,325.175,409.6,213.333,409.6z M17.067,330.3c0.118,0.365,0.21,0.738,0.275,1.117
			c4.833,29.517,84.75,61.117,195.992,61.117s191.158-31.6,195.992-61.117c0.066-0.389,0.158-0.773,0.275-1.15V258.5
			c-29.383,26.908-96.183,48.7-196.267,48.7S46.45,285.408,17.067,258.5V330.3z"/>
		<path style="fill:#428DFF;" d="M8.533,234.667c-2.264,0.001-4.435-0.897-6.035-2.498s-2.499-3.772-2.498-6.035v-4.267
			c-0.001-2.264,0.897-4.435,2.498-6.035s3.772-2.499,6.035-2.498h0.383c2.506-0.003,4.886,1.097,6.507,3.007
			c1.621,1.91,2.32,4.438,1.909,6.91c-0.168,0.952-0.257,1.917-0.267,2.883c0.001,2.264-0.897,4.435-2.498,6.035
			C12.968,233.769,10.797,234.668,8.533,234.667z"/>
		<path style="fill:#428DFF;" d="M418.133,234.667c-2.264,0.001-4.435-0.897-6.035-2.498c-1.601-1.601-2.499-3.772-2.498-6.035
			c-0.01-0.967-0.099-1.931-0.267-2.883c-0.41-2.472,0.288-4.999,1.909-6.91c1.621-1.91,4.002-3.01,6.507-3.007h0.383
			c2.264-0.001,4.435,0.897,6.035,2.498c1.601,1.601,2.499,3.772,2.498,6.035v4.267c0.001,2.264-0.897,4.435-2.498,6.035
			C422.568,233.769,420.397,234.668,418.133,234.667L418.133,234.667z"/>
		<path style="fill:#428DFF;" d="M213.333,204.8C74.767,204.8,0,163.033,0,123.733s74.767-81.067,213.333-81.067
			s213.333,41.767,213.333,81.067S351.9,204.8,213.333,204.8z M213.333,59.733c-115.667,0-196.267,33.725-196.267,64
			s80.6,64,196.267,64s196.267-33.725,196.267-64S329,59.733,213.333,59.733z"/>
		<path style="fill:#428DFF;" d="M213.333,307.2C101.242,307.2,11.075,276.017,1,234.25c-0.652-1.179-0.996-2.503-1-3.85V123.733
			c0-4.713,3.821-8.533,8.533-8.533s8.533,3.821,8.533,8.533c0,30.275,80.6,64,196.267,64s196.267-33.725,196.267-64
			c0-4.713,3.82-8.533,8.533-8.533s8.533,3.821,8.533,8.533V230.4c0.004,1.446-0.363,2.87-1.067,4.133
			C415.192,276.15,325.175,307.2,213.333,307.2z M17.067,227.9c0.118,0.365,0.21,0.738,0.275,1.117
			c4.833,29.517,84.75,61.117,195.992,61.117s191.158-31.6,195.992-61.117c0.066-0.389,0.158-0.773,0.275-1.15V156.1
			c-29.383,26.908-96.183,48.7-196.267,48.7S46.45,183.008,17.067,156.1V227.9z"/>
		<path style="fill:#428DFF;" d="M8.533,132.267c-2.264,0.001-4.435-0.897-6.035-2.498s-2.499-3.772-2.498-6.035v-4.267
			c-0.001-2.264,0.897-4.435,2.498-6.035c1.601-1.601,3.772-2.499,6.035-2.498h0.383c2.506-0.003,4.886,1.097,6.507,3.007
			c1.621,1.91,2.32,4.438,1.909,6.91c-0.168,0.952-0.257,1.917-0.267,2.883c0.001,2.264-0.897,4.435-2.498,6.035
			C12.968,131.369,10.797,132.268,8.533,132.267z"/>
		<path style="fill:#428DFF;" d="M418.133,132.267c-2.264,0.001-4.435-0.897-6.035-2.498c-1.601-1.601-2.499-3.772-2.498-6.035
			c-0.01-0.967-0.099-1.931-0.267-2.883c-0.41-2.472,0.288-4.999,1.909-6.91c1.621-1.91,4.002-3.01,6.507-3.007h0.383
			c2.264-0.001,4.435,0.897,6.035,2.498c1.601,1.601,2.499,3.772,2.498,6.035v4.267c0.001,2.264-0.897,4.435-2.498,6.035
			C422.568,131.369,420.397,132.268,418.133,132.267z"/>
		<path style="fill:#428DFF;" d="M418.133,148.5c-2.263,0.001-4.434-0.898-6.035-2.499c-1.6-1.6-2.499-3.771-2.498-6.035v-18
			c-0.118-0.368-0.21-0.744-0.275-1.125c-4.825-29.509-84.733-61.109-195.992-61.109c-37.433-0.265-74.776,3.724-111.308,11.892
			c-3.457,0.816-7.058-0.594-9.041-3.541c-1.983-2.947-1.934-6.814,0.125-9.709C117.925,23.458,200.525,0,298.667,0
			C437.233,0,512,41.767,512,81.067c0,27.825-33.442,52.308-91.758,67.167C419.553,148.412,418.845,148.502,418.133,148.5z
			 M425.675,115.617c0.646,1.181,0.987,2.504,0.992,3.85v9.325c42.4-12.408,68.267-30.308,68.267-47.725
			c0-30.275-80.6-64-196.267-64c-74.992,0-133.583,13.942-166.517,31.442c26.879-3.953,54.015-5.906,81.183-5.842
			C325.433,42.667,415.608,73.85,425.675,115.617L425.675,115.617z"/>
		<path style="fill:#428DFF;" d="M418.133,250.908c-2.263,0.001-4.434-0.898-6.035-2.499c-1.6-1.6-2.499-3.771-2.498-6.035V139.966
			c-0.003-3.901,2.644-7.306,6.425-8.267c48.675-12.408,78.908-31.808,78.908-50.633c0-4.713,3.821-8.533,8.533-8.533
			S512,76.354,512,81.067v106.667c0.001,1.436-0.36,2.849-1.05,4.108c-5.992,24.567-38.008,45.367-90.708,58.8
			C419.553,250.82,418.845,250.91,418.133,250.908L418.133,250.908z M426.667,146.533v84.658
			c39.592-11.633,65.308-28.433,67.992-44.833c0.065-0.392,0.157-0.779,0.275-1.158v-71.308
			C474.886,129.71,451.565,140.861,426.667,146.533L426.667,146.533z"/>
		<path style="fill:#428DFF;" d="M418.133,353.308c-2.263,0.001-4.434-0.898-6.035-2.499c-1.6-1.6-2.499-3.771-2.498-6.035V242.366
			c-0.003-3.901,2.644-7.306,6.425-8.267c48.675-12.408,78.908-31.808,78.908-50.633c0-4.713,3.821-8.533,8.533-8.533
			s8.533,3.821,8.533,8.533v106.667c0.001,1.436-0.36,2.849-1.05,4.108c-5.992,24.567-38.008,45.367-90.708,58.8
			C419.553,353.22,418.845,353.31,418.133,353.308L418.133,353.308z M426.667,248.933v84.658
			c39.592-11.633,65.308-28.433,67.992-44.833c0.065-0.392,0.157-0.779,0.275-1.158v-71.308
			C474.886,232.11,451.565,243.261,426.667,248.933L426.667,248.933z"/>
		<path style="fill:#428DFF;" d="M411.892,457.225c-3.194,0-6.121-1.784-7.584-4.623c-1.463-2.839-1.219-6.258,0.634-8.86
			c2.2-2.927,3.7-6.319,4.383-9.917c0.065-0.392,0.157-0.779,0.275-1.159v-87.9c-0.003-3.901,2.644-7.306,6.425-8.267
			c48.675-12.408,78.908-31.808,78.908-50.633c0-4.713,3.821-8.533,8.533-8.533s8.533,3.821,8.533,8.533v106.667
			c0.003,1.44-0.361,2.857-1.058,4.117c-6.275,25.333-41.375,47.217-97.092,60.35C413.208,457.149,412.551,457.224,411.892,457.225z
			 M426.667,351.333V435.2c0,0.267-0.009,0.533-0.033,0.792c39.742-11.642,65.317-28.275,68.025-44.842
			c0.066-0.389,0.158-0.773,0.275-1.15v-71.308C474.886,334.51,451.565,345.661,426.667,351.333L426.667,351.333z"/>
	</g>
</g>
<g>
</g>
<g>
</g>
<g>
</g>
<g>
</g>
<g>
</g>
<g>
</g>
<g>
</g>
<g>
</g>
<g>
</g>
<g>
</g>
<g>
</g>
<g>
</g>
<g>
</g>
<g>
</g>
<g>
</g>
</svg>
