<?xml version="1.0" encoding="iso-8859-1"?>
<!-- Generator: Adobe Illustrator 19.0.0, SVG Export Plug-In . SVG Version: 6.00 Build 0)  -->
<svg version="1.1" id="Capa_1" xmlns="http://www.w3.org/2000/svg" xmlns:xlink="http://www.w3.org/1999/xlink" x="0px" y="0px"
	 viewBox="0 0 512 512" style="enable-background:new 0 0 512 512;" xml:space="preserve">
<g>
	<path style="fill:#FFFFFF;" d="M136.533,145.067c-37.702,0-68.266,30.564-68.267,68.267c0,1.306,0.123,2.581,0.196,3.871
		c-0.083,1.56-0.196,3.129-0.196,4.663c-35.95,18.276-58.912,54.867-59.733,95.188c0.163,55.756,45.322,100.916,101.078,101.079
		H153.6l20.685-261.662C163.106,149.02,149.968,145.051,136.533,145.067z"/>
	<path style="fill:#A4C2F7;" d="M425.975,230.4c-0.765-74.818-61.029-135.388-135.842-136.533l84.613,324.267h33.893
		c51.911-0.152,93.956-42.197,94.107-94.108C502.651,278.54,470.56,239.404,425.975,230.4z"/>
	
		<linearGradient id="SVGID_1_" gradientUnits="userSpaceOnUse" x1="-48.7075" y1="652.355" x2="-48.0745" y2="651.4888" gradientTransform="matrix(443.7334 0 0 -324.2667 21728.0684 211701.0156)">
		<stop  offset="0" style="stop-color:#D4E1F4"/>
		<stop  offset="0.1717" style="stop-color:#D4E1F4"/>
		<stop  offset="0.2" style="stop-color:#D4E1F4"/>
		<stop  offset="0.2001" style="stop-color:#DAE4F4"/>
		<stop  offset="0.2007" style="stop-color:#EBEBF4"/>
		<stop  offset="0.2014" style="stop-color:#F6F1F4"/>
		<stop  offset="0.2023" style="stop-color:#FDF4F4"/>
		<stop  offset="0.205" style="stop-color:#FFF5F4"/>
		<stop  offset="0.2522" style="stop-color:#FFF5F4"/>
		<stop  offset="0.26" style="stop-color:#FFF5F4"/>
		<stop  offset="0.26" style="stop-color:#D4E1F4"/>
		<stop  offset="0.3974" style="stop-color:#D4E1F4"/>
		<stop  offset="0.42" style="stop-color:#D4E1F4"/>
		<stop  offset="0.4201" style="stop-color:#DAE4F4"/>
		<stop  offset="0.4207" style="stop-color:#EBEBF4"/>
		<stop  offset="0.4214" style="stop-color:#F6F1F4"/>
		<stop  offset="0.4223" style="stop-color:#FDF4F4"/>
		<stop  offset="0.425" style="stop-color:#FFF5F4"/>
		<stop  offset="0.4894" style="stop-color:#FFF5F4"/>
		<stop  offset="0.5" style="stop-color:#FFF5F4"/>
		<stop  offset="0.5" style="stop-color:#F9F2F4"/>
		<stop  offset="0.5001" style="stop-color:#E8EBF4"/>
		<stop  offset="0.5003" style="stop-color:#DDE5F4"/>
		<stop  offset="0.5005" style="stop-color:#D6E2F4"/>
		<stop  offset="0.501" style="stop-color:#D4E1F4"/>
		<stop  offset="0.7062" style="stop-color:#D4E1F4"/>
		<stop  offset="0.74" style="stop-color:#D4E1F4"/>
		<stop  offset="0.741" style="stop-color:#FFF5F4"/>
		<stop  offset="0.8346" style="stop-color:#FFF5F4"/>
		<stop  offset="0.85" style="stop-color:#FFF5F4"/>
		<stop  offset="0.851" style="stop-color:#D4E1F4"/>
	</linearGradient>
	<path style="fill:url(#SVGID_1_);" d="M401.096,230.4c-0.765-74.817-61.029-135.388-135.842-136.533
		c-47.44,0-52.931,14.242-77.521,51.2c-10.816-7.194-11.636,0-25.6,0c-37.702,0-68.266,30.564-68.267,68.267
		c0,1.306,0.123,2.581,0.196,3.871c-0.083,1.56-0.196,3.129-0.196,4.663c-35.95,18.276-58.912,54.867-59.733,95.188
		c0.163,55.756,45.322,100.916,101.078,101.079h248.548c51.911-0.152,93.956-42.197,94.107-94.108
		C477.772,278.54,445.681,239.404,401.096,230.4L401.096,230.4z"/>
	<g>
		<path style="fill:#428DFF;" d="M383.991,238.933c-4.46-0.005-8.164-3.445-8.498-7.893c-0.334-4.448,2.814-8.402,7.223-9.074
			c15.009-1.991,30.215-1.994,45.225-0.009c4.634,0.717,7.822,5.04,7.137,9.679c-0.685,4.639-4.985,7.857-9.629,7.204
			c-13.334-1.713-26.832-1.716-40.166-0.009C384.856,238.899,384.424,238.933,383.991,238.933L383.991,238.933z"/>
		<path style="fill:#428DFF;" d="M204.8,221.867c-2.264,0.001-4.435-0.897-6.035-2.498c-1.601-1.601-2.499-3.772-2.498-6.035
			c0-32.99-26.744-59.733-59.733-59.733S76.8,180.344,76.8,213.333c0,4.713-3.82,8.533-8.533,8.533
			c-4.713,0-8.533-3.821-8.533-8.533c0-42.415,34.385-76.8,76.8-76.8s76.8,34.385,76.8,76.8c0.001,2.264-0.897,4.435-2.498,6.035
			C209.235,220.969,207.064,221.868,204.8,221.867z"/>
		<path style="fill:#428DFF;" d="M409.358,426.667h-83.65c-0.892,0-1.766-0.05-2.65-0.117l-1.142-0.067l-0.525,0.067
			c-0.884,0.067-1.759,0.117-2.65,0.117H109.608C49.099,426.597,0.065,377.559,0,317.05c0.795-41.716,23.556-79.913,59.867-100.467
			v-0.033c-0.067-1.067-0.133-2.133-0.133-3.217c0.001-26.811,13.983-51.68,36.889-65.614s51.419-14.914,75.228-2.586
			c28.203-37.366,72.195-59.471,119.009-59.8c76.933,0.936,139.961,61.366,144.133,138.192c45.249,12.52,76.69,53.552,77.008,100.5
			C511.938,380.687,466.02,426.605,409.358,426.667z M321.917,409.433l2.308,0.092c0.492,0.033,0.983,0.075,1.483,0.075h83.65
			c47.239-0.055,85.52-38.336,85.575-85.575c-0.201-41.343-29.323-76.899-69.817-85.242c-3.987-0.754-6.892-4.21-6.95-8.267
			c-0.516-70.228-57.085-127.156-127.308-128.117c-43.884,0.618-84.722,22.55-109.475,58.792c-1.251,1.885-3.2,3.196-5.418,3.643
			c-2.218,0.447-4.523-0.006-6.407-1.259c-18.332-12.178-41.877-13.286-61.271-2.882s-31.494,30.632-31.487,52.64
			c0,0.7,0.05,1.392,0.1,2.083l0.083,1.342c0.009,0.3,0.009,0.6,0,0.892l-0.058,0.925c-0.058,1.108-0.125,2.208-0.125,3.292
			c0.001,3.282-1.882,6.273-4.842,7.692c-32.887,16.968-53.923,50.498-54.892,87.492c0.056,51.087,41.454,92.489,92.542,92.55
			h209.133c0.5,0,0.992-0.042,1.483-0.075L321.917,409.433z"/>
	</g>
</g>
<g>
</g>
<g>
</g>
<g>
</g>
<g>
</g>
<g>
</g>
<g>
</g>
<g>
</g>
<g>
</g>
<g>
</g>
<g>
</g>
<g>
</g>
<g>
</g>
<g>
</g>
<g>
</g>
<g>
</g>
</svg>
