<?xml version="1.0" encoding="iso-8859-1"?>
<!-- Generator: Adobe Illustrator 19.0.0, SVG Export Plug-In . SVG Version: 6.00 Build 0)  -->
<svg version="1.1" id="Capa_1" xmlns="http://www.w3.org/2000/svg" xmlns:xlink="http://www.w3.org/1999/xlink" x="0px" y="0px"
	 viewBox="0 0 512 512" style="enable-background:new 0 0 512 512;" xml:space="preserve">
<g>
	<path style="fill:#FFFFFF;" d="M136.533,98.133c-37.702,0-68.266,30.564-68.267,68.267c0,1.306,0.123,2.581,0.196,3.871
		c-0.083,1.56-0.196,3.129-0.196,4.663C32.317,193.21,9.355,229.8,8.533,270.121C8.696,325.877,53.855,371.036,109.611,371.2H153.6
		l20.685-261.662C163.106,102.087,149.968,98.118,136.533,98.133z"/>
	<path style="fill:#A4C2F7;" d="M425.975,183.467c-0.765-74.818-61.029-135.388-135.842-136.533L374.746,371.2h33.893
		c51.911-0.152,93.956-42.197,94.107-94.108C502.651,231.607,470.56,192.471,425.975,183.467z"/>
	
		<linearGradient id="SVGID_1_" gradientUnits="userSpaceOnUse" x1="-48.7075" y1="652.355" x2="-48.0745" y2="651.4888" gradientTransform="matrix(443.7334 0 0 -324.2667 21728.0684 211654.0781)">
		<stop  offset="0" style="stop-color:#D4E1F4"/>
		<stop  offset="0.1717" style="stop-color:#D4E1F4"/>
		<stop  offset="0.2" style="stop-color:#D4E1F4"/>
		<stop  offset="0.2001" style="stop-color:#DAE4F4"/>
		<stop  offset="0.2007" style="stop-color:#EBEBF4"/>
		<stop  offset="0.2014" style="stop-color:#F6F1F4"/>
		<stop  offset="0.2023" style="stop-color:#FDF4F4"/>
		<stop  offset="0.205" style="stop-color:#FFF5F4"/>
		<stop  offset="0.2522" style="stop-color:#FFF5F4"/>
		<stop  offset="0.26" style="stop-color:#FFF5F4"/>
		<stop  offset="0.26" style="stop-color:#D4E1F4"/>
		<stop  offset="0.3974" style="stop-color:#D4E1F4"/>
		<stop  offset="0.42" style="stop-color:#D4E1F4"/>
		<stop  offset="0.4201" style="stop-color:#DAE4F4"/>
		<stop  offset="0.4207" style="stop-color:#EBEBF4"/>
		<stop  offset="0.4214" style="stop-color:#F6F1F4"/>
		<stop  offset="0.4223" style="stop-color:#FDF4F4"/>
		<stop  offset="0.425" style="stop-color:#FFF5F4"/>
		<stop  offset="0.4894" style="stop-color:#FFF5F4"/>
		<stop  offset="0.5" style="stop-color:#FFF5F4"/>
		<stop  offset="0.5" style="stop-color:#F9F2F4"/>
		<stop  offset="0.5001" style="stop-color:#E8EBF4"/>
		<stop  offset="0.5003" style="stop-color:#DDE5F4"/>
		<stop  offset="0.5005" style="stop-color:#D6E2F4"/>
		<stop  offset="0.501" style="stop-color:#D4E1F4"/>
		<stop  offset="0.7062" style="stop-color:#D4E1F4"/>
		<stop  offset="0.74" style="stop-color:#D4E1F4"/>
		<stop  offset="0.741" style="stop-color:#FFF5F4"/>
		<stop  offset="0.8346" style="stop-color:#FFF5F4"/>
		<stop  offset="0.85" style="stop-color:#FFF5F4"/>
		<stop  offset="0.851" style="stop-color:#D4E1F4"/>
	</linearGradient>
	<path style="fill:url(#SVGID_1_);" d="M401.096,183.467c-0.765-74.817-61.029-135.388-135.842-136.533
		c-47.44,0-52.931,14.242-77.521,51.2c-10.816-7.194-11.636,0-25.6,0c-37.702,0-68.266,30.564-68.267,68.267
		c0,1.306,0.123,2.581,0.196,3.871c-0.083,1.56-0.196,3.129-0.196,4.663c-35.95,18.276-58.912,54.867-59.733,95.188
		c0.163,55.756,45.322,100.916,101.078,101.079h248.548c51.911-0.152,93.956-42.197,94.107-94.108
		C477.772,231.607,445.681,192.47,401.096,183.467L401.096,183.467z"/>
	<g>
		<path style="fill:#428DFF;" d="M383.991,192c-4.46-0.005-8.164-3.445-8.498-7.893s2.814-8.402,7.223-9.074
			c15.009-1.991,30.215-1.994,45.225-0.009c4.634,0.717,7.822,5.04,7.137,9.679c-0.685,4.639-4.985,7.857-9.629,7.204
			c-13.334-1.713-26.832-1.716-40.166-0.009C384.856,191.966,384.424,191.999,383.991,192L383.991,192z"/>
		<path style="fill:#428DFF;" d="M204.8,174.933c-2.264,0.001-4.435-0.897-6.035-2.498s-2.499-3.772-2.498-6.035
			c0-32.99-26.744-59.733-59.733-59.733S76.8,133.41,76.8,166.4c0,4.713-3.82,8.533-8.533,8.533c-4.713,0-8.533-3.82-8.533-8.533
			c0-42.415,34.385-76.8,76.8-76.8s76.8,34.385,76.8,76.8c0.001,2.264-0.897,4.435-2.498,6.035S207.064,174.935,204.8,174.933z"/>
		<path style="fill:#428DFF;" d="M409.358,379.733h-33.892c-4.713,0-8.533-3.82-8.533-8.533s3.821-8.533,8.533-8.533h33.892
			c47.239-0.055,85.52-38.336,85.575-85.575c-0.201-41.343-29.323-76.899-69.817-85.242c-3.987-0.754-6.892-4.21-6.95-8.267
			c-0.52-70.229-57.092-127.157-127.317-128.117c-43.881,0.62-84.716,22.552-109.467,58.792c-1.251,1.886-3.2,3.196-5.418,3.643
			c-2.218,0.447-4.523-0.006-6.407-1.26c-18.332-12.178-41.877-13.286-61.271-2.882S76.793,144.391,76.8,166.4
			c0,0.733,0.058,1.458,0.108,2.183l0.075,1.183c0.02,0.316,0.022,0.633,0.009,0.95l-0.067,1.1c-0.059,1.05-0.125,2.092-0.125,3.117
			c0.001,3.282-1.882,6.273-4.842,7.692c-32.887,16.968-53.923,50.498-54.892,87.492c0.056,51.088,41.454,92.489,92.542,92.55H153.6
			c4.713,0,8.533,3.82,8.533,8.533s-3.821,8.533-8.533,8.533h-43.992C49.099,379.663,0.065,330.626,0,270.117
			c0.793-41.719,23.558-79.918,59.875-100.467c-0.075-1.075-0.142-2.15-0.142-3.25c0.001-26.811,13.983-51.68,36.889-65.614
			s51.419-14.914,75.228-2.586c28.2-37.365,72.189-59.471,119-59.8c76.936,0.932,139.969,61.363,144.142,138.192
			c45.249,12.52,76.69,53.552,77.008,100.5C511.938,333.754,466.02,379.672,409.358,379.733z"/>
		<path style="fill:#428DFF;" d="M264.533,473.6c-2.264,0.001-4.435-0.897-6.035-2.498c-1.601-1.601-2.499-3.772-2.498-6.035V268.8
			c0-4.713,3.821-8.533,8.533-8.533s8.533,3.821,8.533,8.533v196.267c0.001,2.264-0.897,4.435-2.498,6.035
			C268.968,472.703,266.797,473.601,264.533,473.6z"/>
		<path style="fill:#428DFF;" d="M264.533,473.6c-2.264,0.003-4.435-0.897-6.033-2.5l-68.267-68.267
			c-3.281-3.341-3.256-8.701,0.054-12.012c3.311-3.311,8.671-3.335,12.012-0.054l68.267,68.267c2.44,2.441,3.169,6.11,1.849,9.298
			C271.095,471.52,267.984,473.599,264.533,473.6z"/>
		<path style="fill:#428DFF;" d="M264.533,473.6c-3.451-0.001-6.562-2.08-7.882-5.268c-1.32-3.188-0.591-6.858,1.849-9.298
			l68.267-68.267c3.341-3.281,8.701-3.256,12.012,0.054s3.335,8.671,0.054,12.012L270.566,471.1
			C268.968,472.703,266.797,473.603,264.533,473.6z"/>
	</g>
</g>
<g>
</g>
<g>
</g>
<g>
</g>
<g>
</g>
<g>
</g>
<g>
</g>
<g>
</g>
<g>
</g>
<g>
</g>
<g>
</g>
<g>
</g>
<g>
</g>
<g>
</g>
<g>
</g>
<g>
</g>
</svg>
