<?xml version="1.0" encoding="iso-8859-1"?>
<!-- Generator: Adobe Illustrator 19.0.0, SVG Export Plug-In . SVG Version: 6.00 Build 0)  -->
<svg version="1.1" id="Capa_1" xmlns="http://www.w3.org/2000/svg" xmlns:xlink="http://www.w3.org/1999/xlink" x="0px" y="0px"
	 viewBox="0 0 512 512" style="enable-background:new 0 0 512 512;" xml:space="preserve">
<g>
	<path style="fill:#A4C2F7;" d="M503.467,259.456v214.955c0,16.047-13.009,29.056-29.056,29.056H216.789
		c-16.047,0-29.056-13.009-29.056-29.056V259.456c0-16.047,13.009-29.056,29.056-29.056h257.621
		C490.458,230.4,503.467,243.409,503.467,259.456z"/>
	<path style="fill:#FFFFFF;" d="M324.267,259.456v214.955c0,16.047-13.009,29.056-29.056,29.056H37.589
		c-16.047,0-29.056-13.009-29.056-29.056V259.456c0-16.047,13.009-29.056,29.056-29.056h257.621
		C311.258,230.4,324.267,243.409,324.267,259.456z"/>
	<path style="fill:#E3E7F2;" d="M477.867,259.456v214.955c0,16.047-13.009,29.056-29.056,29.056H63.189
		c-16.047,0-29.056-13.009-29.056-29.056V259.456c0-16.047,13.009-29.056,29.056-29.056h385.621
		C464.858,230.4,477.867,243.409,477.867,259.456z"/>
	<g>
		
			<linearGradient id="SVGID_1_" gradientUnits="userSpaceOnUse" x1="-48.8064" y1="652.5535" x2="-47.9064" y2="651.4285" gradientTransform="matrix(341.3333 0 0 -273.0667 16787.2676 178403.9375)">
			<stop  offset="0" style="stop-color:#D4E1F4"/>
			<stop  offset="0.1717" style="stop-color:#D4E1F4"/>
			<stop  offset="0.2" style="stop-color:#D4E1F4"/>
			<stop  offset="0.2001" style="stop-color:#DAE4F4"/>
			<stop  offset="0.2007" style="stop-color:#EBEBF4"/>
			<stop  offset="0.2014" style="stop-color:#F6F1F4"/>
			<stop  offset="0.2023" style="stop-color:#FDF4F4"/>
			<stop  offset="0.205" style="stop-color:#FFF5F4"/>
			<stop  offset="0.2522" style="stop-color:#FFF5F4"/>
			<stop  offset="0.26" style="stop-color:#FFF5F4"/>
			<stop  offset="0.26" style="stop-color:#D4E1F4"/>
			<stop  offset="0.3974" style="stop-color:#D4E1F4"/>
			<stop  offset="0.42" style="stop-color:#D4E1F4"/>
			<stop  offset="0.4201" style="stop-color:#DAE4F4"/>
			<stop  offset="0.4207" style="stop-color:#EBEBF4"/>
			<stop  offset="0.4214" style="stop-color:#F6F1F4"/>
			<stop  offset="0.4223" style="stop-color:#FDF4F4"/>
			<stop  offset="0.425" style="stop-color:#FFF5F4"/>
			<stop  offset="0.4894" style="stop-color:#FFF5F4"/>
			<stop  offset="0.5" style="stop-color:#FFF5F4"/>
			<stop  offset="0.5" style="stop-color:#F9F2F4"/>
			<stop  offset="0.5001" style="stop-color:#E8EBF4"/>
			<stop  offset="0.5003" style="stop-color:#DDE5F4"/>
			<stop  offset="0.5005" style="stop-color:#D6E2F4"/>
			<stop  offset="0.501" style="stop-color:#D4E1F4"/>
			<stop  offset="0.7062" style="stop-color:#D4E1F4"/>
			<stop  offset="0.74" style="stop-color:#D4E1F4"/>
			<stop  offset="0.741" style="stop-color:#FFF5F4"/>
			<stop  offset="0.8346" style="stop-color:#FFF5F4"/>
			<stop  offset="0.85" style="stop-color:#FFF5F4"/>
			<stop  offset="0.851" style="stop-color:#D4E1F4"/>
		</linearGradient>
		<rect x="110.933" y="230.4" style="fill:url(#SVGID_1_);" width="341.333" height="273.067"/>
		
			<linearGradient id="SVGID_2_" gradientUnits="userSpaceOnUse" x1="-48.7544" y1="652.5168" x2="-47.8544" y2="651.3918" gradientTransform="matrix(264.5334 0 0 -250.9267 13152.0674 163724.6563)">
			<stop  offset="0" style="stop-color:#D4E1F4"/>
			<stop  offset="0.1717" style="stop-color:#D4E1F4"/>
			<stop  offset="0.2" style="stop-color:#D4E1F4"/>
			<stop  offset="0.2001" style="stop-color:#DAE4F4"/>
			<stop  offset="0.2007" style="stop-color:#EBEBF4"/>
			<stop  offset="0.2014" style="stop-color:#F6F1F4"/>
			<stop  offset="0.2023" style="stop-color:#FDF4F4"/>
			<stop  offset="0.205" style="stop-color:#FFF5F4"/>
			<stop  offset="0.2522" style="stop-color:#FFF5F4"/>
			<stop  offset="0.26" style="stop-color:#FFF5F4"/>
			<stop  offset="0.26" style="stop-color:#D4E1F4"/>
			<stop  offset="0.3974" style="stop-color:#D4E1F4"/>
			<stop  offset="0.42" style="stop-color:#D4E1F4"/>
			<stop  offset="0.4201" style="stop-color:#DAE4F4"/>
			<stop  offset="0.4207" style="stop-color:#EBEBF4"/>
			<stop  offset="0.4214" style="stop-color:#F6F1F4"/>
			<stop  offset="0.4223" style="stop-color:#FDF4F4"/>
			<stop  offset="0.425" style="stop-color:#FFF5F4"/>
			<stop  offset="0.4894" style="stop-color:#FFF5F4"/>
			<stop  offset="0.5" style="stop-color:#FFF5F4"/>
			<stop  offset="0.5" style="stop-color:#F9F2F4"/>
			<stop  offset="0.5001" style="stop-color:#E8EBF4"/>
			<stop  offset="0.5003" style="stop-color:#DDE5F4"/>
			<stop  offset="0.5005" style="stop-color:#D6E2F4"/>
			<stop  offset="0.501" style="stop-color:#D4E1F4"/>
			<stop  offset="0.7062" style="stop-color:#D4E1F4"/>
			<stop  offset="0.74" style="stop-color:#D4E1F4"/>
			<stop  offset="0.741" style="stop-color:#FFF5F4"/>
			<stop  offset="0.8346" style="stop-color:#FFF5F4"/>
			<stop  offset="0.85" style="stop-color:#FFF5F4"/>
			<stop  offset="0.851" style="stop-color:#D4E1F4"/>
		</linearGradient>
		<path style="fill:url(#SVGID_2_);" d="M238.933,37.593V230.4h235.473c7.707,0,15.099,3.061,20.549,8.511
			c5.45,5.45,8.512,12.841,8.512,20.549V37.593c0-7.707-3.062-15.099-8.512-20.549s-12.842-8.511-20.549-8.511H267.992
			C251.943,8.534,238.933,21.544,238.933,37.593z"/>
	</g>
	<circle style="fill:#A4C2F7;" cx="59.733" cy="366.933" r="25.6"/>
	<g>
		<path style="fill:#428DFF;" d="M474.408,512H37.592C16.84,511.976,0.024,495.16,0,474.408v-214.95
			c0.024-20.751,16.84-37.567,37.592-37.592h436.817c20.751,0.024,37.567,16.84,37.592,37.592v214.95
			C511.976,495.16,495.16,511.976,474.408,512L474.408,512z M37.592,238.933c-11.33,0.013-20.512,9.195-20.525,20.525v214.95
			c0.013,11.33,9.195,20.512,20.525,20.525h436.817c11.33-0.013,20.512-9.195,20.525-20.525v-214.95
			c-0.013-11.33-9.195-20.512-20.525-20.525H37.592z"/>
		<path style="fill:#428DFF;" d="M59.733,401.067c-18.851,0-34.133-15.282-34.133-34.133c0-18.851,15.282-34.133,34.133-34.133
			s34.133,15.282,34.133,34.133C93.847,385.776,78.576,401.047,59.733,401.067L59.733,401.067z M59.733,349.867
			c-9.426,0-17.067,7.641-17.067,17.067S50.308,384,59.733,384S76.8,376.359,76.8,366.933
			C76.789,357.512,69.155,349.877,59.733,349.867z"/>
		<path style="fill:#428DFF;" d="M110.933,512c-2.263,0.001-4.434-0.898-6.035-2.499c-1.6-1.6-2.499-3.771-2.499-6.035V230.4
			c0-4.713,3.821-8.533,8.533-8.533c4.713,0,8.533,3.82,8.533,8.533v273.067c0.001,2.263-0.898,4.434-2.499,6.035
			C115.368,511.102,113.197,512.001,110.933,512z"/>
		<path style="fill:#428DFF;" d="M452.267,512c-2.263,0.001-4.434-0.898-6.035-2.499c-1.6-1.6-2.499-3.771-2.499-6.035V230.4
			c0-4.713,3.82-8.533,8.533-8.533s8.533,3.82,8.533,8.533v273.067c0.001,2.263-0.898,4.434-2.499,6.035
			C456.701,511.102,454.53,512.001,452.267,512z"/>
		<path style="fill:#428DFF;" d="M477.867,375.467c-2.263,0.001-4.434-0.898-6.035-2.499c-1.6-1.6-2.499-3.771-2.499-6.035V332.8
			c0-4.713,3.821-8.533,8.533-8.533s8.533,3.82,8.533,8.533v34.133c0.001,2.263-0.898,4.434-2.499,6.035
			C482.301,374.568,480.13,375.467,477.867,375.467L477.867,375.467z"/>
		<path style="fill:#428DFF;" d="M477.867,409.6c-2.263,0.001-4.434-0.898-6.035-2.499c-1.6-1.6-2.499-3.771-2.499-6.035v-8.533
			c0-4.713,3.821-8.533,8.533-8.533s8.533,3.82,8.533,8.533v8.533c0.001,2.263-0.898,4.434-2.499,6.035
			C482.301,408.702,480.13,409.601,477.867,409.6L477.867,409.6z"/>
		<path style="fill:#428DFF;" d="M486.4,68.267H264.533c-4.713,0-8.533-3.821-8.533-8.533s3.821-8.533,8.533-8.533H486.4
			c4.713,0,8.533,3.821,8.533,8.533S491.113,68.267,486.4,68.267z"/>
		<path style="fill:#428DFF;" d="M503.467,267.992c-2.263,0.001-4.434-0.898-6.035-2.499c-1.6-1.6-2.499-3.771-2.499-6.035
			c-0.014-11.331-9.198-20.513-20.529-20.525H238.933c-2.263,0.001-4.434-0.898-6.035-2.499c-1.6-1.6-2.499-3.771-2.499-6.035
			V37.592C230.424,16.84,247.24,0.024,267.992,0h206.417C495.16,0.024,511.976,16.84,512,37.592v221.867
			c0.001,2.263-0.898,4.434-2.499,6.035C507.901,267.093,505.73,267.992,503.467,267.992L503.467,267.992z M247.467,221.867h226.938
			c7.292-0.008,14.428,2.115,20.529,6.108V37.592c-0.013-11.33-9.195-20.512-20.525-20.525H267.992
			c-11.33,0.013-20.512,9.195-20.525,20.525V221.867z"/>
		<path style="fill:#428DFF;" d="M34.133,187.733c-2.263,0.001-4.434-0.898-6.035-2.499c-1.6-1.6-2.499-3.771-2.499-6.035
			c0.069-61.238,49.695-110.864,110.933-110.933c4.713,0,8.533,3.821,8.533,8.533c0,4.713-3.821,8.533-8.533,8.533
			c-51.817,0.059-93.808,42.05-93.867,93.867c0.001,2.263-0.898,4.434-2.499,6.035C38.568,186.835,36.397,187.734,34.133,187.733
			L34.133,187.733z"/>
		<path style="fill:#428DFF;" d="M128,136.533c-3.451-0.001-6.562-2.08-7.882-5.268c-1.32-3.188-0.591-6.858,1.849-9.298l51.2-51.2
			c3.341-3.281,8.701-3.256,12.012,0.054c3.311,3.311,3.335,8.671,0.054,12.012l-51.2,51.2
			C132.435,135.636,130.264,136.536,128,136.533z"/>
		<path style="fill:#428DFF;" d="M179.2,85.333c-2.264,0.003-4.435-0.897-6.033-2.5l-51.2-51.2
			c-3.281-3.341-3.256-8.701,0.054-12.012s8.671-3.335,12.012-0.054l51.2,51.2c2.44,2.44,3.169,6.11,1.849,9.298
			S182.651,85.333,179.2,85.333z"/>
		<path style="fill:#428DFF;" d="M179.2,85.333h-42.667c-4.713,0-8.533-3.82-8.533-8.533c0-4.713,3.821-8.533,8.533-8.533H179.2
			c4.713,0,8.533,3.821,8.533,8.533C187.733,81.513,183.913,85.333,179.2,85.333z"/>
	</g>
</g>
<g>
</g>
<g>
</g>
<g>
</g>
<g>
</g>
<g>
</g>
<g>
</g>
<g>
</g>
<g>
</g>
<g>
</g>
<g>
</g>
<g>
</g>
<g>
</g>
<g>
</g>
<g>
</g>
<g>
</g>
</svg>
