<?xml version="1.0" encoding="iso-8859-1"?>
<!-- Generator: Adobe Illustrator 19.0.0, SVG Export Plug-In . SVG Version: 6.00 Build 0)  -->
<svg version="1.1" id="Capa_1" xmlns="http://www.w3.org/2000/svg" xmlns:xlink="http://www.w3.org/1999/xlink" x="0px" y="0px"
	 viewBox="0 0 512 512" style="enable-background:new 0 0 512 512;" xml:space="preserve">
<g>
	<path style="fill:#FFFFFF;" d="M136.533,72.533c-37.702,0-68.266,30.564-68.267,68.267c0,1.306,0.123,2.581,0.196,3.871
		c-0.083,1.56-0.196,3.129-0.196,4.663C32.317,167.61,9.355,204.2,8.533,244.521C8.696,300.277,53.855,345.436,109.611,345.6H153.6
		l20.685-261.662C163.106,76.487,149.968,72.518,136.533,72.533z"/>
	<path style="fill:#A4C2F7;" d="M425.975,157.867C425.21,83.049,364.946,22.478,290.133,21.333L374.746,345.6h33.893
		c51.911-0.152,93.956-42.197,94.107-94.108C502.651,206.007,470.56,166.871,425.975,157.867z"/>
	
		<linearGradient id="SVGID_1_" gradientUnits="userSpaceOnUse" x1="-48.7075" y1="652.355" x2="-48.0745" y2="651.4888" gradientTransform="matrix(443.7334 0 0 -324.2667 21728.0684 211628.4844)">
		<stop  offset="0" style="stop-color:#D4E1F4"/>
		<stop  offset="0.1717" style="stop-color:#D4E1F4"/>
		<stop  offset="0.2" style="stop-color:#D4E1F4"/>
		<stop  offset="0.2001" style="stop-color:#DAE4F4"/>
		<stop  offset="0.2007" style="stop-color:#EBEBF4"/>
		<stop  offset="0.2014" style="stop-color:#F6F1F4"/>
		<stop  offset="0.2023" style="stop-color:#FDF4F4"/>
		<stop  offset="0.205" style="stop-color:#FFF5F4"/>
		<stop  offset="0.2522" style="stop-color:#FFF5F4"/>
		<stop  offset="0.26" style="stop-color:#FFF5F4"/>
		<stop  offset="0.26" style="stop-color:#D4E1F4"/>
		<stop  offset="0.3974" style="stop-color:#D4E1F4"/>
		<stop  offset="0.42" style="stop-color:#D4E1F4"/>
		<stop  offset="0.4201" style="stop-color:#DAE4F4"/>
		<stop  offset="0.4207" style="stop-color:#EBEBF4"/>
		<stop  offset="0.4214" style="stop-color:#F6F1F4"/>
		<stop  offset="0.4223" style="stop-color:#FDF4F4"/>
		<stop  offset="0.425" style="stop-color:#FFF5F4"/>
		<stop  offset="0.4894" style="stop-color:#FFF5F4"/>
		<stop  offset="0.5" style="stop-color:#FFF5F4"/>
		<stop  offset="0.5" style="stop-color:#F9F2F4"/>
		<stop  offset="0.5001" style="stop-color:#E8EBF4"/>
		<stop  offset="0.5003" style="stop-color:#DDE5F4"/>
		<stop  offset="0.5005" style="stop-color:#D6E2F4"/>
		<stop  offset="0.501" style="stop-color:#D4E1F4"/>
		<stop  offset="0.7062" style="stop-color:#D4E1F4"/>
		<stop  offset="0.74" style="stop-color:#D4E1F4"/>
		<stop  offset="0.741" style="stop-color:#FFF5F4"/>
		<stop  offset="0.8346" style="stop-color:#FFF5F4"/>
		<stop  offset="0.85" style="stop-color:#FFF5F4"/>
		<stop  offset="0.851" style="stop-color:#D4E1F4"/>
	</linearGradient>
	<path style="fill:url(#SVGID_1_);" d="M401.096,157.867C400.33,83.049,340.067,22.479,265.254,21.333
		c-47.44,0-52.931,14.242-77.521,51.2c-10.816-7.194-11.636,0-25.6,0c-37.702,0-68.266,30.564-68.267,68.267
		c0,1.306,0.123,2.581,0.196,3.871c-0.083,1.56-0.196,3.129-0.196,4.663c-35.95,18.276-58.912,54.867-59.733,95.188
		c0.163,55.756,45.322,100.916,101.078,101.079h248.548c51.911-0.152,93.956-42.197,94.107-94.108
		C477.772,206.007,445.681,166.87,401.096,157.867L401.096,157.867z"/>
	<g>
		<path style="fill:#428DFF;" d="M383.988,166.4c-4.461-0.005-8.165-3.446-8.498-7.894c-0.333-4.449,2.817-8.403,7.228-9.072
			c15.01-2.004,30.219-2.007,45.229-0.009c4.634,0.717,7.822,5.04,7.137,9.679c-0.685,4.639-4.985,7.857-9.629,7.204
			c-13.336-1.708-26.834-1.711-40.171-0.009C384.855,166.366,384.421,166.399,383.988,166.4z"/>
		<path style="fill:#428DFF;" d="M204.8,149.333c-2.263,0.001-4.434-0.898-6.035-2.499c-1.6-1.6-2.499-3.771-2.499-6.035
			c0-32.99-26.744-59.733-59.733-59.733S76.8,107.81,76.8,140.8c0,4.713-3.82,8.533-8.533,8.533c-4.713,0-8.533-3.821-8.533-8.533
			c0-42.415,34.385-76.8,76.8-76.8s76.8,34.385,76.8,76.8c0.001,2.263-0.898,4.434-2.499,6.035
			C209.234,148.435,207.063,149.334,204.8,149.333L204.8,149.333z"/>
		<path style="fill:#428DFF;" d="M409.358,354.133h-33.892c-4.713,0-8.533-3.821-8.533-8.533s3.821-8.533,8.533-8.533h33.892
			c47.239-0.054,85.521-38.336,85.575-85.575c-0.201-41.343-29.323-76.899-69.817-85.242c-3.99-0.749-6.899-4.207-6.954-8.267
			c-0.515-70.228-57.085-127.157-127.308-128.117c-43.881,0.618-84.718,22.55-109.467,58.792c-1.252,1.886-3.202,3.196-5.421,3.643
			c-2.219,0.447-4.524-0.006-6.409-1.26c-18.332-12.178-41.877-13.286-61.271-2.882S76.793,118.792,76.8,140.8
			c0,0.717,0.054,1.425,0.104,2.133l0.079,1.267c0.017,0.305,0.017,0.611,0,0.917l-0.054,1.017c-0.063,1.075-0.129,2.15-0.129,3.2
			c0.001,3.283-1.884,6.275-4.846,7.692c-32.884,16.97-53.919,50.5-54.888,87.492c0.056,51.089,41.457,92.491,92.546,92.55H153.6
			c4.713,0,8.533,3.82,8.533,8.533s-3.821,8.533-8.533,8.533h-43.988C49.102,354.064,0.067,305.027,0,244.517
			C0.793,202.799,23.556,164.6,59.871,144.05c-0.071-1.075-0.137-2.15-0.137-3.25c0-26.81,13.981-51.68,36.886-65.613
			s51.418-14.914,75.226-2.587c28.203-37.366,72.195-59.471,119.008-59.8c76.935,0.93,139.967,61.364,144.133,138.192
			c45.251,12.518,76.694,53.551,77.012,100.5C511.937,308.153,466.02,354.07,409.358,354.133L409.358,354.133z"/>
	</g>
	<circle style="fill:#7FACFA;" cx="264.533" cy="345.6" r="85.333"/>
	<ellipse style="fill:#A4C2F7;" cx="251.733" cy="345.6" rx="72.533" ry="85.333"/>
	<g>
		<path style="fill:#428DFF;" d="M264.533,439.467c-51.841,0-93.867-42.026-93.867-93.867s42.026-93.867,93.867-93.867
			S358.4,293.759,358.4,345.6C358.341,397.417,316.35,439.408,264.533,439.467L264.533,439.467z M264.533,268.8
			c-42.415,0-76.8,34.385-76.8,76.8s34.385,76.8,76.8,76.8s76.8-34.385,76.8-76.8C341.286,303.204,306.929,268.848,264.533,268.8z"
			/>
		<path style="fill:#428DFF;" d="M409.6,499.2c-2.264,0.003-4.435-0.897-6.033-2.5l-84.729-84.725
			c-2.155-2.156-2.997-5.297-2.208-8.242c0.789-2.944,3.089-5.244,6.033-6.033c2.944-0.789,6.086,0.053,8.242,2.208l84.729,84.725
			c2.44,2.44,3.169,6.11,1.849,9.298C416.162,497.12,413.051,499.199,409.6,499.2z"/>
	</g>
</g>
<g>
</g>
<g>
</g>
<g>
</g>
<g>
</g>
<g>
</g>
<g>
</g>
<g>
</g>
<g>
</g>
<g>
</g>
<g>
</g>
<g>
</g>
<g>
</g>
<g>
</g>
<g>
</g>
<g>
</g>
</svg>
