<?xml version="1.0" encoding="iso-8859-1"?>
<!-- Generator: Adobe Illustrator 19.0.0, SVG Export Plug-In . SVG Version: 6.00 Build 0)  -->
<svg version="1.1" id="Capa_1" xmlns="http://www.w3.org/2000/svg" xmlns:xlink="http://www.w3.org/1999/xlink" x="0px" y="0px"
	 viewBox="0 0 510.787 510.787" style="enable-background:new 0 0 510.787 510.787;" xml:space="preserve">
<g>
	<polygon style="fill:#A4C2F7;" points="255.393,20.992 331.489,175.177 501.647,199.899 378.52,319.917 407.585,489.389 
		255.393,409.371 103.201,489.389 132.267,319.917 9.14,199.899 179.297,175.177 	"/>
	
		<linearGradient id="SVGID_1_" gradientUnits="userSpaceOnUse" x1="-49.3563" y1="655.204" x2="-48.6605" y2="654.4731" gradientTransform="matrix(453.5826 0 0 -431.8236 22463.8008 283067.9375)">
		<stop  offset="0" style="stop-color:#D4E1F4"/>
		<stop  offset="0.1717" style="stop-color:#D4E1F4"/>
		<stop  offset="0.2" style="stop-color:#D4E1F4"/>
		<stop  offset="0.2001" style="stop-color:#DAE4F4"/>
		<stop  offset="0.2007" style="stop-color:#EBEBF4"/>
		<stop  offset="0.2014" style="stop-color:#F6F1F4"/>
		<stop  offset="0.2023" style="stop-color:#FDF4F4"/>
		<stop  offset="0.205" style="stop-color:#FFF5F4"/>
		<stop  offset="0.2522" style="stop-color:#FFF5F4"/>
		<stop  offset="0.26" style="stop-color:#FFF5F4"/>
		<stop  offset="0.26" style="stop-color:#D4E1F4"/>
		<stop  offset="0.3974" style="stop-color:#D4E1F4"/>
		<stop  offset="0.42" style="stop-color:#D4E1F4"/>
		<stop  offset="0.4201" style="stop-color:#DAE4F4"/>
		<stop  offset="0.4207" style="stop-color:#EBEBF4"/>
		<stop  offset="0.4214" style="stop-color:#F6F1F4"/>
		<stop  offset="0.4223" style="stop-color:#FDF4F4"/>
		<stop  offset="0.425" style="stop-color:#FFF5F4"/>
		<stop  offset="0.4894" style="stop-color:#FFF5F4"/>
		<stop  offset="0.5" style="stop-color:#FFF5F4"/>
		<stop  offset="0.5" style="stop-color:#F9F2F4"/>
		<stop  offset="0.5001" style="stop-color:#E8EBF4"/>
		<stop  offset="0.5003" style="stop-color:#DDE5F4"/>
		<stop  offset="0.5005" style="stop-color:#D6E2F4"/>
		<stop  offset="0.501" style="stop-color:#D4E1F4"/>
		<stop  offset="0.7062" style="stop-color:#D4E1F4"/>
		<stop  offset="0.74" style="stop-color:#D4E1F4"/>
		<stop  offset="0.741" style="stop-color:#FFF5F4"/>
		<stop  offset="0.8346" style="stop-color:#FFF5F4"/>
		<stop  offset="0.85" style="stop-color:#FFF5F4"/>
		<stop  offset="0.851" style="stop-color:#D4E1F4"/>
	</linearGradient>
	<path style="fill:url(#SVGID_1_);" d="M465.679,199.902l-170.154-24.726L237.108,57.563l-54.857,117.614L12.096,199.902
		l123.125,120.018l-29.067,169.466l121.81-75.252l16.346,6.129c0.029-0.121-0.011-0.259,0.022-0.377
		c1.572-5.172,6.918-8.208,12.165-6.908c11.533,1.982,22.486,6.484,32.078,13.188c1.404,1.068,2.557,2.431,3.377,3.993
		c1.507,0.642,2.793,1.71,3.701,3.074c1.242-0.53,2.578-0.802,3.929-0.799c4.174-0.182,7.902,2.592,8.927,6.643
		c3.303-1.94,7.448-1.706,10.512,0.593c3.064,2.299,4.448,6.213,3.509,9.927l51.719,19.395L342.554,319.92L465.679,199.902z"/>
	<path style="fill:#FFFFFF;" d="M179.417,175.177L9.263,199.902l123.125,120.018l-29.066,169.467l43.729-22.989
		c-0.224-0.346-0.427-0.705-0.607-1.076l-9.788,3.67l31.696-149.071L45.227,199.902l127.881-23.482L179.417,175.177z"/>
	<path style="fill:#428DFF;" d="M407.581,498.527c-1.484,0-2.946-0.362-4.259-1.054l-147.929-77.768l-147.929,77.768
		c-3.08,1.621-6.813,1.352-9.629-0.693s-4.227-5.511-3.639-8.941l28.25-164.723L2.759,206.447c-2.491-2.429-3.387-6.062-2.311-9.371
		s3.938-5.72,7.382-6.218l165.393-24.036l73.973-149.875c1.709-2.904,4.827-4.688,8.197-4.688c3.37,0,6.488,1.783,8.197,4.688
		l73.973,149.875l165.393,24.036c3.444,0.498,6.306,2.909,7.382,6.218s0.181,6.942-2.311,9.371L388.34,323.117l28.25,164.723
		c0.454,2.656-0.285,5.377-2.022,7.437C412.831,497.336,410.275,498.526,407.581,498.527L407.581,498.527z M255.393,400.233
		c1.484-0.001,2.946,0.361,4.259,1.054l135.786,71.384l-25.928-151.205c-0.509-2.964,0.472-5.989,2.625-8.089l109.857-107.089
		l-151.812-22.062c-2.979-0.43-5.554-2.3-6.884-5L255.393,41.653l-67.902,137.571c-1.33,2.7-3.905,4.57-6.884,5L28.795,206.286
		l109.857,107.089c2.152,2.1,3.134,5.125,2.625,8.089L115.349,472.67l135.786-71.384
		C252.447,400.594,253.909,400.232,255.393,400.233z"/>
</g>
<g>
</g>
<g>
</g>
<g>
</g>
<g>
</g>
<g>
</g>
<g>
</g>
<g>
</g>
<g>
</g>
<g>
</g>
<g>
</g>
<g>
</g>
<g>
</g>
<g>
</g>
<g>
</g>
<g>
</g>
</svg>
