<?xml version="1.0" encoding="iso-8859-1"?>
<!-- Generator: Adobe Illustrator 19.0.0, SVG Export Plug-In . SVG Version: 6.00 Build 0)  -->
<svg version="1.1" id="Capa_1" xmlns="http://www.w3.org/2000/svg" xmlns:xlink="http://www.w3.org/1999/xlink" x="0px" y="0px"
	 viewBox="0 0 512 512" style="enable-background:new 0 0 512 512;" xml:space="preserve">
<g transform="translate(0 -1)">
	<polygon style="fill:#A4C2F7;" points="335.127,475.768 176.873,447.84 176.873,47.55 335.127,84.786 	"/>
	<polygon style="fill:#E3E7F2;" points="307.2,475.768 186.182,447.84 186.182,47.55 307.2,84.786 	"/>
	<polygon style="fill:#A4C2F7;" points="502.691,410.604 335.127,475.768 335.127,84.786 502.691,28.931 	"/>
	<polygon style="fill:#E3E7F2;" points="474.764,419.913 344.436,475.768 344.436,84.786 474.764,38.24 	"/>
	<polygon style="fill:#A4C2F7;" points="176.873,447.84 65.164,475.768 65.164,75.477 176.873,47.55 	"/>
	<polygon style="fill:#FFFFFF;" points="121.018,457.15 9.309,485.077 9.309,84.786 121.018,56.859 	"/>
	<polygon style="fill:#E3E7F2;" points="148.945,457.15 37.236,485.077 37.236,84.786 148.945,56.859 	"/>
	<g>
		<path style="fill:#428DFF;" d="M9.309,494.386c-2.469,0-4.837-0.981-6.583-2.726S0,487.546,0,485.077V84.786
			c0.003-4.363,3.032-8.141,7.291-9.091l167.564-37.236c2.757-0.611,5.641,0.062,7.844,1.829c2.202,1.767,3.483,4.438,3.484,7.262
			V447.84c-0.003,4.363-3.032,8.141-7.291,9.091L11.327,494.168C10.664,494.312,9.988,494.386,9.309,494.386z M18.618,92.25v381.218
			l148.945-33.091V59.159L18.618,92.25z"/>
		<path style="fill:#428DFF;" d="M335.127,485.077c-5.14-0.003-9.306-4.169-9.309-9.309V84.786
			c-0.002-4.006,2.562-7.563,6.364-8.827l167.564-55.855c2.836-0.964,5.964-0.489,8.386,1.273c2.429,1.75,3.868,4.561,3.868,7.555
			v381.673c-0.002,3.838-2.359,7.282-5.936,8.673L338.5,484.44C337.425,484.862,336.281,485.077,335.127,485.077z M344.436,91.495
			v370.664l148.945-57.918V41.85L344.436,91.495z"/>
		<path style="fill:#428DFF;" d="M335.127,485.077c-0.543,0.001-1.084-0.048-1.618-0.145l-158.255-27.927
			c-4.449-0.781-7.693-4.647-7.691-9.164V47.55c-0.002-2.845,1.298-5.534,3.527-7.3c2.23-1.766,5.145-2.416,7.913-1.764
			l158.255,37.236c4.205,0.991,7.176,4.744,7.177,9.064v390.982C344.431,480.907,340.266,485.071,335.127,485.077L335.127,485.077z
			 M186.182,440.031l139.636,24.636V92.159L186.182,59.304V440.031z"/>
	</g>
</g>
<g>
</g>
<g>
</g>
<g>
</g>
<g>
</g>
<g>
</g>
<g>
</g>
<g>
</g>
<g>
</g>
<g>
</g>
<g>
</g>
<g>
</g>
<g>
</g>
<g>
</g>
<g>
</g>
<g>
</g>
</svg>
