<?xml version="1.0" encoding="iso-8859-1"?>
<!-- Generator: Adobe Illustrator 19.0.0, SVG Export Plug-In . SVG Version: 6.00 Build 0)  -->
<svg version="1.1" id="Capa_1" xmlns="http://www.w3.org/2000/svg" xmlns:xlink="http://www.w3.org/1999/xlink" x="0px" y="0px"
	 viewBox="0 0 512 512" style="enable-background:new 0 0 512 512;" xml:space="preserve">
<g transform="translate(0 -1)">
	<polygon style="fill:#A4C2F7;" points="502.519,408.708 341.333,494.041 341.333,105.3 502.519,19.967 	"/>
	<polygon style="fill:#E3E7F2;" points="474.074,418.189 341.333,494.041 341.333,105.3 474.074,38.93 	"/>
	<polygon style="fill:#A4C2F7;" points="341.333,494.041 180.148,427.671 180.148,19.967 341.333,105.3 	"/>
	<polygon style="fill:#E3E7F2;" points="312.889,484.56 180.148,418.189 180.148,19.967 312.889,95.819 	"/>
	<polygon style="fill:#A4C2F7;" points="180.148,427.671 104.296,456.115 104.296,48.412 180.148,19.967 	"/>
	<polygon style="fill:#FFFFFF;" points="85.333,456.115 9.481,484.56 9.481,76.856 85.333,48.412 	"/>
	<polygon style="fill:#E3E7F2;" points="151.704,427.671 37.926,475.078 37.926,67.375 151.704,19.967 	"/>
	<circle style="fill:#7FACFA;" cx="104.296" cy="133.745" r="37.926"/>
	<path style="fill:#A4C2F7;" d="M84.405,96.872c-1.112,3.838-4.56,6.529-8.553,6.674v57.401c0.517-0.151,1.046-0.259,1.58-0.322
		c5.203-0.146,9.547,3.937,9.724,9.139c16.331-5.041,27.239-20.423,26.594-37.502S101.069,100.668,84.405,96.872L84.405,96.872z"/>
	<g>
		<path style="fill:#428DFF;" d="M9.481,494.041c-2.515,0.001-4.927-0.998-6.705-2.776c-1.778-1.778-2.777-4.19-2.776-6.705V76.856
			c-0.002-4.08,2.61-7.703,6.481-8.991l170.667-56.889c2.889-0.981,6.074-0.498,8.542,1.296c2.474,1.783,3.939,4.645,3.94,7.694
			v407.704c0.002,4.08-2.61,7.703-6.481,8.991L12.482,493.55C11.515,493.877,10.502,494.043,9.481,494.041z M18.963,83.689v387.713
			l151.704-50.565V33.125L18.963,83.689z"/>
		<path style="fill:#428DFF;" d="M341.333,503.523c-5.235-0.004-9.477-4.247-9.481-9.481V105.3c-0.001-3.513,1.941-6.738,5.046-8.38
			l161.185-85.333c2.939-1.554,6.477-1.455,9.325,0.26s4.59,4.796,4.592,8.12v388.741c0.001,3.513-1.941,6.738-5.046,8.38
			l-161.185,85.333C344.402,503.143,342.879,503.521,341.333,503.523z M350.815,111.013v367.278l142.222-75.296V35.717
			L350.815,111.013z"/>
		<path style="fill:#428DFF;" d="M341.333,503.523c-1.239,0.002-2.466-0.24-3.611-0.713l-161.185-66.37
			c-3.552-1.464-5.87-4.926-5.87-8.768V19.967c0.002-3.324,1.744-6.405,4.592-8.12c2.848-1.715,6.386-1.813,9.325-0.26
			l161.185,85.333c3.105,1.642,5.047,4.867,5.046,8.38v388.741c0.002,2.515-0.997,4.928-2.775,6.706
			C346.261,502.526,343.848,503.524,341.333,503.523z M189.63,421.319l142.222,58.565v-368.87L189.63,35.717V421.319z"/>
		<path style="fill:#428DFF;" d="M104.296,209.597c-2.515,0.001-4.927-0.998-6.705-2.776c-1.778-1.778-2.777-4.19-2.776-6.705
			v-28.444c0-5.236,4.245-9.481,9.481-9.481s9.481,4.245,9.481,9.481v28.444c0.001,2.515-0.998,4.927-2.776,6.705
			C109.223,208.599,106.811,209.597,104.296,209.597L104.296,209.597z"/>
		<path style="fill:#428DFF;" d="M104.296,181.152c-26.182,0-47.407-21.225-47.407-47.407s21.225-47.407,47.407-47.407
			s47.407,21.225,47.407,47.407C151.673,159.915,130.466,181.122,104.296,181.152L104.296,181.152z M104.296,105.3
			c-15.709,0-28.444,12.735-28.444,28.444s12.735,28.444,28.444,28.444s28.444-12.735,28.444-28.444
			C132.724,118.043,119.999,105.318,104.296,105.3z"/>
		<path style="fill:#428DFF;" d="M66.384,418.189c-0.435,0-0.869-0.028-1.301-0.083c-5.187-0.716-8.814-5.497-8.107-10.686
			c6.7-39.258,28.608-74.291,60.972-97.5c37.981-25.528,88.403-30.463,149.889-14.694c0.677,0.176,1.334,0.425,1.958,0.741
			c0.676,0.352,68.088,34.037,115.935,3.009c38.083-24.694,55.051-83.315,50.43-174.232c-0.172-3.382,1.474-6.6,4.317-8.44
			c2.843-1.84,6.452-2.024,9.468-0.481c3.015,1.542,4.979,4.576,5.151,7.958c4.995,98.231-14.903,162.546-59.139,191.157
			c-54.255,35.093-124.213,3.093-133.796-1.593c-55.569-14.074-100.532-9.935-133.634,12.306
			c-27.801,20.263-46.703,50.479-52.764,84.343C75.122,414.684,71.118,418.182,66.384,418.189z"/>
		<path style="fill:#428DFF;" d="M123.259,275.967c-2.515,0.003-4.928-0.997-6.703-2.778L78.63,235.263
			c-3.645-3.712-3.618-9.668,0.06-13.346c3.679-3.679,9.635-3.706,13.346-0.06l37.926,37.926c2.711,2.712,3.522,6.789,2.054,10.332
			C130.55,273.656,127.094,275.966,123.259,275.967z"/>
		<path style="fill:#428DFF;" d="M85.333,275.967c-3.834-0.001-7.291-2.311-8.758-5.853c-1.467-3.542-0.656-7.62,2.054-10.332
			l37.926-37.926c3.712-3.645,9.668-3.618,13.346,0.06c3.679,3.679,3.706,9.635,0.06,13.346l-37.926,37.926
			C90.261,274.97,87.848,275.97,85.333,275.967z"/>
	</g>
</g>
<g>
</g>
<g>
</g>
<g>
</g>
<g>
</g>
<g>
</g>
<g>
</g>
<g>
</g>
<g>
</g>
<g>
</g>
<g>
</g>
<g>
</g>
<g>
</g>
<g>
</g>
<g>
</g>
<g>
</g>
</svg>
