<?xml version="1.0" encoding="iso-8859-1"?>
<!-- Generator: Adobe Illustrator 19.0.0, SVG Export Plug-In . SVG Version: 6.00 Build 0)  -->
<svg version="1.1" id="Capa_1" xmlns="http://www.w3.org/2000/svg" xmlns:xlink="http://www.w3.org/1999/xlink" x="0px" y="0px"
	 viewBox="0 0 512 512" style="enable-background:new 0 0 512 512;" xml:space="preserve">
<g>
	<polygon style="fill:#A4C2F7;" points="375.467,46.934 256,98.134 256,465.067 375.467,413.867 	"/>
	<polygon style="fill:#E3E7F2;" points="349.867,55.467 256,98.134 256,465.067 349.867,413.867 	"/>
	<polygon style="fill:#7FACFA;" points="256,465.067 136.533,413.867 136.533,46.934 256,98.134 	"/>
	<polygon style="fill:#A4C2F7;" points="230.4,456.534 136.533,413.867 136.533,46.934 230.4,98.134 	"/>
	<polygon style="fill:#7FACFA;" points="503.467,473.601 384,422.401 384,55.467 503.467,106.667 	"/>
	<g>
		<polygon style="fill:#A4C2F7;" points="477.867,465.067 384,422.401 384,55.467 477.867,106.667 		"/>
		<polygon style="fill:#A4C2F7;" points="136.533,413.867 59.733,448.001 59.733,81.067 136.533,46.934 		"/>
	</g>
	<polygon style="fill:#FFFFFF;" points="85.333,430.934 8.533,465.067 8.533,98.134 85.333,64.001 	"/>
	<polygon style="fill:#E3E7F2;" points="110.933,413.867 34.133,456.534 34.133,89.601 110.933,46.934 	"/>
	<g>
		<path style="fill:#428DFF;" d="M8.533,473.601c-4.713,0-8.533-3.82-8.533-8.533V98.134c0.001-3.489,2.124-6.627,5.363-7.925
			l128-51.2c2.63-1.051,5.609-0.729,7.954,0.858c2.345,1.588,3.75,4.235,3.75,7.067v366.933c-0.001,3.489-2.124,6.627-5.363,7.925
			l-128,51.2C10.695,473.394,9.619,473.601,8.533,473.601z M17.067,103.909v348.558L128,408.092V59.534L17.067,103.909z"/>
		<path style="fill:#428DFF;" d="M256,473.601c-1.156,0.002-2.3-0.233-3.362-0.691l-119.467-51.2
			c-3.139-1.343-5.173-4.428-5.171-7.842V46.934c0-2.869,1.441-5.545,3.836-7.124c2.395-1.579,5.423-1.848,8.059-0.718l119.467,51.2
			c3.138,1.343,5.173,4.428,5.171,7.842v366.933C264.533,469.78,260.713,473.601,256,473.601z M145.067,408.242l102.4,43.883
			V103.759l-102.4-43.883V408.242z"/>
		<path style="fill:#428DFF;" d="M256,473.601c-4.713,0-8.533-3.82-8.533-8.533V98.134c-0.002-3.414,2.033-6.499,5.171-7.842
			l119.467-51.2c2.636-1.131,5.664-0.861,8.059,0.718c2.395,1.579,3.836,4.256,3.836,7.124v366.933
			c0.002,3.414-2.033,6.499-5.171,7.842l-119.467,51.2C258.3,473.367,257.156,473.602,256,473.601L256,473.601z M264.533,103.759
			v348.367l102.4-43.883V59.876L264.533,103.759z"/>
		<path style="fill:#428DFF;" d="M503.467,473.601c-1.086,0-2.162-0.206-3.171-0.608l-128-51.2
			c-3.239-1.298-5.362-4.436-5.363-7.925V46.934c-0.001-2.917,1.488-5.632,3.948-7.199c2.46-1.567,5.55-1.769,8.193-0.534
			l128,59.733c3.005,1.402,4.926,4.417,4.925,7.733v358.4C512,469.78,508.18,473.601,503.467,473.601z M384,408.092l110.933,44.375
			V112.101L384,60.334V408.092z"/>
	</g>
</g>
<g>
</g>
<g>
</g>
<g>
</g>
<g>
</g>
<g>
</g>
<g>
</g>
<g>
</g>
<g>
</g>
<g>
</g>
<g>
</g>
<g>
</g>
<g>
</g>
<g>
</g>
<g>
</g>
<g>
</g>
</svg>
