<?xml version="1.0" encoding="iso-8859-1"?>
<!-- Generator: Adobe Illustrator 19.0.0, SVG Export Plug-In . SVG Version: 6.00 Build 0)  -->
<svg version="1.1" id="Capa_1" xmlns="http://www.w3.org/2000/svg" xmlns:xlink="http://www.w3.org/1999/xlink" x="0px" y="0px"
	 viewBox="0 0 512.032 512.032" style="enable-background:new 0 0 512.032 512.032;" xml:space="preserve">
<g>
	<path style="fill:#A4C2F7;" d="M266.041,452.283l-124.086-179.2c-46.313-61.751-40.173-164.523,14.408-219.103l0,0
		c60.573-60.573,158.781-60.573,219.354,0l0,0c54.581,54.581,60.722,157.352,14.409,219.103L266.041,452.283z"/>
	<path style="fill:#E3E7F2;" d="M264.532,452.283l-116.809-179.2c-46.313-61.751-40.173-164.523,14.409-219.103l0,0
		c60.573-60.573,124.395-60.573,184.969,0l0,0c54.581,54.581,60.722,157.352,14.408,219.103L264.532,452.283z"/>
	<circle style="fill:#7FACFA;" cx="267.553" cy="162.149" r="51.2"/>
	<ellipse style="fill:#A4C2F7;" cx="251.732" cy="162.149" rx="38.4" ry="51.2"/>
	<path style="fill:#FFFFFF;" d="M156.363,53.979L156.363,53.979c30.65-30.659,72.77-47.032,116.08-45.123
		c-29.422,1.542-58.806,16.467-87.462,45.123h-0.001c-54.581,54.582-60.722,157.352-14.408,219.104l96.315,177.977l-0.847,1.223
		l-124.086-179.2C95.641,211.331,101.782,108.56,156.363,53.979z"/>
	<g>
		<path style="fill:#428DFF;" d="M267.548,221.883c-32.99,0-59.733-26.744-59.733-59.733s26.744-59.733,59.733-59.733
			s59.733,26.744,59.733,59.733C327.243,195.123,300.522,221.844,267.548,221.883z M267.548,119.483
			c-23.564,0-42.667,19.103-42.667,42.667s19.103,42.667,42.667,42.667c23.564,0,42.667-19.103,42.667-42.667
			C310.188,138.597,291.101,119.51,267.548,119.483L267.548,119.483z"/>
		<path style="fill:#428DFF;" d="M266.04,460.816c-2.8-0.001-5.421-1.374-7.017-3.675l-124.083-179.2
			c-48.913-65.2-41.808-172.8,15.392-229.992c30.687-30.691,72.31-47.933,115.71-47.933s85.024,17.242,115.71,47.933
			c57.196,57.192,64.304,164.783,15.2,230.25L273.057,457.141C271.461,459.442,268.84,460.815,266.04,460.816z M266.04,17.083
			c-38.895-0.105-76.215,15.355-103.642,42.933c-51.625,51.617-57.988,148.792-13.617,207.95L266.04,437.291l117.071-169.067
			c44.554-59.417,38.196-156.592-13.425-208.208C342.257,32.438,304.936,16.979,266.04,17.083z"/>
		<path style="fill:#428DFF;" d="M8.532,512.016c-3.451-0.001-6.562-2.08-7.882-5.268c-1.32-3.188-0.591-6.858,1.849-9.298
			l51.2-51.2c1.6-1.6,3.77-2.5,6.033-2.5h162.133c4.713,0,8.533,3.82,8.533,8.533s-3.821,8.533-8.533,8.533h-158.6l-48.7,48.7
			C12.967,511.119,10.795,512.019,8.532,512.016L8.532,512.016z"/>
		<path style="fill:#428DFF;" d="M8.532,458.749c-3.451-0.001-6.562-2.08-7.882-5.268c-1.32-3.188-0.591-6.858,1.849-9.298
			l33.075-33.075c1.594-1.592,3.34-3.024,5.212-4.275c0.704-0.459,1.436-0.873,2.192-1.242l0.813-0.442
			c0.939-0.554,1.913-1.047,2.917-1.475c0.907-0.361,1.835-0.664,2.779-0.908l1.117-0.333c0.781-0.269,1.577-0.494,2.383-0.675
			c2.222-0.441,4.481-0.667,6.745-0.675h128c4.713,0,8.533,3.821,8.533,8.533c0,4.713-3.821,8.533-8.533,8.533h-128
			c-1.131,0.005-2.258,0.12-3.367,0.341c-0.092,0.025-1.354,0.442-1.446,0.467l-0.9,0.258l-0.846,0.258
			c-0.312,0.144-0.614,0.308-0.905,0.492l-0.775,0.433l-0.875,0.45c-1.083,0.652-2.083,1.433-2.979,2.325l-33.075,33.075
			C12.966,457.852,10.795,458.752,8.532,458.749L8.532,458.749z"/>
		<path style="fill:#428DFF;" d="M452.265,460.816H307.198c-4.713,0-8.533-3.82-8.533-8.533s3.821-8.533,8.533-8.533h141.533
			l48.7-48.7c3.338-3.296,8.711-3.28,12.029,0.038c3.317,3.317,3.334,8.69,0.038,12.029l-51.2,51.2
			C456.699,459.917,454.528,460.816,452.265,460.816L452.265,460.816z"/>
		<path style="fill:#428DFF;" d="M59.736,512.016c-3.62,0-6.847-2.283-8.051-5.697c-1.204-3.414-0.123-7.216,2.696-9.487l10.6-8.533
			c1.517-1.218,3.404-1.882,5.35-1.883h381.933c1.114-0.001,2.226-0.115,3.317-0.341c0.083-0.025,1.4-0.442,1.483-0.467l0.892-0.25
			c0.275-0.083,0.558-0.142,0.825-0.25c0.349-0.161,0.688-0.342,1.017-0.542l1.6-0.867c1.075-0.648,2.068-1.423,2.958-2.308
			l33.075-33.075c2.151-2.176,5.303-3.033,8.26-2.247s5.267,3.096,6.053,6.053c0.786,2.957-0.071,6.109-2.247,8.26l-33.075,33.075
			c-1.603,1.598-3.358,3.036-5.242,4.292c-0.677,0.441-1.381,0.839-2.108,1.192l-0.842,0.458c-0.928,0.544-1.888,1.031-2.875,1.458
			c-0.932,0.376-1.887,0.694-2.859,0.95l-1.067,0.317c-0.823,0.286-1.663,0.517-2.517,0.692c-2.189,0.442-4.416,0.665-6.649,0.666
			H73.34l-8.258,6.65C63.568,511.353,61.681,512.018,59.736,512.016z"/>
		<path style="fill:#428DFF;" d="M441.665,418.149H341.332c-4.713,0-8.533-3.821-8.533-8.533c0-4.713,3.821-8.533,8.533-8.533h96.8
			l23.1-23.1c2.152-2.171,5.302-3.025,8.256-2.238c2.954,0.787,5.261,3.094,6.048,6.048c0.787,2.954-0.066,6.103-2.237,8.256
			l-25.6,25.6C446.099,417.25,443.928,418.15,441.665,418.149L441.665,418.149z"/>
	</g>
</g>
<g>
</g>
<g>
</g>
<g>
</g>
<g>
</g>
<g>
</g>
<g>
</g>
<g>
</g>
<g>
</g>
<g>
</g>
<g>
</g>
<g>
</g>
<g>
</g>
<g>
</g>
<g>
</g>
<g>
</g>
</svg>
