<?xml version="1.0" encoding="iso-8859-1"?>
<!-- Generator: Adobe Illustrator 19.0.0, SVG Export Plug-In . SVG Version: 6.00 Build 0)  -->
<svg version="1.1" id="Capa_1" xmlns="http://www.w3.org/2000/svg" xmlns:xlink="http://www.w3.org/1999/xlink" x="0px" y="0px"
	 viewBox="0 0 512 512" style="enable-background:new 0 0 512 512;" xml:space="preserve">
<g>
	<path style="fill:#A4C2F7;" d="M393.096,324.267h-43.229l-92.92,128l-88.633-128H93.304L8.628,502.086
		c-0.142,0.299-0.122,0.65,0.055,0.931c0.177,0.28,0.485,0.45,0.816,0.45h467.4c0.331,0,0.639-0.17,0.816-0.45
		c0.177-0.28,0.198-0.631,0.055-0.93L393.096,324.267z"/>
	<path style="fill:#7FACFA;" d="M417.571,324.267h-25.038l84.676,177.821c0.142,0.299,0.122,0.65-0.055,0.93
		s-0.485,0.45-0.816,0.449h25.037c0.331,0,0.639-0.169,0.816-0.449c0.177-0.28,0.198-0.631,0.056-0.93L417.571,324.267z"/>
	<path style="fill:#FFFFFF;" d="M94.429,324.267h25.038L34.79,502.088c-0.142,0.299-0.122,0.65,0.055,0.93s0.485,0.45,0.816,0.449
		H10.624c-0.331,0-0.639-0.169-0.816-0.449s-0.198-0.631-0.056-0.93L94.429,324.267z"/>
	<path style="fill:#A4C2F7;" d="M257.509,452.267l-124.086-179.2C87.109,211.315,93.25,108.544,147.831,53.963l0,0
		c60.573-60.573,158.781-60.573,219.354,0l0,0c54.581,54.581,60.722,157.352,14.409,219.103L257.509,452.267z"/>
	<path style="fill:#E3E7F2;" d="M256,452.267l-116.809-179.2C92.878,211.315,99.019,108.544,153.6,53.963l0,0
		c60.573-60.573,124.395-60.573,184.969,0l0,0c54.581,54.581,60.722,157.352,14.408,219.103L256,452.267z"/>
	<circle style="fill:#7FACFA;" cx="259.021" cy="162.133" r="51.2"/>
	<ellipse style="fill:#A4C2F7;" cx="243.2" cy="162.133" rx="38.4" ry="51.2"/>
	<path style="fill:#FFFFFF;" d="M147.831,53.963L147.831,53.963c30.65-30.659,72.77-47.032,116.08-45.123
		c-29.422,1.542-58.806,16.467-87.462,45.123h-0.001c-54.581,54.582-60.722,157.352-14.408,219.104l96.315,177.977l-0.847,1.223
		l-124.086-179.2C87.109,211.315,93.251,108.544,147.831,53.963z"/>
	<g>
		<path style="fill:#428DFF;" d="M259.017,221.867c-32.99,0-59.733-26.744-59.733-59.733s26.744-59.733,59.733-59.733
			s59.733,26.744,59.733,59.733C318.71,195.107,291.99,221.827,259.017,221.867L259.017,221.867z M259.017,119.467
			c-23.564,0-42.667,19.103-42.667,42.667s19.103,42.667,42.667,42.667s42.667-19.103,42.667-42.667
			C301.656,138.581,282.569,119.494,259.017,119.467L259.017,119.467z"/>
		<path style="fill:#428DFF;" d="M257.508,460.8c-2.8,0-5.422-1.373-7.017-3.675l-124.083-179.2
			c-48.917-65.2-41.808-172.8,15.392-229.992C172.486,17.242,214.108,0,257.508,0c43.4,0,85.022,17.242,115.708,47.933
			c57.2,57.192,64.308,164.792,15.2,230.25L264.525,457.125C262.93,459.427,260.308,460.8,257.508,460.8z M257.508,17.067
			C218.614,16.962,181.294,32.422,153.867,60c-51.625,51.617-57.983,148.792-13.617,207.95l117.258,169.325l117.067-169.067
			c44.558-59.417,38.2-156.592-13.425-208.208C333.723,32.422,296.403,16.962,257.508,17.067z"/>
		<path style="fill:#428DFF;" d="M501.942,512H10.058c-3.265-0.004-6.299-1.683-8.037-4.447c-1.737-2.764-1.934-6.227-0.522-9.17
			L86.158,320.6c1.416-2.973,4.415-4.867,7.708-4.867h75.008c2.8,0,5.422,1.373,7.017,3.675l81.617,117.867l81.617-117.867
			c1.595-2.302,4.217-3.675,7.017-3.675h71.992c3.293,0,6.293,1.893,7.708,4.867l84.675,177.817
			c1.398,2.943,1.191,6.397-0.548,9.152C508.229,510.324,505.2,511.996,501.942,512z M495.092,505.733l0.025,0.05L495.092,505.733z
			 M16.917,505.708l-0.017,0.042L16.917,505.708z M22.05,494.933h467.9L412.742,332.8h-62.133l-86.084,124.325
			c-1.678,2.176-4.269,3.45-7.017,3.45c-2.747,0-5.339-1.274-7.017-3.45L164.408,332.8h-65.15L22.05,494.933z"/>
	</g>
</g>
<g>
</g>
<g>
</g>
<g>
</g>
<g>
</g>
<g>
</g>
<g>
</g>
<g>
</g>
<g>
</g>
<g>
</g>
<g>
</g>
<g>
</g>
<g>
</g>
<g>
</g>
<g>
</g>
<g>
</g>
</svg>
