<?xml version="1.0" encoding="iso-8859-1"?>
<!-- Generator: Adobe Illustrator 19.0.0, SVG Export Plug-In . SVG Version: 6.00 Build 0)  -->
<svg version="1.1" id="Capa_1" xmlns="http://www.w3.org/2000/svg" xmlns:xlink="http://www.w3.org/1999/xlink" x="0px" y="0px"
	 viewBox="0 0 512 512" style="enable-background:new 0 0 512 512;" xml:space="preserve">
<g>
	<circle style="fill:#A4C2F7;" cx="256" cy="256" r="247.172"/>
	<ellipse style="fill:#E3E7F2;" cx="242.759" cy="256" rx="233.931" ry="247.172"/>
	<path style="fill:#FFFFFF;" d="M256,503.172c4.443,0,8.856-0.129,13.241-0.362C138.065,495.779,35.307,387.364,35.307,256
		S138.065,16.221,269.241,9.19c-4.386-0.233-8.798-0.362-13.241-0.362C119.49,8.828,8.828,119.49,8.828,256
		S119.49,503.172,256,503.172L256,503.172z"/>
	<g>
		<path style="fill:#428DFF;" d="M256,512C114.615,512,0,397.385,0,256S114.615,0,256,0s256,114.615,256,256
			C511.838,397.318,397.318,511.838,256,512z M256,17.655C124.366,17.655,17.655,124.366,17.655,256S124.366,494.345,256,494.345
			S494.345,387.634,494.345,256C494.195,124.428,387.572,17.805,256,17.655z"/>
		<path style="fill:#428DFF;" d="M256,512c-2.342,0.001-4.588-0.928-6.244-2.584c-1.656-1.656-2.585-3.902-2.584-6.244V8.828
			C247.172,3.952,251.125,0,256,0s8.828,3.952,8.828,8.828v494.345c0.001,2.342-0.928,4.588-2.584,6.244
			C260.588,511.072,258.342,512.001,256,512z"/>
		<path style="fill:#428DFF;" d="M256,512c-1.302,0-2.586-0.043-3.879-0.086l-1.957-0.06c-1.953-0.046-3.835-0.737-5.353-1.966
			C168.14,447.904,123.586,354.592,123.586,256S168.14,64.096,244.81,2.112c1.518-1.229,3.401-1.92,5.353-1.966l1.957-0.06
			C253.414,0.043,254.698,0,256,0c4.875,0,8.828,3.952,8.828,8.828s-3.952,8.828-8.828,8.828c-0.793,0-1.578,0.017-2.362,0.043
			C182.466,76.362,141.241,163.767,141.241,256s41.225,179.638,112.397,238.302c0.785,0.026,1.569,0.043,2.362,0.043
			c4.875,0,8.828,3.952,8.828,8.828S260.875,512,256,512z"/>
		<path style="fill:#428DFF;" d="M256,150.069c-65.743,0.107-129.972-19.735-184.198-56.905c-2.609-1.777-4.071-4.813-3.832-7.961
			c0.239-3.148,2.141-5.929,4.988-7.293s6.207-1.102,8.809,0.685c51.294,35.157,112.047,53.923,174.233,53.819
			c62.186,0.104,122.939-18.662,174.233-53.819c4.023-2.74,9.505-1.706,12.253,2.311c2.748,4.018,1.725,9.502-2.287,12.258
			C385.972,130.334,321.743,150.176,256,150.069L256,150.069z"/>
		<path style="fill:#428DFF;" d="M440.147,429.638c-1.833-0.001-3.62-0.573-5.112-1.638c-107.155-76.322-250.914-76.322-358.069,0
			c-3.971,2.828-9.482,1.902-12.31-2.069c-2.828-3.971-1.902-9.482,2.069-12.31c113.284-80.69,265.267-80.69,378.552,0
			c3.128,2.229,4.456,6.224,3.285,9.882S443.987,429.641,440.147,429.638L440.147,429.638z"/>
		<path style="fill:#428DFF;" d="M256,512c-4.875,0-8.828-3.952-8.828-8.828s3.952-8.828,8.828-8.828
			c0.793,0,1.578-0.018,2.362-0.043C329.534,435.638,370.759,348.233,370.759,256S329.534,76.362,258.362,17.698
			c-0.785-0.025-1.569-0.043-2.362-0.043c-4.875,0-8.828-3.952-8.828-8.828S251.125,0,256,0c1.302,0,2.586,0.043,3.879,0.086
			l1.957,0.06c1.953,0.046,3.835,0.737,5.353,1.966C343.86,64.096,388.414,157.408,388.414,256S343.86,447.904,267.19,509.888
			c-1.518,1.229-3.401,1.92-5.353,1.966l-1.957,0.06C258.586,511.957,257.302,512,256,512z"/>
		<path style="fill:#428DFF;" d="M503.172,264.828H8.828C3.952,264.828,0,260.875,0,256s3.952-8.828,8.828-8.828h494.345
			c4.875,0,8.828,3.952,8.828,8.828S508.048,264.828,503.172,264.828z"/>
	</g>
</g>
<g>
</g>
<g>
</g>
<g>
</g>
<g>
</g>
<g>
</g>
<g>
</g>
<g>
</g>
<g>
</g>
<g>
</g>
<g>
</g>
<g>
</g>
<g>
</g>
<g>
</g>
<g>
</g>
<g>
</g>
</svg>
