<?xml version="1.0" encoding="iso-8859-1"?>
<!-- Generator: Adobe Illustrator 19.0.0, SVG Export Plug-In . SVG Version: 6.00 Build 0)  -->
<svg version="1.1" id="Capa_1" xmlns="http://www.w3.org/2000/svg" xmlns:xlink="http://www.w3.org/1999/xlink" x="0px" y="0px"
	 viewBox="0 0 512.085 512.085" style="enable-background:new 0 0 512.085 512.085;" xml:space="preserve">
<g transform="translate(-1)">
	<g>
		<circle style="fill:#A4C2F7;" cx="438.083" cy="237.21" r="35.31"/>
		<circle style="fill:#A4C2F7;" cx="80.478" cy="79.39" r="35.31"/>
	</g>
	<g>
		<ellipse style="fill:#E3E7F2;" cx="424.842" cy="237.21" rx="22.069" ry="35.31"/>
		<ellipse style="fill:#E3E7F2;" cx="67.236" cy="79.39" rx="22.069" ry="35.31"/>
	</g>
	<g>
		<path style="fill:#428DFF;" d="M257.03,379.468c-58.849-0.068-109.46-41.689-120.89-99.417s19.5-115.495,73.883-137.984
			c54.383-22.489,117.079-3.441,149.76,45.5s26.249,114.151-15.364,155.763C321.284,366.564,289.816,379.577,257.03,379.468
			L257.03,379.468z M257.03,150.072c-50.424,0.07-93.78,35.741-103.566,85.206c-9.785,49.465,16.724,98.957,63.323,118.221
			s100.317,2.938,128.316-38.998c27.999-41.936,22.487-97.808-13.168-133.463C312.104,161.126,285.131,149.976,257.03,150.072
			L257.03,150.072z"/>
		<path style="fill:#428DFF;" d="M438.055,281.33c-21.046-0.013-39.153-14.892-43.246-35.536
			c-4.093-20.644,6.966-41.306,26.415-49.348c19.449-8.043,41.871-1.227,53.554,16.278c11.683,17.506,9.374,40.827-5.516,55.701l0,0
			C460.991,276.707,449.76,281.351,438.055,281.33z M438.055,210.744c-12.628,0.009-23.491,8.936-25.947,21.323
			c-2.455,12.387,4.181,24.783,15.851,29.608c11.67,4.825,25.123,0.735,32.132-9.769c7.009-10.504,5.623-24.496-3.312-33.42
			C451.814,213.522,445.077,210.736,438.055,210.744L438.055,210.744z"/>
		<path style="fill:#428DFF;" d="M80.478,123.529c-21.06,0.004-39.189-14.869-43.301-35.524s6.939-41.337,26.395-49.399
			s41.896-1.257,53.598,16.252s9.405,40.847-5.485,55.739l0,0C103.427,118.903,92.19,123.56,80.478,123.529L80.478,123.529z
			 M80.478,52.908c-10.712-0.003-20.37,6.449-24.469,16.346c-4.099,9.897-1.831,21.288,5.745,28.861c10.48,10,26.968,10,37.448,0
			l0,0c7.577-7.572,9.844-18.964,5.745-28.861C100.848,59.357,91.19,52.905,80.478,52.908z"/>
		<path style="fill:#428DFF;" d="M257.03,450.054c-99.936,0.055-183.6-75.737-193.388-175.192S121.138,84.759,219.167,65.331
			s194.799,38.708,223.682,134.379c0.754,2.519,0.346,5.243-1.112,7.432c-1.458,2.188-3.815,3.613-6.431,3.887
			c-9.398,0.909-17.591,6.781-21.47,15.389c-3.879,8.609-2.851,18.635,2.694,26.278c5.545,7.642,14.759,11.73,24.146,10.712
			c2.613-0.24,5.199,0.677,7.078,2.509c1.871,1.843,2.82,4.427,2.587,7.043C441.69,373.245,357.687,450.201,257.03,450.054z
			 M257.03,79.477c-94.355-0.115-172.135,73.959-176.622,168.208c-4.486,94.249,65.906,175.377,159.845,184.224
			c93.94,8.848,178.241-57.71,191.432-151.139c-9.405-1.298-18.129-5.633-24.845-12.345c-17.207-17.25-17.207-45.172,0-62.422
			c4.546-4.559,10.058-8.038,16.129-10.181C397.744,125.913,331.35,79.362,257.03,79.477L257.03,79.477z"/>
		<path style="fill:#428DFF;" d="M257.03,264.77c-3.57-0.001-6.788-2.152-8.154-5.45c-1.366-3.298-0.611-7.094,1.913-9.619
			L449.409,51.081c3.455-3.401,9.006-3.379,12.434,0.049c3.428,3.428,3.45,8.979,0.048,12.434L263.271,262.184
			C261.617,263.842,259.371,264.773,257.03,264.77z"/>
		<path style="fill:#428DFF;" d="M257.03,511.822c-96.994,0.068-185.686-54.718-229.043-141.482S-5.937,179.755,52.349,102.227
			c2.93-3.884,8.45-4.667,12.345-1.75c10.478,7.944,25.211,6.936,34.509-2.362s10.306-24.031,2.362-34.509
			c-2.921-3.893-2.138-9.417,1.75-12.345c102.034-76.115,244.417-66.053,334.733,23.655l0,0
			c73.253,73.185,95.179,183.303,55.544,278.965S360.577,511.888,257.03,511.822z M61.814,119.227
			C-9.084,220.459,9.157,359.09,103.828,438.537s234.365,73.351,321.756-14.04s93.487-227.084,14.04-321.756
			S221.547-10.172,120.314,60.726c7.954,16.777,4.5,36.743-8.629,49.871S78.591,127.181,61.814,119.227L61.814,119.227z"/>
	</g>
</g>
<g>
</g>
<g>
</g>
<g>
</g>
<g>
</g>
<g>
</g>
<g>
</g>
<g>
</g>
<g>
</g>
<g>
</g>
<g>
</g>
<g>
</g>
<g>
</g>
<g>
</g>
<g>
</g>
<g>
</g>
</svg>
