<?xml version="1.0" encoding="iso-8859-1"?>
<!-- Generator: Adobe Illustrator 19.0.0, SVG Export Plug-In . SVG Version: 6.00 Build 0)  -->
<svg version="1.1" id="Capa_1" xmlns="http://www.w3.org/2000/svg" xmlns:xlink="http://www.w3.org/1999/xlink" x="0px" y="0px"
	 viewBox="0 0 512 512" style="enable-background:new 0 0 512 512;" xml:space="preserve">
<g>
	<circle style="fill:#A4C2F7;" cx="256" cy="256" r="51.2"/>
	<ellipse style="fill:#E3E7F2;" cx="243.2" cy="256" rx="38.4" ry="51.2"/>
	<path style="fill:#FFFFFF;" d="M256,307.2c2.449-0.019,4.893-0.213,7.315-0.581C244.713,303.06,230.4,281.788,230.4,256
		c0-25.788,14.313-47.06,32.915-50.619c-18.968-2.749-37.882,5.331-49.008,20.936c-11.127,15.606-12.6,36.12-3.819,53.156
		C219.269,296.509,236.834,307.21,256,307.2L256,307.2z"/>
	<g>
		<path style="fill:#428DFF;" d="M256,486.4C128.754,486.4,25.6,383.246,25.6,256S128.754,25.6,256,25.6S486.4,128.754,486.4,256
			C486.255,383.186,383.186,486.255,256,486.4z M256,42.667C138.179,42.667,42.667,138.179,42.667,256S138.179,469.333,256,469.333
			S469.333,373.821,469.333,256C469.201,138.234,373.766,42.799,256,42.667z"/>
		<path style="fill:#428DFF;" d="M59.733,264.533h-51.2C3.821,264.533,0,260.713,0,256c0-4.713,3.821-8.533,8.533-8.533h51.2
			c4.713,0,8.533,3.821,8.533,8.533C68.267,260.713,64.446,264.533,59.733,264.533z"/>
		<path style="fill:#428DFF;" d="M503.467,264.533h-51.2c-4.713,0-8.533-3.821-8.533-8.533c0-4.713,3.82-8.533,8.533-8.533h51.2
			c4.713,0,8.533,3.821,8.533,8.533C512,260.713,508.18,264.533,503.467,264.533z"/>
		<path style="fill:#428DFF;" d="M358.4,264.533h-51.2c-4.713,0-8.533-3.821-8.533-8.533c0-4.713,3.82-8.533,8.533-8.533h51.2
			c4.713,0,8.533,3.821,8.533,8.533C366.933,260.713,363.113,264.533,358.4,264.533z"/>
		<path style="fill:#428DFF;" d="M204.8,264.533h-51.2c-4.713,0-8.533-3.821-8.533-8.533c0-4.713,3.82-8.533,8.533-8.533h51.2
			c4.713,0,8.533,3.821,8.533,8.533C213.333,260.713,209.513,264.533,204.8,264.533z"/>
		<path style="fill:#428DFF;" d="M256,512c-2.264,0.001-4.435-0.897-6.035-2.498c-1.601-1.601-2.499-3.772-2.498-6.035v-51.2
			c0-4.713,3.821-8.533,8.533-8.533c4.713,0,8.533,3.82,8.533,8.533v51.2c0.001,2.264-0.897,4.435-2.498,6.035
			C260.435,511.103,258.264,512.001,256,512z"/>
		<path style="fill:#428DFF;" d="M256,68.267c-2.264,0.001-4.435-0.897-6.035-2.498c-1.601-1.601-2.499-3.772-2.498-6.035v-51.2
			C247.467,3.821,251.287,0,256,0c4.713,0,8.533,3.821,8.533,8.533v51.2c0.001,2.264-0.897,4.435-2.498,6.035
			C260.435,67.369,258.264,68.268,256,68.267z"/>
		<path style="fill:#428DFF;" d="M256,213.333c-2.264,0.001-4.435-0.897-6.035-2.498s-2.499-3.772-2.498-6.035v-51.2
			c0-4.713,3.821-8.533,8.533-8.533c4.713,0,8.533,3.82,8.533,8.533v51.2c0.001,2.264-0.897,4.435-2.498,6.035
			S258.264,213.335,256,213.333z"/>
		<path style="fill:#428DFF;" d="M256,366.933c-2.264,0.001-4.435-0.897-6.035-2.498c-1.601-1.601-2.499-3.772-2.498-6.035v-51.2
			c0-4.713,3.821-8.533,8.533-8.533c4.713,0,8.533,3.82,8.533,8.533v51.2c0.001,2.264-0.897,4.435-2.498,6.035
			C260.435,366.036,258.264,366.935,256,366.933L256,366.933z"/>
		<path style="fill:#428DFF;" d="M256,315.733c-32.99,0-59.733-26.743-59.733-59.733S223.01,196.267,256,196.267
			c32.99,0,59.733,26.744,59.733,59.733C315.693,288.973,288.973,315.693,256,315.733L256,315.733z M256,213.333
			c-23.564,0-42.667,19.103-42.667,42.667c0,23.564,19.103,42.667,42.667,42.667c23.564,0,42.667-19.103,42.667-42.667
			C298.639,232.447,279.553,213.361,256,213.333L256,213.333z"/>
	</g>
</g>
<g>
</g>
<g>
</g>
<g>
</g>
<g>
</g>
<g>
</g>
<g>
</g>
<g>
</g>
<g>
</g>
<g>
</g>
<g>
</g>
<g>
</g>
<g>
</g>
<g>
</g>
<g>
</g>
<g>
</g>
</svg>
