<?xml version="1.0" encoding="iso-8859-1"?>
<!-- Generator: Adobe Illustrator 19.0.0, SVG Export Plug-In . SVG Version: 6.00 Build 0)  -->
<svg version="1.1" id="Capa_1" xmlns="http://www.w3.org/2000/svg" xmlns:xlink="http://www.w3.org/1999/xlink" x="0px" y="0px"
	 viewBox="0 0 512 512" style="enable-background:new 0 0 512 512;" xml:space="preserve">
<g>
	<g>
		<polygon style="fill:#7FACFA;" points="273.067,426.667 273.067,384 238.933,384 238.933,426.667 196.267,426.667 
			196.267,452.267 315.733,452.267 315.733,426.667 		"/>
		<rect x="247.467" y="59.733" style="fill:#7FACFA;" width="256" height="324.267"/>
	</g>
	<rect x="8.533" y="59.733" style="fill:#FFFFFF;" width="256" height="324.267"/>
	<rect x="34.133" y="59.733" style="fill:#A4C2F7;" width="443.733" height="324.267"/>
	<rect x="426.667" y="93.867" style="fill:#E3E7F2;" width="34.133" height="34.133"/>
	<rect x="128" y="298.667" style="fill:#A4C2F7;" width="332.8" height="42.667"/>
	<g>
		<rect x="128" y="298.667" style="fill:#E3E7F2;" width="307.2" height="42.667"/>
		<rect x="51.2" y="298.667" style="fill:#E3E7F2;" width="42.667" height="42.667"/>
	</g>
	<path style="fill:#A4C2F7;" d="M351.063,298.667c1.381-0.935,2.811-1.8,4.161-2.777c-2.487-2.217-5.252-4.1-8.226-5.602
		L307.2,264.533c-5.913-2.956-17.067-1.923-17.067-8.533v-17.956c1.285-1.462,11.292-7.548,12.862-9.769
		c6.684-8.715,12.033-18.376,15.87-28.667c5.869-1.808,13.934-7.231,13.934-13.673v-19.163c-0.131-1.778-0.878-3.454-2.113-4.74
		c-4.041-4.651-6.314-10.577-6.421-16.737v-8.763c0,0-1.349-51.2-59.733-51.2s-59.733,51.2-59.733,51.2v8.763
		c-0.107,6.16-2.38,12.086-6.421,16.737c-1.234,1.286-1.981,2.963-2.113,4.74v19.163c0,5.05,6.397,9.492,10.366,12.056
		c4.788,20.848,32.301,35.85,32.301,35.85v17.511c0,6.387-15.68,12.264-21.288,15.322l-40.166,23.31
		c-2.868,1.59-5.52,3.541-7.891,5.806c1.395,1.01,2.872,1.908,4.299,2.875H351.063z"/>
	<path style="fill:#E3E7F2;" d="M322.476,290.288l-39.798-25.754c-5.914-2.956-17.067-1.923-17.067-8.533v-17.956
		c1.285-1.462,11.292-7.548,12.863-9.769c6.684-8.715,12.032-18.376,15.87-28.667c5.869-1.808,13.934-7.231,13.934-13.673v-19.163
		c-0.131-1.778-0.878-3.454-2.112-4.74c-4.04-4.651-6.314-10.577-6.421-16.737v-8.763c0,0-1.349-51.2-59.733-51.2
		c-1.128,0-2.095,0.14-3.18,0.177c-0.101,2.309-1.242,4.448-3.104,5.817c-10.52,8.802-19.698,19.093-27.246,30.546
		c-2.573,10.479-4.875,21-7.309,31.465c-0.207,3.027-0.373,6.05-0.575,9.071c2.335,17.489,6.688,34.65,12.972,51.137
		c0.428,1.309,0.546,2.698,0.346,4.06c2.525,2.757,5.248,5.327,8.145,7.69c3.4,1.71,6.8,3.421,10.2,5.133
		c4.215,5.771,10.01,9.548,9.251,17.45c-0.881,9.171-7.296,11.55-14.231,15.698c-17.198,10.281-34.025,16.415-50.252,27.129
		c2.121,2.073,3.15,5.018,2.781,7.96h148.732c1.381-0.935,2.811-1.8,4.161-2.777C328.215,293.673,325.45,291.79,322.476,290.288
		L322.476,290.288z"/>
	<g>
		<path style="fill:#428DFF;" d="M503.467,392.533H8.533c-2.264,0.001-4.435-0.897-6.035-2.498C0.897,388.435-0.001,386.264,0,384
			V59.733c-0.001-2.264,0.897-4.435,2.498-6.035S6.27,51.199,8.533,51.2h494.933c2.264-0.001,4.435,0.897,6.035,2.498
			c1.601,1.601,2.499,3.772,2.498,6.035V384c0.001,2.264-0.897,4.435-2.498,6.035C507.901,391.636,505.73,392.535,503.467,392.533z
			 M17.067,375.467h477.867v-307.2H17.067V375.467z"/>
		<path style="fill:#428DFF;" d="M460.8,349.867H128c-2.264,0.001-4.435-0.897-6.035-2.498c-1.601-1.601-2.499-3.772-2.498-6.035
			v-42.667c-0.001-2.264,0.897-4.435,2.498-6.035c1.601-1.601,3.772-2.499,6.035-2.498h332.8c2.264-0.001,4.435,0.897,6.035,2.498
			c1.601,1.601,2.499,3.772,2.498,6.035v42.667c0.001,2.264-0.897,4.435-2.498,6.035C465.235,348.969,463.064,349.868,460.8,349.867
			L460.8,349.867z M136.533,332.8h315.733v-25.6H136.533V332.8z"/>
		<path style="fill:#428DFF;" d="M460.8,136.533h-34.133c-2.264,0.001-4.435-0.897-6.035-2.498
			c-1.601-1.601-2.499-3.772-2.498-6.035V93.867c-0.001-2.264,0.897-4.435,2.498-6.035c1.601-1.601,3.772-2.499,6.035-2.498H460.8
			c2.264-0.001,4.435,0.897,6.035,2.498c1.601,1.601,2.499,3.772,2.498,6.035V128c0.001,2.264-0.897,4.435-2.498,6.035
			C465.235,135.636,463.064,136.535,460.8,136.533z M435.2,119.467h17.067V102.4H435.2V119.467z"/>
		<path style="fill:#428DFF;" d="M351.067,307.2H173.884c-1.709-0.002-3.378-0.516-4.792-1.475l-1.5-0.992
			c-1.017-0.658-2.033-1.325-3.008-2.033c-2.058-1.491-3.344-3.822-3.508-6.359c-0.164-2.536,0.81-5.014,2.658-6.758
			c2.903-2.765,6.149-5.145,9.658-7.083l39.975-23.208c1.417-0.775,3.075-1.567,4.95-2.467c4.269-1.828,8.322-4.125,12.083-6.85
			V238.65c-13.832-8.201-24.724-20.557-31.125-35.308c-6.413-3.619-10.704-10.092-11.542-17.408v-19.158
			c0.102-3.788,1.559-7.413,4.108-10.217c2.741-3.123,4.306-7.105,4.425-11.259v-8.767c0.542-20.808,15.508-59.733,68.267-59.733
			s67.725,38.925,68.267,59.508v8.992c0.119,4.158,1.687,8.143,4.433,11.267c2.544,2.803,3.999,6.425,4.1,10.209v19.158
			c-0.942,9.2-7.06,17.053-15.75,20.217c-4.105,9.611-9.348,18.696-15.617,27.058c-2.902,3.279-6.316,6.068-10.108,8.258
			c-0.408,0.283-0.808,0.558-1.192,0.817v11.108c0.992,0.258,2.2,0.517,3.133,0.708c3.179,0.538,6.276,1.479,9.217,2.8
			c0.28,0.141,0.553,0.296,0.817,0.467l39.433,25.508c3.46,1.803,6.684,4.025,9.6,6.617c1.947,1.714,3.008,4.221,2.884,6.813
			c-0.125,2.591-1.422,4.985-3.525,6.504c-0.942,0.675-1.908,1.308-2.875,1.942l-1.492,0.975
			C354.444,306.685,352.775,307.198,351.067,307.2L351.067,307.2z M194.225,290.133h136.833l-27.992-18.108
			c-1.559-0.525-3.155-0.931-4.775-1.217c-5.417-1.142-16.692-3.5-16.692-14.808v-17.958c0-2.074,0.755-4.076,2.125-5.633
			c1.955-1.902,4.118-3.577,6.45-4.992c1.892-1.308,5.417-3.733,6.292-4.6c5.973-7.879,10.78-16.576,14.275-25.824
			c0.857-2.649,2.949-4.716,5.608-5.542c3.233-0.864,6.047-2.864,7.925-5.633l-0.008-18.1c-5.357-6.257-8.373-14.181-8.533-22.417
			v-8.766c-0.15-4.133-2.933-42.667-51.2-42.667c-49.5,0-51.158,41.142-51.2,42.892v8.542c-0.122,8.154-3.094,16.008-8.4,22.2
			l-0.133,0.166v18.267c0.2-0.267,1.192,1.483,6.467,4.892c1.865,1.207,3.186,3.093,3.683,5.258
			c3.217,14.033,21.35,26.608,28.067,30.267c2.743,1.494,4.45,4.368,4.45,7.492v17.508c0,10.508-12.1,16.267-21.817,20.892
			c-1.542,0.733-2.908,1.375-3.908,1.925L194.225,290.133z"/>
		<path style="fill:#428DFF;" d="M93.867,349.867H51.2c-2.264,0.001-4.435-0.897-6.035-2.498c-1.601-1.601-2.499-3.772-2.498-6.035
			v-42.667c-0.001-2.264,0.897-4.435,2.498-6.035s3.772-2.499,6.035-2.498h42.667c2.264-0.001,4.435,0.897,6.035,2.498
			c1.601,1.601,2.499,3.772,2.498,6.035v42.667c0.001,2.264-0.897,4.435-2.498,6.035C98.301,348.969,96.13,349.868,93.867,349.867
			L93.867,349.867z M59.733,332.8h25.6v-25.6h-25.6V332.8z"/>
		<path style="fill:#428DFF;" d="M315.733,460.8H196.267c-2.264,0.001-4.435-0.897-6.035-2.498
			c-1.601-1.601-2.499-3.772-2.498-6.035v-25.6c-0.001-2.264,0.897-4.435,2.498-6.035c1.601-1.601,3.772-2.499,6.035-2.498H230.4
			V384c-0.001-2.264,0.897-4.435,2.498-6.035c1.601-1.601,3.772-2.499,6.035-2.498h34.133c2.264-0.001,4.435,0.897,6.035,2.498
			c1.601,1.601,2.499,3.772,2.498,6.035v34.133h34.133c2.264-0.001,4.435,0.897,6.035,2.498c1.601,1.601,2.499,3.772,2.498,6.035
			v25.6c0.001,2.264-0.897,4.435-2.498,6.035C320.168,459.903,317.997,460.801,315.733,460.8z M204.8,443.733h102.4V435.2h-34.133
			c-2.264,0.001-4.435-0.897-6.035-2.498c-1.601-1.601-2.499-3.772-2.498-6.035v-34.133h-17.067v34.133
			c0.001,2.264-0.897,4.435-2.498,6.035c-1.601,1.601-3.772,2.499-6.035,2.498H204.8V443.733z"/>
	</g>
</g>
<g>
</g>
<g>
</g>
<g>
</g>
<g>
</g>
<g>
</g>
<g>
</g>
<g>
</g>
<g>
</g>
<g>
</g>
<g>
</g>
<g>
</g>
<g>
</g>
<g>
</g>
<g>
</g>
<g>
</g>
</svg>
