<?xml version="1.0" encoding="iso-8859-1"?>
<!-- Generator: Adobe Illustrator 19.0.0, SVG Export Plug-In . SVG Version: 6.00 Build 0)  -->
<svg version="1.1" id="Capa_1" xmlns="http://www.w3.org/2000/svg" xmlns:xlink="http://www.w3.org/1999/xlink" x="0px" y="0px"
	 viewBox="0 0 512 512" style="enable-background:new 0 0 512 512;" xml:space="preserve">
<g>
	<rect x="256" y="469.333" style="fill:#A4C2F7;" width="170.667" height="34.133"/>
	<g>
		<rect x="85.333" y="469.333" style="fill:#FFFFFF;" width="170.667" height="34.133"/>
		<rect x="85.333" y="8.533" style="fill:#FFFFFF;" width="170.667" height="34.133"/>
	</g>
	<rect x="238.933" y="8.533" style="fill:#A4C2F7;" width="187.733" height="34.133"/>
	<g>
		<rect x="110.933" y="469.333" style="fill:#E3E7F2;" width="290.133" height="34.133"/>
		<rect x="110.933" y="8.533" style="fill:#E3E7F2;" width="290.133" height="34.133"/>
	</g>
	<path style="fill:#A4C2F7;" d="M357.177,323.45L256,256v213.333h128v-95.763C384,353.43,373.934,334.622,357.177,323.45
		L357.177,323.45z"/>
	<g>
		<path style="fill:#FFFFFF;" d="M154.823,323.45L256,256v213.333H128v-95.763C128,353.43,138.066,334.622,154.823,323.45
			L154.823,323.45z"/>
		<path style="fill:#FFFFFF;" d="M154.823,188.55L256,256V42.667H128v95.763C128,158.57,138.066,177.378,154.823,188.55z"/>
	</g>
	
		<linearGradient id="SVGID_1_" gradientUnits="userSpaceOnUse" x1="-48.6581" y1="652.0128" x2="-47.8634" y2="651.2499" gradientTransform="matrix(204.8 0 0 -213.3333 10139.7979 139423.6719)">
		<stop  offset="0" style="stop-color:#D4E1F4"/>
		<stop  offset="0.1717" style="stop-color:#D4E1F4"/>
		<stop  offset="0.2" style="stop-color:#D4E1F4"/>
		<stop  offset="0.2001" style="stop-color:#DAE4F4"/>
		<stop  offset="0.2007" style="stop-color:#EBEBF4"/>
		<stop  offset="0.2014" style="stop-color:#F6F1F4"/>
		<stop  offset="0.2023" style="stop-color:#FDF4F4"/>
		<stop  offset="0.205" style="stop-color:#FFF5F4"/>
		<stop  offset="0.2522" style="stop-color:#FFF5F4"/>
		<stop  offset="0.26" style="stop-color:#FFF5F4"/>
		<stop  offset="0.26" style="stop-color:#D4E1F4"/>
		<stop  offset="0.3974" style="stop-color:#D4E1F4"/>
		<stop  offset="0.42" style="stop-color:#D4E1F4"/>
		<stop  offset="0.4201" style="stop-color:#DAE4F4"/>
		<stop  offset="0.4207" style="stop-color:#EBEBF4"/>
		<stop  offset="0.4214" style="stop-color:#F6F1F4"/>
		<stop  offset="0.4223" style="stop-color:#FDF4F4"/>
		<stop  offset="0.425" style="stop-color:#FFF5F4"/>
		<stop  offset="0.4894" style="stop-color:#FFF5F4"/>
		<stop  offset="0.5" style="stop-color:#FFF5F4"/>
		<stop  offset="0.5" style="stop-color:#F9F2F4"/>
		<stop  offset="0.5001" style="stop-color:#E8EBF4"/>
		<stop  offset="0.5003" style="stop-color:#DDE5F4"/>
		<stop  offset="0.5005" style="stop-color:#D6E2F4"/>
		<stop  offset="0.501" style="stop-color:#D4E1F4"/>
		<stop  offset="0.7062" style="stop-color:#D4E1F4"/>
		<stop  offset="0.74" style="stop-color:#D4E1F4"/>
		<stop  offset="0.741" style="stop-color:#FFF5F4"/>
		<stop  offset="0.8346" style="stop-color:#FFF5F4"/>
		<stop  offset="0.85" style="stop-color:#FFF5F4"/>
		<stop  offset="0.851" style="stop-color:#D4E1F4"/>
	</linearGradient>
	<path style="fill:url(#SVGID_1_);" d="M331.576,323.451L256,256l-75.576,67.451c-16.758,11.172-26.824,29.98-26.824,50.12v95.762
		h204.8v-95.762C358.4,353.431,348.334,334.623,331.576,323.451z"/>
	<path style="fill:#A4C2F7;" d="M256,42.667V256l101.177-67.45C373.934,177.378,384,158.57,384,138.429V42.667H256z"/>
	
		<linearGradient id="SVGID_2_" gradientUnits="userSpaceOnUse" x1="-48.4412" y1="652.2388" x2="-47.6465" y2="651.4758" gradientTransform="matrix(204.8 0 0 -213.3333 10139.7979 139210.3438)">
		<stop  offset="0" style="stop-color:#D4E1F4"/>
		<stop  offset="0.1717" style="stop-color:#D4E1F4"/>
		<stop  offset="0.2" style="stop-color:#D4E1F4"/>
		<stop  offset="0.2001" style="stop-color:#DAE4F4"/>
		<stop  offset="0.2007" style="stop-color:#EBEBF4"/>
		<stop  offset="0.2014" style="stop-color:#F6F1F4"/>
		<stop  offset="0.2023" style="stop-color:#FDF4F4"/>
		<stop  offset="0.205" style="stop-color:#FFF5F4"/>
		<stop  offset="0.2522" style="stop-color:#FFF5F4"/>
		<stop  offset="0.26" style="stop-color:#FFF5F4"/>
		<stop  offset="0.26" style="stop-color:#D4E1F4"/>
		<stop  offset="0.3974" style="stop-color:#D4E1F4"/>
		<stop  offset="0.42" style="stop-color:#D4E1F4"/>
		<stop  offset="0.4201" style="stop-color:#DAE4F4"/>
		<stop  offset="0.4207" style="stop-color:#EBEBF4"/>
		<stop  offset="0.4214" style="stop-color:#F6F1F4"/>
		<stop  offset="0.4223" style="stop-color:#FDF4F4"/>
		<stop  offset="0.425" style="stop-color:#FFF5F4"/>
		<stop  offset="0.4894" style="stop-color:#FFF5F4"/>
		<stop  offset="0.5" style="stop-color:#FFF5F4"/>
		<stop  offset="0.5" style="stop-color:#F9F2F4"/>
		<stop  offset="0.5001" style="stop-color:#E8EBF4"/>
		<stop  offset="0.5003" style="stop-color:#DDE5F4"/>
		<stop  offset="0.5005" style="stop-color:#D6E2F4"/>
		<stop  offset="0.501" style="stop-color:#D4E1F4"/>
		<stop  offset="0.7062" style="stop-color:#D4E1F4"/>
		<stop  offset="0.74" style="stop-color:#D4E1F4"/>
		<stop  offset="0.741" style="stop-color:#FFF5F4"/>
		<stop  offset="0.8346" style="stop-color:#FFF5F4"/>
		<stop  offset="0.85" style="stop-color:#FFF5F4"/>
		<stop  offset="0.851" style="stop-color:#D4E1F4"/>
	</linearGradient>
	<path style="fill:url(#SVGID_2_);" d="M180.424,188.549L256,256l75.576-67.451c16.758-11.172,26.824-29.98,26.824-50.12V42.667
		H153.6v95.762C153.6,158.569,163.666,177.377,180.424,188.549z"/>
	<g>
		<circle style="fill:#428DFF;" cx="256" cy="221.867" r="8.533"/>
		<circle style="fill:#428DFF;" cx="281.6" cy="204.8" r="8.533"/>
		<circle style="fill:#428DFF;" cx="230.4" cy="204.8" r="8.533"/>
		<circle style="fill:#428DFF;" cx="204.8" cy="187.733" r="8.533"/>
		<circle style="fill:#428DFF;" cx="307.2" cy="187.733" r="8.533"/>
		<circle style="fill:#428DFF;" cx="332.8" cy="170.667" r="8.533"/>
		<circle style="fill:#428DFF;" cx="179.2" cy="170.667" r="8.533"/>
		<circle style="fill:#428DFF;" cx="256" cy="187.733" r="8.533"/>
		<circle style="fill:#428DFF;" cx="256" cy="290.133" r="8.533"/>
		<circle style="fill:#428DFF;" cx="256" cy="315.733" r="8.533"/>
		<circle style="fill:#428DFF;" cx="256" cy="341.333" r="8.533"/>
		<circle style="fill:#428DFF;" cx="256" cy="366.933" r="8.533"/>
		<circle style="fill:#428DFF;" cx="256" cy="392.533" r="8.533"/>
		<circle style="fill:#428DFF;" cx="256" cy="418.133" r="8.533"/>
		<path style="fill:#428DFF;" d="M426.667,512H85.333c-2.263,0.001-4.434-0.898-6.035-2.499c-1.6-1.6-2.499-3.771-2.499-6.035
			v-34.133c-0.001-2.263,0.898-4.434,2.499-6.035c1.6-1.6,3.771-2.499,6.035-2.499h341.333c2.263-0.001,4.434,0.898,6.035,2.499
			c1.6,1.6,2.499,3.771,2.499,6.035v34.133c0.001,2.263-0.898,4.434-2.499,6.035C431.101,511.102,428.93,512.001,426.667,512z
			 M93.867,494.933h324.267v-17.067H93.867V494.933z"/>
		<path style="fill:#428DFF;" d="M384,477.867H128c-2.263,0.001-4.434-0.898-6.035-2.499s-2.499-3.771-2.499-6.035v-95.758
			c-0.023-23.001,11.475-44.485,30.625-57.225l0,0l101.175-67.45c2.865-1.917,6.602-1.917,9.467,0l101.175,67.45
			c19.15,12.74,30.648,34.224,30.625,57.225v95.758c0.001,2.263-0.898,4.434-2.499,6.035
			C388.434,476.968,386.263,477.867,384,477.867L384,477.867z M136.533,460.8h238.933v-87.225
			c0.016-17.293-8.628-33.446-23.025-43.025L256,266.258l-96.442,64.292c-14.397,9.579-23.041,25.732-23.025,43.025V460.8z"/>
		<path style="fill:#428DFF;" d="M85.333,512H51.2c-4.713,0-8.533-3.82-8.533-8.533c0-4.713,3.821-8.533,8.533-8.533h34.133
			c4.713,0,8.533,3.821,8.533,8.533C93.867,508.18,90.046,512,85.333,512z"/>
		<path style="fill:#428DFF;" d="M460.8,512h-34.133c-4.713,0-8.533-3.82-8.533-8.533c0-4.713,3.82-8.533,8.533-8.533H460.8
			c4.713,0,8.533,3.821,8.533,8.533C469.333,508.18,465.513,512,460.8,512z"/>
		<path style="fill:#428DFF;" d="M426.667,51.2H85.333c-2.263,0.001-4.434-0.898-6.035-2.499c-1.6-1.6-2.499-3.771-2.499-6.035
			V8.533c-0.001-2.263,0.898-4.434,2.499-6.035c1.6-1.6,3.771-2.499,6.035-2.499h341.333c2.263-0.001,4.434,0.898,6.035,2.499
			c1.6,1.6,2.499,3.771,2.499,6.035v34.133c0.001,2.263-0.898,4.434-2.499,6.035C431.101,50.302,428.93,51.201,426.667,51.2z
			 M93.867,34.133h324.267V17.067H93.867V34.133z"/>
		<path style="fill:#428DFF;" d="M256,264.533c-1.685,0.002-3.332-0.497-4.733-1.434l-101.175-67.45l0,0
			c-19.15-12.74-30.648-34.224-30.625-57.225V42.667c-0.001-2.263,0.898-4.434,2.499-6.035c1.6-1.6,3.771-2.499,6.035-2.499h256
			c2.263-0.001,4.434,0.898,6.035,2.499c1.6,1.6,2.499,3.771,2.499,6.035v95.758c0.023,23.001-11.475,44.485-30.625,57.225
			L260.733,263.1C259.332,264.036,257.685,264.535,256,264.533z M159.558,181.45L256,245.742l96.442-64.292
			c14.397-9.579,23.041-25.732,23.025-43.025V51.2H136.533v87.225C136.517,155.718,145.161,171.871,159.558,181.45L159.558,181.45z"
			/>
		<path style="fill:#428DFF;" d="M85.333,17.067H51.2c-4.713,0-8.533-3.821-8.533-8.533S46.487,0,51.2,0h34.133
			c4.713,0,8.533,3.821,8.533,8.533S90.046,17.067,85.333,17.067z"/>
		<path style="fill:#428DFF;" d="M460.8,17.067h-34.133c-4.713,0-8.533-3.821-8.533-8.533S421.954,0,426.667,0H460.8
			c4.713,0,8.533,3.821,8.533,8.533S465.513,17.067,460.8,17.067z"/>
	</g>
</g>
<g>
</g>
<g>
</g>
<g>
</g>
<g>
</g>
<g>
</g>
<g>
</g>
<g>
</g>
<g>
</g>
<g>
</g>
<g>
</g>
<g>
</g>
<g>
</g>
<g>
</g>
<g>
</g>
<g>
</g>
</svg>
