<?xml version="1.0" encoding="iso-8859-1"?>
<!-- Generator: Adobe Illustrator 19.0.0, SVG Export Plug-In . SVG Version: 6.00 Build 0)  -->
<svg version="1.1" id="Capa_1" xmlns="http://www.w3.org/2000/svg" xmlns:xlink="http://www.w3.org/1999/xlink" x="0px" y="0px"
	 viewBox="0 0 512.038 512.038" style="enable-background:new 0 0 512.038 512.038;" xml:space="preserve">
<g transform="translate(0 -1)">
	<path style="fill:#A4C2F7;" d="M264.552,43.705h136.533c9.426,0,17.067,7.641,17.067,17.067v426.667
		c0,9.426-7.641,17.067-17.067,17.067H264.552c-9.426,0-17.067-7.641-17.067-17.067V60.771
		C247.486,51.346,255.127,43.705,264.552,43.705z"/>
	<path style="fill:#FFFFFF;" d="M110.952,43.705h136.533c9.426,0,17.067,7.641,17.067,17.067v426.667
		c0,9.426-7.641,17.067-17.067,17.067H110.952c-9.426,0-17.067-7.641-17.067-17.067V60.771
		C93.886,51.346,101.527,43.705,110.952,43.705z"/>
	<path style="fill:#E3E7F2;" d="M136.552,43.705h238.933c9.426,0,17.067,7.641,17.067,17.067v426.667
		c0,9.426-7.641,17.067-17.067,17.067H136.552c-9.426,0-17.067-7.641-17.067-17.067V60.771
		C119.486,51.346,127.127,43.705,136.552,43.705z"/>
	<g>
		<circle style="fill:#A4C2F7;" cx="256.019" cy="94.905" r="25.6"/>
		<circle style="fill:#A4C2F7;" cx="256.019" cy="308.238" r="102.4"/>
	</g>
	<path style="fill:#E3E7F2;" d="M288.31,353.134c6.657-7.657,10.34-17.452,10.375-27.598v-34.365
		c0-23.564-19.103-42.667-42.667-42.667s-42.667,19.103-42.667,42.667v34.365c0.036,10.146,3.718,19.941,10.376,27.598
		L174.21,369.64c19.278,25.803,49.6,40.998,81.809,40.998s62.531-15.195,81.809-40.998L288.31,353.134z"/>
	<g>
		<path style="fill:#428DFF;" d="M401.086,513.038H110.952c-14.132-0.015-25.585-11.468-25.6-25.6V60.771
			c0.015-14.132,11.468-25.585,25.6-25.6h290.133c14.132,0.015,25.585,11.468,25.6,25.6v426.667
			C426.67,501.57,415.218,513.023,401.086,513.038z M110.952,52.238c-4.711,0.005-8.529,3.822-8.533,8.533v426.667
			c0.005,4.711,3.822,8.529,8.533,8.533h290.133c4.712-0.003,8.53-3.822,8.533-8.533V60.771c-0.003-4.712-3.822-8.53-8.533-8.533
			H110.952z"/>
		<path style="fill:#428DFF;" d="M256.019,129.038c-18.851,0-34.133-15.282-34.133-34.133s15.282-34.133,34.133-34.133
			s34.133,15.282,34.133,34.133C290.132,113.748,274.862,129.018,256.019,129.038L256.019,129.038z M256.019,77.838
			c-9.426,0-17.067,7.641-17.067,17.067s7.641,17.067,17.067,17.067c9.426,0,17.067-7.641,17.067-17.067
			C273.075,85.484,265.44,77.849,256.019,77.838z"/>
		<path style="fill:#428DFF;" d="M256.019,419.171c-61.267,0-110.933-49.667-110.933-110.933s49.667-110.933,110.933-110.933
			s110.933,49.667,110.933,110.933C366.883,369.476,317.257,419.102,256.019,419.171z M256.019,214.371
			c-51.841,0-93.867,42.026-93.867,93.867c0,51.841,42.026,93.867,93.867,93.867s93.867-42.026,93.867-93.867
			C349.827,256.421,307.836,214.43,256.019,214.371L256.019,214.371z"/>
		<path style="fill:#428DFF;" d="M256.019,419.171c-34.916,0.098-67.806-16.382-88.629-44.408c-1.65-2.193-2.143-5.046-1.325-7.666
			c0.818-2.62,2.846-4.686,5.45-5.551l38.933-12.975c-3.681-7.121-5.61-15.017-5.629-23.033v-34.367c0-28.277,22.923-51.2,51.2-51.2
			s51.2,22.923,51.2,51.2v34.367c-0.019,8.016-1.948,15.912-5.629,23.033l38.933,12.975c2.604,0.865,4.633,2.931,5.45,5.551
			c0.818,2.62,0.324,5.473-1.325,7.666C323.825,402.79,290.935,419.27,256.019,419.171L256.019,419.171z M188.911,373.738
			c17.618,18.134,41.825,28.367,67.108,28.367s49.49-10.232,67.108-28.367l-37.513-12.508c-2.695-0.897-4.766-3.076-5.526-5.812
			c-0.76-2.737-0.108-5.672,1.739-7.829c5.347-6.103,8.304-13.936,8.325-22.05v-34.367c0-18.851-15.282-34.133-34.133-34.133
			s-34.133,15.282-34.133,34.133v34.367c0.021,8.114,2.978,15.947,8.325,22.05c1.847,2.158,2.499,5.093,1.739,7.829
			c-0.76,2.737-2.832,4.916-5.526,5.812L188.911,373.738z"/>
		<path style="fill:#428DFF;" d="M256.028,103.438c-3.236,0.004-6.195-1.822-7.642-4.717l-42.667-85.333
			c-1.381-2.729-1.196-5.989,0.485-8.544c1.681-2.555,4.602-4.016,7.655-3.827c3.053,0.188,5.772,1.996,7.127,4.739l42.667,85.333
			c1.323,2.644,1.182,5.784-0.371,8.3S258.984,103.436,256.028,103.438z"/>
		<path style="fill:#428DFF;" d="M281.611,52.238c-3.23-0.004-6.181-1.83-7.624-4.72c-1.443-2.889-1.131-6.346,0.807-8.93
			l25.6-34.133c1.825-2.448,4.818-3.734,7.85-3.373c3.032,0.362,5.639,2.316,6.836,5.125s0.802,6.043-1.036,8.481l-25.6,34.133
			C286.835,50.977,284.301,52.245,281.611,52.238z"/>
		<path style="fill:#428DFF;" d="M418.152,171.705H93.886c-4.713,0-8.533-3.821-8.533-8.533c0-4.713,3.821-8.533,8.533-8.533
			h324.267c4.713,0,8.533,3.821,8.533,8.533C426.686,167.884,422.865,171.705,418.152,171.705z"/>
		<path style="fill:#428DFF;" d="M418.152,470.371H93.886c-4.713,0-8.533-3.82-8.533-8.533s3.821-8.533,8.533-8.533h324.267
			c4.713,0,8.533,3.821,8.533,8.533S422.865,470.371,418.152,470.371z"/>
	</g>
</g>
<g>
</g>
<g>
</g>
<g>
</g>
<g>
</g>
<g>
</g>
<g>
</g>
<g>
</g>
<g>
</g>
<g>
</g>
<g>
</g>
<g>
</g>
<g>
</g>
<g>
</g>
<g>
</g>
<g>
</g>
</svg>
