<?xml version="1.0" encoding="iso-8859-1"?>
<!-- Generator: Adobe Illustrator 19.0.0, SVG Export Plug-In . SVG Version: 6.00 Build 0)  -->
<svg version="1.1" id="Capa_1" xmlns="http://www.w3.org/2000/svg" xmlns:xlink="http://www.w3.org/1999/xlink" x="0px" y="0px"
	 viewBox="0 0 512.038 512.038" style="enable-background:new 0 0 512.038 512.038;" xml:space="preserve">
<g transform="translate(0 -1)">
	<path style="fill:#A4C2F7;" d="M264.552,43.705h136.533c9.426,0,17.067,7.641,17.067,17.067v426.667
		c0,9.426-7.641,17.067-17.067,17.067H264.552c-9.426,0-17.067-7.641-17.067-17.067V60.771
		C247.486,51.346,255.127,43.705,264.552,43.705z"/>
	<path style="fill:#FFFFFF;" d="M110.952,43.705h136.533c9.426,0,17.067,7.641,17.067,17.067v426.667
		c0,9.426-7.641,17.067-17.067,17.067H110.952c-9.426,0-17.067-7.641-17.067-17.067V60.771
		C93.886,51.346,101.527,43.705,110.952,43.705z"/>
	<path style="fill:#E3E7F2;" d="M136.552,43.705h238.933c9.426,0,17.067,7.641,17.067,17.067v426.667
		c0,9.426-7.641,17.067-17.067,17.067H136.552c-9.426,0-17.067-7.641-17.067-17.067V60.771
		C119.486,51.346,127.127,43.705,136.552,43.705z"/>
	<g>
		<rect x="179.219" y="154.638" style="fill:#A4C2F7;" width="153.6" height="153.6"/>
		<circle style="fill:#A4C2F7;" cx="256.019" cy="94.905" r="25.6"/>
	</g>
	<g>
		<circle style="fill:#E3E7F2;" cx="256.019" cy="222.905" r="34.133"/>
		<path style="fill:#E3E7F2;" d="M256.019,257.038L256.019,257.038c23.564,0,42.667,19.103,42.667,42.667v8.533h-85.333v-8.533
			C213.352,276.141,232.455,257.038,256.019,257.038z"/>
	</g>
	<g>
		<path style="fill:#428DFF;" d="M401.086,513.038H110.952c-14.132-0.015-25.585-11.468-25.6-25.6V60.771
			c0.015-14.132,11.468-25.585,25.6-25.6h290.133c14.132,0.015,25.585,11.468,25.6,25.6v426.667
			C426.67,501.57,415.218,513.023,401.086,513.038z M110.952,52.238c-4.712,0.003-8.53,3.822-8.533,8.533v426.667
			c0.003,4.712,3.822,8.53,8.533,8.533h290.133c4.712-0.003,8.53-3.822,8.533-8.533V60.771c-0.003-4.712-3.822-8.53-8.533-8.533
			H110.952z"/>
		<path style="fill:#428DFF;" d="M256.019,129.038c-18.851,0-34.133-15.282-34.133-34.133s15.282-34.133,34.133-34.133
			s34.133,15.282,34.133,34.133C290.134,113.748,274.863,129.019,256.019,129.038L256.019,129.038z M256.019,77.838
			c-9.426,0-17.067,7.641-17.067,17.067s7.641,17.067,17.067,17.067c9.426,0,17.067-7.641,17.067-17.067
			C273.074,85.484,265.44,77.85,256.019,77.838L256.019,77.838z"/>
		<path style="fill:#428DFF;" d="M256.028,103.438c-3.235,0.003-6.194-1.823-7.642-4.717l-42.667-85.333
			c-1.381-2.729-1.196-5.989,0.485-8.544c1.681-2.555,4.602-4.016,7.655-3.827c3.053,0.188,5.772,1.996,7.127,4.739l42.667,85.333
			c1.323,2.644,1.182,5.784-0.371,8.3S258.984,103.436,256.028,103.438L256.028,103.438z"/>
		<path style="fill:#428DFF;" d="M281.611,52.238c-3.229-0.005-6.178-1.833-7.621-4.721c-1.443-2.889-1.131-6.344,0.804-8.929
			l25.6-34.133c2.831-3.754,8.165-4.509,11.927-1.689c3.762,2.82,4.532,8.153,1.723,11.922l-25.6,34.133
			C286.836,50.978,284.301,52.245,281.611,52.238z"/>
		<path style="fill:#428DFF;" d="M332.819,316.771h-153.6c-2.264,0.001-4.435-0.897-6.035-2.498
			c-1.601-1.601-2.499-3.772-2.498-6.035v-153.6c-0.001-2.264,0.897-4.435,2.498-6.035s3.772-2.499,6.035-2.498h153.6
			c2.264-0.001,4.435,0.897,6.035,2.498s2.499,3.772,2.498,6.035v153.6c0.001,2.264-0.897,4.435-2.498,6.035
			C337.254,315.874,335.083,316.773,332.819,316.771L332.819,316.771z M187.752,299.705h136.533V163.171H187.752V299.705z"/>
		<path style="fill:#428DFF;" d="M341.352,367.971H170.686c-4.713,0-8.533-3.821-8.533-8.533s3.82-8.533,8.533-8.533h170.667
			c4.713,0,8.533,3.82,8.533,8.533S346.065,367.971,341.352,367.971z"/>
		<path style="fill:#428DFF;" d="M341.352,410.638H170.686c-4.713,0-8.533-3.82-8.533-8.533s3.82-8.533,8.533-8.533h170.667
			c4.713,0,8.533,3.821,8.533,8.533S346.065,410.638,341.352,410.638z"/>
		<path style="fill:#428DFF;" d="M341.352,453.305H170.686c-4.713,0-8.533-3.82-8.533-8.533s3.82-8.533,8.533-8.533h170.667
			c4.713,0,8.533,3.82,8.533,8.533S346.065,453.305,341.352,453.305z"/>
		<path style="fill:#428DFF;" d="M256.019,265.571c-23.564,0-42.667-19.103-42.667-42.667s19.103-42.667,42.667-42.667
			s42.667,19.103,42.667,42.667C298.658,246.457,279.572,265.544,256.019,265.571L256.019,265.571z M256.019,197.305
			c-14.139,0-25.6,11.462-25.6,25.6c0,14.138,11.462,25.6,25.6,25.6c14.138,0,25.6-11.462,25.6-25.6
			C281.604,208.773,270.151,197.32,256.019,197.305L256.019,197.305z"/>
		<path style="fill:#428DFF;" d="M298.686,316.771h-85.333c-2.264,0.001-4.435-0.897-6.035-2.498
			c-1.601-1.601-2.499-3.772-2.498-6.035v-8.533c0-28.277,22.923-51.2,51.2-51.2s51.2,22.923,51.2,51.2v8.533
			c0.001,2.264-0.897,4.435-2.498,6.035C303.121,315.874,300.949,316.773,298.686,316.771z M221.886,299.705h68.267
			c0-18.851-15.282-34.133-34.133-34.133S221.886,280.853,221.886,299.705z"/>
	</g>
</g>
<g>
</g>
<g>
</g>
<g>
</g>
<g>
</g>
<g>
</g>
<g>
</g>
<g>
</g>
<g>
</g>
<g>
</g>
<g>
</g>
<g>
</g>
<g>
</g>
<g>
</g>
<g>
</g>
<g>
</g>
</svg>
