<?xml version="1.0" encoding="iso-8859-1"?>
<!-- Generator: Adobe Illustrator 19.0.0, SVG Export Plug-In . SVG Version: 6.00 Build 0)  -->
<svg version="1.1" id="Capa_1" xmlns="http://www.w3.org/2000/svg" xmlns:xlink="http://www.w3.org/1999/xlink" x="0px" y="0px"
	 viewBox="0 0 512.038 512.038" style="enable-background:new 0 0 512.038 512.038;" xml:space="preserve">
<g transform="translate(0 -1)">
	<path style="fill:#A4C2F7;" d="M264.552,43.705h136.533c9.426,0,17.067,7.641,17.067,17.067v426.667
		c0,9.426-7.641,17.067-17.067,17.067H264.552c-9.426,0-17.067-7.641-17.067-17.067V60.771
		C247.486,51.346,255.127,43.705,264.552,43.705z"/>
	<path style="fill:#FFFFFF;" d="M110.952,43.705h136.533c9.426,0,17.067,7.641,17.067,17.067v426.667
		c0,9.426-7.641,17.067-17.067,17.067H110.952c-9.426,0-17.067-7.641-17.067-17.067V60.771
		C93.886,51.346,101.527,43.705,110.952,43.705z"/>
	<path style="fill:#E3E7F2;" d="M136.552,43.705h238.933c9.426,0,17.067,7.641,17.067,17.067v426.667
		c0,9.426-7.641,17.067-17.067,17.067H136.552c-9.426,0-17.067-7.641-17.067-17.067V60.771
		C119.486,51.346,127.127,43.705,136.552,43.705z"/>
	<g>
		<circle style="fill:#A4C2F7;" cx="256.019" cy="94.905" r="25.6"/>
		<path style="fill:#A4C2F7;" d="M332.775,350.905c-0.219-10.372-6.16-19.77-15.434-24.419l-32.146-16.421
			c-2.194-1.121-3.576-3.377-3.575-5.842v-9.84c15.711-7.111,27.079-21.3,30.591-38.183c7.143-2.185,12.035-8.76,12.076-16.229
			v-8.533c-0.033-6.333-3.574-12.126-9.196-15.042c-3.761-32.094-24.977-45.079-59.071-45.079c-1.614,0-3.197,0.063-4.749,0.188
			c-11.545,1.22-23.163-1.514-32.953-7.754c-3.669-2.348-6.958-5.243-9.753-8.584c-0.465-0.614-1.285-0.84-1.999-0.549
			c-0.714,0.29-1.144,1.024-1.048,1.789c0.341,2.987,0.85,6.469,1.606,10.273c2.817,14.169,1.134,12.1-4.345,25.467
			c-3.105,7.773-5.088,15.949-5.889,24.281c-5.589,2.927-9.103,8.702-9.136,15.01v8.533c0.04,7.469,4.933,14.045,12.076,16.229
			c3.513,16.883,14.88,31.073,30.591,38.183v9.773c0,2.499-1.42,4.782-3.663,5.885l-32.945,16.225
			c-8.995,4.906-14.592,14.333-14.592,24.579v0.058H332.775z"/>
	</g>
	<g>
		<path style="fill:#428DFF;" d="M401.086,513.038H110.952c-14.132-0.015-25.585-11.468-25.6-25.6V60.771
			c0.015-14.132,11.468-25.585,25.6-25.6h290.133c14.132,0.015,25.585,11.468,25.6,25.6v426.667
			C426.67,501.57,415.218,513.023,401.086,513.038z M110.952,52.238c-4.712,0.003-8.53,3.822-8.533,8.533v426.667
			c0.003,4.712,3.822,8.53,8.533,8.533h290.133c4.712-0.003,8.53-3.822,8.533-8.533V60.771c-0.003-4.712-3.822-8.53-8.533-8.533
			H110.952z"/>
		<path style="fill:#428DFF;" d="M256.019,129.038c-18.851,0-34.133-15.282-34.133-34.133s15.282-34.133,34.133-34.133
			s34.133,15.282,34.133,34.133C290.134,113.748,274.863,129.019,256.019,129.038L256.019,129.038z M256.019,77.838
			c-9.426,0-17.067,7.641-17.067,17.067s7.641,17.067,17.067,17.067c9.426,0,17.067-7.641,17.067-17.067
			C273.074,85.484,265.44,77.85,256.019,77.838L256.019,77.838z"/>
		<path style="fill:#428DFF;" d="M256.028,103.438c-3.235,0.003-6.194-1.823-7.642-4.717l-42.667-85.333
			c-1.381-2.729-1.196-5.989,0.485-8.544c1.681-2.555,4.602-4.016,7.655-3.827c3.053,0.188,5.772,1.996,7.127,4.739l42.667,85.333
			c1.323,2.644,1.182,5.784-0.371,8.3S258.984,103.436,256.028,103.438z"/>
		<path style="fill:#428DFF;" d="M281.611,52.238c-3.229-0.005-6.178-1.833-7.621-4.721c-1.443-2.889-1.131-6.344,0.804-8.929
			l25.6-34.133c2.831-3.754,8.165-4.509,11.927-1.689c3.762,2.82,4.532,8.153,1.723,11.922l-25.6,34.133
			C286.836,50.978,284.301,52.245,281.611,52.238z"/>
		<path style="fill:#428DFF;" d="M332.819,436.238h-153.6c-4.713,0-8.533-3.821-8.533-8.533c0-4.713,3.821-8.533,8.533-8.533h153.6
			c4.713,0,8.533,3.821,8.533,8.533C341.352,432.418,337.532,436.238,332.819,436.238z"/>
		<path style="fill:#428DFF;" d="M298.686,402.105h-85.333c-4.713,0-8.533-3.821-8.533-8.533c0-4.713,3.821-8.533,8.533-8.533
			h85.333c4.713,0,8.533,3.821,8.533,8.533C307.219,398.284,303.399,402.105,298.686,402.105z"/>
		<path style="fill:#428DFF;" d="M187.752,470.371h-8.533c-4.713,0-8.533-3.82-8.533-8.533s3.821-8.533,8.533-8.533h8.533
			c4.713,0,8.533,3.821,8.533,8.533S192.465,470.371,187.752,470.371z"/>
		<path style="fill:#428DFF;" d="M238.952,470.371h-17.067c-4.713,0-8.533-3.82-8.533-8.533s3.82-8.533,8.533-8.533h17.067
			c4.713,0,8.533,3.821,8.533,8.533S243.665,470.371,238.952,470.371z"/>
		<path style="fill:#428DFF;" d="M281.619,470.371h-8.533c-4.713,0-8.533-3.82-8.533-8.533s3.82-8.533,8.533-8.533h8.533
			c4.713,0,8.533,3.821,8.533,8.533S286.332,470.371,281.619,470.371z"/>
		<path style="fill:#428DFF;" d="M332.819,470.371h-17.067c-4.713,0-8.533-3.82-8.533-8.533s3.821-8.533,8.533-8.533h17.067
			c4.713,0,8.533,3.821,8.533,8.533S337.532,470.371,332.819,470.371z"/>
		<path style="fill:#428DFF;" d="M418.152,359.438H93.886c-4.713,0-8.533-3.82-8.533-8.533s3.821-8.533,8.533-8.533h324.267
			c4.713,0,8.533,3.82,8.533,8.533S422.865,359.438,418.152,359.438z"/>
		<path style="fill:#428DFF;" d="M332.777,359.438H179.219c-2.264,0.001-4.435-0.897-6.035-2.498
			c-1.601-1.601-2.499-3.772-2.498-6.035c-0.021-13.389,7.286-25.717,19.042-32.125l32.158-15.858v-3.209
			c-14.271-8.049-24.748-21.45-29.117-37.242c-8.346-4.4-13.565-13.065-13.55-22.5v-8.533c0.013-7.773,3.577-15.114,9.675-19.933
			c1.058-7.748,3.068-15.336,5.984-22.592c1.267-3.092,2.342-5.392,3.209-7.275c2.317-4.975,2.317-4.975,0.667-13.292
			c-0.808-4.075-1.35-7.783-1.708-10.975c-0.531-4.558,2.039-8.912,6.286-10.649c4.247-1.737,9.132-0.433,11.947,3.191
			c2.254,2.629,4.886,4.909,7.808,6.767c8.207,5.118,17.891,7.341,27.508,6.317c1.767-0.142,3.575-0.211,5.425-0.208
			c39.142,0,61.65,16.35,66.975,48.608c6.19,4.808,9.815,12.203,9.825,20.041v8.533c0.015,9.435-5.204,18.1-13.55,22.5
			c-4.368,15.791-14.846,29.193-29.117,37.242v3.3l31.075,15.875c12.081,6.06,19.813,18.312,20.083,31.825
			c0.05,2.296-0.826,4.515-2.432,6.157C337.273,358.512,335.074,359.438,332.777,359.438L332.777,359.438z M189.677,342.371h132.3
			c-1.89-3.562-4.844-6.446-8.45-8.25l-32.217-16.458c-5.06-2.567-8.242-7.767-8.225-13.442v-9.833
			c-0.003-3.408,2.026-6.49,5.158-7.834c13.337-6.048,22.923-18.176,25.725-32.55c0.753-2.833,2.909-5.08,5.708-5.95
			c3.564-1.092,6.017-4.357,6.075-8.084v-8.533c-0.036-3.168-1.827-6.054-4.65-7.492c-2.485-1.315-4.164-3.767-4.492-6.558
			c-3.042-25.958-18.642-37.533-50.592-37.533c-1.383,0-2.742,0.05-4.067,0.158c-12.179,1.189-24.435-1.311-35.175-7.175
			c0.731,5.542-0.4,11.171-3.217,16c-0.783,1.692-1.75,3.767-2.883,6.542c-2.797,7.023-4.584,14.408-5.308,21.933
			c-0.29,2.822-1.964,5.314-4.467,6.65c-2.804,1.445-4.58,4.321-4.616,7.475v8.533c0.058,3.727,2.511,6.991,6.075,8.083
			c2.799,0.87,4.955,3.117,5.708,5.95c2.802,14.374,12.388,26.503,25.725,32.55c3.132,1.344,5.161,4.426,5.158,7.834v9.767
			c-0.019,5.754-3.291,11.002-8.45,13.55l-32.917,16.225C194.125,335.84,191.358,338.794,189.677,342.371L189.677,342.371z
			 M222.977,302.38l-0.009,0.009L222.977,302.38z M201.861,160.463l0.042,0.042L201.861,160.463z"/>
	</g>
</g>
<g>
</g>
<g>
</g>
<g>
</g>
<g>
</g>
<g>
</g>
<g>
</g>
<g>
</g>
<g>
</g>
<g>
</g>
<g>
</g>
<g>
</g>
<g>
</g>
<g>
</g>
<g>
</g>
<g>
</g>
</svg>
