<?xml version="1.0" encoding="iso-8859-1"?>
<!-- Generator: Adobe Illustrator 19.0.0, SVG Export Plug-In . SVG Version: 6.00 Build 0)  -->
<svg version="1.1" id="Capa_1" xmlns="http://www.w3.org/2000/svg" xmlns:xlink="http://www.w3.org/1999/xlink" x="0px" y="0px"
	 viewBox="0 0 512 512" style="enable-background:new 0 0 512 512;" xml:space="preserve">
<g>
	<path style="fill:#A4C2F7;" d="M216.004,42.667h79.991c6.188,0,11.204,5.016,11.204,11.204v114.125
		c0,6.188-5.016,11.204-11.204,11.204h-79.991c-6.188,0-11.204-5.016-11.204-11.204V53.871
		C204.8,47.683,209.816,42.667,216.004,42.667z"/>
	<path style="fill:#FFFFFF;" d="M39.919,128H204.8v39.998c0,2.971,1.18,5.82,3.281,7.921c2.101,2.101,4.95,3.281,7.921,3.281h54.397
		l2.668,290.133H39.919c-17.334,0-31.386-14.052-31.386-31.386V159.386C8.533,142.052,22.585,128,39.919,128z"/>
	<circle style="fill:#E3E7F2;" cx="256" cy="93.867" r="25.6"/>
	<path style="fill:#A4C2F7;" d="M472.081,128H307.2v39.998c0,2.971-1.18,5.82-3.281,7.921c-2.101,2.101-4.95,3.281-7.921,3.281
		h-54.397l-2.668,290.133h233.148c17.334,0,31.386-14.052,31.386-31.386V159.386C503.467,142.052,489.415,128,472.081,128
		L472.081,128z"/>
	<path style="fill:#E3E7F2;" d="M307.2,128v39.999c0,2.971-1.18,5.82-3.281,7.921c-2.101,2.101-4.95,3.281-7.921,3.281h-79.997
		c-6.186,0-11.201-5.015-11.201-11.201V128H65.519c-17.334,0-31.386,14.052-31.386,31.386v278.562
		c0,17.334,14.052,31.386,31.386,31.386h380.962c17.334,0,31.386-14.052,31.386-31.386V159.386
		c0-17.334-14.052-31.386-31.386-31.386H307.2z"/>
	<path style="fill:#A4C2F7;" d="M197.855,368.262l-32.146-16.421c-2.194-1.121-3.576-3.377-3.575-5.842v-9.84
		c15.711-7.111,27.079-21.3,30.591-38.183c7.143-2.184,12.035-8.76,12.076-16.229v-8.533c-0.033-6.333-3.574-12.126-9.196-15.042
		c-3.761-32.094-24.977-45.079-59.071-45.079c-1.614,0-3.197,0.063-4.749,0.188c-11.545,1.22-23.163-1.514-32.953-7.754
		c-3.669-2.348-6.958-5.243-9.754-8.583c-0.465-0.614-1.285-0.839-1.999-0.549c-0.714,0.29-1.143,1.024-1.048,1.788
		c0.341,2.988,0.85,6.469,1.606,10.273c2.817,14.169,1.134,12.1-4.345,25.467c-3.105,7.773-5.088,15.949-5.889,24.281
		c-5.588,2.927-9.103,8.702-9.136,15.01v8.533c0.04,7.469,4.933,14.045,12.076,16.229c3.513,16.884,14.88,31.073,30.591,38.183
		v9.773c0,2.499-1.42,4.782-3.663,5.885l-32.945,16.225c-8.995,4.906-14.592,14.333-14.592,24.579v11.307
		c0,9.64,34.384,14.352,76.8,14.352s76.8-4.713,76.8-14.352v-10.621C213.333,382.701,207.341,373.005,197.855,368.262
		L197.855,368.262z"/>
	<g>
		<path style="fill:#428DFF;" d="M296,187.733h-80c-10.894-0.011-19.722-8.839-19.733-19.733V53.867
			c0.011-10.894,8.839-19.723,19.733-19.733h80c10.894,0.011,19.723,8.839,19.733,19.733V168
			C315.723,178.894,306.894,187.723,296,187.733z M216,51.2c-1.471,0.004-2.662,1.196-2.666,2.667V168
			c0.004,1.471,1.196,2.662,2.667,2.667h80c1.471-0.004,2.663-1.196,2.667-2.667V53.867c-0.004-1.471-1.196-2.662-2.667-2.667H216z"
			/>
		<path style="fill:#428DFF;" d="M452.267,392.533c-1.115-0.014-2.216-0.246-3.242-0.683c-1.045-0.412-2.001-1.02-2.817-1.792
			c-0.752-0.831-1.358-1.783-1.792-2.817c-0.437-1.025-0.669-2.127-0.683-3.241c0-4.713,3.82-8.533,8.533-8.533
			s8.533,3.821,8.533,8.533c-0.014,1.115-0.246,2.216-0.683,3.242c-0.777,2.143-2.465,3.831-4.608,4.608
			C454.483,392.287,453.382,392.52,452.267,392.533z"/>
		<path style="fill:#428DFF;" d="M136.533,426.817c-85.333,0-85.333-16.042-85.333-22.892v-11.3
			c-0.004-13.369,7.297-25.673,19.033-32.075L102.4,344.7v-3.209c-14.271-8.053-24.749-21.457-29.117-37.25
			c-8.346-4.396-13.564-13.059-13.55-22.491v-8.533c0.012-7.776,3.575-15.12,9.675-19.942c1.056-7.746,3.066-15.331,5.984-22.583
			c1.267-3.092,2.342-5.392,3.209-7.275c2.317-4.975,2.317-4.975,0.667-13.292c-0.808-4.075-1.35-7.792-1.708-10.967
			c-0.534-4.554,2.027-8.907,6.266-10.652c4.24-1.745,9.123-0.457,11.95,3.152c2.253,2.644,4.891,4.933,7.825,6.792
			c8.204,5.125,17.89,7.352,27.508,6.325c1.767-0.142,3.575-0.214,5.425-0.217c39.142,0,61.65,16.35,66.975,48.608
			c6.192,4.81,9.817,12.209,9.825,20.05v8.533c0.015,9.433-5.204,18.095-13.55,22.492c-4.368,15.793-14.845,29.197-29.117,37.25v3.3
			l31.042,15.85c12.387,6.167,20.202,18.829,20.158,32.667v10.617C221.867,410.775,221.867,426.817,136.533,426.817z M68.267,402
			c5.316,3.233,26.975,7.75,68.267,7.75s62.95-4.517,68.267-7.75v-8.692c0.022-7.382-4.153-14.136-10.767-17.417l-0.058-0.033
			l-32.15-16.417c-5.054-2.575-8.233-7.77-8.225-13.442v-9.842c-0.001-3.409,2.027-6.492,5.158-7.842
			c13.344-6.039,22.933-18.172,25.725-32.55c0.757-2.829,2.912-5.072,5.708-5.942c3.561-1.091,6.014-4.351,6.075-8.075v-8.533
			c-0.03-3.167-1.819-6.054-4.642-7.492c-2.492-1.308-4.177-3.763-4.5-6.558c-3.042-25.967-18.642-37.542-50.592-37.542
			c-1.383,0-2.742,0.058-4.067,0.167c-12.181,1.198-24.439-1.306-35.175-7.183c0.731,5.545-0.401,11.176-3.217,16.009
			c-0.783,1.692-1.75,3.767-2.883,6.542c-2.8,7.023-4.587,14.408-5.308,21.933c-0.293,2.819-1.967,5.308-4.467,6.642
			c-2.806,1.447-4.583,4.327-4.617,7.484v8.533c0.061,3.724,2.514,6.984,6.075,8.075c2.797,0.869,4.952,3.112,5.709,5.942
			c2.792,14.378,12.381,26.511,25.725,32.55c3.131,1.349,5.159,4.432,5.158,7.841v9.775c-0.019,5.754-3.291,11.002-8.45,13.55
			L78.092,375.7c-6.095,3.45-9.852,9.922-9.825,16.925V402z M103.5,344.158l-0.017,0.009L103.5,344.158z"/>
		<path style="fill:#428DFF;" d="M349.867,247.617h-85.333c-4.713,0-8.533-3.821-8.533-8.533s3.821-8.533,8.533-8.533h85.333
			c4.713,0,8.533,3.82,8.533,8.533S354.579,247.617,349.867,247.617z"/>
		<path style="fill:#428DFF;" d="M273.067,392.683h-8.533c-4.713,0-8.533-3.82-8.533-8.533c0-4.713,3.821-8.533,8.533-8.533h8.533
			c4.713,0,8.533,3.82,8.533,8.533C281.6,388.863,277.78,392.683,273.067,392.683z"/>
		<path style="fill:#428DFF;" d="M324.267,392.683H307.2c-4.713,0-8.533-3.82-8.533-8.533c0-4.713,3.82-8.533,8.533-8.533h17.067
			c4.713,0,8.533,3.82,8.533,8.533C332.8,388.863,328.98,392.683,324.267,392.683z"/>
		<path style="fill:#428DFF;" d="M366.933,392.683H358.4c-4.713,0-8.533-3.82-8.533-8.533c0-4.713,3.82-8.533,8.533-8.533h8.533
			c4.713,0,8.533,3.82,8.533,8.533C375.467,388.863,371.646,392.683,366.933,392.683z"/>
		<path style="fill:#428DFF;" d="M418.133,392.683h-17.067c-4.713,0-8.533-3.82-8.533-8.533c0-4.713,3.82-8.533,8.533-8.533h17.067
			c4.713,0,8.533,3.82,8.533,8.533C426.667,388.863,422.846,392.683,418.133,392.683z"/>
		<path style="fill:#428DFF;" d="M452.267,298.817H264.533c-4.713,0-8.533-3.821-8.533-8.533s3.821-8.533,8.533-8.533h187.733
			c4.713,0,8.533,3.82,8.533,8.533S456.98,298.817,452.267,298.817z"/>
		<path style="fill:#428DFF;" d="M452.267,350.017H264.533c-4.713,0-8.533-3.82-8.533-8.533c0-4.713,3.821-8.533,8.533-8.533
			h187.733c4.713,0,8.533,3.821,8.533,8.533C460.8,346.196,456.98,350.017,452.267,350.017z"/>
		<path style="fill:#428DFF;" d="M472.083,477.867H39.917C17.882,477.84,0.026,459.985,0,437.95V159.383
			c0.026-22.034,17.882-39.89,39.917-39.917H204.8c2.264-0.001,4.435,0.897,6.035,2.498c1.601,1.601,2.499,3.772,2.498,6.035v40
			c0.004,1.471,1.196,2.662,2.667,2.667h80c1.471-0.004,2.663-1.196,2.667-2.667v-40c-0.001-2.264,0.897-4.435,2.498-6.035
			c1.601-1.601,3.772-2.499,6.035-2.498h164.883c22.034,0.026,39.89,17.882,39.917,39.917V437.95
			C511.974,459.985,494.118,477.84,472.083,477.867z M39.917,136.533c-12.614,0.014-22.836,10.236-22.85,22.85V437.95
			c0.014,12.614,10.236,22.836,22.85,22.85h432.167c12.614-0.014,22.836-10.236,22.85-22.85V159.383
			c-0.014-12.614-10.236-22.836-22.85-22.85h-156.35V168c-0.011,10.894-8.839,19.723-19.734,19.733h-80
			c-10.894-0.011-19.722-8.839-19.733-19.733v-31.467H39.917z"/>
		<path style="fill:#428DFF;" d="M256,128c-18.851,0-34.133-15.282-34.133-34.133S237.149,59.733,256,59.733
			c18.851,0,34.133,15.282,34.133,34.133C290.115,112.71,274.844,127.981,256,128L256,128z M256,76.8
			c-9.426,0-17.067,7.641-17.067,17.067s7.641,17.067,17.067,17.067c9.426,0,17.067-7.641,17.067-17.067
			C273.054,84.446,265.421,76.812,256,76.8L256,76.8z"/>
	</g>
</g>
<g>
</g>
<g>
</g>
<g>
</g>
<g>
</g>
<g>
</g>
<g>
</g>
<g>
</g>
<g>
</g>
<g>
</g>
<g>
</g>
<g>
</g>
<g>
</g>
<g>
</g>
<g>
</g>
<g>
</g>
</svg>
