<?xml version="1.0" encoding="iso-8859-1"?>
<!-- Generator: Adobe Illustrator 19.0.0, SVG Export Plug-In . SVG Version: 6.00 Build 0)  -->
<svg version="1.1" id="Capa_1" xmlns="http://www.w3.org/2000/svg" xmlns:xlink="http://www.w3.org/1999/xlink" x="0px" y="0px"
	 viewBox="0 0 512 512" style="enable-background:new 0 0 512 512;" xml:space="preserve">
<g>
	<path style="fill:#A4C2F7;" d="M266.385,76.8h209.63c15.161,0,27.452,12.291,27.452,27.452v303.497
		c0,15.161-12.291,27.452-27.452,27.452h-209.63c-15.161,0-27.452-12.291-27.452-27.452V104.252
		C238.933,89.091,251.224,76.8,266.385,76.8z"/>
	<path style="fill:#FFFFFF;" d="M35.985,76.8h209.63c15.161,0,27.452,12.291,27.452,27.452v303.497
		c0,15.161-12.291,27.452-27.452,27.452H35.985c-15.161,0-27.452-12.291-27.452-27.452V104.252
		C8.533,89.091,20.824,76.8,35.985,76.8z"/>
	<path style="fill:#E3E7F2;" d="M61.585,76.8h388.83c15.161,0,27.452,12.291,27.452,27.452v303.497
		c0,15.161-12.291,27.452-27.452,27.452H61.585c-15.161,0-27.452-12.291-27.452-27.452V104.252
		C34.133,89.091,46.424,76.8,61.585,76.8z"/>
	<g>
		<rect x="34.133" y="119.467" style="fill:#A4C2F7;" width="469.333" height="68.267"/>
		<rect x="290.133" y="221.867" style="fill:#A4C2F7;" width="170.667" height="170.667"/>
	</g>
	<path style="fill:#E3E7F2;" d="M416.348,367.721l-21.431-10.948c-1.462-0.748-2.383-2.251-2.383-3.894v-6.56
		c10.474-4.74,18.053-14.2,20.394-25.456c4.762-1.456,8.024-5.839,8.05-10.819v-5.689c-0.022-4.221-2.382-8.083-6.129-10.027
		c-2.509-21.396-16.652-30.052-39.381-30.052c-1.076,0-2.132,0.042-3.167,0.125c-7.697,0.813-15.442-1.01-21.969-5.171
		c-2.446-1.565-4.638-3.494-6.502-5.721c-0.31-0.409-0.856-0.559-1.332-0.366c-0.476,0.193-0.762,0.682-0.699,1.191
		c0.228,1.992,0.567,4.312,1.071,6.85c1.879,9.446,0.756,8.067-2.896,16.977c-2.07,5.182-3.392,10.633-3.927,16.188
		c-3.725,1.952-6.068,5.801-6.09,10.006v5.69c0.026,4.979,3.288,9.363,8.05,10.819c2.341,11.256,9.919,20.716,20.394,25.456v6.515
		c0,1.667-0.947,3.188-2.442,3.925l-21.964,10.816c-5.997,3.27-9.728,9.555-9.728,16.385v7.537c0.01,0.357,0.09,0.709,0.235,1.035
		h101.929c0.146-0.326,0.226-0.678,0.235-1.035v-7.081C426.667,377.346,422.672,370.883,416.348,367.721L416.348,367.721z"/>
	<g>
		<path style="fill:#428DFF;" d="M476.017,443.733H35.983C16.119,443.711,0.022,427.614,0,407.75v-303.5
			c0.022-19.864,16.119-35.961,35.983-35.983h440.033c19.864,0.022,35.961,16.119,35.983,35.983v303.5
			C511.978,427.614,495.881,443.711,476.017,443.733z M35.983,85.333c-10.443,0.01-18.907,8.473-18.917,18.917v303.5
			c0.01,10.443,8.473,18.907,18.917,18.917h440.033c10.443-0.01,18.907-8.473,18.917-18.917v-303.5
			c-0.01-10.443-8.473-18.907-18.917-18.917H35.983z"/>
		<path style="fill:#428DFF;" d="M460.8,401.067H290.133c-2.264,0.001-4.435-0.897-6.035-2.498
			c-1.601-1.601-2.499-3.772-2.498-6.035V221.867c-0.001-2.264,0.897-4.435,2.498-6.035c1.601-1.601,3.772-2.499,6.035-2.498H460.8
			c2.264-0.001,4.435,0.897,6.035,2.498c1.601,1.601,2.499,3.772,2.498,6.035v170.667c0.001,2.264-0.897,4.435-2.498,6.035
			C465.235,400.169,463.064,401.068,460.8,401.067L460.8,401.067z M298.667,384h153.6V230.4h-153.6V384z"/>
		<path style="fill:#428DFF;" d="M426.433,401.067H324.5c-3.49-0.001-6.629-2.126-7.925-5.367c-0.55-1.332-0.835-2.759-0.842-4.2
			v-7.542c0-9.95,5.433-19.106,14.167-23.875l18.817-9.275c-8.513-5.64-14.797-14.066-17.775-23.834
			c-5.92-3.587-9.531-10.011-9.517-16.933v-5.692c0.003-5.643,2.421-11.014,6.642-14.758c0.755-5.033,2.103-9.959,4.016-14.675
			c0.858-2.108,1.592-3.683,2.192-4.966c0.392-0.85,0.883-1.908,0.958-2.208c-0.076-1.651-0.322-3.291-0.733-4.892
			c-0.558-2.808-0.933-5.367-1.183-7.558c-0.492-4.297,1.93-8.398,5.93-10.042c4-1.645,8.606-0.433,11.279,2.967
			c1.312,1.54,2.856,2.867,4.575,3.933c4.936,3.057,10.753,4.374,16.525,3.742c1.25-0.1,2.533-0.15,3.842-0.15
			c33.242,0,44.225,17.517,47.275,33.717c4.296,3.757,6.763,9.185,6.767,14.892v5.692c0.014,6.922-3.596,13.346-9.517,16.933
			c-2.986,9.806-9.306,18.26-17.867,23.9L420.2,360.1c9.22,4.591,15.035,14.017,15,24.317v7.083c-0.006,1.441-0.292,2.868-0.842,4.2
			C433.062,398.941,429.924,401.066,426.433,401.067L426.433,401.067z M332.8,384h85.325c-0.142-3.689-2.287-7.006-5.592-8.65
			l-0.067-0.033l-21.433-10.942c-4.326-2.196-7.046-6.641-7.033-11.492v-6.567c-0.001-3.409,2.027-6.492,5.158-7.842
			c8.074-3.703,13.858-11.083,15.525-19.808c0.753-2.833,2.909-5.08,5.708-5.95c1.189-0.355,2.016-1.434,2.05-2.675v-5.692
			c-0.028-1.052-0.633-2.004-1.575-2.475c-2.485-1.315-4.164-3.767-4.492-6.558c-1.308-11.125-5.999-22.508-30.908-22.508
			c-0.842,0-1.675,0.033-2.483,0.1c-7.086,0.658-14.226-0.388-20.825-3.05c-0.404,2.548-1.221,5.014-2.417,7.3
			c-0.508,1.092-1.133,2.433-1.867,4.233c-1.768,4.428-2.89,9.086-3.333,13.833c-0.296,2.826-1.976,5.321-4.483,6.658
			c-0.936,0.472-1.537,1.419-1.567,2.467v5.692c0.034,1.241,0.861,2.32,2.05,2.675c2.799,0.87,4.955,3.117,5.708,5.95
			c1.667,8.725,7.451,16.105,15.525,19.808c3.131,1.349,5.159,4.432,5.158,7.842v6.517c0.015,4.91-2.77,9.399-7.175,11.567
			l-22,10.833c-3.095,1.812-4.985,5.139-4.958,8.725V384z M350.275,253.358l0.009,0.025L350.275,253.358z"/>
		<path style="fill:#428DFF;" d="M503.467,196.267H8.533c-2.264,0.001-4.435-0.897-6.035-2.498
			c-1.601-1.601-2.499-3.772-2.498-6.035v-68.267c-0.001-2.264,0.897-4.435,2.498-6.035c1.601-1.601,3.772-2.499,6.035-2.498
			h494.933c2.264-0.001,4.435,0.897,6.035,2.498c1.601,1.601,2.499,3.772,2.498,6.035v68.267c0.001,2.264-0.897,4.435-2.498,6.035
			C507.901,195.369,505.73,196.268,503.467,196.267z M17.067,179.2h477.867V128H17.067V179.2z"/>
		<path style="fill:#428DFF;" d="M128,247.467H51.2c-4.713,0-8.533-3.82-8.533-8.533s3.821-8.533,8.533-8.533H128
			c4.713,0,8.533,3.821,8.533,8.533S132.713,247.467,128,247.467z"/>
		<path style="fill:#428DFF;" d="M238.933,247.467h-76.8c-4.713,0-8.533-3.82-8.533-8.533s3.821-8.533,8.533-8.533h76.8
			c4.713,0,8.533,3.821,8.533,8.533S243.646,247.467,238.933,247.467z"/>
		<path style="fill:#428DFF;" d="M59.733,290.133H51.2c-4.713,0-8.533-3.821-8.533-8.533s3.821-8.533,8.533-8.533h8.533
			c4.713,0,8.533,3.82,8.533,8.533S64.446,290.133,59.733,290.133z"/>
		<path style="fill:#428DFF;" d="M110.933,290.133H93.867c-4.713,0-8.533-3.821-8.533-8.533s3.821-8.533,8.533-8.533h17.067
			c4.713,0,8.533,3.82,8.533,8.533S115.646,290.133,110.933,290.133z"/>
		<path style="fill:#428DFF;" d="M153.6,290.133h-8.533c-4.713,0-8.533-3.821-8.533-8.533s3.821-8.533,8.533-8.533h8.533
			c4.713,0,8.533,3.82,8.533,8.533S158.313,290.133,153.6,290.133z"/>
		<path style="fill:#428DFF;" d="M204.8,290.133h-17.067c-4.713,0-8.533-3.821-8.533-8.533s3.821-8.533,8.533-8.533H204.8
			c4.713,0,8.533,3.82,8.533,8.533S209.513,290.133,204.8,290.133z"/>
		<path style="fill:#428DFF;" d="M238.933,290.133c-1.109,0.015-2.211-0.189-3.242-0.6c-1.021-0.492-1.969-1.123-2.817-1.875
			c-0.777-0.83-1.413-1.781-1.883-2.817c-0.408-1.031-0.609-2.133-0.591-3.242c0.014-0.573,0.07-1.144,0.167-1.708
			c0.096-0.534,0.27-1.05,0.517-1.533c0.166-0.526,0.426-1.017,0.767-1.45c0.292-0.491,0.635-0.949,1.025-1.367l1.275-1.025
			c0.477-0.325,0.995-0.583,1.542-0.767c0.506-0.262,1.052-0.437,1.617-0.517c2.786-0.558,5.667,0.308,7.684,2.308
			c0.341,0.425,0.683,0.85,1.025,1.367c0.338,0.435,0.597,0.926,0.767,1.45c0.247,0.482,0.419,0.999,0.508,1.533
			c0.104,0.564,0.162,1.135,0.175,1.709c-0.014,1.115-0.246,2.216-0.683,3.242c-0.434,1.034-1.04,1.986-1.792,2.817
			c-0.849,0.75-1.797,1.381-2.817,1.875C241.144,289.944,240.043,290.148,238.933,290.133L238.933,290.133z"/>
		<path style="fill:#428DFF;" d="M95.117,311.781C68.033,325.876,63.33,356.354,62.4,384l29.135-12.068L67.59,351.873
			c-16.732-14.017-41.001,10.007-24.136,24.136l23.945,20.059c4.958,4.653,12.181,5.971,18.462,3.369
			c6.282-2.602,10.457-8.641,10.672-15.437c0.514-15.274,0.322-34.685,15.811-42.746C131.837,331.11,114.598,301.642,95.117,311.781
			z"/>
		<path style="fill:#428DFF;" d="M101.921,365.115c20.684,22.481,48.761,13.757,71.608-0.262l-23.35-6.123
			c5.382,10.522,15.316,17.975,26.924,20.2c6.318,1.111,36.833-1.865,29.604-11.763c12.827,17.562,42.457,0.55,29.473-17.228
			c-4.994-8.377-13.904-13.64-23.651-13.969c-7.956-0.418-29.108,12.245-32.876,5.531c-4.83-8.042-15.196-10.76-23.35-6.123
			c-8.48,5.204-21.135,15.501-30.244,5.599C111.152,324.777,87.063,348.964,101.921,365.115L101.921,365.115z"/>
		<circle style="fill:#428DFF;" cx="358.4" cy="153.6" r="8.533"/>
		<circle style="fill:#428DFF;" cx="384" cy="128" r="8.533"/>
		<circle style="fill:#428DFF;" cx="384" cy="179.2" r="8.533"/>
		<circle style="fill:#428DFF;" cx="409.6" cy="153.6" r="8.533"/>
		<circle style="fill:#428DFF;" cx="204.8" cy="153.6" r="8.533"/>
		<circle style="fill:#428DFF;" cx="230.4" cy="128" r="8.533"/>
		<circle style="fill:#428DFF;" cx="230.4" cy="179.2" r="8.533"/>
		<circle style="fill:#428DFF;" cx="256" cy="153.6" r="8.533"/>
		<circle style="fill:#428DFF;" cx="307.2" cy="153.6" r="8.533"/>
		<circle style="fill:#428DFF;" cx="281.6" cy="128" r="8.533"/>
		<circle style="fill:#428DFF;" cx="332.8" cy="128" r="8.533"/>
		<circle style="fill:#428DFF;" cx="281.6" cy="179.2" r="8.533"/>
		<circle style="fill:#428DFF;" cx="332.8" cy="179.2" r="8.533"/>
		<circle style="fill:#428DFF;" cx="460.8" cy="153.6" r="8.533"/>
		<circle style="fill:#428DFF;" cx="486.4" cy="128" r="8.533"/>
		<circle style="fill:#428DFF;" cx="486.4" cy="179.2" r="8.533"/>
		<circle style="fill:#428DFF;" cx="435.2" cy="128" r="8.533"/>
		<circle style="fill:#428DFF;" cx="435.2" cy="179.2" r="8.533"/>
		<circle style="fill:#428DFF;" cx="153.6" cy="153.6" r="8.533"/>
		<circle style="fill:#428DFF;" cx="179.2" cy="128" r="8.533"/>
		<circle style="fill:#428DFF;" cx="179.2" cy="179.2" r="8.533"/>
		<circle style="fill:#428DFF;" cx="25.6" cy="128" r="8.533"/>
		<circle style="fill:#428DFF;" cx="25.6" cy="179.2" r="8.533"/>
		<circle style="fill:#428DFF;" cx="51.2" cy="153.6" r="8.533"/>
		<circle style="fill:#428DFF;" cx="102.4" cy="153.6" r="8.533"/>
		<circle style="fill:#428DFF;" cx="76.8" cy="128" r="8.533"/>
		<circle style="fill:#428DFF;" cx="128" cy="128" r="8.533"/>
		<circle style="fill:#428DFF;" cx="76.8" cy="179.2" r="8.533"/>
		<circle style="fill:#428DFF;" cx="128" cy="179.2" r="8.533"/>
	</g>
</g>
<g>
</g>
<g>
</g>
<g>
</g>
<g>
</g>
<g>
</g>
<g>
</g>
<g>
</g>
<g>
</g>
<g>
</g>
<g>
</g>
<g>
</g>
<g>
</g>
<g>
</g>
<g>
</g>
<g>
</g>
</svg>
