<?xml version="1.0" encoding="iso-8859-1"?>
<!-- Generator: Adobe Illustrator 19.0.0, SVG Export Plug-In . SVG Version: 6.00 Build 0)  -->
<svg version="1.1" id="Capa_1" xmlns="http://www.w3.org/2000/svg" xmlns:xlink="http://www.w3.org/1999/xlink" x="0px" y="0px"
	 viewBox="0 0 512 512" style="enable-background:new 0 0 512 512;" xml:space="preserve">
<g>
	<path style="fill:#FFFFFF;" d="M264.533,237.037l17.067-22.444V58.632c-1.577-10.109-10.866-17.162-21.027-15.965H149.027
		c-10.161-1.197-19.45,5.856-21.027,15.965v317.935c1.576,10.11,10.865,17.164,21.027,15.967h111.546
		c10.162,1.197,19.451-5.857,21.027-15.967V259.481L264.533,237.037z"/>
	<path style="fill:#7FACFA;" d="M256,482.438c0,5.577,2.215,10.926,6.158,14.87c3.943,3.944,9.292,6.159,14.869,6.16h85.945
		c5.577,0,10.926-2.216,14.869-6.16c3.943-3.944,6.159-9.293,6.158-14.87v-89.904H256V482.438z"/>
	<path style="fill:#FFFFFF;" d="M128,482.438c0,5.577,2.215,10.926,6.158,14.87c3.943,3.944,9.292,6.159,14.869,6.16h85.945
		c5.577,0,10.926-2.216,14.869-6.16c3.943-3.944,6.159-9.293,6.158-14.87v-89.904H128V482.438z"/>
	<g>
		<path style="fill:#A4C2F7;" d="M153.6,482.438c0,5.577,2.215,10.926,6.158,14.87c3.943,3.944,9.292,6.159,14.869,6.16h162.745
			c5.577,0,10.926-2.216,14.869-6.16c3.943-3.944,6.159-9.293,6.158-14.87v-89.904H153.6V482.438z"/>
		<path style="fill:#A4C2F7;" d="M362.973,42.667H251.427c-10.161-1.197-19.45,5.856-21.027,15.965v317.935
			c1.576,10.11,10.865,17.164,21.027,15.967h111.546c10.162,1.197,19.451-5.857,21.027-15.967V58.632
			C382.423,48.522,373.134,41.47,362.973,42.667L362.973,42.667z"/>
	</g>
	
		<linearGradient id="SVGID_1_" gradientUnits="userSpaceOnUse" x1="-48.912" y1="652.4839" x2="-47.5836" y2="651.707" gradientTransform="matrix(204.8 0 0 -350.1312 10139.7979 228539.2344)">
		<stop  offset="0" style="stop-color:#D4E1F4"/>
		<stop  offset="0.1717" style="stop-color:#D4E1F4"/>
		<stop  offset="0.2" style="stop-color:#D4E1F4"/>
		<stop  offset="0.2001" style="stop-color:#DAE4F4"/>
		<stop  offset="0.2007" style="stop-color:#EBEBF4"/>
		<stop  offset="0.2014" style="stop-color:#F6F1F4"/>
		<stop  offset="0.2023" style="stop-color:#FDF4F4"/>
		<stop  offset="0.205" style="stop-color:#FFF5F4"/>
		<stop  offset="0.2522" style="stop-color:#FFF5F4"/>
		<stop  offset="0.26" style="stop-color:#FFF5F4"/>
		<stop  offset="0.26" style="stop-color:#D4E1F4"/>
		<stop  offset="0.3974" style="stop-color:#D4E1F4"/>
		<stop  offset="0.42" style="stop-color:#D4E1F4"/>
		<stop  offset="0.4201" style="stop-color:#DAE4F4"/>
		<stop  offset="0.4207" style="stop-color:#EBEBF4"/>
		<stop  offset="0.4214" style="stop-color:#F6F1F4"/>
		<stop  offset="0.4223" style="stop-color:#FDF4F4"/>
		<stop  offset="0.425" style="stop-color:#FFF5F4"/>
		<stop  offset="0.4894" style="stop-color:#FFF5F4"/>
		<stop  offset="0.5" style="stop-color:#FFF5F4"/>
		<stop  offset="0.5" style="stop-color:#F9F2F4"/>
		<stop  offset="0.5001" style="stop-color:#E8EBF4"/>
		<stop  offset="0.5003" style="stop-color:#DDE5F4"/>
		<stop  offset="0.5005" style="stop-color:#D6E2F4"/>
		<stop  offset="0.501" style="stop-color:#D4E1F4"/>
		<stop  offset="0.7062" style="stop-color:#D4E1F4"/>
		<stop  offset="0.74" style="stop-color:#D4E1F4"/>
		<stop  offset="0.741" style="stop-color:#FFF5F4"/>
		<stop  offset="0.8346" style="stop-color:#FFF5F4"/>
		<stop  offset="0.85" style="stop-color:#FFF5F4"/>
		<stop  offset="0.851" style="stop-color:#D4E1F4"/>
	</linearGradient>
	<path style="fill:url(#SVGID_1_);" d="M337.373,42.667H174.627c-10.161-1.197-19.45,5.856-21.027,15.965v317.935
		c1.576,10.11,10.865,17.164,21.027,15.967H358.4V58.632C356.823,48.522,347.534,41.47,337.373,42.667z"/>
	<rect x="213.333" y="8.533" style="fill:#A4C2F7;" width="85.333" height="34.133"/>
	<g>
		<path style="fill:#428DFF;" d="M298.667,51.2h-85.333c-2.263,0.001-4.434-0.898-6.035-2.499c-1.6-1.6-2.499-3.771-2.499-6.035
			V8.533c-0.001-2.263,0.898-4.434,2.499-6.035c1.6-1.6,3.771-2.499,6.035-2.499h85.333c2.263-0.001,4.434,0.898,6.035,2.499
			c1.6,1.6,2.499,3.771,2.499,6.035v34.133c0.001,2.263-0.898,4.434-2.499,6.035C303.101,50.302,300.93,51.201,298.667,51.2
			L298.667,51.2z M221.867,34.133h68.267V17.067h-68.267V34.133z"/>
		<path style="fill:#428DFF;" d="M362.971,512H149.029c-16.318-0.017-29.543-13.24-29.563-29.558V63.692
			c0.019-16.318,13.244-29.541,29.563-29.558h213.942c16.318,0.017,29.543,13.24,29.563,29.558v418.75
			C392.514,498.76,379.289,511.983,362.971,512L362.971,512z M149.029,51.2c-6.898,0.005-12.489,5.594-12.496,12.492v418.75
			c0.007,6.898,5.598,12.487,12.496,12.492h213.942c6.898-0.005,12.489-5.594,12.496-12.492V63.692
			c-0.007-6.898-5.598-12.487-12.496-12.492H149.029z"/>
		<path style="fill:#428DFF;" d="M384,401.067H128c-4.713,0-8.533-3.82-8.533-8.533S123.287,384,128,384h256
			c4.713,0,8.533,3.82,8.533,8.533S388.713,401.067,384,401.067z"/>
	</g>
</g>
<g>
</g>
<g>
</g>
<g>
</g>
<g>
</g>
<g>
</g>
<g>
</g>
<g>
</g>
<g>
</g>
<g>
</g>
<g>
</g>
<g>
</g>
<g>
</g>
<g>
</g>
<g>
</g>
<g>
</g>
</svg>
