<?xml version="1.0" encoding="iso-8859-1"?>
<!-- Generator: Adobe Illustrator 19.0.0, SVG Export Plug-In . SVG Version: 6.00 Build 0)  -->
<svg version="1.1" id="Capa_1" xmlns="http://www.w3.org/2000/svg" xmlns:xlink="http://www.w3.org/1999/xlink" x="0px" y="0px"
	 viewBox="0 0 512 512" style="enable-background:new 0 0 512 512;" xml:space="preserve">
<g>
	<rect x="213.333" y="8.533" style="fill:#A4C2F7;" width="85.333" height="34.133"/>
	<path style="fill:#FFFFFF;" d="M264.533,237.037l17.067-22.444V58.632c-1.577-10.109-10.866-17.162-21.027-15.965H149.027
		c-10.161-1.197-19.45,5.856-21.027,15.965v317.935c1.576,10.11,10.865,17.164,21.027,15.967h111.546
		c10.162,1.197,19.451-5.857,21.027-15.967V259.481L264.533,237.037z"/>
	<path style="fill:#7FACFA;" d="M256,482.438c0,5.577,2.215,10.926,6.158,14.87c3.943,3.944,9.292,6.159,14.869,6.16h85.945
		c5.577,0,10.926-2.216,14.869-6.16c3.943-3.944,6.159-9.293,6.158-14.87v-89.904H256V482.438z"/>
	<path style="fill:#FFFFFF;" d="M128,482.438c0,5.577,2.215,10.926,6.158,14.87c3.943,3.944,9.292,6.159,14.869,6.16h85.945
		c5.577,0,10.926-2.216,14.869-6.16c3.943-3.944,6.159-9.293,6.158-14.87v-89.904H128V482.438z"/>
	<g>
		<path style="fill:#A4C2F7;" d="M153.6,482.438c0,5.577,2.215,10.926,6.158,14.87c3.943,3.944,9.292,6.159,14.869,6.16h162.745
			c5.577,0,10.926-2.216,14.869-6.16c3.943-3.944,6.159-9.293,6.158-14.87v-89.904H153.6V482.438z"/>
		<path style="fill:#A4C2F7;" d="M362.973,42.667H251.427c-10.161-1.197-19.45,5.856-21.027,15.965v317.935
			c1.576,10.11,10.865,17.164,21.027,15.967h111.546c10.162,1.197,19.451-5.857,21.027-15.967V58.632
			C382.423,48.522,373.134,41.47,362.973,42.667L362.973,42.667z"/>
	</g>
	
		<linearGradient id="SVGID_1_" gradientUnits="userSpaceOnUse" x1="-48.912" y1="652.4839" x2="-47.5836" y2="651.707" gradientTransform="matrix(204.8 0 0 -350.1312 10139.7979 228539.2344)">
		<stop  offset="0" style="stop-color:#D4E1F4"/>
		<stop  offset="0.1717" style="stop-color:#D4E1F4"/>
		<stop  offset="0.2" style="stop-color:#D4E1F4"/>
		<stop  offset="0.2001" style="stop-color:#DAE4F4"/>
		<stop  offset="0.2007" style="stop-color:#EBEBF4"/>
		<stop  offset="0.2014" style="stop-color:#F6F1F4"/>
		<stop  offset="0.2023" style="stop-color:#FDF4F4"/>
		<stop  offset="0.205" style="stop-color:#FFF5F4"/>
		<stop  offset="0.2522" style="stop-color:#FFF5F4"/>
		<stop  offset="0.26" style="stop-color:#FFF5F4"/>
		<stop  offset="0.26" style="stop-color:#D4E1F4"/>
		<stop  offset="0.3974" style="stop-color:#D4E1F4"/>
		<stop  offset="0.42" style="stop-color:#D4E1F4"/>
		<stop  offset="0.4201" style="stop-color:#DAE4F4"/>
		<stop  offset="0.4207" style="stop-color:#EBEBF4"/>
		<stop  offset="0.4214" style="stop-color:#F6F1F4"/>
		<stop  offset="0.4223" style="stop-color:#FDF4F4"/>
		<stop  offset="0.425" style="stop-color:#FFF5F4"/>
		<stop  offset="0.4894" style="stop-color:#FFF5F4"/>
		<stop  offset="0.5" style="stop-color:#FFF5F4"/>
		<stop  offset="0.5" style="stop-color:#F9F2F4"/>
		<stop  offset="0.5001" style="stop-color:#E8EBF4"/>
		<stop  offset="0.5003" style="stop-color:#DDE5F4"/>
		<stop  offset="0.5005" style="stop-color:#D6E2F4"/>
		<stop  offset="0.501" style="stop-color:#D4E1F4"/>
		<stop  offset="0.7062" style="stop-color:#D4E1F4"/>
		<stop  offset="0.74" style="stop-color:#D4E1F4"/>
		<stop  offset="0.741" style="stop-color:#FFF5F4"/>
		<stop  offset="0.8346" style="stop-color:#FFF5F4"/>
		<stop  offset="0.85" style="stop-color:#FFF5F4"/>
		<stop  offset="0.851" style="stop-color:#D4E1F4"/>
	</linearGradient>
	<path style="fill:url(#SVGID_1_);" d="M337.373,42.667H174.627c-10.161-1.197-19.45,5.856-21.027,15.965v317.935
		c1.576,10.11,10.865,17.164,21.027,15.967H358.4V58.632C356.823,48.522,347.534,41.47,337.373,42.667z"/>
	<g>
		<path style="fill:#428DFF;" d="M298.667,51.2h-85.333c-2.264,0.001-4.435-0.897-6.035-2.498s-2.499-3.772-2.498-6.035V8.533
			c-0.001-2.264,0.897-4.435,2.498-6.035S211.07-0.001,213.333,0h85.333c2.264-0.001,4.435,0.897,6.035,2.498
			s2.499,3.772,2.498,6.035v34.133c0.001,2.264-0.897,4.435-2.498,6.035S300.93,51.201,298.667,51.2z M221.867,34.133h68.267V17.067
			h-68.267V34.133z"/>
		<path style="fill:#428DFF;" d="M362.975,512h-213.95c-16.319-0.021-29.542-13.248-29.558-29.567v-89.9
			c-0.001-2.264,0.897-4.435,2.498-6.035c1.601-1.601,3.772-2.499,6.035-2.498h256c2.264-0.001,4.435,0.897,6.035,2.498
			c1.601,1.601,2.499,3.772,2.498,6.035v89.9C392.517,498.752,379.294,511.979,362.975,512L362.975,512z M136.533,401.067v81.367
			c0.005,6.898,5.593,12.491,12.492,12.5h213.95c6.898-0.009,12.487-5.602,12.492-12.5v-81.367H136.533z"/>
		<path style="fill:#428DFF;" d="M384,401.067H128c-2.264,0.001-4.435-0.897-6.035-2.498c-1.601-1.601-2.499-3.772-2.498-6.035
			V63.692c0.017-16.317,13.241-29.541,29.558-29.558h213.95c16.317,0.017,29.541,13.241,29.558,29.558v328.842
			c0.001,2.264-0.897,4.435-2.498,6.035C388.435,400.169,386.264,401.068,384,401.067L384,401.067z M136.533,384h238.933V63.692
			c-0.005-6.897-5.595-12.486-12.492-12.492h-213.95c-6.897,0.005-12.486,5.595-12.492,12.492V384z"/>
	</g>
</g>
<g>
</g>
<g>
</g>
<g>
</g>
<g>
</g>
<g>
</g>
<g>
</g>
<g>
</g>
<g>
</g>
<g>
</g>
<g>
</g>
<g>
</g>
<g>
</g>
<g>
</g>
<g>
</g>
<g>
</g>
</svg>
