<?xml version="1.0" encoding="iso-8859-1"?>
<!-- Generator: Adobe Illustrator 19.0.0, SVG Export Plug-In . SVG Version: 6.00 Build 0)  -->
<svg version="1.1" id="Capa_1" xmlns="http://www.w3.org/2000/svg" xmlns:xlink="http://www.w3.org/1999/xlink" x="0px" y="0px"
	 viewBox="0 0 512 512" style="enable-background:new 0 0 512 512;" xml:space="preserve">
<g>
	<path style="fill:#428DFF;" d="M162.133,170.667h-76.8C38.205,170.667,0,132.462,0,85.333S38.205,0,85.333,0
		s85.333,38.205,85.333,85.333v76.8c0.001,2.263-0.898,4.434-2.499,6.035C166.568,169.768,164.397,170.667,162.133,170.667z
		 M85.333,17.067c-37.703,0-68.267,30.564-68.267,68.267S47.631,153.6,85.333,153.6H153.6V85.333
		C153.557,47.649,123.018,17.11,85.333,17.067z"/>
	<path style="fill:#428DFF;" d="M349.867,358.4H162.133c-2.263,0.001-4.434-0.898-6.035-2.499s-2.499-3.771-2.499-6.035V162.133
		c-0.001-2.263,0.898-4.434,2.499-6.035s3.771-2.499,6.035-2.499h187.733c2.263-0.001,4.434,0.898,6.035,2.499
		s2.499,3.771,2.499,6.035v187.733c0.001,2.263-0.898,4.434-2.499,6.035S352.13,358.401,349.867,358.4L349.867,358.4z
		 M170.667,341.333h170.667V170.667H170.667V341.333z"/>
	<path style="fill:#428DFF;" d="M85.333,512C38.205,512,0,473.795,0,426.667s38.205-85.333,85.333-85.333h76.8
		c2.263-0.001,4.434,0.898,6.035,2.499c1.6,1.6,2.499,3.771,2.499,6.035v76.8C170.613,473.773,132.439,511.946,85.333,512z
		 M85.333,358.4c-37.703,0-68.267,30.564-68.267,68.267s30.564,68.267,68.267,68.267s68.267-30.564,68.267-68.267V358.4H85.333z"/>
	<path style="fill:#428DFF;" d="M426.667,170.667h-76.8c-2.263,0.001-4.434-0.898-6.035-2.499c-1.6-1.6-2.499-3.771-2.499-6.035
		v-76.8C341.333,38.205,379.538,0,426.667,0S512,38.205,512,85.333S473.795,170.667,426.667,170.667z M358.4,153.6h68.267
		c37.703,0,68.267-30.564,68.267-68.267s-30.564-68.267-68.267-68.267S358.4,47.631,358.4,85.333V153.6z"/>
	<path style="fill:#428DFF;" d="M426.667,512c-47.106-0.054-85.279-38.227-85.333-85.333v-76.8
		c-0.001-2.263,0.898-4.434,2.499-6.035s3.771-2.499,6.035-2.499h76.8c47.128,0,85.333,38.205,85.333,85.333
		S473.795,512,426.667,512L426.667,512z M358.4,358.4v68.267c0,37.703,30.564,68.267,68.267,68.267s68.267-30.564,68.267-68.267
		S464.369,358.4,426.667,358.4H358.4z"/>
</g>
<g>
</g>
<g>
</g>
<g>
</g>
<g>
</g>
<g>
</g>
<g>
</g>
<g>
</g>
<g>
</g>
<g>
</g>
<g>
</g>
<g>
</g>
<g>
</g>
<g>
</g>
<g>
</g>
<g>
</g>
</svg>
