<?xml version="1.0" encoding="iso-8859-1"?>
<!-- Generator: Adobe Illustrator 19.0.0, SVG Export Plug-In . SVG Version: 6.00 Build 0)  -->
<svg version="1.1" id="Capa_1" xmlns="http://www.w3.org/2000/svg" xmlns:xlink="http://www.w3.org/1999/xlink" x="0px" y="0px"
	 viewBox="0 0 512 512" style="enable-background:new 0 0 512 512;" xml:space="preserve">
<g>
	<circle style="fill:#A4C2F7;" cx="256" cy="256" r="247.467"/>
	<ellipse style="fill:#E3E7F2;" cx="256" cy="256" rx="221.867" ry="247.467"/>
	<path style="fill:#FFFFFF;" d="M34.133,256C34.133,119.327,133.467,8.533,256,8.533C119.328,8.533,8.533,119.328,8.533,256
		S119.328,503.467,256,503.467C133.467,503.467,34.133,392.671,34.133,256z"/>
	<path style="fill:#E3E7F2;" d="M256,8.533C192.425,8.465,131.281,32.957,85.333,76.896V230.4L255.58,443.675
		c0.103-0.126,0.257-0.2,0.42-0.2c0.163,0,0.317,0.073,0.42,0.2L426.667,230.4V76.896C380.719,32.957,319.575,8.465,256,8.533z"/>
	<path style="fill:#7FACFA;" d="M256,8.533C192.425,8.465,131.281,32.957,85.333,76.896v148.779c0,0.873,0.5,1.668,1.287,2.047
		c0.787,0.378,1.721,0.272,2.402-0.274l81.644-65.315l84.914,67.931c0.102-0.128,0.256-0.202,0.42-0.202
		c0.163,0,0.318,0.074,0.42,0.202l84.914-67.931l81.644,65.315c0.682,0.545,1.615,0.652,2.402,0.274
		c0.787-0.378,1.287-1.174,1.287-2.047V76.896C380.719,32.957,319.575,8.465,256,8.533z"/>
	<path style="fill:#A4C2F7;" d="M256,307.2c-30.755-0.025-59.885,13.805-79.306,37.652l78.886,98.823
		c0.103-0.126,0.257-0.2,0.42-0.2c0.163,0,0.317,0.073,0.42,0.2l78.887-98.823C315.885,321.005,286.755,307.175,256,307.2z"/>
	<g>
		<path style="fill:#428DFF;" d="M170.667,170.667c-2.263,0.001-4.434-0.898-6.035-2.499c-1.6-1.6-2.499-3.771-2.499-6.035V23.667
			c0-4.713,3.821-8.533,8.533-8.533c4.713,0,8.533,3.821,8.533,8.533v138.467c0.001,2.263-0.898,4.434-2.499,6.035
			C175.101,169.768,172.93,170.667,170.667,170.667z"/>
		<path style="fill:#428DFF;" d="M341.333,170.667c-2.263,0.001-4.434-0.898-6.035-2.499c-1.6-1.6-2.499-3.771-2.499-6.035V23.667
			c0-4.713,3.82-8.533,8.533-8.533s8.533,3.821,8.533,8.533v138.467c0.001,2.263-0.898,4.434-2.499,6.035
			C345.768,169.768,343.597,170.667,341.333,170.667z"/>
		<path style="fill:#428DFF;" d="M256.208,238.617c-1.316,0.009-2.617-0.282-3.804-0.85c-2.983-1.519-4.882-4.562-4.937-7.908V8.533
			C247.467,3.821,251.287,0,256,0c4.713,0,8.533,3.821,8.533,8.533v218.883c1.116,3.416-0.028,7.165-2.863,9.375
			C260.101,237.986,258.181,238.628,256.208,238.617z"/>
		<path style="fill:#428DFF;" d="M256.2,452.225h-0.4c-1.975,0.012-3.899-0.63-5.471-1.825c-0.526-0.411-1.003-0.88-1.421-1.4
			l-78.888-98.825c-2.507-3.144-2.481-7.611,0.062-10.725c21.06-25.809,52.606-40.783,85.917-40.783s64.857,14.974,85.917,40.783
			c2.543,3.114,2.569,7.581,0.062,10.725L263.092,449c-0.418,0.52-0.895,0.989-1.421,1.4
			C260.099,451.595,258.175,452.237,256.2,452.225L256.2,452.225z M187.817,345.108L256,430.525l68.183-85.417
			c-17.722-18.75-42.383-29.375-68.183-29.375C230.2,315.733,205.539,326.358,187.817,345.108L187.817,345.108z"/>
		<path style="fill:#428DFF;" d="M256,512C114.615,512,0,397.385,0,256S114.615,0,256,0s256,114.615,256,256
			C511.84,397.319,397.319,511.84,256,512z M256,17.067C124.041,17.067,17.067,124.041,17.067,256S124.041,494.933,256,494.933
			S494.933,387.959,494.933,256C494.785,124.102,387.898,17.215,256,17.067z"/>
		<path style="fill:#428DFF;" d="M256.2,238.617h-0.4c-1.975,0.012-3.899-0.63-5.471-1.825l-79.663-63.733L94.35,234.117
			c-3.244,2.591-7.686,3.094-11.428,1.294s-6.121-5.584-6.122-9.736V76.9c-0.001-2.334,0.955-4.566,2.646-6.175
			c98.815-94.3,254.293-94.3,353.108,0c1.691,1.609,2.647,3.841,2.646,6.175v148.775c0,4.15-2.378,7.934-6.118,9.734
			c-3.74,1.8-8.18,1.298-11.424-1.292l-76.325-61.058l-79.583,63.675C260.165,237.968,258.209,238.631,256.2,238.617L256.2,238.617z
			 M170.667,153.6c1.937,0,3.816,0.658,5.329,1.867L256,219.475l80.004-64.009c3.119-2.483,7.539-2.483,10.658,0l71.471,57.176
			V80.592c-91.496-84.7-232.771-84.7-324.267,0v132.05l71.471-57.175C166.851,154.258,168.73,153.6,170.667,153.6z"/>
		<path style="fill:#428DFF;" d="M256.192,452.233h-0.383c-2.065,0.013-4.071-0.691-5.675-1.992
			c-0.451-0.369-0.862-0.786-1.225-1.242L78.662,235.725c-1.204-1.514-1.861-3.39-1.862-5.325V76.9
			c-0.001-2.334,0.955-4.566,2.646-6.175c98.815-94.3,254.293-94.3,353.108,0c1.691,1.609,2.647,3.841,2.646,6.175v153.5
			c-0.002,1.934-0.658,3.811-1.862,5.325L263.092,449c-0.363,0.456-0.774,0.872-1.225,1.242
			C260.262,451.542,258.257,452.246,256.192,452.233z M93.867,227.408L256,430.525l162.133-203.117V80.592
			c-91.496-84.7-232.771-84.7-324.267,0V227.408z"/>
	</g>
</g>
<g>
</g>
<g>
</g>
<g>
</g>
<g>
</g>
<g>
</g>
<g>
</g>
<g>
</g>
<g>
</g>
<g>
</g>
<g>
</g>
<g>
</g>
<g>
</g>
<g>
</g>
<g>
</g>
<g>
</g>
</svg>
