<?xml version="1.0" encoding="iso-8859-1"?>
<!-- Generator: Adobe Illustrator 19.0.0, SVG Export Plug-In . SVG Version: 6.00 Build 0)  -->
<svg version="1.1" id="Capa_1" xmlns="http://www.w3.org/2000/svg" xmlns:xlink="http://www.w3.org/1999/xlink" x="0px" y="0px"
	 viewBox="0 0 512 512" style="enable-background:new 0 0 512 512;" xml:space="preserve">
<g>
	<path style="fill:#FFFFFF;" d="M59.733,46.933h-25.6c-14.121,0.042-25.558,11.479-25.6,25.6v332.8
		c0.042,14.121,11.479,25.558,25.6,25.6H51.2l34.133-358.4C85.292,58.412,73.855,46.975,59.733,46.933z"/>
	<path style="fill:#A4C2F7;" d="M477.867,430.933H290.133c-18.192,1.505-32.628,15.942-34.133,34.133V72.533
		c0.041-14.121,11.479-25.559,25.6-25.6h196.267c14.121,0.041,25.559,11.479,25.6,25.6v332.8
		C503.425,419.455,491.988,430.892,477.867,430.933z"/>
	<g>
		<path style="fill:#E3E7F2;" d="M452.267,430.933H290.133c-18.192,1.505-32.628,15.942-34.133,34.133V72.533
			c0.041-14.121,11.479-25.559,25.6-25.6h170.667c14.121,0.041,25.559,11.479,25.6,25.6v332.8
			C477.825,419.455,466.388,430.892,452.267,430.933z"/>
		<path style="fill:#E3E7F2;" d="M59.733,430.933h162.133c18.192,1.505,32.628,15.942,34.133,34.133V72.533
			c-0.041-14.121-11.479-25.559-25.6-25.6H59.733c-14.121,0.041-25.559,11.479-25.6,25.6v332.8
			C34.175,419.455,45.612,430.892,59.733,430.933z"/>
	</g>
	<g>
		<path style="fill:#428DFF;" d="M256,473.6c-2.263,0.001-4.434-0.898-6.035-2.499c-1.6-1.6-2.499-3.771-2.499-6.035V72.533
			c0.02-18.843,15.29-34.113,34.133-34.133h196.267C496.71,38.42,511.98,53.69,512,72.533v332.8
			c-0.02,18.843-15.29,34.113-34.133,34.133H290.133c-13.451,1.535-24.065,12.149-25.6,25.6c0.001,2.263-0.898,4.434-2.499,6.035
			S258.263,473.601,256,473.6z M281.6,55.467c-9.421,0.011-17.056,7.645-17.067,17.067v359.758c7.209-6.03,16.209-9.508,25.6-9.892
			h187.733c9.421-0.011,17.056-7.645,17.067-17.067v-332.8c-0.011-9.421-7.645-17.056-17.067-17.067H281.6z"/>
		<path style="fill:#428DFF;" d="M256,473.6c-2.263,0.001-4.434-0.898-6.035-2.499c-1.6-1.6-2.499-3.771-2.499-6.035
			c-1.535-13.451-12.149-24.065-25.6-25.6H34.133C15.29,439.447,0.02,424.176,0,405.333v-332.8C0.02,53.69,15.29,38.42,34.133,38.4
			H230.4c18.843,0.02,34.113,15.29,34.133,34.133v392.533c0.001,2.263-0.898,4.434-2.499,6.035S258.263,473.601,256,473.6L256,473.6
			z M34.133,55.467c-9.421,0.011-17.056,7.645-17.067,17.067v332.8c0.011,9.421,7.645,17.056,17.067,17.067h187.733
			c9.391,0.384,18.391,3.861,25.6,9.892V72.533c-0.011-9.421-7.645-17.056-17.067-17.067H34.133z"/>
	</g>
</g>
<g>
</g>
<g>
</g>
<g>
</g>
<g>
</g>
<g>
</g>
<g>
</g>
<g>
</g>
<g>
</g>
<g>
</g>
<g>
</g>
<g>
</g>
<g>
</g>
<g>
</g>
<g>
</g>
<g>
</g>
</svg>
