<?xml version="1.0" encoding="iso-8859-1"?>
<!-- Generator: Adobe Illustrator 19.0.0, SVG Export Plug-In . SVG Version: 6.00 Build 0)  -->
<svg version="1.1" id="Capa_1" xmlns="http://www.w3.org/2000/svg" xmlns:xlink="http://www.w3.org/1999/xlink" x="0px" y="0px"
	 viewBox="0 0 512 512" style="enable-background:new 0 0 512 512;" xml:space="preserve">
<g>
	<polygon style="fill:#FFFFFF;" points="281.6,307.2 59.733,307.2 59.733,34.133 281.6,34.133 281.6,170.667 	"/>
	<polygon style="fill:#A4C2F7;" points="452.266,307.2 315.733,307.2 315.733,34.133 452.266,34.133 366.933,170.667 	"/>
	
		<linearGradient id="SVGID_1_" gradientUnits="userSpaceOnUse" x1="-48.8082" y1="652.5457" x2="-47.8979" y2="651.4363" gradientTransform="matrix(332.8 0 0 -273.0667 16343.626 178207.6719)">
		<stop  offset="0" style="stop-color:#D4E1F4"/>
		<stop  offset="0.1717" style="stop-color:#D4E1F4"/>
		<stop  offset="0.2" style="stop-color:#D4E1F4"/>
		<stop  offset="0.2001" style="stop-color:#DAE4F4"/>
		<stop  offset="0.2007" style="stop-color:#EBEBF4"/>
		<stop  offset="0.2014" style="stop-color:#F6F1F4"/>
		<stop  offset="0.2023" style="stop-color:#FDF4F4"/>
		<stop  offset="0.205" style="stop-color:#FFF5F4"/>
		<stop  offset="0.2522" style="stop-color:#FFF5F4"/>
		<stop  offset="0.26" style="stop-color:#FFF5F4"/>
		<stop  offset="0.26" style="stop-color:#D4E1F4"/>
		<stop  offset="0.3974" style="stop-color:#D4E1F4"/>
		<stop  offset="0.42" style="stop-color:#D4E1F4"/>
		<stop  offset="0.4201" style="stop-color:#DAE4F4"/>
		<stop  offset="0.4207" style="stop-color:#EBEBF4"/>
		<stop  offset="0.4214" style="stop-color:#F6F1F4"/>
		<stop  offset="0.4223" style="stop-color:#FDF4F4"/>
		<stop  offset="0.425" style="stop-color:#FFF5F4"/>
		<stop  offset="0.4894" style="stop-color:#FFF5F4"/>
		<stop  offset="0.5" style="stop-color:#FFF5F4"/>
		<stop  offset="0.5" style="stop-color:#F9F2F4"/>
		<stop  offset="0.5001" style="stop-color:#E8EBF4"/>
		<stop  offset="0.5003" style="stop-color:#DDE5F4"/>
		<stop  offset="0.5005" style="stop-color:#D6E2F4"/>
		<stop  offset="0.501" style="stop-color:#D4E1F4"/>
		<stop  offset="0.7062" style="stop-color:#D4E1F4"/>
		<stop  offset="0.74" style="stop-color:#D4E1F4"/>
		<stop  offset="0.741" style="stop-color:#FFF5F4"/>
		<stop  offset="0.8346" style="stop-color:#FFF5F4"/>
		<stop  offset="0.85" style="stop-color:#FFF5F4"/>
		<stop  offset="0.851" style="stop-color:#D4E1F4"/>
	</linearGradient>
	<polygon style="fill:url(#SVGID_1_);" points="418.133,307.2 85.333,307.2 85.333,34.133 418.133,34.133 332.8,170.667 	"/>
	<g>
		<path style="fill:#428DFF;" d="M59.733,512c-2.264,0.001-4.435-0.897-6.035-2.498c-1.601-1.601-2.499-3.772-2.498-6.035V281.6
			c0-4.713,3.821-8.533,8.533-8.533s8.533,3.82,8.533,8.533v221.867c0.001,2.264-0.897,4.435-2.498,6.035
			C64.168,511.103,61.997,512.001,59.733,512z"/>
		<path style="fill:#428DFF;" d="M452.266,315.733H59.733c-2.264,0.001-4.435-0.897-6.035-2.498
			c-1.601-1.601-2.499-3.772-2.498-6.035V34.133c-0.001-2.264,0.897-4.435,2.498-6.035c1.601-1.601,3.772-2.499,6.035-2.498h392.533
			c3.103-0.001,5.962,1.683,7.465,4.397c1.504,2.714,1.415,6.031-0.232,8.661L377,170.667l82.5,132.008
			c1.647,2.63,1.735,5.947,0.232,8.661C458.228,314.051,455.369,315.734,452.266,315.733L452.266,315.733z M68.266,298.667h368.6
			l-77.167-123.475c-1.733-2.768-1.733-6.282,0-9.05l77.167-123.475h-368.6V298.667z"/>
		<path style="fill:#428DFF;" d="M59.733,42.667c-2.264,0.001-4.435-0.897-6.035-2.498c-1.601-1.601-2.499-3.772-2.498-6.035v-25.6
			C51.2,3.821,55.02,0,59.733,0s8.533,3.821,8.533,8.533v25.6c0.001,2.264-0.897,4.435-2.498,6.035
			C64.168,41.769,61.997,42.668,59.733,42.667L59.733,42.667z"/>
	</g>
</g>
<g>
</g>
<g>
</g>
<g>
</g>
<g>
</g>
<g>
</g>
<g>
</g>
<g>
</g>
<g>
</g>
<g>
</g>
<g>
</g>
<g>
</g>
<g>
</g>
<g>
</g>
<g>
</g>
<g>
</g>
</svg>
