<?xml version="1.0" encoding="iso-8859-1"?>
<!-- Generator: Adobe Illustrator 19.0.0, SVG Export Plug-In . SVG Version: 6.00 Build 0)  -->
<svg version="1.1" id="Capa_1" xmlns="http://www.w3.org/2000/svg" xmlns:xlink="http://www.w3.org/1999/xlink" x="0px" y="0px"
	 viewBox="0 0 512 512" style="enable-background:new 0 0 512 512;" xml:space="preserve">
<g>
	<path style="fill:#A4C2F7;" d="M145.761,8.533C113,8.533,96.17,28.003,98.319,50.87c1.735,19.331,17.811,34.217,37.218,34.463
		h18.162L169.575,51.2h95.256l-15.563,33.461c-0.07,0.139-0.066,0.305,0.012,0.44c0.078,0.135,0.219,0.223,0.374,0.232h189.812
		v-76.8H145.761z"/>
	<path style="fill:#FFFFFF;" d="M262.819,85.333c-0.677,0-1.326,0.268-1.804,0.746s-0.748,1.127-0.748,1.804l-102.4-2.55h-51.2
		C87.838,85.278,72.589,70.028,72.533,51.2v417.775c0,9.148,3.634,17.921,10.102,24.39s15.242,10.102,24.39,10.102h247.108V85.333
		H262.819z"/>
	<path style="fill:#7FACFA;" d="M174.933,51.2l-17.067,34.133v223.583c0,1.911,1.275,3.587,3.116,4.098
		c1.842,0.51,3.797-0.271,4.781-1.91l43.303-72.171l43.303,72.171c0.983,1.639,2.939,2.42,4.781,1.91
		c1.842-0.51,3.117-2.186,3.116-4.098V85.333L277.333,51.2H174.933z"/>
	<path style="fill:#E3E7F2;" d="M260.267,87.885v221.032c0,1.911-1.275,3.587-3.117,4.097c-1.842,0.51-3.797-0.271-4.78-1.91
		l-43.303-72.171l-43.303,72.171c-0.983,1.639-2.939,2.42-4.78,1.91c-1.842-0.51-3.117-2.186-3.117-4.097V85.333h-25.6
		c-5.597,0.004-11.109-1.38-16.039-4.03c-3.756-2.102-8.344-2.061-12.062,0.108c-3.718,2.169-6.012,6.142-6.032,10.446v377.117
		c0,19.049,15.442,34.492,34.492,34.492h281.242V85.333H262.818C261.409,85.333,260.267,86.476,260.267,87.885z"/>
	<path style="fill:#A4C2F7;" d="M413.867,503.467h25.6V85.333h-23.049c-1.409,0-2.551,1.142-2.551,2.551v221.032"/>
	<g>
		<path style="fill:#428DFF;" d="M115.2,512c-2.264,0.001-4.435-0.897-6.035-2.498c-1.601-1.601-2.499-3.772-2.498-6.035V85.333
			c0-4.713,3.821-8.533,8.533-8.533s8.533,3.821,8.533,8.533v418.133c0.001,2.264-0.897,4.435-2.498,6.035
			C119.635,511.103,117.464,512.001,115.2,512z"/>
		<path style="fill:#428DFF;" d="M430.933,68.267h-42.667c-4.713,0-8.533-3.821-8.533-8.533s3.82-8.533,8.533-8.533h42.667
			c4.713,0,8.533,3.821,8.533,8.533S435.646,68.267,430.933,68.267z"/>
		<path style="fill:#428DFF;" d="M439.467,42.667h-51.2c-4.713,0-8.533-3.821-8.533-8.533s3.82-8.533,8.533-8.533h51.2
			c4.713,0,8.533,3.821,8.533,8.533S444.18,42.667,439.467,42.667z"/>
		<path style="fill:#428DFF;" d="M162.192,321.717c-1.177-0.003-2.348-0.163-3.483-0.475c-5.564-1.499-9.416-6.563-9.375-12.325
			V85.333c0-1.325,0.308-2.632,0.9-3.817L167.3,47.383c1.446-2.89,4.401-4.716,7.633-4.717h102.4
			c2.957,0.001,5.703,1.533,7.257,4.048c1.555,2.515,1.697,5.656,0.376,8.302L268.8,87.35v221.567
			c0.003,5.749-3.834,10.793-9.375,12.325s-11.424-0.824-14.375-5.759l-35.983-59.967l-35.983,59.975
			C170.81,319.347,166.668,321.715,162.192,321.717z M166.4,87.35v206.108l35.35-58.917c1.656-2.41,4.393-3.85,7.317-3.85
			s5.661,1.44,7.317,3.85l35.35,58.917V85.333c0-1.325,0.308-2.632,0.9-3.817l10.892-21.783h-83.317L166.4,87.35z"/>
		<path style="fill:#428DFF;" d="M439.467,93.867h-178.45c-3.102-0.002-5.984-1.601-7.629-4.231
			c-1.644-2.63-1.819-5.921-0.463-8.711l10.6-21.192h-83.317L165.5,89.15c-1.446,2.89-4.401,4.716-7.633,4.717h-45.125
			c-24.51,0.272-45.347-17.834-48.5-42.142c-1.325-13.206,2.991-26.357,11.884-36.209S97.661,0.029,110.933,0h328.533
			c2.264-0.001,4.435,0.897,6.035,2.498c1.601,1.601,2.499,3.772,2.498,6.035v76.8c0.001,2.264-0.897,4.435-2.498,6.035
			C443.901,92.969,441.73,93.868,439.467,93.867z M274.075,76.8h156.858V17.067h-320c-8.446,0.023-16.489,3.616-22.142,9.892
			c-5.706,6.246-8.461,14.638-7.567,23.05C83.434,65.63,96.969,77.135,112.742,76.8h39.85L167.3,47.383
			c1.446-2.89,4.401-4.716,7.633-4.717h102.4c2.957,0.001,5.703,1.533,7.257,4.048c1.555,2.515,1.697,5.656,0.376,8.302
			L274.075,76.8z"/>
		<path style="fill:#428DFF;" d="M439.467,512H107.025C83.274,511.974,64.026,492.726,64,468.975V51.2
			c0-4.713,3.821-8.533,8.533-8.533s8.533,3.821,8.533,8.533c0.015,14.132,11.468,25.585,25.6,25.6h51.2
			c2.264-0.001,4.435,0.897,6.035,2.498c1.601,1.601,2.499,3.772,2.498,6.035v208.125l35.35-58.917
			c1.656-2.41,4.393-3.85,7.317-3.85s5.661,1.44,7.317,3.85l35.35,58.917V87.883c0.009-6.117,4.966-11.074,11.083-11.083h176.65
			c2.264-0.001,4.435,0.897,6.035,2.498c1.601,1.601,2.499,3.772,2.498,6.035v418.133c0.001,2.264-0.897,4.435-2.498,6.035
			C443.901,511.103,441.73,512.001,439.467,512z M81.067,85.316v383.659c0.014,14.331,11.628,25.944,25.958,25.958h323.908V93.867
			H268.8v215.05c-0.003,5.745-3.836,10.784-9.373,12.318c-5.537,1.535-11.417-0.811-14.377-5.735l-35.983-59.983l-35.983,59.975
			c-2.957,4.927-8.837,7.277-14.375,5.744c-5.538-1.533-9.373-6.573-9.375-12.319V93.867h-42.667
			C97.43,93.878,88.442,90.876,81.067,85.316z"/>
	</g>
</g>
<g>
</g>
<g>
</g>
<g>
</g>
<g>
</g>
<g>
</g>
<g>
</g>
<g>
</g>
<g>
</g>
<g>
</g>
<g>
</g>
<g>
</g>
<g>
</g>
<g>
</g>
<g>
</g>
<g>
</g>
</svg>
