<?xml version="1.0" encoding="iso-8859-1"?>
<!-- Generator: Adobe Illustrator 19.0.0, SVG Export Plug-In . SVG Version: 6.00 Build 0)  -->
<svg version="1.1" id="Capa_1" xmlns="http://www.w3.org/2000/svg" xmlns:xlink="http://www.w3.org/1999/xlink" x="0px" y="0px"
	 viewBox="0 0 512 512" style="enable-background:new 0 0 512 512;" xml:space="preserve">
<g>
	<path style="fill:#A4C2F7;" d="M273.067,8.533h98.944c16.047,0,29.056,13.009,29.056,29.056v436.821
		c0,16.047-13.009,29.056-29.056,29.056h-98.944c-16.047,0-29.056-13.009-29.056-29.056V37.589
		C244.011,21.542,257.02,8.533,273.067,8.533z"/>
	<path style="fill:#FFFFFF;" d="M148.523,8.533h98.944c16.047,0,29.056,13.009,29.056,29.056v436.821
		c0,16.047-13.009,29.056-29.056,29.056h-98.944c-16.047,0-29.056-13.009-29.056-29.056V37.589
		C119.467,21.542,132.475,8.533,148.523,8.533z"/>
	<path style="fill:#E3E7F2;" d="M174.123,8.533h163.755c16.047,0,29.056,13.009,29.056,29.056v436.821
		c0,16.047-13.009,29.056-29.056,29.056H174.123c-16.047,0-29.056-13.009-29.056-29.056V37.589
		C145.067,21.542,158.075,8.533,174.123,8.533z"/>
	
		<linearGradient id="SVGID_1_" gradientUnits="userSpaceOnUse" x1="-48.9137" y1="652.5052" x2="-47.6445" y2="651.6803" gradientTransform="matrix(221.8667 0 0 -341.3333 10967.5293 222811.4063)">
		<stop  offset="0" style="stop-color:#D4E1F4"/>
		<stop  offset="0.1717" style="stop-color:#D4E1F4"/>
		<stop  offset="0.2" style="stop-color:#D4E1F4"/>
		<stop  offset="0.2001" style="stop-color:#DAE4F4"/>
		<stop  offset="0.2007" style="stop-color:#EBEBF4"/>
		<stop  offset="0.2014" style="stop-color:#F6F1F4"/>
		<stop  offset="0.2023" style="stop-color:#FDF4F4"/>
		<stop  offset="0.205" style="stop-color:#FFF5F4"/>
		<stop  offset="0.2522" style="stop-color:#FFF5F4"/>
		<stop  offset="0.26" style="stop-color:#FFF5F4"/>
		<stop  offset="0.26" style="stop-color:#D4E1F4"/>
		<stop  offset="0.3974" style="stop-color:#D4E1F4"/>
		<stop  offset="0.42" style="stop-color:#D4E1F4"/>
		<stop  offset="0.4201" style="stop-color:#DAE4F4"/>
		<stop  offset="0.4207" style="stop-color:#EBEBF4"/>
		<stop  offset="0.4214" style="stop-color:#F6F1F4"/>
		<stop  offset="0.4223" style="stop-color:#FDF4F4"/>
		<stop  offset="0.425" style="stop-color:#FFF5F4"/>
		<stop  offset="0.4894" style="stop-color:#FFF5F4"/>
		<stop  offset="0.5" style="stop-color:#FFF5F4"/>
		<stop  offset="0.5" style="stop-color:#F9F2F4"/>
		<stop  offset="0.5001" style="stop-color:#E8EBF4"/>
		<stop  offset="0.5003" style="stop-color:#DDE5F4"/>
		<stop  offset="0.5005" style="stop-color:#D6E2F4"/>
		<stop  offset="0.501" style="stop-color:#D4E1F4"/>
		<stop  offset="0.7062" style="stop-color:#D4E1F4"/>
		<stop  offset="0.74" style="stop-color:#D4E1F4"/>
		<stop  offset="0.741" style="stop-color:#FFF5F4"/>
		<stop  offset="0.8346" style="stop-color:#FFF5F4"/>
		<stop  offset="0.85" style="stop-color:#FFF5F4"/>
		<stop  offset="0.851" style="stop-color:#D4E1F4"/>
	</linearGradient>
	<rect x="145.067" y="59.733" style="fill:url(#SVGID_1_);" width="221.867" height="341.333"/>
	<circle style="fill:#A4C2F7;" cx="256" cy="452.267" r="25.6"/>
	<rect x="145.067" y="324.267" style="fill:#7FACFA;" width="221.867" height="51.2"/>
	<circle style="fill:#A4C2F7;" cx="256" cy="187.733" r="102.4"/>
	<path style="fill:#E3E7F2;" d="M281.021,252.307c-3.816-1.908-6.227-5.809-6.227-10.076v-11.59
		c0.992-1.149,1.925-2.348,2.794-3.592c3.985-5.664,7.081-11.903,9.181-18.502c3.89-1.183,6.556-4.76,6.578-8.826v-12.368
		c-0.01-2.62-1.135-5.112-3.092-6.854v-17.882c0,0,3.672-27.829-34.013-27.829s-34.012,27.829-34.012,27.829v17.882
		c-1.958,1.742-3.082,4.234-3.092,6.854v12.368c0.01,3.152,1.62,6.083,4.275,7.782c2.053,8.416,5.865,16.302,11.185,23.138v11.303
		c0,4.122-2.252,7.916-5.871,9.89l-27.585,15.047c-1.851,1.026-3.563,2.285-5.093,3.747c35.705,25.985,84.085,26.011,119.818,0.063
		c-1.605-1.431-3.39-2.646-5.309-3.616L281.021,252.307z"/>
	<g>
		<path style="fill:#428DFF;" d="M363.475,512h-214.95c-20.751-0.026-37.566-16.841-37.592-37.592V37.592
			C110.959,16.841,127.774,0.026,148.525,0h214.95c20.751,0.026,37.566,16.841,37.592,37.592v436.817
			C401.041,495.159,384.226,511.974,363.475,512L363.475,512z M148.525,17.067c-11.33,0.013-20.512,9.195-20.525,20.525v436.817
			c0.013,11.33,9.195,20.512,20.525,20.525h214.95c11.33-0.013,20.512-9.195,20.525-20.525V37.592
			c-0.013-11.33-9.195-20.512-20.525-20.525H148.525z"/>
		<path style="fill:#428DFF;" d="M256,486.4c-18.851,0-34.133-15.282-34.133-34.133c0-18.851,15.282-34.133,34.133-34.133
			s34.133,15.282,34.133,34.133C290.115,471.11,274.844,486.381,256,486.4L256,486.4z M256,435.2
			c-9.426,0-17.067,7.641-17.067,17.067s7.641,17.067,17.067,17.067c9.426,0,17.067-7.641,17.067-17.067
			C273.054,442.846,265.421,435.212,256,435.2L256,435.2z"/>
		<path style="fill:#428DFF;" d="M392.533,409.6H119.467c-4.713,0-8.533-3.821-8.533-8.533s3.821-8.533,8.533-8.533h273.067
			c4.713,0,8.533,3.82,8.533,8.533S397.246,409.6,392.533,409.6z"/>
		<path style="fill:#428DFF;" d="M392.533,68.267H119.467c-4.713,0-8.533-3.821-8.533-8.533s3.821-8.533,8.533-8.533h273.067
			c4.713,0,8.533,3.821,8.533,8.533S397.246,68.267,392.533,68.267z"/>
		<path style="fill:#428DFF;" d="M256,42.667h-34.133c-4.713,0-8.533-3.821-8.533-8.533s3.821-8.533,8.533-8.533H256
			c4.713,0,8.533,3.821,8.533,8.533S260.713,42.667,256,42.667z"/>
		<path style="fill:#428DFF;" d="M290.133,42.667H281.6c-4.713,0-8.533-3.821-8.533-8.533s3.82-8.533,8.533-8.533h8.533
			c4.713,0,8.533,3.821,8.533,8.533S294.846,42.667,290.133,42.667z"/>
		<path style="fill:#428DFF;" d="M256,298.667c-61.267,0-110.933-49.667-110.933-110.933S194.733,76.8,256,76.8
			s110.933,49.667,110.933,110.933C366.863,248.971,317.237,298.596,256,298.667z M256,93.867
			c-51.841,0-93.867,42.026-93.867,93.867S204.159,281.6,256,281.6s93.867-42.026,93.867-93.867
			C349.808,135.916,307.817,93.925,256,93.867z"/>
		<path style="fill:#428DFF;" d="M256,298.667c-23.346,0.025-46.096-7.376-64.958-21.133c-2.058-1.49-3.344-3.819-3.508-6.354
			s0.81-5.011,2.658-6.754c2.062-1.967,4.37-3.659,6.867-5.033l27.583-15.05c0.876-0.481,1.422-1.4,1.425-2.4v-8.458
			c-4.558-6.447-8.016-13.605-10.233-21.183c-3.353-3.325-5.238-7.853-5.233-12.575V187.35c0.008-3.556,1.089-7.026,3.1-9.958
			v-14.333c-0.686-8.731,2.126-17.377,7.817-24.033c9.137-9.15,21.837-13.819,34.725-12.767
			c12.888-1.052,25.587,3.617,34.725,12.767c5.694,6.655,8.506,15.302,7.817,24.033v14.333c2.011,2.932,3.092,6.403,3.1,9.958
			v12.375c0.014,6.067-3.089,11.716-8.217,14.958c-2.278,6.141-5.346,11.959-9.125,17.308c-0.408,0.583-0.817,1.142-1.217,1.667
			v8.575c0.004,1.035,0.591,1.979,1.517,2.442l29.533,14.767c2.583,1.304,4.986,2.937,7.15,4.858
			c1.94,1.718,2.995,4.224,2.866,6.812c-0.128,2.588-1.425,4.978-3.525,6.496C302.018,291.317,279.306,298.69,256,298.667
			L256,298.667z M212.1,270.625c27.26,14.315,59.787,14.443,87.158,0.341L277.2,259.941l-0.009-0.009
			c-6.718-3.336-10.958-10.199-10.933-17.7v-11.592c0-2.084,0.761-4.097,2.142-5.658c0.786-0.905,1.521-1.854,2.2-2.842
			c3.494-4.957,6.206-10.42,8.042-16.2c0.855-2.655,2.951-4.727,5.617-5.55c0.305-0.087,0.526-0.351,0.558-0.667V187.35
			c-1.888-1.791-3-4.25-3.1-6.85v-17.883c0-0.373,0.025-0.747,0.075-1.117c0.259-4.133-1.097-8.206-3.783-11.358
			c-6.015-5.158-13.884-7.623-21.767-6.817c-7.946-0.831-15.88,1.687-21.892,6.95c-2.596,3.144-3.903,7.155-3.658,11.225
			c0.05,0.37,0.075,0.743,0.075,1.117V180.5c0,2.415-1.024,4.716-2.817,6.333l-0.283,12.892c1.997,1.421,3.434,3.497,4.058,5.867
			c1.762,7.102,4.967,13.766,9.417,19.575c1.288,1.533,1.994,3.472,1.992,5.475v11.3c0.001,7.246-3.956,13.913-10.317,17.383
			L212.1,270.625z"/>
		<path style="fill:#428DFF;" d="M366.933,384H145.067c-2.264,0.001-4.435-0.897-6.035-2.498c-1.601-1.601-2.499-3.772-2.498-6.035
			v-51.2c-0.001-2.264,0.897-4.435,2.498-6.035c1.601-1.601,3.772-2.499,6.035-2.498h221.867c2.264-0.001,4.435,0.897,6.035,2.498
			c1.601,1.601,2.499,3.772,2.498,6.035v51.2c0.001,2.264-0.897,4.435-2.498,6.035C371.368,383.103,369.197,384.001,366.933,384
			L366.933,384z M153.6,366.933h204.8V332.8H153.6V366.933z"/>
	</g>
	<rect x="145.067" y="324.267" style="fill:#A4C2F7;" width="51.2" height="51.2"/>
	<path style="fill:#428DFF;" d="M196.267,384h-51.2c-2.264,0.001-4.435-0.897-6.035-2.498c-1.601-1.601-2.499-3.772-2.498-6.035
		v-51.2c-0.001-2.264,0.897-4.435,2.498-6.035c1.601-1.601,3.772-2.499,6.035-2.498h51.2c2.264-0.001,4.435,0.897,6.035,2.498
		c1.601,1.601,2.499,3.772,2.498,6.035v51.2c0.001,2.264-0.897,4.435-2.498,6.035C200.701,383.103,198.53,384.001,196.267,384
		L196.267,384z M153.6,366.933h34.133V332.8H153.6V366.933z"/>
</g>
<g>
</g>
<g>
</g>
<g>
</g>
<g>
</g>
<g>
</g>
<g>
</g>
<g>
</g>
<g>
</g>
<g>
</g>
<g>
</g>
<g>
</g>
<g>
</g>
<g>
</g>
<g>
</g>
<g>
</g>
</svg>
