<?xml version="1.0" encoding="iso-8859-1"?>
<!-- Generator: Adobe Illustrator 19.0.0, SVG Export Plug-In . SVG Version: 6.00 Build 0)  -->
<svg version="1.1" id="Capa_1" xmlns="http://www.w3.org/2000/svg" xmlns:xlink="http://www.w3.org/1999/xlink" x="0px" y="0px"
	 viewBox="0 0 512 512" style="enable-background:new 0 0 512 512;" xml:space="preserve">
<g>
	<rect x="66.37" y="350.815" style="fill:#A4C2F7;" width="56.889" height="113.778"/>
	<rect x="28.444" y="350.815" style="fill:#FFFFFF;" width="56.889" height="113.778"/>
	<rect x="56.889" y="350.815" style="fill:#E3E7F2;" width="37.926" height="113.778"/>
	<rect x="208.593" y="199.111" style="fill:#A4C2F7;" width="94.815" height="113.778"/>
	<rect x="208.593" y="199.111" style="fill:#E3E7F2;" width="66.37" height="113.778"/>
	<rect x="388.741" y="47.407" style="fill:#A4C2F7;" width="94.815" height="113.778"/>
	<rect x="388.741" y="47.407" style="fill:#E3E7F2;" width="66.37" height="113.778"/>
	<g>
		<path style="fill:#428DFF;" d="M75.852,360.296c-2.515,0.001-4.927-0.998-6.705-2.776c-1.778-1.778-2.777-4.19-2.776-6.705V9.481
			C66.37,4.245,70.615,0,75.852,0s9.481,4.245,9.481,9.481v341.333c0.001,2.515-0.998,4.927-2.776,6.705
			C80.779,359.298,78.367,360.297,75.852,360.296L75.852,360.296z"/>
		<path style="fill:#428DFF;" d="M123.259,474.074H28.444c-2.515,0.001-4.927-0.998-6.705-2.776
			c-1.778-1.778-2.777-4.19-2.776-6.705V350.815c-0.001-2.515,0.998-4.927,2.776-6.705c1.778-1.778,4.19-2.777,6.705-2.776h94.815
			c2.515-0.001,4.927,0.998,6.705,2.776s2.777,4.19,2.776,6.705v113.778c0.001,2.515-0.998,4.927-2.776,6.705
			C128.186,473.076,125.774,474.075,123.259,474.074L123.259,474.074z M37.926,455.111h75.852v-94.815H37.926V455.111z"/>
		<path style="fill:#428DFF;" d="M75.852,512c-2.515,0.001-4.927-0.998-6.705-2.776c-1.778-1.778-2.777-4.19-2.776-6.705v-37.926
			c0-5.236,4.245-9.481,9.481-9.481s9.481,4.245,9.481,9.481v37.926c0.001,2.515-0.998,4.927-2.776,6.705
			C80.779,511.002,78.367,512.001,75.852,512z"/>
		<path style="fill:#428DFF;" d="M256,208.593c-2.515,0.001-4.927-0.998-6.705-2.776c-1.778-1.778-2.777-4.19-2.776-6.705V9.481
			C246.519,4.245,250.764,0,256,0c5.236,0,9.481,4.245,9.481,9.481v189.63c0.001,2.515-0.998,4.927-2.776,6.705
			C260.927,207.595,258.515,208.593,256,208.593z"/>
		<path style="fill:#428DFF;" d="M303.407,322.37h-94.815c-2.515,0.001-4.927-0.998-6.705-2.776
			c-1.778-1.778-2.777-4.19-2.776-6.705V199.111c-0.001-2.515,0.998-4.927,2.776-6.705c1.778-1.778,4.19-2.777,6.705-2.776h94.815
			c2.515-0.001,4.927,0.998,6.705,2.776c1.778,1.778,2.777,4.19,2.776,6.705v113.778c0.001,2.515-0.998,4.927-2.776,6.705
			C308.334,321.372,305.922,322.371,303.407,322.37L303.407,322.37z M218.074,303.407h75.852v-94.815h-75.852V303.407z"/>
		<path style="fill:#428DFF;" d="M256,512c-2.515,0.001-4.927-0.998-6.705-2.776c-1.778-1.778-2.777-4.19-2.776-6.705v-189.63
			c0-5.236,4.245-9.481,9.481-9.481c5.236,0,9.481,4.245,9.481,9.481v189.63c0.001,2.515-0.998,4.927-2.776,6.705
			C260.927,511.002,258.515,512.001,256,512z"/>
		<path style="fill:#428DFF;" d="M436.148,512c-2.515,0.001-4.927-0.998-6.705-2.776c-1.778-1.778-2.777-4.19-2.776-6.705V161.185
			c0-5.236,4.245-9.481,9.482-9.481c5.236,0,9.481,4.245,9.481,9.481v341.333c0.001,2.515-0.998,4.927-2.776,6.705
			C441.075,511.002,438.663,512.001,436.148,512L436.148,512z"/>
		<path style="fill:#428DFF;" d="M483.556,170.667h-94.815c-2.515,0.001-4.927-0.998-6.705-2.776
			c-1.778-1.778-2.777-4.19-2.776-6.705V47.407c-0.001-2.515,0.998-4.927,2.776-6.705c1.778-1.778,4.19-2.777,6.705-2.776h94.815
			c2.515-0.001,4.927,0.998,6.705,2.776c1.778,1.778,2.777,4.19,2.776,6.705v113.778c0.001,2.515-0.998,4.927-2.776,6.705
			C488.482,169.669,486.07,170.667,483.556,170.667L483.556,170.667z M398.222,151.704h75.852V56.889h-75.852V151.704z"/>
		<path style="fill:#428DFF;" d="M436.148,56.889c-2.515,0.001-4.927-0.998-6.705-2.776c-1.778-1.778-2.777-4.19-2.776-6.705V9.481
			c0-5.236,4.245-9.481,9.482-9.481c5.236,0,9.481,4.245,9.481,9.481v37.926c0.001,2.515-0.998,4.927-2.776,6.705
			C441.075,55.891,438.663,56.89,436.148,56.889L436.148,56.889z"/>
	</g>
</g>
<g>
</g>
<g>
</g>
<g>
</g>
<g>
</g>
<g>
</g>
<g>
</g>
<g>
</g>
<g>
</g>
<g>
</g>
<g>
</g>
<g>
</g>
<g>
</g>
<g>
</g>
<g>
</g>
<g>
</g>
</svg>
