<?xml version="1.0" encoding="iso-8859-1"?>
<!-- Generator: Adobe Illustrator 19.0.0, SVG Export Plug-In . SVG Version: 6.00 Build 0)  -->
<svg version="1.1" id="Capa_1" xmlns="http://www.w3.org/2000/svg" xmlns:xlink="http://www.w3.org/1999/xlink" x="0px" y="0px"
	 viewBox="0 0 512 512" style="enable-background:new 0 0 512 512;" xml:space="preserve">
<g>
	<rect x="8.533" y="8.533" style="fill:#FFFFFF;" width="230.4" height="494.933"/>
	<rect x="273.067" y="8.533" style="fill:#A4C2F7;" width="230.4" height="494.933"/>
	<rect x="34.133" y="8.533" style="fill:#E3E7F2;" width="443.733" height="494.933"/>
	<rect x="375.467" y="85.333" style="fill:#7FACFA;" width="85.333" height="102.4"/>
	<rect x="375.467" y="85.333" style="fill:#A4C2F7;" width="59.733" height="102.4"/>
	<rect x="213.333" y="204.8" style="fill:#7FACFA;" width="85.333" height="102.4"/>
	<rect x="213.333" y="204.8" style="fill:#A4C2F7;" width="59.733" height="102.4"/>
	<rect x="51.2" y="324.267" style="fill:#7FACFA;" width="85.333" height="102.4"/>
	<rect x="51.2" y="324.267" style="fill:#A4C2F7;" width="59.733" height="102.4"/>
	<g>
		<path style="fill:#428DFF;" d="M503.467,512H8.533c-2.263,0.001-4.434-0.898-6.035-2.499c-1.6-1.6-2.499-3.771-2.499-6.035V8.533
			C-0.001,6.27,0.898,4.099,2.499,2.499S6.27-0.001,8.533,0h494.933c2.263-0.001,4.434,0.898,6.035,2.499
			c1.6,1.6,2.499,3.771,2.499,6.035v494.933c0.001,2.263-0.898,4.434-2.499,6.035C507.901,511.102,505.73,512.001,503.467,512
			L503.467,512z M17.067,494.933h477.867V17.067H17.067V494.933z"/>
		<path style="fill:#428DFF;" d="M93.867,332.8c-2.263,0.001-4.434-0.898-6.035-2.499c-1.6-1.6-2.499-3.771-2.499-6.035V51.2
			c0-4.713,3.821-8.533,8.533-8.533c4.713,0,8.533,3.821,8.533,8.533v273.067c0.001,2.263-0.898,4.434-2.499,6.035
			C98.301,331.902,96.13,332.801,93.867,332.8z"/>
		<path style="fill:#428DFF;" d="M136.533,435.2H51.2c-2.263,0.001-4.434-0.898-6.035-2.499c-1.6-1.6-2.499-3.771-2.499-6.035
			v-102.4c-0.001-2.263,0.898-4.434,2.499-6.035s3.771-2.499,6.035-2.499h85.333c2.263-0.001,4.434,0.898,6.035,2.499
			c1.6,1.6,2.499,3.771,2.499,6.035v102.4c0.001,2.263-0.898,4.434-2.499,6.035C140.968,434.302,138.797,435.201,136.533,435.2
			L136.533,435.2z M59.733,418.133H128V332.8H59.733V418.133z"/>
		<path style="fill:#428DFF;" d="M93.867,469.333c-2.263,0.001-4.434-0.898-6.035-2.499c-1.6-1.6-2.499-3.771-2.499-6.035v-34.133
			c0-4.713,3.821-8.533,8.533-8.533c4.713,0,8.533,3.82,8.533,8.533V460.8c0.001,2.263-0.898,4.434-2.499,6.035
			C98.301,468.435,96.13,469.334,93.867,469.333L93.867,469.333z"/>
		<path style="fill:#428DFF;" d="M256,213.333c-2.263,0.001-4.434-0.898-6.035-2.499c-1.6-1.6-2.499-3.771-2.499-6.035V51.2
			c0-4.713,3.821-8.533,8.533-8.533c4.713,0,8.533,3.821,8.533,8.533v153.6c0.001,2.263-0.898,4.434-2.499,6.035
			S258.263,213.334,256,213.333z"/>
		<path style="fill:#428DFF;" d="M298.667,315.733h-85.333c-2.263,0.001-4.434-0.898-6.035-2.499c-1.6-1.6-2.499-3.771-2.499-6.035
			V204.8c-0.001-2.263,0.898-4.434,2.499-6.035c1.6-1.6,3.771-2.499,6.035-2.499h85.333c2.263-0.001,4.434,0.898,6.035,2.499
			c1.6,1.6,2.499,3.771,2.499,6.035v102.4c0.001,2.263-0.898,4.434-2.499,6.035C303.101,314.835,300.93,315.734,298.667,315.733
			L298.667,315.733z M221.867,298.667h68.267v-85.333h-68.267V298.667z"/>
		<path style="fill:#428DFF;" d="M256,469.333c-2.263,0.001-4.434-0.898-6.035-2.499c-1.6-1.6-2.499-3.771-2.499-6.035V307.2
			c0-4.713,3.821-8.533,8.533-8.533c4.713,0,8.533,3.82,8.533,8.533v153.6c0.001,2.263-0.898,4.434-2.499,6.035
			C260.434,468.435,258.263,469.334,256,469.333L256,469.333z"/>
		<path style="fill:#428DFF;" d="M418.133,469.333c-2.263,0.001-4.434-0.898-6.035-2.499c-1.6-1.6-2.499-3.771-2.499-6.035V187.733
			c0-4.713,3.82-8.533,8.533-8.533s8.533,3.821,8.533,8.533V460.8c0.001,2.263-0.898,4.434-2.499,6.035
			C422.568,468.435,420.397,469.334,418.133,469.333L418.133,469.333z"/>
		<path style="fill:#428DFF;" d="M460.8,196.267h-85.333c-2.263,0.001-4.434-0.898-6.035-2.499c-1.6-1.6-2.499-3.771-2.499-6.035
			v-102.4c-0.001-2.263,0.898-4.434,2.499-6.035c1.6-1.6,3.771-2.499,6.035-2.499H460.8c2.263-0.001,4.434,0.898,6.035,2.499
			c1.6,1.6,2.499,3.771,2.499,6.035v102.4c0.001,2.263-0.898,4.434-2.499,6.035C465.234,195.368,463.063,196.267,460.8,196.267z
			 M384,179.2h68.267V93.867H384V179.2z"/>
		<path style="fill:#428DFF;" d="M418.133,93.867c-2.263,0.001-4.434-0.898-6.035-2.499c-1.6-1.6-2.499-3.771-2.499-6.035V51.2
			c0-4.713,3.82-8.533,8.533-8.533s8.533,3.821,8.533,8.533v34.133c0.001,2.263-0.898,4.434-2.499,6.035
			C422.568,92.968,420.397,93.867,418.133,93.867L418.133,93.867z"/>
	</g>
</g>
<g>
</g>
<g>
</g>
<g>
</g>
<g>
</g>
<g>
</g>
<g>
</g>
<g>
</g>
<g>
</g>
<g>
</g>
<g>
</g>
<g>
</g>
<g>
</g>
<g>
</g>
<g>
</g>
<g>
</g>
</svg>
