<?xml version="1.0" encoding="iso-8859-1"?>
<!-- Generator: Adobe Illustrator 19.0.0, SVG Export Plug-In . SVG Version: 6.00 Build 0)  -->
<svg version="1.1" id="Capa_1" xmlns="http://www.w3.org/2000/svg" xmlns:xlink="http://www.w3.org/1999/xlink" x="0px" y="0px"
	 viewBox="0 0 512 512" style="enable-background:new 0 0 512 512;" xml:space="preserve">
<g>
	<rect x="8.533" y="8.533" style="fill:#FFFFFF;" width="25.6" height="494.933"/>
	<rect x="477.867" y="8.533" style="fill:#A4C2F7;" width="25.6" height="494.933"/>
	<rect x="34.133" y="8.533" style="fill:#E3E7F2;" width="443.733" height="494.933"/>
	<rect x="324.267" y="375.467" style="fill:#7FACFA;" width="102.4" height="85.333"/>
	<rect x="324.267" y="375.467" style="fill:#A4C2F7;" width="76.8" height="85.333"/>
	<rect x="204.8" y="213.333" style="fill:#7FACFA;" width="102.4" height="85.333"/>
	<rect x="204.8" y="213.333" style="fill:#A4C2F7;" width="76.8" height="85.333"/>
	<rect x="85.333" y="51.2" style="fill:#7FACFA;" width="102.4" height="85.333"/>
	<rect x="85.333" y="51.2" style="fill:#A4C2F7;" width="76.8" height="85.333"/>
	<g>
		<path style="fill:#428DFF;" d="M503.467,512H8.533c-2.264,0.001-4.435-0.897-6.035-2.498c-1.601-1.601-2.499-3.772-2.498-6.035
			V8.533C-0.001,6.27,0.897,4.099,2.498,2.498S6.27-0.001,8.533,0h494.933c2.264-0.001,4.435,0.897,6.035,2.498
			c1.601,1.601,2.499,3.772,2.498,6.035v494.933c0.001,2.264-0.897,4.435-2.498,6.035C507.901,511.103,505.73,512.001,503.467,512z
			 M17.067,494.933h477.867V17.067H17.067V494.933z"/>
		<path style="fill:#428DFF;" d="M460.8,102.4H187.733c-4.713,0-8.533-3.821-8.533-8.533c0-4.713,3.821-8.533,8.533-8.533H460.8
			c4.713,0,8.533,3.821,8.533,8.533C469.333,98.579,465.513,102.4,460.8,102.4z"/>
		<path style="fill:#428DFF;" d="M187.733,145.067h-102.4c-2.264,0.001-4.435-0.897-6.035-2.498
			c-1.601-1.601-2.499-3.772-2.498-6.035V51.2c-0.001-2.264,0.897-4.435,2.498-6.035c1.601-1.601,3.772-2.499,6.035-2.498h102.4
			c2.264-0.001,4.435,0.897,6.035,2.498s2.499,3.772,2.498,6.035v85.333c0.001,2.264-0.897,4.435-2.498,6.035
			S189.997,145.068,187.733,145.067L187.733,145.067z M93.867,128H179.2V59.733H93.867V128z"/>
		<path style="fill:#428DFF;" d="M85.333,102.4H51.2c-4.713,0-8.533-3.821-8.533-8.533c0-4.713,3.821-8.533,8.533-8.533h34.133
			c4.713,0,8.533,3.821,8.533,8.533C93.867,98.579,90.046,102.4,85.333,102.4z"/>
		<path style="fill:#428DFF;" d="M460.8,264.533H307.2c-4.713,0-8.533-3.821-8.533-8.533c0-4.713,3.82-8.533,8.533-8.533h153.6
			c4.713,0,8.533,3.821,8.533,8.533C469.333,260.713,465.513,264.533,460.8,264.533z"/>
		<path style="fill:#428DFF;" d="M307.2,307.2H204.8c-2.264,0.001-4.435-0.897-6.035-2.498c-1.601-1.601-2.499-3.772-2.498-6.035
			v-85.333c-0.001-2.264,0.897-4.435,2.498-6.035s3.772-2.499,6.035-2.498h102.4c2.264-0.001,4.435,0.897,6.035,2.498
			c1.601,1.601,2.499,3.772,2.498,6.035v85.333c0.001,2.264-0.897,4.435-2.498,6.035C311.635,306.303,309.464,307.201,307.2,307.2
			L307.2,307.2z M213.333,290.133h85.333v-68.267h-85.333V290.133z"/>
		<path style="fill:#428DFF;" d="M204.8,264.533H51.2c-4.713,0-8.533-3.821-8.533-8.533c0-4.713,3.821-8.533,8.533-8.533h153.6
			c4.713,0,8.533,3.821,8.533,8.533C213.333,260.713,209.513,264.533,204.8,264.533z"/>
		<path style="fill:#428DFF;" d="M324.267,426.667H51.2c-4.713,0-8.533-3.82-8.533-8.533s3.821-8.533,8.533-8.533h273.067
			c4.713,0,8.533,3.82,8.533,8.533S328.98,426.667,324.267,426.667z"/>
		<path style="fill:#428DFF;" d="M426.667,469.333h-102.4c-2.264,0.001-4.435-0.897-6.035-2.498
			c-1.601-1.601-2.499-3.772-2.498-6.035v-85.333c-0.001-2.264,0.897-4.435,2.498-6.035c1.601-1.601,3.772-2.499,6.035-2.498h102.4
			c2.264-0.001,4.435,0.897,6.035,2.498c1.601,1.601,2.499,3.772,2.498,6.035V460.8c0.001,2.264-0.897,4.435-2.498,6.035
			C431.102,468.436,428.93,469.335,426.667,469.333L426.667,469.333z M332.8,452.267h85.333V384H332.8V452.267z"/>
		<path style="fill:#428DFF;" d="M460.8,426.667h-34.133c-4.713,0-8.533-3.82-8.533-8.533s3.82-8.533,8.533-8.533H460.8
			c4.713,0,8.533,3.82,8.533,8.533S465.513,426.667,460.8,426.667z"/>
	</g>
</g>
<g>
</g>
<g>
</g>
<g>
</g>
<g>
</g>
<g>
</g>
<g>
</g>
<g>
</g>
<g>
</g>
<g>
</g>
<g>
</g>
<g>
</g>
<g>
</g>
<g>
</g>
<g>
</g>
<g>
</g>
</svg>
