<?xml version="1.0" encoding="iso-8859-1"?>
<!-- Generator: Adobe Illustrator 19.0.0, SVG Export Plug-In . SVG Version: 6.00 Build 0)  -->
<svg version="1.1" id="Capa_1" xmlns="http://www.w3.org/2000/svg" xmlns:xlink="http://www.w3.org/1999/xlink" x="0px" y="0px"
	 viewBox="0 0 512 512" style="enable-background:new 0 0 512 512;" xml:space="preserve">
<g>
	<rect x="460.8" y="68.267" style="fill:#A4C2F7;" width="42.667" height="102.4"/>
	<rect x="418.133" y="68.267" style="fill:#FFFFFF;" width="42.667" height="102.4"/>
	<rect x="443.733" y="68.267" style="fill:#E3E7F2;" width="34.133" height="102.4"/>
	<rect x="324.267" y="170.667" style="fill:#A4C2F7;" width="42.667" height="102.4"/>
	<rect x="281.6" y="170.667" style="fill:#FFFFFF;" width="42.667" height="102.4"/>
	<rect x="307.2" y="170.667" style="fill:#E3E7F2;" width="34.133" height="102.4"/>
	<rect x="187.733" y="256" style="fill:#A4C2F7;" width="42.667" height="102.4"/>
	<rect x="145.067" y="256" style="fill:#FFFFFF;" width="42.667" height="102.4"/>
	<rect x="170.667" y="256" style="fill:#E3E7F2;" width="34.133" height="102.4"/>
	<rect x="51.2" y="341.333" style="fill:#A4C2F7;" width="42.667" height="102.4"/>
	<rect x="8.533" y="341.333" style="fill:#FFFFFF;" width="42.667" height="102.4"/>
	<rect x="34.133" y="341.333" style="fill:#E3E7F2;" width="34.133" height="102.4"/>
	<g>
		<path style="fill:#428DFF;" d="M51.2,349.867c-2.264,0.001-4.435-0.897-6.035-2.498c-1.601-1.601-2.499-3.772-2.498-6.035v-307.2
			c0-4.713,3.821-8.533,8.533-8.533s8.533,3.821,8.533,8.533v307.2c0.001,2.264-0.897,4.435-2.498,6.035
			C55.635,348.969,53.464,349.868,51.2,349.867L51.2,349.867z"/>
		<path style="fill:#428DFF;" d="M93.867,452.267H8.533c-2.264,0.001-4.435-0.897-6.035-2.498c-1.601-1.601-2.499-3.772-2.498-6.035
			v-102.4c-0.001-2.264,0.897-4.435,2.498-6.035c1.601-1.601,3.772-2.499,6.035-2.498h85.333c2.264-0.001,4.435,0.897,6.035,2.498
			c1.601,1.601,2.499,3.772,2.498,6.035v102.4c0.001,2.264-0.897,4.435-2.498,6.035C98.301,451.369,96.13,452.268,93.867,452.267
			L93.867,452.267z M17.067,435.2h68.267v-85.333H17.067V435.2z"/>
		<path style="fill:#428DFF;" d="M51.2,486.4c-2.264,0.001-4.435-0.897-6.035-2.498c-1.601-1.601-2.499-3.772-2.498-6.035v-34.133
			c0-4.713,3.821-8.533,8.533-8.533s8.533,3.821,8.533,8.533v34.133c0.001,2.264-0.897,4.435-2.498,6.035
			C55.635,485.503,53.464,486.401,51.2,486.4L51.2,486.4z"/>
		<path style="fill:#428DFF;" d="M187.733,264.533c-2.264,0.001-4.435-0.897-6.035-2.498s-2.499-3.772-2.498-6.035V34.133
			c0-4.713,3.821-8.533,8.533-8.533c4.713,0,8.533,3.821,8.533,8.533V256c0.001,2.264-0.897,4.435-2.498,6.035
			S189.997,264.535,187.733,264.533L187.733,264.533z"/>
		<path style="fill:#428DFF;" d="M230.4,366.933h-85.333c-2.264,0.001-4.435-0.897-6.035-2.498
			c-1.601-1.601-2.499-3.772-2.498-6.035V256c-0.001-2.264,0.897-4.435,2.498-6.035s3.772-2.499,6.035-2.498H230.4
			c2.264-0.001,4.435,0.897,6.035,2.498s2.499,3.772,2.498,6.035v102.4c0.001,2.264-0.897,4.435-2.498,6.035
			C234.835,366.036,232.664,366.935,230.4,366.933L230.4,366.933z M153.6,349.867h68.267v-85.333H153.6V349.867z"/>
		<path style="fill:#428DFF;" d="M187.733,486.4c-2.264,0.001-4.435-0.897-6.035-2.498c-1.601-1.601-2.499-3.772-2.498-6.035V358.4
			c0-4.713,3.821-8.533,8.533-8.533c4.713,0,8.533,3.82,8.533,8.533v119.467c0.001,2.264-0.897,4.435-2.498,6.035
			C192.168,485.503,189.997,486.401,187.733,486.4L187.733,486.4z"/>
		<path style="fill:#428DFF;" d="M324.267,179.2c-2.264,0.001-4.435-0.897-6.035-2.498c-1.601-1.601-2.499-3.772-2.498-6.035V34.133
			c0-4.713,3.821-8.533,8.533-8.533s8.533,3.821,8.533,8.533v136.533c0.001,2.264-0.897,4.435-2.498,6.035
			C328.701,178.303,326.53,179.201,324.267,179.2L324.267,179.2z"/>
		<path style="fill:#428DFF;" d="M366.933,281.6H281.6c-2.264,0.001-4.435-0.897-6.035-2.498c-1.601-1.601-2.499-3.772-2.498-6.035
			v-102.4c-0.001-2.264,0.897-4.435,2.498-6.035c1.601-1.601,3.772-2.499,6.035-2.498h85.333c2.264-0.001,4.435,0.897,6.035,2.498
			c1.601,1.601,2.499,3.772,2.498,6.035v102.4c0.001,2.264-0.897,4.435-2.498,6.035C371.368,280.703,369.197,281.601,366.933,281.6
			L366.933,281.6z M290.133,264.533H358.4V179.2h-68.267V264.533z"/>
		<path style="fill:#428DFF;" d="M324.267,486.4c-2.264,0.001-4.435-0.897-6.035-2.498c-1.601-1.601-2.499-3.772-2.498-6.035v-204.8
			c0-4.713,3.821-8.533,8.533-8.533s8.533,3.82,8.533,8.533v204.8c0.001,2.264-0.897,4.435-2.498,6.035
			C328.701,485.503,326.53,486.401,324.267,486.4L324.267,486.4z"/>
		<path style="fill:#428DFF;" d="M460.8,486.4c-2.264,0.001-4.435-0.897-6.035-2.498c-1.601-1.601-2.499-3.772-2.498-6.035v-307.2
			c0-4.713,3.82-8.533,8.533-8.533s8.533,3.821,8.533,8.533v307.2c0.001,2.264-0.897,4.435-2.498,6.035
			C465.235,485.503,463.064,486.401,460.8,486.4L460.8,486.4z"/>
		<path style="fill:#428DFF;" d="M503.467,179.2h-85.333c-2.264,0.001-4.435-0.897-6.035-2.498
			c-1.601-1.601-2.499-3.772-2.498-6.035v-102.4c-0.001-2.264,0.897-4.435,2.498-6.035c1.601-1.601,3.772-2.499,6.035-2.498h85.333
			c2.264-0.001,4.435,0.897,6.035,2.498c1.601,1.601,2.499,3.772,2.498,6.035v102.4c0.001,2.264-0.897,4.435-2.498,6.035
			C507.901,178.303,505.73,179.201,503.467,179.2L503.467,179.2z M426.667,162.133h68.267V76.8h-68.267V162.133z"/>
		<path style="fill:#428DFF;" d="M460.8,76.8c-2.264,0.001-4.435-0.897-6.035-2.498c-1.601-1.601-2.499-3.772-2.498-6.035V34.133
			c0-4.713,3.82-8.533,8.533-8.533s8.533,3.821,8.533,8.533v34.133c0.001,2.264-0.897,4.435-2.498,6.035
			C465.235,75.903,463.064,76.801,460.8,76.8z"/>
		<path style="fill:#428DFF;" d="M196.267,298.667H179.2c-4.713,0-8.533-3.821-8.533-8.533c0-4.713,3.821-8.533,8.533-8.533h17.067
			c4.713,0,8.533,3.821,8.533,8.533C204.8,294.846,200.98,298.667,196.267,298.667z"/>
		<path style="fill:#428DFF;" d="M332.8,247.467h-17.067c-4.713,0-8.533-3.82-8.533-8.533s3.821-8.533,8.533-8.533H332.8
			c4.713,0,8.533,3.821,8.533,8.533S337.513,247.467,332.8,247.467z"/>
		<path style="fill:#428DFF;" d="M332.8,213.333h-17.067c-4.713,0-8.533-3.821-8.533-8.533c0-4.713,3.821-8.533,8.533-8.533H332.8
			c4.713,0,8.533,3.821,8.533,8.533C341.333,209.513,337.513,213.333,332.8,213.333z"/>
		<path style="fill:#428DFF;" d="M469.333,145.067h-17.067c-4.713,0-8.533-3.821-8.533-8.533s3.82-8.533,8.533-8.533h17.067
			c4.713,0,8.533,3.821,8.533,8.533S474.046,145.067,469.333,145.067z"/>
		<path style="fill:#428DFF;" d="M469.333,110.933h-17.067c-4.713,0-8.533-3.821-8.533-8.533c0-4.713,3.82-8.533,8.533-8.533h17.067
			c4.713,0,8.533,3.821,8.533,8.533C477.867,107.113,474.046,110.933,469.333,110.933z"/>
		<path style="fill:#428DFF;" d="M196.267,332.8H179.2c-4.713,0-8.533-3.82-8.533-8.533s3.821-8.533,8.533-8.533h17.067
			c4.713,0,8.533,3.821,8.533,8.533S200.98,332.8,196.267,332.8z"/>
		<path style="fill:#428DFF;" d="M59.733,384H42.667c-4.713,0-8.533-3.821-8.533-8.533c0-4.713,3.821-8.533,8.533-8.533h17.067
			c4.713,0,8.533,3.821,8.533,8.533C68.267,380.18,64.446,384,59.733,384z"/>
		<path style="fill:#428DFF;" d="M59.733,418.133H42.667c-4.713,0-8.533-3.821-8.533-8.533c0-4.713,3.821-8.533,8.533-8.533h17.067
			c4.713,0,8.533,3.821,8.533,8.533C68.267,414.313,64.446,418.133,59.733,418.133z"/>
	</g>
</g>
<g>
</g>
<g>
</g>
<g>
</g>
<g>
</g>
<g>
</g>
<g>
</g>
<g>
</g>
<g>
</g>
<g>
</g>
<g>
</g>
<g>
</g>
<g>
</g>
<g>
</g>
<g>
</g>
<g>
</g>
</svg>
