<?xml version="1.0" encoding="iso-8859-1"?>
<!-- Generator: Adobe Illustrator 19.0.0, SVG Export Plug-In . SVG Version: 6.00 Build 0)  -->
<svg version="1.1" id="Capa_1" xmlns="http://www.w3.org/2000/svg" xmlns:xlink="http://www.w3.org/1999/xlink" x="0px" y="0px"
	 viewBox="0 0 512 512" style="enable-background:new 0 0 512 512;" xml:space="preserve">
<g>
	<path style="fill:#A4C2F7;" d="M51.2,238.933c0-113.108,91.692-204.8,204.8-204.8s204.8,91.692,204.8,204.8
		c-12.087-16.116-31.056-25.6-51.2-25.6c-20.144,0-39.113,9.484-51.2,25.6c-12.087-16.116-31.056-25.6-51.2-25.6
		s-39.113,9.484-51.2,25.6c-12.087-16.116-31.056-25.6-51.2-25.6s-39.113,9.484-51.2,25.6c-12.087-16.116-31.056-25.6-51.2-25.6
		S63.287,222.818,51.2,238.933z"/>
	
		<linearGradient id="SVGID_1_" gradientUnits="userSpaceOnUse" x1="-48.6776" y1="652.1096" x2="-48.0914" y2="651.041" gradientTransform="matrix(373.3029 0 0 -204.8 18294.0371 133629.5469)">
		<stop  offset="0" style="stop-color:#D4E1F4"/>
		<stop  offset="0.1717" style="stop-color:#D4E1F4"/>
		<stop  offset="0.2" style="stop-color:#D4E1F4"/>
		<stop  offset="0.2001" style="stop-color:#DAE4F4"/>
		<stop  offset="0.2007" style="stop-color:#EBEBF4"/>
		<stop  offset="0.2014" style="stop-color:#F6F1F4"/>
		<stop  offset="0.2023" style="stop-color:#FDF4F4"/>
		<stop  offset="0.205" style="stop-color:#FFF5F4"/>
		<stop  offset="0.2522" style="stop-color:#FFF5F4"/>
		<stop  offset="0.26" style="stop-color:#FFF5F4"/>
		<stop  offset="0.26" style="stop-color:#D4E1F4"/>
		<stop  offset="0.3974" style="stop-color:#D4E1F4"/>
		<stop  offset="0.42" style="stop-color:#D4E1F4"/>
		<stop  offset="0.4201" style="stop-color:#DAE4F4"/>
		<stop  offset="0.4207" style="stop-color:#EBEBF4"/>
		<stop  offset="0.4214" style="stop-color:#F6F1F4"/>
		<stop  offset="0.4223" style="stop-color:#FDF4F4"/>
		<stop  offset="0.425" style="stop-color:#FFF5F4"/>
		<stop  offset="0.4894" style="stop-color:#FFF5F4"/>
		<stop  offset="0.5" style="stop-color:#FFF5F4"/>
		<stop  offset="0.5" style="stop-color:#F9F2F4"/>
		<stop  offset="0.5001" style="stop-color:#E8EBF4"/>
		<stop  offset="0.5003" style="stop-color:#DDE5F4"/>
		<stop  offset="0.5005" style="stop-color:#D6E2F4"/>
		<stop  offset="0.501" style="stop-color:#D4E1F4"/>
		<stop  offset="0.7062" style="stop-color:#D4E1F4"/>
		<stop  offset="0.74" style="stop-color:#D4E1F4"/>
		<stop  offset="0.741" style="stop-color:#FFF5F4"/>
		<stop  offset="0.8346" style="stop-color:#FFF5F4"/>
		<stop  offset="0.85" style="stop-color:#FFF5F4"/>
		<stop  offset="0.851" style="stop-color:#D4E1F4"/>
	</linearGradient>
	<path style="fill:url(#SVGID_1_);" d="M51.2,238.933c0-113.108,84.051-204.8,187.733-204.8c93.594,0,171.19,74.716,185.405,172.454
		c0.763,4.483-1.169,8.996-4.938,11.54c-3.769,2.544-8.678,2.646-12.549,0.262c-15.966-10.956-29.716-4.109-48.451,20.543
		c-12.087-16.116-31.056-25.6-51.2-25.6s-39.113,9.484-51.2,25.6c-12.087-16.116-31.056-25.6-51.2-25.6s-39.113,9.484-51.2,25.6
		c-12.087-16.116-31.056-25.6-51.2-25.6S63.287,222.818,51.2,238.933z"/>
	<path style="fill:#FFFFFF;" d="M256,34.133c3.692,0,7.357,0.108,11,0.302c-90.842,3.169-165.434,76.55-179.339,172.152
		c-0.4,2.865,0.272,5.776,1.889,8.175c-15.143,3.503-28.657,12.021-38.35,24.171C51.2,125.825,142.892,34.133,256,34.133L256,34.133
		z"/>
	<g>
		<path style="fill:#428DFF;" d="M460.8,247.467c-2.54,0.001-4.948-1.13-6.571-3.083c-10.462-14.161-27.023-22.517-44.629-22.517
			c-17.606,0-34.168,8.356-44.629,22.517c-1.677,1.862-4.065,2.925-6.571,2.925c-2.506,0-4.894-1.063-6.571-2.925
			c-10.462-14.161-27.023-22.517-44.629-22.517s-34.168,8.356-44.629,22.517c-1.677,1.862-4.065,2.925-6.571,2.925
			c-2.506,0-4.894-1.063-6.571-2.925c-10.709-13.864-27.115-22.141-44.629-22.517c-17.515,0.375-33.92,8.652-44.629,22.517
			c-1.677,1.862-4.065,2.925-6.571,2.925s-4.894-1.063-6.571-2.925c-10.709-13.864-27.115-22.141-44.629-22.517
			c-17.515,0.375-33.92,8.652-44.629,22.517c-2.298,2.766-6.082,3.796-9.465,2.576c-3.382-1.221-5.637-4.43-5.639-8.026
			C42.667,121.113,138.179,25.6,256,25.6s213.333,95.513,213.333,213.333C469.33,243.645,465.511,247.463,460.8,247.467z
			 M307.2,204.8c19.243,0.163,37.644,7.917,51.2,21.575c13.556-13.658,31.957-21.412,51.2-21.575
			c14.944,0.045,29.496,4.788,41.596,13.558C440.662,118.481,356.432,42.668,256,42.668S71.339,118.481,60.804,218.358
			c12.1-8.77,26.652-13.513,41.596-13.558c19.243,0.163,37.644,7.917,51.2,21.575c13.463-13.796,31.924-21.575,51.2-21.575
			s37.737,7.779,51.2,21.575C269.556,212.717,287.957,204.963,307.2,204.8z"/>
		<path style="fill:#428DFF;" d="M256,42.667c-2.263,0.001-4.434-0.898-6.035-2.499c-1.6-1.6-2.499-3.771-2.499-6.035v-25.6
			C247.467,3.821,251.287,0,256,0c4.713,0,8.533,3.821,8.533,8.533v25.6c0.001,2.263-0.898,4.434-2.499,6.035
			C260.434,41.768,258.263,42.667,256,42.667z"/>
		<path style="fill:#428DFF;" d="M221.867,512c-23.553-0.028-42.639-19.114-42.667-42.667c0-4.713,3.821-8.533,8.533-8.533
			c4.713,0,8.533,3.821,8.533,8.533c0,14.138,11.462,25.6,25.6,25.6c14.138,0,25.6-11.462,25.6-25.6v-230.4
			c0-4.713,3.821-8.533,8.533-8.533c4.713,0,8.533,3.821,8.533,8.533v230.4C264.506,492.886,245.419,511.972,221.867,512
			L221.867,512z"/>
	</g>
</g>
<g>
</g>
<g>
</g>
<g>
</g>
<g>
</g>
<g>
</g>
<g>
</g>
<g>
</g>
<g>
</g>
<g>
</g>
<g>
</g>
<g>
</g>
<g>
</g>
<g>
</g>
<g>
</g>
<g>
</g>
</svg>
