<?xml version="1.0" encoding="iso-8859-1"?>
<!-- Generator: Adobe Illustrator 19.0.0, SVG Export Plug-In . SVG Version: 6.00 Build 0)  -->
<svg version="1.1" id="Capa_1" xmlns="http://www.w3.org/2000/svg" xmlns:xlink="http://www.w3.org/1999/xlink" x="0px" y="0px"
	 viewBox="0 0 512 512" style="enable-background:new 0 0 512 512;" xml:space="preserve">
<g>
	<g>
		<path style="fill:#428DFF;" d="M26.487,173.104c-0.561-0.001-1.121-0.053-1.673-0.155c-4.156-0.802-7.159-4.44-7.159-8.672V65.052
			c0.029-26.166,21.235-47.37,47.401-47.397h99.22c4.232,0,7.868,3.003,8.669,7.159c0.801,4.155-1.46,8.295-5.388,9.867
			c-60.536,24.352-108.524,72.336-132.88,132.871C33.34,170.904,30.096,173.104,26.487,173.104L26.487,173.104z M65.056,35.311
			C48.637,35.329,35.331,48.633,35.31,65.052v61.31c22.171-37.555,53.497-68.88,91.052-91.052H65.056z"/>
		<path style="fill:#428DFF;" d="M485.513,173.104c-3.609,0-6.853-2.2-8.19-5.552c-24.356-60.534-72.344-108.519-132.88-132.871
			c-3.929-1.573-6.189-5.712-5.389-9.867c0.801-4.155,4.437-7.158,8.669-7.159h99.22c26.166,0.027,47.372,21.231,47.401,47.397
			v99.224c0,4.233-3.003,7.87-7.159,8.672C486.634,173.051,486.074,173.103,485.513,173.104z M385.638,35.311
			c37.555,22.171,68.88,53.497,91.052,91.052v-61.31c-0.021-16.419-13.327-29.723-29.746-29.741H385.638z"/>
		<path style="fill:#428DFF;" d="M446.944,494.345h-99.22c-4.232,0-7.868-3.003-8.669-7.159c-0.801-4.155,1.46-8.294,5.389-9.867
			c60.536-24.352,108.523-72.337,132.879-132.871c1.568-3.932,5.708-6.196,9.865-5.396c4.157,0.8,7.16,4.439,7.157,8.672v99.224
			C494.316,473.114,473.11,494.318,446.944,494.345L446.944,494.345z M385.638,476.69h61.306
			c16.419-0.019,29.725-13.323,29.746-29.741v-61.31C454.518,423.193,423.193,454.518,385.638,476.69L385.638,476.69z"/>
		<path style="fill:#428DFF;" d="M164.276,494.345h-99.22c-26.166-0.027-47.372-21.231-47.401-47.397v-99.224
			c-0.003-4.233,3-7.872,7.157-8.672c4.157-0.8,8.296,1.464,9.865,5.396c24.356,60.534,72.344,108.519,132.88,132.871
			c3.929,1.573,6.189,5.712,5.388,9.867C172.144,491.342,168.508,494.345,164.276,494.345z M35.31,385.638v61.31
			c0.021,16.419,13.327,29.723,29.746,29.741h61.306C88.807,454.518,57.482,423.193,35.31,385.638L35.31,385.638z"/>
	</g>
	<circle style="fill:#A4C2F7;" cx="256" cy="256" r="247.172"/>
	<ellipse style="fill:#E3E7F2;" cx="256" cy="256" rx="220.69" ry="247.172"/>
	<path style="fill:#FFFFFF;" d="M35.31,256C35.31,119.492,134.116,8.828,256,8.828C119.49,8.828,8.828,119.491,8.828,256
		S119.49,503.173,256,503.173C134.116,503.173,35.31,392.509,35.31,256z"/>
	<path style="fill:#7FACFA;" d="M493.195,186.496l-114.467,31.218c7.431,23.808,7.731,49.27,0.863,73.246l114.325,32.011
		C506.499,278.314,506.249,231.016,493.195,186.496L493.195,186.496z"/>
	<path style="fill:#A4C2F7;" d="M467.571,186.496l-87.985,31.218c7.431,23.808,7.731,49.27,0.863,73.246l87.842,32.011
		C480.875,278.314,480.625,231.016,467.571,186.496L467.571,186.496z"/>
	<path style="fill:#7FACFA;" d="M256,8.828c-23.104,0.003-46.094,3.246-68.297,9.634l30.849,113.114
		c23.808-7.431,49.27-7.73,73.246-0.862l31.509-112.532C301.408,11.979,278.759,8.832,256,8.828L256,8.828z"/>
	<path style="fill:#A4C2F7;" d="M232.832,8.828c-23.703,0-21.29,3.405-42.991,9.634l30.849,113.114
		c12.093-3.769-0.354-5.802,12.98-5.802c11.825,0.029,23.589,1.691,34.959,4.94l31.509-112.532
		C278.24,11.979,255.591,8.832,232.832,8.828z"/>
	<path style="fill:#7FACFA;" d="M292.59,377.89c-23.808,7.431-49.27,7.73-73.246,0.862l-32.011,114.325
		c44.656,12.582,91.953,12.333,136.474-0.72L292.59,377.89z"/>
	<path style="fill:#A4C2F7;" d="M268.92,377.89c-12.396,3.857-25.305,5.814-38.287,5.802c-12.134,0,1.946-1.797-9.183-4.94
		l-36.071,114.325c45.49,12.778,47.81,9.256,45.254,9.256c23.525,0,46.929-3.359,69.504-9.976L268.92,377.89z"/>
	<path style="fill:#7FACFA;" d="M132.414,291.752c-7.431-23.808-7.731-49.27-0.863-73.246L18.689,186.905
		c-12.365,42.514-13.115,87.564-2.172,130.466c0.066,0.248,0.124,0.496,0.19,0.744c0.42,1.621,0.917,3.211,1.369,4.821
		L132.414,291.752z"/>
	<path style="fill:#FFFFFF;" d="M105.931,291.752c-7.431-23.808-7.731-49.27-0.863-73.246l-86.38-31.601
		c-12.365,42.514-13.115,87.564-2.172,130.466c0.066,0.248,0.124,0.496,0.19,0.744c0.42,1.621,0.917,3.211,1.369,4.821
		L105.931,291.752z"/>
	<path style="fill:#A4C2F7;" d="M105.931,291.752c-7.431-23.808-7.731-49.27-0.863-73.246l-59.897-31.601
		C32.806,229.419,32.056,274.469,43,317.371c0.066,0.248,0.124,0.496,0.19,0.744c0.42,1.621,0.917,3.211,1.369,4.821
		L105.931,291.752z"/>
	<g>
		<path style="fill:#428DFF;" d="M256,512C114.615,512,0,397.385,0,256S114.615,0,256,0s256,114.615,256,256
			C511.839,397.318,397.318,511.839,256,512z M256,17.655C124.366,17.655,17.655,124.366,17.655,256S124.366,494.345,256,494.345
			S494.345,387.634,494.345,256C494.195,124.428,387.572,17.805,256,17.655z"/>
		<path style="fill:#428DFF;" d="M256,393.354c-75.858-0.002-137.351-61.499-137.349-137.356
			c0.002-75.858,61.497-137.351,137.355-137.351c75.858,0.001,137.352,61.496,137.352,137.353
			C393.27,331.824,331.824,393.268,256,393.354z M256,136.302c-66.107,0.002-119.696,53.594-119.694,119.701
			c0.002,66.107,53.593,119.696,119.7,119.695c66.107-0.001,119.697-53.591,119.697-119.698
			C375.626,189.923,322.078,136.376,256,136.302z"/>
		<path style="fill:#428DFF;" d="M493.918,331.793c-0.806,0.001-1.608-0.11-2.383-0.328l-114.323-32.009
			c-2.257-0.632-4.171-2.136-5.318-4.18c-1.147-2.044-1.435-4.461-0.798-6.717c6.403-22.328,6.128-46.042-0.793-68.216
			c-0.713-2.288-0.466-4.767,0.685-6.869s3.107-3.646,5.419-4.277l114.466-31.215c4.645-1.287,9.46,1.404,10.797,6.034
			c13.518,46.107,13.776,95.089,0.746,141.336C501.344,329.161,497.873,331.792,493.918,331.793z M390.229,284.767l97.418,27.276
			c9.143-37.716,8.923-77.096-0.642-114.707l-97.422,26.569c2.514,10.513,3.781,21.285,3.776,32.095
			C393.342,265.673,392.293,275.317,390.229,284.767L390.229,284.767z"/>
		<path style="fill:#428DFF;" d="M218.552,140.405c-3.982,0-7.471-2.667-8.517-6.509L179.185,20.785
			c-1.271-4.658,1.44-9.473,6.082-10.802C231.143-3.16,279.773-3.262,325.703,9.69c4.686,1.318,7.418,6.184,6.103,10.871
			l-31.509,112.534c-0.631,2.258-2.136,4.172-4.182,5.319c-2.045,1.147-4.463,1.432-6.719,0.793
			c-22.335-6.362-46.04-6.084-68.22,0.802C220.327,140.273,219.442,140.406,218.552,140.405z M198.552,24.698l26.19,96.026
			c19.981-4.794,40.787-5.015,60.866-0.647l26.78-95.638C274.977,15.348,235.921,15.437,198.552,24.698L198.552,24.698z"/>
		<path style="fill:#428DFF;" d="M254.302,511.164c-23.449-0.011-46.785-3.236-69.358-9.586c-4.69-1.319-7.425-6.188-6.112-10.879
			l32.013-114.328c0.631-2.258,2.136-4.172,4.181-5.319c2.045-1.147,4.463-1.432,6.719-0.793c22.334,6.371,46.041,6.092,68.22-0.802
			c2.288-0.711,4.768-0.462,6.869,0.691c2.101,1.152,3.644,3.109,4.274,5.421l31.216,114.474c1.263,4.642-1.422,9.441-6.039,10.793
			C302.903,507.681,278.665,511.158,254.302,511.164L254.302,511.164z M198.254,486.81c37.723,9.105,77.096,8.887,114.715-0.638
			l-26.569-97.431c-19.981,4.799-40.788,5.02-60.866,0.647L198.254,486.81z"/>
		<path style="fill:#428DFF;" d="M18.073,331.759c-3.95-0.003-7.418-2.629-8.491-6.431l-0.474-1.629
			c-0.328-1.121-0.655-2.25-0.948-3.379c-11.537-44.655-10.828-91.593,2.052-135.879c1.346-4.654,6.195-7.349,10.858-6.034
			l112.862,31.603c2.257,0.632,4.171,2.136,5.318,4.18s1.435,4.461,0.798,6.717c-6.403,22.328-6.128,46.042,0.793,68.216
			c0.713,2.288,0.466,4.767-0.685,6.869c-1.151,2.102-3.107,3.646-5.419,4.277L20.401,331.448
			C19.642,331.657,18.859,331.761,18.073,331.759L18.073,331.759z M24.879,197.802c-9.433,37.487-9.631,76.704-0.578,114.284
			l97.259-26.526c-2.514-10.513-3.781-21.285-3.776-32.095c0.016-9.673,1.065-19.317,3.129-28.767L24.879,197.802z"/>
	</g>
</g>
<g>
</g>
<g>
</g>
<g>
</g>
<g>
</g>
<g>
</g>
<g>
</g>
<g>
</g>
<g>
</g>
<g>
</g>
<g>
</g>
<g>
</g>
<g>
</g>
<g>
</g>
<g>
</g>
<g>
</g>
</svg>
