<?xml version="1.0" encoding="iso-8859-1"?>
<!-- Generator: Adobe Illustrator 19.0.0, SVG Export Plug-In . SVG Version: 6.00 Build 0)  -->
<svg version="1.1" id="Capa_1" xmlns="http://www.w3.org/2000/svg" xmlns:xlink="http://www.w3.org/1999/xlink" x="0px" y="0px"
	 viewBox="0 0 512 512" style="enable-background:new 0 0 512 512;" xml:space="preserve">
<g>
	<path style="fill:#FFFFFF;" d="M332.8,358.4H230.4C173.846,358.4,128,312.554,128,256l0,0c0-56.554,45.846-102.4,102.4-102.4
		h93.867V34.133H230.4C107.866,34.133,8.533,133.466,8.533,256l0,0c0,122.534,99.333,221.867,221.867,221.867h102.4V358.4z"/>
	<g>
		<rect x="230.4" y="358.4" style="fill:#7FACFA;" width="273.067" height="119.467"/>
		<rect x="230.4" y="34.133" style="fill:#7FACFA;" width="273.067" height="119.467"/>
	</g>
	
		<linearGradient id="SVGID_1_" gradientUnits="userSpaceOnUse" x1="-48.6699" y1="652.6135" x2="-47.8163" y2="651.76" gradientTransform="matrix(443.7334 0 0 -443.7334 21728.0684 289653.0313)">
		<stop  offset="0" style="stop-color:#D4E1F4"/>
		<stop  offset="0.1717" style="stop-color:#D4E1F4"/>
		<stop  offset="0.2" style="stop-color:#D4E1F4"/>
		<stop  offset="0.2001" style="stop-color:#DAE4F4"/>
		<stop  offset="0.2007" style="stop-color:#EBEBF4"/>
		<stop  offset="0.2014" style="stop-color:#F6F1F4"/>
		<stop  offset="0.2023" style="stop-color:#FDF4F4"/>
		<stop  offset="0.205" style="stop-color:#FFF5F4"/>
		<stop  offset="0.2522" style="stop-color:#FFF5F4"/>
		<stop  offset="0.26" style="stop-color:#FFF5F4"/>
		<stop  offset="0.26" style="stop-color:#D4E1F4"/>
		<stop  offset="0.3974" style="stop-color:#D4E1F4"/>
		<stop  offset="0.42" style="stop-color:#D4E1F4"/>
		<stop  offset="0.4201" style="stop-color:#DAE4F4"/>
		<stop  offset="0.4207" style="stop-color:#EBEBF4"/>
		<stop  offset="0.4214" style="stop-color:#F6F1F4"/>
		<stop  offset="0.4223" style="stop-color:#FDF4F4"/>
		<stop  offset="0.425" style="stop-color:#FFF5F4"/>
		<stop  offset="0.4894" style="stop-color:#FFF5F4"/>
		<stop  offset="0.5" style="stop-color:#FFF5F4"/>
		<stop  offset="0.5" style="stop-color:#F9F2F4"/>
		<stop  offset="0.5001" style="stop-color:#E8EBF4"/>
		<stop  offset="0.5003" style="stop-color:#DDE5F4"/>
		<stop  offset="0.5005" style="stop-color:#D6E2F4"/>
		<stop  offset="0.501" style="stop-color:#D4E1F4"/>
		<stop  offset="0.7062" style="stop-color:#D4E1F4"/>
		<stop  offset="0.74" style="stop-color:#D4E1F4"/>
		<stop  offset="0.741" style="stop-color:#FFF5F4"/>
		<stop  offset="0.8346" style="stop-color:#FFF5F4"/>
		<stop  offset="0.85" style="stop-color:#FFF5F4"/>
		<stop  offset="0.851" style="stop-color:#D4E1F4"/>
	</linearGradient>
	<path style="fill:url(#SVGID_1_);" d="M477.867,358.4H230.4C173.846,358.4,128,312.554,128,256l0,0
		c0-56.554,45.846-102.4,102.4-102.4h247.467V34.133H256C133.466,34.133,34.133,133.466,34.133,256l0,0
		c0,122.534,99.333,221.867,221.867,221.867h221.867V358.4z"/>
	<g>
		<rect x="392.533" y="34.133" style="fill:#A4C2F7;" width="85.333" height="119.467"/>
		<rect x="392.533" y="358.4" style="fill:#A4C2F7;" width="85.333" height="119.467"/>
	</g>
	<g>
		<rect x="358.4" y="34.133" style="fill:#E3E7F2;" width="34.133" height="119.467"/>
		<rect x="358.4" y="358.4" style="fill:#E3E7F2;" width="34.133" height="119.467"/>
	</g>
	<g>
		<path style="fill:#428DFF;" d="M503.467,486.4H230.4C103.154,486.4,0,383.246,0,256S103.154,25.6,230.4,25.6h273.067
			c2.263-0.001,4.434,0.898,6.035,2.499c1.6,1.6,2.499,3.771,2.499,6.035V153.6c0.001,2.263-0.898,4.434-2.499,6.035
			c-1.6,1.6-3.771,2.499-6.035,2.499H230.4c-51.841,0-93.867,42.026-93.867,93.867s42.026,93.867,93.867,93.867h273.067
			c2.263-0.001,4.434,0.898,6.035,2.499c1.6,1.6,2.499,3.771,2.499,6.035v119.467c0.001,2.263-0.898,4.434-2.499,6.035
			C507.901,485.502,505.73,486.401,503.467,486.4z M230.4,42.667C112.579,42.667,17.067,138.179,17.067,256
			S112.579,469.333,230.4,469.333h264.533v-102.4H230.4c-61.267,0-110.933-49.667-110.933-110.933S169.133,145.067,230.4,145.067
			h264.533v-102.4H230.4z"/>
		<path style="fill:#428DFF;" d="M392.533,162.133H358.4c-2.263,0.001-4.434-0.898-6.035-2.499c-1.6-1.6-2.499-3.771-2.499-6.035
			V34.133c-0.001-2.263,0.898-4.434,2.499-6.035c1.6-1.6,3.771-2.499,6.035-2.499h34.133c2.263-0.001,4.434,0.898,6.035,2.499
			c1.6,1.6,2.499,3.771,2.499,6.035V153.6c0.001,2.263-0.898,4.434-2.499,6.035C396.968,161.235,394.797,162.134,392.533,162.133z
			 M366.933,145.067H384v-102.4h-17.067V145.067z"/>
		<path style="fill:#428DFF;" d="M392.533,486.4H358.4c-2.263,0.001-4.434-0.898-6.035-2.499c-1.6-1.6-2.499-3.771-2.499-6.035
			V358.4c-0.001-2.263,0.898-4.434,2.499-6.035c1.6-1.6,3.771-2.499,6.035-2.499h34.133c2.263-0.001,4.434,0.898,6.035,2.499
			c1.6,1.6,2.499,3.771,2.499,6.035v119.467c0.001,2.263-0.898,4.434-2.499,6.035C396.968,485.502,394.797,486.401,392.533,486.4z
			 M366.933,469.333H384v-102.4h-17.067V469.333z"/>
	</g>
</g>
<g>
</g>
<g>
</g>
<g>
</g>
<g>
</g>
<g>
</g>
<g>
</g>
<g>
</g>
<g>
</g>
<g>
</g>
<g>
</g>
<g>
</g>
<g>
</g>
<g>
</g>
<g>
</g>
<g>
</g>
</svg>
