<?xml version="1.0" encoding="iso-8859-1"?>
<!-- Generator: Adobe Illustrator 19.0.0, SVG Export Plug-In . SVG Version: 6.00 Build 0)  -->
<svg version="1.1" id="Capa_1" xmlns="http://www.w3.org/2000/svg" xmlns:xlink="http://www.w3.org/1999/xlink" x="0px" y="0px"
	 viewBox="0 0 512 512" style="enable-background:new 0 0 512 512;" xml:space="preserve">
<g>
	<g>
		<rect x="230.4" y="358.4" style="fill:#7FACFA;" width="170.667" height="119.467"/>
		<rect x="230.4" y="34.133" style="fill:#7FACFA;" width="170.667" height="119.467"/>
	</g>
	<path style="fill:#FFFFFF;" d="M332.8,358.4H230.4C173.846,358.4,128,312.554,128,256l0,0c0-56.554,45.846-102.4,102.4-102.4
		h93.867V34.133H230.4C107.866,34.133,8.533,133.466,8.533,256l0,0c0,122.534,99.333,221.867,221.867,221.867h102.4V358.4z"/>
	
		<linearGradient id="SVGID_1_" gradientUnits="userSpaceOnUse" x1="-48.6459" y1="652.5558" x2="-47.6863" y2="651.8177" gradientTransform="matrix(341.3333 0 0 -443.7334 16710.4668 289653.0313)">
		<stop  offset="0" style="stop-color:#D4E1F4"/>
		<stop  offset="0.1717" style="stop-color:#D4E1F4"/>
		<stop  offset="0.2" style="stop-color:#D4E1F4"/>
		<stop  offset="0.2001" style="stop-color:#DAE4F4"/>
		<stop  offset="0.2007" style="stop-color:#EBEBF4"/>
		<stop  offset="0.2014" style="stop-color:#F6F1F4"/>
		<stop  offset="0.2023" style="stop-color:#FDF4F4"/>
		<stop  offset="0.205" style="stop-color:#FFF5F4"/>
		<stop  offset="0.2522" style="stop-color:#FFF5F4"/>
		<stop  offset="0.26" style="stop-color:#FFF5F4"/>
		<stop  offset="0.26" style="stop-color:#D4E1F4"/>
		<stop  offset="0.3974" style="stop-color:#D4E1F4"/>
		<stop  offset="0.42" style="stop-color:#D4E1F4"/>
		<stop  offset="0.4201" style="stop-color:#DAE4F4"/>
		<stop  offset="0.4207" style="stop-color:#EBEBF4"/>
		<stop  offset="0.4214" style="stop-color:#F6F1F4"/>
		<stop  offset="0.4223" style="stop-color:#FDF4F4"/>
		<stop  offset="0.425" style="stop-color:#FFF5F4"/>
		<stop  offset="0.4894" style="stop-color:#FFF5F4"/>
		<stop  offset="0.5" style="stop-color:#FFF5F4"/>
		<stop  offset="0.5" style="stop-color:#F9F2F4"/>
		<stop  offset="0.5001" style="stop-color:#E8EBF4"/>
		<stop  offset="0.5003" style="stop-color:#DDE5F4"/>
		<stop  offset="0.5005" style="stop-color:#D6E2F4"/>
		<stop  offset="0.501" style="stop-color:#D4E1F4"/>
		<stop  offset="0.7062" style="stop-color:#D4E1F4"/>
		<stop  offset="0.74" style="stop-color:#D4E1F4"/>
		<stop  offset="0.741" style="stop-color:#FFF5F4"/>
		<stop  offset="0.8346" style="stop-color:#FFF5F4"/>
		<stop  offset="0.85" style="stop-color:#FFF5F4"/>
		<stop  offset="0.851" style="stop-color:#D4E1F4"/>
	</linearGradient>
	<path style="fill:url(#SVGID_1_);" d="M375.467,358.4H230.4C173.846,358.4,128,312.554,128,256l0,0
		c0-56.554,45.846-102.4,102.4-102.4h145.067V34.133H256C133.466,34.133,34.133,133.466,34.133,256l0,0
		c0,122.534,99.333,221.867,221.867,221.867h119.467V358.4z"/>
	<g>
		<rect x="324.267" y="34.133" style="fill:#A4C2F7;" width="51.2" height="119.467"/>
		<rect x="324.267" y="358.4" style="fill:#A4C2F7;" width="51.2" height="119.467"/>
	</g>
	<g>
		<path style="fill:#428DFF;" d="M401.067,486.4H230.4C103.154,486.4,0,383.246,0,256S103.154,25.6,230.4,25.6h170.667
			c2.263-0.001,4.434,0.898,6.035,2.499c1.6,1.6,2.499,3.771,2.499,6.035V153.6c0.001,2.263-0.898,4.434-2.499,6.035
			c-1.6,1.6-3.771,2.499-6.035,2.499H230.4c-51.841,0-93.867,42.026-93.867,93.867s42.026,93.867,93.867,93.867h170.667
			c2.263-0.001,4.434,0.898,6.035,2.499c1.6,1.6,2.499,3.771,2.499,6.035v119.467c0.001,2.263-0.898,4.434-2.499,6.035
			C405.501,485.502,403.33,486.401,401.067,486.4z M230.4,42.667C112.579,42.667,17.067,138.179,17.067,256
			S112.579,469.333,230.4,469.333h162.133v-102.4H230.4c-61.267,0-110.933-49.667-110.933-110.933S169.133,145.067,230.4,145.067
			h162.133v-102.4H230.4z"/>
		<path style="fill:#428DFF;" d="M324.267,162.133c-2.263,0.001-4.434-0.898-6.035-2.499c-1.6-1.6-2.499-3.771-2.499-6.035V34.133
			c0-4.713,3.821-8.533,8.533-8.533s8.533,3.821,8.533,8.533V153.6c0.001,2.263-0.898,4.434-2.499,6.035
			C328.701,161.235,326.53,162.134,324.267,162.133z"/>
		<path style="fill:#428DFF;" d="M324.267,486.4c-2.263,0.001-4.434-0.898-6.035-2.499c-1.6-1.6-2.499-3.771-2.499-6.035V358.4
			c0-4.713,3.821-8.533,8.533-8.533s8.533,3.82,8.533,8.533v119.467c0.001,2.263-0.898,4.434-2.499,6.035
			C328.701,485.502,326.53,486.401,324.267,486.4z"/>
		<path style="fill:#428DFF;" d="M469.333,68.267H460.8c-4.713,0-8.533-3.821-8.533-8.533s3.82-8.533,8.533-8.533h8.533
			c4.713,0,8.533,3.821,8.533,8.533S474.046,68.267,469.333,68.267z"/>
		<path style="fill:#428DFF;" d="M435.2,68.267h-8.533c-4.713,0-8.533-3.821-8.533-8.533s3.82-8.533,8.533-8.533h8.533
			c4.713,0,8.533,3.821,8.533,8.533S439.913,68.267,435.2,68.267z"/>
		<path style="fill:#428DFF;" d="M503.467,68.267h-8.533c-4.713,0-8.533-3.821-8.533-8.533s3.82-8.533,8.533-8.533h8.533
			c4.713,0,8.533,3.821,8.533,8.533S508.18,68.267,503.467,68.267z"/>
		<path style="fill:#428DFF;" d="M469.333,136.533H460.8c-4.713,0-8.533-3.821-8.533-8.533c0-4.713,3.82-8.533,8.533-8.533h8.533
			c4.713,0,8.533,3.821,8.533,8.533C477.867,132.713,474.046,136.533,469.333,136.533z"/>
		<path style="fill:#428DFF;" d="M435.2,136.533h-8.533c-4.713,0-8.533-3.821-8.533-8.533c0-4.713,3.82-8.533,8.533-8.533h8.533
			c4.713,0,8.533,3.821,8.533,8.533C443.733,132.713,439.913,136.533,435.2,136.533z"/>
		<path style="fill:#428DFF;" d="M503.467,136.533h-8.533c-4.713,0-8.533-3.821-8.533-8.533c0-4.713,3.82-8.533,8.533-8.533h8.533
			c4.713,0,8.533,3.821,8.533,8.533C512,132.713,508.18,136.533,503.467,136.533z"/>
		<path style="fill:#428DFF;" d="M452.267,102.4h-8.533c-4.713,0-8.533-3.821-8.533-8.533c0-4.713,3.821-8.533,8.533-8.533h8.533
			c4.713,0,8.533,3.821,8.533,8.533C460.8,98.58,456.98,102.4,452.267,102.4z"/>
		<path style="fill:#428DFF;" d="M486.4,102.4h-8.533c-4.713,0-8.533-3.821-8.533-8.533c0-4.713,3.821-8.533,8.533-8.533h8.533
			c4.713,0,8.533,3.821,8.533,8.533C494.933,98.58,491.113,102.4,486.4,102.4z"/>
		<path style="fill:#428DFF;" d="M469.333,401.067H460.8c-4.713,0-8.533-3.82-8.533-8.533S456.087,384,460.8,384h8.533
			c4.713,0,8.533,3.82,8.533,8.533S474.046,401.067,469.333,401.067z"/>
		<path style="fill:#428DFF;" d="M435.2,401.067h-8.533c-4.713,0-8.533-3.82-8.533-8.533s3.82-8.533,8.533-8.533h8.533
			c4.713,0,8.533,3.82,8.533,8.533S439.913,401.067,435.2,401.067z"/>
		<path style="fill:#428DFF;" d="M503.467,401.067h-8.533c-4.713,0-8.533-3.82-8.533-8.533s3.82-8.533,8.533-8.533h8.533
			c4.713,0,8.533,3.82,8.533,8.533S508.18,401.067,503.467,401.067z"/>
		<path style="fill:#428DFF;" d="M469.333,469.333H460.8c-4.713,0-8.533-3.82-8.533-8.533s3.82-8.533,8.533-8.533h8.533
			c4.713,0,8.533,3.82,8.533,8.533S474.046,469.333,469.333,469.333z"/>
		<path style="fill:#428DFF;" d="M435.2,469.333h-8.533c-4.713,0-8.533-3.82-8.533-8.533s3.82-8.533,8.533-8.533h8.533
			c4.713,0,8.533,3.82,8.533,8.533S439.913,469.333,435.2,469.333z"/>
		<path style="fill:#428DFF;" d="M503.467,469.333h-8.533c-4.713,0-8.533-3.82-8.533-8.533s3.82-8.533,8.533-8.533h8.533
			c4.713,0,8.533,3.82,8.533,8.533S508.18,469.333,503.467,469.333z"/>
		<path style="fill:#428DFF;" d="M452.267,435.2h-8.533c-4.713,0-8.533-3.82-8.533-8.533s3.821-8.533,8.533-8.533h8.533
			c4.713,0,8.533,3.82,8.533,8.533S456.98,435.2,452.267,435.2z"/>
		<path style="fill:#428DFF;" d="M486.4,435.2h-8.533c-4.713,0-8.533-3.82-8.533-8.533s3.821-8.533,8.533-8.533h8.533
			c4.713,0,8.533,3.82,8.533,8.533S491.113,435.2,486.4,435.2z"/>
	</g>
</g>
<g>
</g>
<g>
</g>
<g>
</g>
<g>
</g>
<g>
</g>
<g>
</g>
<g>
</g>
<g>
</g>
<g>
</g>
<g>
</g>
<g>
</g>
<g>
</g>
<g>
</g>
<g>
</g>
<g>
</g>
</svg>
