<?xml version="1.0" encoding="iso-8859-1"?>
<!-- Generator: Adobe Illustrator 19.0.0, SVG Export Plug-In . SVG Version: 6.00 Build 0)  -->
<svg version="1.1" id="Capa_1" xmlns="http://www.w3.org/2000/svg" xmlns:xlink="http://www.w3.org/1999/xlink" x="0px" y="0px"
	 viewBox="0 0 504.033 504.033" style="enable-background:new 0 0 504.033 504.033;" xml:space="preserve">
<g>
	<path style="fill:#A4C2F7;" d="M445.33,252.929c-3.271,6.802-7.853,12.891-13.483,17.919
		c-10.724,9.671-19.526,21.281-25.941,34.219c-5.12,9.729-65.109,103.167-75.008,119.211
		c-23.552,42.154-72.619,71.254-129.536,71.254c-5.376,0-10.581-0.085-15.701-0.341c-25.296-0.091-50.211-6.174-72.704-17.75
		c-0.237-0.174-0.495-0.318-0.768-0.427c-30.635-17.919-50.261-51.029-54.272-108.971V136.533c-0.014-0.428,0.014-0.857,0.085-1.279
		c0.451-8.561,6.057-15.991,14.165-18.775c2.262-0.858,4.663-1.291,7.083-1.279h0.085c11.78,0.005,21.329,9.553,21.333,21.333V243.2
		c-0.013,0.147,0.016,0.296,0.085,0.427c0.209,6.978,5.987,12.493,12.968,12.376c6.98-0.117,12.571-5.822,12.547-12.803V72.533
		c-0.008-5.661,2.233-11.094,6.229-15.104l2.304-1.963c3.853-2.449,8.248-3.914,12.8-4.267c11.78,0.005,21.329,9.553,21.333,21.333
		v153.6l0.085,0.427c0.209,6.978,5.987,12.493,12.968,12.376s12.571-5.822,12.547-12.803v-192c-0.019-2.643,0.414-5.27,1.28-7.767
		c1.152-3.921,3.298-7.478,6.229-10.325c7.316-7.328,18.327-9.523,27.894-5.562s15.803,13.299,15.796,23.654v192l0.085,0.427
		c0.209,6.978,5.987,12.493,12.968,12.376s12.571-5.822,12.547-12.803V93.867c-0.027-2.49,0.347-4.967,1.109-7.337
		c1.153-4.084,3.36-7.793,6.4-10.754c1.562-1.548,3.311-2.895,5.205-4.011l12.885-3.498c6.792-0.009,13.309,2.685,18.112,7.488
		c4.803,4.803,7.497,11.32,7.488,18.112v188.929c0.171,5.033,0.085,8.958,0.085,12.031c0,7.594,0.683,9.642,6.741,9.556
		c9.113-0.38,17.351-5.536,21.675-13.567c10.373-18.77,24.911-34.913,42.496-47.189c6.902-4.602,14.472-8.114,22.443-10.411
		c5.662-1.787,11.556-2.736,17.493-2.817C448.999,230.315,446.268,251.221,445.33,252.929z"/>
	<path style="fill:#E3E7F2;" d="M419.815,252.929c-3.271,6.802-7.853,12.891-13.483,17.919
		c-10.724,9.671-19.526,21.281-25.941,34.219c-5.12,9.729-65.109,103.167-75.008,119.211
		c-25.319,42.391-70.38,69.081-119.723,70.912c-3.243,0.256-6.485,0.341-9.813,0.341c-22.258,0.08-44.077-6.196-62.891-18.091
		c-0.237-0.174-0.495-0.318-0.768-0.427c-27.051-18.004-50.176-51.029-54.187-108.971V135.254
		C57.746,124.075,55.1,115.2,66.45,115.2h0.085c1.961-0.125,3.917,0.319,5.632,1.279c4.949,2.902,2.987,10.752,2.987,20.054V243.2
		c0.001,6.987,5.604,12.684,12.59,12.8s12.776-5.39,13.01-12.373V140.459c1.115,0.9,2.433,1.515,3.84,1.792
		c1.877,33.963-0.341,68.693-0.341,102.4c0.177,4.962,4.251,8.892,9.216,8.892c4.965,0,9.039-3.931,9.216-8.892
		c0-45.567,3.413-92.158-3.328-137.3c2.303-13.321,2.39-26.93,0.256-40.279c3.721-4.748,7.68-9.304,11.861-13.653
		c1.169,0.581,2.283,1.267,3.328,2.048c5.42,3.998,8.619,10.332,8.619,17.067v153.6c0.001,6.987,5.604,12.684,12.59,12.8
		c6.986,0.116,12.776-5.39,13.01-12.373v-8.533c0.852,0.301,1.743,0.473,2.645,0.51c0,1.623,0.085,3.158,0.085,4.779
		c0.197,4.971,4.284,8.899,9.259,8.899c4.975,0,9.062-3.928,9.259-8.899c-0.392-25.696-2.358-51.344-5.888-76.8
		c3.958-1.805,6.227-6.028,5.547-10.325c-3.755-25.259,3.925-50.431,3.925-75.775c0.075-3.91-2.533-7.365-6.315-8.363
		c0.823-7.248,2.573-14.36,5.205-21.163c0.379-0.925,0.609-1.904,0.683-2.901c0.768-0.513,1.536-1.11,2.389-1.623
		c2.987-2.133,5.973-4.179,9.045-6.312c2.416-1.573,3.937-4.204,4.096-7.083c7.048,4.736,11.272,12.672,11.264,21.163v192
		c0.001,6.987,5.604,12.684,12.59,12.8c6.986,0.116,12.776-5.39,13.01-12.373V104.533c2.069,0.42,4.218,0.181,6.144-0.683
		c-1.968,12.463-3.222,25.028-3.755,37.633c-0.683,27.307,0.256,54.527,0.341,81.833c0.197,4.971,4.284,8.899,9.259,8.899
		c4.975,0,9.062-3.928,9.259-8.899c-0.171-27.307-1.109-54.527-0.427-81.833c0.341-15.104,2.901-29.952,4.693-44.8
		c0.427-3.415,0.853-6.741,1.109-10.154c0.256-2.221,0.427-4.354,0.597-6.571c0.957-0.407,1.849-0.954,2.645-1.623
		c2.645-2.219,5.205-4.606,7.765-6.91c0.171,0.083,0.427,0.254,0.597,0.34c8,4.482,12.958,12.932,12.971,22.102v188.929
		c0.512,17.577-1.707,21.758,6.827,21.587c7.372-0.219,14.258-3.725,18.773-9.556c0,7.594,0.683,9.642,6.741,9.556
		c9.113-0.38,17.351-5.536,21.675-13.567c10.373-18.77,24.911-34.913,42.496-47.189c6.902-4.602,14.472-8.114,22.443-10.411
		C420.271,238.824,421.692,246.12,419.815,252.929z"/>
	<path style="fill:#428DFF;" d="M201.36,504.033c-70.508,0-143.7-16.092-151.958-135.417l-0.017-232.083
		c0.028-16.498,13.41-29.858,29.908-29.858s29.88,13.36,29.908,29.858V243.2c0,2.356,1.91,4.267,4.267,4.267s4.267-1.91,4.267-4.267
		V72.533c0-16.495,13.372-29.867,29.867-29.867s29.867,13.372,29.867,29.867v153.6c0,2.356,1.91,4.267,4.267,4.267
		s4.267-1.91,4.267-4.267v-192C186.002,15.282,201.284,0,220.135,0s34.133,15.282,34.133,34.133v192c0,2.356,1.91,4.267,4.267,4.267
		c2.356,0,4.267-1.91,4.267-4.267V93.867c0-18.851,15.282-34.133,34.133-34.133s34.133,15.282,34.133,34.133v188.892
		c0.108,3.467,0.1,6.608,0.1,9.242c0,1.233-0.009,2.542,0.009,3.683c5.288-1.015,9.844-4.345,12.417-9.075
		c11.035-19.91,26.486-37.025,45.167-50.033c13.221-8.987,28.7-14.083,44.675-14.708h0.1c7.104-0.239,13.774,3.412,17.4,9.525
		c4.169,7.893,4.861,17.167,1.908,25.591c-3.791,7.804-9.093,14.778-15.6,20.517c-9.871,8.882-17.937,19.582-23.758,31.517
		c-3.3,6.267-25.658,41.483-52.35,83.417c-10.675,16.767-19.683,30.925-23.008,36.3C312.252,475.05,259.777,504.033,201.36,504.033z
		 M79.335,123.733c-3.407-0.014-6.679,1.328-9.096,3.729c-2.417,2.401-3.779,5.664-3.788,9.071v231.492
		c5.858,84.308,44.95,118.942,134.908,118.942c52.242,0,99.008-25.633,122.058-66.883c3.541-5.742,12.592-19.958,23.325-36.817
		c19.275-30.283,48.4-76.05,51.65-82.217c6.845-13.979,16.376-26.472,28.05-36.767c4.551-4.122,8.266-9.082,10.942-14.608
		c0.598-3.358,0.123-6.819-1.358-9.892c-0.25-0.317-0.667-0.85-2.492-0.85h-0.033c-12.588,0.616-24.763,4.693-35.183,11.783
		c-16.524,11.539-30.177,26.718-39.908,44.367c-5.845,10.555-16.755,17.315-28.809,17.85c-4.112,0.328-8.186-0.997-11.317-3.683
		c-4.208-4.125-4.2-9.642-4.183-17.275c0-2.492,0.009-5.45-0.1-8.958V93.867c0-9.426-7.641-17.067-17.067-17.067
		s-17.067,7.641-17.067,17.067v132.267c0,11.782-9.551,21.333-21.333,21.333s-21.333-9.551-21.333-21.333v-192
		c0-9.426-7.641-17.067-17.067-17.067c-9.426,0-17.067,7.641-17.067,17.067v192c0,11.782-9.551,21.333-21.333,21.333
		c-11.782,0-21.333-9.551-21.333-21.333v-153.6c0-7.069-5.731-12.8-12.8-12.8c-7.069,0-12.8,5.731-12.8,12.8V243.2
		c0,11.782-9.551,21.333-21.333,21.333s-21.333-9.551-21.333-21.333V136.533C92.127,129.467,86.401,123.741,79.335,123.733z"/>
</g>
<g>
</g>
<g>
</g>
<g>
</g>
<g>
</g>
<g>
</g>
<g>
</g>
<g>
</g>
<g>
</g>
<g>
</g>
<g>
</g>
<g>
</g>
<g>
</g>
<g>
</g>
<g>
</g>
<g>
</g>
</svg>
