<?xml version="1.0" encoding="iso-8859-1"?>
<!-- Generator: Adobe Illustrator 19.0.0, SVG Export Plug-In . SVG Version: 6.00 Build 0)  -->
<svg version="1.1" id="Capa_1" xmlns="http://www.w3.org/2000/svg" xmlns:xlink="http://www.w3.org/1999/xlink" x="0px" y="0px"
	 viewBox="0 0 512 512" style="enable-background:new 0 0 512 512;" xml:space="preserve">
<g>
	<path style="fill:#A4C2F7;" d="M196.267,8.533h98.944c16.047,0,29.056,13.009,29.056,29.056v436.821
		c0,16.047-13.009,29.056-29.056,29.056h-98.944c-16.047,0-29.056-13.009-29.056-29.056V37.589
		C167.211,21.542,180.219,8.533,196.267,8.533z"/>
	<path style="fill:#FFFFFF;" d="M71.723,8.533h98.944c16.047,0,29.056,13.009,29.056,29.056v436.821
		c0,16.047-13.009,29.056-29.056,29.056H71.723c-16.047,0-29.056-13.009-29.056-29.056V37.589
		C42.667,21.542,55.675,8.533,71.723,8.533z"/>
	<path style="fill:#E3E7F2;" d="M97.323,8.533h163.755c16.047,0,29.056,13.009,29.056,29.056v436.821
		c0,16.047-13.009,29.056-29.056,29.056H97.323c-16.047,0-29.056-13.009-29.056-29.056V37.589
		C68.267,21.542,81.275,8.533,97.323,8.533z"/>
	
		<linearGradient id="SVGID_1_" gradientUnits="userSpaceOnUse" x1="-48.9137" y1="652.5052" x2="-47.6445" y2="651.6803" gradientTransform="matrix(221.8667 0 0 -341.3333 10890.7295 222811.4063)">
		<stop  offset="0" style="stop-color:#D4E1F4"/>
		<stop  offset="0.1717" style="stop-color:#D4E1F4"/>
		<stop  offset="0.2" style="stop-color:#D4E1F4"/>
		<stop  offset="0.2001" style="stop-color:#DAE4F4"/>
		<stop  offset="0.2007" style="stop-color:#EBEBF4"/>
		<stop  offset="0.2014" style="stop-color:#F6F1F4"/>
		<stop  offset="0.2023" style="stop-color:#FDF4F4"/>
		<stop  offset="0.205" style="stop-color:#FFF5F4"/>
		<stop  offset="0.2522" style="stop-color:#FFF5F4"/>
		<stop  offset="0.26" style="stop-color:#FFF5F4"/>
		<stop  offset="0.26" style="stop-color:#D4E1F4"/>
		<stop  offset="0.3974" style="stop-color:#D4E1F4"/>
		<stop  offset="0.42" style="stop-color:#D4E1F4"/>
		<stop  offset="0.4201" style="stop-color:#DAE4F4"/>
		<stop  offset="0.4207" style="stop-color:#EBEBF4"/>
		<stop  offset="0.4214" style="stop-color:#F6F1F4"/>
		<stop  offset="0.4223" style="stop-color:#FDF4F4"/>
		<stop  offset="0.425" style="stop-color:#FFF5F4"/>
		<stop  offset="0.4894" style="stop-color:#FFF5F4"/>
		<stop  offset="0.5" style="stop-color:#FFF5F4"/>
		<stop  offset="0.5" style="stop-color:#F9F2F4"/>
		<stop  offset="0.5001" style="stop-color:#E8EBF4"/>
		<stop  offset="0.5003" style="stop-color:#DDE5F4"/>
		<stop  offset="0.5005" style="stop-color:#D6E2F4"/>
		<stop  offset="0.501" style="stop-color:#D4E1F4"/>
		<stop  offset="0.7062" style="stop-color:#D4E1F4"/>
		<stop  offset="0.74" style="stop-color:#D4E1F4"/>
		<stop  offset="0.741" style="stop-color:#FFF5F4"/>
		<stop  offset="0.8346" style="stop-color:#FFF5F4"/>
		<stop  offset="0.85" style="stop-color:#FFF5F4"/>
		<stop  offset="0.851" style="stop-color:#D4E1F4"/>
	</linearGradient>
	<rect x="68.267" y="59.733" style="fill:url(#SVGID_1_);" width="221.867" height="341.333"/>
	<polygon style="fill:#7FACFA;" points="469.333,110.933 162.133,110.933 162.133,273.067 196.267,273.067 196.267,324.267 
		264.533,273.067 469.333,273.067 	"/>
	<g>
		<polygon style="fill:#A4C2F7;" points="443.733,110.933 162.133,110.933 162.133,273.067 196.267,273.067 196.267,324.267 
			264.533,273.067 443.733,273.067 		"/>
		<circle style="fill:#A4C2F7;" cx="179.2" cy="452.267" r="25.6"/>
	</g>
	<g>
		<path style="fill:#428DFF;" d="M170.667,486.4c-18.851,0-34.133-15.282-34.133-34.133c0-18.851,15.282-34.133,34.133-34.133
			s34.133,15.282,34.133,34.133C204.78,471.11,189.51,486.38,170.667,486.4L170.667,486.4z M170.667,435.2
			c-9.426,0-17.067,7.641-17.067,17.067s7.641,17.067,17.067,17.067c9.426,0,17.067-7.641,17.067-17.067
			C187.723,442.845,180.088,435.211,170.667,435.2L170.667,435.2z"/>
		<path style="fill:#428DFF;" d="M315.733,409.6H42.667c-4.713,0-8.533-3.821-8.533-8.533s3.821-8.533,8.533-8.533h273.067
			c4.713,0,8.533,3.82,8.533,8.533S320.446,409.6,315.733,409.6z"/>
		<path style="fill:#428DFF;" d="M315.733,68.267H42.667c-4.713,0-8.533-3.821-8.533-8.533s3.821-8.533,8.533-8.533h273.067
			c4.713,0,8.533,3.821,8.533,8.533S320.446,68.267,315.733,68.267z"/>
		<path style="fill:#428DFF;" d="M179.2,42.667h-34.133c-4.713,0-8.533-3.821-8.533-8.533s3.821-8.533,8.533-8.533H179.2
			c4.713,0,8.533,3.821,8.533,8.533S183.913,42.667,179.2,42.667z"/>
		<path style="fill:#428DFF;" d="M213.333,42.667H204.8c-4.713,0-8.533-3.821-8.533-8.533s3.821-8.533,8.533-8.533h8.533
			c4.713,0,8.533,3.821,8.533,8.533S218.046,42.667,213.333,42.667z"/>
		<path style="fill:#428DFF;" d="M196.267,332.8c-2.263,0.001-4.434-0.898-6.035-2.499c-1.6-1.6-2.499-3.771-2.499-6.035V281.6
			h-25.6c-2.263,0.001-4.434-0.898-6.035-2.499c-1.6-1.6-2.499-3.771-2.499-6.035V110.933c-0.001-2.263,0.898-4.434,2.499-6.035
			c1.6-1.6,3.771-2.499,6.035-2.499h307.2c2.263-0.001,4.434,0.898,6.035,2.499s2.499,3.771,2.499,6.035v162.133
			c0.001,2.263-0.898,4.434-2.499,6.035c-1.6,1.6-3.771,2.499-6.035,2.499H267.379l-65.992,49.492
			C199.911,332.202,198.114,332.801,196.267,332.8L196.267,332.8z M170.667,264.533h25.6c2.263-0.001,4.434,0.898,6.035,2.499
			c1.6,1.6,2.499,3.771,2.499,6.035V307.2l54.613-40.958c1.477-1.108,3.274-1.708,5.121-1.708H460.8V119.467H170.667V264.533z"/>
		<path style="fill:#428DFF;" d="M286.675,512H71.725c-20.751-0.024-37.567-16.84-37.592-37.592V37.592
			C34.158,16.84,50.974,0.024,71.725,0h214.95c20.751,0.024,37.567,16.84,37.592,37.592v73.342c0.001,2.263-0.898,4.434-2.499,6.035
			c-1.6,1.6-3.771,2.499-6.035,2.499H170.667v145.067h25.6c2.263-0.001,4.434,0.898,6.035,2.499c1.6,1.6,2.499,3.771,2.499,6.035
			V307.2l54.613-40.958c1.477-1.108,3.274-1.708,5.121-1.708h51.2c2.263-0.001,4.434,0.898,6.035,2.499s2.499,3.771,2.499,6.035
			v201.342C324.243,495.16,307.426,511.976,286.675,512z M71.725,17.067C60.395,17.08,51.213,26.262,51.2,37.592v436.817
			c0.013,11.33,9.195,20.512,20.525,20.525h214.95c11.33-0.013,20.512-9.195,20.525-20.525V281.6h-39.821l-65.992,49.492
			c-2.585,1.941-6.045,2.254-8.937,0.809s-4.718-4.401-4.717-7.634V281.6h-25.6c-2.263,0.001-4.434-0.898-6.035-2.499
			c-1.6-1.6-2.499-3.771-2.499-6.035V110.933c-0.001-2.263,0.898-4.434,2.499-6.035c1.6-1.6,3.771-2.499,6.035-2.499H307.2V37.592
			c-0.013-11.33-9.195-20.512-20.525-20.525H71.725z"/>
		<path style="fill:#428DFF;" d="M298.667,179.2h-85.333c-4.713,0-8.533-3.821-8.533-8.533c0-4.713,3.821-8.533,8.533-8.533h85.333
			c4.713,0,8.533,3.821,8.533,8.533C307.2,175.38,303.38,179.2,298.667,179.2z"/>
		<path style="fill:#428DFF;" d="M418.133,221.867h-204.8c-4.713,0-8.533-3.821-8.533-8.533s3.821-8.533,8.533-8.533h204.8
			c4.713,0,8.533,3.82,8.533,8.533S422.846,221.867,418.133,221.867z"/>
	</g>
</g>
<g>
</g>
<g>
</g>
<g>
</g>
<g>
</g>
<g>
</g>
<g>
</g>
<g>
</g>
<g>
</g>
<g>
</g>
<g>
</g>
<g>
</g>
<g>
</g>
<g>
</g>
<g>
</g>
<g>
</g>
</svg>
