<?xml version="1.0" encoding="iso-8859-1"?>
<!-- Generator: Adobe Illustrator 19.0.0, SVG Export Plug-In . SVG Version: 6.00 Build 0)  -->
<svg version="1.1" id="Capa_1" xmlns="http://www.w3.org/2000/svg" xmlns:xlink="http://www.w3.org/1999/xlink" x="0px" y="0px"
	 viewBox="0 0 512 512" style="enable-background:new 0 0 512 512;" xml:space="preserve">
<g>
	<g>
		<rect x="51.2" y="98.133" style="fill:#A4C2F7;" width="68.267" height="25.6"/>
		<rect x="392.533" y="98.133" style="fill:#A4C2F7;" width="68.267" height="25.6"/>
	</g>
	<path style="fill:#FFFFFF;" d="M25.685,123.733h187.648c9.473,0,17.152,7.679,17.152,17.152v307.029
		c0,9.473-7.679,17.152-17.152,17.152H25.685c-9.473,0-17.152-7.679-17.152-17.152V140.885
		C8.533,131.413,16.213,123.733,25.685,123.733z"/>
	<path style="fill:#A4C2F7;" d="M298.667,123.733h187.648c9.473,0,17.152,7.679,17.152,17.152v307.029
		c0,9.473-7.679,17.152-17.152,17.152H298.667c-9.473,0-17.152-7.679-17.152-17.152V140.885
		C281.515,131.413,289.194,123.733,298.667,123.733z"/>
	<path style="fill:#E3E7F2;" d="M51.285,123.733h409.429c9.473,0,17.152,7.679,17.152,17.152v307.029
		c0,9.473-7.679,17.152-17.152,17.152H51.285c-9.473,0-17.152-7.679-17.152-17.152V140.885
		C34.133,131.413,41.813,123.733,51.285,123.733z"/>
	<g>
		<path style="fill:#428DFF;" d="M486.317,473.6H25.683C11.507,473.582,0.019,462.094,0,447.917V140.883
			c0.019-14.177,11.507-25.665,25.683-25.683h460.633c14.177,0.019,25.665,11.507,25.683,25.683v307.033
			C511.982,462.094,500.494,473.582,486.317,473.6z M25.683,132.267c-4.756,0.006-8.61,3.86-8.617,8.617v307.033
			c0.006,4.756,3.86,8.61,8.617,8.617h460.633c4.756-0.006,8.611-3.86,8.617-8.617V140.883c-0.006-4.756-3.86-8.61-8.617-8.617
			H25.683z"/>
		<path style="fill:#428DFF;" d="M341.333,132.267H170.667c-2.264,0.001-4.435-0.897-6.035-2.498
			c-1.601-1.601-2.499-3.772-2.498-6.035V65.758c0.019-15.102,12.256-27.34,27.358-27.358h133.017
			c15.102,0.019,27.339,12.257,27.358,27.358v57.975c0.001,2.264-0.897,4.435-2.498,6.035
			C345.768,131.369,343.597,132.268,341.333,132.267L341.333,132.267z M179.2,115.2h153.6V65.758
			c-0.006-5.681-4.61-10.285-10.291-10.292H189.492c-5.681,0.006-10.285,4.61-10.292,10.292V115.2z"/>
		<path style="fill:#428DFF;" d="M76.8,473.6c-2.264,0.001-4.435-0.897-6.035-2.498c-1.601-1.601-2.499-3.772-2.498-6.035V123.733
			c0-4.713,3.821-8.533,8.533-8.533c4.713,0,8.533,3.821,8.533,8.533v341.333c0.001,2.264-0.897,4.435-2.498,6.035
			C81.235,472.703,79.064,473.601,76.8,473.6z"/>
		<path style="fill:#428DFF;" d="M435.2,473.6c-2.264,0.001-4.435-0.897-6.035-2.498c-1.601-1.601-2.499-3.772-2.498-6.035V123.733
			c0-4.713,3.82-8.533,8.533-8.533s8.533,3.821,8.533,8.533v341.333c0.001,2.264-0.897,4.435-2.498,6.035
			C439.635,472.703,437.464,473.601,435.2,473.6z"/>
		<path style="fill:#428DFF;" d="M119.467,132.267H51.2c-2.264,0.001-4.435-0.897-6.035-2.498c-1.601-1.601-2.499-3.772-2.498-6.035
			v-25.6c-0.001-2.264,0.897-4.435,2.498-6.035c1.601-1.601,3.772-2.499,6.035-2.498h68.267c2.264-0.001,4.435,0.897,6.035,2.498
			c1.601,1.601,2.499,3.772,2.498,6.035v25.6c0.001,2.264-0.897,4.435-2.498,6.035C123.901,131.369,121.73,132.268,119.467,132.267
			L119.467,132.267z M59.733,115.2h51.2v-8.533h-51.2V115.2z"/>
		<path style="fill:#428DFF;" d="M460.8,132.267h-68.267c-2.264,0.001-4.435-0.897-6.035-2.498
			c-1.601-1.601-2.499-3.772-2.498-6.035v-25.6c-0.001-2.264,0.897-4.435,2.498-6.035c1.601-1.601,3.772-2.499,6.035-2.498H460.8
			c2.264-0.001,4.435,0.897,6.035,2.498c1.601,1.601,2.499,3.772,2.498,6.035v25.6c0.001,2.264-0.897,4.435-2.498,6.035
			C465.235,131.369,463.064,132.268,460.8,132.267L460.8,132.267z M401.067,115.2h51.2v-8.533h-51.2V115.2z"/>
	</g>
</g>
<g>
</g>
<g>
</g>
<g>
</g>
<g>
</g>
<g>
</g>
<g>
</g>
<g>
</g>
<g>
</g>
<g>
</g>
<g>
</g>
<g>
</g>
<g>
</g>
<g>
</g>
<g>
</g>
<g>
</g>
</svg>
