<?xml version="1.0" encoding="UTF-8" standalone="no"?>
<!-- Generator: Adobe Illustrator 24.0.0, SVG Export Plug-In . SVG Version: 6.00 Build 0)  -->

<svg
   version="1.1"
   id="Layer_1"
   x="0px"
   y="0px"
   viewBox="0 0 31.8 31.8"
   style="enable-background:new 0 0 31.8 31.8;"
   xml:space="preserve"
   sodipodi:docname="arweave-logo-dark.svg"
   inkscape:version="1.2.2 (b0a8486541, 2022-12-01)"
   xmlns:inkscape="http://www.inkscape.org/namespaces/inkscape"
   xmlns:sodipodi="http://sodipodi.sourceforge.net/DTD/sodipodi-0.dtd"
   xmlns="http://www.w3.org/2000/svg"
   xmlns:svg="http://www.w3.org/2000/svg"><defs
   id="defs1218" /><sodipodi:namedview
   id="namedview1216"
   pagecolor="#ffffff"
   bordercolor="#111111"
   borderopacity="1"
   inkscape:showpageshadow="0"
   inkscape:pageopacity="0"
   inkscape:pagecheckerboard="1"
   inkscape:deskcolor="#d1d1d1"
   showgrid="false"
   inkscape:zoom="26.91824"
   inkscape:cx="12.965187"
   inkscape:cy="15.844275"
   inkscape:window-width="1920"
   inkscape:window-height="1080"
   inkscape:window-x="0"
   inkscape:window-y="0"
   inkscape:window-maximized="1"
   inkscape:current-layer="Layer_1" />
<style
   type="text/css"
   id="style1209">
	.st0{fill:none;stroke:#222326;stroke-width:2.5;}
	.st1{fill:#222326;}
</style>
<circle
   class="st0"
   cx="15.9"
   cy="15.9"
   r="14.7"
   id="circle1211" />
<path
   class="st1"
   d="M18.7,21.2c-0.1-0.1-0.1-0.3-0.2-0.5c0-0.2-0.1-0.4-0.1-0.6c-0.2,0.2-0.4,0.3-0.6,0.5c-0.2,0.2-0.5,0.3-0.7,0.4  c-0.3,0.1-0.5,0.2-0.9,0.3c-0.3,0.1-0.7,0.1-1,0.1c-0.6,0-1.1-0.1-1.6-0.3c-0.5-0.2-0.9-0.4-1.3-0.7c-0.4-0.3-0.6-0.7-0.8-1.1  c-0.2-0.4-0.3-0.9-0.3-1.4c0-1.2,0.5-2.2,1.4-2.8c0.9-0.7,2.3-1,4.1-1h1.7v-0.7c0-0.6-0.2-1-0.5-1.3c-0.4-0.3-0.9-0.5-1.6-0.5  c-0.6,0-1,0.1-1.3,0.4c-0.3,0.3-0.4,0.6-0.4,1h-3c0-0.5,0.1-1,0.3-1.4c0.2-0.4,0.5-0.8,1-1.2c0.4-0.3,0.9-0.6,1.5-0.8  c0.6-0.2,1.3-0.3,2.1-0.3c0.7,0,1.3,0.1,1.9,0.3c0.6,0.2,1.1,0.4,1.6,0.8c0.4,0.3,0.8,0.8,1,1.3c0.2,0.5,0.4,1.1,0.4,1.8v5  c0,0.6,0,1.1,0.1,1.5c0.1,0.4,0.2,0.8,0.3,1v0.2H18.7z M15.8,19.1c0.3,0,0.6,0,0.8-0.1c0.3-0.1,0.5-0.2,0.7-0.3  c0.2-0.1,0.4-0.2,0.5-0.4c0.1-0.1,0.3-0.3,0.4-0.4v-2h-1.5c-0.5,0-0.9,0-1.2,0.1c-0.3,0.1-0.6,0.2-0.8,0.4c-0.2,0.2-0.4,0.3-0.5,0.6  c-0.1,0.2-0.1,0.5-0.1,0.7c0,0.4,0.1,0.7,0.4,1C14.8,19,15.3,19.1,15.8,19.1z"
   id="path1213" />
<path
   style="opacity:1;fill:#f2f2f2;stroke:none;stroke-width:0.0743734"
   d="m 14.766939,21.359275 c -0.781773,-0.07055 -1.783309,-0.473323 -2.457559,-0.988325 -0.272299,-0.207986 -0.50871,-0.526058 -0.738272,-0.993283 -0.215007,-0.437601 -0.289432,-0.698165 -0.326912,-1.144534 -0.164523,-1.959399 0.987243,-3.388574 3.132673,-3.887191 0.696743,-0.161929 1.127066,-0.197941 2.609754,-0.218398 l 1.42097,-0.01961 -9.1e-4,-0.506365 c -0.0013,-0.705659 -0.06547,-0.95702 -0.340018,-1.331229 -0.168147,-0.229182 -0.515426,-0.447952 -0.903581,-0.569216 -0.505213,-0.157834 -1.427158,-0.138979 -1.826853,0.03736 -0.363522,0.160382 -0.686266,0.607726 -0.73817,1.023152 l -0.02543,0.203544 H 13.09093 c -1.38646,0 -1.481686,-0.0042 -1.481481,-0.06501 6.84e-4,-0.20306 0.121303,-0.814495 0.20404,-1.034307 0.427842,-1.136672 1.709143,-2.0955629 3.216084,-2.4068302 0.646744,-0.1335885 1.614816,-0.1755253 2.21441,-0.095928 0.902191,0.1197675 1.860043,0.4557976 2.481769,0.8706452 0.816891,0.545071 1.247288,1.213855 1.566557,2.434235 0.05629,0.215179 0.06585,0.611603 0.08773,3.640654 0.0272,3.765901 0.0086,3.476528 0.27924,4.346496 0.05403,0.173674 0.10706,0.361928 0.117853,0.418343 l 0.01963,0.102572 -1.554115,-0.0097 -1.554114,-0.0097 -0.06897,-0.185747 c -0.03793,-0.102162 -0.09914,-0.332808 -0.136016,-0.512548 -0.03687,-0.17974 -0.07643,-0.336189 -0.08791,-0.347665 -0.02047,-0.02047 -0.237326,0.147302 -0.596237,0.461309 -0.363373,0.317909 -1.444651,0.72579 -2.09057,0.788606 -0.407728,0.03965 -0.48893,0.03954 -0.941882,-0.0013 z M 16.67837,18.99377 c 0.143999,-0.05174 0.410951,-0.168783 0.593228,-0.2601 0.274796,-0.137668 0.384066,-0.220951 0.639644,-0.487526 l 0.308232,-0.321495 0.0012,-1.014518 0.0012,-1.014519 -1.290947,0.01297 c -1.28945,0.01296 -1.291259,0.01309 -1.560797,0.111605 -0.411624,0.150451 -0.606782,0.271375 -0.876303,0.542977 -0.323281,0.325779 -0.395551,0.518981 -0.395551,1.057454 0,0.442615 0.05073,0.648189 0.221061,0.895751 0.304409,0.442443 0.869326,0.635637 1.72752,0.590788 0.26346,-0.01377 0.444975,-0.04636 0.631542,-0.11339 z"
   id="path1289" /><path
   style="opacity:1;fill:#f2f2f2;stroke:none;stroke-width:0.0743734"
   d="M 14.859813,31.799502 C 11.311745,31.540459 8.0346955,30.179468 5.4052569,27.872931 2.3853271,25.223856 0.49799557,21.57429 0.04928945,17.516004 -0.02689788,16.826934 -0.01562035,14.795896 0.06816373,14.116822 0.38981739,11.509802 1.2244971,9.2273415 2.6357891,7.0955606 3.6991509,5.4893344 5.1949006,3.955593 6.7829922,2.8430206 9.8899714,0.66635769 13.768326,-0.33942716 17.530374,0.05587129 c 3.138046,0.32973123 6.035015,1.54496911 8.530023,3.57822501 0.604423,0.4925629 1.744244,1.6550349 2.264819,2.3098288 1.930439,2.4281562 3.081773,5.2313159 3.425494,8.3400699 0.06579,0.595007 0.06579,2.637003 0,3.232009 -0.449629,4.06663 -2.32399,7.690905 -5.355968,10.35633 -2.4642,2.16629 -5.550387,3.516888 -8.845686,3.871109 -0.654211,0.07032 -2.085273,0.100155 -2.689243,0.05606 z m 1.857476,-2.467964 c 0.779037,-0.02997 1.572312,-0.150261 2.470444,-0.374614 C 22.47042,28.136911 25.338938,26.090449 27.186407,23.2505 30.10162,18.769201 30.089987,12.969341 27.156833,8.5072428 26.755468,7.8966616 26.383971,7.4156974 25.885595,6.8614175 24.024139,4.7911554 21.517984,3.3435783 18.741939,2.735179 17.242977,2.4066658 15.491016,2.3527394 13.87535,2.5853824 11.876609,2.8731852 9.7934473,3.7176398 8.0800232,4.9346433 4.5439844,7.4462057 2.4340609,11.544013 2.4340609,15.9 c 0,4.452495 2.2038141,8.626562 5.8688595,11.115733 1.7941976,1.218556 3.7241836,1.955065 5.8728896,2.241172 0.468547,0.06239 1.534824,0.121089 1.872788,0.103099 0.102161,-0.0054 0.403072,-0.01825 0.668691,-0.02847 z"
   id="path1291" /></svg>
