<?xml version="1.0" encoding="UTF-8" standalone="no"?>
<!-- Generator: Adobe Illustrator 26.0.3, SVG Export Plug-In . SVG Version: 6.00 Build 0)  -->

<svg
   version="1.0"
   id="katman_1"
   x="0px"
   y="0px"
   viewBox="0 0 508.20007 508.29999"
   xml:space="preserve"
   sodipodi:docname="polygon-matic-logo.svg"
   width="508.20007"
   height="508.29999"
   inkscape:version="1.2.2 (b0a8486541, 2022-12-01)"
   xmlns:inkscape="http://www.inkscape.org/namespaces/inkscape"
   xmlns:sodipodi="http://sodipodi.sourceforge.net/DTD/sodipodi-0.dtd"
   xmlns:xlink="http://www.w3.org/1999/xlink"
   xmlns="http://www.w3.org/2000/svg"
   xmlns:svg="http://www.w3.org/2000/svg"><defs
   id="defs78" /><sodipodi:namedview
   id="namedview76"
   pagecolor="#ffffff"
   bordercolor="#111111"
   borderopacity="1"
   inkscape:showpageshadow="0"
   inkscape:pageopacity="0"
   inkscape:pagecheckerboard="1"
   inkscape:deskcolor="#d1d1d1"
   showgrid="false"
   inkscape:zoom="1.4266667"
   inkscape:cx="254.78972"
   inkscape:cy="254.78972"
   inkscape:window-width="1920"
   inkscape:window-height="1033"
   inkscape:window-x="0"
   inkscape:window-y="47"
   inkscape:window-maximized="1"
   inkscape:current-layer="katman_1" />
<style
   type="text/css"
   id="style59">
	.st0{fill:#8247E5;}
	.st1{clip-path:url(#SVGID_00000170985874484226784740000010197121833159053193_);}
	.st2{fill:#FFFFFF;}
</style>
<path
   class="st0"
   d="m 254.00007,0 v 0 c 140.4,0 254.2,113.8 254.2,254.2 v 0 c 0,140.4 -113.8,254.1 -254.1,254.1 v 0 C 113.70007,508.3 6.585463e-5,394.5 6.585463e-5,254.2 v 0 C -0.09993415,113.8 113.70007,0 254.00007,0 Z"
   id="path61" />
<g
   id="g73"
   transform="translate(-145.79993,-45.4)">
	<defs
   id="defs64">
		<rect
   id="SVGID_1_"
   x="231.5"
   y="155.3"
   width="333.10001"
   height="291.89999" />
	</defs>
	<clipPath
   id="SVGID_00000119824040907289936360000005545950198423505064_">
		<use
   xlink:href="#SVGID_1_"
   style="overflow:visible"
   id="use66" />
	</clipPath>
	<g
   clip-path="url(#SVGID_00000119824040907289936360000005545950198423505064_)"
   id="g71">
		<path
   class="st2"
   d="m 483.1,244.2 c -6.1,-3.5 -13.9,-3.5 -20.8,0 L 413.7,273 380.7,291.3 333,320 c -6.1,3.5 -13.9,3.5 -20.8,0 l -37.3,-22.7 c -6.1,-3.5 -10.4,-10.5 -10.4,-18.3 v -43.6 c 0,-7 3.5,-13.9 10.4,-18.3 l 37.3,-21.8 c 6.1,-3.5 13.9,-3.5 20.8,0 l 37.3,22.7 c 6.1,3.5 10.4,10.5 10.4,18.3 v 28.8 l 33,-19.2 v -29.6 c 0,-7 -3.5,-13.9 -10.4,-18.3 l -69.4,-41 c -6.1,-3.5 -13.9,-3.5 -20.8,0 L 242,198.9 c -6.9,3.5 -10.4,10.5 -10.4,17.4 v 81.9 c 0,7 3.5,13.9 10.4,18.3 l 70.3,41 c 6.1,3.5 13.9,3.5 20.8,0 l 47.7,-27.9 33,-19.2 47.7,-27.9 c 6.1,-3.5 13.9,-3.5 20.8,0 l 37.3,21.8 c 6.1,3.5 10.4,10.5 10.4,18.3 v 43.6 c 0,7 -3.5,13.9 -10.4,18.3 l -36.4,21.8 c -6.1,3.5 -13.9,3.5 -20.8,0 L 425,384.5 C 418.9,381 414.6,374 414.6,366.2 v -27.9 l -33,19.2 v 28.8 c 0,7 3.5,13.9 10.4,18.3 l 70.3,41 c 6.1,3.5 13.9,3.5 20.8,0 l 70.3,-41 c 6.1,-3.5 10.4,-10.5 10.4,-18.3 v -82.8 c 0,-7 -3.5,-13.9 -10.4,-18.3 z"
   id="path69" />
	</g>
</g>
</svg>
